  0
SECTION
  2
HEADER
  9
$ACADVER
  1
AC1018
  9
$HANDSEED
  5
FFFFFFFF
  9
$ANGBASE
  50
0.0
  9
$ANGDIR
  70
1
  9
$MEASUREMENT
  70
0
  9
$INSUNITS
  70
1
  0
ENDSEC
  0
SECTION
  2
TABLES
  0
TABLE
  2
APPID
  5
1
330
0
100
AcDbSymbolTable
 70
1
  0
APPID
  5
2
330
1
100
AcDbSymbolTableRecord
100
AcDbRegAppTableRecord
  2
ACAD
 70
0
  0
ENDTAB
  0
TABLE
  2
LTYPE
  5
3
330
0
100
AcDbSymbolTable
 70
6
  0
LTYPE
  5
4
330
3
100
AcDbSymbolTableRecord
100
AcDbLinetypeTableRecord
  2
ByBlock
 70
0
  3

 72
65
 73
0
 40
0
  0
LTYPE
  5
5
330
3
100
AcDbSymbolTableRecord
100
AcDbLinetypeTableRecord
  2
ByLayer
 70
0
  3

 72
65
 73
0
 40
0
  0
LTYPE
  5
6
330
3
100
AcDbSymbolTableRecord
100
AcDbLinetypeTableRecord
  2
CONTINUOUS
 70
0
  3
Solid line
 72
65
 73
0
 40
0
  0
LTYPE
  5
7
330
3
100
AcDbSymbolTableRecord
100
AcDbLinetypeTableRecord
  2
DASHDOT
 70
0
  3
Dash Dot ____ _ ____ _
 72
65
 73
4
 40
2
 49
1.25
 74
0
 49
-0.25
 74
0
 49
0.25
 74
0
 49
-0.25
 74
0
  0
LTYPE
  5
8
330
3
100
AcDbSymbolTableRecord
100
AcDbLinetypeTableRecord
  2
DASHED
 70
0
  3
Dashed __ __ __ __ __
 72
65
 73
2
 40
0.75
 49
0.5
 74
0
 49
-0.25
 74
0
  0
LTYPE
  5
9
330
3
100
AcDbSymbolTableRecord
100
AcDbLinetypeTableRecord
  2
DOTTED
 70
0
  3
Dotted .  .  .  .
 72
65
 73
2
 40
0.2
 49
0.0
 74
0
 49
-0.2
 74
0
  0
ENDTAB
  0
TABLE
  2
STYLE
  5
A
330
0
100
AcDbSymbolTable
 70
4
  0
STYLE
  5
B
330
A
100
AcDbSymbolTableRecord
100
AcDbTextStyleTableRecord
  2
KICAD
 70
0
 40
0
 41
1
 42
1
 50
0
 71
0
  3
isocp.shx
  0
STYLE
  5
C
330
A
100
AcDbSymbolTableRecord
100
AcDbTextStyleTableRecord
  2
KICADB
 70
0
 40
0
 41
1
 42
1
 50
0
 71
0
  3
isocp.shx
  0
STYLE
  5
D
330
A
100
AcDbSymbolTableRecord
100
AcDbTextStyleTableRecord
  2
KICADI
 70
0
 40
0
 41
1
 42
1
 50
15
 71
0
  3
isocp.shx
  0
STYLE
  5
E
330
A
100
AcDbSymbolTableRecord
100
AcDbTextStyleTableRecord
  2
KICADBI
 70
0
 40
0
 41
1
 42
1
 50
15
 71
0
  3
isocp.shx
  0
ENDTAB
  0
TABLE
  2
LAYER
  5
F
330
0
100
AcDbSymbolTable
 70
2
  0
LAYER
  5
12
330
F
100
AcDbSymbolTableRecord
100
AcDbLayerTableRecord
  2
0
 70
0
 62
7
  6
CONTINUOUS
390
10
  0
LAYER
  5
13
330
F
100
AcDbSymbolTableRecord
100
AcDbLayerTableRecord
  2
BLACK
 70
0
 62
250
  6
CONTINUOUS
390
10
  0
ENDTAB
  0
TABLE
  2
VPORT
  5
14
330
0
100
AcDbSymbolTable
 70
0
  0
ENDTAB
  0
TABLE
  2
VIEW
  5
15
330
0
100
AcDbSymbolTable
 70
0
  0
ENDTAB
  0
TABLE
  2
UCS
  5
16
330
0
100
AcDbSymbolTable
 70
0
  0
ENDTAB
  0
TABLE
  2
DIMSTYLE
  5
17
330
0
100
AcDbSymbolTable
 70
1
100
AcDbDimStyleTable
 71
0
  0
DIMSTYLE
105
18
330
17
100
AcDbSymbolTableRecord
100
AcDbDimStyleTableRecord
  2
Standard
 70
0
  0
ENDTAB
  0
TABLE
  2
BLOCK_RECORD
  5
19
330
0
100
AcDbSymbolTable
 70
3
  0
BLOCK_RECORD
  5
1A
330
19
100
AcDbSymbolTableRecord
100
AcDbBlockTableRecord
  2
*Model_Space
340
1D
 70
0
280
1
281
0
  0
BLOCK_RECORD
  5
1B
330
19
100
AcDbSymbolTableRecord
100
AcDbBlockTableRecord
  2
*Paper_Space
340
1E
 70
0
280
1
281
0
  0
BLOCK_RECORD
  5
1C
330
19
100
AcDbSymbolTableRecord
100
AcDbBlockTableRecord
  2
*Paper_Space0
340
1F
 70
0
280
1
281
0
  0
ENDTAB
  0
ENDSEC
  0
SECTION
  2
BLOCKS
  0
BLOCK
  5
23
330
1A
100
AcDbEntity
  8
0
100
AcDbBlockBegin
  2
*Model_Space
 70
0
 10
0.0
 20
0.0
 30
0.0
  3
*Model_Space
  1

  0
ENDBLK
  5
22
330
1A
100
AcDbEntity
  8
0
100
AcDbBlockEnd
  0
BLOCK
  5
25
330
1B
100
AcDbEntity
 67
1
  8
0
100
AcDbBlockBegin
  2
*Paper_Space
 70
0
 10
0.0
 20
0.0
 30
0.0
  3
*Paper_Space
  1

  0
ENDBLK
  5
24
330
1B
100
AcDbEntity
 67
1
  8
0
100
AcDbBlockEnd
  0
BLOCK
  5
27
330
1C
100
AcDbEntity
 67
1
  8
0
100
AcDbBlockBegin
  2
*Paper_Space0
 70
0
 10
0.0
 20
0.0
 30
0.0
  3
*Paper_Space0
  1

  0
ENDBLK
  5
26
330
1C
100
AcDbEntity
 67
1
  8
0
100
AcDbBlockEnd
  0
ENDSEC
  0
SECTION
  2
ENTITIES
  0
LINE
  5
28
330
1A
100
AcDbEntity
  8
BLACK
  6
CONTINUOUS
100
AcDbLine
 10
0.9895105118110236
 20
0.8889014566929133
 30
0
 11
0.9900431889763779
 21
0.888368779527559
 31
0
  0
LINE
  5
29
330
1A
100
AcDbEntity
  8
BLACK
  6
CONTINUOUS
100
AcDbLine
 10
0.9900431889763779
 20
0.888368779527559
 30
0
 11
0.9901181102362204
 21
0.8879921259842519
 31
0
  0
LINE
  5
2A
330
1A
100
AcDbEntity
  8
BLACK
  6
CONTINUOUS
100
AcDbLine
 10
0.9901181102362204
 20
0.8879921259842519
 30
0
 11
0.9901181102362204
 21
0.7079685039370078
 31
0
  0
LINE
  5
2B
330
1A
100
AcDbEntity
  8
BLACK
  6
CONTINUOUS
100
AcDbLine
 10
0.9901181102362204
 20
0.7079685039370078
 30
0
 11
1.0987244094488189
 21
0.7079685039370078
 31
0
  0
LINE
  5
2C
330
1A
100
AcDbEntity
  8
BLACK
  6
CONTINUOUS
100
AcDbLine
 10
1.0987244094488189
 20
0.7079685039370078
 30
0
 11
1.0991010629921261
 21
0.7078935826771653
 31
0
  0
LINE
  5
2D
330
1A
100
AcDbEntity
  8
BLACK
  6
CONTINUOUS
100
AcDbLine
 10
1.0991010629921261
 20
0.7078935826771653
 30
0
 11
1.0996337401574803
 21
0.707360905511811
 31
0
  0
LINE
  5
2E
330
1A
100
AcDbEntity
  8
BLACK
  6
CONTINUOUS
100
AcDbLine
 10
1.0996337401574803
 20
0.707360905511811
 30
0
 11
1.0997086614173228
 21
0.7069842519685039
 31
0
  0
LINE
  5
2F
330
1A
100
AcDbEntity
  8
BLACK
  6
CONTINUOUS
100
AcDbLine
 10
1.0997086614173228
 20
0.7069842519685039
 30
0
 11
1.0997086614173228
 21
0.6646614173228347
 31
0
  0
LINE
  5
30
330
1A
100
AcDbEntity
  8
BLACK
  6
CONTINUOUS
100
AcDbLine
 10
1.0997086614173228
 20
0.6646614173228347
 30
0
 11
1.1754960629921261
 21
0.6646614173228347
 31
0
  0
LINE
  5
31
330
1A
100
AcDbEntity
  8
BLACK
  6
CONTINUOUS
100
AcDbLine
 10
1.1754960629921261
 20
0.6646614173228347
 30
0
 11
1.175872716535433
 21
0.6645864960629921
 31
0
  0
LINE
  5
32
330
1A
100
AcDbEntity
  8
BLACK
  6
CONTINUOUS
100
AcDbLine
 10
1.175872716535433
 20
0.6645864960629921
 30
0
 11
1.1764053937007874
 21
0.6640538188976378
 31
0
  0
LINE
  5
33
330
1A
100
AcDbEntity
  8
BLACK
  6
CONTINUOUS
100
AcDbLine
 10
1.1764053937007874
 20
0.6640538188976378
 30
0
 11
1.17648031496063
 21
0.6636771653543307
 31
0
  0
LINE
  5
34
330
1A
100
AcDbEntity
  8
BLACK
  6
CONTINUOUS
100
AcDbLine
 10
1.17648031496063
 20
0.6636771653543307
 30
0
 11
1.17648031496063
 21
0.6016692913385827
 31
0
  0
LINE
  5
35
330
1A
100
AcDbEntity
  8
BLACK
  6
CONTINUOUS
100
AcDbLine
 10
1.17648031496063
 20
0.6016692913385827
 30
0
 11
1.1794330708661418
 21
0.6016692913385827
 31
0
  0
LINE
  5
36
330
1A
100
AcDbEntity
  8
BLACK
  6
CONTINUOUS
100
AcDbLine
 10
1.1794330708661418
 20
0.6016692913385827
 30
0
 11
1.1798097244094488
 21
0.6015943700787402
 31
0
  0
LINE
  5
37
330
1A
100
AcDbEntity
  8
BLACK
  6
CONTINUOUS
100
AcDbLine
 10
1.1798097244094488
 20
0.6015943700787402
 30
0
 11
1.1803424015748032
 21
0.6010616929133858
 31
0
  0
LINE
  5
38
330
1A
100
AcDbEntity
  8
BLACK
  6
CONTINUOUS
100
AcDbLine
 10
1.1803424015748032
 20
0.6010616929133858
 30
0
 11
1.1804173228346457
 21
0.6006850393700788
 31
0
  0
LINE
  5
39
330
1A
100
AcDbEntity
  8
BLACK
  6
CONTINUOUS
100
AcDbLine
 10
1.1804173228346457
 20
0.6006850393700788
 30
0
 11
1.1804173228346457
 21
0.455015748031496
 31
0
  0
LINE
  5
3A
330
1A
100
AcDbEntity
  8
BLACK
  6
CONTINUOUS
100
AcDbLine
 10
1.1804173228346457
 20
0.455015748031496
 30
0
 11
1.1803424015748032
 21
0.454639094488189
 31
0
  0
LINE
  5
3B
330
1A
100
AcDbEntity
  8
BLACK
  6
CONTINUOUS
100
AcDbLine
 10
1.1803424015748032
 20
0.454639094488189
 30
0
 11
1.1798097244094488
 21
0.4541064173228346
 31
0
  0
LINE
  5
3C
330
1A
100
AcDbEntity
  8
BLACK
  6
CONTINUOUS
100
AcDbLine
 10
1.1798097244094488
 20
0.4541064173228346
 30
0
 11
1.1794330708661418
 21
0.4540314960629921
 31
0
  0
LINE
  5
3D
330
1A
100
AcDbEntity
  8
BLACK
  6
CONTINUOUS
100
AcDbLine
 10
1.1794330708661418
 20
0.4540314960629921
 30
0
 11
1.1002992125984252
 21
0.4540314960629921
 31
0
  0
LINE
  5
3E
330
1A
100
AcDbEntity
  8
BLACK
  6
CONTINUOUS
100
AcDbLine
 10
1.1002992125984252
 20
0.4540314960629921
 30
0
 11
1.099922559055118
 21
0.4541064173228346
 31
0
  0
LINE
  5
3F
330
1A
100
AcDbEntity
  8
BLACK
  6
CONTINUOUS
100
AcDbLine
 10
1.099922559055118
 20
0.4541064173228346
 30
0
 11
1.0993898818897638
 21
0.454639094488189
 31
0
  0
LINE
  5
40
330
1A
100
AcDbEntity
  8
BLACK
  6
CONTINUOUS
100
AcDbLine
 10
1.0993898818897638
 20
0.454639094488189
 30
0
 11
1.0993149606299213
 21
0.455015748031496
 31
0
  0
LINE
  5
41
330
1A
100
AcDbEntity
  8
BLACK
  6
CONTINUOUS
100
AcDbLine
 10
1.0993149606299213
 20
0.455015748031496
 30
0
 11
1.0993149606299213
 21
0.4638740157480315
 31
0
  0
LINE
  5
42
330
1A
100
AcDbEntity
  8
BLACK
  6
CONTINUOUS
100
AcDbLine
 10
1.0993149606299213
 20
0.4638740157480315
 30
0
 11
0.7886850393700787
 21
0.4638740157480315
 31
0
  0
LINE
  5
43
330
1A
100
AcDbEntity
  8
BLACK
  6
CONTINUOUS
100
AcDbLine
 10
0.7886850393700787
 20
0.4638740157480315
 30
0
 11
0.7886850393700787
 21
0.455015748031496
 31
0
  0
LINE
  5
44
330
1A
100
AcDbEntity
  8
BLACK
  6
CONTINUOUS
100
AcDbLine
 10
0.7886850393700787
 20
0.455015748031496
 30
0
 11
0.7886101181102362
 21
0.454639094488189
 31
0
  0
LINE
  5
45
330
1A
100
AcDbEntity
  8
BLACK
  6
CONTINUOUS
100
AcDbLine
 10
0.7886101181102362
 20
0.454639094488189
 30
0
 11
0.7880774409448819
 21
0.4541064173228346
 31
0
  0
LINE
  5
46
330
1A
100
AcDbEntity
  8
BLACK
  6
CONTINUOUS
100
AcDbLine
 10
0.7880774409448819
 20
0.4541064173228346
 30
0
 11
0.7877007874015748
 21
0.4540314960629921
 31
0
  0
LINE
  5
47
330
1A
100
AcDbEntity
  8
BLACK
  6
CONTINUOUS
100
AcDbLine
 10
0.7877007874015748
 20
0.4540314960629921
 30
0
 11
0.7085669291338582
 21
0.4540314960629921
 31
0
  0
LINE
  5
48
330
1A
100
AcDbEntity
  8
BLACK
  6
CONTINUOUS
100
AcDbLine
 10
0.7085669291338582
 20
0.4540314960629921
 30
0
 11
0.7081902755905511
 21
0.4541064173228346
 31
0
  0
LINE
  5
49
330
1A
100
AcDbEntity
  8
BLACK
  6
CONTINUOUS
100
AcDbLine
 10
0.7081902755905511
 20
0.4541064173228346
 30
0
 11
0.7076575984251968
 21
0.454639094488189
 31
0
  0
LINE
  5
4A
330
1A
100
AcDbEntity
  8
BLACK
  6
CONTINUOUS
100
AcDbLine
 10
0.7076575984251968
 20
0.454639094488189
 30
0
 11
0.7075826771653543
 21
0.455015748031496
 31
0
  0
LINE
  5
4B
330
1A
100
AcDbEntity
  8
BLACK
  6
CONTINUOUS
100
AcDbLine
 10
0.7075826771653543
 20
0.455015748031496
 30
0
 11
0.7075826771653543
 21
0.6006850393700788
 31
0
  0
LINE
  5
4C
330
1A
100
AcDbEntity
  8
BLACK
  6
CONTINUOUS
100
AcDbLine
 10
0.7075826771653543
 20
0.6006850393700788
 30
0
 11
0.7076575984251968
 21
0.6010616929133858
 31
0
  0
LINE
  5
4D
330
1A
100
AcDbEntity
  8
BLACK
  6
CONTINUOUS
100
AcDbLine
 10
0.7076575984251968
 20
0.6010616929133858
 30
0
 11
0.7081902755905511
 21
0.6015943700787402
 31
0
  0
LINE
  5
4E
330
1A
100
AcDbEntity
  8
BLACK
  6
CONTINUOUS
100
AcDbLine
 10
0.7081902755905511
 20
0.6015943700787402
 30
0
 11
0.7085669291338582
 21
0.6016692913385827
 31
0
  0
LINE
  5
4F
330
1A
100
AcDbEntity
  8
BLACK
  6
CONTINUOUS
100
AcDbLine
 10
0.7085669291338582
 20
0.6016692913385827
 30
0
 11
0.71151968503937
 21
0.6016692913385827
 31
0
  0
LINE
  5
50
330
1A
100
AcDbEntity
  8
BLACK
  6
CONTINUOUS
100
AcDbLine
 10
0.71151968503937
 20
0.6016692913385827
 30
0
 11
0.71151968503937
 21
0.6636771653543307
 31
0
  0
LINE
  5
51
330
1A
100
AcDbEntity
  8
BLACK
  6
CONTINUOUS
100
AcDbLine
 10
0.71151968503937
 20
0.6636771653543307
 30
0
 11
0.7115946062992126
 21
0.6640538188976378
 31
0
  0
LINE
  5
52
330
1A
100
AcDbEntity
  8
BLACK
  6
CONTINUOUS
100
AcDbLine
 10
0.7115946062992126
 20
0.6640538188976378
 30
0
 11
0.7121272834645669
 21
0.6645864960629921
 31
0
  0
LINE
  5
53
330
1A
100
AcDbEntity
  8
BLACK
  6
CONTINUOUS
100
AcDbLine
 10
0.7121272834645669
 20
0.6645864960629921
 30
0
 11
0.712503937007874
 21
0.6646614173228347
 31
0
  0
LINE
  5
54
330
1A
100
AcDbEntity
  8
BLACK
  6
CONTINUOUS
100
AcDbLine
 10
0.712503937007874
 20
0.6646614173228347
 30
0
 11
0.7882913385826772
 21
0.6646614173228347
 31
0
  0
LINE
  5
55
330
1A
100
AcDbEntity
  8
BLACK
  6
CONTINUOUS
100
AcDbLine
 10
0.7882913385826772
 20
0.6646614173228347
 30
0
 11
0.7882913385826772
 21
0.7069842519685039
 31
0
  0
LINE
  5
56
330
1A
100
AcDbEntity
  8
BLACK
  6
CONTINUOUS
100
AcDbLine
 10
0.7882913385826772
 20
0.7069842519685039
 30
0
 11
0.7883662598425196
 21
0.707360905511811
 31
0
  0
LINE
  5
57
330
1A
100
AcDbEntity
  8
BLACK
  6
CONTINUOUS
100
AcDbLine
 10
0.7883662598425196
 20
0.707360905511811
 30
0
 11
0.7888989370078739
 21
0.7078935826771653
 31
0
  0
LINE
  5
58
330
1A
100
AcDbEntity
  8
BLACK
  6
CONTINUOUS
100
AcDbLine
 10
0.7888989370078739
 20
0.7078935826771653
 30
0
 11
0.7892755905511811
 21
0.7079685039370078
 31
0
  0
LINE
  5
59
330
1A
100
AcDbEntity
  8
BLACK
  6
CONTINUOUS
100
AcDbLine
 10
0.7892755905511811
 20
0.7079685039370078
 30
0
 11
0.8897244094488189
 21
0.7079685039370078
 31
0
  0
LINE
  5
5A
330
1A
100
AcDbEntity
  8
BLACK
  6
CONTINUOUS
100
AcDbLine
 10
0.8897244094488189
 20
0.7079685039370078
 30
0
 11
0.8897244094488189
 21
0.8879921259842519
 31
0
  0
LINE
  5
5B
330
1A
100
AcDbEntity
  8
BLACK
  6
CONTINUOUS
100
AcDbLine
 10
0.8897244094488189
 20
0.8879921259842519
 30
0
 11
0.8897993307086614
 21
0.888368779527559
 31
0
  0
LINE
  5
5C
330
1A
100
AcDbEntity
  8
BLACK
  6
CONTINUOUS
100
AcDbLine
 10
0.8897993307086614
 20
0.888368779527559
 30
0
 11
0.8903320078740157
 21
0.8889014566929133
 31
0
  0
LINE
  5
5D
330
1A
100
AcDbEntity
  8
BLACK
  6
CONTINUOUS
100
AcDbLine
 10
0.8903320078740157
 20
0.8889014566929133
 30
0
 11
0.8907086614173229
 21
0.8889763779527559
 31
0
  0
LINE
  5
5E
330
1A
100
AcDbEntity
  8
BLACK
  6
CONTINUOUS
100
AcDbLine
 10
0.8907086614173229
 20
0.8889763779527559
 30
0
 11
0.9891338582677165
 21
0.8889763779527559
 31
0
  0
LINE
  5
5F
330
1A
100
AcDbEntity
  8
BLACK
  6
CONTINUOUS
100
AcDbLine
 10
0.9891338582677165
 20
0.8889763779527559
 30
0
 11
0.9895105118110236
 21
0.8889014566929133
 31
0
  0
LINE
  5
60
330
1A
100
AcDbEntity
  8
BLACK
  6
CONTINUOUS
100
AcDbLine
 10
0.9895300787401574
 20
0.706
 30
0
 11
0.9895105118110236
 21
0.7059804330708661
 31
0
  0
LINE
  5
61
330
1A
100
AcDbEntity
  8
BLACK
  6
CONTINUOUS
100
AcDbLine
 10
0.9895105118110236
 20
0.7059804330708661
 30
0
 11
0.9891338582677165
 21
0.7059055118110236
 31
0
  0
LINE
  5
62
330
1A
100
AcDbEntity
  8
BLACK
  6
CONTINUOUS
100
AcDbLine
 10
0.9891338582677165
 20
0.7059055118110236
 30
0
 11
0.8907086614173229
 21
0.7059055118110236
 31
0
  0
LINE
  5
63
330
1A
100
AcDbEntity
  8
BLACK
  6
CONTINUOUS
100
AcDbLine
 10
0.8907086614173229
 20
0.7059055118110236
 30
0
 11
0.8903320078740157
 21
0.7059804330708661
 31
0
  0
LINE
  5
64
330
1A
100
AcDbEntity
  8
BLACK
  6
CONTINUOUS
100
AcDbLine
 10
0.8903320078740157
 20
0.7059804330708661
 30
0
 11
0.8903124409448818
 21
0.706
 31
0
  0
LINE
  5
65
330
1A
100
AcDbEntity
  8
BLACK
  6
CONTINUOUS
100
AcDbLine
 10
0.8903124409448818
 20
0.706
 30
0
 11
0.7902598425196851
 21
0.706
 31
0
  0
LINE
  5
66
330
1A
100
AcDbEntity
  8
BLACK
  6
CONTINUOUS
100
AcDbLine
 10
0.7902598425196851
 20
0.706
 30
0
 11
0.7902598425196851
 21
0.6636771653543307
 31
0
  0
LINE
  5
67
330
1A
100
AcDbEntity
  8
BLACK
  6
CONTINUOUS
100
AcDbLine
 10
0.7902598425196851
 20
0.6636771653543307
 30
0
 11
0.7901849212598425
 21
0.6633005118110236
 31
0
  0
LINE
  5
68
330
1A
100
AcDbEntity
  8
BLACK
  6
CONTINUOUS
100
AcDbLine
 10
0.7901849212598425
 20
0.6633005118110236
 30
0
 11
0.7896522440944882
 21
0.6627678346456692
 31
0
  0
LINE
  5
69
330
1A
100
AcDbEntity
  8
BLACK
  6
CONTINUOUS
100
AcDbLine
 10
0.7896522440944882
 20
0.6627678346456692
 30
0
 11
0.7892755905511811
 21
0.6626929133858268
 31
0
  0
LINE
  5
6A
330
1A
100
AcDbEntity
  8
BLACK
  6
CONTINUOUS
100
AcDbLine
 10
0.7892755905511811
 20
0.6626929133858268
 30
0
 11
0.7134881889763779
 21
0.6626929133858268
 31
0
  0
LINE
  5
6B
330
1A
100
AcDbEntity
  8
BLACK
  6
CONTINUOUS
100
AcDbLine
 10
0.7134881889763779
 20
0.6626929133858268
 30
0
 11
0.7134881889763779
 21
0.6006850393700788
 31
0
  0
LINE
  5
6C
330
1A
100
AcDbEntity
  8
BLACK
  6
CONTINUOUS
100
AcDbLine
 10
0.7134881889763779
 20
0.6006850393700788
 30
0
 11
0.7134132677165355
 21
0.6003083858267716
 31
0
  0
LINE
  5
6D
330
1A
100
AcDbEntity
  8
BLACK
  6
CONTINUOUS
100
AcDbLine
 10
0.7134132677165355
 20
0.6003083858267716
 30
0
 11
0.7128805905511811
 21
0.5997757086614173
 31
0
  0
LINE
  5
6E
330
1A
100
AcDbEntity
  8
BLACK
  6
CONTINUOUS
100
AcDbLine
 10
0.7128805905511811
 20
0.5997757086614173
 30
0
 11
0.712503937007874
 21
0.5997007874015748
 31
0
  0
LINE
  5
6F
330
1A
100
AcDbEntity
  8
BLACK
  6
CONTINUOUS
100
AcDbLine
 10
0.712503937007874
 20
0.5997007874015748
 30
0
 11
0.7095511811023621
 21
0.5997007874015748
 31
0
  0
LINE
  5
70
330
1A
100
AcDbEntity
  8
BLACK
  6
CONTINUOUS
100
AcDbLine
 10
0.7095511811023621
 20
0.5997007874015748
 30
0
 11
0.7095511811023621
 21
0.456
 31
0
  0
LINE
  5
71
330
1A
100
AcDbEntity
  8
BLACK
  6
CONTINUOUS
100
AcDbLine
 10
0.7095511811023621
 20
0.456
 30
0
 11
0.7867165354330709
 21
0.456
 31
0
  0
LINE
  5
72
330
1A
100
AcDbEntity
  8
BLACK
  6
CONTINUOUS
100
AcDbLine
 10
0.7867165354330709
 20
0.456
 30
0
 11
0.7867165354330709
 21
0.4648582677165354
 31
0
  0
LINE
  5
73
330
1A
100
AcDbEntity
  8
BLACK
  6
CONTINUOUS
100
AcDbLine
 10
0.7867165354330709
 20
0.4648582677165354
 30
0
 11
0.7867914566929134
 21
0.4652349212598425
 31
0
  0
LINE
  5
74
330
1A
100
AcDbEntity
  8
BLACK
  6
CONTINUOUS
100
AcDbLine
 10
0.7867914566929134
 20
0.4652349212598425
 30
0
 11
0.7873241338582677
 21
0.4657675984251968
 31
0
  0
LINE
  5
75
330
1A
100
AcDbEntity
  8
BLACK
  6
CONTINUOUS
100
AcDbLine
 10
0.7873241338582677
 20
0.4657675984251968
 30
0
 11
0.7877007874015748
 21
0.4658425196850394
 31
0
  0
LINE
  5
76
330
1A
100
AcDbEntity
  8
BLACK
  6
CONTINUOUS
100
AcDbLine
 10
0.7877007874015748
 20
0.4658425196850394
 30
0
 11
1.1002992125984252
 21
0.4658425196850394
 31
0
  0
LINE
  5
77
330
1A
100
AcDbEntity
  8
BLACK
  6
CONTINUOUS
100
AcDbLine
 10
1.1002992125984252
 20
0.4658425196850394
 30
0
 11
1.1006758661417322
 21
0.4657675984251968
 31
0
  0
LINE
  5
78
330
1A
100
AcDbEntity
  8
BLACK
  6
CONTINUOUS
100
AcDbLine
 10
1.1006758661417322
 20
0.4657675984251968
 30
0
 11
1.1012085433070866
 21
0.4652349212598425
 31
0
  0
LINE
  5
79
330
1A
100
AcDbEntity
  8
BLACK
  6
CONTINUOUS
100
AcDbLine
 10
1.1012085433070866
 20
0.4652349212598425
 30
0
 11
1.1012834645669292
 21
0.4648582677165354
 31
0
  0
LINE
  5
7A
330
1A
100
AcDbEntity
  8
BLACK
  6
CONTINUOUS
100
AcDbLine
 10
1.1012834645669292
 20
0.4648582677165354
 30
0
 11
1.1012834645669292
 21
0.456
 31
0
  0
LINE
  5
7B
330
1A
100
AcDbEntity
  8
BLACK
  6
CONTINUOUS
100
AcDbLine
 10
1.1012834645669292
 20
0.456
 30
0
 11
1.1784488188976379
 21
0.456
 31
0
  0
LINE
  5
7C
330
1A
100
AcDbEntity
  8
BLACK
  6
CONTINUOUS
100
AcDbLine
 10
1.1784488188976379
 20
0.456
 30
0
 11
1.1784488188976379
 21
0.5997007874015748
 31
0
  0
LINE
  5
7D
330
1A
100
AcDbEntity
  8
BLACK
  6
CONTINUOUS
100
AcDbLine
 10
1.1784488188976379
 20
0.5997007874015748
 30
0
 11
1.1754960629921261
 21
0.5997007874015748
 31
0
  0
LINE
  5
7E
330
1A
100
AcDbEntity
  8
BLACK
  6
CONTINUOUS
100
AcDbLine
 10
1.1754960629921261
 20
0.5997007874015748
 30
0
 11
1.1751194094488189
 21
0.5997757086614173
 31
0
  0
LINE
  5
7F
330
1A
100
AcDbEntity
  8
BLACK
  6
CONTINUOUS
100
AcDbLine
 10
1.1751194094488189
 20
0.5997757086614173
 30
0
 11
1.1745867322834644
 21
0.6003083858267716
 31
0
  0
LINE
  5
80
330
1A
100
AcDbEntity
  8
BLACK
  6
CONTINUOUS
100
AcDbLine
 10
1.1745867322834644
 20
0.6003083858267716
 30
0
 11
1.1745118110236221
 21
0.6006850393700788
 31
0
  0
LINE
  5
81
330
1A
100
AcDbEntity
  8
BLACK
  6
CONTINUOUS
100
AcDbLine
 10
1.1745118110236221
 20
0.6006850393700788
 30
0
 11
1.1745118110236221
 21
0.6626929133858268
 31
0
  0
LINE
  5
82
330
1A
100
AcDbEntity
  8
BLACK
  6
CONTINUOUS
100
AcDbLine
 10
1.1745118110236221
 20
0.6626929133858268
 30
0
 11
1.0987244094488189
 21
0.6626929133858268
 31
0
  0
LINE
  5
83
330
1A
100
AcDbEntity
  8
BLACK
  6
CONTINUOUS
100
AcDbLine
 10
1.0987244094488189
 20
0.6626929133858268
 30
0
 11
1.0983477559055117
 21
0.6627678346456692
 31
0
  0
LINE
  5
84
330
1A
100
AcDbEntity
  8
BLACK
  6
CONTINUOUS
100
AcDbLine
 10
1.0983477559055117
 20
0.6627678346456692
 30
0
 11
1.0978150787401575
 21
0.6633005118110236
 31
0
  0
LINE
  5
85
330
1A
100
AcDbEntity
  8
BLACK
  6
CONTINUOUS
100
AcDbLine
 10
1.0978150787401575
 20
0.6633005118110236
 30
0
 11
1.0977401574803149
 21
0.6636771653543307
 31
0
  0
LINE
  5
86
330
1A
100
AcDbEntity
  8
BLACK
  6
CONTINUOUS
100
AcDbLine
 10
1.0977401574803149
 20
0.6636771653543307
 30
0
 11
1.0977401574803149
 21
0.706
 31
0
  0
LINE
  5
87
330
1A
100
AcDbEntity
  8
BLACK
  6
CONTINUOUS
100
AcDbLine
 10
1.0977401574803149
 20
0.706
 30
0
 11
0.9895300787401574
 21
0.706
 31
0
  0
LINE
  5
88
330
1A
100
AcDbEntity
  8
BLACK
  6
CONTINUOUS
100
AcDbLine
 10
0.8916929133858268
 20
0.887007874015748
 30
0
 11
0.8916929133858268
 21
0.7079685039370078
 31
0
  0
LINE
  5
89
330
1A
100
AcDbEntity
  8
BLACK
  6
CONTINUOUS
100
AcDbLine
 10
0.8916929133858268
 20
0.7079685039370078
 30
0
 11
0.9881496062992126
 21
0.7079685039370078
 31
0
  0
LINE
  5
8A
330
1A
100
AcDbEntity
  8
BLACK
  6
CONTINUOUS
100
AcDbLine
 10
0.9881496062992126
 20
0.7079685039370078
 30
0
 11
0.9881496062992126
 21
0.887007874015748
 31
0
  0
LINE
  5
8B
330
1A
100
AcDbEntity
  8
BLACK
  6
CONTINUOUS
100
AcDbLine
 10
0.9881496062992126
 20
0.887007874015748
 30
0
 11
0.8916929133858268
 21
0.887007874015748
 31
0
  0
LINE
  5
8C
330
1A
100
AcDbEntity
  8
BLACK
  6
CONTINUOUS
100
AcDbLine
 10
0.1304947637795276
 20
0.7118935826771653
 30
0
 11
0.1310274409448819
 21
0.711360905511811
 31
0
  0
LINE
  5
8D
330
1A
100
AcDbEntity
  8
BLACK
  6
CONTINUOUS
100
AcDbLine
 10
0.1310274409448819
 20
0.711360905511811
 30
0
 11
0.1311023622047244
 21
0.7109842519685039
 31
0
  0
LINE
  5
8E
330
1A
100
AcDbEntity
  8
BLACK
  6
CONTINUOUS
100
AcDbLine
 10
0.1311023622047244
 20
0.7109842519685039
 30
0
 11
0.1311023622047244
 21
0.6686614173228347
 31
0
  0
LINE
  5
8F
330
1A
100
AcDbEntity
  8
BLACK
  6
CONTINUOUS
100
AcDbLine
 10
0.1311023622047244
 20
0.6686614173228347
 30
0
 11
0.2068897637795276
 21
0.6686614173228347
 31
0
  0
LINE
  5
90
330
1A
100
AcDbEntity
  8
BLACK
  6
CONTINUOUS
100
AcDbLine
 10
0.2068897637795276
 20
0.6686614173228347
 30
0
 11
0.2072664173228346
 21
0.6685864960629921
 31
0
  0
LINE
  5
91
330
1A
100
AcDbEntity
  8
BLACK
  6
CONTINUOUS
100
AcDbLine
 10
0.2072664173228346
 20
0.6685864960629921
 30
0
 11
0.207799094488189
 21
0.6680538188976378
 31
0
  0
LINE
  5
92
330
1A
100
AcDbEntity
  8
BLACK
  6
CONTINUOUS
100
AcDbLine
 10
0.207799094488189
 20
0.6680538188976378
 30
0
 11
0.2078740157480315
 21
0.6676771653543307
 31
0
  0
LINE
  5
93
330
1A
100
AcDbEntity
  8
BLACK
  6
CONTINUOUS
100
AcDbLine
 10
0.2078740157480315
 20
0.6676771653543307
 30
0
 11
0.2078740157480315
 21
0.6056692913385827
 31
0
  0
LINE
  5
94
330
1A
100
AcDbEntity
  8
BLACK
  6
CONTINUOUS
100
AcDbLine
 10
0.2078740157480315
 20
0.6056692913385827
 30
0
 11
0.2108267716535433
 21
0.6056692913385827
 31
0
  0
LINE
  5
95
330
1A
100
AcDbEntity
  8
BLACK
  6
CONTINUOUS
100
AcDbLine
 10
0.2108267716535433
 20
0.6056692913385827
 30
0
 11
0.2112034251968504
 21
0.6055943700787402
 31
0
  0
LINE
  5
96
330
1A
100
AcDbEntity
  8
BLACK
  6
CONTINUOUS
100
AcDbLine
 10
0.2112034251968504
 20
0.6055943700787402
 30
0
 11
0.2117361023622047
 21
0.6050616929133859
 31
0
  0
LINE
  5
97
330
1A
100
AcDbEntity
  8
BLACK
  6
CONTINUOUS
100
AcDbLine
 10
0.2117361023622047
 20
0.6050616929133859
 30
0
 11
0.2118110236220472
 21
0.6046850393700788
 31
0
  0
LINE
  5
98
330
1A
100
AcDbEntity
  8
BLACK
  6
CONTINUOUS
100
AcDbLine
 10
0.2118110236220472
 20
0.6046850393700788
 30
0
 11
0.2118110236220472
 21
0.459015748031496
 31
0
  0
LINE
  5
99
330
1A
100
AcDbEntity
  8
BLACK
  6
CONTINUOUS
100
AcDbLine
 10
0.2118110236220472
 20
0.459015748031496
 30
0
 11
0.2117361023622047
 21
0.458639094488189
 31
0
  0
LINE
  5
9A
330
1A
100
AcDbEntity
  8
BLACK
  6
CONTINUOUS
100
AcDbLine
 10
0.2117361023622047
 20
0.458639094488189
 30
0
 11
0.2112034251968504
 21
0.4581064173228346
 31
0
  0
LINE
  5
9B
330
1A
100
AcDbEntity
  8
BLACK
  6
CONTINUOUS
100
AcDbLine
 10
0.2112034251968504
 20
0.4581064173228346
 30
0
 11
0.2108267716535433
 21
0.4580314960629921
 31
0
  0
LINE
  5
9C
330
1A
100
AcDbEntity
  8
BLACK
  6
CONTINUOUS
100
AcDbLine
 10
0.2108267716535433
 20
0.4580314960629921
 30
0
 11
0.1316929133858268
 21
0.4580314960629921
 31
0
  0
LINE
  5
9D
330
1A
100
AcDbEntity
  8
BLACK
  6
CONTINUOUS
100
AcDbLine
 10
0.1316929133858268
 20
0.4580314960629921
 30
0
 11
0.1313162598425197
 21
0.4581064173228346
 31
0
  0
LINE
  5
9E
330
1A
100
AcDbEntity
  8
BLACK
  6
CONTINUOUS
100
AcDbLine
 10
0.1313162598425197
 20
0.4581064173228346
 30
0
 11
0.1307835826771654
 21
0.458639094488189
 31
0
  0
LINE
  5
9F
330
1A
100
AcDbEntity
  8
BLACK
  6
CONTINUOUS
100
AcDbLine
 10
0.1307835826771654
 20
0.458639094488189
 30
0
 11
0.1307086614173228
 21
0.459015748031496
 31
0
  0
LINE
  5
A0
330
1A
100
AcDbEntity
  8
BLACK
  6
CONTINUOUS
100
AcDbLine
 10
0.1307086614173228
 20
0.459015748031496
 30
0
 11
0.1307086614173228
 21
0.4678740157480315
 31
0
  0
LINE
  5
A1
330
1A
100
AcDbEntity
  8
BLACK
  6
CONTINUOUS
100
AcDbLine
 10
0.1307086614173228
 20
0.4678740157480315
 30
0
 11
-0.081496062992126
 21
0.4678740157480315
 31
0
  0
LINE
  5
A2
330
1A
100
AcDbEntity
  8
BLACK
  6
CONTINUOUS
100
AcDbLine
 10
-0.081496062992126
 20
0.4678740157480315
 30
0
 11
-0.081496062992126
 21
0.459015748031496
 31
0
  0
LINE
  5
A3
330
1A
100
AcDbEntity
  8
BLACK
  6
CONTINUOUS
100
AcDbLine
 10
-0.081496062992126
 20
0.459015748031496
 30
0
 11
-0.0815709842519685
 21
0.458639094488189
 31
0
  0
LINE
  5
A4
330
1A
100
AcDbEntity
  8
BLACK
  6
CONTINUOUS
100
AcDbLine
 10
-0.0815709842519685
 20
0.458639094488189
 30
0
 11
-0.0821036614173228
 21
0.4581064173228346
 31
0
  0
LINE
  5
A5
330
1A
100
AcDbEntity
  8
BLACK
  6
CONTINUOUS
100
AcDbLine
 10
-0.0821036614173228
 20
0.4581064173228346
 30
0
 11
-0.0824803149606299
 21
0.4580314960629921
 31
0
  0
LINE
  5
A6
330
1A
100
AcDbEntity
  8
BLACK
  6
CONTINUOUS
100
AcDbLine
 10
-0.0824803149606299
 20
0.4580314960629921
 30
0
 11
-0.1616141732283465
 21
0.4580314960629921
 31
0
  0
LINE
  5
A7
330
1A
100
AcDbEntity
  8
BLACK
  6
CONTINUOUS
100
AcDbLine
 10
-0.1616141732283465
 20
0.4580314960629921
 30
0
 11
-0.1619908267716536
 21
0.4581064173228346
 31
0
  0
LINE
  5
A8
330
1A
100
AcDbEntity
  8
BLACK
  6
CONTINUOUS
100
AcDbLine
 10
-0.1619908267716536
 20
0.4581064173228346
 30
0
 11
-0.1625235039370079
 21
0.458639094488189
 31
0
  0
LINE
  5
A9
330
1A
100
AcDbEntity
  8
BLACK
  6
CONTINUOUS
100
AcDbLine
 10
-0.1625235039370079
 20
0.458639094488189
 30
0
 11
-0.1625984251968504
 21
0.459015748031496
 31
0
  0
LINE
  5
AA
330
1A
100
AcDbEntity
  8
BLACK
  6
CONTINUOUS
100
AcDbLine
 10
-0.1625984251968504
 20
0.459015748031496
 30
0
 11
-0.1625984251968504
 21
0.6046850393700788
 31
0
  0
LINE
  5
AB
330
1A
100
AcDbEntity
  8
BLACK
  6
CONTINUOUS
100
AcDbLine
 10
-0.1625984251968504
 20
0.6046850393700788
 30
0
 11
-0.1625235039370079
 21
0.6050616929133859
 31
0
  0
LINE
  5
AC
330
1A
100
AcDbEntity
  8
BLACK
  6
CONTINUOUS
100
AcDbLine
 10
-0.1625235039370079
 20
0.6050616929133859
 30
0
 11
-0.1619908267716536
 21
0.6055943700787402
 31
0
  0
LINE
  5
AD
330
1A
100
AcDbEntity
  8
BLACK
  6
CONTINUOUS
100
AcDbLine
 10
-0.1619908267716536
 20
0.6055943700787402
 30
0
 11
-0.1616141732283465
 21
0.6056692913385827
 31
0
  0
LINE
  5
AE
330
1A
100
AcDbEntity
  8
BLACK
  6
CONTINUOUS
100
AcDbLine
 10
-0.1616141732283465
 20
0.6056692913385827
 30
0
 11
-0.1586614173228346
 21
0.6056692913385827
 31
0
  0
LINE
  5
AF
330
1A
100
AcDbEntity
  8
BLACK
  6
CONTINUOUS
100
AcDbLine
 10
-0.1586614173228346
 20
0.6056692913385827
 30
0
 11
-0.1586614173228346
 21
0.6676771653543307
 31
0
  0
LINE
  5
B0
330
1A
100
AcDbEntity
  8
BLACK
  6
CONTINUOUS
100
AcDbLine
 10
-0.1586614173228346
 20
0.6676771653543307
 30
0
 11
-0.1585864960629921
 21
0.6680538188976378
 31
0
  0
LINE
  5
B1
330
1A
100
AcDbEntity
  8
BLACK
  6
CONTINUOUS
100
AcDbLine
 10
-0.1585864960629921
 20
0.6680538188976378
 30
0
 11
-0.1580538188976378
 21
0.6685864960629921
 31
0
  0
LINE
  5
B2
330
1A
100
AcDbEntity
  8
BLACK
  6
CONTINUOUS
100
AcDbLine
 10
-0.1580538188976378
 20
0.6685864960629921
 30
0
 11
-0.1576771653543307
 21
0.6686614173228347
 31
0
  0
LINE
  5
B3
330
1A
100
AcDbEntity
  8
BLACK
  6
CONTINUOUS
100
AcDbLine
 10
-0.1576771653543307
 20
0.6686614173228347
 30
0
 11
-0.0818897637795276
 21
0.6686614173228347
 31
0
  0
LINE
  5
B4
330
1A
100
AcDbEntity
  8
BLACK
  6
CONTINUOUS
100
AcDbLine
 10
-0.0818897637795276
 20
0.6686614173228347
 30
0
 11
-0.0818897637795276
 21
0.7109842519685039
 31
0
  0
LINE
  5
B5
330
1A
100
AcDbEntity
  8
BLACK
  6
CONTINUOUS
100
AcDbLine
 10
-0.0818897637795276
 20
0.7109842519685039
 30
0
 11
-0.081814842519685
 21
0.711360905511811
 31
0
  0
LINE
  5
B6
330
1A
100
AcDbEntity
  8
BLACK
  6
CONTINUOUS
100
AcDbLine
 10
-0.081814842519685
 20
0.711360905511811
 30
0
 11
-0.0812821653543307
 21
0.7118935826771653
 31
0
  0
LINE
  5
B7
330
1A
100
AcDbEntity
  8
BLACK
  6
CONTINUOUS
100
AcDbLine
 10
-0.0812821653543307
 20
0.7118935826771653
 30
0
 11
-0.0809055118110236
 21
0.7119685039370078
 31
0
  0
LINE
  5
B8
330
1A
100
AcDbEntity
  8
BLACK
  6
CONTINUOUS
100
AcDbLine
 10
-0.0809055118110236
 20
0.7119685039370078
 30
0
 11
0.1301181102362205
 21
0.7119685039370078
 31
0
  0
LINE
  5
B9
330
1A
100
AcDbEntity
  8
BLACK
  6
CONTINUOUS
100
AcDbLine
 10
0.1301181102362205
 20
0.7119685039370078
 30
0
 11
0.1304947637795276
 21
0.7118935826771653
 31
0
  0
LINE
  5
BA
330
1A
100
AcDbEntity
  8
BLACK
  6
CONTINUOUS
100
AcDbLine
 10
-0.0799212598425197
 20
0.71
 30
0
 11
-0.0799212598425197
 21
0.6676771653543307
 31
0
  0
LINE
  5
BB
330
1A
100
AcDbEntity
  8
BLACK
  6
CONTINUOUS
100
AcDbLine
 10
-0.0799212598425197
 20
0.6676771653543307
 30
0
 11
-0.0799961811023622
 21
0.6673005118110236
 31
0
  0
LINE
  5
BC
330
1A
100
AcDbEntity
  8
BLACK
  6
CONTINUOUS
100
AcDbLine
 10
-0.0799961811023622
 20
0.6673005118110236
 30
0
 11
-0.0805288582677165
 21
0.6667678346456692
 31
0
  0
LINE
  5
BD
330
1A
100
AcDbEntity
  8
BLACK
  6
CONTINUOUS
100
AcDbLine
 10
-0.0805288582677165
 20
0.6667678346456692
 30
0
 11
-0.0809055118110236
 21
0.6666929133858267
 31
0
  0
LINE
  5
BE
330
1A
100
AcDbEntity
  8
BLACK
  6
CONTINUOUS
100
AcDbLine
 10
-0.0809055118110236
 20
0.6666929133858267
 30
0
 11
-0.1566929133858268
 21
0.6666929133858267
 31
0
  0
LINE
  5
BF
330
1A
100
AcDbEntity
  8
BLACK
  6
CONTINUOUS
100
AcDbLine
 10
-0.1566929133858268
 20
0.6666929133858267
 30
0
 11
-0.1566929133858268
 21
0.6046850393700788
 31
0
  0
LINE
  5
C0
330
1A
100
AcDbEntity
  8
BLACK
  6
CONTINUOUS
100
AcDbLine
 10
-0.1566929133858268
 20
0.6046850393700788
 30
0
 11
-0.1567678346456693
 21
0.6043083858267716
 31
0
  0
LINE
  5
C1
330
1A
100
AcDbEntity
  8
BLACK
  6
CONTINUOUS
100
AcDbLine
 10
-0.1567678346456693
 20
0.6043083858267716
 30
0
 11
-0.1573005118110236
 21
0.6037757086614173
 31
0
  0
LINE
  5
C2
330
1A
100
AcDbEntity
  8
BLACK
  6
CONTINUOUS
100
AcDbLine
 10
-0.1573005118110236
 20
0.6037757086614173
 30
0
 11
-0.1576771653543307
 21
0.6037007874015747
 31
0
  0
LINE
  5
C3
330
1A
100
AcDbEntity
  8
BLACK
  6
CONTINUOUS
100
AcDbLine
 10
-0.1576771653543307
 20
0.6037007874015747
 30
0
 11
-0.1606299212598425
 21
0.6037007874015747
 31
0
  0
LINE
  5
C4
330
1A
100
AcDbEntity
  8
BLACK
  6
CONTINUOUS
100
AcDbLine
 10
-0.1606299212598425
 20
0.6037007874015747
 30
0
 11
-0.1606299212598425
 21
0.46
 31
0
  0
LINE
  5
C5
330
1A
100
AcDbEntity
  8
BLACK
  6
CONTINUOUS
100
AcDbLine
 10
-0.1606299212598425
 20
0.46
 30
0
 11
-0.0834645669291339
 21
0.46
 31
0
  0
LINE
  5
C6
330
1A
100
AcDbEntity
  8
BLACK
  6
CONTINUOUS
100
AcDbLine
 10
-0.0834645669291339
 20
0.46
 30
0
 11
-0.0834645669291339
 21
0.4688582677165354
 31
0
  0
LINE
  5
C7
330
1A
100
AcDbEntity
  8
BLACK
  6
CONTINUOUS
100
AcDbLine
 10
-0.0834645669291339
 20
0.4688582677165354
 30
0
 11
-0.0833896456692913
 21
0.4692349212598425
 31
0
  0
LINE
  5
C8
330
1A
100
AcDbEntity
  8
BLACK
  6
CONTINUOUS
100
AcDbLine
 10
-0.0833896456692913
 20
0.4692349212598425
 30
0
 11
-0.082856968503937
 21
0.4697675984251968
 31
0
  0
LINE
  5
C9
330
1A
100
AcDbEntity
  8
BLACK
  6
CONTINUOUS
100
AcDbLine
 10
-0.082856968503937
 20
0.4697675984251968
 30
0
 11
-0.0824803149606299
 21
0.4698425196850394
 31
0
  0
LINE
  5
CA
330
1A
100
AcDbEntity
  8
BLACK
  6
CONTINUOUS
100
AcDbLine
 10
-0.0824803149606299
 20
0.4698425196850394
 30
0
 11
0.1316929133858268
 21
0.4698425196850394
 31
0
  0
LINE
  5
CB
330
1A
100
AcDbEntity
  8
BLACK
  6
CONTINUOUS
100
AcDbLine
 10
0.1316929133858268
 20
0.4698425196850394
 30
0
 11
0.1320695669291339
 21
0.4697675984251968
 31
0
  0
LINE
  5
CC
330
1A
100
AcDbEntity
  8
BLACK
  6
CONTINUOUS
100
AcDbLine
 10
0.1320695669291339
 20
0.4697675984251968
 30
0
 11
0.1326022440944882
 21
0.4692349212598425
 31
0
  0
LINE
  5
CD
330
1A
100
AcDbEntity
  8
BLACK
  6
CONTINUOUS
100
AcDbLine
 10
0.1326022440944882
 20
0.4692349212598425
 30
0
 11
0.1326771653543307
 21
0.4688582677165354
 31
0
  0
LINE
  5
CE
330
1A
100
AcDbEntity
  8
BLACK
  6
CONTINUOUS
100
AcDbLine
 10
0.1326771653543307
 20
0.4688582677165354
 30
0
 11
0.1326771653543307
 21
0.46
 31
0
  0
LINE
  5
CF
330
1A
100
AcDbEntity
  8
BLACK
  6
CONTINUOUS
100
AcDbLine
 10
0.1326771653543307
 20
0.46
 30
0
 11
0.2098425196850394
 21
0.46
 31
0
  0
LINE
  5
D0
330
1A
100
AcDbEntity
  8
BLACK
  6
CONTINUOUS
100
AcDbLine
 10
0.2098425196850394
 20
0.46
 30
0
 11
0.2098425196850394
 21
0.6037007874015747
 31
0
  0
LINE
  5
D1
330
1A
100
AcDbEntity
  8
BLACK
  6
CONTINUOUS
100
AcDbLine
 10
0.2098425196850394
 20
0.6037007874015747
 30
0
 11
0.2068897637795276
 21
0.6037007874015747
 31
0
  0
LINE
  5
D2
330
1A
100
AcDbEntity
  8
BLACK
  6
CONTINUOUS
100
AcDbLine
 10
0.2068897637795276
 20
0.6037007874015747
 30
0
 11
0.2065131102362205
 21
0.6037757086614173
 31
0
  0
LINE
  5
D3
330
1A
100
AcDbEntity
  8
BLACK
  6
CONTINUOUS
100
AcDbLine
 10
0.2065131102362205
 20
0.6037757086614173
 30
0
 11
0.2059804330708661
 21
0.6043083858267716
 31
0
  0
LINE
  5
D4
330
1A
100
AcDbEntity
  8
BLACK
  6
CONTINUOUS
100
AcDbLine
 10
0.2059804330708661
 20
0.6043083858267716
 30
0
 11
0.2059055118110236
 21
0.6046850393700788
 31
0
  0
LINE
  5
D5
330
1A
100
AcDbEntity
  8
BLACK
  6
CONTINUOUS
100
AcDbLine
 10
0.2059055118110236
 20
0.6046850393700788
 30
0
 11
0.2059055118110236
 21
0.6666929133858267
 31
0
  0
LINE
  5
D6
330
1A
100
AcDbEntity
  8
BLACK
  6
CONTINUOUS
100
AcDbLine
 10
0.2059055118110236
 20
0.6666929133858267
 30
0
 11
0.1301181102362205
 21
0.6666929133858267
 31
0
  0
LINE
  5
D7
330
1A
100
AcDbEntity
  8
BLACK
  6
CONTINUOUS
100
AcDbLine
 10
0.1301181102362205
 20
0.6666929133858267
 30
0
 11
0.1297414566929134
 21
0.6667678346456692
 31
0
  0
LINE
  5
D8
330
1A
100
AcDbEntity
  8
BLACK
  6
CONTINUOUS
100
AcDbLine
 10
0.1297414566929134
 20
0.6667678346456692
 30
0
 11
0.129208779527559
 21
0.6673005118110236
 31
0
  0
LINE
  5
D9
330
1A
100
AcDbEntity
  8
BLACK
  6
CONTINUOUS
100
AcDbLine
 10
0.129208779527559
 20
0.6673005118110236
 30
0
 11
0.1291338582677165
 21
0.6676771653543307
 31
0
  0
LINE
  5
DA
330
1A
100
AcDbEntity
  8
BLACK
  6
CONTINUOUS
100
AcDbLine
 10
0.1291338582677165
 20
0.6676771653543307
 30
0
 11
0.1291338582677165
 21
0.71
 31
0
  0
LINE
  5
DB
330
1A
100
AcDbEntity
  8
BLACK
  6
CONTINUOUS
100
AcDbLine
 10
0.1291338582677165
 20
0.71
 30
0
 11
-0.0799212598425197
 21
0.71
 31
0
  0
LINE
  5
DC
330
1A
100
AcDbEntity
  8
BLACK
  6
CONTINUOUS
100
AcDbLine
 10
0.6197073622047244
 20
0.7118935826771653
 30
0
 11
0.6202400393700788
 21
0.711360905511811
 31
0
  0
LINE
  5
DD
330
1A
100
AcDbEntity
  8
BLACK
  6
CONTINUOUS
100
AcDbLine
 10
0.6202400393700788
 20
0.711360905511811
 30
0
 11
0.6203149606299212
 21
0.7109842519685039
 31
0
  0
LINE
  5
DE
330
1A
100
AcDbEntity
  8
BLACK
  6
CONTINUOUS
100
AcDbLine
 10
0.6203149606299212
 20
0.7109842519685039
 30
0
 11
0.6203149606299212
 21
0.6686614173228347
 31
0
  0
LINE
  5
DF
330
1A
100
AcDbEntity
  8
BLACK
  6
CONTINUOUS
100
AcDbLine
 10
0.6203149606299212
 20
0.6686614173228347
 30
0
 11
0.6961023622047244
 21
0.6686614173228347
 31
0
  0
LINE
  5
E0
330
1A
100
AcDbEntity
  8
BLACK
  6
CONTINUOUS
100
AcDbLine
 10
0.6961023622047244
 20
0.6686614173228347
 30
0
 11
0.6964790157480315
 21
0.6685864960629921
 31
0
  0
LINE
  5
E1
330
1A
100
AcDbEntity
  8
BLACK
  6
CONTINUOUS
100
AcDbLine
 10
0.6964790157480315
 20
0.6685864960629921
 30
0
 11
0.6970116929133858
 21
0.6680538188976378
 31
0
  0
LINE
  5
E2
330
1A
100
AcDbEntity
  8
BLACK
  6
CONTINUOUS
100
AcDbLine
 10
0.6970116929133858
 20
0.6680538188976378
 30
0
 11
0.6970866141732284
 21
0.6676771653543307
 31
0
  0
LINE
  5
E3
330
1A
100
AcDbEntity
  8
BLACK
  6
CONTINUOUS
100
AcDbLine
 10
0.6970866141732284
 20
0.6676771653543307
 30
0
 11
0.6970866141732284
 21
0.6056692913385827
 31
0
  0
LINE
  5
E4
330
1A
100
AcDbEntity
  8
BLACK
  6
CONTINUOUS
100
AcDbLine
 10
0.6970866141732284
 20
0.6056692913385827
 30
0
 11
0.7000393700787402
 21
0.6056692913385827
 31
0
  0
LINE
  5
E5
330
1A
100
AcDbEntity
  8
BLACK
  6
CONTINUOUS
100
AcDbLine
 10
0.7000393700787402
 20
0.6056692913385827
 30
0
 11
0.7004160236220472
 21
0.6055943700787402
 31
0
  0
LINE
  5
E6
330
1A
100
AcDbEntity
  8
BLACK
  6
CONTINUOUS
100
AcDbLine
 10
0.7004160236220472
 20
0.6055943700787402
 30
0
 11
0.7009487007874016
 21
0.6050616929133859
 31
0
  0
LINE
  5
E7
330
1A
100
AcDbEntity
  8
BLACK
  6
CONTINUOUS
100
AcDbLine
 10
0.7009487007874016
 20
0.6050616929133859
 30
0
 11
0.7010236220472441
 21
0.6046850393700788
 31
0
  0
LINE
  5
E8
330
1A
100
AcDbEntity
  8
BLACK
  6
CONTINUOUS
100
AcDbLine
 10
0.7010236220472441
 20
0.6046850393700788
 30
0
 11
0.7010236220472441
 21
0.459015748031496
 31
0
  0
LINE
  5
E9
330
1A
100
AcDbEntity
  8
BLACK
  6
CONTINUOUS
100
AcDbLine
 10
0.7010236220472441
 20
0.459015748031496
 30
0
 11
0.7009487007874016
 21
0.458639094488189
 31
0
  0
LINE
  5
EA
330
1A
100
AcDbEntity
  8
BLACK
  6
CONTINUOUS
100
AcDbLine
 10
0.7009487007874016
 20
0.458639094488189
 30
0
 11
0.7004160236220472
 21
0.4581064173228346
 31
0
  0
LINE
  5
EB
330
1A
100
AcDbEntity
  8
BLACK
  6
CONTINUOUS
100
AcDbLine
 10
0.7004160236220472
 20
0.4581064173228346
 30
0
 11
0.7000393700787402
 21
0.4580314960629921
 31
0
  0
LINE
  5
EC
330
1A
100
AcDbEntity
  8
BLACK
  6
CONTINUOUS
100
AcDbLine
 10
0.7000393700787402
 20
0.4580314960629921
 30
0
 11
0.6209055118110236
 21
0.4580314960629921
 31
0
  0
LINE
  5
ED
330
1A
100
AcDbEntity
  8
BLACK
  6
CONTINUOUS
100
AcDbLine
 10
0.6209055118110236
 20
0.4580314960629921
 30
0
 11
0.6205288582677165
 21
0.4581064173228346
 31
0
  0
LINE
  5
EE
330
1A
100
AcDbEntity
  8
BLACK
  6
CONTINUOUS
100
AcDbLine
 10
0.6205288582677165
 20
0.4581064173228346
 30
0
 11
0.6199961811023622
 21
0.458639094488189
 31
0
  0
LINE
  5
EF
330
1A
100
AcDbEntity
  8
BLACK
  6
CONTINUOUS
100
AcDbLine
 10
0.6199961811023622
 20
0.458639094488189
 30
0
 11
0.6199212598425197
 21
0.459015748031496
 31
0
  0
LINE
  5
F0
330
1A
100
AcDbEntity
  8
BLACK
  6
CONTINUOUS
100
AcDbLine
 10
0.6199212598425197
 20
0.459015748031496
 30
0
 11
0.6199212598425197
 21
0.4678740157480315
 31
0
  0
LINE
  5
F1
330
1A
100
AcDbEntity
  8
BLACK
  6
CONTINUOUS
100
AcDbLine
 10
0.6199212598425197
 20
0.4678740157480315
 30
0
 11
0.3092913385826772
 21
0.4678740157480315
 31
0
  0
LINE
  5
F2
330
1A
100
AcDbEntity
  8
BLACK
  6
CONTINUOUS
100
AcDbLine
 10
0.3092913385826772
 20
0.4678740157480315
 30
0
 11
0.3092913385826772
 21
0.459015748031496
 31
0
  0
LINE
  5
F3
330
1A
100
AcDbEntity
  8
BLACK
  6
CONTINUOUS
100
AcDbLine
 10
0.3092913385826772
 20
0.459015748031496
 30
0
 11
0.3092164173228346
 21
0.458639094488189
 31
0
  0
LINE
  5
F4
330
1A
100
AcDbEntity
  8
BLACK
  6
CONTINUOUS
100
AcDbLine
 10
0.3092164173228346
 20
0.458639094488189
 30
0
 11
0.3086837401574803
 21
0.4581064173228346
 31
0
  0
LINE
  5
F5
330
1A
100
AcDbEntity
  8
BLACK
  6
CONTINUOUS
100
AcDbLine
 10
0.3086837401574803
 20
0.4581064173228346
 30
0
 11
0.3083070866141732
 21
0.4580314960629921
 31
0
  0
LINE
  5
F6
330
1A
100
AcDbEntity
  8
BLACK
  6
CONTINUOUS
100
AcDbLine
 10
0.3083070866141732
 20
0.4580314960629921
 30
0
 11
0.2291732283464567
 21
0.4580314960629921
 31
0
  0
LINE
  5
F7
330
1A
100
AcDbEntity
  8
BLACK
  6
CONTINUOUS
100
AcDbLine
 10
0.2291732283464567
 20
0.4580314960629921
 30
0
 11
0.2287965748031496
 21
0.4581064173228346
 31
0
  0
LINE
  5
F8
330
1A
100
AcDbEntity
  8
BLACK
  6
CONTINUOUS
100
AcDbLine
 10
0.2287965748031496
 20
0.4581064173228346
 30
0
 11
0.2282638976377953
 21
0.458639094488189
 31
0
  0
LINE
  5
F9
330
1A
100
AcDbEntity
  8
BLACK
  6
CONTINUOUS
100
AcDbLine
 10
0.2282638976377953
 20
0.458639094488189
 30
0
 11
0.2281889763779527
 21
0.459015748031496
 31
0
  0
LINE
  5
FA
330
1A
100
AcDbEntity
  8
BLACK
  6
CONTINUOUS
100
AcDbLine
 10
0.2281889763779527
 20
0.459015748031496
 30
0
 11
0.2281889763779527
 21
0.6046850393700788
 31
0
  0
LINE
  5
FB
330
1A
100
AcDbEntity
  8
BLACK
  6
CONTINUOUS
100
AcDbLine
 10
0.2281889763779527
 20
0.6046850393700788
 30
0
 11
0.2282638976377953
 21
0.6050616929133859
 31
0
  0
LINE
  5
FC
330
1A
100
AcDbEntity
  8
BLACK
  6
CONTINUOUS
100
AcDbLine
 10
0.2282638976377953
 20
0.6050616929133859
 30
0
 11
0.2287965748031496
 21
0.6055943700787402
 31
0
  0
LINE
  5
FD
330
1A
100
AcDbEntity
  8
BLACK
  6
CONTINUOUS
100
AcDbLine
 10
0.2287965748031496
 20
0.6055943700787402
 30
0
 11
0.2291732283464567
 21
0.6056692913385827
 31
0
  0
LINE
  5
FE
330
1A
100
AcDbEntity
  8
BLACK
  6
CONTINUOUS
100
AcDbLine
 10
0.2291732283464567
 20
0.6056692913385827
 30
0
 11
0.2321259842519685
 21
0.6056692913385827
 31
0
  0
LINE
  5
FF
330
1A
100
AcDbEntity
  8
BLACK
  6
CONTINUOUS
100
AcDbLine
 10
0.2321259842519685
 20
0.6056692913385827
 30
0
 11
0.2321259842519685
 21
0.6676771653543307
 31
0
  0
LINE
  5
100
330
1A
100
AcDbEntity
  8
BLACK
  6
CONTINUOUS
100
AcDbLine
 10
0.2321259842519685
 20
0.6676771653543307
 30
0
 11
0.232200905511811
 21
0.6680538188976378
 31
0
  0
LINE
  5
101
330
1A
100
AcDbEntity
  8
BLACK
  6
CONTINUOUS
100
AcDbLine
 10
0.232200905511811
 20
0.6680538188976378
 30
0
 11
0.2327335826771653
 21
0.6685864960629921
 31
0
  0
LINE
  5
102
330
1A
100
AcDbEntity
  8
BLACK
  6
CONTINUOUS
100
AcDbLine
 10
0.2327335826771653
 20
0.6685864960629921
 30
0
 11
0.2331102362204724
 21
0.6686614173228347
 31
0
  0
LINE
  5
103
330
1A
100
AcDbEntity
  8
BLACK
  6
CONTINUOUS
100
AcDbLine
 10
0.2331102362204724
 20
0.6686614173228347
 30
0
 11
0.3088976377952756
 21
0.6686614173228347
 31
0
  0
LINE
  5
104
330
1A
100
AcDbEntity
  8
BLACK
  6
CONTINUOUS
100
AcDbLine
 10
0.3088976377952756
 20
0.6686614173228347
 30
0
 11
0.3088976377952756
 21
0.7109842519685039
 31
0
  0
LINE
  5
105
330
1A
100
AcDbEntity
  8
BLACK
  6
CONTINUOUS
100
AcDbLine
 10
0.3088976377952756
 20
0.7109842519685039
 30
0
 11
0.3089725590551181
 21
0.711360905511811
 31
0
  0
LINE
  5
106
330
1A
100
AcDbEntity
  8
BLACK
  6
CONTINUOUS
100
AcDbLine
 10
0.3089725590551181
 20
0.711360905511811
 30
0
 11
0.3095052362204724
 21
0.7118935826771653
 31
0
  0
LINE
  5
107
330
1A
100
AcDbEntity
  8
BLACK
  6
CONTINUOUS
100
AcDbLine
 10
0.3095052362204724
 20
0.7118935826771653
 30
0
 11
0.3098818897637795
 21
0.7119685039370078
 31
0
  0
LINE
  5
108
330
1A
100
AcDbEntity
  8
BLACK
  6
CONTINUOUS
100
AcDbLine
 10
0.3098818897637795
 20
0.7119685039370078
 30
0
 11
0.6193307086614173
 21
0.7119685039370078
 31
0
  0
LINE
  5
109
330
1A
100
AcDbEntity
  8
BLACK
  6
CONTINUOUS
100
AcDbLine
 10
0.6193307086614173
 20
0.7119685039370078
 30
0
 11
0.6197073622047244
 21
0.7118935826771653
 31
0
  0
LINE
  5
10A
330
1A
100
AcDbEntity
  8
BLACK
  6
CONTINUOUS
100
AcDbLine
 10
0.3108661417322834
 20
0.71
 30
0
 11
0.3108661417322834
 21
0.6676771653543307
 31
0
  0
LINE
  5
10B
330
1A
100
AcDbEntity
  8
BLACK
  6
CONTINUOUS
100
AcDbLine
 10
0.3108661417322834
 20
0.6676771653543307
 30
0
 11
0.310791220472441
 21
0.6673005118110236
 31
0
  0
LINE
  5
10C
330
1A
100
AcDbEntity
  8
BLACK
  6
CONTINUOUS
100
AcDbLine
 10
0.310791220472441
 20
0.6673005118110236
 30
0
 11
0.3102585433070866
 21
0.6667678346456692
 31
0
  0
LINE
  5
10D
330
1A
100
AcDbEntity
  8
BLACK
  6
CONTINUOUS
100
AcDbLine
 10
0.3102585433070866
 20
0.6667678346456692
 30
0
 11
0.3098818897637795
 21
0.6666929133858267
 31
0
  0
LINE
  5
10E
330
1A
100
AcDbEntity
  8
BLACK
  6
CONTINUOUS
100
AcDbLine
 10
0.3098818897637795
 20
0.6666929133858267
 30
0
 11
0.2340944881889764
 21
0.6666929133858267
 31
0
  0
LINE
  5
10F
330
1A
100
AcDbEntity
  8
BLACK
  6
CONTINUOUS
100
AcDbLine
 10
0.2340944881889764
 20
0.6666929133858267
 30
0
 11
0.2340944881889764
 21
0.6046850393700788
 31
0
  0
LINE
  5
110
330
1A
100
AcDbEntity
  8
BLACK
  6
CONTINUOUS
100
AcDbLine
 10
0.2340944881889764
 20
0.6046850393700788
 30
0
 11
0.2340195669291339
 21
0.6043083858267716
 31
0
  0
LINE
  5
111
330
1A
100
AcDbEntity
  8
BLACK
  6
CONTINUOUS
100
AcDbLine
 10
0.2340195669291339
 20
0.6043083858267716
 30
0
 11
0.2334868897637795
 21
0.6037757086614173
 31
0
  0
LINE
  5
112
330
1A
100
AcDbEntity
  8
BLACK
  6
CONTINUOUS
100
AcDbLine
 10
0.2334868897637795
 20
0.6037757086614173
 30
0
 11
0.2331102362204724
 21
0.6037007874015747
 31
0
  0
LINE
  5
113
330
1A
100
AcDbEntity
  8
BLACK
  6
CONTINUOUS
100
AcDbLine
 10
0.2331102362204724
 20
0.6037007874015747
 30
0
 11
0.2301574803149606
 21
0.6037007874015747
 31
0
  0
LINE
  5
114
330
1A
100
AcDbEntity
  8
BLACK
  6
CONTINUOUS
100
AcDbLine
 10
0.2301574803149606
 20
0.6037007874015747
 30
0
 11
0.2301574803149606
 21
0.46
 31
0
  0
LINE
  5
115
330
1A
100
AcDbEntity
  8
BLACK
  6
CONTINUOUS
100
AcDbLine
 10
0.2301574803149606
 20
0.46
 30
0
 11
0.3073228346456693
 21
0.46
 31
0
  0
LINE
  5
116
330
1A
100
AcDbEntity
  8
BLACK
  6
CONTINUOUS
100
AcDbLine
 10
0.3073228346456693
 20
0.46
 30
0
 11
0.3073228346456693
 21
0.4688582677165354
 31
0
  0
LINE
  5
117
330
1A
100
AcDbEntity
  8
BLACK
  6
CONTINUOUS
100
AcDbLine
 10
0.3073228346456693
 20
0.4688582677165354
 30
0
 11
0.3073977559055118
 21
0.4692349212598425
 31
0
  0
LINE
  5
118
330
1A
100
AcDbEntity
  8
BLACK
  6
CONTINUOUS
100
AcDbLine
 10
0.3073977559055118
 20
0.4692349212598425
 30
0
 11
0.3079304330708661
 21
0.4697675984251968
 31
0
  0
LINE
  5
119
330
1A
100
AcDbEntity
  8
BLACK
  6
CONTINUOUS
100
AcDbLine
 10
0.3079304330708661
 20
0.4697675984251968
 30
0
 11
0.3083070866141732
 21
0.4698425196850394
 31
0
  0
LINE
  5
11A
330
1A
100
AcDbEntity
  8
BLACK
  6
CONTINUOUS
100
AcDbLine
 10
0.3083070866141732
 20
0.4698425196850394
 30
0
 11
0.6209055118110236
 21
0.4698425196850394
 31
0
  0
LINE
  5
11B
330
1A
100
AcDbEntity
  8
BLACK
  6
CONTINUOUS
100
AcDbLine
 10
0.6209055118110236
 20
0.4698425196850394
 30
0
 11
0.6212821653543307
 21
0.4697675984251968
 31
0
  0
LINE
  5
11C
330
1A
100
AcDbEntity
  8
BLACK
  6
CONTINUOUS
100
AcDbLine
 10
0.6212821653543307
 20
0.4697675984251968
 30
0
 11
0.621814842519685
 21
0.4692349212598425
 31
0
  0
LINE
  5
11D
330
1A
100
AcDbEntity
  8
BLACK
  6
CONTINUOUS
100
AcDbLine
 10
0.621814842519685
 20
0.4692349212598425
 30
0
 11
0.6218897637795275
 21
0.4688582677165354
 31
0
  0
LINE
  5
11E
330
1A
100
AcDbEntity
  8
BLACK
  6
CONTINUOUS
100
AcDbLine
 10
0.6218897637795275
 20
0.4688582677165354
 30
0
 11
0.6218897637795275
 21
0.46
 31
0
  0
LINE
  5
11F
330
1A
100
AcDbEntity
  8
BLACK
  6
CONTINUOUS
100
AcDbLine
 10
0.6218897637795275
 20
0.46
 30
0
 11
0.6990551181102362
 21
0.46
 31
0
  0
LINE
  5
120
330
1A
100
AcDbEntity
  8
BLACK
  6
CONTINUOUS
100
AcDbLine
 10
0.6990551181102362
 20
0.46
 30
0
 11
0.6990551181102362
 21
0.6037007874015747
 31
0
  0
LINE
  5
121
330
1A
100
AcDbEntity
  8
BLACK
  6
CONTINUOUS
100
AcDbLine
 10
0.6990551181102362
 20
0.6037007874015747
 30
0
 11
0.6961023622047244
 21
0.6037007874015747
 31
0
  0
LINE
  5
122
330
1A
100
AcDbEntity
  8
BLACK
  6
CONTINUOUS
100
AcDbLine
 10
0.6961023622047244
 20
0.6037007874015747
 30
0
 11
0.6957257086614173
 21
0.6037757086614173
 31
0
  0
LINE
  5
123
330
1A
100
AcDbEntity
  8
BLACK
  6
CONTINUOUS
100
AcDbLine
 10
0.6957257086614173
 20
0.6037757086614173
 30
0
 11
0.6951930314960629
 21
0.6043083858267716
 31
0
  0
LINE
  5
124
330
1A
100
AcDbEntity
  8
BLACK
  6
CONTINUOUS
100
AcDbLine
 10
0.6951930314960629
 20
0.6043083858267716
 30
0
 11
0.6951181102362205
 21
0.6046850393700788
 31
0
  0
LINE
  5
125
330
1A
100
AcDbEntity
  8
BLACK
  6
CONTINUOUS
100
AcDbLine
 10
0.6951181102362205
 20
0.6046850393700788
 30
0
 11
0.6951181102362205
 21
0.6666929133858267
 31
0
  0
LINE
  5
126
330
1A
100
AcDbEntity
  8
BLACK
  6
CONTINUOUS
100
AcDbLine
 10
0.6951181102362205
 20
0.6666929133858267
 30
0
 11
0.6193307086614173
 21
0.6666929133858267
 31
0
  0
LINE
  5
127
330
1A
100
AcDbEntity
  8
BLACK
  6
CONTINUOUS
100
AcDbLine
 10
0.6193307086614173
 20
0.6666929133858267
 30
0
 11
0.6189540551181102
 21
0.6667678346456692
 31
0
  0
LINE
  5
128
330
1A
100
AcDbEntity
  8
BLACK
  6
CONTINUOUS
100
AcDbLine
 10
0.6189540551181102
 20
0.6667678346456692
 30
0
 11
0.6184213779527559
 21
0.6673005118110236
 31
0
  0
LINE
  5
129
330
1A
100
AcDbEntity
  8
BLACK
  6
CONTINUOUS
100
AcDbLine
 10
0.6184213779527559
 20
0.6673005118110236
 30
0
 11
0.6183464566929133
 21
0.6676771653543307
 31
0
  0
LINE
  5
12A
330
1A
100
AcDbEntity
  8
BLACK
  6
CONTINUOUS
100
AcDbLine
 10
0.6183464566929133
 20
0.6676771653543307
 30
0
 11
0.6183464566929133
 21
0.71
 31
0
  0
LINE
  5
12B
330
1A
100
AcDbEntity
  8
BLACK
  6
CONTINUOUS
100
AcDbLine
 10
0.6183464566929133
 20
0.71
 30
0
 11
0.3108661417322834
 21
0.71
 31
0
  0
LINE
  5
12C
330
1A
100
AcDbEntity
  8
BLACK
  6
CONTINUOUS
100
AcDbLine
 10
1.5067575984251969
 20
0.8856209448818897
 30
0
 11
1.5142488582677165
 21
0.8831868503937008
 31
0
  0
LINE
  5
12D
330
1A
100
AcDbEntity
  8
BLACK
  6
CONTINUOUS
100
AcDbLine
 10
1.5142488582677165
 20
0.8831868503937008
 30
0
 11
1.5212671653543306
 21
0.8796108661417322
 31
0
  0
LINE
  5
12E
330
1A
100
AcDbEntity
  8
BLACK
  6
CONTINUOUS
100
AcDbLine
 10
1.5212671653543306
 20
0.8796108661417322
 30
0
 11
1.5276396062992126
 21
0.8749810236220472
 31
0
  0
LINE
  5
12F
330
1A
100
AcDbEntity
  8
BLACK
  6
CONTINUOUS
100
AcDbLine
 10
1.5276396062992126
 20
0.8749810236220472
 30
0
 11
1.5332093700787401
 21
0.8694112598425197
 31
0
  0
LINE
  5
130
330
1A
100
AcDbEntity
  8
BLACK
  6
CONTINUOUS
100
AcDbLine
 10
1.5332093700787401
 20
0.8694112598425197
 30
0
 11
1.5378392125984253
 21
0.8630388188976378
 31
0
  0
LINE
  5
131
330
1A
100
AcDbEntity
  8
BLACK
  6
CONTINUOUS
100
AcDbLine
 10
1.5378392125984253
 20
0.8630388188976378
 30
0
 11
1.5414151968503937
 21
0.8560205118110236
 31
0
  0
LINE
  5
132
330
1A
100
AcDbEntity
  8
BLACK
  6
CONTINUOUS
100
AcDbLine
 10
1.5414151968503937
 20
0.8560205118110236
 30
0
 11
1.5438492913385826
 21
0.8485292519685039
 31
0
  0
LINE
  5
133
330
1A
100
AcDbEntity
  8
BLACK
  6
CONTINUOUS
100
AcDbLine
 10
1.5438492913385826
 20
0.8485292519685039
 30
0
 11
1.5450814960629922
 21
0.8407494094488189
 31
0
  0
LINE
  5
134
330
1A
100
AcDbEntity
  8
BLACK
  6
CONTINUOUS
100
AcDbLine
 10
1.5450814960629922
 20
0.8407494094488189
 30
0
 11
1.5450814960629922
 21
0.8328726377952755
 31
0
  0
LINE
  5
135
330
1A
100
AcDbEntity
  8
BLACK
  6
CONTINUOUS
100
AcDbLine
 10
1.5450814960629922
 20
0.8328726377952755
 30
0
 11
1.5438492913385826
 21
0.8250927952755905
 31
0
  0
LINE
  5
136
330
1A
100
AcDbEntity
  8
BLACK
  6
CONTINUOUS
100
AcDbLine
 10
1.5438492913385826
 20
0.8250927952755905
 30
0
 11
1.5414151968503937
 21
0.8176015354330709
 31
0
  0
LINE
  5
137
330
1A
100
AcDbEntity
  8
BLACK
  6
CONTINUOUS
100
AcDbLine
 10
1.5414151968503937
 20
0.8176015354330709
 30
0
 11
1.5378392125984253
 21
0.8105832283464567
 31
0
  0
LINE
  5
138
330
1A
100
AcDbEntity
  8
BLACK
  6
CONTINUOUS
100
AcDbLine
 10
1.5378392125984253
 20
0.8105832283464567
 30
0
 11
1.5332093700787401
 21
0.8042107874015748
 31
0
  0
LINE
  5
139
330
1A
100
AcDbEntity
  8
BLACK
  6
CONTINUOUS
100
AcDbLine
 10
1.5332093700787401
 20
0.8042107874015748
 30
0
 11
1.5276396062992126
 21
0.7986410236220473
 31
0
  0
LINE
  5
13A
330
1A
100
AcDbEntity
  8
BLACK
  6
CONTINUOUS
100
AcDbLine
 10
1.5276396062992126
 20
0.7986410236220473
 30
0
 11
1.5212671653543306
 21
0.7940111811023622
 31
0
  0
LINE
  5
13B
330
1A
100
AcDbEntity
  8
BLACK
  6
CONTINUOUS
100
AcDbLine
 10
1.5212671653543306
 20
0.7940111811023622
 30
0
 11
1.5142488582677165
 21
0.7904351968503937
 31
0
  0
LINE
  5
13C
330
1A
100
AcDbEntity
  8
BLACK
  6
CONTINUOUS
100
AcDbLine
 10
1.5142488582677165
 20
0.7904351968503937
 30
0
 11
1.5067575984251969
 21
0.7880011023622047
 31
0
  0
LINE
  5
13D
330
1A
100
AcDbEntity
  8
BLACK
  6
CONTINUOUS
100
AcDbLine
 10
1.5067575984251969
 20
0.7880011023622047
 30
0
 11
1.4989777559055117
 21
0.7867688976377952
 31
0
  0
LINE
  5
13E
330
1A
100
AcDbEntity
  8
BLACK
  6
CONTINUOUS
100
AcDbLine
 10
1.4989777559055117
 20
0.7867688976377952
 30
0
 11
1.4911009842519685
 21
0.7867688976377952
 31
0
  0
LINE
  5
13F
330
1A
100
AcDbEntity
  8
BLACK
  6
CONTINUOUS
100
AcDbLine
 10
1.4911009842519685
 20
0.7867688976377952
 30
0
 11
1.4833211417322834
 21
0.7880011023622047
 31
0
  0
LINE
  5
140
330
1A
100
AcDbEntity
  8
BLACK
  6
CONTINUOUS
100
AcDbLine
 10
1.4833211417322834
 20
0.7880011023622047
 30
0
 11
1.4758298818897637
 21
0.7904351968503937
 31
0
  0
LINE
  5
141
330
1A
100
AcDbEntity
  8
BLACK
  6
CONTINUOUS
100
AcDbLine
 10
1.4758298818897637
 20
0.7904351968503937
 30
0
 11
1.4688115748031496
 21
0.7940111811023622
 31
0
  0
LINE
  5
142
330
1A
100
AcDbEntity
  8
BLACK
  6
CONTINUOUS
100
AcDbLine
 10
1.4688115748031496
 20
0.7940111811023622
 30
0
 11
1.4624391338582676
 21
0.7986410236220473
 31
0
  0
LINE
  5
143
330
1A
100
AcDbEntity
  8
BLACK
  6
CONTINUOUS
100
AcDbLine
 10
1.4624391338582676
 20
0.7986410236220473
 30
0
 11
1.4568693700787401
 21
0.8042107874015748
 31
0
  0
LINE
  5
144
330
1A
100
AcDbEntity
  8
BLACK
  6
CONTINUOUS
100
AcDbLine
 10
1.4568693700787401
 20
0.8042107874015748
 30
0
 11
1.4522395275590552
 21
0.8105832283464567
 31
0
  0
LINE
  5
145
330
1A
100
AcDbEntity
  8
BLACK
  6
CONTINUOUS
100
AcDbLine
 10
1.4522395275590552
 20
0.8105832283464567
 30
0
 11
1.4486635433070867
 21
0.8176015354330709
 31
0
  0
LINE
  5
146
330
1A
100
AcDbEntity
  8
BLACK
  6
CONTINUOUS
100
AcDbLine
 10
1.4486635433070867
 20
0.8176015354330709
 30
0
 11
1.4462294488188976
 21
0.8250927952755905
 31
0
  0
LINE
  5
147
330
1A
100
AcDbEntity
  8
BLACK
  6
CONTINUOUS
100
AcDbLine
 10
1.4462294488188976
 20
0.8250927952755905
 30
0
 11
1.4449972440944883
 21
0.8328726377952755
 31
0
  0
LINE
  5
148
330
1A
100
AcDbEntity
  8
BLACK
  6
CONTINUOUS
100
AcDbLine
 10
1.4449972440944883
 20
0.8328726377952755
 30
0
 11
1.4449972440944883
 21
0.8406066929133859
 31
0
  0
LINE
  5
149
330
1A
100
AcDbEntity
  8
BLACK
  6
CONTINUOUS
100
AcDbLine
 10
1.4449972440944883
 20
0.8406066929133859
 30
0
 11
1.4449972440944883
 21
0.8407494094488189
 31
0
  0
LINE
  5
14A
330
1A
100
AcDbEntity
  8
BLACK
  6
CONTINUOUS
100
AcDbLine
 10
1.4449972440944883
 20
0.8407494094488189
 30
0
 11
1.4462294488188976
 21
0.8485292519685039
 31
0
  0
LINE
  5
14B
330
1A
100
AcDbEntity
  8
BLACK
  6
CONTINUOUS
100
AcDbLine
 10
1.4462294488188976
 20
0.8485292519685039
 30
0
 11
1.4486635433070867
 21
0.8560205118110236
 31
0
  0
LINE
  5
14C
330
1A
100
AcDbEntity
  8
BLACK
  6
CONTINUOUS
100
AcDbLine
 10
1.4486635433070867
 20
0.8560205118110236
 30
0
 11
1.4522395275590552
 21
0.8630388188976378
 31
0
  0
LINE
  5
14D
330
1A
100
AcDbEntity
  8
BLACK
  6
CONTINUOUS
100
AcDbLine
 10
1.4522395275590552
 20
0.8630388188976378
 30
0
 11
1.4568693700787401
 21
0.8694112598425197
 31
0
  0
LINE
  5
14E
330
1A
100
AcDbEntity
  8
BLACK
  6
CONTINUOUS
100
AcDbLine
 10
1.4568693700787401
 20
0.8694112598425197
 30
0
 11
1.4624391338582676
 21
0.8749810236220472
 31
0
  0
LINE
  5
14F
330
1A
100
AcDbEntity
  8
BLACK
  6
CONTINUOUS
100
AcDbLine
 10
1.4624391338582676
 20
0.8749810236220472
 30
0
 11
1.4688115748031496
 21
0.8796108661417322
 31
0
  0
LINE
  5
150
330
1A
100
AcDbEntity
  8
BLACK
  6
CONTINUOUS
100
AcDbLine
 10
1.4688115748031496
 20
0.8796108661417322
 30
0
 11
1.4758298818897637
 21
0.8831868503937008
 31
0
  0
LINE
  5
151
330
1A
100
AcDbEntity
  8
BLACK
  6
CONTINUOUS
100
AcDbLine
 10
1.4758298818897637
 20
0.8831868503937008
 30
0
 11
1.4833211417322834
 21
0.8856209448818897
 31
0
  0
LINE
  5
152
330
1A
100
AcDbEntity
  8
BLACK
  6
CONTINUOUS
100
AcDbLine
 10
1.4833211417322834
 20
0.8856209448818897
 30
0
 11
1.4911009842519685
 21
0.8868531496062992
 31
0
  0
LINE
  5
153
330
1A
100
AcDbEntity
  8
BLACK
  6
CONTINUOUS
100
AcDbLine
 10
1.4911009842519685
 20
0.8868531496062992
 30
0
 11
1.4989777559055117
 21
0.8868531496062992
 31
0
  0
LINE
  5
154
330
1A
100
AcDbEntity
  8
BLACK
  6
CONTINUOUS
100
AcDbLine
 10
1.4989777559055117
 20
0.8868531496062992
 30
0
 11
1.5067575984251969
 21
0.8856209448818897
 31
0
  0
LINE
  5
155
330
1A
100
AcDbEntity
  8
BLACK
  6
CONTINUOUS
100
AcDbLine
 10
1.4468110236220473
 20
0.8330153543307086
 30
0
 11
1.4479985826771653
 21
0.8255175196850394
 31
0
  0
LINE
  5
156
330
1A
100
AcDbEntity
  8
BLACK
  6
CONTINUOUS
100
AcDbLine
 10
1.4479985826771653
 20
0.8255175196850394
 30
0
 11
1.4503444094488189
 21
0.8182977559055118
 31
0
  0
LINE
  5
157
330
1A
100
AcDbEntity
  8
BLACK
  6
CONTINUOUS
100
AcDbLine
 10
1.4503444094488189
 20
0.8182977559055118
 30
0
 11
1.4537907874015747
 21
0.8115338582677165
 31
0
  0
LINE
  5
158
330
1A
100
AcDbEntity
  8
BLACK
  6
CONTINUOUS
100
AcDbLine
 10
1.4537907874015747
 20
0.8115338582677165
 30
0
 11
1.4582528346456693
 21
0.8053923622047244
 31
0
  0
LINE
  5
159
330
1A
100
AcDbEntity
  8
BLACK
  6
CONTINUOUS
100
AcDbLine
 10
1.4582528346456693
 20
0.8053923622047244
 30
0
 11
1.4636207086614172
 21
0.8000244881889763
 31
0
  0
LINE
  5
15A
330
1A
100
AcDbEntity
  8
BLACK
  6
CONTINUOUS
100
AcDbLine
 10
1.4636207086614172
 20
0.8000244881889763
 30
0
 11
1.4697622047244094
 21
0.7955624409448818
 31
0
  0
LINE
  5
15B
330
1A
100
AcDbEntity
  8
BLACK
  6
CONTINUOUS
100
AcDbLine
 10
1.4697622047244094
 20
0.7955624409448818
 30
0
 11
1.4765261023622047
 21
0.792116062992126
 31
0
  0
LINE
  5
15C
330
1A
100
AcDbEntity
  8
BLACK
  6
CONTINUOUS
100
AcDbLine
 10
1.4765261023622047
 20
0.792116062992126
 30
0
 11
1.4837458661417322
 21
0.7897702362204724
 31
0
  0
LINE
  5
15D
330
1A
100
AcDbEntity
  8
BLACK
  6
CONTINUOUS
100
AcDbLine
 10
1.4837458661417322
 20
0.7897702362204724
 30
0
 11
1.4912437007874015
 21
0.7885826771653544
 31
0
  0
LINE
  5
15E
330
1A
100
AcDbEntity
  8
BLACK
  6
CONTINUOUS
100
AcDbLine
 10
1.4912437007874015
 20
0.7885826771653544
 30
0
 11
1.4988350393700787
 21
0.7885826771653544
 31
0
  0
LINE
  5
15F
330
1A
100
AcDbEntity
  8
BLACK
  6
CONTINUOUS
100
AcDbLine
 10
1.4988350393700787
 20
0.7885826771653544
 30
0
 11
1.506332874015748
 21
0.7897702362204724
 31
0
  0
LINE
  5
160
330
1A
100
AcDbEntity
  8
BLACK
  6
CONTINUOUS
100
AcDbLine
 10
1.506332874015748
 20
0.7897702362204724
 30
0
 11
1.5135526377952755
 21
0.792116062992126
 31
0
  0
LINE
  5
161
330
1A
100
AcDbEntity
  8
BLACK
  6
CONTINUOUS
100
AcDbLine
 10
1.5135526377952755
 20
0.792116062992126
 30
0
 11
1.5203165354330708
 21
0.7955624409448818
 31
0
  0
LINE
  5
162
330
1A
100
AcDbEntity
  8
BLACK
  6
CONTINUOUS
100
AcDbLine
 10
1.5203165354330708
 20
0.7955624409448818
 30
0
 11
1.526458031496063
 21
0.8000244881889763
 31
0
  0
LINE
  5
163
330
1A
100
AcDbEntity
  8
BLACK
  6
CONTINUOUS
100
AcDbLine
 10
1.526458031496063
 20
0.8000244881889763
 30
0
 11
1.5318259055118111
 21
0.8053923622047244
 31
0
  0
LINE
  5
164
330
1A
100
AcDbEntity
  8
BLACK
  6
CONTINUOUS
100
AcDbLine
 10
1.5318259055118111
 20
0.8053923622047244
 30
0
 11
1.5362879527559055
 21
0.8115338582677165
 31
0
  0
LINE
  5
165
330
1A
100
AcDbEntity
  8
BLACK
  6
CONTINUOUS
100
AcDbLine
 10
1.5362879527559055
 20
0.8115338582677165
 30
0
 11
1.5397343307086613
 21
0.8182977559055118
 31
0
  0
LINE
  5
166
330
1A
100
AcDbEntity
  8
BLACK
  6
CONTINUOUS
100
AcDbLine
 10
1.5397343307086613
 20
0.8182977559055118
 30
0
 11
1.5420801574803149
 21
0.8255175196850394
 31
0
  0
LINE
  5
167
330
1A
100
AcDbEntity
  8
BLACK
  6
CONTINUOUS
100
AcDbLine
 10
1.5420801574803149
 20
0.8255175196850394
 30
0
 11
1.5432677165354329
 21
0.8330153543307086
 31
0
  0
LINE
  5
168
330
1A
100
AcDbEntity
  8
BLACK
  6
CONTINUOUS
100
AcDbLine
 10
1.5432677165354329
 20
0.8330153543307086
 30
0
 11
1.5432677165354329
 21
0.8406066929133859
 31
0
  0
LINE
  5
169
330
1A
100
AcDbEntity
  8
BLACK
  6
CONTINUOUS
100
AcDbLine
 10
1.5432677165354329
 20
0.8406066929133859
 30
0
 11
1.5420801574803149
 21
0.8481045275590551
 31
0
  0
LINE
  5
16A
330
1A
100
AcDbEntity
  8
BLACK
  6
CONTINUOUS
100
AcDbLine
 10
1.5420801574803149
 20
0.8481045275590551
 30
0
 11
1.5397343307086613
 21
0.8553242913385827
 31
0
  0
LINE
  5
16B
330
1A
100
AcDbEntity
  8
BLACK
  6
CONTINUOUS
100
AcDbLine
 10
1.5397343307086613
 20
0.8553242913385827
 30
0
 11
1.5362879527559055
 21
0.862088188976378
 31
0
  0
LINE
  5
16C
330
1A
100
AcDbEntity
  8
BLACK
  6
CONTINUOUS
100
AcDbLine
 10
1.5362879527559055
 20
0.862088188976378
 30
0
 11
1.5318259055118111
 21
0.86822968503937
 31
0
  0
LINE
  5
16D
330
1A
100
AcDbEntity
  8
BLACK
  6
CONTINUOUS
100
AcDbLine
 10
1.5318259055118111
 20
0.86822968503937
 30
0
 11
1.526458031496063
 21
0.873597559055118
 31
0
  0
LINE
  5
16E
330
1A
100
AcDbEntity
  8
BLACK
  6
CONTINUOUS
100
AcDbLine
 10
1.526458031496063
 20
0.873597559055118
 30
0
 11
1.5203165354330708
 21
0.8780596062992125
 31
0
  0
LINE
  5
16F
330
1A
100
AcDbEntity
  8
BLACK
  6
CONTINUOUS
100
AcDbLine
 10
1.5203165354330708
 20
0.8780596062992125
 30
0
 11
1.5135526377952755
 21
0.8815059842519685
 31
0
  0
LINE
  5
170
330
1A
100
AcDbEntity
  8
BLACK
  6
CONTINUOUS
100
AcDbLine
 10
1.5135526377952755
 20
0.8815059842519685
 30
0
 11
1.506332874015748
 21
0.883851811023622
 31
0
  0
LINE
  5
171
330
1A
100
AcDbEntity
  8
BLACK
  6
CONTINUOUS
100
AcDbLine
 10
1.506332874015748
 20
0.883851811023622
 30
0
 11
1.4988350393700787
 21
0.8850393700787401
 31
0
  0
LINE
  5
172
330
1A
100
AcDbEntity
  8
BLACK
  6
CONTINUOUS
100
AcDbLine
 10
1.4988350393700787
 20
0.8850393700787401
 30
0
 11
1.4912437007874015
 21
0.8850393700787401
 31
0
  0
LINE
  5
173
330
1A
100
AcDbEntity
  8
BLACK
  6
CONTINUOUS
100
AcDbLine
 10
1.4912437007874015
 20
0.8850393700787401
 30
0
 11
1.4837458661417322
 21
0.883851811023622
 31
0
  0
LINE
  5
174
330
1A
100
AcDbEntity
  8
BLACK
  6
CONTINUOUS
100
AcDbLine
 10
1.4837458661417322
 20
0.883851811023622
 30
0
 11
1.4765261023622047
 21
0.8815059842519685
 31
0
  0
LINE
  5
175
330
1A
100
AcDbEntity
  8
BLACK
  6
CONTINUOUS
100
AcDbLine
 10
1.4765261023622047
 20
0.8815059842519685
 30
0
 11
1.4697622047244094
 21
0.8780596062992125
 31
0
  0
LINE
  5
176
330
1A
100
AcDbEntity
  8
BLACK
  6
CONTINUOUS
100
AcDbLine
 10
1.4697622047244094
 20
0.8780596062992125
 30
0
 11
1.4636207086614172
 21
0.873597559055118
 31
0
  0
LINE
  5
177
330
1A
100
AcDbEntity
  8
BLACK
  6
CONTINUOUS
100
AcDbLine
 10
1.4636207086614172
 20
0.873597559055118
 30
0
 11
1.4582528346456693
 21
0.86822968503937
 31
0
  0
LINE
  5
178
330
1A
100
AcDbEntity
  8
BLACK
  6
CONTINUOUS
100
AcDbLine
 10
1.4582528346456693
 20
0.86822968503937
 30
0
 11
1.4537907874015747
 21
0.862088188976378
 31
0
  0
LINE
  5
179
330
1A
100
AcDbEntity
  8
BLACK
  6
CONTINUOUS
100
AcDbLine
 10
1.4537907874015747
 20
0.862088188976378
 30
0
 11
1.4503444094488189
 21
0.8553242913385827
 31
0
  0
LINE
  5
17A
330
1A
100
AcDbEntity
  8
BLACK
  6
CONTINUOUS
100
AcDbLine
 10
1.4503444094488189
 20
0.8553242913385827
 30
0
 11
1.4479985826771653
 21
0.8481045275590551
 31
0
  0
LINE
  5
17B
330
1A
100
AcDbEntity
  8
BLACK
  6
CONTINUOUS
100
AcDbLine
 10
1.4479985826771653
 20
0.8481045275590551
 30
0
 11
1.4468110236220473
 21
0.8406066929133859
 31
0
  0
LINE
  5
17C
330
1A
100
AcDbEntity
  8
BLACK
  6
CONTINUOUS
100
AcDbLine
 10
1.4468110236220473
 20
0.8406066929133859
 30
0
 11
1.4468110236220473
 21
0.8330153543307086
 31
0
  0
LINE
  5
17D
330
1A
100
AcDbEntity
  8
BLACK
  6
CONTINUOUS
100
AcDbLine
 10
-1.1291902755905512
 20
1.9526809842519686
 30
0
 11
-1.1286575984251968
 21
1.9521483070866141
 31
0
  0
LINE
  5
17E
330
1A
100
AcDbEntity
  8
BLACK
  6
CONTINUOUS
100
AcDbLine
 10
-1.1286575984251968
 20
1.9521483070866141
 30
0
 11
-1.1285826771653542
 21
1.951771653543307
 31
0
  0
LINE
  5
17F
330
1A
100
AcDbEntity
  8
BLACK
  6
CONTINUOUS
100
AcDbLine
 10
-1.1285826771653542
 20
1.951771653543307
 30
0
 11
-1.1285826771653542
 21
0.7982283464566929
 31
0
  0
LINE
  5
180
330
1A
100
AcDbEntity
  8
BLACK
  6
CONTINUOUS
100
AcDbLine
 10
-1.1285826771653542
 20
0.7982283464566929
 30
0
 11
-1.1286575984251968
 21
0.7978516929133858
 31
0
  0
LINE
  5
181
330
1A
100
AcDbEntity
  8
BLACK
  6
CONTINUOUS
100
AcDbLine
 10
-1.1286575984251968
 20
0.7978516929133858
 30
0
 11
-1.1291902755905512
 21
0.7973190157480314
 31
0
  0
LINE
  5
182
330
1A
100
AcDbEntity
  8
BLACK
  6
CONTINUOUS
100
AcDbLine
 10
-1.1291902755905512
 20
0.7973190157480314
 30
0
 11
-1.1295669291338581
 21
0.797244094488189
 31
0
  0
LINE
  5
183
330
1A
100
AcDbEntity
  8
BLACK
  6
CONTINUOUS
100
AcDbLine
 10
-1.1295669291338581
 20
0.797244094488189
 30
0
 11
-2.1791732283464564
 21
0.797244094488189
 31
0
  0
LINE
  5
184
330
1A
100
AcDbEntity
  8
BLACK
  6
CONTINUOUS
100
AcDbLine
 10
-2.1791732283464564
 20
0.797244094488189
 30
0
 11
-2.1795498818897636
 21
0.7973190157480314
 31
0
  0
LINE
  5
185
330
1A
100
AcDbEntity
  8
BLACK
  6
CONTINUOUS
100
AcDbLine
 10
-2.1795498818897636
 20
0.7973190157480314
 30
0
 11
-2.1800825590551183
 21
0.7978516929133858
 31
0
  0
LINE
  5
186
330
1A
100
AcDbEntity
  8
BLACK
  6
CONTINUOUS
100
AcDbLine
 10
-2.1800825590551183
 20
0.7978516929133858
 30
0
 11
-2.1801574803149606
 21
0.7982283464566929
 31
0
  0
LINE
  5
187
330
1A
100
AcDbEntity
  8
BLACK
  6
CONTINUOUS
100
AcDbLine
 10
-2.1801574803149606
 20
0.7982283464566929
 30
0
 11
-2.1801574803149606
 21
1.951771653543307
 31
0
  0
LINE
  5
188
330
1A
100
AcDbEntity
  8
BLACK
  6
CONTINUOUS
100
AcDbLine
 10
-2.1801574803149606
 20
1.951771653543307
 30
0
 11
-2.1800825590551183
 21
1.9521483070866141
 31
0
  0
LINE
  5
189
330
1A
100
AcDbEntity
  8
BLACK
  6
CONTINUOUS
100
AcDbLine
 10
-2.1800825590551183
 20
1.9521483070866141
 30
0
 11
-2.1795498818897636
 21
1.9526809842519686
 31
0
  0
LINE
  5
18A
330
1A
100
AcDbEntity
  8
BLACK
  6
CONTINUOUS
100
AcDbLine
 10
-2.1795498818897636
 20
1.9526809842519686
 30
0
 11
-2.1791732283464564
 21
1.9527559055118109
 31
0
  0
LINE
  5
18B
330
1A
100
AcDbEntity
  8
BLACK
  6
CONTINUOUS
100
AcDbLine
 10
-2.1791732283464564
 20
1.9527559055118109
 30
0
 11
-1.1295669291338581
 21
1.9527559055118109
 31
0
  0
LINE
  5
18C
330
1A
100
AcDbEntity
  8
BLACK
  6
CONTINUOUS
100
AcDbLine
 10
-1.1295669291338581
 20
1.9527559055118109
 30
0
 11
-1.1291902755905512
 21
1.9526809842519686
 31
0
  0
LINE
  5
18D
330
1A
100
AcDbEntity
  8
BLACK
  6
CONTINUOUS
100
AcDbLine
 10
-2.1781889763779527
 20
1.950787401574803
 30
0
 11
-2.1781889763779527
 21
0.7992125984251969
 31
0
  0
LINE
  5
18E
330
1A
100
AcDbEntity
  8
BLACK
  6
CONTINUOUS
100
AcDbLine
 10
-2.1781889763779527
 20
0.7992125984251969
 30
0
 11
-1.1305511811023621
 21
0.7992125984251969
 31
0
  0
LINE
  5
18F
330
1A
100
AcDbEntity
  8
BLACK
  6
CONTINUOUS
100
AcDbLine
 10
-1.1305511811023621
 20
0.7992125984251969
 30
0
 11
-1.1305511811023621
 21
1.950787401574803
 31
0
  0
LINE
  5
190
330
1A
100
AcDbEntity
  8
BLACK
  6
CONTINUOUS
100
AcDbLine
 10
-1.1305511811023621
 20
1.950787401574803
 30
0
 11
-2.1781889763779527
 21
1.950787401574803
 31
0
  0
LINE
  5
191
330
1A
100
AcDbEntity
  8
BLACK
  6
CONTINUOUS
100
AcDbLine
 10
-0.7090721653543307
 20
0.9551219291338583
 30
0
 11
-0.7085394881889764
 21
0.9545892519685039
 31
0
  0
LINE
  5
192
330
1A
100
AcDbEntity
  8
BLACK
  6
CONTINUOUS
100
AcDbLine
 10
-0.7085394881889764
 20
0.9545892519685039
 30
0
 11
-0.7084645669291338
 21
0.9542125984251968
 31
0
  0
LINE
  5
193
330
1A
100
AcDbEntity
  8
BLACK
  6
CONTINUOUS
100
AcDbLine
 10
-0.7084645669291338
 20
0.9542125984251968
 30
0
 11
-0.7084645669291338
 21
0.8557874015748032
 31
0
  0
LINE
  5
194
330
1A
100
AcDbEntity
  8
BLACK
  6
CONTINUOUS
100
AcDbLine
 10
-0.7084645669291338
 20
0.8557874015748032
 30
0
 11
-0.7085394881889764
 21
0.8554107480314961
 31
0
  0
LINE
  5
195
330
1A
100
AcDbEntity
  8
BLACK
  6
CONTINUOUS
100
AcDbLine
 10
-0.7085394881889764
 20
0.8554107480314961
 30
0
 11
-0.7090721653543307
 21
0.8548780708661418
 31
0
  0
LINE
  5
196
330
1A
100
AcDbEntity
  8
BLACK
  6
CONTINUOUS
100
AcDbLine
 10
-0.7090721653543307
 20
0.8548780708661418
 30
0
 11
-0.7094488188976378
 21
0.8548031496062992
 31
0
  0
LINE
  5
197
330
1A
100
AcDbEntity
  8
BLACK
  6
CONTINUOUS
100
AcDbLine
 10
-0.7094488188976378
 20
0.8548031496062992
 30
0
 11
-0.8905511811023622
 21
0.8548031496062992
 31
0
  0
LINE
  5
198
330
1A
100
AcDbEntity
  8
BLACK
  6
CONTINUOUS
100
AcDbLine
 10
-0.8905511811023622
 20
0.8548031496062992
 30
0
 11
-0.8909278346456693
 21
0.8548780708661418
 31
0
  0
LINE
  5
199
330
1A
100
AcDbEntity
  8
BLACK
  6
CONTINUOUS
100
AcDbLine
 10
-0.8909278346456693
 20
0.8548780708661418
 30
0
 11
-0.8914605118110236
 21
0.8554107480314961
 31
0
  0
LINE
  5
19A
330
1A
100
AcDbEntity
  8
BLACK
  6
CONTINUOUS
100
AcDbLine
 10
-0.8914605118110236
 20
0.8554107480314961
 30
0
 11
-0.8915354330708661
 21
0.8557874015748032
 31
0
  0
LINE
  5
19B
330
1A
100
AcDbEntity
  8
BLACK
  6
CONTINUOUS
100
AcDbLine
 10
-0.8915354330708661
 20
0.8557874015748032
 30
0
 11
-0.8915354330708661
 21
0.9542125984251968
 31
0
  0
LINE
  5
19C
330
1A
100
AcDbEntity
  8
BLACK
  6
CONTINUOUS
100
AcDbLine
 10
-0.8915354330708661
 20
0.9542125984251968
 30
0
 11
-0.8914605118110236
 21
0.9545892519685039
 31
0
  0
LINE
  5
19D
330
1A
100
AcDbEntity
  8
BLACK
  6
CONTINUOUS
100
AcDbLine
 10
-0.8914605118110236
 20
0.9545892519685039
 30
0
 11
-0.8909278346456693
 21
0.9551219291338583
 31
0
  0
LINE
  5
19E
330
1A
100
AcDbEntity
  8
BLACK
  6
CONTINUOUS
100
AcDbLine
 10
-0.8909278346456693
 20
0.9551219291338583
 30
0
 11
-0.8905511811023622
 21
0.9551968503937007
 31
0
  0
LINE
  5
19F
330
1A
100
AcDbEntity
  8
BLACK
  6
CONTINUOUS
100
AcDbLine
 10
-0.8905511811023622
 20
0.9551968503937007
 30
0
 11
-0.7094488188976378
 21
0.9551968503937007
 31
0
  0
LINE
  5
1A0
330
1A
100
AcDbEntity
  8
BLACK
  6
CONTINUOUS
100
AcDbLine
 10
-0.7094488188976378
 20
0.9551968503937007
 30
0
 11
-0.7090721653543307
 21
0.9551219291338583
 31
0
  0
LINE
  5
1A1
330
1A
100
AcDbEntity
  8
BLACK
  6
CONTINUOUS
100
AcDbLine
 10
-0.8895669291338583
 20
0.9532283464566929
 30
0
 11
-0.8895669291338583
 21
0.8567716535433071
 31
0
  0
LINE
  5
1A2
330
1A
100
AcDbEntity
  8
BLACK
  6
CONTINUOUS
100
AcDbLine
 10
-0.8895669291338583
 20
0.8567716535433071
 30
0
 11
-0.7104330708661417
 21
0.8567716535433071
 31
0
  0
LINE
  5
1A3
330
1A
100
AcDbEntity
  8
BLACK
  6
CONTINUOUS
100
AcDbLine
 10
-0.7104330708661417
 20
0.8567716535433071
 30
0
 11
-0.7104330708661417
 21
0.9532283464566929
 31
0
  0
LINE
  5
1A4
330
1A
100
AcDbEntity
  8
BLACK
  6
CONTINUOUS
100
AcDbLine
 10
-0.7104330708661417
 20
0.9532283464566929
 30
0
 11
-0.8895669291338583
 21
0.9532283464566929
 31
0
  0
LINE
  5
1A5
330
1A
100
AcDbEntity
  8
BLACK
  6
CONTINUOUS
100
AcDbLine
 10
0.5297467322834646
 20
1.0601219291338582
 30
0
 11
0.5302794094488189
 21
1.059589251968504
 31
0
  0
LINE
  5
1A6
330
1A
100
AcDbEntity
  8
BLACK
  6
CONTINUOUS
100
AcDbLine
 10
0.5302794094488189
 20
1.059589251968504
 30
0
 11
0.5303543307086614
 21
1.0592125984251968
 31
0
  0
LINE
  5
1A7
330
1A
100
AcDbEntity
  8
BLACK
  6
CONTINUOUS
100
AcDbLine
 10
0.5303543307086614
 20
1.0592125984251968
 30
0
 11
0.5303543307086614
 21
0.9607874015748031
 31
0
  0
LINE
  5
1A8
330
1A
100
AcDbEntity
  8
BLACK
  6
CONTINUOUS
100
AcDbLine
 10
0.5303543307086614
 20
0.9607874015748031
 30
0
 11
0.5302794094488189
 21
0.9604107480314961
 31
0
  0
LINE
  5
1A9
330
1A
100
AcDbEntity
  8
BLACK
  6
CONTINUOUS
100
AcDbLine
 10
0.5302794094488189
 20
0.9604107480314961
 30
0
 11
0.5297467322834646
 21
0.9598780708661417
 31
0
  0
LINE
  5
1AA
330
1A
100
AcDbEntity
  8
BLACK
  6
CONTINUOUS
100
AcDbLine
 10
0.5297467322834646
 20
0.9598780708661417
 30
0
 11
0.5293700787401575
 21
0.9598031496062992
 31
0
  0
LINE
  5
1AB
330
1A
100
AcDbEntity
  8
BLACK
  6
CONTINUOUS
100
AcDbLine
 10
0.5293700787401575
 20
0.9598031496062992
 30
0
 11
0.348267716535433
 21
0.9598031496062992
 31
0
  0
LINE
  5
1AC
330
1A
100
AcDbEntity
  8
BLACK
  6
CONTINUOUS
100
AcDbLine
 10
0.348267716535433
 20
0.9598031496062992
 30
0
 11
0.347891062992126
 21
0.9598780708661417
 31
0
  0
LINE
  5
1AD
330
1A
100
AcDbEntity
  8
BLACK
  6
CONTINUOUS
100
AcDbLine
 10
0.347891062992126
 20
0.9598780708661417
 30
0
 11
0.3473583858267716
 21
0.9604107480314961
 31
0
  0
LINE
  5
1AE
330
1A
100
AcDbEntity
  8
BLACK
  6
CONTINUOUS
100
AcDbLine
 10
0.3473583858267716
 20
0.9604107480314961
 30
0
 11
0.3472834645669291
 21
0.9607874015748031
 31
0
  0
LINE
  5
1AF
330
1A
100
AcDbEntity
  8
BLACK
  6
CONTINUOUS
100
AcDbLine
 10
0.3472834645669291
 20
0.9607874015748031
 30
0
 11
0.3472834645669291
 21
1.0592125984251968
 31
0
  0
LINE
  5
1B0
330
1A
100
AcDbEntity
  8
BLACK
  6
CONTINUOUS
100
AcDbLine
 10
0.3472834645669291
 20
1.0592125984251968
 30
0
 11
0.3473583858267716
 21
1.059589251968504
 31
0
  0
LINE
  5
1B1
330
1A
100
AcDbEntity
  8
BLACK
  6
CONTINUOUS
100
AcDbLine
 10
0.3473583858267716
 20
1.059589251968504
 30
0
 11
0.347891062992126
 21
1.0601219291338582
 31
0
  0
LINE
  5
1B2
330
1A
100
AcDbEntity
  8
BLACK
  6
CONTINUOUS
100
AcDbLine
 10
0.347891062992126
 20
1.0601219291338582
 30
0
 11
0.348267716535433
 21
1.0601968503937007
 31
0
  0
LINE
  5
1B3
330
1A
100
AcDbEntity
  8
BLACK
  6
CONTINUOUS
100
AcDbLine
 10
0.348267716535433
 20
1.0601968503937007
 30
0
 11
0.5293700787401575
 21
1.0601968503937007
 31
0
  0
LINE
  5
1B4
330
1A
100
AcDbEntity
  8
BLACK
  6
CONTINUOUS
100
AcDbLine
 10
0.5293700787401575
 20
1.0601968503937007
 30
0
 11
0.5297467322834646
 21
1.0601219291338582
 31
0
  0
LINE
  5
1B5
330
1A
100
AcDbEntity
  8
BLACK
  6
CONTINUOUS
100
AcDbLine
 10
0.349251968503937
 20
1.0582283464566928
 30
0
 11
0.349251968503937
 21
0.9617716535433071
 31
0
  0
LINE
  5
1B6
330
1A
100
AcDbEntity
  8
BLACK
  6
CONTINUOUS
100
AcDbLine
 10
0.349251968503937
 20
0.9617716535433071
 30
0
 11
0.5283858267716536
 21
0.9617716535433071
 31
0
  0
LINE
  5
1B7
330
1A
100
AcDbEntity
  8
BLACK
  6
CONTINUOUS
100
AcDbLine
 10
0.5283858267716536
 20
0.9617716535433071
 30
0
 11
0.5283858267716536
 21
1.0582283464566928
 31
0
  0
LINE
  5
1B8
330
1A
100
AcDbEntity
  8
BLACK
  6
CONTINUOUS
100
AcDbLine
 10
0.5283858267716536
 20
1.0582283464566928
 30
0
 11
0.349251968503937
 21
1.0582283464566928
 31
0
  0
LINE
  5
1B9
330
1A
100
AcDbEntity
  8
BLACK
  6
CONTINUOUS
100
AcDbLine
 10
0.7409278346456692
 20
1.0601219291338582
 30
0
 11
0.7414605118110236
 21
1.059589251968504
 31
0
  0
LINE
  5
1BA
330
1A
100
AcDbEntity
  8
BLACK
  6
CONTINUOUS
100
AcDbLine
 10
0.7414605118110236
 20
1.059589251968504
 30
0
 11
0.7415354330708661
 21
1.0592125984251968
 31
0
  0
LINE
  5
1BB
330
1A
100
AcDbEntity
  8
BLACK
  6
CONTINUOUS
100
AcDbLine
 10
0.7415354330708661
 20
1.0592125984251968
 30
0
 11
0.7415354330708661
 21
0.9607874015748031
 31
0
  0
LINE
  5
1BC
330
1A
100
AcDbEntity
  8
BLACK
  6
CONTINUOUS
100
AcDbLine
 10
0.7415354330708661
 20
0.9607874015748031
 30
0
 11
0.7414605118110236
 21
0.9604107480314961
 31
0
  0
LINE
  5
1BD
330
1A
100
AcDbEntity
  8
BLACK
  6
CONTINUOUS
100
AcDbLine
 10
0.7414605118110236
 20
0.9604107480314961
 30
0
 11
0.7409278346456692
 21
0.9598780708661417
 31
0
  0
LINE
  5
1BE
330
1A
100
AcDbEntity
  8
BLACK
  6
CONTINUOUS
100
AcDbLine
 10
0.7409278346456692
 20
0.9598780708661417
 30
0
 11
0.7405511811023622
 21
0.9598031496062992
 31
0
  0
LINE
  5
1BF
330
1A
100
AcDbEntity
  8
BLACK
  6
CONTINUOUS
100
AcDbLine
 10
0.7405511811023622
 20
0.9598031496062992
 30
0
 11
0.5594488188976378
 21
0.9598031496062992
 31
0
  0
LINE
  5
1C0
330
1A
100
AcDbEntity
  8
BLACK
  6
CONTINUOUS
100
AcDbLine
 10
0.5594488188976378
 20
0.9598031496062992
 30
0
 11
0.5590721653543307
 21
0.9598780708661417
 31
0
  0
LINE
  5
1C1
330
1A
100
AcDbEntity
  8
BLACK
  6
CONTINUOUS
100
AcDbLine
 10
0.5590721653543307
 20
0.9598780708661417
 30
0
 11
0.5585394881889764
 21
0.9604107480314961
 31
0
  0
LINE
  5
1C2
330
1A
100
AcDbEntity
  8
BLACK
  6
CONTINUOUS
100
AcDbLine
 10
0.5585394881889764
 20
0.9604107480314961
 30
0
 11
0.5584645669291338
 21
0.9607874015748031
 31
0
  0
LINE
  5
1C3
330
1A
100
AcDbEntity
  8
BLACK
  6
CONTINUOUS
100
AcDbLine
 10
0.5584645669291338
 20
0.9607874015748031
 30
0
 11
0.5584645669291338
 21
1.0592125984251968
 31
0
  0
LINE
  5
1C4
330
1A
100
AcDbEntity
  8
BLACK
  6
CONTINUOUS
100
AcDbLine
 10
0.5584645669291338
 20
1.0592125984251968
 30
0
 11
0.5585394881889764
 21
1.059589251968504
 31
0
  0
LINE
  5
1C5
330
1A
100
AcDbEntity
  8
BLACK
  6
CONTINUOUS
100
AcDbLine
 10
0.5585394881889764
 20
1.059589251968504
 30
0
 11
0.5590721653543307
 21
1.0601219291338582
 31
0
  0
LINE
  5
1C6
330
1A
100
AcDbEntity
  8
BLACK
  6
CONTINUOUS
100
AcDbLine
 10
0.5590721653543307
 20
1.0601219291338582
 30
0
 11
0.5594488188976378
 21
1.0601968503937007
 31
0
  0
LINE
  5
1C7
330
1A
100
AcDbEntity
  8
BLACK
  6
CONTINUOUS
100
AcDbLine
 10
0.5594488188976378
 20
1.0601968503937007
 30
0
 11
0.7405511811023622
 21
1.0601968503937007
 31
0
  0
LINE
  5
1C8
330
1A
100
AcDbEntity
  8
BLACK
  6
CONTINUOUS
100
AcDbLine
 10
0.7405511811023622
 20
1.0601968503937007
 30
0
 11
0.7409278346456692
 21
1.0601219291338582
 31
0
  0
LINE
  5
1C9
330
1A
100
AcDbEntity
  8
BLACK
  6
CONTINUOUS
100
AcDbLine
 10
0.5604330708661417
 20
1.0582283464566928
 30
0
 11
0.5604330708661417
 21
0.9617716535433071
 31
0
  0
LINE
  5
1CA
330
1A
100
AcDbEntity
  8
BLACK
  6
CONTINUOUS
100
AcDbLine
 10
0.5604330708661417
 20
0.9617716535433071
 30
0
 11
0.7395669291338582
 21
0.9617716535433071
 31
0
  0
LINE
  5
1CB
330
1A
100
AcDbEntity
  8
BLACK
  6
CONTINUOUS
100
AcDbLine
 10
0.7395669291338582
 20
0.9617716535433071
 30
0
 11
0.7395669291338582
 21
1.0582283464566928
 31
0
  0
LINE
  5
1CC
330
1A
100
AcDbEntity
  8
BLACK
  6
CONTINUOUS
100
AcDbLine
 10
0.7395669291338582
 20
1.0582283464566928
 30
0
 11
0.5604330708661417
 21
1.0582283464566928
 31
0
  0
LINE
  5
1CD
330
1A
100
AcDbEntity
  8
BLACK
  6
CONTINUOUS
100
AcDbLine
 10
1.1045892519685039
 20
1.1614605118110235
 30
0
 11
1.1051219291338583
 21
1.1609278346456693
 31
0
  0
LINE
  5
1CE
330
1A
100
AcDbEntity
  8
BLACK
  6
CONTINUOUS
100
AcDbLine
 10
1.1051219291338583
 20
1.1609278346456693
 30
0
 11
1.1051968503937009
 21
1.1605511811023621
 31
0
  0
LINE
  5
1CF
330
1A
100
AcDbEntity
  8
BLACK
  6
CONTINUOUS
100
AcDbLine
 10
1.1051968503937009
 20
1.1605511811023621
 30
0
 11
1.1051968503937009
 21
0.9794488188976378
 31
0
  0
LINE
  5
1D0
330
1A
100
AcDbEntity
  8
BLACK
  6
CONTINUOUS
100
AcDbLine
 10
1.1051968503937009
 20
0.9794488188976378
 30
0
 11
1.1051219291338583
 21
0.9790721653543307
 31
0
  0
LINE
  5
1D1
330
1A
100
AcDbEntity
  8
BLACK
  6
CONTINUOUS
100
AcDbLine
 10
1.1051219291338583
 20
0.9790721653543307
 30
0
 11
1.1045892519685039
 21
0.9785394881889764
 31
0
  0
LINE
  5
1D2
330
1A
100
AcDbEntity
  8
BLACK
  6
CONTINUOUS
100
AcDbLine
 10
1.1045892519685039
 20
0.9785394881889764
 30
0
 11
1.1042125984251969
 21
0.9784645669291339
 31
0
  0
LINE
  5
1D3
330
1A
100
AcDbEntity
  8
BLACK
  6
CONTINUOUS
100
AcDbLine
 10
1.1042125984251969
 20
0.9784645669291339
 30
0
 11
1.0057874015748032
 21
0.9784645669291339
 31
0
  0
LINE
  5
1D4
330
1A
100
AcDbEntity
  8
BLACK
  6
CONTINUOUS
100
AcDbLine
 10
1.0057874015748032
 20
0.9784645669291339
 30
0
 11
1.005410748031496
 21
0.9785394881889764
 31
0
  0
LINE
  5
1D5
330
1A
100
AcDbEntity
  8
BLACK
  6
CONTINUOUS
100
AcDbLine
 10
1.005410748031496
 20
0.9785394881889764
 30
0
 11
1.0048780708661418
 21
0.9790721653543307
 31
0
  0
LINE
  5
1D6
330
1A
100
AcDbEntity
  8
BLACK
  6
CONTINUOUS
100
AcDbLine
 10
1.0048780708661418
 20
0.9790721653543307
 30
0
 11
1.0048031496062992
 21
0.9794488188976378
 31
0
  0
LINE
  5
1D7
330
1A
100
AcDbEntity
  8
BLACK
  6
CONTINUOUS
100
AcDbLine
 10
1.0048031496062992
 20
0.9794488188976378
 30
0
 11
1.0048031496062992
 21
1.1605511811023621
 31
0
  0
LINE
  5
1D8
330
1A
100
AcDbEntity
  8
BLACK
  6
CONTINUOUS
100
AcDbLine
 10
1.0048031496062992
 20
1.1605511811023621
 30
0
 11
1.0048780708661418
 21
1.1609278346456693
 31
0
  0
LINE
  5
1D9
330
1A
100
AcDbEntity
  8
BLACK
  6
CONTINUOUS
100
AcDbLine
 10
1.0048780708661418
 20
1.1609278346456693
 30
0
 11
1.005410748031496
 21
1.1614605118110235
 31
0
  0
LINE
  5
1DA
330
1A
100
AcDbEntity
  8
BLACK
  6
CONTINUOUS
100
AcDbLine
 10
1.005410748031496
 20
1.1614605118110235
 30
0
 11
1.0057874015748032
 21
1.161535433070866
 31
0
  0
LINE
  5
1DB
330
1A
100
AcDbEntity
  8
BLACK
  6
CONTINUOUS
100
AcDbLine
 10
1.0057874015748032
 20
1.161535433070866
 30
0
 11
1.1042125984251969
 21
1.161535433070866
 31
0
  0
LINE
  5
1DC
330
1A
100
AcDbEntity
  8
BLACK
  6
CONTINUOUS
100
AcDbLine
 10
1.1042125984251969
 20
1.161535433070866
 30
0
 11
1.1045892519685039
 21
1.1614605118110235
 31
0
  0
LINE
  5
1DD
330
1A
100
AcDbEntity
  8
BLACK
  6
CONTINUOUS
100
AcDbLine
 10
1.0067716535433071
 20
1.1595669291338582
 30
0
 11
1.0067716535433071
 21
0.9804330708661417
 31
0
  0
LINE
  5
1DE
330
1A
100
AcDbEntity
  8
BLACK
  6
CONTINUOUS
100
AcDbLine
 10
1.0067716535433071
 20
0.9804330708661417
 30
0
 11
1.103228346456693
 21
0.9804330708661417
 31
0
  0
LINE
  5
1DF
330
1A
100
AcDbEntity
  8
BLACK
  6
CONTINUOUS
100
AcDbLine
 10
1.103228346456693
 20
0.9804330708661417
 30
0
 11
1.103228346456693
 21
1.1595669291338582
 31
0
  0
LINE
  5
1E0
330
1A
100
AcDbEntity
  8
BLACK
  6
CONTINUOUS
100
AcDbLine
 10
1.103228346456693
 20
1.1595669291338582
 30
0
 11
1.0067716535433071
 21
1.1595669291338582
 31
0
  0
LINE
  5
1E1
330
1A
100
AcDbEntity
  8
BLACK
  6
CONTINUOUS
100
AcDbLine
 10
0.1697467322834646
 20
1.2251219291338582
 30
0
 11
0.1702794094488189
 21
1.224589251968504
 31
0
  0
LINE
  5
1E2
330
1A
100
AcDbEntity
  8
BLACK
  6
CONTINUOUS
100
AcDbLine
 10
0.1702794094488189
 20
1.224589251968504
 30
0
 11
0.1703543307086614
 21
1.2242125984251968
 31
0
  0
LINE
  5
1E3
330
1A
100
AcDbEntity
  8
BLACK
  6
CONTINUOUS
100
AcDbLine
 10
0.1703543307086614
 20
1.2242125984251968
 30
0
 11
0.1703543307086614
 21
1.1257874015748031
 31
0
  0
LINE
  5
1E4
330
1A
100
AcDbEntity
  8
BLACK
  6
CONTINUOUS
100
AcDbLine
 10
0.1703543307086614
 20
1.1257874015748031
 30
0
 11
0.1702794094488189
 21
1.1254107480314961
 31
0
  0
LINE
  5
1E5
330
1A
100
AcDbEntity
  8
BLACK
  6
CONTINUOUS
100
AcDbLine
 10
0.1702794094488189
 20
1.1254107480314961
 30
0
 11
0.1697467322834646
 21
1.1248780708661417
 31
0
  0
LINE
  5
1E6
330
1A
100
AcDbEntity
  8
BLACK
  6
CONTINUOUS
100
AcDbLine
 10
0.1697467322834646
 20
1.1248780708661417
 30
0
 11
0.1693700787401575
 21
1.1248031496062991
 31
0
  0
LINE
  5
1E7
330
1A
100
AcDbEntity
  8
BLACK
  6
CONTINUOUS
100
AcDbLine
 10
0.1693700787401575
 20
1.1248031496062991
 30
0
 11
-0.0117322834645669
 21
1.1248031496062991
 31
0
  0
LINE
  5
1E8
330
1A
100
AcDbEntity
  8
BLACK
  6
CONTINUOUS
100
AcDbLine
 10
-0.0117322834645669
 20
1.1248031496062991
 30
0
 11
-0.012108937007874
 21
1.1248780708661417
 31
0
  0
LINE
  5
1E9
330
1A
100
AcDbEntity
  8
BLACK
  6
CONTINUOUS
100
AcDbLine
 10
-0.012108937007874
 20
1.1248780708661417
 30
0
 11
-0.0126416141732283
 21
1.1254107480314961
 31
0
  0
LINE
  5
1EA
330
1A
100
AcDbEntity
  8
BLACK
  6
CONTINUOUS
100
AcDbLine
 10
-0.0126416141732283
 20
1.1254107480314961
 30
0
 11
-0.0127165354330709
 21
1.1257874015748031
 31
0
  0
LINE
  5
1EB
330
1A
100
AcDbEntity
  8
BLACK
  6
CONTINUOUS
100
AcDbLine
 10
-0.0127165354330709
 20
1.1257874015748031
 30
0
 11
-0.0127165354330709
 21
1.2242125984251968
 31
0
  0
LINE
  5
1EC
330
1A
100
AcDbEntity
  8
BLACK
  6
CONTINUOUS
100
AcDbLine
 10
-0.0127165354330709
 20
1.2242125984251968
 30
0
 11
-0.0126416141732283
 21
1.224589251968504
 31
0
  0
LINE
  5
1ED
330
1A
100
AcDbEntity
  8
BLACK
  6
CONTINUOUS
100
AcDbLine
 10
-0.0126416141732283
 20
1.224589251968504
 30
0
 11
-0.012108937007874
 21
1.2251219291338582
 31
0
  0
LINE
  5
1EE
330
1A
100
AcDbEntity
  8
BLACK
  6
CONTINUOUS
100
AcDbLine
 10
-0.012108937007874
 20
1.2251219291338582
 30
0
 11
-0.0117322834645669
 21
1.2251968503937007
 31
0
  0
LINE
  5
1EF
330
1A
100
AcDbEntity
  8
BLACK
  6
CONTINUOUS
100
AcDbLine
 10
-0.0117322834645669
 20
1.2251968503937007
 30
0
 11
0.1693700787401575
 21
1.2251968503937007
 31
0
  0
LINE
  5
1F0
330
1A
100
AcDbEntity
  8
BLACK
  6
CONTINUOUS
100
AcDbLine
 10
0.1693700787401575
 20
1.2251968503937007
 30
0
 11
0.1697467322834646
 21
1.2251219291338582
 31
0
  0
LINE
  5
1F1
330
1A
100
AcDbEntity
  8
BLACK
  6
CONTINUOUS
100
AcDbLine
 10
-0.010748031496063
 20
1.2232283464566929
 30
0
 11
-0.010748031496063
 21
1.126771653543307
 31
0
  0
LINE
  5
1F2
330
1A
100
AcDbEntity
  8
BLACK
  6
CONTINUOUS
100
AcDbLine
 10
-0.010748031496063
 20
1.126771653543307
 30
0
 11
0.1683858267716535
 21
1.126771653543307
 31
0
  0
LINE
  5
1F3
330
1A
100
AcDbEntity
  8
BLACK
  6
CONTINUOUS
100
AcDbLine
 10
0.1683858267716535
 20
1.126771653543307
 30
0
 11
0.1683858267716535
 21
1.2232283464566929
 31
0
  0
LINE
  5
1F4
330
1A
100
AcDbEntity
  8
BLACK
  6
CONTINUOUS
100
AcDbLine
 10
0.1683858267716535
 20
1.2232283464566929
 30
0
 11
-0.010748031496063
 21
1.2232283464566929
 31
0
  0
LINE
  5
1F5
330
1A
100
AcDbEntity
  8
BLACK
  6
CONTINUOUS
100
AcDbLine
 10
1.1234294881889764
 20
2.7683991338582676
 30
0
 11
1.1471203149606299
 21
2.7652801968503935
 31
0
  0
LINE
  5
1F6
330
1A
100
AcDbEntity
  8
BLACK
  6
CONTINUOUS
100
AcDbLine
 10
1.1471203149606299
 20
2.7652801968503935
 30
0
 11
1.1705563779527559
 21
2.7606184645669289
 31
0
  0
LINE
  5
1F7
330
1A
100
AcDbEntity
  8
BLACK
  6
CONTINUOUS
100
AcDbLine
 10
1.1705563779527559
 20
2.7606184645669289
 30
0
 11
1.193637401574803
 21
2.7544339370078741
 31
0
  0
LINE
  5
1F8
330
1A
100
AcDbEntity
  8
BLACK
  6
CONTINUOUS
100
AcDbLine
 10
1.193637401574803
 20
2.7544339370078741
 30
0
 11
1.2162645275590551
 21
2.7467530314960631
 31
0
  0
LINE
  5
1F9
330
1A
100
AcDbEntity
  8
BLACK
  6
CONTINUOUS
100
AcDbLine
 10
1.2162645275590551
 20
2.7467530314960631
 30
0
 11
1.2383408661417323
 21
2.7376087401574805
 31
0
  0
LINE
  5
1FA
330
1A
100
AcDbEntity
  8
BLACK
  6
CONTINUOUS
100
AcDbLine
 10
1.2383408661417323
 20
2.7376087401574805
 30
0
 11
1.2597718503937008
 21
2.7270401574803147
 31
0
  0
LINE
  5
1FB
330
1A
100
AcDbEntity
  8
BLACK
  6
CONTINUOUS
100
AcDbLine
 10
1.2597718503937008
 20
2.7270401574803147
 30
0
 11
1.2804657086614173
 21
2.7150925196850393
 31
0
  0
LINE
  5
1FC
330
1A
100
AcDbEntity
  8
BLACK
  6
CONTINUOUS
100
AcDbLine
 10
1.2804657086614173
 20
2.7150925196850393
 30
0
 11
1.3003338976377952
 21
2.7018170472440945
 31
0
  0
LINE
  5
1FD
330
1A
100
AcDbEntity
  8
BLACK
  6
CONTINUOUS
100
AcDbLine
 10
1.3003338976377952
 20
2.7018170472440945
 30
0
 11
1.3192912598425197
 21
2.6872705511811024
 31
0
  0
LINE
  5
1FE
330
1A
100
AcDbEntity
  8
BLACK
  6
CONTINUOUS
100
AcDbLine
 10
1.3192912598425197
 20
2.6872705511811024
 30
0
 11
1.337256653543307
 21
2.6715153149606299
 31
0
  0
LINE
  5
1FF
330
1A
100
AcDbEntity
  8
BLACK
  6
CONTINUOUS
100
AcDbLine
 10
1.337256653543307
 20
2.6715153149606299
 30
0
 11
1.3541531102362205
 21
2.6546188582677166
 31
0
  0
LINE
  5
200
330
1A
100
AcDbEntity
  8
BLACK
  6
CONTINUOUS
100
AcDbLine
 10
1.3541531102362205
 20
2.6546188582677166
 30
0
 11
1.3699083464566928
 21
2.6366534645669293
 31
0
  0
LINE
  5
201
330
1A
100
AcDbEntity
  8
BLACK
  6
CONTINUOUS
100
AcDbLine
 10
1.3699083464566928
 20
2.6366534645669293
 30
0
 11
1.384454842519685
 21
2.6176961023622045
 31
0
  0
LINE
  5
202
330
1A
100
AcDbEntity
  8
BLACK
  6
CONTINUOUS
100
AcDbLine
 10
1.384454842519685
 20
2.6176961023622045
 30
0
 11
1.3977303149606299
 21
2.5978279133858266
 31
0
  0
LINE
  5
203
330
1A
100
AcDbEntity
  8
BLACK
  6
CONTINUOUS
100
AcDbLine
 10
1.3977303149606299
 20
2.5978279133858266
 30
0
 11
1.4096779527559056
 21
2.5771340551181101
 31
0
  0
LINE
  5
204
330
1A
100
AcDbEntity
  8
BLACK
  6
CONTINUOUS
100
AcDbLine
 10
1.4096779527559056
 20
2.5771340551181101
 30
0
 11
1.4202465354330709
 21
2.5557030708661417
 31
0
  0
LINE
  5
205
330
1A
100
AcDbEntity
  8
BLACK
  6
CONTINUOUS
100
AcDbLine
 10
1.4202465354330709
 20
2.5557030708661417
 30
0
 11
1.4293908267716535
 21
2.5336267322834645
 31
0
  0
LINE
  5
206
330
1A
100
AcDbEntity
  8
BLACK
  6
CONTINUOUS
100
AcDbLine
 10
1.4293908267716535
 20
2.5336267322834645
 30
0
 11
1.4370717322834645
 21
2.5109996062992126
 31
0
  0
LINE
  5
207
330
1A
100
AcDbEntity
  8
BLACK
  6
CONTINUOUS
100
AcDbLine
 10
1.4370717322834645
 20
2.5109996062992126
 30
0
 11
1.4432562598425196
 21
2.4879185826771653
 31
0
  0
LINE
  5
208
330
1A
100
AcDbEntity
  8
BLACK
  6
CONTINUOUS
100
AcDbLine
 10
1.4432562598425196
 20
2.4879185826771653
 30
0
 11
1.4479179921259842
 21
2.4644825196850393
 31
0
  0
LINE
  5
209
330
1A
100
AcDbEntity
  8
BLACK
  6
CONTINUOUS
100
AcDbLine
 10
1.4479179921259842
 20
2.4644825196850393
 30
0
 11
1.4510369291338583
 21
2.4407916929133857
 31
0
  0
LINE
  5
20A
330
1A
100
AcDbEntity
  8
BLACK
  6
CONTINUOUS
100
AcDbLine
 10
1.4510369291338583
 20
2.4407916929133857
 30
0
 11
1.4525997637795276
 21
2.4169475984251969
 31
0
  0
LINE
  5
20B
330
1A
100
AcDbEntity
  8
BLACK
  6
CONTINUOUS
100
AcDbLine
 10
1.4525997637795276
 20
2.4169475984251969
 30
0
 11
1.4525997637795276
 21
2.3930524015748031
 31
0
  0
LINE
  5
20C
330
1A
100
AcDbEntity
  8
BLACK
  6
CONTINUOUS
100
AcDbLine
 10
1.4525997637795276
 20
2.3930524015748031
 30
0
 11
1.4510369291338583
 21
2.3692083070866143
 31
0
  0
LINE
  5
20D
330
1A
100
AcDbEntity
  8
BLACK
  6
CONTINUOUS
100
AcDbLine
 10
1.4510369291338583
 20
2.3692083070866143
 30
0
 11
1.4479179921259842
 21
2.3455174803149608
 31
0
  0
LINE
  5
20E
330
1A
100
AcDbEntity
  8
BLACK
  6
CONTINUOUS
100
AcDbLine
 10
1.4479179921259842
 20
2.3455174803149608
 30
0
 11
1.4432562598425196
 21
2.3220814173228348
 31
0
  0
LINE
  5
20F
330
1A
100
AcDbEntity
  8
BLACK
  6
CONTINUOUS
100
AcDbLine
 10
1.4432562598425196
 20
2.3220814173228348
 30
0
 11
1.4370717322834645
 21
2.2990003937007875
 31
0
  0
LINE
  5
210
330
1A
100
AcDbEntity
  8
BLACK
  6
CONTINUOUS
100
AcDbLine
 10
1.4370717322834645
 20
2.2990003937007875
 30
0
 11
1.4293908267716535
 21
2.2763732677165356
 31
0
  0
LINE
  5
211
330
1A
100
AcDbEntity
  8
BLACK
  6
CONTINUOUS
100
AcDbLine
 10
1.4293908267716535
 20
2.2763732677165356
 30
0
 11
1.4202465354330709
 21
2.2542969291338584
 31
0
  0
LINE
  5
212
330
1A
100
AcDbEntity
  8
BLACK
  6
CONTINUOUS
100
AcDbLine
 10
1.4202465354330709
 20
2.2542969291338584
 30
0
 11
1.4096779527559056
 21
2.2328659448818895
 31
0
  0
LINE
  5
213
330
1A
100
AcDbEntity
  8
BLACK
  6
CONTINUOUS
100
AcDbLine
 10
1.4096779527559056
 20
2.2328659448818895
 30
0
 11
1.3977303149606299
 21
2.212172086614173
 31
0
  0
LINE
  5
214
330
1A
100
AcDbEntity
  8
BLACK
  6
CONTINUOUS
100
AcDbLine
 10
1.3977303149606299
 20
2.212172086614173
 30
0
 11
1.384454842519685
 21
2.1923038976377951
 31
0
  0
LINE
  5
215
330
1A
100
AcDbEntity
  8
BLACK
  6
CONTINUOUS
100
AcDbLine
 10
1.384454842519685
 20
2.1923038976377951
 30
0
 11
1.3699083464566928
 21
2.1733465354330708
 31
0
  0
LINE
  5
216
330
1A
100
AcDbEntity
  8
BLACK
  6
CONTINUOUS
100
AcDbLine
 10
1.3699083464566928
 20
2.1733465354330708
 30
0
 11
1.3541531102362205
 21
2.1553811417322835
 31
0
  0
LINE
  5
217
330
1A
100
AcDbEntity
  8
BLACK
  6
CONTINUOUS
100
AcDbLine
 10
1.3541531102362205
 20
2.1553811417322835
 30
0
 11
1.337256653543307
 21
2.1384846850393702
 31
0
  0
LINE
  5
218
330
1A
100
AcDbEntity
  8
BLACK
  6
CONTINUOUS
100
AcDbLine
 10
1.337256653543307
 20
2.1384846850393702
 30
0
 11
1.3192912598425197
 21
2.1227294488188977
 31
0
  0
LINE
  5
219
330
1A
100
AcDbEntity
  8
BLACK
  6
CONTINUOUS
100
AcDbLine
 10
1.3192912598425197
 20
2.1227294488188977
 30
0
 11
1.3003338976377952
 21
2.1081829527559055
 31
0
  0
LINE
  5
21A
330
1A
100
AcDbEntity
  8
BLACK
  6
CONTINUOUS
100
AcDbLine
 10
1.3003338976377952
 20
2.1081829527559055
 30
0
 11
1.2804657086614173
 21
2.0949074803149608
 31
0
  0
LINE
  5
21B
330
1A
100
AcDbEntity
  8
BLACK
  6
CONTINUOUS
100
AcDbLine
 10
1.2804657086614173
 20
2.0949074803149608
 30
0
 11
1.2597718503937008
 21
2.0829598425196849
 31
0
  0
LINE
  5
21C
330
1A
100
AcDbEntity
  8
BLACK
  6
CONTINUOUS
100
AcDbLine
 10
1.2597718503937008
 20
2.0829598425196849
 30
0
 11
1.2383408661417323
 21
2.0723912598425196
 31
0
  0
LINE
  5
21D
330
1A
100
AcDbEntity
  8
BLACK
  6
CONTINUOUS
100
AcDbLine
 10
1.2383408661417323
 20
2.0723912598425196
 30
0
 11
1.2162645275590551
 21
2.063246968503937
 31
0
  0
LINE
  5
21E
330
1A
100
AcDbEntity
  8
BLACK
  6
CONTINUOUS
100
AcDbLine
 10
1.2162645275590551
 20
2.063246968503937
 30
0
 11
1.193637401574803
 21
2.055566062992126
 31
0
  0
LINE
  5
21F
330
1A
100
AcDbEntity
  8
BLACK
  6
CONTINUOUS
100
AcDbLine
 10
1.193637401574803
 20
2.055566062992126
 30
0
 11
1.1705563779527559
 21
2.0493815354330707
 31
0
  0
LINE
  5
220
330
1A
100
AcDbEntity
  8
BLACK
  6
CONTINUOUS
100
AcDbLine
 10
1.1705563779527559
 20
2.0493815354330707
 30
0
 11
1.1471203149606299
 21
2.0447198031496061
 31
0
  0
LINE
  5
221
330
1A
100
AcDbEntity
  8
BLACK
  6
CONTINUOUS
100
AcDbLine
 10
1.1471203149606299
 20
2.0447198031496061
 30
0
 11
1.1234294881889764
 21
2.0416008661417324
 31
0
  0
LINE
  5
222
330
1A
100
AcDbEntity
  8
BLACK
  6
CONTINUOUS
100
AcDbLine
 10
1.1234294881889764
 20
2.0416008661417324
 30
0
 11
1.0995853937007873
 21
2.0400380314960631
 31
0
  0
LINE
  5
223
330
1A
100
AcDbEntity
  8
BLACK
  6
CONTINUOUS
100
AcDbLine
 10
1.0995853937007873
 20
2.0400380314960631
 30
0
 11
1.0756901968503936
 21
2.0400380314960631
 31
0
  0
LINE
  5
224
330
1A
100
AcDbEntity
  8
BLACK
  6
CONTINUOUS
100
AcDbLine
 10
1.0756901968503936
 20
2.0400380314960631
 30
0
 11
1.0518461023622048
 21
2.0416008661417324
 31
0
  0
LINE
  5
225
330
1A
100
AcDbEntity
  8
BLACK
  6
CONTINUOUS
100
AcDbLine
 10
1.0518461023622048
 20
2.0416008661417324
 30
0
 11
1.0281552755905512
 21
2.0447198031496061
 31
0
  0
LINE
  5
226
330
1A
100
AcDbEntity
  8
BLACK
  6
CONTINUOUS
100
AcDbLine
 10
1.0281552755905512
 20
2.0447198031496061
 30
0
 11
1.0047192125984252
 21
2.0493815354330707
 31
0
  0
LINE
  5
227
330
1A
100
AcDbEntity
  8
BLACK
  6
CONTINUOUS
100
AcDbLine
 10
1.0047192125984252
 20
2.0493815354330707
 30
0
 11
0.9816381889763779
 21
2.055566062992126
 31
0
  0
LINE
  5
228
330
1A
100
AcDbEntity
  8
BLACK
  6
CONTINUOUS
100
AcDbLine
 10
0.9816381889763779
 20
2.055566062992126
 30
0
 11
0.959011062992126
 21
2.063246968503937
 31
0
  0
LINE
  5
229
330
1A
100
AcDbEntity
  8
BLACK
  6
CONTINUOUS
100
AcDbLine
 10
0.959011062992126
 20
2.063246968503937
 30
0
 11
0.9369347244094488
 21
2.0723912598425196
 31
0
  0
LINE
  5
22A
330
1A
100
AcDbEntity
  8
BLACK
  6
CONTINUOUS
100
AcDbLine
 10
0.9369347244094488
 20
2.0723912598425196
 30
0
 11
0.9155037401574803
 21
2.0829598425196849
 31
0
  0
LINE
  5
22B
330
1A
100
AcDbEntity
  8
BLACK
  6
CONTINUOUS
100
AcDbLine
 10
0.9155037401574803
 20
2.0829598425196849
 30
0
 11
0.8948098818897637
 21
2.0949074803149608
 31
0
  0
LINE
  5
22C
330
1A
100
AcDbEntity
  8
BLACK
  6
CONTINUOUS
100
AcDbLine
 10
0.8948098818897637
 20
2.0949074803149608
 30
0
 11
0.8749416929133859
 21
2.1081829527559055
 31
0
  0
LINE
  5
22D
330
1A
100
AcDbEntity
  8
BLACK
  6
CONTINUOUS
100
AcDbLine
 10
0.8749416929133859
 20
2.1081829527559055
 30
0
 11
0.8559843307086614
 21
2.1227294488188977
 31
0
  0
LINE
  5
22E
330
1A
100
AcDbEntity
  8
BLACK
  6
CONTINUOUS
100
AcDbLine
 10
0.8559843307086614
 20
2.1227294488188977
 30
0
 11
0.838018937007874
 21
2.1384846850393702
 31
0
  0
LINE
  5
22F
330
1A
100
AcDbEntity
  8
BLACK
  6
CONTINUOUS
100
AcDbLine
 10
0.838018937007874
 20
2.1384846850393702
 30
0
 11
0.8211224803149606
 21
2.1553811417322835
 31
0
  0
LINE
  5
230
330
1A
100
AcDbEntity
  8
BLACK
  6
CONTINUOUS
100
AcDbLine
 10
0.8211224803149606
 20
2.1553811417322835
 30
0
 11
0.8053672440944881
 21
2.1733465354330708
 31
0
  0
LINE
  5
231
330
1A
100
AcDbEntity
  8
BLACK
  6
CONTINUOUS
100
AcDbLine
 10
0.8053672440944881
 20
2.1733465354330708
 30
0
 11
0.790820748031496
 21
2.1923038976377951
 31
0
  0
LINE
  5
232
330
1A
100
AcDbEntity
  8
BLACK
  6
CONTINUOUS
100
AcDbLine
 10
0.790820748031496
 20
2.1923038976377951
 30
0
 11
0.7775452755905512
 21
2.212172086614173
 31
0
  0
LINE
  5
233
330
1A
100
AcDbEntity
  8
BLACK
  6
CONTINUOUS
100
AcDbLine
 10
0.7775452755905512
 20
2.212172086614173
 30
0
 11
0.7655976377952756
 21
2.2328659448818895
 31
0
  0
LINE
  5
234
330
1A
100
AcDbEntity
  8
BLACK
  6
CONTINUOUS
100
AcDbLine
 10
0.7655976377952756
 20
2.2328659448818895
 30
0
 11
0.7550290551181102
 21
2.2542969291338584
 31
0
  0
LINE
  5
235
330
1A
100
AcDbEntity
  8
BLACK
  6
CONTINUOUS
100
AcDbLine
 10
0.7550290551181102
 20
2.2542969291338584
 30
0
 11
0.7458847637795275
 21
2.2763732677165356
 31
0
  0
LINE
  5
236
330
1A
100
AcDbEntity
  8
BLACK
  6
CONTINUOUS
100
AcDbLine
 10
0.7458847637795275
 20
2.2763732677165356
 30
0
 11
0.7382038582677165
 21
2.2990003937007875
 31
0
  0
LINE
  5
237
330
1A
100
AcDbEntity
  8
BLACK
  6
CONTINUOUS
100
AcDbLine
 10
0.7382038582677165
 20
2.2990003937007875
 30
0
 11
0.7320193307086614
 21
2.3220814173228348
 31
0
  0
LINE
  5
238
330
1A
100
AcDbEntity
  8
BLACK
  6
CONTINUOUS
100
AcDbLine
 10
0.7320193307086614
 20
2.3220814173228348
 30
0
 11
0.7273575984251969
 21
2.3455174803149608
 31
0
  0
LINE
  5
239
330
1A
100
AcDbEntity
  8
BLACK
  6
CONTINUOUS
100
AcDbLine
 10
0.7273575984251969
 20
2.3455174803149608
 30
0
 11
0.7242386614173228
 21
2.3692083070866143
 31
0
  0
LINE
  5
23A
330
1A
100
AcDbEntity
  8
BLACK
  6
CONTINUOUS
100
AcDbLine
 10
0.7242386614173228
 20
2.3692083070866143
 30
0
 11
0.7226758267716535
 21
2.3930524015748031
 31
0
  0
LINE
  5
23B
330
1A
100
AcDbEntity
  8
BLACK
  6
CONTINUOUS
100
AcDbLine
 10
0.7226758267716535
 20
2.3930524015748031
 30
0
 11
0.7226758267716535
 21
2.4168895669291337
 31
0
  0
LINE
  5
23C
330
1A
100
AcDbEntity
  8
BLACK
  6
CONTINUOUS
100
AcDbLine
 10
0.7226758267716535
 20
2.4168895669291337
 30
0
 11
0.7226758267716535
 21
2.4169475984251969
 31
0
  0
LINE
  5
23D
330
1A
100
AcDbEntity
  8
BLACK
  6
CONTINUOUS
100
AcDbLine
 10
0.7226758267716535
 20
2.4169475984251969
 30
0
 11
0.7242386614173228
 21
2.4407916929133857
 31
0
  0
LINE
  5
23E
330
1A
100
AcDbEntity
  8
BLACK
  6
CONTINUOUS
100
AcDbLine
 10
0.7242386614173228
 20
2.4407916929133857
 30
0
 11
0.7273575984251969
 21
2.4644825196850393
 31
0
  0
LINE
  5
23F
330
1A
100
AcDbEntity
  8
BLACK
  6
CONTINUOUS
100
AcDbLine
 10
0.7273575984251969
 20
2.4644825196850393
 30
0
 11
0.7320193307086614
 21
2.4879185826771653
 31
0
  0
LINE
  5
240
330
1A
100
AcDbEntity
  8
BLACK
  6
CONTINUOUS
100
AcDbLine
 10
0.7320193307086614
 20
2.4879185826771653
 30
0
 11
0.7382038582677165
 21
2.5109996062992126
 31
0
  0
LINE
  5
241
330
1A
100
AcDbEntity
  8
BLACK
  6
CONTINUOUS
100
AcDbLine
 10
0.7382038582677165
 20
2.5109996062992126
 30
0
 11
0.7458847637795275
 21
2.5336267322834645
 31
0
  0
LINE
  5
242
330
1A
100
AcDbEntity
  8
BLACK
  6
CONTINUOUS
100
AcDbLine
 10
0.7458847637795275
 20
2.5336267322834645
 30
0
 11
0.7550290551181102
 21
2.5557030708661417
 31
0
  0
LINE
  5
243
330
1A
100
AcDbEntity
  8
BLACK
  6
CONTINUOUS
100
AcDbLine
 10
0.7550290551181102
 20
2.5557030708661417
 30
0
 11
0.7655976377952756
 21
2.5771340551181101
 31
0
  0
LINE
  5
244
330
1A
100
AcDbEntity
  8
BLACK
  6
CONTINUOUS
100
AcDbLine
 10
0.7655976377952756
 20
2.5771340551181101
 30
0
 11
0.7775452755905512
 21
2.5978279133858266
 31
0
  0
LINE
  5
245
330
1A
100
AcDbEntity
  8
BLACK
  6
CONTINUOUS
100
AcDbLine
 10
0.7775452755905512
 20
2.5978279133858266
 30
0
 11
0.790820748031496
 21
2.6176961023622045
 31
0
  0
LINE
  5
246
330
1A
100
AcDbEntity
  8
BLACK
  6
CONTINUOUS
100
AcDbLine
 10
0.790820748031496
 20
2.6176961023622045
 30
0
 11
0.8053672440944881
 21
2.6366534645669293
 31
0
  0
LINE
  5
247
330
1A
100
AcDbEntity
  8
BLACK
  6
CONTINUOUS
100
AcDbLine
 10
0.8053672440944881
 20
2.6366534645669293
 30
0
 11
0.8211224803149606
 21
2.6546188582677166
 31
0
  0
LINE
  5
248
330
1A
100
AcDbEntity
  8
BLACK
  6
CONTINUOUS
100
AcDbLine
 10
0.8211224803149606
 20
2.6546188582677166
 30
0
 11
0.838018937007874
 21
2.6715153149606299
 31
0
  0
LINE
  5
249
330
1A
100
AcDbEntity
  8
BLACK
  6
CONTINUOUS
100
AcDbLine
 10
0.838018937007874
 20
2.6715153149606299
 30
0
 11
0.8559843307086614
 21
2.6872705511811024
 31
0
  0
LINE
  5
24A
330
1A
100
AcDbEntity
  8
BLACK
  6
CONTINUOUS
100
AcDbLine
 10
0.8559843307086614
 20
2.6872705511811024
 30
0
 11
0.8749416929133859
 21
2.7018170472440945
 31
0
  0
LINE
  5
24B
330
1A
100
AcDbEntity
  8
BLACK
  6
CONTINUOUS
100
AcDbLine
 10
0.8749416929133859
 20
2.7018170472440945
 30
0
 11
0.8948098818897637
 21
2.7150925196850393
 31
0
  0
LINE
  5
24C
330
1A
100
AcDbEntity
  8
BLACK
  6
CONTINUOUS
100
AcDbLine
 10
0.8948098818897637
 20
2.7150925196850393
 30
0
 11
0.9155037401574803
 21
2.7270401574803147
 31
0
  0
LINE
  5
24D
330
1A
100
AcDbEntity
  8
BLACK
  6
CONTINUOUS
100
AcDbLine
 10
0.9155037401574803
 20
2.7270401574803147
 30
0
 11
0.9369347244094488
 21
2.7376087401574805
 31
0
  0
LINE
  5
24E
330
1A
100
AcDbEntity
  8
BLACK
  6
CONTINUOUS
100
AcDbLine
 10
0.9369347244094488
 20
2.7376087401574805
 30
0
 11
0.959011062992126
 21
2.7467530314960631
 31
0
  0
LINE
  5
24F
330
1A
100
AcDbEntity
  8
BLACK
  6
CONTINUOUS
100
AcDbLine
 10
0.959011062992126
 20
2.7467530314960631
 30
0
 11
0.9816381889763779
 21
2.7544339370078741
 31
0
  0
LINE
  5
250
330
1A
100
AcDbEntity
  8
BLACK
  6
CONTINUOUS
100
AcDbLine
 10
0.9816381889763779
 20
2.7544339370078741
 30
0
 11
1.0047192125984252
 21
2.7606184645669289
 31
0
  0
LINE
  5
251
330
1A
100
AcDbEntity
  8
BLACK
  6
CONTINUOUS
100
AcDbLine
 10
1.0047192125984252
 20
2.7606184645669289
 30
0
 11
1.0281552755905512
 21
2.7652801968503935
 31
0
  0
LINE
  5
252
330
1A
100
AcDbEntity
  8
BLACK
  6
CONTINUOUS
100
AcDbLine
 10
1.0281552755905512
 20
2.7652801968503935
 30
0
 11
1.0518461023622048
 21
2.7683991338582676
 31
0
  0
LINE
  5
253
330
1A
100
AcDbEntity
  8
BLACK
  6
CONTINUOUS
100
AcDbLine
 10
1.0518461023622048
 20
2.7683991338582676
 30
0
 11
1.0756901968503936
 21
2.7699619685039369
 31
0
  0
LINE
  5
254
330
1A
100
AcDbEntity
  8
BLACK
  6
CONTINUOUS
100
AcDbLine
 10
1.0756901968503936
 20
2.7699619685039369
 30
0
 11
1.0995853937007873
 21
2.7699619685039369
 31
0
  0
LINE
  5
255
330
1A
100
AcDbEntity
  8
BLACK
  6
CONTINUOUS
100
AcDbLine
 10
1.0995853937007873
 20
2.7699619685039369
 30
0
 11
1.1234294881889764
 21
2.7683991338582676
 31
0
  0
LINE
  5
256
330
1A
100
AcDbEntity
  8
BLACK
  6
CONTINUOUS
100
AcDbLine
 10
0.7244488188976378
 20
2.3931104330708659
 30
0
 11
0.7260040551181102
 21
2.3693821653543305
 31
0
  0
LINE
  5
257
330
1A
100
AcDbEntity
  8
BLACK
  6
CONTINUOUS
100
AcDbLine
 10
0.7260040551181102
 20
2.3693821653543305
 30
0
 11
0.7291078346456693
 21
2.3458064566929133
 31
0
  0
LINE
  5
258
330
1A
100
AcDbEntity
  8
BLACK
  6
CONTINUOUS
100
AcDbLine
 10
0.7291078346456693
 20
2.3458064566929133
 30
0
 11
0.7337469291338583
 21
2.3224842125984253
 31
0
  0
LINE
  5
259
330
1A
100
AcDbEntity
  8
BLACK
  6
CONTINUOUS
100
AcDbLine
 10
0.7337469291338583
 20
2.3224842125984253
 30
0
 11
0.7399014173228347
 21
2.29951531496063
 31
0
  0
LINE
  5
25A
330
1A
100
AcDbEntity
  8
BLACK
  6
CONTINUOUS
100
AcDbLine
 10
0.7399014173228347
 20
2.29951531496063
 30
0
 11
0.747545
 21
2.2769981102362205
 31
0
  0
LINE
  5
25B
330
1A
100
AcDbEntity
  8
BLACK
  6
CONTINUOUS
100
AcDbLine
 10
0.747545
 20
2.2769981102362205
 30
0
 11
0.7566448818897638
 21
2.25502905511811
 31
0
  0
LINE
  5
25C
330
1A
100
AcDbEntity
  8
BLACK
  6
CONTINUOUS
100
AcDbLine
 10
0.7566448818897638
 20
2.25502905511811
 30
0
 11
0.7671621259842519
 21
2.2337021653543307
 31
0
  0
LINE
  5
25D
330
1A
100
AcDbEntity
  8
BLACK
  6
CONTINUOUS
100
AcDbLine
 10
0.7671621259842519
 20
2.2337021653543307
 30
0
 11
0.7790516929133858
 21
2.2131088188976378
 31
0
  0
LINE
  5
25E
330
1A
100
AcDbEntity
  8
BLACK
  6
CONTINUOUS
100
AcDbLine
 10
0.7790516929133858
 20
2.2131088188976378
 30
0
 11
0.7922626771653544
 21
2.1933372047244095
 31
0
  0
LINE
  5
25F
330
1A
100
AcDbEntity
  8
BLACK
  6
CONTINUOUS
100
AcDbLine
 10
0.7922626771653544
 20
2.1933372047244095
 30
0
 11
0.8067385039370079
 21
2.1744719291338583
 31
0
  0
LINE
  5
260
330
1A
100
AcDbEntity
  8
BLACK
  6
CONTINUOUS
100
AcDbLine
 10
0.8067385039370079
 20
2.1744719291338583
 30
0
 11
0.8224172047244094
 21
2.1565938188976377
 31
0
  0
LINE
  5
261
330
1A
100
AcDbEntity
  8
BLACK
  6
CONTINUOUS
100
AcDbLine
 10
0.8224172047244094
 20
2.1565938188976377
 30
0
 11
0.8392316141732283
 21
2.1397794094488187
 31
0
  0
LINE
  5
262
330
1A
100
AcDbEntity
  8
BLACK
  6
CONTINUOUS
100
AcDbLine
 10
0.8392316141732283
 20
2.1397794094488187
 30
0
 11
0.8571097244094488
 21
2.1241007086614174
 31
0
  0
LINE
  5
263
330
1A
100
AcDbEntity
  8
BLACK
  6
CONTINUOUS
100
AcDbLine
 10
0.8571097244094488
 20
2.1241007086614174
 30
0
 11
0.8759749999999999
 21
2.1096248818897636
 31
0
  0
LINE
  5
264
330
1A
100
AcDbEntity
  8
BLACK
  6
CONTINUOUS
100
AcDbLine
 10
0.8759749999999999
 20
2.1096248818897636
 30
0
 11
0.8957466141732283
 21
2.0964138976377953
 31
0
  0
LINE
  5
265
330
1A
100
AcDbEntity
  8
BLACK
  6
CONTINUOUS
100
AcDbLine
 10
0.8957466141732283
 20
2.0964138976377953
 30
0
 11
0.9163399606299213
 21
2.0845243307086614
 31
0
  0
LINE
  5
266
330
1A
100
AcDbEntity
  8
BLACK
  6
CONTINUOUS
100
AcDbLine
 10
0.9163399606299213
 20
2.0845243307086614
 30
0
 11
0.9376668503937008
 21
2.0740070866141731
 31
0
  0
LINE
  5
267
330
1A
100
AcDbEntity
  8
BLACK
  6
CONTINUOUS
100
AcDbLine
 10
0.9376668503937008
 20
2.0740070866141731
 30
0
 11
0.959635905511811
 21
2.0649072047244093
 31
0
  0
LINE
  5
268
330
1A
100
AcDbEntity
  8
BLACK
  6
CONTINUOUS
100
AcDbLine
 10
0.959635905511811
 20
2.0649072047244093
 30
0
 11
0.9821531102362204
 21
2.0572636220472442
 31
0
  0
LINE
  5
269
330
1A
100
AcDbEntity
  8
BLACK
  6
CONTINUOUS
100
AcDbLine
 10
0.9821531102362204
 20
2.0572636220472442
 30
0
 11
1.0051220078740157
 21
2.0511091338582679
 31
0
  0
LINE
  5
26A
330
1A
100
AcDbEntity
  8
BLACK
  6
CONTINUOUS
100
AcDbLine
 10
1.0051220078740157
 20
2.0511091338582679
 30
0
 11
1.028444251968504
 21
2.0464700393700785
 31
0
  0
LINE
  5
26B
330
1A
100
AcDbEntity
  8
BLACK
  6
CONTINUOUS
100
AcDbLine
 10
1.028444251968504
 20
2.0464700393700785
 30
0
 11
1.0520199606299212
 21
2.0433662598425197
 31
0
  0
LINE
  5
26C
330
1A
100
AcDbEntity
  8
BLACK
  6
CONTINUOUS
100
AcDbLine
 10
1.0520199606299212
 20
2.0433662598425197
 30
0
 11
1.0757482283464566
 21
2.041811023622047
 31
0
  0
LINE
  5
26D
330
1A
100
AcDbEntity
  8
BLACK
  6
CONTINUOUS
100
AcDbLine
 10
1.0757482283464566
 20
2.041811023622047
 30
0
 11
1.0995273622047244
 21
2.041811023622047
 31
0
  0
LINE
  5
26E
330
1A
100
AcDbEntity
  8
BLACK
  6
CONTINUOUS
100
AcDbLine
 10
1.0995273622047244
 20
2.041811023622047
 30
0
 11
1.1232556299212597
 21
2.0433662598425197
 31
0
  0
LINE
  5
26F
330
1A
100
AcDbEntity
  8
BLACK
  6
CONTINUOUS
100
AcDbLine
 10
1.1232556299212597
 20
2.0433662598425197
 30
0
 11
1.1468313385826772
 21
2.0464700393700785
 31
0
  0
LINE
  5
270
330
1A
100
AcDbEntity
  8
BLACK
  6
CONTINUOUS
100
AcDbLine
 10
1.1468313385826772
 20
2.0464700393700785
 30
0
 11
1.1701535826771654
 21
2.0511091338582679
 31
0
  0
LINE
  5
271
330
1A
100
AcDbEntity
  8
BLACK
  6
CONTINUOUS
100
AcDbLine
 10
1.1701535826771654
 20
2.0511091338582679
 30
0
 11
1.1931224803149607
 21
2.0572636220472442
 31
0
  0
LINE
  5
272
330
1A
100
AcDbEntity
  8
BLACK
  6
CONTINUOUS
100
AcDbLine
 10
1.1931224803149607
 20
2.0572636220472442
 30
0
 11
1.21563968503937
 21
2.0649072047244093
 31
0
  0
LINE
  5
273
330
1A
100
AcDbEntity
  8
BLACK
  6
CONTINUOUS
100
AcDbLine
 10
1.21563968503937
 20
2.0649072047244093
 30
0
 11
1.2376087401574802
 21
2.0740070866141731
 31
0
  0
LINE
  5
274
330
1A
100
AcDbEntity
  8
BLACK
  6
CONTINUOUS
100
AcDbLine
 10
1.2376087401574802
 20
2.0740070866141731
 30
0
 11
1.2589356299212597
 21
2.0845243307086614
 31
0
  0
LINE
  5
275
330
1A
100
AcDbEntity
  8
BLACK
  6
CONTINUOUS
100
AcDbLine
 10
1.2589356299212597
 20
2.0845243307086614
 30
0
 11
1.2795289763779527
 21
2.0964138976377953
 31
0
  0
LINE
  5
276
330
1A
100
AcDbEntity
  8
BLACK
  6
CONTINUOUS
100
AcDbLine
 10
1.2795289763779527
 20
2.0964138976377953
 30
0
 11
1.299300590551181
 21
2.1096248818897636
 31
0
  0
LINE
  5
277
330
1A
100
AcDbEntity
  8
BLACK
  6
CONTINUOUS
100
AcDbLine
 10
1.299300590551181
 20
2.1096248818897636
 30
0
 11
1.3181658661417321
 21
2.1241007086614174
 31
0
  0
LINE
  5
278
330
1A
100
AcDbEntity
  8
BLACK
  6
CONTINUOUS
100
AcDbLine
 10
1.3181658661417321
 20
2.1241007086614174
 30
0
 11
1.3360439763779528
 21
2.1397794094488187
 31
0
  0
LINE
  5
279
330
1A
100
AcDbEntity
  8
BLACK
  6
CONTINUOUS
100
AcDbLine
 10
1.3360439763779528
 20
2.1397794094488187
 30
0
 11
1.3528583858267715
 21
2.1565938188976377
 31
0
  0
LINE
  5
27A
330
1A
100
AcDbEntity
  8
BLACK
  6
CONTINUOUS
100
AcDbLine
 10
1.3528583858267715
 20
2.1565938188976377
 30
0
 11
1.3685370866141733
 21
2.1744719291338583
 31
0
  0
LINE
  5
27B
330
1A
100
AcDbEntity
  8
BLACK
  6
CONTINUOUS
100
AcDbLine
 10
1.3685370866141733
 20
2.1744719291338583
 30
0
 11
1.3830129133858267
 21
2.1933372047244095
 31
0
  0
LINE
  5
27C
330
1A
100
AcDbEntity
  8
BLACK
  6
CONTINUOUS
100
AcDbLine
 10
1.3830129133858267
 20
2.1933372047244095
 30
0
 11
1.3962238976377952
 21
2.2131088188976378
 31
0
  0
LINE
  5
27D
330
1A
100
AcDbEntity
  8
BLACK
  6
CONTINUOUS
100
AcDbLine
 10
1.3962238976377952
 20
2.2131088188976378
 30
0
 11
1.4081134645669291
 21
2.2337021653543307
 31
0
  0
LINE
  5
27E
330
1A
100
AcDbEntity
  8
BLACK
  6
CONTINUOUS
100
AcDbLine
 10
1.4081134645669291
 20
2.2337021653543307
 30
0
 11
1.4186307086614174
 21
2.25502905511811
 31
0
  0
LINE
  5
27F
330
1A
100
AcDbEntity
  8
BLACK
  6
CONTINUOUS
100
AcDbLine
 10
1.4186307086614174
 20
2.25502905511811
 30
0
 11
1.427730590551181
 21
2.2769981102362205
 31
0
  0
LINE
  5
280
330
1A
100
AcDbEntity
  8
BLACK
  6
CONTINUOUS
100
AcDbLine
 10
1.427730590551181
 20
2.2769981102362205
 30
0
 11
1.4353741732283465
 21
2.29951531496063
 31
0
  0
LINE
  5
281
330
1A
100
AcDbEntity
  8
BLACK
  6
CONTINUOUS
100
AcDbLine
 10
1.4353741732283465
 20
2.29951531496063
 30
0
 11
1.4415286614173228
 21
2.3224842125984253
 31
0
  0
LINE
  5
282
330
1A
100
AcDbEntity
  8
BLACK
  6
CONTINUOUS
100
AcDbLine
 10
1.4415286614173228
 20
2.3224842125984253
 30
0
 11
1.4461677559055117
 21
2.3458064566929133
 31
0
  0
LINE
  5
283
330
1A
100
AcDbEntity
  8
BLACK
  6
CONTINUOUS
100
AcDbLine
 10
1.4461677559055117
 20
2.3458064566929133
 30
0
 11
1.4492715354330707
 21
2.3693821653543305
 31
0
  0
LINE
  5
284
330
1A
100
AcDbEntity
  8
BLACK
  6
CONTINUOUS
100
AcDbLine
 10
1.4492715354330707
 20
2.3693821653543305
 30
0
 11
1.4508267716535432
 21
2.3931104330708659
 31
0
  0
LINE
  5
285
330
1A
100
AcDbEntity
  8
BLACK
  6
CONTINUOUS
100
AcDbLine
 10
1.4508267716535432
 20
2.3931104330708659
 30
0
 11
1.4508267716535432
 21
2.4168895669291337
 31
0
  0
LINE
  5
286
330
1A
100
AcDbEntity
  8
BLACK
  6
CONTINUOUS
100
AcDbLine
 10
1.4508267716535432
 20
2.4168895669291337
 30
0
 11
1.4492715354330707
 21
2.4406178346456691
 31
0
  0
LINE
  5
287
330
1A
100
AcDbEntity
  8
BLACK
  6
CONTINUOUS
100
AcDbLine
 10
1.4492715354330707
 20
2.4406178346456691
 30
0
 11
1.4461677559055117
 21
2.4641935433070867
 31
0
  0
LINE
  5
288
330
1A
100
AcDbEntity
  8
BLACK
  6
CONTINUOUS
100
AcDbLine
 10
1.4461677559055117
 20
2.4641935433070867
 30
0
 11
1.4415286614173228
 21
2.4875157874015748
 31
0
  0
LINE
  5
289
330
1A
100
AcDbEntity
  8
BLACK
  6
CONTINUOUS
100
AcDbLine
 10
1.4415286614173228
 20
2.4875157874015748
 30
0
 11
1.4353741732283465
 21
2.5104846850393701
 31
0
  0
LINE
  5
28A
330
1A
100
AcDbEntity
  8
BLACK
  6
CONTINUOUS
100
AcDbLine
 10
1.4353741732283465
 20
2.5104846850393701
 30
0
 11
1.427730590551181
 21
2.5330018897637796
 31
0
  0
LINE
  5
28B
330
1A
100
AcDbEntity
  8
BLACK
  6
CONTINUOUS
100
AcDbLine
 10
1.427730590551181
 20
2.5330018897637796
 30
0
 11
1.4186307086614174
 21
2.5549709448818896
 31
0
  0
LINE
  5
28C
330
1A
100
AcDbEntity
  8
BLACK
  6
CONTINUOUS
100
AcDbLine
 10
1.4186307086614174
 20
2.5549709448818896
 30
0
 11
1.4081134645669291
 21
2.5762978346456693
 31
0
  0
LINE
  5
28D
330
1A
100
AcDbEntity
  8
BLACK
  6
CONTINUOUS
100
AcDbLine
 10
1.4081134645669291
 20
2.5762978346456693
 30
0
 11
1.3962238976377952
 21
2.5968911811023623
 31
0
  0
LINE
  5
28E
330
1A
100
AcDbEntity
  8
BLACK
  6
CONTINUOUS
100
AcDbLine
 10
1.3962238976377952
 20
2.5968911811023623
 30
0
 11
1.3830129133858267
 21
2.6166627952755905
 31
0
  0
LINE
  5
28F
330
1A
100
AcDbEntity
  8
BLACK
  6
CONTINUOUS
100
AcDbLine
 10
1.3830129133858267
 20
2.6166627952755905
 30
0
 11
1.3685370866141733
 21
2.6355280708661417
 31
0
  0
LINE
  5
290
330
1A
100
AcDbEntity
  8
BLACK
  6
CONTINUOUS
100
AcDbLine
 10
1.3685370866141733
 20
2.6355280708661417
 30
0
 11
1.3528583858267715
 21
2.6534061811023619
 31
0
  0
LINE
  5
291
330
1A
100
AcDbEntity
  8
BLACK
  6
CONTINUOUS
100
AcDbLine
 10
1.3528583858267715
 20
2.6534061811023619
 30
0
 11
1.3360439763779528
 21
2.6702205905511809
 31
0
  0
LINE
  5
292
330
1A
100
AcDbEntity
  8
BLACK
  6
CONTINUOUS
100
AcDbLine
 10
1.3360439763779528
 20
2.6702205905511809
 30
0
 11
1.3181658661417321
 21
2.6858992913385826
 31
0
  0
LINE
  5
293
330
1A
100
AcDbEntity
  8
BLACK
  6
CONTINUOUS
100
AcDbLine
 10
1.3181658661417321
 20
2.6858992913385826
 30
0
 11
1.299300590551181
 21
2.700375118110236
 31
0
  0
LINE
  5
294
330
1A
100
AcDbEntity
  8
BLACK
  6
CONTINUOUS
100
AcDbLine
 10
1.299300590551181
 20
2.700375118110236
 30
0
 11
1.2795289763779527
 21
2.7135861023622048
 31
0
  0
LINE
  5
295
330
1A
100
AcDbEntity
  8
BLACK
  6
CONTINUOUS
100
AcDbLine
 10
1.2795289763779527
 20
2.7135861023622048
 30
0
 11
1.2589356299212597
 21
2.7254756692913387
 31
0
  0
LINE
  5
296
330
1A
100
AcDbEntity
  8
BLACK
  6
CONTINUOUS
100
AcDbLine
 10
1.2589356299212597
 20
2.7254756692913387
 30
0
 11
1.2376087401574802
 21
2.7359929133858265
 31
0
  0
LINE
  5
297
330
1A
100
AcDbEntity
  8
BLACK
  6
CONTINUOUS
100
AcDbLine
 10
1.2376087401574802
 20
2.7359929133858265
 30
0
 11
1.21563968503937
 21
2.7450927952755904
 31
0
  0
LINE
  5
298
330
1A
100
AcDbEntity
  8
BLACK
  6
CONTINUOUS
100
AcDbLine
 10
1.21563968503937
 20
2.7450927952755904
 30
0
 11
1.1931224803149607
 21
2.7527363779527558
 31
0
  0
LINE
  5
299
330
1A
100
AcDbEntity
  8
BLACK
  6
CONTINUOUS
100
AcDbLine
 10
1.1931224803149607
 20
2.7527363779527558
 30
0
 11
1.1701535826771654
 21
2.7588908661417322
 31
0
  0
LINE
  5
29A
330
1A
100
AcDbEntity
  8
BLACK
  6
CONTINUOUS
100
AcDbLine
 10
1.1701535826771654
 20
2.7588908661417322
 30
0
 11
1.1468313385826772
 21
2.7635299606299211
 31
0
  0
LINE
  5
29B
330
1A
100
AcDbEntity
  8
BLACK
  6
CONTINUOUS
100
AcDbLine
 10
1.1468313385826772
 20
2.7635299606299211
 30
0
 11
1.1232556299212597
 21
2.7666337401574803
 31
0
  0
LINE
  5
29C
330
1A
100
AcDbEntity
  8
BLACK
  6
CONTINUOUS
100
AcDbLine
 10
1.1232556299212597
 20
2.7666337401574803
 30
0
 11
1.0995273622047244
 21
2.7681889763779526
 31
0
  0
LINE
  5
29D
330
1A
100
AcDbEntity
  8
BLACK
  6
CONTINUOUS
100
AcDbLine
 10
1.0995273622047244
 20
2.7681889763779526
 30
0
 11
1.0757482283464566
 21
2.7681889763779526
 31
0
  0
LINE
  5
29E
330
1A
100
AcDbEntity
  8
BLACK
  6
CONTINUOUS
100
AcDbLine
 10
1.0757482283464566
 20
2.7681889763779526
 30
0
 11
1.0520199606299212
 21
2.7666337401574803
 31
0
  0
LINE
  5
29F
330
1A
100
AcDbEntity
  8
BLACK
  6
CONTINUOUS
100
AcDbLine
 10
1.0520199606299212
 20
2.7666337401574803
 30
0
 11
1.028444251968504
 21
2.7635299606299211
 31
0
  0
LINE
  5
2A0
330
1A
100
AcDbEntity
  8
BLACK
  6
CONTINUOUS
100
AcDbLine
 10
1.028444251968504
 20
2.7635299606299211
 30
0
 11
1.0051220078740157
 21
2.7588908661417322
 31
0
  0
LINE
  5
2A1
330
1A
100
AcDbEntity
  8
BLACK
  6
CONTINUOUS
100
AcDbLine
 10
1.0051220078740157
 20
2.7588908661417322
 30
0
 11
0.9821531102362204
 21
2.7527363779527558
 31
0
  0
LINE
  5
2A2
330
1A
100
AcDbEntity
  8
BLACK
  6
CONTINUOUS
100
AcDbLine
 10
0.9821531102362204
 20
2.7527363779527558
 30
0
 11
0.959635905511811
 21
2.7450927952755904
 31
0
  0
LINE
  5
2A3
330
1A
100
AcDbEntity
  8
BLACK
  6
CONTINUOUS
100
AcDbLine
 10
0.959635905511811
 20
2.7450927952755904
 30
0
 11
0.9376668503937008
 21
2.7359929133858265
 31
0
  0
LINE
  5
2A4
330
1A
100
AcDbEntity
  8
BLACK
  6
CONTINUOUS
100
AcDbLine
 10
0.9376668503937008
 20
2.7359929133858265
 30
0
 11
0.9163399606299213
 21
2.7254756692913387
 31
0
  0
LINE
  5
2A5
330
1A
100
AcDbEntity
  8
BLACK
  6
CONTINUOUS
100
AcDbLine
 10
0.9163399606299213
 20
2.7254756692913387
 30
0
 11
0.8957466141732283
 21
2.7135861023622048
 31
0
  0
LINE
  5
2A6
330
1A
100
AcDbEntity
  8
BLACK
  6
CONTINUOUS
100
AcDbLine
 10
0.8957466141732283
 20
2.7135861023622048
 30
0
 11
0.8759749999999999
 21
2.700375118110236
 31
0
  0
LINE
  5
2A7
330
1A
100
AcDbEntity
  8
BLACK
  6
CONTINUOUS
100
AcDbLine
 10
0.8759749999999999
 20
2.700375118110236
 30
0
 11
0.8571097244094488
 21
2.6858992913385826
 31
0
  0
LINE
  5
2A8
330
1A
100
AcDbEntity
  8
BLACK
  6
CONTINUOUS
100
AcDbLine
 10
0.8571097244094488
 20
2.6858992913385826
 30
0
 11
0.8392316141732283
 21
2.6702205905511809
 31
0
  0
LINE
  5
2A9
330
1A
100
AcDbEntity
  8
BLACK
  6
CONTINUOUS
100
AcDbLine
 10
0.8392316141732283
 20
2.6702205905511809
 30
0
 11
0.8224172047244094
 21
2.6534061811023619
 31
0
  0
LINE
  5
2AA
330
1A
100
AcDbEntity
  8
BLACK
  6
CONTINUOUS
100
AcDbLine
 10
0.8224172047244094
 20
2.6534061811023619
 30
0
 11
0.8067385039370079
 21
2.6355280708661417
 31
0
  0
LINE
  5
2AB
330
1A
100
AcDbEntity
  8
BLACK
  6
CONTINUOUS
100
AcDbLine
 10
0.8067385039370079
 20
2.6355280708661417
 30
0
 11
0.7922626771653544
 21
2.6166627952755905
 31
0
  0
LINE
  5
2AC
330
1A
100
AcDbEntity
  8
BLACK
  6
CONTINUOUS
100
AcDbLine
 10
0.7922626771653544
 20
2.6166627952755905
 30
0
 11
0.7790516929133858
 21
2.5968911811023623
 31
0
  0
LINE
  5
2AD
330
1A
100
AcDbEntity
  8
BLACK
  6
CONTINUOUS
100
AcDbLine
 10
0.7790516929133858
 20
2.5968911811023623
 30
0
 11
0.7671621259842519
 21
2.5762978346456693
 31
0
  0
LINE
  5
2AE
330
1A
100
AcDbEntity
  8
BLACK
  6
CONTINUOUS
100
AcDbLine
 10
0.7671621259842519
 20
2.5762978346456693
 30
0
 11
0.7566448818897638
 21
2.5549709448818896
 31
0
  0
LINE
  5
2AF
330
1A
100
AcDbEntity
  8
BLACK
  6
CONTINUOUS
100
AcDbLine
 10
0.7566448818897638
 20
2.5549709448818896
 30
0
 11
0.747545
 21
2.5330018897637796
 31
0
  0
LINE
  5
2B0
330
1A
100
AcDbEntity
  8
BLACK
  6
CONTINUOUS
100
AcDbLine
 10
0.747545
 20
2.5330018897637796
 30
0
 11
0.7399014173228347
 21
2.5104846850393701
 31
0
  0
LINE
  5
2B1
330
1A
100
AcDbEntity
  8
BLACK
  6
CONTINUOUS
100
AcDbLine
 10
0.7399014173228347
 20
2.5104846850393701
 30
0
 11
0.7337469291338583
 21
2.4875157874015748
 31
0
  0
LINE
  5
2B2
330
1A
100
AcDbEntity
  8
BLACK
  6
CONTINUOUS
100
AcDbLine
 10
0.7337469291338583
 20
2.4875157874015748
 30
0
 11
0.7291078346456693
 21
2.4641935433070867
 31
0
  0
LINE
  5
2B3
330
1A
100
AcDbEntity
  8
BLACK
  6
CONTINUOUS
100
AcDbLine
 10
0.7291078346456693
 20
2.4641935433070867
 30
0
 11
0.7260040551181102
 21
2.4406178346456691
 31
0
  0
LINE
  5
2B4
330
1A
100
AcDbEntity
  8
BLACK
  6
CONTINUOUS
100
AcDbLine
 10
0.7260040551181102
 20
2.4406178346456691
 30
0
 11
0.7244488188976378
 21
2.4168895669291337
 31
0
  0
LINE
  5
2B5
330
1A
100
AcDbEntity
  8
BLACK
  6
CONTINUOUS
100
AcDbLine
 10
0.7244488188976378
 20
2.4168895669291337
 30
0
 11
0.7244488188976378
 21
2.3931104330708659
 31
0
  0
LINE
  5
2B6
330
1A
100
AcDbEntity
  8
BLACK
  6
CONTINUOUS
100
AcDbLine
 10
-0.1512375196850394
 20
2.7727597244094486
 30
0
 11
-0.150704842519685
 21
2.7722270472440944
 31
0
  0
LINE
  5
2B7
330
1A
100
AcDbEntity
  8
BLACK
  6
CONTINUOUS
100
AcDbLine
 10
-0.150704842519685
 20
2.7722270472440944
 30
0
 11
-0.1506299212598425
 21
2.7718503937007872
 31
0
  0
LINE
  5
2B8
330
1A
100
AcDbEntity
  8
BLACK
  6
CONTINUOUS
100
AcDbLine
 10
-0.1506299212598425
 20
2.7718503937007872
 30
0
 11
-0.1506299212598425
 21
2.762992125984252
 31
0
  0
LINE
  5
2B9
330
1A
100
AcDbEntity
  8
BLACK
  6
CONTINUOUS
100
AcDbLine
 10
-0.1506299212598425
 20
2.762992125984252
 30
0
 11
0.2096062992125984
 21
2.762992125984252
 31
0
  0
LINE
  5
2BA
330
1A
100
AcDbEntity
  8
BLACK
  6
CONTINUOUS
100
AcDbLine
 10
0.2096062992125984
 20
2.762992125984252
 30
0
 11
0.2096062992125984
 21
2.7718503937007872
 31
0
  0
LINE
  5
2BB
330
1A
100
AcDbEntity
  8
BLACK
  6
CONTINUOUS
100
AcDbLine
 10
0.2096062992125984
 20
2.7718503937007872
 30
0
 11
0.2096812204724409
 21
2.7722270472440944
 31
0
  0
LINE
  5
2BC
330
1A
100
AcDbEntity
  8
BLACK
  6
CONTINUOUS
100
AcDbLine
 10
0.2096812204724409
 20
2.7722270472440944
 30
0
 11
0.2102138976377953
 21
2.7727597244094486
 31
0
  0
LINE
  5
2BD
330
1A
100
AcDbEntity
  8
BLACK
  6
CONTINUOUS
100
AcDbLine
 10
0.2102138976377953
 20
2.7727597244094486
 30
0
 11
0.2105905511811024
 21
2.7728346456692914
 31
0
  0
LINE
  5
2BE
330
1A
100
AcDbEntity
  8
BLACK
  6
CONTINUOUS
100
AcDbLine
 10
0.2105905511811024
 20
2.7728346456692914
 30
0
 11
0.2893307086614173
 21
2.7728346456692914
 31
0
  0
LINE
  5
2BF
330
1A
100
AcDbEntity
  8
BLACK
  6
CONTINUOUS
100
AcDbLine
 10
0.2893307086614173
 20
2.7728346456692914
 30
0
 11
0.2897073622047244
 21
2.7727597244094486
 31
0
  0
LINE
  5
2C0
330
1A
100
AcDbEntity
  8
BLACK
  6
CONTINUOUS
100
AcDbLine
 10
0.2897073622047244
 20
2.7727597244094486
 30
0
 11
0.2902400393700788
 21
2.7722270472440944
 31
0
  0
LINE
  5
2C1
330
1A
100
AcDbEntity
  8
BLACK
  6
CONTINUOUS
100
AcDbLine
 10
0.2902400393700788
 20
2.7722270472440944
 30
0
 11
0.2903149606299212
 21
2.7718503937007872
 31
0
  0
LINE
  5
2C2
330
1A
100
AcDbEntity
  8
BLACK
  6
CONTINUOUS
100
AcDbLine
 10
0.2903149606299212
 20
2.7718503937007872
 30
0
 11
0.2903149606299212
 21
2.6261811023622048
 31
0
  0
LINE
  5
2C3
330
1A
100
AcDbEntity
  8
BLACK
  6
CONTINUOUS
100
AcDbLine
 10
0.2903149606299212
 20
2.6261811023622048
 30
0
 11
0.2902400393700788
 21
2.6258044488188976
 31
0
  0
LINE
  5
2C4
330
1A
100
AcDbEntity
  8
BLACK
  6
CONTINUOUS
100
AcDbLine
 10
0.2902400393700788
 20
2.6258044488188976
 30
0
 11
0.2897073622047244
 21
2.6252717716535434
 31
0
  0
LINE
  5
2C5
330
1A
100
AcDbEntity
  8
BLACK
  6
CONTINUOUS
100
AcDbLine
 10
0.2897073622047244
 20
2.6252717716535434
 30
0
 11
0.2893307086614173
 21
2.6251968503937007
 31
0
  0
LINE
  5
2C6
330
1A
100
AcDbEntity
  8
BLACK
  6
CONTINUOUS
100
AcDbLine
 10
0.2893307086614173
 20
2.6251968503937007
 30
0
 11
0.2863779527559055
 21
2.6251968503937007
 31
0
  0
LINE
  5
2C7
330
1A
100
AcDbEntity
  8
BLACK
  6
CONTINUOUS
100
AcDbLine
 10
0.2863779527559055
 20
2.6251968503937007
 30
0
 11
0.2863779527559055
 21
2.5631889763779525
 31
0
  0
LINE
  5
2C8
330
1A
100
AcDbEntity
  8
BLACK
  6
CONTINUOUS
100
AcDbLine
 10
0.2863779527559055
 20
2.5631889763779525
 30
0
 11
0.286303031496063
 21
2.5628123228346458
 31
0
  0
LINE
  5
2C9
330
1A
100
AcDbEntity
  8
BLACK
  6
CONTINUOUS
100
AcDbLine
 10
0.286303031496063
 20
2.5628123228346458
 30
0
 11
0.2857703543307086
 21
2.5622796456692911
 31
0
  0
LINE
  5
2CA
330
1A
100
AcDbEntity
  8
BLACK
  6
CONTINUOUS
100
AcDbLine
 10
0.2857703543307086
 20
2.5622796456692911
 30
0
 11
0.2853937007874016
 21
2.5622047244094488
 31
0
  0
LINE
  5
2CB
330
1A
100
AcDbEntity
  8
BLACK
  6
CONTINUOUS
100
AcDbLine
 10
0.2853937007874016
 20
2.5622047244094488
 30
0
 11
0.2096062992125984
 21
2.5622047244094488
 31
0
  0
LINE
  5
2CC
330
1A
100
AcDbEntity
  8
BLACK
  6
CONTINUOUS
100
AcDbLine
 10
0.2096062992125984
 20
2.5622047244094488
 30
0
 11
0.2096062992125984
 21
2.5198818897637794
 31
0
  0
LINE
  5
2CD
330
1A
100
AcDbEntity
  8
BLACK
  6
CONTINUOUS
100
AcDbLine
 10
0.2096062992125984
 20
2.5198818897637794
 30
0
 11
0.2095313779527559
 21
2.5195052362204722
 31
0
  0
LINE
  5
2CE
330
1A
100
AcDbEntity
  8
BLACK
  6
CONTINUOUS
100
AcDbLine
 10
0.2095313779527559
 20
2.5195052362204722
 30
0
 11
0.2089987007874016
 21
2.518972559055118
 31
0
  0
LINE
  5
2CF
330
1A
100
AcDbEntity
  8
BLACK
  6
CONTINUOUS
100
AcDbLine
 10
0.2089987007874016
 20
2.518972559055118
 30
0
 11
0.2086220472440945
 21
2.5188976377952756
 31
0
  0
LINE
  5
2D0
330
1A
100
AcDbEntity
  8
BLACK
  6
CONTINUOUS
100
AcDbLine
 10
0.2086220472440945
 20
2.5188976377952756
 30
0
 11
-0.1496456692913386
 21
2.5188976377952756
 31
0
  0
LINE
  5
2D1
330
1A
100
AcDbEntity
  8
BLACK
  6
CONTINUOUS
100
AcDbLine
 10
-0.1496456692913386
 20
2.5188976377952756
 30
0
 11
-0.1500223228346457
 21
2.518972559055118
 31
0
  0
LINE
  5
2D2
330
1A
100
AcDbEntity
  8
BLACK
  6
CONTINUOUS
100
AcDbLine
 10
-0.1500223228346457
 20
2.518972559055118
 30
0
 11
-0.150555
 21
2.5195052362204722
 31
0
  0
LINE
  5
2D3
330
1A
100
AcDbEntity
  8
BLACK
  6
CONTINUOUS
100
AcDbLine
 10
-0.150555
 20
2.5195052362204722
 30
0
 11
-0.1506299212598425
 21
2.5198818897637794
 31
0
  0
LINE
  5
2D4
330
1A
100
AcDbEntity
  8
BLACK
  6
CONTINUOUS
100
AcDbLine
 10
-0.1506299212598425
 20
2.5198818897637794
 30
0
 11
-0.1506299212598425
 21
2.5622047244094488
 31
0
  0
LINE
  5
2D5
330
1A
100
AcDbEntity
  8
BLACK
  6
CONTINUOUS
100
AcDbLine
 10
-0.1506299212598425
 20
2.5622047244094488
 30
0
 11
-0.2264173228346457
 21
2.5622047244094488
 31
0
  0
LINE
  5
2D6
330
1A
100
AcDbEntity
  8
BLACK
  6
CONTINUOUS
100
AcDbLine
 10
-0.2264173228346457
 20
2.5622047244094488
 30
0
 11
-0.2267939763779528
 21
2.5622796456692911
 31
0
  0
LINE
  5
2D7
330
1A
100
AcDbEntity
  8
BLACK
  6
CONTINUOUS
100
AcDbLine
 10
-0.2267939763779528
 20
2.5622796456692911
 30
0
 11
-0.2273266535433071
 21
2.5628123228346458
 31
0
  0
LINE
  5
2D8
330
1A
100
AcDbEntity
  8
BLACK
  6
CONTINUOUS
100
AcDbLine
 10
-0.2273266535433071
 20
2.5628123228346458
 30
0
 11
-0.2274015748031496
 21
2.5631889763779525
 31
0
  0
LINE
  5
2D9
330
1A
100
AcDbEntity
  8
BLACK
  6
CONTINUOUS
100
AcDbLine
 10
-0.2274015748031496
 20
2.5631889763779525
 30
0
 11
-0.2274015748031496
 21
2.6251968503937007
 31
0
  0
LINE
  5
2DA
330
1A
100
AcDbEntity
  8
BLACK
  6
CONTINUOUS
100
AcDbLine
 10
-0.2274015748031496
 20
2.6251968503937007
 30
0
 11
-0.2303543307086614
 21
2.6251968503937007
 31
0
  0
LINE
  5
2DB
330
1A
100
AcDbEntity
  8
BLACK
  6
CONTINUOUS
100
AcDbLine
 10
-0.2303543307086614
 20
2.6251968503937007
 30
0
 11
-0.2307309842519685
 21
2.6252717716535434
 31
0
  0
LINE
  5
2DC
330
1A
100
AcDbEntity
  8
BLACK
  6
CONTINUOUS
100
AcDbLine
 10
-0.2307309842519685
 20
2.6252717716535434
 30
0
 11
-0.2312636614173228
 21
2.6258044488188976
 31
0
  0
LINE
  5
2DD
330
1A
100
AcDbEntity
  8
BLACK
  6
CONTINUOUS
100
AcDbLine
 10
-0.2312636614173228
 20
2.6258044488188976
 30
0
 11
-0.2313385826771653
 21
2.6261811023622048
 31
0
  0
LINE
  5
2DE
330
1A
100
AcDbEntity
  8
BLACK
  6
CONTINUOUS
100
AcDbLine
 10
-0.2313385826771653
 20
2.6261811023622048
 30
0
 11
-0.2313385826771653
 21
2.7718503937007872
 31
0
  0
LINE
  5
2DF
330
1A
100
AcDbEntity
  8
BLACK
  6
CONTINUOUS
100
AcDbLine
 10
-0.2313385826771653
 20
2.7718503937007872
 30
0
 11
-0.2312636614173228
 21
2.7722270472440944
 31
0
  0
LINE
  5
2E0
330
1A
100
AcDbEntity
  8
BLACK
  6
CONTINUOUS
100
AcDbLine
 10
-0.2312636614173228
 20
2.7722270472440944
 30
0
 11
-0.2307309842519685
 21
2.7727597244094486
 31
0
  0
LINE
  5
2E1
330
1A
100
AcDbEntity
  8
BLACK
  6
CONTINUOUS
100
AcDbLine
 10
-0.2307309842519685
 20
2.7727597244094486
 30
0
 11
-0.2303543307086614
 21
2.7728346456692914
 31
0
  0
LINE
  5
2E2
330
1A
100
AcDbEntity
  8
BLACK
  6
CONTINUOUS
100
AcDbLine
 10
-0.2303543307086614
 20
2.7728346456692914
 30
0
 11
-0.1516141732283464
 21
2.7728346456692914
 31
0
  0
LINE
  5
2E3
330
1A
100
AcDbEntity
  8
BLACK
  6
CONTINUOUS
100
AcDbLine
 10
-0.1516141732283464
 20
2.7728346456692914
 30
0
 11
-0.1512375196850394
 21
2.7727597244094486
 31
0
  0
LINE
  5
2E4
330
1A
100
AcDbEntity
  8
BLACK
  6
CONTINUOUS
100
AcDbLine
 10
-0.2293700787401575
 20
2.7708661417322835
 30
0
 11
-0.2293700787401575
 21
2.6271653543307085
 31
0
  0
LINE
  5
2E5
330
1A
100
AcDbEntity
  8
BLACK
  6
CONTINUOUS
100
AcDbLine
 10
-0.2293700787401575
 20
2.6271653543307085
 30
0
 11
-0.2264173228346457
 21
2.6271653543307085
 31
0
  0
LINE
  5
2E6
330
1A
100
AcDbEntity
  8
BLACK
  6
CONTINUOUS
100
AcDbLine
 10
-0.2264173228346457
 20
2.6271653543307085
 30
0
 11
-0.2260406692913386
 21
2.6270904330708662
 31
0
  0
LINE
  5
2E7
330
1A
100
AcDbEntity
  8
BLACK
  6
CONTINUOUS
100
AcDbLine
 10
-0.2260406692913386
 20
2.6270904330708662
 30
0
 11
-0.2255079921259842
 21
2.6265577559055115
 31
0
  0
LINE
  5
2E8
330
1A
100
AcDbEntity
  8
BLACK
  6
CONTINUOUS
100
AcDbLine
 10
-0.2255079921259842
 20
2.6265577559055115
 30
0
 11
-0.2254330708661417
 21
2.6261811023622048
 31
0
  0
LINE
  5
2E9
330
1A
100
AcDbEntity
  8
BLACK
  6
CONTINUOUS
100
AcDbLine
 10
-0.2254330708661417
 20
2.6261811023622048
 30
0
 11
-0.2254330708661417
 21
2.5641732283464567
 31
0
  0
LINE
  5
2EA
330
1A
100
AcDbEntity
  8
BLACK
  6
CONTINUOUS
100
AcDbLine
 10
-0.2254330708661417
 20
2.5641732283464567
 30
0
 11
-0.1496456692913386
 21
2.5641732283464567
 31
0
  0
LINE
  5
2EB
330
1A
100
AcDbEntity
  8
BLACK
  6
CONTINUOUS
100
AcDbLine
 10
-0.1496456692913386
 20
2.5641732283464567
 30
0
 11
-0.1492690157480315
 21
2.5640983070866139
 31
0
  0
LINE
  5
2EC
330
1A
100
AcDbEntity
  8
BLACK
  6
CONTINUOUS
100
AcDbLine
 10
-0.1492690157480315
 20
2.5640983070866139
 30
0
 11
-0.1487363385826772
 21
2.5635656299212597
 31
0
  0
LINE
  5
2ED
330
1A
100
AcDbEntity
  8
BLACK
  6
CONTINUOUS
100
AcDbLine
 10
-0.1487363385826772
 20
2.5635656299212597
 30
0
 11
-0.1486614173228346
 21
2.5631889763779525
 31
0
  0
LINE
  5
2EE
330
1A
100
AcDbEntity
  8
BLACK
  6
CONTINUOUS
100
AcDbLine
 10
-0.1486614173228346
 20
2.5631889763779525
 30
0
 11
-0.1486614173228346
 21
2.5208661417322835
 31
0
  0
LINE
  5
2EF
330
1A
100
AcDbEntity
  8
BLACK
  6
CONTINUOUS
100
AcDbLine
 10
-0.1486614173228346
 20
2.5208661417322835
 30
0
 11
0.2076377952755905
 21
2.5208661417322835
 31
0
  0
LINE
  5
2F0
330
1A
100
AcDbEntity
  8
BLACK
  6
CONTINUOUS
100
AcDbLine
 10
0.2076377952755905
 20
2.5208661417322835
 30
0
 11
0.2076377952755905
 21
2.5631889763779525
 31
0
  0
LINE
  5
2F1
330
1A
100
AcDbEntity
  8
BLACK
  6
CONTINUOUS
100
AcDbLine
 10
0.2076377952755905
 20
2.5631889763779525
 30
0
 11
0.2077127165354331
 21
2.5635656299212597
 31
0
  0
LINE
  5
2F2
330
1A
100
AcDbEntity
  8
BLACK
  6
CONTINUOUS
100
AcDbLine
 10
0.2077127165354331
 20
2.5635656299212597
 30
0
 11
0.2082453937007874
 21
2.5640983070866139
 31
0
  0
LINE
  5
2F3
330
1A
100
AcDbEntity
  8
BLACK
  6
CONTINUOUS
100
AcDbLine
 10
0.2082453937007874
 20
2.5640983070866139
 30
0
 11
0.2086220472440945
 21
2.5641732283464567
 31
0
  0
LINE
  5
2F4
330
1A
100
AcDbEntity
  8
BLACK
  6
CONTINUOUS
100
AcDbLine
 10
0.2086220472440945
 20
2.5641732283464567
 30
0
 11
0.2844094488188976
 21
2.5641732283464567
 31
0
  0
LINE
  5
2F5
330
1A
100
AcDbEntity
  8
BLACK
  6
CONTINUOUS
100
AcDbLine
 10
0.2844094488188976
 20
2.5641732283464567
 30
0
 11
0.2844094488188976
 21
2.6261811023622048
 31
0
  0
LINE
  5
2F6
330
1A
100
AcDbEntity
  8
BLACK
  6
CONTINUOUS
100
AcDbLine
 10
0.2844094488188976
 20
2.6261811023622048
 30
0
 11
0.2844843700787402
 21
2.6265577559055115
 31
0
  0
LINE
  5
2F7
330
1A
100
AcDbEntity
  8
BLACK
  6
CONTINUOUS
100
AcDbLine
 10
0.2844843700787402
 20
2.6265577559055115
 30
0
 11
0.2850170472440945
 21
2.6270904330708662
 31
0
  0
LINE
  5
2F8
330
1A
100
AcDbEntity
  8
BLACK
  6
CONTINUOUS
100
AcDbLine
 10
0.2850170472440945
 20
2.6270904330708662
 30
0
 11
0.2853937007874016
 21
2.6271653543307085
 31
0
  0
LINE
  5
2F9
330
1A
100
AcDbEntity
  8
BLACK
  6
CONTINUOUS
100
AcDbLine
 10
0.2853937007874016
 20
2.6271653543307085
 30
0
 11
0.2883464566929134
 21
2.6271653543307085
 31
0
  0
LINE
  5
2FA
330
1A
100
AcDbEntity
  8
BLACK
  6
CONTINUOUS
100
AcDbLine
 10
0.2883464566929134
 20
2.6271653543307085
 30
0
 11
0.2883464566929134
 21
2.7708661417322835
 31
0
  0
LINE
  5
2FB
330
1A
100
AcDbEntity
  8
BLACK
  6
CONTINUOUS
100
AcDbLine
 10
0.2883464566929134
 20
2.7708661417322835
 30
0
 11
0.2115748031496063
 21
2.7708661417322835
 31
0
  0
LINE
  5
2FC
330
1A
100
AcDbEntity
  8
BLACK
  6
CONTINUOUS
100
AcDbLine
 10
0.2115748031496063
 20
2.7708661417322835
 30
0
 11
0.2115748031496063
 21
2.7620078740157479
 31
0
  0
LINE
  5
2FD
330
1A
100
AcDbEntity
  8
BLACK
  6
CONTINUOUS
100
AcDbLine
 10
0.2115748031496063
 20
2.7620078740157479
 30
0
 11
0.2114998818897638
 21
2.7616312204724407
 31
0
  0
LINE
  5
2FE
330
1A
100
AcDbEntity
  8
BLACK
  6
CONTINUOUS
100
AcDbLine
 10
0.2114998818897638
 20
2.7616312204724407
 30
0
 11
0.2109672047244094
 21
2.7610985433070865
 31
0
  0
LINE
  5
2FF
330
1A
100
AcDbEntity
  8
BLACK
  6
CONTINUOUS
100
AcDbLine
 10
0.2109672047244094
 20
2.7610985433070865
 30
0
 11
0.2105905511811024
 21
2.7610236220472442
 31
0
  0
LINE
  5
300
330
1A
100
AcDbEntity
  8
BLACK
  6
CONTINUOUS
100
AcDbLine
 10
0.2105905511811024
 20
2.7610236220472442
 30
0
 11
-0.1516141732283464
 21
2.7610236220472442
 31
0
  0
LINE
  5
301
330
1A
100
AcDbEntity
  8
BLACK
  6
CONTINUOUS
100
AcDbLine
 10
-0.1516141732283464
 20
2.7610236220472442
 30
0
 11
-0.1519908267716535
 21
2.7610985433070865
 31
0
  0
LINE
  5
302
330
1A
100
AcDbEntity
  8
BLACK
  6
CONTINUOUS
100
AcDbLine
 10
-0.1519908267716535
 20
2.7610985433070865
 30
0
 11
-0.1525235039370079
 21
2.7616312204724407
 31
0
  0
LINE
  5
303
330
1A
100
AcDbEntity
  8
BLACK
  6
CONTINUOUS
100
AcDbLine
 10
-0.1525235039370079
 20
2.7616312204724407
 30
0
 11
-0.1525984251968504
 21
2.7620078740157479
 31
0
  0
LINE
  5
304
330
1A
100
AcDbEntity
  8
BLACK
  6
CONTINUOUS
100
AcDbLine
 10
-0.1525984251968504
 20
2.7620078740157479
 30
0
 11
-0.1525984251968504
 21
2.7708661417322835
 31
0
  0
LINE
  5
305
330
1A
100
AcDbEntity
  8
BLACK
  6
CONTINUOUS
100
AcDbLine
 10
-0.1525984251968504
 20
2.7708661417322835
 30
0
 11
-0.2293700787401575
 21
2.7708661417322835
 31
0
  0
LINE
  5
306
330
1A
100
AcDbEntity
  8
BLACK
  6
CONTINUOUS
100
AcDbLine
 10
-1.7176518503937008
 20
2.7360146456692913
 30
0
 11
-1.710160590551181
 21
2.7335805511811024
 31
0
  0
LINE
  5
307
330
1A
100
AcDbEntity
  8
BLACK
  6
CONTINUOUS
100
AcDbLine
 10
-1.710160590551181
 20
2.7335805511811024
 30
0
 11
-1.7031422834645669
 21
2.730004566929134
 31
0
  0
LINE
  5
308
330
1A
100
AcDbEntity
  8
BLACK
  6
CONTINUOUS
100
AcDbLine
 10
-1.7031422834645669
 20
2.730004566929134
 30
0
 11
-1.6967698425196851
 21
2.7253747244094488
 31
0
  0
LINE
  5
309
330
1A
100
AcDbEntity
  8
BLACK
  6
CONTINUOUS
100
AcDbLine
 10
-1.6967698425196851
 20
2.7253747244094488
 30
0
 11
-1.6912000787401575
 21
2.7198049606299213
 31
0
  0
LINE
  5
30A
330
1A
100
AcDbEntity
  8
BLACK
  6
CONTINUOUS
100
AcDbLine
 10
-1.6912000787401575
 20
2.7198049606299213
 30
0
 11
-1.6865702362204724
 21
2.7134325196850395
 31
0
  0
LINE
  5
30B
330
1A
100
AcDbEntity
  8
BLACK
  6
CONTINUOUS
100
AcDbLine
 10
-1.6865702362204724
 20
2.7134325196850395
 30
0
 11
-1.6829942519685039
 21
2.7064142125984252
 31
0
  0
LINE
  5
30C
330
1A
100
AcDbEntity
  8
BLACK
  6
CONTINUOUS
100
AcDbLine
 10
-1.6829942519685039
 20
2.7064142125984252
 30
0
 11
-1.6805601574803148
 21
2.6989229527559053
 31
0
  0
LINE
  5
30D
330
1A
100
AcDbEntity
  8
BLACK
  6
CONTINUOUS
100
AcDbLine
 10
-1.6805601574803148
 20
2.6989229527559053
 30
0
 11
-1.6793279527559055
 21
2.6911431102362204
 31
0
  0
LINE
  5
30E
330
1A
100
AcDbEntity
  8
BLACK
  6
CONTINUOUS
100
AcDbLine
 10
-1.6793279527559055
 20
2.6911431102362204
 30
0
 11
-1.6793279527559055
 21
2.6832663385826772
 31
0
  0
LINE
  5
30F
330
1A
100
AcDbEntity
  8
BLACK
  6
CONTINUOUS
100
AcDbLine
 10
-1.6793279527559055
 20
2.6832663385826772
 30
0
 11
-1.6805601574803148
 21
2.6754864960629923
 31
0
  0
LINE
  5
310
330
1A
100
AcDbEntity
  8
BLACK
  6
CONTINUOUS
100
AcDbLine
 10
-1.6805601574803148
 20
2.6754864960629923
 30
0
 11
-1.6829942519685039
 21
2.6679952362204724
 31
0
  0
LINE
  5
311
330
1A
100
AcDbEntity
  8
BLACK
  6
CONTINUOUS
100
AcDbLine
 10
-1.6829942519685039
 20
2.6679952362204724
 30
0
 11
-1.6865702362204724
 21
2.6609769291338581
 31
0
  0
LINE
  5
312
330
1A
100
AcDbEntity
  8
BLACK
  6
CONTINUOUS
100
AcDbLine
 10
-1.6865702362204724
 20
2.6609769291338581
 30
0
 11
-1.6912000787401575
 21
2.6546044881889763
 31
0
  0
LINE
  5
313
330
1A
100
AcDbEntity
  8
BLACK
  6
CONTINUOUS
100
AcDbLine
 10
-1.6912000787401575
 20
2.6546044881889763
 30
0
 11
-1.6967698425196851
 21
2.6490347244094488
 31
0
  0
LINE
  5
314
330
1A
100
AcDbEntity
  8
BLACK
  6
CONTINUOUS
100
AcDbLine
 10
-1.6967698425196851
 20
2.6490347244094488
 30
0
 11
-1.7031422834645669
 21
2.6444048818897636
 31
0
  0
LINE
  5
315
330
1A
100
AcDbEntity
  8
BLACK
  6
CONTINUOUS
100
AcDbLine
 10
-1.7031422834645669
 20
2.6444048818897636
 30
0
 11
-1.710160590551181
 21
2.6408288976377952
 31
0
  0
LINE
  5
316
330
1A
100
AcDbEntity
  8
BLACK
  6
CONTINUOUS
100
AcDbLine
 10
-1.710160590551181
 20
2.6408288976377952
 30
0
 11
-1.7176518503937008
 21
2.6383948031496063
 31
0
  0
LINE
  5
317
330
1A
100
AcDbEntity
  8
BLACK
  6
CONTINUOUS
100
AcDbLine
 10
-1.7176518503937008
 20
2.6383948031496063
 30
0
 11
-1.7254316929133857
 21
2.637162598425197
 31
0
  0
LINE
  5
318
330
1A
100
AcDbEntity
  8
BLACK
  6
CONTINUOUS
100
AcDbLine
 10
-1.7254316929133857
 20
2.637162598425197
 30
0
 11
-1.733308464566929
 21
2.637162598425197
 31
0
  0
LINE
  5
319
330
1A
100
AcDbEntity
  8
BLACK
  6
CONTINUOUS
100
AcDbLine
 10
-1.733308464566929
 20
2.637162598425197
 30
0
 11
-1.7410883070866141
 21
2.6383948031496063
 31
0
  0
LINE
  5
31A
330
1A
100
AcDbEntity
  8
BLACK
  6
CONTINUOUS
100
AcDbLine
 10
-1.7410883070866141
 20
2.6383948031496063
 30
0
 11
-1.7485795669291337
 21
2.6408288976377952
 31
0
  0
LINE
  5
31B
330
1A
100
AcDbEntity
  8
BLACK
  6
CONTINUOUS
100
AcDbLine
 10
-1.7485795669291337
 20
2.6408288976377952
 30
0
 11
-1.7555978740157481
 21
2.6444048818897636
 31
0
  0
LINE
  5
31C
330
1A
100
AcDbEntity
  8
BLACK
  6
CONTINUOUS
100
AcDbLine
 10
-1.7555978740157481
 20
2.6444048818897636
 30
0
 11
-1.7619703149606298
 21
2.6490347244094488
 31
0
  0
LINE
  5
31D
330
1A
100
AcDbEntity
  8
BLACK
  6
CONTINUOUS
100
AcDbLine
 10
-1.7619703149606298
 20
2.6490347244094488
 30
0
 11
-1.7675400787401574
 21
2.6546044881889763
 31
0
  0
LINE
  5
31E
330
1A
100
AcDbEntity
  8
BLACK
  6
CONTINUOUS
100
AcDbLine
 10
-1.7675400787401574
 20
2.6546044881889763
 30
0
 11
-1.7721699212598425
 21
2.6609769291338581
 31
0
  0
LINE
  5
31F
330
1A
100
AcDbEntity
  8
BLACK
  6
CONTINUOUS
100
AcDbLine
 10
-1.7721699212598425
 20
2.6609769291338581
 30
0
 11
-1.775745905511811
 21
2.6679952362204724
 31
0
  0
LINE
  5
320
330
1A
100
AcDbEntity
  8
BLACK
  6
CONTINUOUS
100
AcDbLine
 10
-1.775745905511811
 20
2.6679952362204724
 30
0
 11
-1.7781799999999999
 21
2.6754864960629923
 31
0
  0
LINE
  5
321
330
1A
100
AcDbEntity
  8
BLACK
  6
CONTINUOUS
100
AcDbLine
 10
-1.7781799999999999
 20
2.6754864960629923
 30
0
 11
-1.7794122047244094
 21
2.6832663385826772
 31
0
  0
LINE
  5
322
330
1A
100
AcDbEntity
  8
BLACK
  6
CONTINUOUS
100
AcDbLine
 10
-1.7794122047244094
 20
2.6832663385826772
 30
0
 11
-1.7794122047244094
 21
2.6910003937007874
 31
0
  0
LINE
  5
323
330
1A
100
AcDbEntity
  8
BLACK
  6
CONTINUOUS
100
AcDbLine
 10
-1.7794122047244094
 20
2.6910003937007874
 30
0
 11
-1.7794122047244094
 21
2.6911431102362204
 31
0
  0
LINE
  5
324
330
1A
100
AcDbEntity
  8
BLACK
  6
CONTINUOUS
100
AcDbLine
 10
-1.7794122047244094
 20
2.6911431102362204
 30
0
 11
-1.7781799999999999
 21
2.6989229527559053
 31
0
  0
LINE
  5
325
330
1A
100
AcDbEntity
  8
BLACK
  6
CONTINUOUS
100
AcDbLine
 10
-1.7781799999999999
 20
2.6989229527559053
 30
0
 11
-1.775745905511811
 21
2.7064142125984252
 31
0
  0
LINE
  5
326
330
1A
100
AcDbEntity
  8
BLACK
  6
CONTINUOUS
100
AcDbLine
 10
-1.775745905511811
 20
2.7064142125984252
 30
0
 11
-1.7721699212598425
 21
2.7134325196850395
 31
0
  0
LINE
  5
327
330
1A
100
AcDbEntity
  8
BLACK
  6
CONTINUOUS
100
AcDbLine
 10
-1.7721699212598425
 20
2.7134325196850395
 30
0
 11
-1.7675400787401574
 21
2.7198049606299213
 31
0
  0
LINE
  5
328
330
1A
100
AcDbEntity
  8
BLACK
  6
CONTINUOUS
100
AcDbLine
 10
-1.7675400787401574
 20
2.7198049606299213
 30
0
 11
-1.7619703149606298
 21
2.7253747244094488
 31
0
  0
LINE
  5
329
330
1A
100
AcDbEntity
  8
BLACK
  6
CONTINUOUS
100
AcDbLine
 10
-1.7619703149606298
 20
2.7253747244094488
 30
0
 11
-1.7555978740157481
 21
2.730004566929134
 31
0
  0
LINE
  5
32A
330
1A
100
AcDbEntity
  8
BLACK
  6
CONTINUOUS
100
AcDbLine
 10
-1.7555978740157481
 20
2.730004566929134
 30
0
 11
-1.7485795669291337
 21
2.7335805511811024
 31
0
  0
LINE
  5
32B
330
1A
100
AcDbEntity
  8
BLACK
  6
CONTINUOUS
100
AcDbLine
 10
-1.7485795669291337
 20
2.7335805511811024
 30
0
 11
-1.7410883070866141
 21
2.7360146456692913
 31
0
  0
LINE
  5
32C
330
1A
100
AcDbEntity
  8
BLACK
  6
CONTINUOUS
100
AcDbLine
 10
-1.7410883070866141
 20
2.7360146456692913
 30
0
 11
-1.733308464566929
 21
2.7372468503937006
 31
0
  0
LINE
  5
32D
330
1A
100
AcDbEntity
  8
BLACK
  6
CONTINUOUS
100
AcDbLine
 10
-1.733308464566929
 20
2.7372468503937006
 30
0
 11
-1.7254316929133857
 21
2.7372468503937006
 31
0
  0
LINE
  5
32E
330
1A
100
AcDbEntity
  8
BLACK
  6
CONTINUOUS
100
AcDbLine
 10
-1.7254316929133857
 20
2.7372468503937006
 30
0
 11
-1.7176518503937008
 21
2.7360146456692913
 31
0
  0
LINE
  5
32F
330
1A
100
AcDbEntity
  8
BLACK
  6
CONTINUOUS
100
AcDbLine
 10
-1.7775984251968504
 20
2.6834090551181102
 30
0
 11
-1.7764108661417322
 21
2.6759112204724409
 31
0
  0
LINE
  5
330
330
1A
100
AcDbEntity
  8
BLACK
  6
CONTINUOUS
100
AcDbLine
 10
-1.7764108661417322
 20
2.6759112204724409
 30
0
 11
-1.7740650393700788
 21
2.6686914566929132
 31
0
  0
LINE
  5
331
330
1A
100
AcDbEntity
  8
BLACK
  6
CONTINUOUS
100
AcDbLine
 10
-1.7740650393700788
 20
2.6686914566929132
 30
0
 11
-1.7706186614173227
 21
2.6619275590551181
 31
0
  0
LINE
  5
332
330
1A
100
AcDbEntity
  8
BLACK
  6
CONTINUOUS
100
AcDbLine
 10
-1.7706186614173227
 20
2.6619275590551181
 30
0
 11
-1.7661566141732283
 21
2.6557860629921257
 31
0
  0
LINE
  5
333
330
1A
100
AcDbEntity
  8
BLACK
  6
CONTINUOUS
100
AcDbLine
 10
-1.7661566141732283
 20
2.6557860629921257
 30
0
 11
-1.7607887401574802
 21
2.6504181889763778
 31
0
  0
LINE
  5
334
330
1A
100
AcDbEntity
  8
BLACK
  6
CONTINUOUS
100
AcDbLine
 10
-1.7607887401574802
 20
2.6504181889763778
 30
0
 11
-1.7546472440944882
 21
2.6459561417322832
 31
0
  0
LINE
  5
335
330
1A
100
AcDbEntity
  8
BLACK
  6
CONTINUOUS
100
AcDbLine
 10
-1.7546472440944882
 20
2.6459561417322832
 30
0
 11
-1.747883346456693
 21
2.6425097637795276
 31
0
  0
LINE
  5
336
330
1A
100
AcDbEntity
  8
BLACK
  6
CONTINUOUS
100
AcDbLine
 10
-1.747883346456693
 20
2.6425097637795276
 30
0
 11
-1.7406635826771653
 21
2.6401639370078738
 31
0
  0
LINE
  5
337
330
1A
100
AcDbEntity
  8
BLACK
  6
CONTINUOUS
100
AcDbLine
 10
-1.7406635826771653
 20
2.6401639370078738
 30
0
 11
-1.7331657480314959
 21
2.6389763779527557
 31
0
  0
LINE
  5
338
330
1A
100
AcDbEntity
  8
BLACK
  6
CONTINUOUS
100
AcDbLine
 10
-1.7331657480314959
 20
2.6389763779527557
 30
0
 11
-1.7255744094488188
 21
2.6389763779527557
 31
0
  0
LINE
  5
339
330
1A
100
AcDbEntity
  8
BLACK
  6
CONTINUOUS
100
AcDbLine
 10
-1.7255744094488188
 20
2.6389763779527557
 30
0
 11
-1.7180765748031495
 21
2.6401639370078738
 31
0
  0
LINE
  5
33A
330
1A
100
AcDbEntity
  8
BLACK
  6
CONTINUOUS
100
AcDbLine
 10
-1.7180765748031495
 20
2.6401639370078738
 30
0
 11
-1.710856811023622
 21
2.6425097637795276
 31
0
  0
LINE
  5
33B
330
1A
100
AcDbEntity
  8
BLACK
  6
CONTINUOUS
100
AcDbLine
 10
-1.710856811023622
 20
2.6425097637795276
 30
0
 11
-1.7040929133858267
 21
2.6459561417322832
 31
0
  0
LINE
  5
33C
330
1A
100
AcDbEntity
  8
BLACK
  6
CONTINUOUS
100
AcDbLine
 10
-1.7040929133858267
 20
2.6459561417322832
 30
0
 11
-1.6979514173228345
 21
2.6504181889763778
 31
0
  0
LINE
  5
33D
330
1A
100
AcDbEntity
  8
BLACK
  6
CONTINUOUS
100
AcDbLine
 10
-1.6979514173228345
 20
2.6504181889763778
 30
0
 11
-1.6925835433070866
 21
2.6557860629921257
 31
0
  0
LINE
  5
33E
330
1A
100
AcDbEntity
  8
BLACK
  6
CONTINUOUS
100
AcDbLine
 10
-1.6925835433070866
 20
2.6557860629921257
 30
0
 11
-1.688121496062992
 21
2.6619275590551181
 31
0
  0
LINE
  5
33F
330
1A
100
AcDbEntity
  8
BLACK
  6
CONTINUOUS
100
AcDbLine
 10
-1.688121496062992
 20
2.6619275590551181
 30
0
 11
-1.6846751181102362
 21
2.6686914566929132
 31
0
  0
LINE
  5
340
330
1A
100
AcDbEntity
  8
BLACK
  6
CONTINUOUS
100
AcDbLine
 10
-1.6846751181102362
 20
2.6686914566929132
 30
0
 11
-1.6823292913385826
 21
2.6759112204724409
 31
0
  0
LINE
  5
341
330
1A
100
AcDbEntity
  8
BLACK
  6
CONTINUOUS
100
AcDbLine
 10
-1.6823292913385826
 20
2.6759112204724409
 30
0
 11
-1.6811417322834645
 21
2.6834090551181102
 31
0
  0
LINE
  5
342
330
1A
100
AcDbEntity
  8
BLACK
  6
CONTINUOUS
100
AcDbLine
 10
-1.6811417322834645
 20
2.6834090551181102
 30
0
 11
-1.6811417322834645
 21
2.6910003937007874
 31
0
  0
LINE
  5
343
330
1A
100
AcDbEntity
  8
BLACK
  6
CONTINUOUS
100
AcDbLine
 10
-1.6811417322834645
 20
2.6910003937007874
 30
0
 11
-1.6823292913385826
 21
2.6984982283464567
 31
0
  0
LINE
  5
344
330
1A
100
AcDbEntity
  8
BLACK
  6
CONTINUOUS
100
AcDbLine
 10
-1.6823292913385826
 20
2.6984982283464567
 30
0
 11
-1.6846751181102362
 21
2.7057179921259844
 31
0
  0
LINE
  5
345
330
1A
100
AcDbEntity
  8
BLACK
  6
CONTINUOUS
100
AcDbLine
 10
-1.6846751181102362
 20
2.7057179921259844
 30
0
 11
-1.688121496062992
 21
2.7124818897637795
 31
0
  0
LINE
  5
346
330
1A
100
AcDbEntity
  8
BLACK
  6
CONTINUOUS
100
AcDbLine
 10
-1.688121496062992
 20
2.7124818897637795
 30
0
 11
-1.6925835433070866
 21
2.7186233858267714
 31
0
  0
LINE
  5
347
330
1A
100
AcDbEntity
  8
BLACK
  6
CONTINUOUS
100
AcDbLine
 10
-1.6925835433070866
 20
2.7186233858267714
 30
0
 11
-1.6979514173228345
 21
2.7239912598425198
 31
0
  0
LINE
  5
348
330
1A
100
AcDbEntity
  8
BLACK
  6
CONTINUOUS
100
AcDbLine
 10
-1.6979514173228345
 20
2.7239912598425198
 30
0
 11
-1.7040929133858267
 21
2.7284533070866139
 31
0
  0
LINE
  5
349
330
1A
100
AcDbEntity
  8
BLACK
  6
CONTINUOUS
100
AcDbLine
 10
-1.7040929133858267
 20
2.7284533070866139
 30
0
 11
-1.710856811023622
 21
2.73189968503937
 31
0
  0
LINE
  5
34A
330
1A
100
AcDbEntity
  8
BLACK
  6
CONTINUOUS
100
AcDbLine
 10
-1.710856811023622
 20
2.73189968503937
 30
0
 11
-1.7180765748031495
 21
2.7342455118110234
 31
0
  0
LINE
  5
34B
330
1A
100
AcDbEntity
  8
BLACK
  6
CONTINUOUS
100
AcDbLine
 10
-1.7180765748031495
 20
2.7342455118110234
 30
0
 11
-1.7255744094488188
 21
2.7354330708661418
 31
0
  0
LINE
  5
34C
330
1A
100
AcDbEntity
  8
BLACK
  6
CONTINUOUS
100
AcDbLine
 10
-1.7255744094488188
 20
2.7354330708661418
 30
0
 11
-1.7331657480314959
 21
2.7354330708661418
 31
0
  0
LINE
  5
34D
330
1A
100
AcDbEntity
  8
BLACK
  6
CONTINUOUS
100
AcDbLine
 10
-1.7331657480314959
 20
2.7354330708661418
 30
0
 11
-1.7406635826771653
 21
2.7342455118110234
 31
0
  0
LINE
  5
34E
330
1A
100
AcDbEntity
  8
BLACK
  6
CONTINUOUS
100
AcDbLine
 10
-1.7406635826771653
 20
2.7342455118110234
 30
0
 11
-1.747883346456693
 21
2.73189968503937
 31
0
  0
LINE
  5
34F
330
1A
100
AcDbEntity
  8
BLACK
  6
CONTINUOUS
100
AcDbLine
 10
-1.747883346456693
 20
2.73189968503937
 30
0
 11
-1.7546472440944882
 21
2.7284533070866139
 31
0
  0
LINE
  5
350
330
1A
100
AcDbEntity
  8
BLACK
  6
CONTINUOUS
100
AcDbLine
 10
-1.7546472440944882
 20
2.7284533070866139
 30
0
 11
-1.7607887401574802
 21
2.7239912598425198
 31
0
  0
LINE
  5
351
330
1A
100
AcDbEntity
  8
BLACK
  6
CONTINUOUS
100
AcDbLine
 10
-1.7607887401574802
 20
2.7239912598425198
 30
0
 11
-1.7661566141732283
 21
2.7186233858267714
 31
0
  0
LINE
  5
352
330
1A
100
AcDbEntity
  8
BLACK
  6
CONTINUOUS
100
AcDbLine
 10
-1.7661566141732283
 20
2.7186233858267714
 30
0
 11
-1.7706186614173227
 21
2.7124818897637795
 31
0
  0
LINE
  5
353
330
1A
100
AcDbEntity
  8
BLACK
  6
CONTINUOUS
100
AcDbLine
 10
-1.7706186614173227
 20
2.7124818897637795
 30
0
 11
-1.7740650393700788
 21
2.7057179921259844
 31
0
  0
LINE
  5
354
330
1A
100
AcDbEntity
  8
BLACK
  6
CONTINUOUS
100
AcDbLine
 10
-1.7740650393700788
 20
2.7057179921259844
 30
0
 11
-1.7764108661417322
 21
2.6984982283464567
 31
0
  0
LINE
  5
355
330
1A
100
AcDbEntity
  8
BLACK
  6
CONTINUOUS
100
AcDbLine
 10
-1.7764108661417322
 20
2.6984982283464567
 30
0
 11
-1.7775984251968504
 21
2.6910003937007874
 31
0
  0
LINE
  5
356
330
1A
100
AcDbEntity
  8
BLACK
  6
CONTINUOUS
100
AcDbLine
 10
-1.7775984251968504
 20
2.6910003937007874
 30
0
 11
-1.7775984251968504
 21
2.6834090551181102
 31
0
  0
CIRCLE
  5
357
330
1A
100
AcDbEntity
  8
BLACK
100
AcDbCircle
 10
1.7
 20
1.9450000000000001
 30
0
 40
0.0068897637795276
  0
CIRCLE
  5
358
330
1A
100
AcDbEntity
  8
BLACK
100
AcDbCircle
 10
1.5999999999999999
 20
1.9450000000000001
 30
0
 40
0.0068897637795276
  0
CIRCLE
  5
359
330
1A
100
AcDbEntity
  8
BLACK
100
AcDbCircle
 10
1.7
 20
2.0449999999999999
 30
0
 40
0.0068897637795276
  0
CIRCLE
  5
35A
330
1A
100
AcDbEntity
  8
BLACK
100
AcDbCircle
 10
1.5999999999999999
 20
2.0449999999999999
 30
0
 40
0.0068897637795276
  0
CIRCLE
  5
35B
330
1A
100
AcDbEntity
  8
BLACK
100
AcDbCircle
 10
1.7
 20
2.145
 30
0
 40
0.0068897637795276
  0
CIRCLE
  5
35C
330
1A
100
AcDbEntity
  8
BLACK
100
AcDbCircle
 10
1.5999999999999999
 20
2.145
 30
0
 40
0.0068897637795276
  0
CIRCLE
  5
35D
330
1A
100
AcDbEntity
  8
BLACK
100
AcDbCircle
 10
-0.24
 20
0.635
 30
0
 40
0.0068897637795276
  0
CIRCLE
  5
35E
330
1A
100
AcDbEntity
  8
BLACK
100
AcDbCircle
 10
-0.24
 20
0.535
 30
0
 40
0.0068897637795276
  0
CIRCLE
  5
35F
330
1A
100
AcDbEntity
  8
BLACK
100
AcDbCircle
 10
-0.34
 20
0.635
 30
0
 40
0.0068897637795276
  0
CIRCLE
  5
360
330
1A
100
AcDbEntity
  8
BLACK
100
AcDbCircle
 10
-0.34
 20
0.535
 30
0
 40
0.0068897637795276
  0
CIRCLE
  5
361
330
1A
100
AcDbEntity
  8
BLACK
100
AcDbCircle
 10
-0.44
 20
0.635
 30
0
 40
0.0068897637795276
  0
CIRCLE
  5
362
330
1A
100
AcDbEntity
  8
BLACK
100
AcDbCircle
 10
-0.44
 20
0.535
 30
0
 40
0.0068897637795276
  0
CIRCLE
  5
363
330
1A
100
AcDbEntity
  8
BLACK
100
AcDbCircle
 10
-0.54
 20
0.635
 30
0
 40
0.0068897637795276
  0
CIRCLE
  5
364
330
1A
100
AcDbEntity
  8
BLACK
100
AcDbCircle
 10
-0.54
 20
0.535
 30
0
 40
0.0068897637795276
  0
CIRCLE
  5
365
330
1A
100
AcDbEntity
  8
BLACK
100
AcDbCircle
 10
-0.64
 20
0.635
 30
0
 40
0.0068897637795276
  0
CIRCLE
  5
366
330
1A
100
AcDbEntity
  8
BLACK
100
AcDbCircle
 10
-0.64
 20
0.535
 30
0
 40
0.0068897637795276
  0
CIRCLE
  5
367
330
1A
100
AcDbEntity
  8
BLACK
100
AcDbCircle
 10
-1.99
 20
2.625
 30
0
 40
0.0068897637795276
  0
CIRCLE
  5
368
330
1A
100
AcDbEntity
  8
BLACK
100
AcDbCircle
 10
1.6099999999999999
 20
2.625
 30
0
 40
0.0068897637795276
  0
CIRCLE
  5
369
330
1A
100
AcDbEntity
  8
BLACK
100
AcDbCircle
 10
-1.2407874015748031
 20
2.6364173228346455
 30
0
 40
0.0068897637795276
  0
CIRCLE
  5
36A
330
1A
100
AcDbEntity
  8
BLACK
100
AcDbCircle
 10
-1.2407874015748031
 20
2.7364173228346456
 30
0
 40
0.0068897637795276
  0
CIRCLE
  5
36B
330
1A
100
AcDbEntity
  8
BLACK
100
AcDbCircle
 10
-1.1407874015748032
 20
2.6364173228346455
 30
0
 40
0.0068897637795276
  0
CIRCLE
  5
36C
330
1A
100
AcDbEntity
  8
BLACK
100
AcDbCircle
 10
-1.1407874015748032
 20
2.7364173228346456
 30
0
 40
0.0068897637795276
  0
CIRCLE
  5
36D
330
1A
100
AcDbEntity
  8
BLACK
100
AcDbCircle
 10
-1.0407874015748031
 20
2.6364173228346455
 30
0
 40
0.0068897637795276
  0
CIRCLE
  5
36E
330
1A
100
AcDbEntity
  8
BLACK
100
AcDbCircle
 10
-1.0407874015748031
 20
2.7364173228346456
 30
0
 40
0.0068897637795276
  0
CIRCLE
  5
36F
330
1A
100
AcDbEntity
  8
BLACK
100
AcDbCircle
 10
-0.9407874015748031
 20
2.6364173228346455
 30
0
 40
0.0068897637795276
  0
CIRCLE
  5
370
330
1A
100
AcDbEntity
  8
BLACK
100
AcDbCircle
 10
-0.9407874015748031
 20
2.7364173228346456
 30
0
 40
0.0068897637795276
  0
CIRCLE
  5
371
330
1A
100
AcDbEntity
  8
BLACK
100
AcDbCircle
 10
-0.8407874015748031
 20
2.6364173228346455
 30
0
 40
0.0068897637795276
  0
CIRCLE
  5
372
330
1A
100
AcDbEntity
  8
BLACK
100
AcDbCircle
 10
-0.8407874015748031
 20
2.7364173228346456
 30
0
 40
0.0068897637795276
  0
CIRCLE
  5
373
330
1A
100
AcDbEntity
  8
BLACK
100
AcDbCircle
 10
-0.7407874015748032
 20
2.6364173228346455
 30
0
 40
0.0068897637795276
  0
CIRCLE
  5
374
330
1A
100
AcDbEntity
  8
BLACK
100
AcDbCircle
 10
-0.7407874015748032
 20
2.7364173228346456
 30
0
 40
0.0068897637795276
  0
CIRCLE
  5
375
330
1A
100
AcDbEntity
  8
BLACK
100
AcDbCircle
 10
-0.6407874015748032
 20
2.6364173228346455
 30
0
 40
0.0068897637795276
  0
CIRCLE
  5
376
330
1A
100
AcDbEntity
  8
BLACK
100
AcDbCircle
 10
-0.6407874015748032
 20
2.7364173228346456
 30
0
 40
0.0068897637795276
  0
CIRCLE
  5
377
330
1A
100
AcDbEntity
  8
BLACK
100
AcDbCircle
 10
-0.5035826771653543
 20
2.6374015748031496
 30
0
 40
0.0068897637795276
  0
CIRCLE
  5
378
330
1A
100
AcDbEntity
  8
BLACK
100
AcDbCircle
 10
-0.5035826771653543
 20
2.7374015748031497
 30
0
 40
0.0068897637795276
  0
CIRCLE
  5
379
330
1A
100
AcDbEntity
  8
BLACK
100
AcDbCircle
 10
-0.4035826771653543
 20
2.6374015748031496
 30
0
 40
0.0068897637795276
  0
CIRCLE
  5
37A
330
1A
100
AcDbEntity
  8
BLACK
100
AcDbCircle
 10
-0.4035826771653543
 20
2.7374015748031497
 30
0
 40
0.0068897637795276
  0
CIRCLE
  5
37B
330
1A
100
AcDbEntity
  8
BLACK
100
AcDbCircle
 10
-0.3035826771653543
 20
2.6374015748031496
 30
0
 40
0.0068897637795276
  0
CIRCLE
  5
37C
330
1A
100
AcDbEntity
  8
BLACK
100
AcDbCircle
 10
-0.3035826771653543
 20
2.7374015748031497
 30
0
 40
0.0068897637795276
  0
CIRCLE
  5
37D
330
1A
100
AcDbEntity
  8
BLACK
100
AcDbCircle
 10
-1.99
 20
0.625
 30
0
 40
0.0068897637795276
  0
CIRCLE
  5
37E
330
1A
100
AcDbEntity
  8
BLACK
100
AcDbCircle
 10
-1.2793700787401574
 20
1.8277559055118109
 30
0
 40
0.0068897637795276
  0
CIRCLE
  5
37F
330
1A
100
AcDbEntity
  8
BLACK
100
AcDbCircle
 10
-1.2793700787401574
 20
1.0009842519685039
 30
0
 40
0.0068897637795276
  0
CIRCLE
  5
380
330
1A
100
AcDbEntity
  8
BLACK
100
AcDbCircle
 10
-1.99
 20
2.2050000000000001
 30
0
 40
0.0068897637795276
  0
CIRCLE
  5
381
330
1A
100
AcDbEntity
  8
BLACK
100
AcDbCircle
 10
-2.0899999999999999
 20
2.3050000000000002
 30
0
 40
0.0068897637795276
  0
CIRCLE
  5
382
330
1A
100
AcDbEntity
  8
BLACK
100
AcDbCircle
 10
-2.0899999999999999
 20
2.105
 30
0
 40
0.0068897637795276
  0
CIRCLE
  5
383
330
1A
100
AcDbEntity
  8
BLACK
100
AcDbCircle
 10
-1.8899999999999999
 20
2.3050000000000002
 30
0
 40
0.0068897637795276
  0
CIRCLE
  5
384
330
1A
100
AcDbEntity
  8
BLACK
100
AcDbCircle
 10
-1.8899999999999999
 20
2.105
 30
0
 40
0.0068897637795276
  0
CIRCLE
  5
385
330
1A
100
AcDbEntity
  8
BLACK
100
AcDbCircle
 10
0.9399999999999999
 20
2.4049999999999998
 30
0
 40
0.0068897637795276
  0
CIRCLE
  5
386
330
1A
100
AcDbEntity
  8
BLACK
100
AcDbCircle
 10
1.235275590551181
 20
2.4049999999999998
 30
0
 40
0.0068897637795276
  0
CIRCLE
  5
387
330
1A
100
AcDbEntity
  8
BLACK
100
AcDbCircle
 10
-1.0069291338582678
 20
1.776496062992126
 30
0
 40
0.0068897637795276
  0
CIRCLE
  5
388
330
1A
100
AcDbEntity
  8
BLACK
100
AcDbCircle
 10
-0.9069291338582677
 20
1.776496062992126
 30
0
 40
0.0068897637795276
  0
CIRCLE
  5
389
330
1A
100
AcDbEntity
  8
BLACK
100
AcDbCircle
 10
1.6099999999999999
 20
0.625
 30
0
 40
0.0068897637795276
  0
CIRCLE
  5
38A
330
1A
100
AcDbEntity
  8
BLACK
100
AcDbCircle
 10
-1.47
 20
2.6149999999999998
 30
0
 40
0.0068897637795276
  0
CIRCLE
  5
38B
330
1A
100
AcDbEntity
  8
BLACK
100
AcDbCircle
 10
-1.47
 20
2.7149999999999999
 30
0
 40
0.0068897637795276
  0
CIRCLE
  5
38C
330
1A
100
AcDbEntity
  8
BLACK
100
AcDbCircle
 10
-1.3699999999999999
 20
2.6149999999999998
 30
0
 40
0.0068897637795276
  0
CIRCLE
  5
38D
330
1A
100
AcDbEntity
  8
BLACK
100
AcDbCircle
 10
-1.3699999999999999
 20
2.7149999999999999
 30
0
 40
0.0068897637795276
  0
CIRCLE
  5
38E
330
1A
100
AcDbEntity
  8
BLACK
100
AcDbCircle
 10
0.33
 20
2.0049999999999999
 30
0
 40
0.0068897637795276
  0
CIRCLE
  5
38F
330
1A
100
AcDbEntity
  8
BLACK
100
AcDbCircle
 10
0.43
 20
2.0049999999999999
 30
0
 40
0.0068897637795276
  0
CIRCLE
  5
390
330
1A
100
AcDbEntity
  8
BLACK
100
AcDbCircle
 10
-1.1699999999999999
 20
0.535
 30
0
 40
0.0068897637795276
  0
CIRCLE
  5
391
330
1A
100
AcDbEntity
  8
BLACK
100
AcDbCircle
 10
-1.1699999999999999
 20
0.635
 30
0
 40
0.0068897637795276
  0
CIRCLE
  5
392
330
1A
100
AcDbEntity
  8
BLACK
100
AcDbCircle
 10
-1.0700000000000001
 20
0.535
 30
0
 40
0.0068897637795276
  0
CIRCLE
  5
393
330
1A
100
AcDbEntity
  8
BLACK
100
AcDbCircle
 10
-1.0700000000000001
 20
0.635
 30
0
 40
0.0068897637795276
  0
CIRCLE
  5
394
330
1A
100
AcDbEntity
  8
BLACK
100
AcDbCircle
 10
-0.97
 20
0.535
 30
0
 40
0.0068897637795276
  0
CIRCLE
  5
395
330
1A
100
AcDbEntity
  8
BLACK
100
AcDbCircle
 10
-0.97
 20
0.635
 30
0
 40
0.0068897637795276
  0
CIRCLE
  5
396
330
1A
100
AcDbEntity
  8
BLACK
100
AcDbCircle
 10
-0.87
 20
0.535
 30
0
 40
0.0068897637795276
  0
CIRCLE
  5
397
330
1A
100
AcDbEntity
  8
BLACK
100
AcDbCircle
 10
-0.87
 20
0.635
 30
0
 40
0.0068897637795276
  0
CIRCLE
  5
398
330
1A
100
AcDbEntity
  8
BLACK
100
AcDbCircle
 10
-0.77
 20
0.535
 30
0
 40
0.0068897637795276
  0
CIRCLE
  5
399
330
1A
100
AcDbEntity
  8
BLACK
100
AcDbCircle
 10
-0.77
 20
0.635
 30
0
 40
0.0068897637795276
  0
CIRCLE
  5
39A
330
1A
100
AcDbEntity
  8
BLACK
100
AcDbCircle
 10
1.5682677165354331
 20
1.7659448818897638
 30
0
 40
0.0068897637795276
  0
CIRCLE
  5
39B
330
1A
100
AcDbEntity
  8
BLACK
100
AcDbCircle
 10
1.6682677165354329
 20
1.7659448818897638
 30
0
 40
0.0068897637795276
  0
CIRCLE
  5
39C
330
1A
100
AcDbEntity
  8
BLACK
100
AcDbCircle
 10
1.5682677165354331
 20
1.6659448818897638
 30
0
 40
0.0068897637795276
  0
CIRCLE
  5
39D
330
1A
100
AcDbEntity
  8
BLACK
100
AcDbCircle
 10
1.6682677165354329
 20
1.6659448818897638
 30
0
 40
0.0068897637795276
  0
CIRCLE
  5
39E
330
1A
100
AcDbEntity
  8
BLACK
100
AcDbCircle
 10
1.5682677165354331
 20
1.5659448818897637
 30
0
 40
0.0068897637795276
  0
CIRCLE
  5
39F
330
1A
100
AcDbEntity
  8
BLACK
100
AcDbCircle
 10
1.6682677165354329
 20
1.5659448818897637
 30
0
 40
0.0068897637795276
  0
CIRCLE
  5
3A0
330
1A
100
AcDbEntity
  8
BLACK
100
AcDbCircle
 10
-0.9194488188976377
 20
2.2426181102362204
 30
0
 40
0.0039370078740157
  0
CIRCLE
  5
3A1
330
1A
100
AcDbEntity
  8
BLACK
100
AcDbCircle
 10
-0.9607874015748031
 20
2.2426181102362204
 30
0
 40
0.0039370078740157
  0
CIRCLE
  5
3A2
330
1A
100
AcDbEntity
  8
BLACK
100
AcDbCircle
 10
-1.0021259842519685
 20
2.2426181102362204
 30
0
 40
0.0039370078740157
  0
CIRCLE
  5
3A3
330
1A
100
AcDbEntity
  8
BLACK
100
AcDbCircle
 10
-0.9194488188976377
 20
2.2012795275590551
 30
0
 40
0.0039370078740157
  0
CIRCLE
  5
3A4
330
1A
100
AcDbEntity
  8
BLACK
100
AcDbCircle
 10
-0.9607874015748031
 20
2.2012795275590551
 30
0
 40
0.0039370078740157
  0
CIRCLE
  5
3A5
330
1A
100
AcDbEntity
  8
BLACK
100
AcDbCircle
 10
-1.0021259842519685
 20
2.2012795275590551
 30
0
 40
0.0039370078740157
  0
CIRCLE
  5
3A6
330
1A
100
AcDbEntity
  8
BLACK
100
AcDbCircle
 10
-0.9194488188976377
 20
2.1599409448818898
 30
0
 40
0.0039370078740157
  0
CIRCLE
  5
3A7
330
1A
100
AcDbEntity
  8
BLACK
100
AcDbCircle
 10
-0.9607874015748031
 20
2.1599409448818898
 30
0
 40
0.0039370078740157
  0
CIRCLE
  5
3A8
330
1A
100
AcDbEntity
  8
BLACK
100
AcDbCircle
 10
-1.0021259842519685
 20
2.1599409448818898
 30
0
 40
0.0039370078740157
  0
CIRCLE
  5
3A9
330
1A
100
AcDbEntity
  8
BLACK
100
AcDbCircle
 10
-0.4301574803149606
 20
2.3624015748031497
 30
0
 40
0.0068897637795276
  0
CIRCLE
  5
3AA
330
1A
100
AcDbEntity
  8
BLACK
100
AcDbCircle
 10
-0.3907874015748031
 20
2.3624015748031497
 30
0
 40
0.0068897637795276
  0
CIRCLE
  5
3AB
330
1A
100
AcDbEntity
  8
BLACK
100
AcDbCircle
 10
1.7
 20
1.9450000000000001
 30
0
 40
0.0068897637795276
  0
CIRCLE
  5
3AC
330
1A
100
AcDbEntity
  8
BLACK
100
AcDbCircle
 10
1.5999999999999999
 20
1.9450000000000001
 30
0
 40
0.0068897637795276
  0
CIRCLE
  5
3AD
330
1A
100
AcDbEntity
  8
BLACK
100
AcDbCircle
 10
1.7
 20
2.0449999999999999
 30
0
 40
0.0068897637795276
  0
CIRCLE
  5
3AE
330
1A
100
AcDbEntity
  8
BLACK
100
AcDbCircle
 10
1.5999999999999999
 20
2.0449999999999999
 30
0
 40
0.0068897637795276
  0
CIRCLE
  5
3AF
330
1A
100
AcDbEntity
  8
BLACK
100
AcDbCircle
 10
1.7
 20
2.145
 30
0
 40
0.0068897637795276
  0
CIRCLE
  5
3B0
330
1A
100
AcDbEntity
  8
BLACK
100
AcDbCircle
 10
1.5999999999999999
 20
2.145
 30
0
 40
0.0068897637795276
  0
CIRCLE
  5
3B1
330
1A
100
AcDbEntity
  8
BLACK
100
AcDbCircle
 10
-0.24
 20
0.635
 30
0
 40
0.0068897637795276
  0
CIRCLE
  5
3B2
330
1A
100
AcDbEntity
  8
BLACK
100
AcDbCircle
 10
-0.24
 20
0.535
 30
0
 40
0.0068897637795276
  0
CIRCLE
  5
3B3
330
1A
100
AcDbEntity
  8
BLACK
100
AcDbCircle
 10
-0.34
 20
0.635
 30
0
 40
0.0068897637795276
  0
CIRCLE
  5
3B4
330
1A
100
AcDbEntity
  8
BLACK
100
AcDbCircle
 10
-0.34
 20
0.535
 30
0
 40
0.0068897637795276
  0
CIRCLE
  5
3B5
330
1A
100
AcDbEntity
  8
BLACK
100
AcDbCircle
 10
-0.44
 20
0.635
 30
0
 40
0.0068897637795276
  0
CIRCLE
  5
3B6
330
1A
100
AcDbEntity
  8
BLACK
100
AcDbCircle
 10
-0.44
 20
0.535
 30
0
 40
0.0068897637795276
  0
CIRCLE
  5
3B7
330
1A
100
AcDbEntity
  8
BLACK
100
AcDbCircle
 10
-0.54
 20
0.635
 30
0
 40
0.0068897637795276
  0
CIRCLE
  5
3B8
330
1A
100
AcDbEntity
  8
BLACK
100
AcDbCircle
 10
-0.54
 20
0.535
 30
0
 40
0.0068897637795276
  0
CIRCLE
  5
3B9
330
1A
100
AcDbEntity
  8
BLACK
100
AcDbCircle
 10
-0.64
 20
0.635
 30
0
 40
0.0068897637795276
  0
CIRCLE
  5
3BA
330
1A
100
AcDbEntity
  8
BLACK
100
AcDbCircle
 10
-0.64
 20
0.535
 30
0
 40
0.0068897637795276
  0
CIRCLE
  5
3BB
330
1A
100
AcDbEntity
  8
BLACK
100
AcDbCircle
 10
-1.99
 20
2.625
 30
0
 40
0.0068897637795276
  0
CIRCLE
  5
3BC
330
1A
100
AcDbEntity
  8
BLACK
100
AcDbCircle
 10
1.6099999999999999
 20
2.625
 30
0
 40
0.0068897637795276
  0
CIRCLE
  5
3BD
330
1A
100
AcDbEntity
  8
BLACK
100
AcDbCircle
 10
-1.2407874015748031
 20
2.6364173228346455
 30
0
 40
0.0068897637795276
  0
CIRCLE
  5
3BE
330
1A
100
AcDbEntity
  8
BLACK
100
AcDbCircle
 10
-1.2407874015748031
 20
2.7364173228346456
 30
0
 40
0.0068897637795276
  0
CIRCLE
  5
3BF
330
1A
100
AcDbEntity
  8
BLACK
100
AcDbCircle
 10
-1.1407874015748032
 20
2.6364173228346455
 30
0
 40
0.0068897637795276
  0
CIRCLE
  5
3C0
330
1A
100
AcDbEntity
  8
BLACK
100
AcDbCircle
 10
-1.1407874015748032
 20
2.7364173228346456
 30
0
 40
0.0068897637795276
  0
CIRCLE
  5
3C1
330
1A
100
AcDbEntity
  8
BLACK
100
AcDbCircle
 10
-1.0407874015748031
 20
2.6364173228346455
 30
0
 40
0.0068897637795276
  0
CIRCLE
  5
3C2
330
1A
100
AcDbEntity
  8
BLACK
100
AcDbCircle
 10
-1.0407874015748031
 20
2.7364173228346456
 30
0
 40
0.0068897637795276
  0
CIRCLE
  5
3C3
330
1A
100
AcDbEntity
  8
BLACK
100
AcDbCircle
 10
-0.9407874015748031
 20
2.6364173228346455
 30
0
 40
0.0068897637795276
  0
CIRCLE
  5
3C4
330
1A
100
AcDbEntity
  8
BLACK
100
AcDbCircle
 10
-0.9407874015748031
 20
2.7364173228346456
 30
0
 40
0.0068897637795276
  0
CIRCLE
  5
3C5
330
1A
100
AcDbEntity
  8
BLACK
100
AcDbCircle
 10
-0.8407874015748031
 20
2.6364173228346455
 30
0
 40
0.0068897637795276
  0
CIRCLE
  5
3C6
330
1A
100
AcDbEntity
  8
BLACK
100
AcDbCircle
 10
-0.8407874015748031
 20
2.7364173228346456
 30
0
 40
0.0068897637795276
  0
CIRCLE
  5
3C7
330
1A
100
AcDbEntity
  8
BLACK
100
AcDbCircle
 10
-0.7407874015748032
 20
2.6364173228346455
 30
0
 40
0.0068897637795276
  0
CIRCLE
  5
3C8
330
1A
100
AcDbEntity
  8
BLACK
100
AcDbCircle
 10
-0.7407874015748032
 20
2.7364173228346456
 30
0
 40
0.0068897637795276
  0
CIRCLE
  5
3C9
330
1A
100
AcDbEntity
  8
BLACK
100
AcDbCircle
 10
-0.6407874015748032
 20
2.6364173228346455
 30
0
 40
0.0068897637795276
  0
CIRCLE
  5
3CA
330
1A
100
AcDbEntity
  8
BLACK
100
AcDbCircle
 10
-0.6407874015748032
 20
2.7364173228346456
 30
0
 40
0.0068897637795276
  0
CIRCLE
  5
3CB
330
1A
100
AcDbEntity
  8
BLACK
100
AcDbCircle
 10
-0.5035826771653543
 20
2.6374015748031496
 30
0
 40
0.0068897637795276
  0
CIRCLE
  5
3CC
330
1A
100
AcDbEntity
  8
BLACK
100
AcDbCircle
 10
-0.5035826771653543
 20
2.7374015748031497
 30
0
 40
0.0068897637795276
  0
CIRCLE
  5
3CD
330
1A
100
AcDbEntity
  8
BLACK
100
AcDbCircle
 10
-0.4035826771653543
 20
2.6374015748031496
 30
0
 40
0.0068897637795276
  0
CIRCLE
  5
3CE
330
1A
100
AcDbEntity
  8
BLACK
100
AcDbCircle
 10
-0.4035826771653543
 20
2.7374015748031497
 30
0
 40
0.0068897637795276
  0
CIRCLE
  5
3CF
330
1A
100
AcDbEntity
  8
BLACK
100
AcDbCircle
 10
-0.3035826771653543
 20
2.6374015748031496
 30
0
 40
0.0068897637795276
  0
CIRCLE
  5
3D0
330
1A
100
AcDbEntity
  8
BLACK
100
AcDbCircle
 10
-0.3035826771653543
 20
2.7374015748031497
 30
0
 40
0.0068897637795276
  0
CIRCLE
  5
3D1
330
1A
100
AcDbEntity
  8
BLACK
100
AcDbCircle
 10
-1.99
 20
0.625
 30
0
 40
0.0068897637795276
  0
CIRCLE
  5
3D2
330
1A
100
AcDbEntity
  8
BLACK
100
AcDbCircle
 10
-1.2793700787401574
 20
1.8277559055118109
 30
0
 40
0.0068897637795276
  0
CIRCLE
  5
3D3
330
1A
100
AcDbEntity
  8
BLACK
100
AcDbCircle
 10
-1.2793700787401574
 20
1.0009842519685039
 30
0
 40
0.0068897637795276
  0
CIRCLE
  5
3D4
330
1A
100
AcDbEntity
  8
BLACK
100
AcDbCircle
 10
-1.99
 20
2.2050000000000001
 30
0
 40
0.0068897637795276
  0
CIRCLE
  5
3D5
330
1A
100
AcDbEntity
  8
BLACK
100
AcDbCircle
 10
-2.0899999999999999
 20
2.3050000000000002
 30
0
 40
0.0068897637795276
  0
CIRCLE
  5
3D6
330
1A
100
AcDbEntity
  8
BLACK
100
AcDbCircle
 10
-2.0899999999999999
 20
2.105
 30
0
 40
0.0068897637795276
  0
CIRCLE
  5
3D7
330
1A
100
AcDbEntity
  8
BLACK
100
AcDbCircle
 10
-1.8899999999999999
 20
2.3050000000000002
 30
0
 40
0.0068897637795276
  0
CIRCLE
  5
3D8
330
1A
100
AcDbEntity
  8
BLACK
100
AcDbCircle
 10
-1.8899999999999999
 20
2.105
 30
0
 40
0.0068897637795276
  0
CIRCLE
  5
3D9
330
1A
100
AcDbEntity
  8
BLACK
100
AcDbCircle
 10
0.9399999999999999
 20
2.4049999999999998
 30
0
 40
0.0068897637795276
  0
CIRCLE
  5
3DA
330
1A
100
AcDbEntity
  8
BLACK
100
AcDbCircle
 10
1.235275590551181
 20
2.4049999999999998
 30
0
 40
0.0068897637795276
  0
CIRCLE
  5
3DB
330
1A
100
AcDbEntity
  8
BLACK
100
AcDbCircle
 10
-1.0069291338582678
 20
1.776496062992126
 30
0
 40
0.0068897637795276
  0
CIRCLE
  5
3DC
330
1A
100
AcDbEntity
  8
BLACK
100
AcDbCircle
 10
-0.9069291338582677
 20
1.776496062992126
 30
0
 40
0.0068897637795276
  0
CIRCLE
  5
3DD
330
1A
100
AcDbEntity
  8
BLACK
100
AcDbCircle
 10
1.6099999999999999
 20
0.625
 30
0
 40
0.0068897637795276
  0
CIRCLE
  5
3DE
330
1A
100
AcDbEntity
  8
BLACK
100
AcDbCircle
 10
-1.47
 20
2.6149999999999998
 30
0
 40
0.0068897637795276
  0
CIRCLE
  5
3DF
330
1A
100
AcDbEntity
  8
BLACK
100
AcDbCircle
 10
-1.47
 20
2.7149999999999999
 30
0
 40
0.0068897637795276
  0
CIRCLE
  5
3E0
330
1A
100
AcDbEntity
  8
BLACK
100
AcDbCircle
 10
-1.3699999999999999
 20
2.6149999999999998
 30
0
 40
0.0068897637795276
  0
CIRCLE
  5
3E1
330
1A
100
AcDbEntity
  8
BLACK
100
AcDbCircle
 10
-1.3699999999999999
 20
2.7149999999999999
 30
0
 40
0.0068897637795276
  0
CIRCLE
  5
3E2
330
1A
100
AcDbEntity
  8
BLACK
100
AcDbCircle
 10
0.33
 20
2.0049999999999999
 30
0
 40
0.0068897637795276
  0
CIRCLE
  5
3E3
330
1A
100
AcDbEntity
  8
BLACK
100
AcDbCircle
 10
0.43
 20
2.0049999999999999
 30
0
 40
0.0068897637795276
  0
CIRCLE
  5
3E4
330
1A
100
AcDbEntity
  8
BLACK
100
AcDbCircle
 10
-1.1699999999999999
 20
0.535
 30
0
 40
0.0068897637795276
  0
CIRCLE
  5
3E5
330
1A
100
AcDbEntity
  8
BLACK
100
AcDbCircle
 10
-1.1699999999999999
 20
0.635
 30
0
 40
0.0068897637795276
  0
CIRCLE
  5
3E6
330
1A
100
AcDbEntity
  8
BLACK
100
AcDbCircle
 10
-1.0700000000000001
 20
0.535
 30
0
 40
0.0068897637795276
  0
CIRCLE
  5
3E7
330
1A
100
AcDbEntity
  8
BLACK
100
AcDbCircle
 10
-1.0700000000000001
 20
0.635
 30
0
 40
0.0068897637795276
  0
CIRCLE
  5
3E8
330
1A
100
AcDbEntity
  8
BLACK
100
AcDbCircle
 10
-0.97
 20
0.535
 30
0
 40
0.0068897637795276
  0
CIRCLE
  5
3E9
330
1A
100
AcDbEntity
  8
BLACK
100
AcDbCircle
 10
-0.97
 20
0.635
 30
0
 40
0.0068897637795276
  0
CIRCLE
  5
3EA
330
1A
100
AcDbEntity
  8
BLACK
100
AcDbCircle
 10
-0.87
 20
0.535
 30
0
 40
0.0068897637795276
  0
CIRCLE
  5
3EB
330
1A
100
AcDbEntity
  8
BLACK
100
AcDbCircle
 10
-0.87
 20
0.635
 30
0
 40
0.0068897637795276
  0
CIRCLE
  5
3EC
330
1A
100
AcDbEntity
  8
BLACK
100
AcDbCircle
 10
-0.77
 20
0.535
 30
0
 40
0.0068897637795276
  0
CIRCLE
  5
3ED
330
1A
100
AcDbEntity
  8
BLACK
100
AcDbCircle
 10
-0.77
 20
0.635
 30
0
 40
0.0068897637795276
  0
CIRCLE
  5
3EE
330
1A
100
AcDbEntity
  8
BLACK
100
AcDbCircle
 10
1.5682677165354331
 20
1.7659448818897638
 30
0
 40
0.0068897637795276
  0
CIRCLE
  5
3EF
330
1A
100
AcDbEntity
  8
BLACK
100
AcDbCircle
 10
1.6682677165354329
 20
1.7659448818897638
 30
0
 40
0.0068897637795276
  0
CIRCLE
  5
3F0
330
1A
100
AcDbEntity
  8
BLACK
100
AcDbCircle
 10
1.5682677165354331
 20
1.6659448818897638
 30
0
 40
0.0068897637795276
  0
CIRCLE
  5
3F1
330
1A
100
AcDbEntity
  8
BLACK
100
AcDbCircle
 10
1.6682677165354329
 20
1.6659448818897638
 30
0
 40
0.0068897637795276
  0
CIRCLE
  5
3F2
330
1A
100
AcDbEntity
  8
BLACK
100
AcDbCircle
 10
1.5682677165354331
 20
1.5659448818897637
 30
0
 40
0.0068897637795276
  0
CIRCLE
  5
3F3
330
1A
100
AcDbEntity
  8
BLACK
100
AcDbCircle
 10
1.6682677165354329
 20
1.5659448818897637
 30
0
 40
0.0068897637795276
  0
CIRCLE
  5
3F4
330
1A
100
AcDbEntity
  8
BLACK
100
AcDbCircle
 10
-0.9194488188976377
 20
2.2426181102362204
 30
0
 40
0.0039370078740157
  0
CIRCLE
  5
3F5
330
1A
100
AcDbEntity
  8
BLACK
100
AcDbCircle
 10
-0.9607874015748031
 20
2.2426181102362204
 30
0
 40
0.0039370078740157
  0
CIRCLE
  5
3F6
330
1A
100
AcDbEntity
  8
BLACK
100
AcDbCircle
 10
-1.0021259842519685
 20
2.2426181102362204
 30
0
 40
0.0039370078740157
  0
CIRCLE
  5
3F7
330
1A
100
AcDbEntity
  8
BLACK
100
AcDbCircle
 10
-0.9194488188976377
 20
2.2012795275590551
 30
0
 40
0.0039370078740157
  0
CIRCLE
  5
3F8
330
1A
100
AcDbEntity
  8
BLACK
100
AcDbCircle
 10
-0.9607874015748031
 20
2.2012795275590551
 30
0
 40
0.0039370078740157
  0
CIRCLE
  5
3F9
330
1A
100
AcDbEntity
  8
BLACK
100
AcDbCircle
 10
-1.0021259842519685
 20
2.2012795275590551
 30
0
 40
0.0039370078740157
  0
CIRCLE
  5
3FA
330
1A
100
AcDbEntity
  8
BLACK
100
AcDbCircle
 10
-0.9194488188976377
 20
2.1599409448818898
 30
0
 40
0.0039370078740157
  0
CIRCLE
  5
3FB
330
1A
100
AcDbEntity
  8
BLACK
100
AcDbCircle
 10
-0.9607874015748031
 20
2.1599409448818898
 30
0
 40
0.0039370078740157
  0
CIRCLE
  5
3FC
330
1A
100
AcDbEntity
  8
BLACK
100
AcDbCircle
 10
-1.0021259842519685
 20
2.1599409448818898
 30
0
 40
0.0039370078740157
  0
CIRCLE
  5
3FD
330
1A
100
AcDbEntity
  8
BLACK
100
AcDbCircle
 10
-0.4301574803149606
 20
2.3624015748031497
 30
0
 40
0.0068897637795276
  0
CIRCLE
  5
3FE
330
1A
100
AcDbEntity
  8
BLACK
100
AcDbCircle
 10
-0.3907874015748031
 20
2.3624015748031497
 30
0
 40
0.0068897637795276
  0
ENDSEC
  0
SECTION
  2
OBJECTS
  0
DICTIONARY
  5
20
330
0
100
AcDbDictionary
281
1
  3
ACAD_GROUP
350
3FF
  3
ACAD_LAYOUT
350
21
  3
ACAD_PLOTSTYLENAME
350
11
  0
DICTIONARY
  5
3FF
330
20
100
AcDbDictionary
281
1
  0
ACDBDICTIONARYWDFLT
  5
11
330
20
100
AcDbDictionary
281
1
  3
Normal
350
10
100
AcDbDictionaryWithDefault
340
10
  0
ACDBPLACEHOLDER
  5
10
330
11
  0
DICTIONARY
  5
21
330
20
100
AcDbDictionary
281
1
  3
Model
350
1D
  3
Layout1
350
1E
  3
Layout2
350
1F
  0
LAYOUT
  5
1D
330
21
100
AcDbPlotSettings
  1

  2
none_device
  4
A3
  6

 40
0.0
 41
0.0
 42
0.0
 43
0.0
 44
420.0
 45
297.0
 46
0.0
 47
0.0
 48
0.0
 49
0.0
140
0.0
141
0.0
142
1.0
143
1.0
 70
1024
 72
1
 73
0
 74
5
  7

 75
16
 76
0
 77
2
 78
300
147
1.0
148
0.0
149
0.0
100
AcDbLayout
  1
Model
 70
1
 71
0
 10
0.0
 20
0.0
 11
420.0
 21
297.0
 12
0.0
 22
0.0
 32
0.0
 14
1e+20
 24
1e+20
 34
1e+20
 15
-1e+20
 25
-1e+20
 35
-1e+20
146
0.0
 13
0.0
 23
0.0
 33
0.0
 16
1.0
 26
0.0
 36
0.0
 17
0.0
 27
1.0
 37
0.0
 76
0
330
1A
  0
LAYOUT
  5
1E
330
21
100
AcDbPlotSettings
  1

  2
none_device
  4
A3
  6

 40
0.0
 41
0.0
 42
0.0
 43
0.0
 44
420.0
 45
297.0
 46
0.0
 47
0.0
 48
0.0
 49
0.0
140
0.0
141
0.0
142
1.0
143
1.0
 70
0
 72
1
 73
0
 74
5
  7

 75
16
 76
0
 77
2
 78
300
147
1.0
148
0.0
149
0.0
100
AcDbLayout
  1
Layout1
 70
1
 71
1
 10
0.0
 20
0.0
 11
420.0
 21
297.0
 12
0.0
 22
0.0
 32
0.0
 14
1e+20
 24
1e+20
 34
1e+20
 15
-1e+20
 25
-1e+20
 35
-1e+20
146
0.0
 13
0.0
 23
0.0
 33
0.0
 16
1.0
 26
0.0
 36
0.0
 17
0.0
 27
1.0
 37
0.0
 76
0
330
1B
  0
LAYOUT
  5
1F
330
21
100
AcDbPlotSettings
  1

  2
none_device
  4
A3
  6

 40
0.0
 41
0.0
 42
0.0
 43
0.0
 44
420.0
 45
297.0
 46
0.0
 47
0.0
 48
0.0
 49
0.0
140
0.0
141
0.0
142
1.0
143
1.0
 70
0
 72
1
 73
0
 74
5
  7

 75
16
 76
0
 77
2
 78
300
147
1.0
148
0.0
149
0.0
100
AcDbLayout
  1
Layout2
 70
1
 71
2
 10
0.0
 20
0.0
 11
420.0
 21
297.0
 12
0.0
 22
0.0
 32
0.0
 14
1e+20
 24
1e+20
 34
1e+20
 15
-1e+20
 25
-1e+20
 35
-1e+20
146
0.0
 13
0.0
 23
0.0
 33
0.0
 16
1.0
 26
0.0
 36
0.0
 17
0.0
 27
1.0
 37
0.0
 76
0
330
1C
  0
ENDSEC
  0
EOF
