  0
SECTION
  2
HEADER
  9
$ANGBASE
  50
0.0
  9
$ANGDIR
  70
1
  9
$MEASUREMENT
  70
0
  0
ENDSEC
  0
SECTION
  2
TABLES
  0
TABLE
  2
LTYPE
  70
4
  0
LTYPE
  5
40F
  2
CONTINUOUS
  70
0
  3
Solid line
  72
65
  73
0
  40
0.0
  0
LTYPE
  5
410
  2
DASHDOT
 70
0
  3
Dash Dot ____ _ ____ _
 72
65
 73
4
 40
2.0
 49
1.25
 49
-0.25
 49
0.25
 49
-0.25
  0
LTYPE
  5
411
  2
DASHED
 70
0
  3
Dashed __ __ __ __ __
 72
65
 73
2
 40
0.75
 49
0.5
 49
-0.25
  0
LTYPE
  5
43B
  2
DOTTED
 70
0
  3
Dotted .  .  .  .
 72
65
 73
2
 40
0.2
 49
0.0
 49
-0.2
  0
ENDTAB
  0
TABLE
  2
STYLE
  70
4
  0
STYLE
  2
KICAD
  70
0
  40
0
  41
1
  42
1
  50
0
  71
0
  3
isocp.shx
  0
STYLE
  2
KICADB
  70
0
  40
0
  41
1
  42
1
  50
0
  71
0
  3
isocp.shx
  0
STYLE
  2
KICADI
  70
0
  40
0
  41
1
  42
1
  50
15
  71
0
  3
isocp.shx
  0
STYLE
  2
KICADBI
  70
0
  40
0
  41
1
  42
1
  50
15
  71
0
  3
isocp.shx
  0
ENDTAB
  0
TABLE
  2
LAYER
  70
1
  0
LAYER
  2
BLACK
  70
0
  62
7
  6
CONTINUOUS
  0
ENDTAB
  0
ENDSEC
  0
SECTION
  2
ENTITIES
0
LINE
8
BLACK
6
CONTINUOUS
10
1.6099299212598426
20
1.1943960236220472
11
1.6230032283464566
21
1.191795590551181
0
LINE
8
BLACK
6
CONTINUOUS
10
1.6230032283464566
20
1.191795590551181
11
1.6357586614173227
21
1.1879262598425198
0
LINE
8
BLACK
6
CONTINUOUS
10
1.6357586614173227
20
1.1879262598425198
11
1.6480734251968503
21
1.1828253149606298
0
LINE
8
BLACK
6
CONTINUOUS
10
1.6480734251968503
20
1.1828253149606298
11
1.6598288976377953
21
1.1765418897637796
0
LINE
8
BLACK
6
CONTINUOUS
10
1.6598288976377953
20
1.1765418897637796
11
1.6709119291338583
21
1.1691364566929134
0
LINE
8
BLACK
6
CONTINUOUS
10
1.6709119291338583
20
1.1691364566929134
11
1.6812156692913385
21
1.1606803543307087
0
LINE
8
BLACK
6
CONTINUOUS
10
1.6812156692913385
20
1.1606803543307087
11
1.6906409842519685
21
1.1512550393700787
0
LINE
8
BLACK
6
CONTINUOUS
10
1.6906409842519685
20
1.1512550393700787
11
1.6990970866141732
21
1.1409512992125983
0
LINE
8
BLACK
6
CONTINUOUS
10
1.6990970866141732
20
1.1409512992125983
11
1.7065025196850394
21
1.1298682677165355
0
LINE
8
BLACK
6
CONTINUOUS
10
1.7065025196850394
20
1.1298682677165355
11
1.7127859448818896
21
1.1181127952755905
0
LINE
8
BLACK
6
CONTINUOUS
10
1.7127859448818896
20
1.1181127952755905
11
1.7178868897637796
21
1.1057980314960629
0
LINE
8
BLACK
6
CONTINUOUS
10
1.7178868897637796
20
1.1057980314960629
11
1.7217562204724408
21
1.0930425984251968
0
LINE
8
BLACK
6
CONTINUOUS
10
1.7217562204724408
20
1.0930425984251968
11
1.724356653543307
21
1.0799692913385825
0
LINE
8
BLACK
6
CONTINUOUS
10
1.724356653543307
20
1.0799692913385825
11
1.7256631496062991
21
1.0667040551181102
0
LINE
8
BLACK
6
CONTINUOUS
10
1.7256631496062991
20
1.0667040551181102
11
1.7256631496062991
21
1.0533746850393702
0
LINE
8
BLACK
6
CONTINUOUS
10
1.7256631496062991
20
1.0533746850393702
11
1.724356653543307
21
1.0401094488188976
0
LINE
8
BLACK
6
CONTINUOUS
10
1.724356653543307
20
1.0401094488188976
11
1.7217562204724408
21
1.0270361417322835
0
LINE
8
BLACK
6
CONTINUOUS
10
1.7217562204724408
20
1.0270361417322835
11
1.7178868897637796
21
1.0142807086614174
0
LINE
8
BLACK
6
CONTINUOUS
10
1.7178868897637796
20
1.0142807086614174
11
1.7127859448818896
21
1.0019659448818898
0
LINE
8
BLACK
6
CONTINUOUS
10
1.7127859448818896
20
1.0019659448818898
11
1.7065025196850394
21
0.9902104724409448
0
LINE
8
BLACK
6
CONTINUOUS
10
1.7065025196850394
20
0.9902104724409448
11
1.6990970866141732
21
0.9791274409448819
0
LINE
8
BLACK
6
CONTINUOUS
10
1.6990970866141732
20
0.9791274409448819
11
1.6906409842519685
21
0.9688237007874015
0
LINE
8
BLACK
6
CONTINUOUS
10
1.6906409842519685
20
0.9688237007874015
11
1.6812156692913385
21
0.9593983858267716
0
LINE
8
BLACK
6
CONTINUOUS
10
1.6812156692913385
20
0.9593983858267716
11
1.6709119291338583
21
0.9509422834645669
0
LINE
8
BLACK
6
CONTINUOUS
10
1.6709119291338583
20
0.9509422834645669
11
1.6598288976377953
21
0.9435368503937007
0
LINE
8
BLACK
6
CONTINUOUS
10
1.6598288976377953
20
0.9435368503937007
11
1.6480734251968503
21
0.9372534251968504
0
LINE
8
BLACK
6
CONTINUOUS
10
1.6480734251968503
20
0.9372534251968504
11
1.6357586614173227
21
0.9321524803149606
0
LINE
8
BLACK
6
CONTINUOUS
10
1.6357586614173227
20
0.9321524803149606
11
1.6230032283464566
21
0.9282831496062992
0
LINE
8
BLACK
6
CONTINUOUS
10
1.6230032283464566
20
0.9282831496062992
11
1.6099299212598426
21
0.9256827165354331
0
LINE
8
BLACK
6
CONTINUOUS
10
1.6099299212598426
20
0.9256827165354331
11
1.59666468503937
21
0.9243762204724409
0
LINE
8
BLACK
6
CONTINUOUS
10
1.59666468503937
20
0.9243762204724409
11
1.58333531496063
21
0.9243762204724409
0
LINE
8
BLACK
6
CONTINUOUS
10
1.58333531496063
20
0.9243762204724409
11
1.5700700787401574
21
0.9256827165354331
0
LINE
8
BLACK
6
CONTINUOUS
10
1.5700700787401574
20
0.9256827165354331
11
1.5569967716535433
21
0.9282831496062992
0
LINE
8
BLACK
6
CONTINUOUS
10
1.5569967716535433
20
0.9282831496062992
11
1.5442413385826772
21
0.9321524803149606
0
LINE
8
BLACK
6
CONTINUOUS
10
1.5442413385826772
20
0.9321524803149606
11
1.5319265748031496
21
0.9372534251968504
0
LINE
8
BLACK
6
CONTINUOUS
10
1.5319265748031496
20
0.9372534251968504
11
1.5201711023622047
21
0.9435368503937007
0
LINE
8
BLACK
6
CONTINUOUS
10
1.5201711023622047
20
0.9435368503937007
11
1.5090880708661416
21
0.9509422834645669
0
LINE
8
BLACK
6
CONTINUOUS
10
1.5090880708661416
20
0.9509422834645669
11
1.4987843307086615
21
0.9593983858267716
0
LINE
8
BLACK
6
CONTINUOUS
10
1.4987843307086615
20
0.9593983858267716
11
1.4893590157480314
21
0.9688237007874015
0
LINE
8
BLACK
6
CONTINUOUS
10
1.4893590157480314
20
0.9688237007874015
11
1.4809029133858267
21
0.9791274409448819
0
LINE
8
BLACK
6
CONTINUOUS
10
1.4809029133858267
20
0.9791274409448819
11
1.4734974803149605
21
0.9902104724409448
0
LINE
8
BLACK
6
CONTINUOUS
10
1.4734974803149605
20
0.9902104724409448
11
1.4672140551181101
21
1.0019659448818898
0
LINE
8
BLACK
6
CONTINUOUS
10
1.4672140551181101
20
1.0019659448818898
11
1.4621131102362204
21
1.0142807086614174
0
LINE
8
BLACK
6
CONTINUOUS
10
1.4621131102362204
20
1.0142807086614174
11
1.4582437795275591
21
1.0270361417322835
0
LINE
8
BLACK
6
CONTINUOUS
10
1.4582437795275591
20
1.0270361417322835
11
1.4556433464566929
21
1.0401094488188976
0
LINE
8
BLACK
6
CONTINUOUS
10
1.4556433464566929
20
1.0401094488188976
11
1.4543368503937009
21
1.0533746850393702
0
LINE
8
BLACK
6
CONTINUOUS
10
1.4543368503937009
20
1.0533746850393702
11
1.4543368503937009
21
1.0665187007874015
0
LINE
8
BLACK
6
CONTINUOUS
10
1.4543368503937009
20
1.0665187007874015
11
1.4543368503937009
21
1.0667040551181102
0
LINE
8
BLACK
6
CONTINUOUS
10
1.4543368503937009
20
1.0667040551181102
11
1.4556433464566929
21
1.0799692913385825
0
LINE
8
BLACK
6
CONTINUOUS
10
1.4556433464566929
20
1.0799692913385825
11
1.4582437795275591
21
1.0930425984251968
0
LINE
8
BLACK
6
CONTINUOUS
10
1.4582437795275591
20
1.0930425984251968
11
1.4621131102362204
21
1.1057980314960629
0
LINE
8
BLACK
6
CONTINUOUS
10
1.4621131102362204
20
1.1057980314960629
11
1.4672140551181101
21
1.1181127952755905
0
LINE
8
BLACK
6
CONTINUOUS
10
1.4672140551181101
20
1.1181127952755905
11
1.4734974803149605
21
1.1298682677165355
0
LINE
8
BLACK
6
CONTINUOUS
10
1.4734974803149605
20
1.1298682677165355
11
1.4809029133858267
21
1.1409512992125983
0
LINE
8
BLACK
6
CONTINUOUS
10
1.4809029133858267
20
1.1409512992125983
11
1.4893590157480314
21
1.1512550393700787
0
LINE
8
BLACK
6
CONTINUOUS
10
1.4893590157480314
20
1.1512550393700787
11
1.4987843307086615
21
1.1606803543307087
0
LINE
8
BLACK
6
CONTINUOUS
10
1.4987843307086615
20
1.1606803543307087
11
1.5090880708661416
21
1.1691364566929134
0
LINE
8
BLACK
6
CONTINUOUS
10
1.5090880708661416
20
1.1691364566929134
11
1.5201711023622047
21
1.1765418897637796
0
LINE
8
BLACK
6
CONTINUOUS
10
1.5201711023622047
20
1.1765418897637796
11
1.5319265748031496
21
1.1828253149606298
0
LINE
8
BLACK
6
CONTINUOUS
10
1.5319265748031496
20
1.1828253149606298
11
1.5442413385826772
21
1.1879262598425198
0
LINE
8
BLACK
6
CONTINUOUS
10
1.5442413385826772
20
1.1879262598425198
11
1.5569967716535433
21
1.191795590551181
0
LINE
8
BLACK
6
CONTINUOUS
10
1.5569967716535433
20
1.191795590551181
11
1.5700700787401574
21
1.1943960236220472
0
LINE
8
BLACK
6
CONTINUOUS
10
1.5700700787401574
20
1.1943960236220472
11
1.58333531496063
21
1.1957025196850393
0
LINE
8
BLACK
6
CONTINUOUS
10
1.58333531496063
20
1.1957025196850393
11
1.59666468503937
21
1.1957025196850393
0
LINE
8
BLACK
6
CONTINUOUS
10
1.59666468503937
20
1.1957025196850393
11
1.6099299212598426
21
1.1943960236220472
0
LINE
8
BLACK
6
CONTINUOUS
10
1.4581102362204723
20
1.0535600393700788
11
1.4593803937007874
21
1.0406637795275591
0
LINE
8
BLACK
6
CONTINUOUS
10
1.4593803937007874
20
1.0406637795275591
11
1.4619085039370079
21
1.0279541338582676
0
LINE
8
BLACK
6
CONTINUOUS
10
1.4619085039370079
20
1.0279541338582676
11
1.4656702362204723
21
1.0155534645669291
0
LINE
8
BLACK
6
CONTINUOUS
10
1.4656702362204723
20
1.0155534645669291
11
1.4706292913385826
21
1.003581220472441
0
LINE
8
BLACK
6
CONTINUOUS
10
1.4706292913385826
20
1.003581220472441
11
1.4767379527559055
21
0.992152716535433
0
LINE
8
BLACK
6
CONTINUOUS
10
1.4767379527559055
20
0.992152716535433
11
1.483937401574803
21
0.9813779921259842
0
LINE
8
BLACK
6
CONTINUOUS
10
1.483937401574803
20
0.9813779921259842
11
1.4921582677165355
21
0.9713607874015748
0
LINE
8
BLACK
6
CONTINUOUS
10
1.4921582677165355
20
0.9713607874015748
11
1.5013214173228346
21
0.9621976377952756
0
LINE
8
BLACK
6
CONTINUOUS
10
1.5013214173228346
20
0.9621976377952756
11
1.511338622047244
21
0.9539767716535433
0
LINE
8
BLACK
6
CONTINUOUS
10
1.511338622047244
20
0.9539767716535433
11
1.5221133464566929
21
0.9467773228346457
0
LINE
8
BLACK
6
CONTINUOUS
10
1.5221133464566929
20
0.9467773228346457
11
1.5335418503937008
21
0.9406686614173229
0
LINE
8
BLACK
6
CONTINUOUS
10
1.5335418503937008
20
0.9406686614173229
11
1.5455140944881889
21
0.9357096062992126
0
LINE
8
BLACK
6
CONTINUOUS
10
1.5455140944881889
20
0.9357096062992126
11
1.5579147637795274
21
0.931947874015748
0
LINE
8
BLACK
6
CONTINUOUS
10
1.5579147637795274
20
0.931947874015748
11
1.5706244094488189
21
0.9294197637795275
0
LINE
8
BLACK
6
CONTINUOUS
10
1.5706244094488189
20
0.9294197637795275
11
1.5835206692913386
21
0.9281496062992126
0
LINE
8
BLACK
6
CONTINUOUS
10
1.5835206692913386
20
0.9281496062992126
11
1.5964793307086613
21
0.9281496062992126
0
LINE
8
BLACK
6
CONTINUOUS
10
1.5964793307086613
20
0.9281496062992126
11
1.6093755905511811
21
0.9294197637795275
0
LINE
8
BLACK
6
CONTINUOUS
10
1.6093755905511811
20
0.9294197637795275
11
1.6220852362204725
21
0.931947874015748
0
LINE
8
BLACK
6
CONTINUOUS
10
1.6220852362204725
20
0.931947874015748
11
1.6344859055118111
21
0.9357096062992126
0
LINE
8
BLACK
6
CONTINUOUS
10
1.6344859055118111
20
0.9357096062992126
11
1.6464581496062991
21
0.9406686614173229
0
LINE
8
BLACK
6
CONTINUOUS
10
1.6464581496062991
20
0.9406686614173229
11
1.657886653543307
21
0.9467773228346457
0
LINE
8
BLACK
6
CONTINUOUS
10
1.657886653543307
20
0.9467773228346457
11
1.6686613779527559
21
0.9539767716535433
0
LINE
8
BLACK
6
CONTINUOUS
10
1.6686613779527559
20
0.9539767716535433
11
1.6786785826771653
21
0.9621976377952756
0
LINE
8
BLACK
6
CONTINUOUS
10
1.6786785826771653
20
0.9621976377952756
11
1.6878417322834645
21
0.9713607874015748
0
LINE
8
BLACK
6
CONTINUOUS
10
1.6878417322834645
20
0.9713607874015748
11
1.6960625984251969
21
0.9813779921259842
0
LINE
8
BLACK
6
CONTINUOUS
10
1.6960625984251969
20
0.9813779921259842
11
1.7032620472440945
21
0.992152716535433
0
LINE
8
BLACK
6
CONTINUOUS
10
1.7032620472440945
20
0.992152716535433
11
1.7093707086614174
21
1.003581220472441
0
LINE
8
BLACK
6
CONTINUOUS
10
1.7093707086614174
20
1.003581220472441
11
1.7143297637795276
21
1.0155534645669291
0
LINE
8
BLACK
6
CONTINUOUS
10
1.7143297637795276
20
1.0155534645669291
11
1.7180914960629921
21
1.0279541338582676
0
LINE
8
BLACK
6
CONTINUOUS
10
1.7180914960629921
20
1.0279541338582676
11
1.7206196062992125
21
1.0406637795275591
0
LINE
8
BLACK
6
CONTINUOUS
10
1.7206196062992125
20
1.0406637795275591
11
1.7218897637795276
21
1.0535600393700788
0
LINE
8
BLACK
6
CONTINUOUS
10
1.7218897637795276
20
1.0535600393700788
11
1.7218897637795276
21
1.0665187007874015
0
LINE
8
BLACK
6
CONTINUOUS
10
1.7218897637795276
20
1.0665187007874015
11
1.7206196062992125
21
1.0794149606299213
0
LINE
8
BLACK
6
CONTINUOUS
10
1.7206196062992125
20
1.0794149606299213
11
1.7180914960629921
21
1.0921246062992125
0
LINE
8
BLACK
6
CONTINUOUS
10
1.7180914960629921
20
1.0921246062992125
11
1.7143297637795276
21
1.1045252755905512
0
LINE
8
BLACK
6
CONTINUOUS
10
1.7143297637795276
20
1.1045252755905512
11
1.7093707086614174
21
1.1164975196850393
0
LINE
8
BLACK
6
CONTINUOUS
10
1.7093707086614174
20
1.1164975196850393
11
1.7032620472440945
21
1.1279260236220472
0
LINE
8
BLACK
6
CONTINUOUS
10
1.7032620472440945
20
1.1279260236220472
11
1.6960625984251969
21
1.1387007480314961
0
LINE
8
BLACK
6
CONTINUOUS
10
1.6960625984251969
20
1.1387007480314961
11
1.6878417322834645
21
1.1487179527559055
0
LINE
8
BLACK
6
CONTINUOUS
10
1.6878417322834645
20
1.1487179527559055
11
1.6786785826771653
21
1.1578811023622047
0
LINE
8
BLACK
6
CONTINUOUS
10
1.6786785826771653
20
1.1578811023622047
11
1.6686613779527559
21
1.1661019685039369
0
LINE
8
BLACK
6
CONTINUOUS
10
1.6686613779527559
20
1.1661019685039369
11
1.657886653543307
21
1.1733014173228347
0
LINE
8
BLACK
6
CONTINUOUS
10
1.657886653543307
20
1.1733014173228347
11
1.6464581496062991
21
1.1794100787401574
0
LINE
8
BLACK
6
CONTINUOUS
10
1.6464581496062991
20
1.1794100787401574
11
1.6344859055118111
21
1.1843691338582676
0
LINE
8
BLACK
6
CONTINUOUS
10
1.6344859055118111
20
1.1843691338582676
11
1.6220852362204725
21
1.1881308661417322
0
LINE
8
BLACK
6
CONTINUOUS
10
1.6220852362204725
20
1.1881308661417322
11
1.6093755905511811
21
1.1906589763779527
0
LINE
8
BLACK
6
CONTINUOUS
10
1.6093755905511811
20
1.1906589763779527
11
1.5964793307086613
21
1.1919291338582676
0
LINE
8
BLACK
6
CONTINUOUS
10
1.5964793307086613
20
1.1919291338582676
11
1.5835206692913386
21
1.1919291338582676
0
LINE
8
BLACK
6
CONTINUOUS
10
1.5835206692913386
20
1.1919291338582676
11
1.5706244094488189
21
1.1906589763779527
0
LINE
8
BLACK
6
CONTINUOUS
10
1.5706244094488189
20
1.1906589763779527
11
1.5579147637795274
21
1.1881308661417322
0
LINE
8
BLACK
6
CONTINUOUS
10
1.5579147637795274
20
1.1881308661417322
11
1.5455140944881889
21
1.1843691338582676
0
LINE
8
BLACK
6
CONTINUOUS
10
1.5455140944881889
20
1.1843691338582676
11
1.5335418503937008
21
1.1794100787401574
0
LINE
8
BLACK
6
CONTINUOUS
10
1.5335418503937008
20
1.1794100787401574
11
1.5221133464566929
21
1.1733014173228347
0
LINE
8
BLACK
6
CONTINUOUS
10
1.5221133464566929
20
1.1733014173228347
11
1.511338622047244
21
1.1661019685039369
0
LINE
8
BLACK
6
CONTINUOUS
10
1.511338622047244
20
1.1661019685039369
11
1.5013214173228346
21
1.1578811023622047
0
LINE
8
BLACK
6
CONTINUOUS
10
1.5013214173228346
20
1.1578811023622047
11
1.4921582677165355
21
1.1487179527559055
0
LINE
8
BLACK
6
CONTINUOUS
10
1.4921582677165355
20
1.1487179527559055
11
1.483937401574803
21
1.1387007480314961
0
LINE
8
BLACK
6
CONTINUOUS
10
1.483937401574803
20
1.1387007480314961
11
1.4767379527559055
21
1.1279260236220472
0
LINE
8
BLACK
6
CONTINUOUS
10
1.4767379527559055
20
1.1279260236220472
11
1.4706292913385826
21
1.1164975196850393
0
LINE
8
BLACK
6
CONTINUOUS
10
1.4706292913385826
20
1.1164975196850393
11
1.4656702362204723
21
1.1045252755905512
0
LINE
8
BLACK
6
CONTINUOUS
10
1.4656702362204723
20
1.1045252755905512
11
1.4619085039370079
21
1.0921246062992125
0
LINE
8
BLACK
6
CONTINUOUS
10
1.4619085039370079
20
1.0921246062992125
11
1.4593803937007874
21
1.0794149606299213
0
LINE
8
BLACK
6
CONTINUOUS
10
1.4593803937007874
20
1.0794149606299213
11
1.4581102362204723
21
1.0665187007874015
0
LINE
8
BLACK
6
CONTINUOUS
10
1.4581102362204723
20
1.0665187007874015
11
1.4581102362204723
21
1.0535600393700788
0
LINE
8
BLACK
6
CONTINUOUS
10
-1.3219238582677164
20
1.7968974015748032
11
-1.3208585039370078
21
1.7958320472440945
0
LINE
8
BLACK
6
CONTINUOUS
10
-1.3208585039370078
20
1.7958320472440945
11
-1.3207086614173229
21
1.7950787401574804
0
LINE
8
BLACK
6
CONTINUOUS
10
-1.3207086614173229
20
1.7950787401574804
11
-1.3207086614173229
21
0.9694881889763779
0
LINE
8
BLACK
6
CONTINUOUS
10
-1.3207086614173229
20
0.9694881889763779
11
-1.3208585039370078
21
0.9687348818897638
0
LINE
8
BLACK
6
CONTINUOUS
10
-1.3208585039370078
20
0.9687348818897638
11
-1.3219238582677164
21
0.9676695275590551
0
LINE
8
BLACK
6
CONTINUOUS
10
-1.3219238582677164
20
0.9676695275590551
11
-1.3226771653543308
21
0.96751968503937
0
LINE
8
BLACK
6
CONTINUOUS
10
-1.3226771653543308
20
0.96751968503937
11
-1.67503937007874
21
0.96751968503937
0
LINE
8
BLACK
6
CONTINUOUS
10
-1.67503937007874
20
0.96751968503937
11
-1.6757926771653542
21
0.9676695275590551
0
LINE
8
BLACK
6
CONTINUOUS
10
-1.6757926771653542
20
0.9676695275590551
11
-1.6768580314960631
21
0.9687348818897638
0
LINE
8
BLACK
6
CONTINUOUS
10
-1.6768580314960631
20
0.9687348818897638
11
-1.6770078740157479
21
0.9694881889763779
0
LINE
8
BLACK
6
CONTINUOUS
10
-1.6770078740157479
20
0.9694881889763779
11
-1.6770078740157479
21
1.7950787401574804
0
LINE
8
BLACK
6
CONTINUOUS
10
-1.6770078740157479
20
1.7950787401574804
11
-1.6768580314960631
21
1.7958320472440945
0
LINE
8
BLACK
6
CONTINUOUS
10
-1.6768580314960631
20
1.7958320472440945
11
-1.6757926771653542
21
1.7968974015748032
0
LINE
8
BLACK
6
CONTINUOUS
10
-1.6757926771653542
20
1.7968974015748032
11
-1.67503937007874
21
1.7970472440944882
0
LINE
8
BLACK
6
CONTINUOUS
10
-1.67503937007874
20
1.7970472440944882
11
-1.3226771653543308
21
1.7970472440944882
0
LINE
8
BLACK
6
CONTINUOUS
10
-1.3226771653543308
20
1.7970472440944882
11
-1.3219238582677164
21
1.7968974015748032
0
LINE
8
BLACK
6
CONTINUOUS
10
-1.6730708661417322
20
0.9714566929133858
11
-1.6416027559055117
21
0.9714566929133858
0
LINE
8
BLACK
6
CONTINUOUS
10
-1.6416027559055117
20
0.9714566929133858
11
-1.6730708661417322
21
1.0029248031496063
0
LINE
8
BLACK
6
CONTINUOUS
10
-1.6730708661417322
20
1.0029248031496063
11
-1.6730708661417322
21
0.9714566929133858
0
LINE
8
BLACK
6
CONTINUOUS
10
-1.6730708661417322
20
1.0084925196850394
11
-1.6360350393700787
21
0.9714566929133858
0
LINE
8
BLACK
6
CONTINUOUS
10
-1.6360350393700787
20
0.9714566929133858
11
-1.5628626377952755
21
0.9714566929133858
0
LINE
8
BLACK
6
CONTINUOUS
10
-1.5628626377952755
20
0.9714566929133858
11
-1.6730708661417322
21
1.0816649606299213
0
LINE
8
BLACK
6
CONTINUOUS
10
-1.6730708661417322
20
1.0816649606299213
11
-1.6730708661417322
21
1.0084925196850394
0
LINE
8
BLACK
6
CONTINUOUS
10
-1.6730708661417322
20
1.087232716535433
11
-1.5572948425196851
21
0.9714566929133858
0
LINE
8
BLACK
6
CONTINUOUS
10
-1.5572948425196851
20
0.9714566929133858
11
-1.4841224803149606
21
0.9714566929133858
0
LINE
8
BLACK
6
CONTINUOUS
10
-1.4841224803149606
20
0.9714566929133858
11
-1.6730708661417322
21
1.1604051181102362
0
LINE
8
BLACK
6
CONTINUOUS
10
-1.6730708661417322
20
1.1604051181102362
11
-1.6730708661417322
21
1.087232716535433
0
LINE
8
BLACK
6
CONTINUOUS
10
-1.6730708661417322
20
1.165972874015748
11
-1.47855468503937
21
0.9714566929133858
0
LINE
8
BLACK
6
CONTINUOUS
10
-1.47855468503937
20
0.9714566929133858
11
-1.4053823228346456
21
0.9714566929133858
0
LINE
8
BLACK
6
CONTINUOUS
10
-1.4053823228346456
20
0.9714566929133858
11
-1.6730708661417322
21
1.2391452755905512
0
LINE
8
BLACK
6
CONTINUOUS
10
-1.6730708661417322
20
1.2391452755905512
11
-1.6730708661417322
21
1.165972874015748
0
LINE
8
BLACK
6
CONTINUOUS
10
-1.6730708661417322
20
1.244713031496063
11
-1.399814527559055
21
0.9714566929133858
0
LINE
8
BLACK
6
CONTINUOUS
10
-1.399814527559055
20
0.9714566929133858
11
-1.3266421653543308
21
0.9714566929133858
0
LINE
8
BLACK
6
CONTINUOUS
10
-1.3266421653543308
20
0.9714566929133858
11
-1.6730708661417322
21
1.317885433070866
0
LINE
8
BLACK
6
CONTINUOUS
10
-1.6730708661417322
20
1.317885433070866
11
-1.6730708661417322
21
1.244713031496063
0
LINE
8
BLACK
6
CONTINUOUS
10
-1.6730708661417322
20
1.3234531889763779
11
-1.3246456692913386
21
0.9750279921259842
0
LINE
8
BLACK
6
CONTINUOUS
10
-1.3246456692913386
20
0.9750279921259842
11
-1.3246456692913386
21
1.0482003937007873
0
LINE
8
BLACK
6
CONTINUOUS
10
-1.3246456692913386
20
1.0482003937007873
11
-1.6730708661417322
21
1.3966255905511811
0
LINE
8
BLACK
6
CONTINUOUS
10
-1.6730708661417322
20
1.3966255905511811
11
-1.6730708661417322
21
1.3234531889763779
0
LINE
8
BLACK
6
CONTINUOUS
10
-1.6730708661417322
20
1.4021933464566929
11
-1.3246456692913386
21
1.0537681496062992
0
LINE
8
BLACK
6
CONTINUOUS
10
-1.3246456692913386
20
1.0537681496062992
11
-1.3246456692913386
21
1.1269405511811024
0
LINE
8
BLACK
6
CONTINUOUS
10
-1.3246456692913386
20
1.1269405511811024
11
-1.6730708661417322
21
1.4753657480314961
0
LINE
8
BLACK
6
CONTINUOUS
10
-1.6730708661417322
20
1.4753657480314961
11
-1.6730708661417322
21
1.4021933464566929
0
LINE
8
BLACK
6
CONTINUOUS
10
-1.6730708661417322
20
1.4809335039370077
11
-1.3246456692913386
21
1.1325083070866142
0
LINE
8
BLACK
6
CONTINUOUS
10
-1.3246456692913386
20
1.1325083070866142
11
-1.3246456692913386
21
1.2056807086614172
0
LINE
8
BLACK
6
CONTINUOUS
10
-1.3246456692913386
20
1.2056807086614172
11
-1.6730708661417322
21
1.5541059055118109
0
LINE
8
BLACK
6
CONTINUOUS
10
-1.6730708661417322
20
1.5541059055118109
11
-1.6730708661417322
21
1.4809335039370077
0
LINE
8
BLACK
6
CONTINUOUS
10
-1.6730708661417322
20
1.5596736614173228
11
-1.3246456692913386
21
1.211248464566929
0
LINE
8
BLACK
6
CONTINUOUS
10
-1.3246456692913386
20
1.211248464566929
11
-1.3246456692913386
21
1.2844208661417322
0
LINE
8
BLACK
6
CONTINUOUS
10
-1.3246456692913386
20
1.2844208661417322
11
-1.6730708661417322
21
1.632846062992126
0
LINE
8
BLACK
6
CONTINUOUS
10
-1.6730708661417322
20
1.632846062992126
11
-1.6730708661417322
21
1.5596736614173228
0
LINE
8
BLACK
6
CONTINUOUS
10
-1.6730708661417322
20
1.6384138188976378
11
-1.3246456692913386
21
1.2899886220472441
0
LINE
8
BLACK
6
CONTINUOUS
10
-1.3246456692913386
20
1.2899886220472441
11
-1.3246456692913386
21
1.3631610236220473
0
LINE
8
BLACK
6
CONTINUOUS
10
-1.3246456692913386
20
1.3631610236220473
11
-1.6730708661417322
21
1.7115862204724408
0
LINE
8
BLACK
6
CONTINUOUS
10
-1.6730708661417322
20
1.7115862204724408
11
-1.6730708661417322
21
1.6384138188976378
0
LINE
8
BLACK
6
CONTINUOUS
10
-1.6730708661417322
20
1.7171539763779526
11
-1.3246456692913386
21
1.3687287795275591
0
LINE
8
BLACK
6
CONTINUOUS
10
-1.3246456692913386
20
1.3687287795275591
11
-1.3246456692913386
21
1.4419011811023621
0
LINE
8
BLACK
6
CONTINUOUS
10
-1.3246456692913386
20
1.4419011811023621
11
-1.6730708661417322
21
1.7903263779527558
0
LINE
8
BLACK
6
CONTINUOUS
10
-1.6730708661417322
20
1.7903263779527558
11
-1.6730708661417322
21
1.7171539763779526
0
LINE
8
BLACK
6
CONTINUOUS
10
-1.6702870078740157
20
1.7931102362204725
11
-1.3246456692913386
21
1.4474689370078739
0
LINE
8
BLACK
6
CONTINUOUS
10
-1.3246456692913386
20
1.4474689370078739
11
-1.3246456692913386
21
1.5206413385826771
0
LINE
8
BLACK
6
CONTINUOUS
10
-1.3246456692913386
20
1.5206413385826771
11
-1.5971145669291338
21
1.7931102362204725
0
LINE
8
BLACK
6
CONTINUOUS
10
-1.5971145669291338
20
1.7931102362204725
11
-1.6702870078740157
21
1.7931102362204725
0
LINE
8
BLACK
6
CONTINUOUS
10
-1.5915468503937007
20
1.7931102362204725
11
-1.3246456692913386
21
1.526209094488189
0
LINE
8
BLACK
6
CONTINUOUS
10
-1.3246456692913386
20
1.526209094488189
11
-1.3246456692913386
21
1.5993814960629922
0
LINE
8
BLACK
6
CONTINUOUS
10
-1.3246456692913386
20
1.5993814960629922
11
-1.518374409448819
21
1.7931102362204725
0
LINE
8
BLACK
6
CONTINUOUS
10
-1.518374409448819
20
1.7931102362204725
11
-1.5915468503937007
21
1.7931102362204725
0
LINE
8
BLACK
6
CONTINUOUS
10
-1.5128066929133859
20
1.7931102362204725
11
-1.3246456692913386
21
1.6049492125984253
0
LINE
8
BLACK
6
CONTINUOUS
10
-1.3246456692913386
20
1.6049492125984253
11
-1.3246456692913386
21
1.678121653543307
0
LINE
8
BLACK
6
CONTINUOUS
10
-1.3246456692913386
20
1.678121653543307
11
-1.4396342519685039
21
1.7931102362204725
0
LINE
8
BLACK
6
CONTINUOUS
10
-1.4396342519685039
20
1.7931102362204725
11
-1.5128066929133859
21
1.7931102362204725
0
LINE
8
BLACK
6
CONTINUOUS
10
-1.4340665354330708
20
1.7931102362204725
11
-1.3246456692913386
21
1.6836893700787401
0
LINE
8
BLACK
6
CONTINUOUS
10
-1.3246456692913386
20
1.6836893700787401
11
-1.3246456692913386
21
1.756861811023622
0
LINE
8
BLACK
6
CONTINUOUS
10
-1.3246456692913386
20
1.756861811023622
11
-1.3608940944881889
21
1.7931102362204725
0
LINE
8
BLACK
6
CONTINUOUS
10
-1.3608940944881889
20
1.7931102362204725
11
-1.4340665354330708
21
1.7931102362204725
0
LINE
8
BLACK
6
CONTINUOUS
10
-1.3553263779527558
20
1.7931102362204725
11
-1.3246456692913386
21
1.7624295275590551
0
LINE
8
BLACK
6
CONTINUOUS
10
-1.3246456692913386
20
1.7624295275590551
11
-1.3246456692913386
21
1.7931102362204725
0
LINE
8
BLACK
6
CONTINUOUS
10
-1.3246456692913386
20
1.7931102362204725
11
-1.3553263779527558
21
1.7931102362204725
0
CIRCLE
8
BLACK
10
1.7
20
1.9450000000000001
40
0.0068897637795276
0
CIRCLE
8
BLACK
10
1.5999999999999999
20
1.9450000000000001
40
0.0068897637795276
0
CIRCLE
8
BLACK
10
1.7
20
2.0449999999999999
40
0.0068897637795276
0
CIRCLE
8
BLACK
10
1.5999999999999999
20
2.0449999999999999
40
0.0068897637795276
0
CIRCLE
8
BLACK
10
1.7
20
2.145
40
0.0068897637795276
0
CIRCLE
8
BLACK
10
1.5999999999999999
20
2.145
40
0.0068897637795276
0
CIRCLE
8
BLACK
10
-0.24
20
0.635
40
0.0068897637795276
0
CIRCLE
8
BLACK
10
-0.24
20
0.535
40
0.0068897637795276
0
CIRCLE
8
BLACK
10
-0.34
20
0.635
40
0.0068897637795276
0
CIRCLE
8
BLACK
10
-0.34
20
0.535
40
0.0068897637795276
0
CIRCLE
8
BLACK
10
-0.44
20
0.635
40
0.0068897637795276
0
CIRCLE
8
BLACK
10
-0.44
20
0.535
40
0.0068897637795276
0
CIRCLE
8
BLACK
10
-0.54
20
0.635
40
0.0068897637795276
0
CIRCLE
8
BLACK
10
-0.54
20
0.535
40
0.0068897637795276
0
CIRCLE
8
BLACK
10
-0.64
20
0.635
40
0.0068897637795276
0
CIRCLE
8
BLACK
10
-0.64
20
0.535
40
0.0068897637795276
0
CIRCLE
8
BLACK
10
-1.99
20
2.625
40
0.0068897637795276
0
CIRCLE
8
BLACK
10
1.6099999999999999
20
2.625
40
0.0068897637795276
0
CIRCLE
8
BLACK
10
-1.24
20
2.6149999999999998
40
0.0068897637795276
0
CIRCLE
8
BLACK
10
-1.24
20
2.7149999999999999
40
0.0068897637795276
0
CIRCLE
8
BLACK
10
-1.1399999999999999
20
2.6149999999999998
40
0.0068897637795276
0
CIRCLE
8
BLACK
10
-1.1399999999999999
20
2.7149999999999999
40
0.0068897637795276
0
CIRCLE
8
BLACK
10
-1.04
20
2.6149999999999998
40
0.0068897637795276
0
CIRCLE
8
BLACK
10
-1.04
20
2.7149999999999999
40
0.0068897637795276
0
CIRCLE
8
BLACK
10
-0.9399999999999999
20
2.6149999999999998
40
0.0068897637795276
0
CIRCLE
8
BLACK
10
-0.9399999999999999
20
2.7149999999999999
40
0.0068897637795276
0
CIRCLE
8
BLACK
10
-0.84
20
2.6149999999999998
40
0.0068897637795276
0
CIRCLE
8
BLACK
10
-0.84
20
2.7149999999999999
40
0.0068897637795276
0
CIRCLE
8
BLACK
10
-0.74
20
2.6149999999999998
40
0.0068897637795276
0
CIRCLE
8
BLACK
10
-0.74
20
2.7149999999999999
40
0.0068897637795276
0
CIRCLE
8
BLACK
10
-0.64
20
2.6149999999999998
40
0.0068897637795276
0
CIRCLE
8
BLACK
10
-0.64
20
2.7149999999999999
40
0.0068897637795276
0
CIRCLE
8
BLACK
10
-0.51
20
2.6149999999999998
40
0.0068897637795276
0
CIRCLE
8
BLACK
10
-0.51
20
2.7149999999999999
40
0.0068897637795276
0
CIRCLE
8
BLACK
10
-0.41
20
2.6149999999999998
40
0.0068897637795276
0
CIRCLE
8
BLACK
10
-0.41
20
2.7149999999999999
40
0.0068897637795276
0
CIRCLE
8
BLACK
10
-0.31
20
2.6149999999999998
40
0.0068897637795276
0
CIRCLE
8
BLACK
10
-0.31
20
2.7149999999999999
40
0.0068897637795276
0
CIRCLE
8
BLACK
10
-1.99
20
0.625
40
0.0068897637795276
0
CIRCLE
8
BLACK
10
-1.2793700787401574
20
1.8277559055118109
40
0.0068897637795276
0
CIRCLE
8
BLACK
10
-1.2793700787401574
20
1.0009842519685039
40
0.0068897637795276
0
CIRCLE
8
BLACK
10
-1.99
20
2.2050000000000001
40
0.0068897637795276
0
CIRCLE
8
BLACK
10
-2.0899999999999999
20
2.3050000000000002
40
0.0068897637795276
0
CIRCLE
8
BLACK
10
-2.0899999999999999
20
2.105
40
0.0068897637795276
0
CIRCLE
8
BLACK
10
-1.8899999999999999
20
2.3050000000000002
40
0.0068897637795276
0
CIRCLE
8
BLACK
10
-1.8899999999999999
20
2.105
40
0.0068897637795276
0
CIRCLE
8
BLACK
10
0.9399999999999999
20
2.4049999999999998
40
0.0068897637795276
0
CIRCLE
8
BLACK
10
1.235275590551181
20
2.4049999999999998
40
0.0068897637795276
0
CIRCLE
8
BLACK
10
-1.0069291338582678
20
1.776496062992126
40
0.0068897637795276
0
CIRCLE
8
BLACK
10
-0.9069291338582677
20
1.776496062992126
40
0.0068897637795276
0
CIRCLE
8
BLACK
10
1.6099999999999999
20
0.625
40
0.0068897637795276
0
CIRCLE
8
BLACK
10
-1.47
20
2.6149999999999998
40
0.0068897637795276
0
CIRCLE
8
BLACK
10
-1.47
20
2.7149999999999999
40
0.0068897637795276
0
CIRCLE
8
BLACK
10
-1.3699999999999999
20
2.6149999999999998
40
0.0068897637795276
0
CIRCLE
8
BLACK
10
-1.3699999999999999
20
2.7149999999999999
40
0.0068897637795276
0
CIRCLE
8
BLACK
10
0.33
20
2.0049999999999999
40
0.0068897637795276
0
CIRCLE
8
BLACK
10
0.43
20
2.0049999999999999
40
0.0068897637795276
0
CIRCLE
8
BLACK
10
-1.1699999999999999
20
0.535
40
0.0068897637795276
0
CIRCLE
8
BLACK
10
-1.1699999999999999
20
0.635
40
0.0068897637795276
0
CIRCLE
8
BLACK
10
-1.0700000000000001
20
0.535
40
0.0068897637795276
0
CIRCLE
8
BLACK
10
-1.0700000000000001
20
0.635
40
0.0068897637795276
0
CIRCLE
8
BLACK
10
-0.97
20
0.535
40
0.0068897637795276
0
CIRCLE
8
BLACK
10
-0.97
20
0.635
40
0.0068897637795276
0
CIRCLE
8
BLACK
10
-0.87
20
0.535
40
0.0068897637795276
0
CIRCLE
8
BLACK
10
-0.87
20
0.635
40
0.0068897637795276
0
CIRCLE
8
BLACK
10
-0.77
20
0.535
40
0.0068897637795276
0
CIRCLE
8
BLACK
10
-0.77
20
0.635
40
0.0068897637795276
0
CIRCLE
8
BLACK
10
1.5999999999999999
20
1.7249999999999999
40
0.0068897637795276
0
CIRCLE
8
BLACK
10
1.7
20
1.7249999999999999
40
0.0068897637795276
0
CIRCLE
8
BLACK
10
1.5999999999999999
20
1.625
40
0.0068897637795276
0
CIRCLE
8
BLACK
10
1.7
20
1.625
40
0.0068897637795276
0
CIRCLE
8
BLACK
10
1.5999999999999999
20
1.5249999999999999
40
0.0068897637795276
0
CIRCLE
8
BLACK
10
1.7
20
1.5249999999999999
40
0.0068897637795276
0
CIRCLE
8
BLACK
10
-0.9194488188976377
20
2.2426181102362204
40
0.0039370078740157
0
CIRCLE
8
BLACK
10
-0.9607874015748031
20
2.2426181102362204
40
0.0039370078740157
0
CIRCLE
8
BLACK
10
-1.0021259842519685
20
2.2426181102362204
40
0.0039370078740157
0
CIRCLE
8
BLACK
10
-0.9194488188976377
20
2.2012795275590551
40
0.0039370078740157
0
CIRCLE
8
BLACK
10
-0.9607874015748031
20
2.2012795275590551
40
0.0039370078740157
0
CIRCLE
8
BLACK
10
-1.0021259842519685
20
2.2012795275590551
40
0.0039370078740157
0
CIRCLE
8
BLACK
10
-0.9194488188976377
20
2.1599409448818898
40
0.0039370078740157
0
CIRCLE
8
BLACK
10
-0.9607874015748031
20
2.1599409448818898
40
0.0039370078740157
0
CIRCLE
8
BLACK
10
-1.0021259842519685
20
2.1599409448818898
40
0.0039370078740157
0
CIRCLE
8
BLACK
10
-0.4301574803149606
20
2.3624015748031497
40
0.0049212598425197
0
CIRCLE
8
BLACK
10
-0.3907874015748031
20
2.3624015748031497
40
0.0049212598425197
0
CIRCLE
8
BLACK
10
1.7
20
1.9450000000000001
40
0.0068897637795276
0
CIRCLE
8
BLACK
10
1.5999999999999999
20
1.9450000000000001
40
0.0068897637795276
0
CIRCLE
8
BLACK
10
1.7
20
2.0449999999999999
40
0.0068897637795276
0
CIRCLE
8
BLACK
10
1.5999999999999999
20
2.0449999999999999
40
0.0068897637795276
0
CIRCLE
8
BLACK
10
1.7
20
2.145
40
0.0068897637795276
0
CIRCLE
8
BLACK
10
1.5999999999999999
20
2.145
40
0.0068897637795276
0
CIRCLE
8
BLACK
10
-0.24
20
0.635
40
0.0068897637795276
0
CIRCLE
8
BLACK
10
-0.24
20
0.535
40
0.0068897637795276
0
CIRCLE
8
BLACK
10
-0.34
20
0.635
40
0.0068897637795276
0
CIRCLE
8
BLACK
10
-0.34
20
0.535
40
0.0068897637795276
0
CIRCLE
8
BLACK
10
-0.44
20
0.635
40
0.0068897637795276
0
CIRCLE
8
BLACK
10
-0.44
20
0.535
40
0.0068897637795276
0
CIRCLE
8
BLACK
10
-0.54
20
0.635
40
0.0068897637795276
0
CIRCLE
8
BLACK
10
-0.54
20
0.535
40
0.0068897637795276
0
CIRCLE
8
BLACK
10
-0.64
20
0.635
40
0.0068897637795276
0
CIRCLE
8
BLACK
10
-0.64
20
0.535
40
0.0068897637795276
0
CIRCLE
8
BLACK
10
-1.99
20
2.625
40
0.0068897637795276
0
CIRCLE
8
BLACK
10
1.6099999999999999
20
2.625
40
0.0068897637795276
0
CIRCLE
8
BLACK
10
-1.24
20
2.6149999999999998
40
0.0068897637795276
0
CIRCLE
8
BLACK
10
-1.24
20
2.7149999999999999
40
0.0068897637795276
0
CIRCLE
8
BLACK
10
-1.1399999999999999
20
2.6149999999999998
40
0.0068897637795276
0
CIRCLE
8
BLACK
10
-1.1399999999999999
20
2.7149999999999999
40
0.0068897637795276
0
CIRCLE
8
BLACK
10
-1.04
20
2.6149999999999998
40
0.0068897637795276
0
CIRCLE
8
BLACK
10
-1.04
20
2.7149999999999999
40
0.0068897637795276
0
CIRCLE
8
BLACK
10
-0.9399999999999999
20
2.6149999999999998
40
0.0068897637795276
0
CIRCLE
8
BLACK
10
-0.9399999999999999
20
2.7149999999999999
40
0.0068897637795276
0
CIRCLE
8
BLACK
10
-0.84
20
2.6149999999999998
40
0.0068897637795276
0
CIRCLE
8
BLACK
10
-0.84
20
2.7149999999999999
40
0.0068897637795276
0
CIRCLE
8
BLACK
10
-0.74
20
2.6149999999999998
40
0.0068897637795276
0
CIRCLE
8
BLACK
10
-0.74
20
2.7149999999999999
40
0.0068897637795276
0
CIRCLE
8
BLACK
10
-0.64
20
2.6149999999999998
40
0.0068897637795276
0
CIRCLE
8
BLACK
10
-0.64
20
2.7149999999999999
40
0.0068897637795276
0
CIRCLE
8
BLACK
10
-0.51
20
2.6149999999999998
40
0.0068897637795276
0
CIRCLE
8
BLACK
10
-0.51
20
2.7149999999999999
40
0.0068897637795276
0
CIRCLE
8
BLACK
10
-0.41
20
2.6149999999999998
40
0.0068897637795276
0
CIRCLE
8
BLACK
10
-0.41
20
2.7149999999999999
40
0.0068897637795276
0
CIRCLE
8
BLACK
10
-0.31
20
2.6149999999999998
40
0.0068897637795276
0
CIRCLE
8
BLACK
10
-0.31
20
2.7149999999999999
40
0.0068897637795276
0
CIRCLE
8
BLACK
10
-1.99
20
0.625
40
0.0068897637795276
0
CIRCLE
8
BLACK
10
-1.2793700787401574
20
1.8277559055118109
40
0.0068897637795276
0
CIRCLE
8
BLACK
10
-1.2793700787401574
20
1.0009842519685039
40
0.0068897637795276
0
CIRCLE
8
BLACK
10
-1.99
20
2.2050000000000001
40
0.0068897637795276
0
CIRCLE
8
BLACK
10
-2.0899999999999999
20
2.3050000000000002
40
0.0068897637795276
0
CIRCLE
8
BLACK
10
-2.0899999999999999
20
2.105
40
0.0068897637795276
0
CIRCLE
8
BLACK
10
-1.8899999999999999
20
2.3050000000000002
40
0.0068897637795276
0
CIRCLE
8
BLACK
10
-1.8899999999999999
20
2.105
40
0.0068897637795276
0
CIRCLE
8
BLACK
10
0.9399999999999999
20
2.4049999999999998
40
0.0068897637795276
0
CIRCLE
8
BLACK
10
1.235275590551181
20
2.4049999999999998
40
0.0068897637795276
0
CIRCLE
8
BLACK
10
-1.0069291338582678
20
1.776496062992126
40
0.0068897637795276
0
CIRCLE
8
BLACK
10
-0.9069291338582677
20
1.776496062992126
40
0.0068897637795276
0
CIRCLE
8
BLACK
10
1.6099999999999999
20
0.625
40
0.0068897637795276
0
CIRCLE
8
BLACK
10
-1.47
20
2.6149999999999998
40
0.0068897637795276
0
CIRCLE
8
BLACK
10
-1.47
20
2.7149999999999999
40
0.0068897637795276
0
CIRCLE
8
BLACK
10
-1.3699999999999999
20
2.6149999999999998
40
0.0068897637795276
0
CIRCLE
8
BLACK
10
-1.3699999999999999
20
2.7149999999999999
40
0.0068897637795276
0
CIRCLE
8
BLACK
10
0.33
20
2.0049999999999999
40
0.0068897637795276
0
CIRCLE
8
BLACK
10
0.43
20
2.0049999999999999
40
0.0068897637795276
0
CIRCLE
8
BLACK
10
-1.1699999999999999
20
0.535
40
0.0068897637795276
0
CIRCLE
8
BLACK
10
-1.1699999999999999
20
0.635
40
0.0068897637795276
0
CIRCLE
8
BLACK
10
-1.0700000000000001
20
0.535
40
0.0068897637795276
0
CIRCLE
8
BLACK
10
-1.0700000000000001
20
0.635
40
0.0068897637795276
0
CIRCLE
8
BLACK
10
-0.97
20
0.535
40
0.0068897637795276
0
CIRCLE
8
BLACK
10
-0.97
20
0.635
40
0.0068897637795276
0
CIRCLE
8
BLACK
10
-0.87
20
0.535
40
0.0068897637795276
0
CIRCLE
8
BLACK
10
-0.87
20
0.635
40
0.0068897637795276
0
CIRCLE
8
BLACK
10
-0.77
20
0.535
40
0.0068897637795276
0
CIRCLE
8
BLACK
10
-0.77
20
0.635
40
0.0068897637795276
0
CIRCLE
8
BLACK
10
1.5999999999999999
20
1.7249999999999999
40
0.0068897637795276
0
CIRCLE
8
BLACK
10
1.7
20
1.7249999999999999
40
0.0068897637795276
0
CIRCLE
8
BLACK
10
1.5999999999999999
20
1.625
40
0.0068897637795276
0
CIRCLE
8
BLACK
10
1.7
20
1.625
40
0.0068897637795276
0
CIRCLE
8
BLACK
10
1.5999999999999999
20
1.5249999999999999
40
0.0068897637795276
0
CIRCLE
8
BLACK
10
1.7
20
1.5249999999999999
40
0.0068897637795276
0
CIRCLE
8
BLACK
10
-0.9194488188976377
20
2.2426181102362204
40
0.0039370078740157
0
CIRCLE
8
BLACK
10
-0.9607874015748031
20
2.2426181102362204
40
0.0039370078740157
0
CIRCLE
8
BLACK
10
-1.0021259842519685
20
2.2426181102362204
40
0.0039370078740157
0
CIRCLE
8
BLACK
10
-0.9194488188976377
20
2.2012795275590551
40
0.0039370078740157
0
CIRCLE
8
BLACK
10
-0.9607874015748031
20
2.2012795275590551
40
0.0039370078740157
0
CIRCLE
8
BLACK
10
-1.0021259842519685
20
2.2012795275590551
40
0.0039370078740157
0
CIRCLE
8
BLACK
10
-0.9194488188976377
20
2.1599409448818898
40
0.0039370078740157
0
CIRCLE
8
BLACK
10
-0.9607874015748031
20
2.1599409448818898
40
0.0039370078740157
0
CIRCLE
8
BLACK
10
-1.0021259842519685
20
2.1599409448818898
40
0.0039370078740157
0
CIRCLE
8
BLACK
10
-0.4301574803149606
20
2.3624015748031497
40
0.0049212598425197
0
CIRCLE
8
BLACK
10
-0.3907874015748031
20
2.3624015748031497
40
0.0049212598425197
  0
ENDSEC
  0
EOF
