  0
SECTION
  2
HEADER
  9
$ANGBASE
  50
0.0
  9
$ANGDIR
  70
1
  9
$MEASUREMENT
  70
0
  0
ENDSEC
  0
SECTION
  2
TABLES
  0
TABLE
  2
LTYPE
  70
4
  0
LTYPE
  5
40F
  2
CONTINUOUS
  70
0
  3
Solid line
  72
65
  73
0
  40
0.0
  0
LTYPE
  5
410
  2
DASHDOT
 70
0
  3
Dash Dot ____ _ ____ _
 72
65
 73
4
 40
2.0
 49
1.25
 49
-0.25
 49
0.25
 49
-0.25
  0
LTYPE
  5
411
  2
DASHED
 70
0
  3
Dashed __ __ __ __ __
 72
65
 73
2
 40
0.75
 49
0.5
 49
-0.25
  0
LTYPE
  5
43B
  2
DOTTED
 70
0
  3
Dotted .  .  .  .
 72
65
 73
2
 40
0.2
 49
0.0
 49
-0.2
  0
ENDTAB
  0
TABLE
  2
STYLE
  70
4
  0
STYLE
  2
KICAD
  70
0
  40
0
  41
1
  42
1
  50
0
  71
0
  3
isocp.shx
  0
STYLE
  2
KICADB
  70
0
  40
0
  41
1
  42
1
  50
0
  71
0
  3
isocp.shx
  0
STYLE
  2
KICADI
  70
0
  40
0
  41
1
  42
1
  50
15
  71
0
  3
isocp.shx
  0
STYLE
  2
KICADBI
  70
0
  40
0
  41
1
  42
1
  50
15
  71
0
  3
isocp.shx
  0
ENDTAB
  0
TABLE
  2
LAYER
  70
1
  0
LAYER
  2
BLACK
  70
0
  62
7
  6
CONTINUOUS
  0
ENDTAB
  0
ENDSEC
  0
SECTION
  2
ENTITIES
0
LINE
8
BLACK
6
CONTINUOUS
10
0.2108097244094488
20
0.7118935826771653
11
0.2113424015748031
21
0.711360905511811
0
LINE
8
BLACK
6
CONTINUOUS
10
0.2113424015748031
20
0.711360905511811
11
0.2114173228346457
21
0.7109842519685039
0
LINE
8
BLACK
6
CONTINUOUS
10
0.2114173228346457
20
0.7109842519685039
11
0.2114173228346457
21
0.459015748031496
0
LINE
8
BLACK
6
CONTINUOUS
10
0.2114173228346457
20
0.459015748031496
11
0.2113424015748031
21
0.458639094488189
0
LINE
8
BLACK
6
CONTINUOUS
10
0.2113424015748031
20
0.458639094488189
11
0.2108097244094488
21
0.4581064173228346
0
LINE
8
BLACK
6
CONTINUOUS
10
0.2108097244094488
20
0.4581064173228346
11
0.2104330708661417
21
0.4580314960629921
0
LINE
8
BLACK
6
CONTINUOUS
10
0.2104330708661417
20
0.4580314960629921
11
-0.1612204724409449
21
0.4580314960629921
0
LINE
8
BLACK
6
CONTINUOUS
10
-0.1612204724409449
20
0.4580314960629921
11
-0.161597125984252
21
0.4581064173228346
0
LINE
8
BLACK
6
CONTINUOUS
10
-0.161597125984252
20
0.4581064173228346
11
-0.1621298031496063
21
0.458639094488189
0
LINE
8
BLACK
6
CONTINUOUS
10
-0.1621298031496063
20
0.458639094488189
11
-0.1622047244094488
21
0.459015748031496
0
LINE
8
BLACK
6
CONTINUOUS
10
-0.1622047244094488
20
0.459015748031496
11
-0.1622047244094488
21
0.7109842519685039
0
LINE
8
BLACK
6
CONTINUOUS
10
-0.1622047244094488
20
0.7109842519685039
11
-0.1621298031496063
21
0.711360905511811
0
LINE
8
BLACK
6
CONTINUOUS
10
-0.1621298031496063
20
0.711360905511811
11
-0.161597125984252
21
0.7118935826771653
0
LINE
8
BLACK
6
CONTINUOUS
10
-0.161597125984252
20
0.7118935826771653
11
-0.1612204724409449
21
0.7119685039370078
0
LINE
8
BLACK
6
CONTINUOUS
10
-0.1612204724409449
20
0.7119685039370078
11
0.2104330708661417
21
0.7119685039370078
0
LINE
8
BLACK
6
CONTINUOUS
10
0.2104330708661417
20
0.7119685039370078
11
0.2108097244094488
21
0.7118935826771653
0
LINE
8
BLACK
6
CONTINUOUS
10
-0.1602362204724409
20
0.71
11
-0.1602362204724409
21
0.46
0
LINE
8
BLACK
6
CONTINUOUS
10
-0.1602362204724409
20
0.46
11
0.2094488188976378
21
0.46
0
LINE
8
BLACK
6
CONTINUOUS
10
0.2094488188976378
20
0.46
11
0.2094488188976378
21
0.71
0
LINE
8
BLACK
6
CONTINUOUS
10
0.2094488188976378
20
0.71
11
-0.1602362204724409
21
0.71
0
LINE
8
BLACK
6
CONTINUOUS
10
0.7004160236220472
20
0.7118935826771653
11
0.7009487007874016
21
0.711360905511811
0
LINE
8
BLACK
6
CONTINUOUS
10
0.7009487007874016
20
0.711360905511811
11
0.7010236220472441
21
0.7109842519685039
0
LINE
8
BLACK
6
CONTINUOUS
10
0.7010236220472441
20
0.7109842519685039
11
0.7010236220472441
21
0.459015748031496
0
LINE
8
BLACK
6
CONTINUOUS
10
0.7010236220472441
20
0.459015748031496
11
0.7009487007874016
21
0.458639094488189
0
LINE
8
BLACK
6
CONTINUOUS
10
0.7009487007874016
20
0.458639094488189
11
0.7004160236220472
21
0.4581064173228346
0
LINE
8
BLACK
6
CONTINUOUS
10
0.7004160236220472
20
0.4581064173228346
11
0.7000393700787402
21
0.4580314960629921
0
LINE
8
BLACK
6
CONTINUOUS
10
0.7000393700787402
20
0.4580314960629921
11
0.2291732283464567
21
0.4580314960629921
0
LINE
8
BLACK
6
CONTINUOUS
10
0.2291732283464567
20
0.4580314960629921
11
0.2287965748031496
21
0.4581064173228346
0
LINE
8
BLACK
6
CONTINUOUS
10
0.2287965748031496
20
0.4581064173228346
11
0.2282638976377953
21
0.458639094488189
0
LINE
8
BLACK
6
CONTINUOUS
10
0.2282638976377953
20
0.458639094488189
11
0.2281889763779527
21
0.459015748031496
0
LINE
8
BLACK
6
CONTINUOUS
10
0.2281889763779527
20
0.459015748031496
11
0.2281889763779527
21
0.7109842519685039
0
LINE
8
BLACK
6
CONTINUOUS
10
0.2281889763779527
20
0.7109842519685039
11
0.2282638976377953
21
0.711360905511811
0
LINE
8
BLACK
6
CONTINUOUS
10
0.2282638976377953
20
0.711360905511811
11
0.2287965748031496
21
0.7118935826771653
0
LINE
8
BLACK
6
CONTINUOUS
10
0.2287965748031496
20
0.7118935826771653
11
0.2291732283464567
21
0.7119685039370078
0
LINE
8
BLACK
6
CONTINUOUS
10
0.2291732283464567
20
0.7119685039370078
11
0.7000393700787402
21
0.7119685039370078
0
LINE
8
BLACK
6
CONTINUOUS
10
0.7000393700787402
20
0.7119685039370078
11
0.7004160236220472
21
0.7118935826771653
0
LINE
8
BLACK
6
CONTINUOUS
10
0.2301574803149606
20
0.71
11
0.2301574803149606
21
0.46
0
LINE
8
BLACK
6
CONTINUOUS
10
0.2301574803149606
20
0.46
11
0.6990551181102362
21
0.46
0
LINE
8
BLACK
6
CONTINUOUS
10
0.6990551181102362
20
0.46
11
0.6990551181102362
21
0.71
0
LINE
8
BLACK
6
CONTINUOUS
10
0.6990551181102362
20
0.71
11
0.2301574803149606
21
0.71
0
LINE
8
BLACK
6
CONTINUOUS
10
1.099589251968504
20
0.7814605118110236
11
1.1001219291338582
21
0.7809278346456693
0
LINE
8
BLACK
6
CONTINUOUS
10
1.1001219291338582
20
0.7809278346456693
11
1.1001968503937007
21
0.7805511811023622
0
LINE
8
BLACK
6
CONTINUOUS
10
1.1001968503937007
20
0.7805511811023622
11
1.1001968503937007
21
0.5994488188976378
0
LINE
8
BLACK
6
CONTINUOUS
10
1.1001968503937007
20
0.5994488188976378
11
1.1001219291338582
21
0.5990721653543307
0
LINE
8
BLACK
6
CONTINUOUS
10
1.1001219291338582
20
0.5990721653543307
11
1.099589251968504
21
0.5985394881889764
0
LINE
8
BLACK
6
CONTINUOUS
10
1.099589251968504
20
0.5985394881889764
11
1.0992125984251968
21
0.5984645669291339
0
LINE
8
BLACK
6
CONTINUOUS
10
1.0992125984251968
20
0.5984645669291339
11
1.0007874015748031
21
0.5984645669291339
0
LINE
8
BLACK
6
CONTINUOUS
10
1.0007874015748031
20
0.5984645669291339
11
1.0004107480314961
21
0.5985394881889764
0
LINE
8
BLACK
6
CONTINUOUS
10
1.0004107480314961
20
0.5985394881889764
11
0.9998780708661417
21
0.5990721653543307
0
LINE
8
BLACK
6
CONTINUOUS
10
0.9998780708661417
20
0.5990721653543307
11
0.9998031496062992
21
0.5994488188976378
0
LINE
8
BLACK
6
CONTINUOUS
10
0.9998031496062992
20
0.5994488188976378
11
0.9998031496062992
21
0.7805511811023622
0
LINE
8
BLACK
6
CONTINUOUS
10
0.9998031496062992
20
0.7805511811023622
11
0.9998780708661417
21
0.7809278346456693
0
LINE
8
BLACK
6
CONTINUOUS
10
0.9998780708661417
20
0.7809278346456693
11
1.0004107480314961
21
0.7814605118110236
0
LINE
8
BLACK
6
CONTINUOUS
10
1.0004107480314961
20
0.7814605118110236
11
1.0007874015748031
21
0.7815354330708661
0
LINE
8
BLACK
6
CONTINUOUS
10
1.0007874015748031
20
0.7815354330708661
11
1.0992125984251968
21
0.7815354330708661
0
LINE
8
BLACK
6
CONTINUOUS
10
1.0992125984251968
20
0.7815354330708661
11
1.099589251968504
21
0.7814605118110236
0
LINE
8
BLACK
6
CONTINUOUS
10
1.001771653543307
20
0.7795669291338583
11
1.001771653543307
21
0.6004330708661417
0
LINE
8
BLACK
6
CONTINUOUS
10
1.001771653543307
20
0.6004330708661417
11
1.0982283464566929
21
0.6004330708661417
0
LINE
8
BLACK
6
CONTINUOUS
10
1.0982283464566929
20
0.6004330708661417
11
1.0982283464566929
21
0.7795669291338583
0
LINE
8
BLACK
6
CONTINUOUS
10
1.0982283464566929
20
0.7795669291338583
11
1.001771653543307
21
0.7795669291338583
0
LINE
8
BLACK
6
CONTINUOUS
10
1.5067575984251969
20
0.8856209448818897
11
1.5142488582677165
21
0.8831868503937008
0
LINE
8
BLACK
6
CONTINUOUS
10
1.5142488582677165
20
0.8831868503937008
11
1.5212671653543306
21
0.8796108661417322
0
LINE
8
BLACK
6
CONTINUOUS
10
1.5212671653543306
20
0.8796108661417322
11
1.5276396062992126
21
0.8749810236220472
0
LINE
8
BLACK
6
CONTINUOUS
10
1.5276396062992126
20
0.8749810236220472
11
1.5332093700787401
21
0.8694112598425197
0
LINE
8
BLACK
6
CONTINUOUS
10
1.5332093700787401
20
0.8694112598425197
11
1.5378392125984253
21
0.8630388188976378
0
LINE
8
BLACK
6
CONTINUOUS
10
1.5378392125984253
20
0.8630388188976378
11
1.5414151968503937
21
0.8560205118110236
0
LINE
8
BLACK
6
CONTINUOUS
10
1.5414151968503937
20
0.8560205118110236
11
1.5438492913385826
21
0.8485292519685039
0
LINE
8
BLACK
6
CONTINUOUS
10
1.5438492913385826
20
0.8485292519685039
11
1.5450814960629922
21
0.8407494094488189
0
LINE
8
BLACK
6
CONTINUOUS
10
1.5450814960629922
20
0.8407494094488189
11
1.5450814960629922
21
0.8328726377952755
0
LINE
8
BLACK
6
CONTINUOUS
10
1.5450814960629922
20
0.8328726377952755
11
1.5438492913385826
21
0.8250927952755905
0
LINE
8
BLACK
6
CONTINUOUS
10
1.5438492913385826
20
0.8250927952755905
11
1.5414151968503937
21
0.8176015354330709
0
LINE
8
BLACK
6
CONTINUOUS
10
1.5414151968503937
20
0.8176015354330709
11
1.5378392125984253
21
0.8105832283464567
0
LINE
8
BLACK
6
CONTINUOUS
10
1.5378392125984253
20
0.8105832283464567
11
1.5332093700787401
21
0.8042107874015748
0
LINE
8
BLACK
6
CONTINUOUS
10
1.5332093700787401
20
0.8042107874015748
11
1.5276396062992126
21
0.7986410236220473
0
LINE
8
BLACK
6
CONTINUOUS
10
1.5276396062992126
20
0.7986410236220473
11
1.5212671653543306
21
0.7940111811023622
0
LINE
8
BLACK
6
CONTINUOUS
10
1.5212671653543306
20
0.7940111811023622
11
1.5142488582677165
21
0.7904351968503937
0
LINE
8
BLACK
6
CONTINUOUS
10
1.5142488582677165
20
0.7904351968503937
11
1.5067575984251969
21
0.7880011023622047
0
LINE
8
BLACK
6
CONTINUOUS
10
1.5067575984251969
20
0.7880011023622047
11
1.4989777559055117
21
0.7867688976377952
0
LINE
8
BLACK
6
CONTINUOUS
10
1.4989777559055117
20
0.7867688976377952
11
1.4911009842519685
21
0.7867688976377952
0
LINE
8
BLACK
6
CONTINUOUS
10
1.4911009842519685
20
0.7867688976377952
11
1.4833211417322834
21
0.7880011023622047
0
LINE
8
BLACK
6
CONTINUOUS
10
1.4833211417322834
20
0.7880011023622047
11
1.4758298818897637
21
0.7904351968503937
0
LINE
8
BLACK
6
CONTINUOUS
10
1.4758298818897637
20
0.7904351968503937
11
1.4688115748031496
21
0.7940111811023622
0
LINE
8
BLACK
6
CONTINUOUS
10
1.4688115748031496
20
0.7940111811023622
11
1.4624391338582676
21
0.7986410236220473
0
LINE
8
BLACK
6
CONTINUOUS
10
1.4624391338582676
20
0.7986410236220473
11
1.4568693700787401
21
0.8042107874015748
0
LINE
8
BLACK
6
CONTINUOUS
10
1.4568693700787401
20
0.8042107874015748
11
1.4522395275590552
21
0.8105832283464567
0
LINE
8
BLACK
6
CONTINUOUS
10
1.4522395275590552
20
0.8105832283464567
11
1.4486635433070867
21
0.8176015354330709
0
LINE
8
BLACK
6
CONTINUOUS
10
1.4486635433070867
20
0.8176015354330709
11
1.4462294488188976
21
0.8250927952755905
0
LINE
8
BLACK
6
CONTINUOUS
10
1.4462294488188976
20
0.8250927952755905
11
1.4449972440944883
21
0.8328726377952755
0
LINE
8
BLACK
6
CONTINUOUS
10
1.4449972440944883
20
0.8328726377952755
11
1.4449972440944883
21
0.8406066929133859
0
LINE
8
BLACK
6
CONTINUOUS
10
1.4449972440944883
20
0.8406066929133859
11
1.4449972440944883
21
0.8407494094488189
0
LINE
8
BLACK
6
CONTINUOUS
10
1.4449972440944883
20
0.8407494094488189
11
1.4462294488188976
21
0.8485292519685039
0
LINE
8
BLACK
6
CONTINUOUS
10
1.4462294488188976
20
0.8485292519685039
11
1.4486635433070867
21
0.8560205118110236
0
LINE
8
BLACK
6
CONTINUOUS
10
1.4486635433070867
20
0.8560205118110236
11
1.4522395275590552
21
0.8630388188976378
0
LINE
8
BLACK
6
CONTINUOUS
10
1.4522395275590552
20
0.8630388188976378
11
1.4568693700787401
21
0.8694112598425197
0
LINE
8
BLACK
6
CONTINUOUS
10
1.4568693700787401
20
0.8694112598425197
11
1.4624391338582676
21
0.8749810236220472
0
LINE
8
BLACK
6
CONTINUOUS
10
1.4624391338582676
20
0.8749810236220472
11
1.4688115748031496
21
0.8796108661417322
0
LINE
8
BLACK
6
CONTINUOUS
10
1.4688115748031496
20
0.8796108661417322
11
1.4758298818897637
21
0.8831868503937008
0
LINE
8
BLACK
6
CONTINUOUS
10
1.4758298818897637
20
0.8831868503937008
11
1.4833211417322834
21
0.8856209448818897
0
LINE
8
BLACK
6
CONTINUOUS
10
1.4833211417322834
20
0.8856209448818897
11
1.4911009842519685
21
0.8868531496062992
0
LINE
8
BLACK
6
CONTINUOUS
10
1.4911009842519685
20
0.8868531496062992
11
1.4989777559055117
21
0.8868531496062992
0
LINE
8
BLACK
6
CONTINUOUS
10
1.4989777559055117
20
0.8868531496062992
11
1.5067575984251969
21
0.8856209448818897
0
LINE
8
BLACK
6
CONTINUOUS
10
1.4468110236220473
20
0.8330153543307086
11
1.4479985826771653
21
0.8255175196850394
0
LINE
8
BLACK
6
CONTINUOUS
10
1.4479985826771653
20
0.8255175196850394
11
1.4503444094488189
21
0.8182977559055118
0
LINE
8
BLACK
6
CONTINUOUS
10
1.4503444094488189
20
0.8182977559055118
11
1.4537907874015747
21
0.8115338582677165
0
LINE
8
BLACK
6
CONTINUOUS
10
1.4537907874015747
20
0.8115338582677165
11
1.4582528346456693
21
0.8053923622047244
0
LINE
8
BLACK
6
CONTINUOUS
10
1.4582528346456693
20
0.8053923622047244
11
1.4636207086614172
21
0.8000244881889763
0
LINE
8
BLACK
6
CONTINUOUS
10
1.4636207086614172
20
0.8000244881889763
11
1.4697622047244094
21
0.7955624409448818
0
LINE
8
BLACK
6
CONTINUOUS
10
1.4697622047244094
20
0.7955624409448818
11
1.4765261023622047
21
0.792116062992126
0
LINE
8
BLACK
6
CONTINUOUS
10
1.4765261023622047
20
0.792116062992126
11
1.4837458661417322
21
0.7897702362204724
0
LINE
8
BLACK
6
CONTINUOUS
10
1.4837458661417322
20
0.7897702362204724
11
1.4912437007874015
21
0.7885826771653544
0
LINE
8
BLACK
6
CONTINUOUS
10
1.4912437007874015
20
0.7885826771653544
11
1.4988350393700787
21
0.7885826771653544
0
LINE
8
BLACK
6
CONTINUOUS
10
1.4988350393700787
20
0.7885826771653544
11
1.506332874015748
21
0.7897702362204724
0
LINE
8
BLACK
6
CONTINUOUS
10
1.506332874015748
20
0.7897702362204724
11
1.5135526377952755
21
0.792116062992126
0
LINE
8
BLACK
6
CONTINUOUS
10
1.5135526377952755
20
0.792116062992126
11
1.5203165354330708
21
0.7955624409448818
0
LINE
8
BLACK
6
CONTINUOUS
10
1.5203165354330708
20
0.7955624409448818
11
1.526458031496063
21
0.8000244881889763
0
LINE
8
BLACK
6
CONTINUOUS
10
1.526458031496063
20
0.8000244881889763
11
1.5318259055118111
21
0.8053923622047244
0
LINE
8
BLACK
6
CONTINUOUS
10
1.5318259055118111
20
0.8053923622047244
11
1.5362879527559055
21
0.8115338582677165
0
LINE
8
BLACK
6
CONTINUOUS
10
1.5362879527559055
20
0.8115338582677165
11
1.5397343307086613
21
0.8182977559055118
0
LINE
8
BLACK
6
CONTINUOUS
10
1.5397343307086613
20
0.8182977559055118
11
1.5420801574803149
21
0.8255175196850394
0
LINE
8
BLACK
6
CONTINUOUS
10
1.5420801574803149
20
0.8255175196850394
11
1.5432677165354329
21
0.8330153543307086
0
LINE
8
BLACK
6
CONTINUOUS
10
1.5432677165354329
20
0.8330153543307086
11
1.5432677165354329
21
0.8406066929133859
0
LINE
8
BLACK
6
CONTINUOUS
10
1.5432677165354329
20
0.8406066929133859
11
1.5420801574803149
21
0.8481045275590551
0
LINE
8
BLACK
6
CONTINUOUS
10
1.5420801574803149
20
0.8481045275590551
11
1.5397343307086613
21
0.8553242913385827
0
LINE
8
BLACK
6
CONTINUOUS
10
1.5397343307086613
20
0.8553242913385827
11
1.5362879527559055
21
0.862088188976378
0
LINE
8
BLACK
6
CONTINUOUS
10
1.5362879527559055
20
0.862088188976378
11
1.5318259055118111
21
0.86822968503937
0
LINE
8
BLACK
6
CONTINUOUS
10
1.5318259055118111
20
0.86822968503937
11
1.526458031496063
21
0.873597559055118
0
LINE
8
BLACK
6
CONTINUOUS
10
1.526458031496063
20
0.873597559055118
11
1.5203165354330708
21
0.8780596062992125
0
LINE
8
BLACK
6
CONTINUOUS
10
1.5203165354330708
20
0.8780596062992125
11
1.5135526377952755
21
0.8815059842519685
0
LINE
8
BLACK
6
CONTINUOUS
10
1.5135526377952755
20
0.8815059842519685
11
1.506332874015748
21
0.883851811023622
0
LINE
8
BLACK
6
CONTINUOUS
10
1.506332874015748
20
0.883851811023622
11
1.4988350393700787
21
0.8850393700787401
0
LINE
8
BLACK
6
CONTINUOUS
10
1.4988350393700787
20
0.8850393700787401
11
1.4912437007874015
21
0.8850393700787401
0
LINE
8
BLACK
6
CONTINUOUS
10
1.4912437007874015
20
0.8850393700787401
11
1.4837458661417322
21
0.883851811023622
0
LINE
8
BLACK
6
CONTINUOUS
10
1.4837458661417322
20
0.883851811023622
11
1.4765261023622047
21
0.8815059842519685
0
LINE
8
BLACK
6
CONTINUOUS
10
1.4765261023622047
20
0.8815059842519685
11
1.4697622047244094
21
0.8780596062992125
0
LINE
8
BLACK
6
CONTINUOUS
10
1.4697622047244094
20
0.8780596062992125
11
1.4636207086614172
21
0.873597559055118
0
LINE
8
BLACK
6
CONTINUOUS
10
1.4636207086614172
20
0.873597559055118
11
1.4582528346456693
21
0.86822968503937
0
LINE
8
BLACK
6
CONTINUOUS
10
1.4582528346456693
20
0.86822968503937
11
1.4537907874015747
21
0.862088188976378
0
LINE
8
BLACK
6
CONTINUOUS
10
1.4537907874015747
20
0.862088188976378
11
1.4503444094488189
21
0.8553242913385827
0
LINE
8
BLACK
6
CONTINUOUS
10
1.4503444094488189
20
0.8553242913385827
11
1.4479985826771653
21
0.8481045275590551
0
LINE
8
BLACK
6
CONTINUOUS
10
1.4479985826771653
20
0.8481045275590551
11
1.4468110236220473
21
0.8406066929133859
0
LINE
8
BLACK
6
CONTINUOUS
10
1.4468110236220473
20
0.8406066929133859
11
1.4468110236220473
21
0.8330153543307086
0
LINE
8
BLACK
6
CONTINUOUS
10
-1.1291902755905512
20
1.9526809842519686
11
-1.1286575984251968
21
1.9521483070866141
0
LINE
8
BLACK
6
CONTINUOUS
10
-1.1286575984251968
20
1.9521483070866141
11
-1.1285826771653542
21
1.951771653543307
0
LINE
8
BLACK
6
CONTINUOUS
10
-1.1285826771653542
20
1.951771653543307
11
-1.1285826771653542
21
0.7982283464566929
0
LINE
8
BLACK
6
CONTINUOUS
10
-1.1285826771653542
20
0.7982283464566929
11
-1.1286575984251968
21
0.7978516929133858
0
LINE
8
BLACK
6
CONTINUOUS
10
-1.1286575984251968
20
0.7978516929133858
11
-1.1291902755905512
21
0.7973190157480314
0
LINE
8
BLACK
6
CONTINUOUS
10
-1.1291902755905512
20
0.7973190157480314
11
-1.1295669291338581
21
0.797244094488189
0
LINE
8
BLACK
6
CONTINUOUS
10
-1.1295669291338581
20
0.797244094488189
11
-2.1791732283464564
21
0.797244094488189
0
LINE
8
BLACK
6
CONTINUOUS
10
-2.1791732283464564
20
0.797244094488189
11
-2.1795498818897636
21
0.7973190157480314
0
LINE
8
BLACK
6
CONTINUOUS
10
-2.1795498818897636
20
0.7973190157480314
11
-2.1800825590551183
21
0.7978516929133858
0
LINE
8
BLACK
6
CONTINUOUS
10
-2.1800825590551183
20
0.7978516929133858
11
-2.1801574803149606
21
0.7982283464566929
0
LINE
8
BLACK
6
CONTINUOUS
10
-2.1801574803149606
20
0.7982283464566929
11
-2.1801574803149606
21
1.951771653543307
0
LINE
8
BLACK
6
CONTINUOUS
10
-2.1801574803149606
20
1.951771653543307
11
-2.1800825590551183
21
1.9521483070866141
0
LINE
8
BLACK
6
CONTINUOUS
10
-2.1800825590551183
20
1.9521483070866141
11
-2.1795498818897636
21
1.9526809842519686
0
LINE
8
BLACK
6
CONTINUOUS
10
-2.1795498818897636
20
1.9526809842519686
11
-2.1791732283464564
21
1.9527559055118109
0
LINE
8
BLACK
6
CONTINUOUS
10
-2.1791732283464564
20
1.9527559055118109
11
-1.1295669291338581
21
1.9527559055118109
0
LINE
8
BLACK
6
CONTINUOUS
10
-1.1295669291338581
20
1.9527559055118109
11
-1.1291902755905512
21
1.9526809842519686
0
LINE
8
BLACK
6
CONTINUOUS
10
-2.1781889763779527
20
1.950787401574803
11
-2.1781889763779527
21
0.7992125984251969
0
LINE
8
BLACK
6
CONTINUOUS
10
-2.1781889763779527
20
0.7992125984251969
11
-1.1305511811023621
21
0.7992125984251969
0
LINE
8
BLACK
6
CONTINUOUS
10
-1.1305511811023621
20
0.7992125984251969
11
-1.1305511811023621
21
1.950787401574803
0
LINE
8
BLACK
6
CONTINUOUS
10
-1.1305511811023621
20
1.950787401574803
11
-2.1781889763779527
21
1.950787401574803
0
LINE
8
BLACK
6
CONTINUOUS
10
-0.7090721653543307
20
0.9551219291338583
11
-0.7085394881889764
21
0.9545892519685039
0
LINE
8
BLACK
6
CONTINUOUS
10
-0.7085394881889764
20
0.9545892519685039
11
-0.7084645669291338
21
0.9542125984251968
0
LINE
8
BLACK
6
CONTINUOUS
10
-0.7084645669291338
20
0.9542125984251968
11
-0.7084645669291338
21
0.8557874015748032
0
LINE
8
BLACK
6
CONTINUOUS
10
-0.7084645669291338
20
0.8557874015748032
11
-0.7085394881889764
21
0.8554107480314961
0
LINE
8
BLACK
6
CONTINUOUS
10
-0.7085394881889764
20
0.8554107480314961
11
-0.7090721653543307
21
0.8548780708661418
0
LINE
8
BLACK
6
CONTINUOUS
10
-0.7090721653543307
20
0.8548780708661418
11
-0.7094488188976378
21
0.8548031496062992
0
LINE
8
BLACK
6
CONTINUOUS
10
-0.7094488188976378
20
0.8548031496062992
11
-0.8905511811023622
21
0.8548031496062992
0
LINE
8
BLACK
6
CONTINUOUS
10
-0.8905511811023622
20
0.8548031496062992
11
-0.8909278346456693
21
0.8548780708661418
0
LINE
8
BLACK
6
CONTINUOUS
10
-0.8909278346456693
20
0.8548780708661418
11
-0.8914605118110236
21
0.8554107480314961
0
LINE
8
BLACK
6
CONTINUOUS
10
-0.8914605118110236
20
0.8554107480314961
11
-0.8915354330708661
21
0.8557874015748032
0
LINE
8
BLACK
6
CONTINUOUS
10
-0.8915354330708661
20
0.8557874015748032
11
-0.8915354330708661
21
0.9542125984251968
0
LINE
8
BLACK
6
CONTINUOUS
10
-0.8915354330708661
20
0.9542125984251968
11
-0.8914605118110236
21
0.9545892519685039
0
LINE
8
BLACK
6
CONTINUOUS
10
-0.8914605118110236
20
0.9545892519685039
11
-0.8909278346456693
21
0.9551219291338583
0
LINE
8
BLACK
6
CONTINUOUS
10
-0.8909278346456693
20
0.9551219291338583
11
-0.8905511811023622
21
0.9551968503937007
0
LINE
8
BLACK
6
CONTINUOUS
10
-0.8905511811023622
20
0.9551968503937007
11
-0.7094488188976378
21
0.9551968503937007
0
LINE
8
BLACK
6
CONTINUOUS
10
-0.7094488188976378
20
0.9551968503937007
11
-0.7090721653543307
21
0.9551219291338583
0
LINE
8
BLACK
6
CONTINUOUS
10
-0.8895669291338583
20
0.9532283464566929
11
-0.8895669291338583
21
0.8567716535433071
0
LINE
8
BLACK
6
CONTINUOUS
10
-0.8895669291338583
20
0.8567716535433071
11
-0.7104330708661417
21
0.8567716535433071
0
LINE
8
BLACK
6
CONTINUOUS
10
-0.7104330708661417
20
0.8567716535433071
11
-0.7104330708661417
21
0.9532283464566929
0
LINE
8
BLACK
6
CONTINUOUS
10
-0.7104330708661417
20
0.9532283464566929
11
-0.8895669291338583
21
0.9532283464566929
0
LINE
8
BLACK
6
CONTINUOUS
10
0.5297467322834646
20
1.0601219291338582
11
0.5302794094488189
21
1.059589251968504
0
LINE
8
BLACK
6
CONTINUOUS
10
0.5302794094488189
20
1.059589251968504
11
0.5303543307086614
21
1.0592125984251968
0
LINE
8
BLACK
6
CONTINUOUS
10
0.5303543307086614
20
1.0592125984251968
11
0.5303543307086614
21
0.9607874015748031
0
LINE
8
BLACK
6
CONTINUOUS
10
0.5303543307086614
20
0.9607874015748031
11
0.5302794094488189
21
0.9604107480314961
0
LINE
8
BLACK
6
CONTINUOUS
10
0.5302794094488189
20
0.9604107480314961
11
0.5297467322834646
21
0.9598780708661417
0
LINE
8
BLACK
6
CONTINUOUS
10
0.5297467322834646
20
0.9598780708661417
11
0.5293700787401575
21
0.9598031496062992
0
LINE
8
BLACK
6
CONTINUOUS
10
0.5293700787401575
20
0.9598031496062992
11
0.348267716535433
21
0.9598031496062992
0
LINE
8
BLACK
6
CONTINUOUS
10
0.348267716535433
20
0.9598031496062992
11
0.347891062992126
21
0.9598780708661417
0
LINE
8
BLACK
6
CONTINUOUS
10
0.347891062992126
20
0.9598780708661417
11
0.3473583858267716
21
0.9604107480314961
0
LINE
8
BLACK
6
CONTINUOUS
10
0.3473583858267716
20
0.9604107480314961
11
0.3472834645669291
21
0.9607874015748031
0
LINE
8
BLACK
6
CONTINUOUS
10
0.3472834645669291
20
0.9607874015748031
11
0.3472834645669291
21
1.0592125984251968
0
LINE
8
BLACK
6
CONTINUOUS
10
0.3472834645669291
20
1.0592125984251968
11
0.3473583858267716
21
1.059589251968504
0
LINE
8
BLACK
6
CONTINUOUS
10
0.3473583858267716
20
1.059589251968504
11
0.347891062992126
21
1.0601219291338582
0
LINE
8
BLACK
6
CONTINUOUS
10
0.347891062992126
20
1.0601219291338582
11
0.348267716535433
21
1.0601968503937007
0
LINE
8
BLACK
6
CONTINUOUS
10
0.348267716535433
20
1.0601968503937007
11
0.5293700787401575
21
1.0601968503937007
0
LINE
8
BLACK
6
CONTINUOUS
10
0.5293700787401575
20
1.0601968503937007
11
0.5297467322834646
21
1.0601219291338582
0
LINE
8
BLACK
6
CONTINUOUS
10
0.349251968503937
20
1.0582283464566928
11
0.349251968503937
21
0.9617716535433071
0
LINE
8
BLACK
6
CONTINUOUS
10
0.349251968503937
20
0.9617716535433071
11
0.5283858267716536
21
0.9617716535433071
0
LINE
8
BLACK
6
CONTINUOUS
10
0.5283858267716536
20
0.9617716535433071
11
0.5283858267716536
21
1.0582283464566928
0
LINE
8
BLACK
6
CONTINUOUS
10
0.5283858267716536
20
1.0582283464566928
11
0.349251968503937
21
1.0582283464566928
0
LINE
8
BLACK
6
CONTINUOUS
10
0.7409278346456692
20
1.0601219291338582
11
0.7414605118110236
21
1.059589251968504
0
LINE
8
BLACK
6
CONTINUOUS
10
0.7414605118110236
20
1.059589251968504
11
0.7415354330708661
21
1.0592125984251968
0
LINE
8
BLACK
6
CONTINUOUS
10
0.7415354330708661
20
1.0592125984251968
11
0.7415354330708661
21
0.9607874015748031
0
LINE
8
BLACK
6
CONTINUOUS
10
0.7415354330708661
20
0.9607874015748031
11
0.7414605118110236
21
0.9604107480314961
0
LINE
8
BLACK
6
CONTINUOUS
10
0.7414605118110236
20
0.9604107480314961
11
0.7409278346456692
21
0.9598780708661417
0
LINE
8
BLACK
6
CONTINUOUS
10
0.7409278346456692
20
0.9598780708661417
11
0.7405511811023622
21
0.9598031496062992
0
LINE
8
BLACK
6
CONTINUOUS
10
0.7405511811023622
20
0.9598031496062992
11
0.5594488188976378
21
0.9598031496062992
0
LINE
8
BLACK
6
CONTINUOUS
10
0.5594488188976378
20
0.9598031496062992
11
0.5590721653543307
21
0.9598780708661417
0
LINE
8
BLACK
6
CONTINUOUS
10
0.5590721653543307
20
0.9598780708661417
11
0.5585394881889764
21
0.9604107480314961
0
LINE
8
BLACK
6
CONTINUOUS
10
0.5585394881889764
20
0.9604107480314961
11
0.5584645669291338
21
0.9607874015748031
0
LINE
8
BLACK
6
CONTINUOUS
10
0.5584645669291338
20
0.9607874015748031
11
0.5584645669291338
21
1.0592125984251968
0
LINE
8
BLACK
6
CONTINUOUS
10
0.5584645669291338
20
1.0592125984251968
11
0.5585394881889764
21
1.059589251968504
0
LINE
8
BLACK
6
CONTINUOUS
10
0.5585394881889764
20
1.059589251968504
11
0.5590721653543307
21
1.0601219291338582
0
LINE
8
BLACK
6
CONTINUOUS
10
0.5590721653543307
20
1.0601219291338582
11
0.5594488188976378
21
1.0601968503937007
0
LINE
8
BLACK
6
CONTINUOUS
10
0.5594488188976378
20
1.0601968503937007
11
0.7405511811023622
21
1.0601968503937007
0
LINE
8
BLACK
6
CONTINUOUS
10
0.7405511811023622
20
1.0601968503937007
11
0.7409278346456692
21
1.0601219291338582
0
LINE
8
BLACK
6
CONTINUOUS
10
0.5604330708661417
20
1.0582283464566928
11
0.5604330708661417
21
0.9617716535433071
0
LINE
8
BLACK
6
CONTINUOUS
10
0.5604330708661417
20
0.9617716535433071
11
0.7395669291338582
21
0.9617716535433071
0
LINE
8
BLACK
6
CONTINUOUS
10
0.7395669291338582
20
0.9617716535433071
11
0.7395669291338582
21
1.0582283464566928
0
LINE
8
BLACK
6
CONTINUOUS
10
0.7395669291338582
20
1.0582283464566928
11
0.5604330708661417
21
1.0582283464566928
0
LINE
8
BLACK
6
CONTINUOUS
10
1.1045892519685039
20
1.1614605118110235
11
1.1051219291338583
21
1.1609278346456693
0
LINE
8
BLACK
6
CONTINUOUS
10
1.1051219291338583
20
1.1609278346456693
11
1.1051968503937009
21
1.1605511811023621
0
LINE
8
BLACK
6
CONTINUOUS
10
1.1051968503937009
20
1.1605511811023621
11
1.1051968503937009
21
0.9794488188976378
0
LINE
8
BLACK
6
CONTINUOUS
10
1.1051968503937009
20
0.9794488188976378
11
1.1051219291338583
21
0.9790721653543307
0
LINE
8
BLACK
6
CONTINUOUS
10
1.1051219291338583
20
0.9790721653543307
11
1.1045892519685039
21
0.9785394881889764
0
LINE
8
BLACK
6
CONTINUOUS
10
1.1045892519685039
20
0.9785394881889764
11
1.1042125984251969
21
0.9784645669291339
0
LINE
8
BLACK
6
CONTINUOUS
10
1.1042125984251969
20
0.9784645669291339
11
1.0057874015748032
21
0.9784645669291339
0
LINE
8
BLACK
6
CONTINUOUS
10
1.0057874015748032
20
0.9784645669291339
11
1.005410748031496
21
0.9785394881889764
0
LINE
8
BLACK
6
CONTINUOUS
10
1.005410748031496
20
0.9785394881889764
11
1.0048780708661418
21
0.9790721653543307
0
LINE
8
BLACK
6
CONTINUOUS
10
1.0048780708661418
20
0.9790721653543307
11
1.0048031496062992
21
0.9794488188976378
0
LINE
8
BLACK
6
CONTINUOUS
10
1.0048031496062992
20
0.9794488188976378
11
1.0048031496062992
21
1.1605511811023621
0
LINE
8
BLACK
6
CONTINUOUS
10
1.0048031496062992
20
1.1605511811023621
11
1.0048780708661418
21
1.1609278346456693
0
LINE
8
BLACK
6
CONTINUOUS
10
1.0048780708661418
20
1.1609278346456693
11
1.005410748031496
21
1.1614605118110235
0
LINE
8
BLACK
6
CONTINUOUS
10
1.005410748031496
20
1.1614605118110235
11
1.0057874015748032
21
1.161535433070866
0
LINE
8
BLACK
6
CONTINUOUS
10
1.0057874015748032
20
1.161535433070866
11
1.1042125984251969
21
1.161535433070866
0
LINE
8
BLACK
6
CONTINUOUS
10
1.1042125984251969
20
1.161535433070866
11
1.1045892519685039
21
1.1614605118110235
0
LINE
8
BLACK
6
CONTINUOUS
10
1.0067716535433071
20
1.1595669291338582
11
1.0067716535433071
21
0.9804330708661417
0
LINE
8
BLACK
6
CONTINUOUS
10
1.0067716535433071
20
0.9804330708661417
11
1.103228346456693
21
0.9804330708661417
0
LINE
8
BLACK
6
CONTINUOUS
10
1.103228346456693
20
0.9804330708661417
11
1.103228346456693
21
1.1595669291338582
0
LINE
8
BLACK
6
CONTINUOUS
10
1.103228346456693
20
1.1595669291338582
11
1.0067716535433071
21
1.1595669291338582
0
LINE
8
BLACK
6
CONTINUOUS
10
0.1697467322834646
20
1.2251219291338582
11
0.1702794094488189
21
1.224589251968504
0
LINE
8
BLACK
6
CONTINUOUS
10
0.1702794094488189
20
1.224589251968504
11
0.1703543307086614
21
1.2242125984251968
0
LINE
8
BLACK
6
CONTINUOUS
10
0.1703543307086614
20
1.2242125984251968
11
0.1703543307086614
21
1.1257874015748031
0
LINE
8
BLACK
6
CONTINUOUS
10
0.1703543307086614
20
1.1257874015748031
11
0.1702794094488189
21
1.1254107480314961
0
LINE
8
BLACK
6
CONTINUOUS
10
0.1702794094488189
20
1.1254107480314961
11
0.1697467322834646
21
1.1248780708661417
0
LINE
8
BLACK
6
CONTINUOUS
10
0.1697467322834646
20
1.1248780708661417
11
0.1693700787401575
21
1.1248031496062991
0
LINE
8
BLACK
6
CONTINUOUS
10
0.1693700787401575
20
1.1248031496062991
11
-0.0117322834645669
21
1.1248031496062991
0
LINE
8
BLACK
6
CONTINUOUS
10
-0.0117322834645669
20
1.1248031496062991
11
-0.012108937007874
21
1.1248780708661417
0
LINE
8
BLACK
6
CONTINUOUS
10
-0.012108937007874
20
1.1248780708661417
11
-0.0126416141732283
21
1.1254107480314961
0
LINE
8
BLACK
6
CONTINUOUS
10
-0.0126416141732283
20
1.1254107480314961
11
-0.0127165354330709
21
1.1257874015748031
0
LINE
8
BLACK
6
CONTINUOUS
10
-0.0127165354330709
20
1.1257874015748031
11
-0.0127165354330709
21
1.2242125984251968
0
LINE
8
BLACK
6
CONTINUOUS
10
-0.0127165354330709
20
1.2242125984251968
11
-0.0126416141732283
21
1.224589251968504
0
LINE
8
BLACK
6
CONTINUOUS
10
-0.0126416141732283
20
1.224589251968504
11
-0.012108937007874
21
1.2251219291338582
0
LINE
8
BLACK
6
CONTINUOUS
10
-0.012108937007874
20
1.2251219291338582
11
-0.0117322834645669
21
1.2251968503937007
0
LINE
8
BLACK
6
CONTINUOUS
10
-0.0117322834645669
20
1.2251968503937007
11
0.1693700787401575
21
1.2251968503937007
0
LINE
8
BLACK
6
CONTINUOUS
10
0.1693700787401575
20
1.2251968503937007
11
0.1697467322834646
21
1.2251219291338582
0
LINE
8
BLACK
6
CONTINUOUS
10
-0.010748031496063
20
1.2232283464566929
11
-0.010748031496063
21
1.126771653543307
0
LINE
8
BLACK
6
CONTINUOUS
10
-0.010748031496063
20
1.126771653543307
11
0.1683858267716535
21
1.126771653543307
0
LINE
8
BLACK
6
CONTINUOUS
10
0.1683858267716535
20
1.126771653543307
11
0.1683858267716535
21
1.2232283464566929
0
LINE
8
BLACK
6
CONTINUOUS
10
0.1683858267716535
20
1.2232283464566929
11
-0.010748031496063
21
1.2232283464566929
0
LINE
8
BLACK
6
CONTINUOUS
10
1.1234294881889764
20
2.7683991338582676
11
1.1471203149606299
21
2.7652801968503935
0
LINE
8
BLACK
6
CONTINUOUS
10
1.1471203149606299
20
2.7652801968503935
11
1.1705563779527559
21
2.7606184645669289
0
LINE
8
BLACK
6
CONTINUOUS
10
1.1705563779527559
20
2.7606184645669289
11
1.193637401574803
21
2.7544339370078741
0
LINE
8
BLACK
6
CONTINUOUS
10
1.193637401574803
20
2.7544339370078741
11
1.2162645275590551
21
2.7467530314960631
0
LINE
8
BLACK
6
CONTINUOUS
10
1.2162645275590551
20
2.7467530314960631
11
1.2383408661417323
21
2.7376087401574805
0
LINE
8
BLACK
6
CONTINUOUS
10
1.2383408661417323
20
2.7376087401574805
11
1.2597718503937008
21
2.7270401574803147
0
LINE
8
BLACK
6
CONTINUOUS
10
1.2597718503937008
20
2.7270401574803147
11
1.2804657086614173
21
2.7150925196850393
0
LINE
8
BLACK
6
CONTINUOUS
10
1.2804657086614173
20
2.7150925196850393
11
1.3003338976377952
21
2.7018170472440945
0
LINE
8
BLACK
6
CONTINUOUS
10
1.3003338976377952
20
2.7018170472440945
11
1.3192912598425197
21
2.6872705511811024
0
LINE
8
BLACK
6
CONTINUOUS
10
1.3192912598425197
20
2.6872705511811024
11
1.337256653543307
21
2.6715153149606299
0
LINE
8
BLACK
6
CONTINUOUS
10
1.337256653543307
20
2.6715153149606299
11
1.3541531102362205
21
2.6546188582677166
0
LINE
8
BLACK
6
CONTINUOUS
10
1.3541531102362205
20
2.6546188582677166
11
1.3699083464566928
21
2.6366534645669293
0
LINE
8
BLACK
6
CONTINUOUS
10
1.3699083464566928
20
2.6366534645669293
11
1.384454842519685
21
2.6176961023622045
0
LINE
8
BLACK
6
CONTINUOUS
10
1.384454842519685
20
2.6176961023622045
11
1.3977303149606299
21
2.5978279133858266
0
LINE
8
BLACK
6
CONTINUOUS
10
1.3977303149606299
20
2.5978279133858266
11
1.4096779527559056
21
2.5771340551181101
0
LINE
8
BLACK
6
CONTINUOUS
10
1.4096779527559056
20
2.5771340551181101
11
1.4202465354330709
21
2.5557030708661417
0
LINE
8
BLACK
6
CONTINUOUS
10
1.4202465354330709
20
2.5557030708661417
11
1.4293908267716535
21
2.5336267322834645
0
LINE
8
BLACK
6
CONTINUOUS
10
1.4293908267716535
20
2.5336267322834645
11
1.4370717322834645
21
2.5109996062992126
0
LINE
8
BLACK
6
CONTINUOUS
10
1.4370717322834645
20
2.5109996062992126
11
1.4432562598425196
21
2.4879185826771653
0
LINE
8
BLACK
6
CONTINUOUS
10
1.4432562598425196
20
2.4879185826771653
11
1.4479179921259842
21
2.4644825196850393
0
LINE
8
BLACK
6
CONTINUOUS
10
1.4479179921259842
20
2.4644825196850393
11
1.4510369291338583
21
2.4407916929133857
0
LINE
8
BLACK
6
CONTINUOUS
10
1.4510369291338583
20
2.4407916929133857
11
1.4525997637795276
21
2.4169475984251969
0
LINE
8
BLACK
6
CONTINUOUS
10
1.4525997637795276
20
2.4169475984251969
11
1.4525997637795276
21
2.3930524015748031
0
LINE
8
BLACK
6
CONTINUOUS
10
1.4525997637795276
20
2.3930524015748031
11
1.4510369291338583
21
2.3692083070866143
0
LINE
8
BLACK
6
CONTINUOUS
10
1.4510369291338583
20
2.3692083070866143
11
1.4479179921259842
21
2.3455174803149608
0
LINE
8
BLACK
6
CONTINUOUS
10
1.4479179921259842
20
2.3455174803149608
11
1.4432562598425196
21
2.3220814173228348
0
LINE
8
BLACK
6
CONTINUOUS
10
1.4432562598425196
20
2.3220814173228348
11
1.4370717322834645
21
2.2990003937007875
0
LINE
8
BLACK
6
CONTINUOUS
10
1.4370717322834645
20
2.2990003937007875
11
1.4293908267716535
21
2.2763732677165356
0
LINE
8
BLACK
6
CONTINUOUS
10
1.4293908267716535
20
2.2763732677165356
11
1.4202465354330709
21
2.2542969291338584
0
LINE
8
BLACK
6
CONTINUOUS
10
1.4202465354330709
20
2.2542969291338584
11
1.4096779527559056
21
2.2328659448818895
0
LINE
8
BLACK
6
CONTINUOUS
10
1.4096779527559056
20
2.2328659448818895
11
1.3977303149606299
21
2.212172086614173
0
LINE
8
BLACK
6
CONTINUOUS
10
1.3977303149606299
20
2.212172086614173
11
1.384454842519685
21
2.1923038976377951
0
LINE
8
BLACK
6
CONTINUOUS
10
1.384454842519685
20
2.1923038976377951
11
1.3699083464566928
21
2.1733465354330708
0
LINE
8
BLACK
6
CONTINUOUS
10
1.3699083464566928
20
2.1733465354330708
11
1.3541531102362205
21
2.1553811417322835
0
LINE
8
BLACK
6
CONTINUOUS
10
1.3541531102362205
20
2.1553811417322835
11
1.337256653543307
21
2.1384846850393702
0
LINE
8
BLACK
6
CONTINUOUS
10
1.337256653543307
20
2.1384846850393702
11
1.3192912598425197
21
2.1227294488188977
0
LINE
8
BLACK
6
CONTINUOUS
10
1.3192912598425197
20
2.1227294488188977
11
1.3003338976377952
21
2.1081829527559055
0
LINE
8
BLACK
6
CONTINUOUS
10
1.3003338976377952
20
2.1081829527559055
11
1.2804657086614173
21
2.0949074803149608
0
LINE
8
BLACK
6
CONTINUOUS
10
1.2804657086614173
20
2.0949074803149608
11
1.2597718503937008
21
2.0829598425196849
0
LINE
8
BLACK
6
CONTINUOUS
10
1.2597718503937008
20
2.0829598425196849
11
1.2383408661417323
21
2.0723912598425196
0
LINE
8
BLACK
6
CONTINUOUS
10
1.2383408661417323
20
2.0723912598425196
11
1.2162645275590551
21
2.063246968503937
0
LINE
8
BLACK
6
CONTINUOUS
10
1.2162645275590551
20
2.063246968503937
11
1.193637401574803
21
2.055566062992126
0
LINE
8
BLACK
6
CONTINUOUS
10
1.193637401574803
20
2.055566062992126
11
1.1705563779527559
21
2.0493815354330707
0
LINE
8
BLACK
6
CONTINUOUS
10
1.1705563779527559
20
2.0493815354330707
11
1.1471203149606299
21
2.0447198031496061
0
LINE
8
BLACK
6
CONTINUOUS
10
1.1471203149606299
20
2.0447198031496061
11
1.1234294881889764
21
2.0416008661417324
0
LINE
8
BLACK
6
CONTINUOUS
10
1.1234294881889764
20
2.0416008661417324
11
1.0995853937007873
21
2.0400380314960631
0
LINE
8
BLACK
6
CONTINUOUS
10
1.0995853937007873
20
2.0400380314960631
11
1.0756901968503936
21
2.0400380314960631
0
LINE
8
BLACK
6
CONTINUOUS
10
1.0756901968503936
20
2.0400380314960631
11
1.0518461023622048
21
2.0416008661417324
0
LINE
8
BLACK
6
CONTINUOUS
10
1.0518461023622048
20
2.0416008661417324
11
1.0281552755905512
21
2.0447198031496061
0
LINE
8
BLACK
6
CONTINUOUS
10
1.0281552755905512
20
2.0447198031496061
11
1.0047192125984252
21
2.0493815354330707
0
LINE
8
BLACK
6
CONTINUOUS
10
1.0047192125984252
20
2.0493815354330707
11
0.9816381889763779
21
2.055566062992126
0
LINE
8
BLACK
6
CONTINUOUS
10
0.9816381889763779
20
2.055566062992126
11
0.959011062992126
21
2.063246968503937
0
LINE
8
BLACK
6
CONTINUOUS
10
0.959011062992126
20
2.063246968503937
11
0.9369347244094488
21
2.0723912598425196
0
LINE
8
BLACK
6
CONTINUOUS
10
0.9369347244094488
20
2.0723912598425196
11
0.9155037401574803
21
2.0829598425196849
0
LINE
8
BLACK
6
CONTINUOUS
10
0.9155037401574803
20
2.0829598425196849
11
0.8948098818897637
21
2.0949074803149608
0
LINE
8
BLACK
6
CONTINUOUS
10
0.8948098818897637
20
2.0949074803149608
11
0.8749416929133859
21
2.1081829527559055
0
LINE
8
BLACK
6
CONTINUOUS
10
0.8749416929133859
20
2.1081829527559055
11
0.8559843307086614
21
2.1227294488188977
0
LINE
8
BLACK
6
CONTINUOUS
10
0.8559843307086614
20
2.1227294488188977
11
0.838018937007874
21
2.1384846850393702
0
LINE
8
BLACK
6
CONTINUOUS
10
0.838018937007874
20
2.1384846850393702
11
0.8211224803149606
21
2.1553811417322835
0
LINE
8
BLACK
6
CONTINUOUS
10
0.8211224803149606
20
2.1553811417322835
11
0.8053672440944881
21
2.1733465354330708
0
LINE
8
BLACK
6
CONTINUOUS
10
0.8053672440944881
20
2.1733465354330708
11
0.790820748031496
21
2.1923038976377951
0
LINE
8
BLACK
6
CONTINUOUS
10
0.790820748031496
20
2.1923038976377951
11
0.7775452755905512
21
2.212172086614173
0
LINE
8
BLACK
6
CONTINUOUS
10
0.7775452755905512
20
2.212172086614173
11
0.7655976377952756
21
2.2328659448818895
0
LINE
8
BLACK
6
CONTINUOUS
10
0.7655976377952756
20
2.2328659448818895
11
0.7550290551181102
21
2.2542969291338584
0
LINE
8
BLACK
6
CONTINUOUS
10
0.7550290551181102
20
2.2542969291338584
11
0.7458847637795275
21
2.2763732677165356
0
LINE
8
BLACK
6
CONTINUOUS
10
0.7458847637795275
20
2.2763732677165356
11
0.7382038582677165
21
2.2990003937007875
0
LINE
8
BLACK
6
CONTINUOUS
10
0.7382038582677165
20
2.2990003937007875
11
0.7320193307086614
21
2.3220814173228348
0
LINE
8
BLACK
6
CONTINUOUS
10
0.7320193307086614
20
2.3220814173228348
11
0.7273575984251969
21
2.3455174803149608
0
LINE
8
BLACK
6
CONTINUOUS
10
0.7273575984251969
20
2.3455174803149608
11
0.7242386614173228
21
2.3692083070866143
0
LINE
8
BLACK
6
CONTINUOUS
10
0.7242386614173228
20
2.3692083070866143
11
0.7226758267716535
21
2.3930524015748031
0
LINE
8
BLACK
6
CONTINUOUS
10
0.7226758267716535
20
2.3930524015748031
11
0.7226758267716535
21
2.4168895669291337
0
LINE
8
BLACK
6
CONTINUOUS
10
0.7226758267716535
20
2.4168895669291337
11
0.7226758267716535
21
2.4169475984251969
0
LINE
8
BLACK
6
CONTINUOUS
10
0.7226758267716535
20
2.4169475984251969
11
0.7242386614173228
21
2.4407916929133857
0
LINE
8
BLACK
6
CONTINUOUS
10
0.7242386614173228
20
2.4407916929133857
11
0.7273575984251969
21
2.4644825196850393
0
LINE
8
BLACK
6
CONTINUOUS
10
0.7273575984251969
20
2.4644825196850393
11
0.7320193307086614
21
2.4879185826771653
0
LINE
8
BLACK
6
CONTINUOUS
10
0.7320193307086614
20
2.4879185826771653
11
0.7382038582677165
21
2.5109996062992126
0
LINE
8
BLACK
6
CONTINUOUS
10
0.7382038582677165
20
2.5109996062992126
11
0.7458847637795275
21
2.5336267322834645
0
LINE
8
BLACK
6
CONTINUOUS
10
0.7458847637795275
20
2.5336267322834645
11
0.7550290551181102
21
2.5557030708661417
0
LINE
8
BLACK
6
CONTINUOUS
10
0.7550290551181102
20
2.5557030708661417
11
0.7655976377952756
21
2.5771340551181101
0
LINE
8
BLACK
6
CONTINUOUS
10
0.7655976377952756
20
2.5771340551181101
11
0.7775452755905512
21
2.5978279133858266
0
LINE
8
BLACK
6
CONTINUOUS
10
0.7775452755905512
20
2.5978279133858266
11
0.790820748031496
21
2.6176961023622045
0
LINE
8
BLACK
6
CONTINUOUS
10
0.790820748031496
20
2.6176961023622045
11
0.8053672440944881
21
2.6366534645669293
0
LINE
8
BLACK
6
CONTINUOUS
10
0.8053672440944881
20
2.6366534645669293
11
0.8211224803149606
21
2.6546188582677166
0
LINE
8
BLACK
6
CONTINUOUS
10
0.8211224803149606
20
2.6546188582677166
11
0.838018937007874
21
2.6715153149606299
0
LINE
8
BLACK
6
CONTINUOUS
10
0.838018937007874
20
2.6715153149606299
11
0.8559843307086614
21
2.6872705511811024
0
LINE
8
BLACK
6
CONTINUOUS
10
0.8559843307086614
20
2.6872705511811024
11
0.8749416929133859
21
2.7018170472440945
0
LINE
8
BLACK
6
CONTINUOUS
10
0.8749416929133859
20
2.7018170472440945
11
0.8948098818897637
21
2.7150925196850393
0
LINE
8
BLACK
6
CONTINUOUS
10
0.8948098818897637
20
2.7150925196850393
11
0.9155037401574803
21
2.7270401574803147
0
LINE
8
BLACK
6
CONTINUOUS
10
0.9155037401574803
20
2.7270401574803147
11
0.9369347244094488
21
2.7376087401574805
0
LINE
8
BLACK
6
CONTINUOUS
10
0.9369347244094488
20
2.7376087401574805
11
0.959011062992126
21
2.7467530314960631
0
LINE
8
BLACK
6
CONTINUOUS
10
0.959011062992126
20
2.7467530314960631
11
0.9816381889763779
21
2.7544339370078741
0
LINE
8
BLACK
6
CONTINUOUS
10
0.9816381889763779
20
2.7544339370078741
11
1.0047192125984252
21
2.7606184645669289
0
LINE
8
BLACK
6
CONTINUOUS
10
1.0047192125984252
20
2.7606184645669289
11
1.0281552755905512
21
2.7652801968503935
0
LINE
8
BLACK
6
CONTINUOUS
10
1.0281552755905512
20
2.7652801968503935
11
1.0518461023622048
21
2.7683991338582676
0
LINE
8
BLACK
6
CONTINUOUS
10
1.0518461023622048
20
2.7683991338582676
11
1.0756901968503936
21
2.7699619685039369
0
LINE
8
BLACK
6
CONTINUOUS
10
1.0756901968503936
20
2.7699619685039369
11
1.0995853937007873
21
2.7699619685039369
0
LINE
8
BLACK
6
CONTINUOUS
10
1.0995853937007873
20
2.7699619685039369
11
1.1234294881889764
21
2.7683991338582676
0
LINE
8
BLACK
6
CONTINUOUS
10
0.7244488188976378
20
2.3931104330708659
11
0.7260040551181102
21
2.3693821653543305
0
LINE
8
BLACK
6
CONTINUOUS
10
0.7260040551181102
20
2.3693821653543305
11
0.7291078346456693
21
2.3458064566929133
0
LINE
8
BLACK
6
CONTINUOUS
10
0.7291078346456693
20
2.3458064566929133
11
0.7337469291338583
21
2.3224842125984253
0
LINE
8
BLACK
6
CONTINUOUS
10
0.7337469291338583
20
2.3224842125984253
11
0.7399014173228347
21
2.29951531496063
0
LINE
8
BLACK
6
CONTINUOUS
10
0.7399014173228347
20
2.29951531496063
11
0.747545
21
2.2769981102362205
0
LINE
8
BLACK
6
CONTINUOUS
10
0.747545
20
2.2769981102362205
11
0.7566448818897638
21
2.25502905511811
0
LINE
8
BLACK
6
CONTINUOUS
10
0.7566448818897638
20
2.25502905511811
11
0.7671621259842519
21
2.2337021653543307
0
LINE
8
BLACK
6
CONTINUOUS
10
0.7671621259842519
20
2.2337021653543307
11
0.7790516929133858
21
2.2131088188976378
0
LINE
8
BLACK
6
CONTINUOUS
10
0.7790516929133858
20
2.2131088188976378
11
0.7922626771653544
21
2.1933372047244095
0
LINE
8
BLACK
6
CONTINUOUS
10
0.7922626771653544
20
2.1933372047244095
11
0.8067385039370079
21
2.1744719291338583
0
LINE
8
BLACK
6
CONTINUOUS
10
0.8067385039370079
20
2.1744719291338583
11
0.8224172047244094
21
2.1565938188976377
0
LINE
8
BLACK
6
CONTINUOUS
10
0.8224172047244094
20
2.1565938188976377
11
0.8392316141732283
21
2.1397794094488187
0
LINE
8
BLACK
6
CONTINUOUS
10
0.8392316141732283
20
2.1397794094488187
11
0.8571097244094488
21
2.1241007086614174
0
LINE
8
BLACK
6
CONTINUOUS
10
0.8571097244094488
20
2.1241007086614174
11
0.8759749999999999
21
2.1096248818897636
0
LINE
8
BLACK
6
CONTINUOUS
10
0.8759749999999999
20
2.1096248818897636
11
0.8957466141732283
21
2.0964138976377953
0
LINE
8
BLACK
6
CONTINUOUS
10
0.8957466141732283
20
2.0964138976377953
11
0.9163399606299213
21
2.0845243307086614
0
LINE
8
BLACK
6
CONTINUOUS
10
0.9163399606299213
20
2.0845243307086614
11
0.9376668503937008
21
2.0740070866141731
0
LINE
8
BLACK
6
CONTINUOUS
10
0.9376668503937008
20
2.0740070866141731
11
0.959635905511811
21
2.0649072047244093
0
LINE
8
BLACK
6
CONTINUOUS
10
0.959635905511811
20
2.0649072047244093
11
0.9821531102362204
21
2.0572636220472442
0
LINE
8
BLACK
6
CONTINUOUS
10
0.9821531102362204
20
2.0572636220472442
11
1.0051220078740157
21
2.0511091338582679
0
LINE
8
BLACK
6
CONTINUOUS
10
1.0051220078740157
20
2.0511091338582679
11
1.028444251968504
21
2.0464700393700785
0
LINE
8
BLACK
6
CONTINUOUS
10
1.028444251968504
20
2.0464700393700785
11
1.0520199606299212
21
2.0433662598425197
0
LINE
8
BLACK
6
CONTINUOUS
10
1.0520199606299212
20
2.0433662598425197
11
1.0757482283464566
21
2.041811023622047
0
LINE
8
BLACK
6
CONTINUOUS
10
1.0757482283464566
20
2.041811023622047
11
1.0995273622047244
21
2.041811023622047
0
LINE
8
BLACK
6
CONTINUOUS
10
1.0995273622047244
20
2.041811023622047
11
1.1232556299212597
21
2.0433662598425197
0
LINE
8
BLACK
6
CONTINUOUS
10
1.1232556299212597
20
2.0433662598425197
11
1.1468313385826772
21
2.0464700393700785
0
LINE
8
BLACK
6
CONTINUOUS
10
1.1468313385826772
20
2.0464700393700785
11
1.1701535826771654
21
2.0511091338582679
0
LINE
8
BLACK
6
CONTINUOUS
10
1.1701535826771654
20
2.0511091338582679
11
1.1931224803149607
21
2.0572636220472442
0
LINE
8
BLACK
6
CONTINUOUS
10
1.1931224803149607
20
2.0572636220472442
11
1.21563968503937
21
2.0649072047244093
0
LINE
8
BLACK
6
CONTINUOUS
10
1.21563968503937
20
2.0649072047244093
11
1.2376087401574802
21
2.0740070866141731
0
LINE
8
BLACK
6
CONTINUOUS
10
1.2376087401574802
20
2.0740070866141731
11
1.2589356299212597
21
2.0845243307086614
0
LINE
8
BLACK
6
CONTINUOUS
10
1.2589356299212597
20
2.0845243307086614
11
1.2795289763779527
21
2.0964138976377953
0
LINE
8
BLACK
6
CONTINUOUS
10
1.2795289763779527
20
2.0964138976377953
11
1.299300590551181
21
2.1096248818897636
0
LINE
8
BLACK
6
CONTINUOUS
10
1.299300590551181
20
2.1096248818897636
11
1.3181658661417321
21
2.1241007086614174
0
LINE
8
BLACK
6
CONTINUOUS
10
1.3181658661417321
20
2.1241007086614174
11
1.3360439763779528
21
2.1397794094488187
0
LINE
8
BLACK
6
CONTINUOUS
10
1.3360439763779528
20
2.1397794094488187
11
1.3528583858267715
21
2.1565938188976377
0
LINE
8
BLACK
6
CONTINUOUS
10
1.3528583858267715
20
2.1565938188976377
11
1.3685370866141733
21
2.1744719291338583
0
LINE
8
BLACK
6
CONTINUOUS
10
1.3685370866141733
20
2.1744719291338583
11
1.3830129133858267
21
2.1933372047244095
0
LINE
8
BLACK
6
CONTINUOUS
10
1.3830129133858267
20
2.1933372047244095
11
1.3962238976377952
21
2.2131088188976378
0
LINE
8
BLACK
6
CONTINUOUS
10
1.3962238976377952
20
2.2131088188976378
11
1.4081134645669291
21
2.2337021653543307
0
LINE
8
BLACK
6
CONTINUOUS
10
1.4081134645669291
20
2.2337021653543307
11
1.4186307086614174
21
2.25502905511811
0
LINE
8
BLACK
6
CONTINUOUS
10
1.4186307086614174
20
2.25502905511811
11
1.427730590551181
21
2.2769981102362205
0
LINE
8
BLACK
6
CONTINUOUS
10
1.427730590551181
20
2.2769981102362205
11
1.4353741732283465
21
2.29951531496063
0
LINE
8
BLACK
6
CONTINUOUS
10
1.4353741732283465
20
2.29951531496063
11
1.4415286614173228
21
2.3224842125984253
0
LINE
8
BLACK
6
CONTINUOUS
10
1.4415286614173228
20
2.3224842125984253
11
1.4461677559055117
21
2.3458064566929133
0
LINE
8
BLACK
6
CONTINUOUS
10
1.4461677559055117
20
2.3458064566929133
11
1.4492715354330707
21
2.3693821653543305
0
LINE
8
BLACK
6
CONTINUOUS
10
1.4492715354330707
20
2.3693821653543305
11
1.4508267716535432
21
2.3931104330708659
0
LINE
8
BLACK
6
CONTINUOUS
10
1.4508267716535432
20
2.3931104330708659
11
1.4508267716535432
21
2.4168895669291337
0
LINE
8
BLACK
6
CONTINUOUS
10
1.4508267716535432
20
2.4168895669291337
11
1.4492715354330707
21
2.4406178346456691
0
LINE
8
BLACK
6
CONTINUOUS
10
1.4492715354330707
20
2.4406178346456691
11
1.4461677559055117
21
2.4641935433070867
0
LINE
8
BLACK
6
CONTINUOUS
10
1.4461677559055117
20
2.4641935433070867
11
1.4415286614173228
21
2.4875157874015748
0
LINE
8
BLACK
6
CONTINUOUS
10
1.4415286614173228
20
2.4875157874015748
11
1.4353741732283465
21
2.5104846850393701
0
LINE
8
BLACK
6
CONTINUOUS
10
1.4353741732283465
20
2.5104846850393701
11
1.427730590551181
21
2.5330018897637796
0
LINE
8
BLACK
6
CONTINUOUS
10
1.427730590551181
20
2.5330018897637796
11
1.4186307086614174
21
2.5549709448818896
0
LINE
8
BLACK
6
CONTINUOUS
10
1.4186307086614174
20
2.5549709448818896
11
1.4081134645669291
21
2.5762978346456693
0
LINE
8
BLACK
6
CONTINUOUS
10
1.4081134645669291
20
2.5762978346456693
11
1.3962238976377952
21
2.5968911811023623
0
LINE
8
BLACK
6
CONTINUOUS
10
1.3962238976377952
20
2.5968911811023623
11
1.3830129133858267
21
2.6166627952755905
0
LINE
8
BLACK
6
CONTINUOUS
10
1.3830129133858267
20
2.6166627952755905
11
1.3685370866141733
21
2.6355280708661417
0
LINE
8
BLACK
6
CONTINUOUS
10
1.3685370866141733
20
2.6355280708661417
11
1.3528583858267715
21
2.6534061811023619
0
LINE
8
BLACK
6
CONTINUOUS
10
1.3528583858267715
20
2.6534061811023619
11
1.3360439763779528
21
2.6702205905511809
0
LINE
8
BLACK
6
CONTINUOUS
10
1.3360439763779528
20
2.6702205905511809
11
1.3181658661417321
21
2.6858992913385826
0
LINE
8
BLACK
6
CONTINUOUS
10
1.3181658661417321
20
2.6858992913385826
11
1.299300590551181
21
2.700375118110236
0
LINE
8
BLACK
6
CONTINUOUS
10
1.299300590551181
20
2.700375118110236
11
1.2795289763779527
21
2.7135861023622048
0
LINE
8
BLACK
6
CONTINUOUS
10
1.2795289763779527
20
2.7135861023622048
11
1.2589356299212597
21
2.7254756692913387
0
LINE
8
BLACK
6
CONTINUOUS
10
1.2589356299212597
20
2.7254756692913387
11
1.2376087401574802
21
2.7359929133858265
0
LINE
8
BLACK
6
CONTINUOUS
10
1.2376087401574802
20
2.7359929133858265
11
1.21563968503937
21
2.7450927952755904
0
LINE
8
BLACK
6
CONTINUOUS
10
1.21563968503937
20
2.7450927952755904
11
1.1931224803149607
21
2.7527363779527558
0
LINE
8
BLACK
6
CONTINUOUS
10
1.1931224803149607
20
2.7527363779527558
11
1.1701535826771654
21
2.7588908661417322
0
LINE
8
BLACK
6
CONTINUOUS
10
1.1701535826771654
20
2.7588908661417322
11
1.1468313385826772
21
2.7635299606299211
0
LINE
8
BLACK
6
CONTINUOUS
10
1.1468313385826772
20
2.7635299606299211
11
1.1232556299212597
21
2.7666337401574803
0
LINE
8
BLACK
6
CONTINUOUS
10
1.1232556299212597
20
2.7666337401574803
11
1.0995273622047244
21
2.7681889763779526
0
LINE
8
BLACK
6
CONTINUOUS
10
1.0995273622047244
20
2.7681889763779526
11
1.0757482283464566
21
2.7681889763779526
0
LINE
8
BLACK
6
CONTINUOUS
10
1.0757482283464566
20
2.7681889763779526
11
1.0520199606299212
21
2.7666337401574803
0
LINE
8
BLACK
6
CONTINUOUS
10
1.0520199606299212
20
2.7666337401574803
11
1.028444251968504
21
2.7635299606299211
0
LINE
8
BLACK
6
CONTINUOUS
10
1.028444251968504
20
2.7635299606299211
11
1.0051220078740157
21
2.7588908661417322
0
LINE
8
BLACK
6
CONTINUOUS
10
1.0051220078740157
20
2.7588908661417322
11
0.9821531102362204
21
2.7527363779527558
0
LINE
8
BLACK
6
CONTINUOUS
10
0.9821531102362204
20
2.7527363779527558
11
0.959635905511811
21
2.7450927952755904
0
LINE
8
BLACK
6
CONTINUOUS
10
0.959635905511811
20
2.7450927952755904
11
0.9376668503937008
21
2.7359929133858265
0
LINE
8
BLACK
6
CONTINUOUS
10
0.9376668503937008
20
2.7359929133858265
11
0.9163399606299213
21
2.7254756692913387
0
LINE
8
BLACK
6
CONTINUOUS
10
0.9163399606299213
20
2.7254756692913387
11
0.8957466141732283
21
2.7135861023622048
0
LINE
8
BLACK
6
CONTINUOUS
10
0.8957466141732283
20
2.7135861023622048
11
0.8759749999999999
21
2.700375118110236
0
LINE
8
BLACK
6
CONTINUOUS
10
0.8759749999999999
20
2.700375118110236
11
0.8571097244094488
21
2.6858992913385826
0
LINE
8
BLACK
6
CONTINUOUS
10
0.8571097244094488
20
2.6858992913385826
11
0.8392316141732283
21
2.6702205905511809
0
LINE
8
BLACK
6
CONTINUOUS
10
0.8392316141732283
20
2.6702205905511809
11
0.8224172047244094
21
2.6534061811023619
0
LINE
8
BLACK
6
CONTINUOUS
10
0.8224172047244094
20
2.6534061811023619
11
0.8067385039370079
21
2.6355280708661417
0
LINE
8
BLACK
6
CONTINUOUS
10
0.8067385039370079
20
2.6355280708661417
11
0.7922626771653544
21
2.6166627952755905
0
LINE
8
BLACK
6
CONTINUOUS
10
0.7922626771653544
20
2.6166627952755905
11
0.7790516929133858
21
2.5968911811023623
0
LINE
8
BLACK
6
CONTINUOUS
10
0.7790516929133858
20
2.5968911811023623
11
0.7671621259842519
21
2.5762978346456693
0
LINE
8
BLACK
6
CONTINUOUS
10
0.7671621259842519
20
2.5762978346456693
11
0.7566448818897638
21
2.5549709448818896
0
LINE
8
BLACK
6
CONTINUOUS
10
0.7566448818897638
20
2.5549709448818896
11
0.747545
21
2.5330018897637796
0
LINE
8
BLACK
6
CONTINUOUS
10
0.747545
20
2.5330018897637796
11
0.7399014173228347
21
2.5104846850393701
0
LINE
8
BLACK
6
CONTINUOUS
10
0.7399014173228347
20
2.5104846850393701
11
0.7337469291338583
21
2.4875157874015748
0
LINE
8
BLACK
6
CONTINUOUS
10
0.7337469291338583
20
2.4875157874015748
11
0.7291078346456693
21
2.4641935433070867
0
LINE
8
BLACK
6
CONTINUOUS
10
0.7291078346456693
20
2.4641935433070867
11
0.7260040551181102
21
2.4406178346456691
0
LINE
8
BLACK
6
CONTINUOUS
10
0.7260040551181102
20
2.4406178346456691
11
0.7244488188976378
21
2.4168895669291337
0
LINE
8
BLACK
6
CONTINUOUS
10
0.7244488188976378
20
2.4168895669291337
11
0.7244488188976378
21
2.3931104330708659
0
LINE
8
BLACK
6
CONTINUOUS
10
0.2902191732283464
20
2.7918935826771651
11
0.2907518503937008
21
2.7913609055118109
0
LINE
8
BLACK
6
CONTINUOUS
10
0.2907518503937008
20
2.7913609055118109
11
0.2908267716535433
21
2.7909842519685037
0
LINE
8
BLACK
6
CONTINUOUS
10
0.2908267716535433
20
2.7909842519685037
11
0.2908267716535433
21
2.5390157480314959
0
LINE
8
BLACK
6
CONTINUOUS
10
0.2908267716535433
20
2.5390157480314959
11
0.2907518503937008
21
2.5386390944881887
0
LINE
8
BLACK
6
CONTINUOUS
10
0.2907518503937008
20
2.5386390944881887
11
0.2902191732283464
21
2.5381064173228345
0
LINE
8
BLACK
6
CONTINUOUS
10
0.2902191732283464
20
2.5381064173228345
11
0.2898425196850394
21
2.5380314960629922
0
LINE
8
BLACK
6
CONTINUOUS
10
0.2898425196850394
20
2.5380314960629922
11
-0.2298425196850394
21
2.5380314960629922
0
LINE
8
BLACK
6
CONTINUOUS
10
-0.2298425196850394
20
2.5380314960629922
11
-0.2302191732283465
21
2.5381064173228345
0
LINE
8
BLACK
6
CONTINUOUS
10
-0.2302191732283465
20
2.5381064173228345
11
-0.2307518503937008
21
2.5386390944881887
0
LINE
8
BLACK
6
CONTINUOUS
10
-0.2307518503937008
20
2.5386390944881887
11
-0.2308267716535433
21
2.5390157480314959
0
LINE
8
BLACK
6
CONTINUOUS
10
-0.2308267716535433
20
2.5390157480314959
11
-0.2308267716535433
21
2.7909842519685037
0
LINE
8
BLACK
6
CONTINUOUS
10
-0.2308267716535433
20
2.7909842519685037
11
-0.2307518503937008
21
2.7913609055118109
0
LINE
8
BLACK
6
CONTINUOUS
10
-0.2307518503937008
20
2.7913609055118109
11
-0.2302191732283465
21
2.7918935826771651
0
LINE
8
BLACK
6
CONTINUOUS
10
-0.2302191732283465
20
2.7918935826771651
11
-0.2298425196850394
21
2.7919685039370079
0
LINE
8
BLACK
6
CONTINUOUS
10
-0.2298425196850394
20
2.7919685039370079
11
0.2898425196850394
21
2.7919685039370079
0
LINE
8
BLACK
6
CONTINUOUS
10
0.2898425196850394
20
2.7919685039370079
11
0.2902191732283464
21
2.7918935826771651
0
LINE
8
BLACK
6
CONTINUOUS
10
-0.2288582677165354
20
2.79
11
-0.2288582677165354
21
2.54
0
LINE
8
BLACK
6
CONTINUOUS
10
-0.2288582677165354
20
2.54
11
0.2888582677165354
21
2.54
0
LINE
8
BLACK
6
CONTINUOUS
10
0.2888582677165354
20
2.54
11
0.2888582677165354
21
2.79
0
LINE
8
BLACK
6
CONTINUOUS
10
0.2888582677165354
20
2.79
11
-0.2288582677165354
21
2.79
0
LINE
8
BLACK
6
CONTINUOUS
10
-1.7176518503937008
20
2.7360146456692913
11
-1.710160590551181
21
2.7335805511811024
0
LINE
8
BLACK
6
CONTINUOUS
10
-1.710160590551181
20
2.7335805511811024
11
-1.7031422834645669
21
2.730004566929134
0
LINE
8
BLACK
6
CONTINUOUS
10
-1.7031422834645669
20
2.730004566929134
11
-1.6967698425196851
21
2.7253747244094488
0
LINE
8
BLACK
6
CONTINUOUS
10
-1.6967698425196851
20
2.7253747244094488
11
-1.6912000787401575
21
2.7198049606299213
0
LINE
8
BLACK
6
CONTINUOUS
10
-1.6912000787401575
20
2.7198049606299213
11
-1.6865702362204724
21
2.7134325196850395
0
LINE
8
BLACK
6
CONTINUOUS
10
-1.6865702362204724
20
2.7134325196850395
11
-1.6829942519685039
21
2.7064142125984252
0
LINE
8
BLACK
6
CONTINUOUS
10
-1.6829942519685039
20
2.7064142125984252
11
-1.6805601574803148
21
2.6989229527559053
0
LINE
8
BLACK
6
CONTINUOUS
10
-1.6805601574803148
20
2.6989229527559053
11
-1.6793279527559055
21
2.6911431102362204
0
LINE
8
BLACK
6
CONTINUOUS
10
-1.6793279527559055
20
2.6911431102362204
11
-1.6793279527559055
21
2.6832663385826772
0
LINE
8
BLACK
6
CONTINUOUS
10
-1.6793279527559055
20
2.6832663385826772
11
-1.6805601574803148
21
2.6754864960629923
0
LINE
8
BLACK
6
CONTINUOUS
10
-1.6805601574803148
20
2.6754864960629923
11
-1.6829942519685039
21
2.6679952362204724
0
LINE
8
BLACK
6
CONTINUOUS
10
-1.6829942519685039
20
2.6679952362204724
11
-1.6865702362204724
21
2.6609769291338581
0
LINE
8
BLACK
6
CONTINUOUS
10
-1.6865702362204724
20
2.6609769291338581
11
-1.6912000787401575
21
2.6546044881889763
0
LINE
8
BLACK
6
CONTINUOUS
10
-1.6912000787401575
20
2.6546044881889763
11
-1.6967698425196851
21
2.6490347244094488
0
LINE
8
BLACK
6
CONTINUOUS
10
-1.6967698425196851
20
2.6490347244094488
11
-1.7031422834645669
21
2.6444048818897636
0
LINE
8
BLACK
6
CONTINUOUS
10
-1.7031422834645669
20
2.6444048818897636
11
-1.710160590551181
21
2.6408288976377952
0
LINE
8
BLACK
6
CONTINUOUS
10
-1.710160590551181
20
2.6408288976377952
11
-1.7176518503937008
21
2.6383948031496063
0
LINE
8
BLACK
6
CONTINUOUS
10
-1.7176518503937008
20
2.6383948031496063
11
-1.7254316929133857
21
2.637162598425197
0
LINE
8
BLACK
6
CONTINUOUS
10
-1.7254316929133857
20
2.637162598425197
11
-1.733308464566929
21
2.637162598425197
0
LINE
8
BLACK
6
CONTINUOUS
10
-1.733308464566929
20
2.637162598425197
11
-1.7410883070866141
21
2.6383948031496063
0
LINE
8
BLACK
6
CONTINUOUS
10
-1.7410883070866141
20
2.6383948031496063
11
-1.7485795669291337
21
2.6408288976377952
0
LINE
8
BLACK
6
CONTINUOUS
10
-1.7485795669291337
20
2.6408288976377952
11
-1.7555978740157481
21
2.6444048818897636
0
LINE
8
BLACK
6
CONTINUOUS
10
-1.7555978740157481
20
2.6444048818897636
11
-1.7619703149606298
21
2.6490347244094488
0
LINE
8
BLACK
6
CONTINUOUS
10
-1.7619703149606298
20
2.6490347244094488
11
-1.7675400787401574
21
2.6546044881889763
0
LINE
8
BLACK
6
CONTINUOUS
10
-1.7675400787401574
20
2.6546044881889763
11
-1.7721699212598425
21
2.6609769291338581
0
LINE
8
BLACK
6
CONTINUOUS
10
-1.7721699212598425
20
2.6609769291338581
11
-1.775745905511811
21
2.6679952362204724
0
LINE
8
BLACK
6
CONTINUOUS
10
-1.775745905511811
20
2.6679952362204724
11
-1.7781799999999999
21
2.6754864960629923
0
LINE
8
BLACK
6
CONTINUOUS
10
-1.7781799999999999
20
2.6754864960629923
11
-1.7794122047244094
21
2.6832663385826772
0
LINE
8
BLACK
6
CONTINUOUS
10
-1.7794122047244094
20
2.6832663385826772
11
-1.7794122047244094
21
2.6910003937007874
0
LINE
8
BLACK
6
CONTINUOUS
10
-1.7794122047244094
20
2.6910003937007874
11
-1.7794122047244094
21
2.6911431102362204
0
LINE
8
BLACK
6
CONTINUOUS
10
-1.7794122047244094
20
2.6911431102362204
11
-1.7781799999999999
21
2.6989229527559053
0
LINE
8
BLACK
6
CONTINUOUS
10
-1.7781799999999999
20
2.6989229527559053
11
-1.775745905511811
21
2.7064142125984252
0
LINE
8
BLACK
6
CONTINUOUS
10
-1.775745905511811
20
2.7064142125984252
11
-1.7721699212598425
21
2.7134325196850395
0
LINE
8
BLACK
6
CONTINUOUS
10
-1.7721699212598425
20
2.7134325196850395
11
-1.7675400787401574
21
2.7198049606299213
0
LINE
8
BLACK
6
CONTINUOUS
10
-1.7675400787401574
20
2.7198049606299213
11
-1.7619703149606298
21
2.7253747244094488
0
LINE
8
BLACK
6
CONTINUOUS
10
-1.7619703149606298
20
2.7253747244094488
11
-1.7555978740157481
21
2.730004566929134
0
LINE
8
BLACK
6
CONTINUOUS
10
-1.7555978740157481
20
2.730004566929134
11
-1.7485795669291337
21
2.7335805511811024
0
LINE
8
BLACK
6
CONTINUOUS
10
-1.7485795669291337
20
2.7335805511811024
11
-1.7410883070866141
21
2.7360146456692913
0
LINE
8
BLACK
6
CONTINUOUS
10
-1.7410883070866141
20
2.7360146456692913
11
-1.733308464566929
21
2.7372468503937006
0
LINE
8
BLACK
6
CONTINUOUS
10
-1.733308464566929
20
2.7372468503937006
11
-1.7254316929133857
21
2.7372468503937006
0
LINE
8
BLACK
6
CONTINUOUS
10
-1.7254316929133857
20
2.7372468503937006
11
-1.7176518503937008
21
2.7360146456692913
0
LINE
8
BLACK
6
CONTINUOUS
10
-1.7775984251968504
20
2.6834090551181102
11
-1.7764108661417322
21
2.6759112204724409
0
LINE
8
BLACK
6
CONTINUOUS
10
-1.7764108661417322
20
2.6759112204724409
11
-1.7740650393700788
21
2.6686914566929132
0
LINE
8
BLACK
6
CONTINUOUS
10
-1.7740650393700788
20
2.6686914566929132
11
-1.7706186614173227
21
2.6619275590551181
0
LINE
8
BLACK
6
CONTINUOUS
10
-1.7706186614173227
20
2.6619275590551181
11
-1.7661566141732283
21
2.6557860629921257
0
LINE
8
BLACK
6
CONTINUOUS
10
-1.7661566141732283
20
2.6557860629921257
11
-1.7607887401574802
21
2.6504181889763778
0
LINE
8
BLACK
6
CONTINUOUS
10
-1.7607887401574802
20
2.6504181889763778
11
-1.7546472440944882
21
2.6459561417322832
0
LINE
8
BLACK
6
CONTINUOUS
10
-1.7546472440944882
20
2.6459561417322832
11
-1.747883346456693
21
2.6425097637795276
0
LINE
8
BLACK
6
CONTINUOUS
10
-1.747883346456693
20
2.6425097637795276
11
-1.7406635826771653
21
2.6401639370078738
0
LINE
8
BLACK
6
CONTINUOUS
10
-1.7406635826771653
20
2.6401639370078738
11
-1.7331657480314959
21
2.6389763779527557
0
LINE
8
BLACK
6
CONTINUOUS
10
-1.7331657480314959
20
2.6389763779527557
11
-1.7255744094488188
21
2.6389763779527557
0
LINE
8
BLACK
6
CONTINUOUS
10
-1.7255744094488188
20
2.6389763779527557
11
-1.7180765748031495
21
2.6401639370078738
0
LINE
8
BLACK
6
CONTINUOUS
10
-1.7180765748031495
20
2.6401639370078738
11
-1.710856811023622
21
2.6425097637795276
0
LINE
8
BLACK
6
CONTINUOUS
10
-1.710856811023622
20
2.6425097637795276
11
-1.7040929133858267
21
2.6459561417322832
0
LINE
8
BLACK
6
CONTINUOUS
10
-1.7040929133858267
20
2.6459561417322832
11
-1.6979514173228345
21
2.6504181889763778
0
LINE
8
BLACK
6
CONTINUOUS
10
-1.6979514173228345
20
2.6504181889763778
11
-1.6925835433070866
21
2.6557860629921257
0
LINE
8
BLACK
6
CONTINUOUS
10
-1.6925835433070866
20
2.6557860629921257
11
-1.688121496062992
21
2.6619275590551181
0
LINE
8
BLACK
6
CONTINUOUS
10
-1.688121496062992
20
2.6619275590551181
11
-1.6846751181102362
21
2.6686914566929132
0
LINE
8
BLACK
6
CONTINUOUS
10
-1.6846751181102362
20
2.6686914566929132
11
-1.6823292913385826
21
2.6759112204724409
0
LINE
8
BLACK
6
CONTINUOUS
10
-1.6823292913385826
20
2.6759112204724409
11
-1.6811417322834645
21
2.6834090551181102
0
LINE
8
BLACK
6
CONTINUOUS
10
-1.6811417322834645
20
2.6834090551181102
11
-1.6811417322834645
21
2.6910003937007874
0
LINE
8
BLACK
6
CONTINUOUS
10
-1.6811417322834645
20
2.6910003937007874
11
-1.6823292913385826
21
2.6984982283464567
0
LINE
8
BLACK
6
CONTINUOUS
10
-1.6823292913385826
20
2.6984982283464567
11
-1.6846751181102362
21
2.7057179921259844
0
LINE
8
BLACK
6
CONTINUOUS
10
-1.6846751181102362
20
2.7057179921259844
11
-1.688121496062992
21
2.7124818897637795
0
LINE
8
BLACK
6
CONTINUOUS
10
-1.688121496062992
20
2.7124818897637795
11
-1.6925835433070866
21
2.7186233858267714
0
LINE
8
BLACK
6
CONTINUOUS
10
-1.6925835433070866
20
2.7186233858267714
11
-1.6979514173228345
21
2.7239912598425198
0
LINE
8
BLACK
6
CONTINUOUS
10
-1.6979514173228345
20
2.7239912598425198
11
-1.7040929133858267
21
2.7284533070866139
0
LINE
8
BLACK
6
CONTINUOUS
10
-1.7040929133858267
20
2.7284533070866139
11
-1.710856811023622
21
2.73189968503937
0
LINE
8
BLACK
6
CONTINUOUS
10
-1.710856811023622
20
2.73189968503937
11
-1.7180765748031495
21
2.7342455118110234
0
LINE
8
BLACK
6
CONTINUOUS
10
-1.7180765748031495
20
2.7342455118110234
11
-1.7255744094488188
21
2.7354330708661418
0
LINE
8
BLACK
6
CONTINUOUS
10
-1.7255744094488188
20
2.7354330708661418
11
-1.7331657480314959
21
2.7354330708661418
0
LINE
8
BLACK
6
CONTINUOUS
10
-1.7331657480314959
20
2.7354330708661418
11
-1.7406635826771653
21
2.7342455118110234
0
LINE
8
BLACK
6
CONTINUOUS
10
-1.7406635826771653
20
2.7342455118110234
11
-1.747883346456693
21
2.73189968503937
0
LINE
8
BLACK
6
CONTINUOUS
10
-1.747883346456693
20
2.73189968503937
11
-1.7546472440944882
21
2.7284533070866139
0
LINE
8
BLACK
6
CONTINUOUS
10
-1.7546472440944882
20
2.7284533070866139
11
-1.7607887401574802
21
2.7239912598425198
0
LINE
8
BLACK
6
CONTINUOUS
10
-1.7607887401574802
20
2.7239912598425198
11
-1.7661566141732283
21
2.7186233858267714
0
LINE
8
BLACK
6
CONTINUOUS
10
-1.7661566141732283
20
2.7186233858267714
11
-1.7706186614173227
21
2.7124818897637795
0
LINE
8
BLACK
6
CONTINUOUS
10
-1.7706186614173227
20
2.7124818897637795
11
-1.7740650393700788
21
2.7057179921259844
0
LINE
8
BLACK
6
CONTINUOUS
10
-1.7740650393700788
20
2.7057179921259844
11
-1.7764108661417322
21
2.6984982283464567
0
LINE
8
BLACK
6
CONTINUOUS
10
-1.7764108661417322
20
2.6984982283464567
11
-1.7775984251968504
21
2.6910003937007874
0
LINE
8
BLACK
6
CONTINUOUS
10
-1.7775984251968504
20
2.6910003937007874
11
-1.7775984251968504
21
2.6834090551181102
0
CIRCLE
8
BLACK
10
1.7
20
1.9450000000000001
40
0.0068897637795276
0
CIRCLE
8
BLACK
10
1.5999999999999999
20
1.9450000000000001
40
0.0068897637795276
0
CIRCLE
8
BLACK
10
1.7
20
2.0449999999999999
40
0.0068897637795276
0
CIRCLE
8
BLACK
10
1.5999999999999999
20
2.0449999999999999
40
0.0068897637795276
0
CIRCLE
8
BLACK
10
1.7
20
2.145
40
0.0068897637795276
0
CIRCLE
8
BLACK
10
1.5999999999999999
20
2.145
40
0.0068897637795276
0
CIRCLE
8
BLACK
10
-0.24
20
0.635
40
0.0068897637795276
0
CIRCLE
8
BLACK
10
-0.24
20
0.535
40
0.0068897637795276
0
CIRCLE
8
BLACK
10
-0.34
20
0.635
40
0.0068897637795276
0
CIRCLE
8
BLACK
10
-0.34
20
0.535
40
0.0068897637795276
0
CIRCLE
8
BLACK
10
-0.44
20
0.635
40
0.0068897637795276
0
CIRCLE
8
BLACK
10
-0.44
20
0.535
40
0.0068897637795276
0
CIRCLE
8
BLACK
10
-0.54
20
0.635
40
0.0068897637795276
0
CIRCLE
8
BLACK
10
-0.54
20
0.535
40
0.0068897637795276
0
CIRCLE
8
BLACK
10
-0.64
20
0.635
40
0.0068897637795276
0
CIRCLE
8
BLACK
10
-0.64
20
0.535
40
0.0068897637795276
0
CIRCLE
8
BLACK
10
-1.99
20
2.625
40
0.0068897637795276
0
CIRCLE
8
BLACK
10
1.6099999999999999
20
2.625
40
0.0068897637795276
0
CIRCLE
8
BLACK
10
-1.24
20
2.6149999999999998
40
0.0068897637795276
0
CIRCLE
8
BLACK
10
-1.24
20
2.7149999999999999
40
0.0068897637795276
0
CIRCLE
8
BLACK
10
-1.1399999999999999
20
2.6149999999999998
40
0.0068897637795276
0
CIRCLE
8
BLACK
10
-1.1399999999999999
20
2.7149999999999999
40
0.0068897637795276
0
CIRCLE
8
BLACK
10
-1.04
20
2.6149999999999998
40
0.0068897637795276
0
CIRCLE
8
BLACK
10
-1.04
20
2.7149999999999999
40
0.0068897637795276
0
CIRCLE
8
BLACK
10
-0.9399999999999999
20
2.6149999999999998
40
0.0068897637795276
0
CIRCLE
8
BLACK
10
-0.9399999999999999
20
2.7149999999999999
40
0.0068897637795276
0
CIRCLE
8
BLACK
10
-0.84
20
2.6149999999999998
40
0.0068897637795276
0
CIRCLE
8
BLACK
10
-0.84
20
2.7149999999999999
40
0.0068897637795276
0
CIRCLE
8
BLACK
10
-0.74
20
2.6149999999999998
40
0.0068897637795276
0
CIRCLE
8
BLACK
10
-0.74
20
2.7149999999999999
40
0.0068897637795276
0
CIRCLE
8
BLACK
10
-0.64
20
2.6149999999999998
40
0.0068897637795276
0
CIRCLE
8
BLACK
10
-0.64
20
2.7149999999999999
40
0.0068897637795276
0
CIRCLE
8
BLACK
10
-0.51
20
2.6149999999999998
40
0.0068897637795276
0
CIRCLE
8
BLACK
10
-0.51
20
2.7149999999999999
40
0.0068897637795276
0
CIRCLE
8
BLACK
10
-0.41
20
2.6149999999999998
40
0.0068897637795276
0
CIRCLE
8
BLACK
10
-0.41
20
2.7149999999999999
40
0.0068897637795276
0
CIRCLE
8
BLACK
10
-0.31
20
2.6149999999999998
40
0.0068897637795276
0
CIRCLE
8
BLACK
10
-0.31
20
2.7149999999999999
40
0.0068897637795276
0
CIRCLE
8
BLACK
10
-1.99
20
0.625
40
0.0068897637795276
0
CIRCLE
8
BLACK
10
-1.2793700787401574
20
1.8277559055118109
40
0.0068897637795276
0
CIRCLE
8
BLACK
10
-1.2793700787401574
20
1.0009842519685039
40
0.0068897637795276
0
CIRCLE
8
BLACK
10
-1.99
20
2.2050000000000001
40
0.0068897637795276
0
CIRCLE
8
BLACK
10
-2.0899999999999999
20
2.3050000000000002
40
0.0068897637795276
0
CIRCLE
8
BLACK
10
-2.0899999999999999
20
2.105
40
0.0068897637795276
0
CIRCLE
8
BLACK
10
-1.8899999999999999
20
2.3050000000000002
40
0.0068897637795276
0
CIRCLE
8
BLACK
10
-1.8899999999999999
20
2.105
40
0.0068897637795276
0
CIRCLE
8
BLACK
10
0.9399999999999999
20
2.4049999999999998
40
0.0068897637795276
0
CIRCLE
8
BLACK
10
1.235275590551181
20
2.4049999999999998
40
0.0068897637795276
0
CIRCLE
8
BLACK
10
0.37
20
2.6149999999999998
40
0.0068897637795276
0
CIRCLE
8
BLACK
10
0.37
20
2.7149999999999999
40
0.0068897637795276
0
CIRCLE
8
BLACK
10
0.47
20
2.6149999999999998
40
0.0068897637795276
0
CIRCLE
8
BLACK
10
0.47
20
2.7149999999999999
40
0.0068897637795276
0
CIRCLE
8
BLACK
10
0.57
20
2.6149999999999998
40
0.0068897637795276
0
CIRCLE
8
BLACK
10
0.57
20
2.7149999999999999
40
0.0068897637795276
0
CIRCLE
8
BLACK
10
-1.0069291338582678
20
1.776496062992126
40
0.0068897637795276
0
CIRCLE
8
BLACK
10
-0.9069291338582677
20
1.776496062992126
40
0.0068897637795276
0
CIRCLE
8
BLACK
10
1.6099999999999999
20
0.625
40
0.0068897637795276
0
CIRCLE
8
BLACK
10
-1.47
20
2.6149999999999998
40
0.0068897637795276
0
CIRCLE
8
BLACK
10
-1.47
20
2.7149999999999999
40
0.0068897637795276
0
CIRCLE
8
BLACK
10
-1.3699999999999999
20
2.6149999999999998
40
0.0068897637795276
0
CIRCLE
8
BLACK
10
-1.3699999999999999
20
2.7149999999999999
40
0.0068897637795276
0
CIRCLE
8
BLACK
10
0.33
20
2.0049999999999999
40
0.0068897637795276
0
CIRCLE
8
BLACK
10
0.43
20
2.0049999999999999
40
0.0068897637795276
0
CIRCLE
8
BLACK
10
-1.1699999999999999
20
0.535
40
0.0068897637795276
0
CIRCLE
8
BLACK
10
-1.1699999999999999
20
0.635
40
0.0068897637795276
0
CIRCLE
8
BLACK
10
-1.0700000000000001
20
0.535
40
0.0068897637795276
0
CIRCLE
8
BLACK
10
-1.0700000000000001
20
0.635
40
0.0068897637795276
0
CIRCLE
8
BLACK
10
-0.97
20
0.535
40
0.0068897637795276
0
CIRCLE
8
BLACK
10
-0.97
20
0.635
40
0.0068897637795276
0
CIRCLE
8
BLACK
10
-0.87
20
0.535
40
0.0068897637795276
0
CIRCLE
8
BLACK
10
-0.87
20
0.635
40
0.0068897637795276
0
CIRCLE
8
BLACK
10
-0.77
20
0.535
40
0.0068897637795276
0
CIRCLE
8
BLACK
10
-0.77
20
0.635
40
0.0068897637795276
0
CIRCLE
8
BLACK
10
1.5999999999999999
20
1.7249999999999999
40
0.0068897637795276
0
CIRCLE
8
BLACK
10
1.7
20
1.7249999999999999
40
0.0068897637795276
0
CIRCLE
8
BLACK
10
1.5999999999999999
20
1.625
40
0.0068897637795276
0
CIRCLE
8
BLACK
10
1.7
20
1.625
40
0.0068897637795276
0
CIRCLE
8
BLACK
10
1.5999999999999999
20
1.5249999999999999
40
0.0068897637795276
0
CIRCLE
8
BLACK
10
1.7
20
1.5249999999999999
40
0.0068897637795276
0
CIRCLE
8
BLACK
10
-0.9194488188976377
20
2.2426181102362204
40
0.0039370078740157
0
CIRCLE
8
BLACK
10
-0.9607874015748031
20
2.2426181102362204
40
0.0039370078740157
0
CIRCLE
8
BLACK
10
-1.0021259842519685
20
2.2426181102362204
40
0.0039370078740157
0
CIRCLE
8
BLACK
10
-0.9194488188976377
20
2.2012795275590551
40
0.0039370078740157
0
CIRCLE
8
BLACK
10
-0.9607874015748031
20
2.2012795275590551
40
0.0039370078740157
0
CIRCLE
8
BLACK
10
-1.0021259842519685
20
2.2012795275590551
40
0.0039370078740157
0
CIRCLE
8
BLACK
10
-0.9194488188976377
20
2.1599409448818898
40
0.0039370078740157
0
CIRCLE
8
BLACK
10
-0.9607874015748031
20
2.1599409448818898
40
0.0039370078740157
0
CIRCLE
8
BLACK
10
-1.0021259842519685
20
2.1599409448818898
40
0.0039370078740157
0
CIRCLE
8
BLACK
10
-0.4301574803149606
20
2.3624015748031497
40
0.0049212598425197
0
CIRCLE
8
BLACK
10
-0.3907874015748031
20
2.3624015748031497
40
0.0049212598425197
  0
ENDSEC
  0
EOF
