  0
SECTION
  2
HEADER
  9
$ANGBASE
  50
0.0
  9
$ANGDIR
  70
1
  9
$MEASUREMENT
  70
0
  0
ENDSEC
  0
SECTION
  2
TABLES
  0
TABLE
  2
LTYPE
  70
4
  0
LTYPE
  5
40F
  2
CONTINUOUS
  70
0
  3
Solid line
  72
65
  73
0
  40
0.0
  0
LTYPE
  5
410
  2
DASHDOT
 70
0
  3
Dash Dot ____ _ ____ _
 72
65
 73
4
 40
2.0
 49
1.25
 49
-0.25
 49
0.25
 49
-0.25
  0
LTYPE
  5
411
  2
DASHED
 70
0
  3
Dashed __ __ __ __ __
 72
65
 73
2
 40
0.75
 49
0.5
 49
-0.25
  0
LTYPE
  5
43B
  2
DOTTED
 70
0
  3
Dotted .  .  .  .
 72
65
 73
2
 40
0.2
 49
0.0
 49
-0.2
  0
ENDTAB
  0
TABLE
  2
STYLE
  70
4
  0
STYLE
  2
KICAD
  70
0
  40
0
  41
1
  42
1
  50
0
  71
0
  3
isocp.shx
  0
STYLE
  2
KICADB
  70
0
  40
0
  41
1
  42
1
  50
0
  71
0
  3
isocp.shx
  0
STYLE
  2
KICADI
  70
0
  40
0
  41
1
  42
1
  50
15
  71
0
  3
isocp.shx
  0
STYLE
  2
KICADBI
  70
0
  40
0
  41
1
  42
1
  50
15
  71
0
  3
isocp.shx
  0
ENDTAB
  0
TABLE
  2
LAYER
  70
1
  0
LAYER
  2
BLACK
  70
0
  62
7
  6
CONTINUOUS
  0
ENDTAB
  0
ENDSEC
  0
SECTION
  2
ENTITIES
0
LINE
8
BLACK
6
CONTINUOUS
10
-0.1084381496062992
20
0.5842507874015748
11
-0.105245
21
0.5821172047244094
0
LINE
8
BLACK
6
CONTINUOUS
10
-0.105245
20
0.5821172047244094
11
-0.1031114173228346
21
0.5789240551181102
0
LINE
8
BLACK
6
CONTINUOUS
10
-0.1031114173228346
20
0.5789240551181102
11
-0.1023622047244094
21
0.5751574803149606
0
LINE
8
BLACK
6
CONTINUOUS
10
-0.1023622047244094
20
0.5751574803149606
11
-0.1023622047244094
21
0.4885433070866141
0
LINE
8
BLACK
6
CONTINUOUS
10
-0.1023622047244094
20
0.4885433070866141
11
-0.1031114173228346
21
0.4847767322834646
0
LINE
8
BLACK
6
CONTINUOUS
10
-0.1031114173228346
20
0.4847767322834646
11
-0.105245
21
0.4815835826771653
0
LINE
8
BLACK
6
CONTINUOUS
10
-0.105245
20
0.4815835826771653
11
-0.1084381496062992
21
0.47945
0
LINE
8
BLACK
6
CONTINUOUS
10
-0.1084381496062992
20
0.47945
11
-0.1122047244094488
21
0.4787007874015748
0
LINE
8
BLACK
6
CONTINUOUS
10
-0.1122047244094488
20
0.4787007874015748
11
-0.1318897637795275
21
0.4787007874015748
0
LINE
8
BLACK
6
CONTINUOUS
10
-0.1318897637795275
20
0.4787007874015748
11
-0.1356563385826772
21
0.47945
0
LINE
8
BLACK
6
CONTINUOUS
10
-0.1356563385826772
20
0.47945
11
-0.1388494881889764
21
0.4815835826771653
0
LINE
8
BLACK
6
CONTINUOUS
10
-0.1388494881889764
20
0.4815835826771653
11
-0.1409830708661417
21
0.4847767322834646
0
LINE
8
BLACK
6
CONTINUOUS
10
-0.1409830708661417
20
0.4847767322834646
11
-0.1417322834645669
21
0.4885433070866141
0
LINE
8
BLACK
6
CONTINUOUS
10
-0.1417322834645669
20
0.4885433070866141
11
-0.1417322834645669
21
0.5751574803149606
0
LINE
8
BLACK
6
CONTINUOUS
10
-0.1417322834645669
20
0.5751574803149606
11
-0.1409830708661417
21
0.5789240551181102
0
LINE
8
BLACK
6
CONTINUOUS
10
-0.1409830708661417
20
0.5789240551181102
11
-0.1388494881889764
21
0.5821172047244094
0
LINE
8
BLACK
6
CONTINUOUS
10
-0.1388494881889764
20
0.5821172047244094
11
-0.1356563385826772
21
0.5842507874015748
0
LINE
8
BLACK
6
CONTINUOUS
10
-0.1356563385826772
20
0.5842507874015748
11
-0.1318897637795275
21
0.585
0
LINE
8
BLACK
6
CONTINUOUS
10
-0.1318897637795275
20
0.585
11
-0.1122047244094488
21
0.585
0
LINE
8
BLACK
6
CONTINUOUS
10
-0.1122047244094488
20
0.585
11
-0.1084381496062992
21
0.5842507874015748
0
LINE
8
BLACK
6
CONTINUOUS
10
0.184868937007874
20
0.5842507874015748
11
0.1880620866141732
21
0.5821172047244094
0
LINE
8
BLACK
6
CONTINUOUS
10
0.1880620866141732
20
0.5821172047244094
11
0.1901956692913386
21
0.5789240551181102
0
LINE
8
BLACK
6
CONTINUOUS
10
0.1901956692913386
20
0.5789240551181102
11
0.1909448818897638
21
0.5751574803149606
0
LINE
8
BLACK
6
CONTINUOUS
10
0.1909448818897638
20
0.5751574803149606
11
0.1909448818897638
21
0.4885433070866141
0
LINE
8
BLACK
6
CONTINUOUS
10
0.1909448818897638
20
0.4885433070866141
11
0.1901956692913386
21
0.4847767322834646
0
LINE
8
BLACK
6
CONTINUOUS
10
0.1901956692913386
20
0.4847767322834646
11
0.1880620866141732
21
0.4815835826771653
0
LINE
8
BLACK
6
CONTINUOUS
10
0.1880620866141732
20
0.4815835826771653
11
0.184868937007874
21
0.47945
0
LINE
8
BLACK
6
CONTINUOUS
10
0.184868937007874
20
0.47945
11
0.1811023622047244
21
0.4787007874015748
0
LINE
8
BLACK
6
CONTINUOUS
10
0.1811023622047244
20
0.4787007874015748
11
0.1614173228346457
21
0.4787007874015748
0
LINE
8
BLACK
6
CONTINUOUS
10
0.1614173228346457
20
0.4787007874015748
11
0.1576507480314961
21
0.47945
0
LINE
8
BLACK
6
CONTINUOUS
10
0.1576507480314961
20
0.47945
11
0.1544575984251969
21
0.4815835826771653
0
LINE
8
BLACK
6
CONTINUOUS
10
0.1544575984251969
20
0.4815835826771653
11
0.1523240157480315
21
0.4847767322834646
0
LINE
8
BLACK
6
CONTINUOUS
10
0.1523240157480315
20
0.4847767322834646
11
0.1515748031496063
21
0.4885433070866141
0
LINE
8
BLACK
6
CONTINUOUS
10
0.1515748031496063
20
0.4885433070866141
11
0.1515748031496063
21
0.5751574803149606
0
LINE
8
BLACK
6
CONTINUOUS
10
0.1515748031496063
20
0.5751574803149606
11
0.1523240157480315
21
0.5789240551181102
0
LINE
8
BLACK
6
CONTINUOUS
10
0.1523240157480315
20
0.5789240551181102
11
0.1544575984251969
21
0.5821172047244094
0
LINE
8
BLACK
6
CONTINUOUS
10
0.1544575984251969
20
0.5821172047244094
11
0.1576507480314961
21
0.5842507874015748
0
LINE
8
BLACK
6
CONTINUOUS
10
0.1576507480314961
20
0.5842507874015748
11
0.1614173228346457
21
0.585
0
LINE
8
BLACK
6
CONTINUOUS
10
0.1614173228346457
20
0.585
11
0.1811023622047244
21
0.585
0
LINE
8
BLACK
6
CONTINUOUS
10
0.1811023622047244
20
0.585
11
0.184868937007874
21
0.5842507874015748
0
LINE
8
BLACK
6
CONTINUOUS
10
0.2823492519685039
20
0.5842507874015748
11
0.2855424015748032
21
0.5821172047244094
0
LINE
8
BLACK
6
CONTINUOUS
10
0.2855424015748032
20
0.5821172047244094
11
0.2876759842519685
21
0.5789240551181102
0
LINE
8
BLACK
6
CONTINUOUS
10
0.2876759842519685
20
0.5789240551181102
11
0.2884251968503937
21
0.5751574803149606
0
LINE
8
BLACK
6
CONTINUOUS
10
0.2884251968503937
20
0.5751574803149606
11
0.2884251968503937
21
0.4885433070866141
0
LINE
8
BLACK
6
CONTINUOUS
10
0.2884251968503937
20
0.4885433070866141
11
0.2876759842519685
21
0.4847767322834646
0
LINE
8
BLACK
6
CONTINUOUS
10
0.2876759842519685
20
0.4847767322834646
11
0.2855424015748032
21
0.4815835826771653
0
LINE
8
BLACK
6
CONTINUOUS
10
0.2855424015748032
20
0.4815835826771653
11
0.2823492519685039
21
0.47945
0
LINE
8
BLACK
6
CONTINUOUS
10
0.2823492519685039
20
0.47945
11
0.2785826771653543
21
0.4787007874015748
0
LINE
8
BLACK
6
CONTINUOUS
10
0.2785826771653543
20
0.4787007874015748
11
0.2588976377952756
21
0.4787007874015748
0
LINE
8
BLACK
6
CONTINUOUS
10
0.2588976377952756
20
0.4787007874015748
11
0.255131062992126
21
0.47945
0
LINE
8
BLACK
6
CONTINUOUS
10
0.255131062992126
20
0.47945
11
0.2519379133858268
21
0.4815835826771653
0
LINE
8
BLACK
6
CONTINUOUS
10
0.2519379133858268
20
0.4815835826771653
11
0.2498043307086614
21
0.4847767322834646
0
LINE
8
BLACK
6
CONTINUOUS
10
0.2498043307086614
20
0.4847767322834646
11
0.2490551181102362
21
0.4885433070866141
0
LINE
8
BLACK
6
CONTINUOUS
10
0.2490551181102362
20
0.4885433070866141
11
0.2490551181102362
21
0.5751574803149606
0
LINE
8
BLACK
6
CONTINUOUS
10
0.2490551181102362
20
0.5751574803149606
11
0.2498043307086614
21
0.5789240551181102
0
LINE
8
BLACK
6
CONTINUOUS
10
0.2498043307086614
20
0.5789240551181102
11
0.2519379133858268
21
0.5821172047244094
0
LINE
8
BLACK
6
CONTINUOUS
10
0.2519379133858268
20
0.5821172047244094
11
0.255131062992126
21
0.5842507874015748
0
LINE
8
BLACK
6
CONTINUOUS
10
0.255131062992126
20
0.5842507874015748
11
0.2588976377952756
21
0.585
0
LINE
8
BLACK
6
CONTINUOUS
10
0.2588976377952756
20
0.585
11
0.2785826771653543
21
0.585
0
LINE
8
BLACK
6
CONTINUOUS
10
0.2785826771653543
20
0.585
11
0.2823492519685039
21
0.5842507874015748
0
LINE
8
BLACK
6
CONTINUOUS
10
0.6740815354330708
20
0.5842507874015748
11
0.6772746850393701
21
0.5821172047244094
0
LINE
8
BLACK
6
CONTINUOUS
10
0.6772746850393701
20
0.5821172047244094
11
0.6794082677165354
21
0.5789240551181102
0
LINE
8
BLACK
6
CONTINUOUS
10
0.6794082677165354
20
0.5789240551181102
11
0.6801574803149606
21
0.5751574803149606
0
LINE
8
BLACK
6
CONTINUOUS
10
0.6801574803149606
20
0.5751574803149606
11
0.6801574803149606
21
0.4885433070866141
0
LINE
8
BLACK
6
CONTINUOUS
10
0.6801574803149606
20
0.4885433070866141
11
0.6794082677165354
21
0.4847767322834646
0
LINE
8
BLACK
6
CONTINUOUS
10
0.6794082677165354
20
0.4847767322834646
11
0.6772746850393701
21
0.4815835826771653
0
LINE
8
BLACK
6
CONTINUOUS
10
0.6772746850393701
20
0.4815835826771653
11
0.6740815354330708
21
0.47945
0
LINE
8
BLACK
6
CONTINUOUS
10
0.6740815354330708
20
0.47945
11
0.6703149606299212
21
0.4787007874015748
0
LINE
8
BLACK
6
CONTINUOUS
10
0.6703149606299212
20
0.4787007874015748
11
0.6506299212598425
21
0.4787007874015748
0
LINE
8
BLACK
6
CONTINUOUS
10
0.6506299212598425
20
0.4787007874015748
11
0.6468633464566929
21
0.47945
0
LINE
8
BLACK
6
CONTINUOUS
10
0.6468633464566929
20
0.47945
11
0.6436701968503937
21
0.4815835826771653
0
LINE
8
BLACK
6
CONTINUOUS
10
0.6436701968503937
20
0.4815835826771653
11
0.6415366141732284
21
0.4847767322834646
0
LINE
8
BLACK
6
CONTINUOUS
10
0.6415366141732284
20
0.4847767322834646
11
0.6407874015748032
21
0.4885433070866141
0
LINE
8
BLACK
6
CONTINUOUS
10
0.6407874015748032
20
0.4885433070866141
11
0.6407874015748032
21
0.5751574803149606
0
LINE
8
BLACK
6
CONTINUOUS
10
0.6407874015748032
20
0.5751574803149606
11
0.6415366141732284
21
0.5789240551181102
0
LINE
8
BLACK
6
CONTINUOUS
10
0.6415366141732284
20
0.5789240551181102
11
0.6436701968503937
21
0.5821172047244094
0
LINE
8
BLACK
6
CONTINUOUS
10
0.6436701968503937
20
0.5821172047244094
11
0.6468633464566929
21
0.5842507874015748
0
LINE
8
BLACK
6
CONTINUOUS
10
0.6468633464566929
20
0.5842507874015748
11
0.6506299212598425
21
0.585
0
LINE
8
BLACK
6
CONTINUOUS
10
0.6506299212598425
20
0.585
11
0.6703149606299212
21
0.585
0
LINE
8
BLACK
6
CONTINUOUS
10
0.6703149606299212
20
0.585
11
0.6740815354330708
21
0.5842507874015748
0
LINE
8
BLACK
6
CONTINUOUS
10
-1.1399999999999999
20
0.505
11
-1.2
21
0.505
0
LINE
8
BLACK
6
CONTINUOUS
10
-1.2
20
0.505
11
-1.2
21
0.5649999999999999
0
LINE
8
BLACK
6
CONTINUOUS
10
-1.2
20
0.5649999999999999
11
-1.1399999999999999
21
0.5649999999999999
0
LINE
8
BLACK
6
CONTINUOUS
10
-1.1399999999999999
20
0.5649999999999999
11
-1.1399999999999999
21
0.505
0
LINE
8
BLACK
6
CONTINUOUS
10
-1.04
20
0.505
11
-1.0999999999999999
21
0.505
0
LINE
8
BLACK
6
CONTINUOUS
10
-1.0999999999999999
20
0.505
11
-1.0999999999999999
21
0.5649999999999999
0
LINE
8
BLACK
6
CONTINUOUS
10
-1.0999999999999999
20
0.5649999999999999
11
-1.04
21
0.5649999999999999
0
LINE
8
BLACK
6
CONTINUOUS
10
-1.04
20
0.5649999999999999
11
-1.04
21
0.505
0
LINE
8
BLACK
6
CONTINUOUS
10
-0.9399999999999999
20
0.505
11
-1.
21
0.505
0
LINE
8
BLACK
6
CONTINUOUS
10
-1.
20
0.505
11
-1.
21
0.5649999999999999
0
LINE
8
BLACK
6
CONTINUOUS
10
-1.
20
0.5649999999999999
11
-0.9399999999999999
21
0.5649999999999999
0
LINE
8
BLACK
6
CONTINUOUS
10
-0.9399999999999999
20
0.5649999999999999
11
-0.9399999999999999
21
0.505
0
LINE
8
BLACK
6
CONTINUOUS
10
-0.84
20
0.505
11
-0.9
21
0.505
0
LINE
8
BLACK
6
CONTINUOUS
10
-0.9
20
0.505
11
-0.9
21
0.5649999999999999
0
LINE
8
BLACK
6
CONTINUOUS
10
-0.9
20
0.5649999999999999
11
-0.84
21
0.5649999999999999
0
LINE
8
BLACK
6
CONTINUOUS
10
-0.84
20
0.5649999999999999
11
-0.84
21
0.505
0
LINE
8
BLACK
6
CONTINUOUS
10
-0.74
20
0.505
11
-0.7999999999999999
21
0.505
0
LINE
8
BLACK
6
CONTINUOUS
10
-0.7999999999999999
20
0.505
11
-0.7999999999999999
21
0.5649999999999999
0
LINE
8
BLACK
6
CONTINUOUS
10
-0.7999999999999999
20
0.5649999999999999
11
-0.74
21
0.5649999999999999
0
LINE
8
BLACK
6
CONTINUOUS
10
-0.74
20
0.5649999999999999
11
-0.74
21
0.505
0
LINE
8
BLACK
6
CONTINUOUS
10
-0.61
20
0.505
11
-0.67
21
0.505
0
LINE
8
BLACK
6
CONTINUOUS
10
-0.67
20
0.505
11
-0.67
21
0.5649999999999999
0
LINE
8
BLACK
6
CONTINUOUS
10
-0.67
20
0.5649999999999999
11
-0.61
21
0.5649999999999999
0
LINE
8
BLACK
6
CONTINUOUS
10
-0.61
20
0.5649999999999999
11
-0.61
21
0.505
0
LINE
8
BLACK
6
CONTINUOUS
10
-0.51
20
0.505
11
-0.57
21
0.505
0
LINE
8
BLACK
6
CONTINUOUS
10
-0.57
20
0.505
11
-0.57
21
0.5649999999999999
0
LINE
8
BLACK
6
CONTINUOUS
10
-0.57
20
0.5649999999999999
11
-0.51
21
0.5649999999999999
0
LINE
8
BLACK
6
CONTINUOUS
10
-0.51
20
0.5649999999999999
11
-0.51
21
0.505
0
LINE
8
BLACK
6
CONTINUOUS
10
-0.41
20
0.505
11
-0.47
21
0.505
0
LINE
8
BLACK
6
CONTINUOUS
10
-0.47
20
0.505
11
-0.47
21
0.5649999999999999
0
LINE
8
BLACK
6
CONTINUOUS
10
-0.47
20
0.5649999999999999
11
-0.41
21
0.5649999999999999
0
LINE
8
BLACK
6
CONTINUOUS
10
-0.41
20
0.5649999999999999
11
-0.41
21
0.505
0
LINE
8
BLACK
6
CONTINUOUS
10
-0.31
20
0.505
11
-0.37
21
0.505
0
LINE
8
BLACK
6
CONTINUOUS
10
-0.37
20
0.505
11
-0.37
21
0.5649999999999999
0
LINE
8
BLACK
6
CONTINUOUS
10
-0.37
20
0.5649999999999999
11
-0.31
21
0.5649999999999999
0
LINE
8
BLACK
6
CONTINUOUS
10
-0.31
20
0.5649999999999999
11
-0.31
21
0.505
0
LINE
8
BLACK
6
CONTINUOUS
10
-0.21
20
0.505
11
-0.27
21
0.505
0
LINE
8
BLACK
6
CONTINUOUS
10
-0.27
20
0.505
11
-0.27
21
0.5649999999999999
0
LINE
8
BLACK
6
CONTINUOUS
10
-0.27
20
0.5649999999999999
11
-0.21
21
0.5649999999999999
0
LINE
8
BLACK
6
CONTINUOUS
10
-0.21
20
0.5649999999999999
11
-0.21
21
0.505
0
LINE
8
BLACK
6
CONTINUOUS
10
-1.9702157874015747
20
0.7414414566929134
11
-1.9573028740157481
21
0.7384941732283464
0
LINE
8
BLACK
6
CONTINUOUS
10
-1.9573028740157481
20
0.7384941732283464
11
-1.9448011811023622
21
0.7341196456692913
0
LINE
8
BLACK
6
CONTINUOUS
10
-1.9448011811023622
20
0.7341196456692913
11
-1.9328678346456694
21
0.7283728346456693
0
LINE
8
BLACK
6
CONTINUOUS
10
-1.9328678346456694
20
0.7283728346456693
11
-1.9216529921259842
21
0.7213261023622047
0
LINE
8
BLACK
6
CONTINUOUS
10
-1.9216529921259842
20
0.7213261023622047
11
-1.9112976377952755
21
0.7130679527559055
0
LINE
8
BLACK
6
CONTINUOUS
10
-1.9112976377952755
20
0.7130679527559055
11
-1.9019320472440944
21
0.7037023622047244
0
LINE
8
BLACK
6
CONTINUOUS
10
-1.9019320472440944
20
0.7037023622047244
11
-1.8936738976377951
21
0.6933470078740157
0
LINE
8
BLACK
6
CONTINUOUS
10
-1.8936738976377951
20
0.6933470078740157
11
-1.8866271653543307
21
0.6821321653543307
0
LINE
8
BLACK
6
CONTINUOUS
10
-1.8866271653543307
20
0.6821321653543307
11
-1.8808803543307087
21
0.6701988188976378
0
LINE
8
BLACK
6
CONTINUOUS
10
-1.8808803543307087
20
0.6701988188976378
11
-1.8765058267716535
21
0.657697125984252
0
LINE
8
BLACK
6
CONTINUOUS
10
-1.8765058267716535
20
0.657697125984252
11
-1.8735585433070865
21
0.6447842125984252
0
LINE
8
BLACK
6
CONTINUOUS
10
-1.8735585433070865
20
0.6447842125984252
11
-1.872075590551181
21
0.6316224803149606
0
LINE
8
BLACK
6
CONTINUOUS
10
-1.872075590551181
20
0.6316224803149606
11
-1.872075590551181
21
0.6183775196850394
0
LINE
8
BLACK
6
CONTINUOUS
10
-1.872075590551181
20
0.6183775196850394
11
-1.8735585433070865
21
0.6052157874015748
0
LINE
8
BLACK
6
CONTINUOUS
10
-1.8735585433070865
20
0.6052157874015748
11
-1.8765058267716535
21
0.592302874015748
0
LINE
8
BLACK
6
CONTINUOUS
10
-1.8765058267716535
20
0.592302874015748
11
-1.8808803543307087
21
0.5798011811023622
0
LINE
8
BLACK
6
CONTINUOUS
10
-1.8808803543307087
20
0.5798011811023622
11
-1.8866271653543307
21
0.5678678346456693
0
LINE
8
BLACK
6
CONTINUOUS
10
-1.8866271653543307
20
0.5678678346456693
11
-1.8936738976377951
21
0.5566529921259843
0
LINE
8
BLACK
6
CONTINUOUS
10
-1.8936738976377951
20
0.5566529921259843
11
-1.9019320472440944
21
0.5462976377952756
0
LINE
8
BLACK
6
CONTINUOUS
10
-1.9019320472440944
20
0.5462976377952756
11
-1.9112976377952755
21
0.5369320472440945
0
LINE
8
BLACK
6
CONTINUOUS
10
-1.9112976377952755
20
0.5369320472440945
11
-1.9216529921259842
21
0.5286738976377953
0
LINE
8
BLACK
6
CONTINUOUS
10
-1.9216529921259842
20
0.5286738976377953
11
-1.9328678346456694
21
0.5216271653543307
0
LINE
8
BLACK
6
CONTINUOUS
10
-1.9328678346456694
20
0.5216271653543307
11
-1.9448011811023622
21
0.5158803543307087
0
LINE
8
BLACK
6
CONTINUOUS
10
-1.9448011811023622
20
0.5158803543307087
11
-1.9573028740157481
21
0.5115058267716536
0
LINE
8
BLACK
6
CONTINUOUS
10
-1.9573028740157481
20
0.5115058267716536
11
-1.9702157874015747
21
0.5085585433070866
0
LINE
8
BLACK
6
CONTINUOUS
10
-1.9702157874015747
20
0.5085585433070866
11
-1.9833775196850394
21
0.5070755905511811
0
LINE
8
BLACK
6
CONTINUOUS
10
-1.9833775196850394
20
0.5070755905511811
11
-1.9966224803149606
21
0.5070755905511811
0
LINE
8
BLACK
6
CONTINUOUS
10
-1.9966224803149606
20
0.5070755905511811
11
-2.0097842125984253
21
0.5085585433070866
0
LINE
8
BLACK
6
CONTINUOUS
10
-2.0097842125984253
20
0.5085585433070866
11
-2.0226971259842519
21
0.5115058267716536
0
LINE
8
BLACK
6
CONTINUOUS
10
-2.0226971259842519
20
0.5115058267716536
11
-2.0351988188976375
21
0.5158803543307087
0
LINE
8
BLACK
6
CONTINUOUS
10
-2.0351988188976375
20
0.5158803543307087
11
-2.0471321653543306
21
0.5216271653543307
0
LINE
8
BLACK
6
CONTINUOUS
10
-2.0471321653543306
20
0.5216271653543307
11
-2.0583470078740156
21
0.5286738976377953
0
LINE
8
BLACK
6
CONTINUOUS
10
-2.0583470078740156
20
0.5286738976377953
11
-2.0687023622047245
21
0.5369320472440945
0
LINE
8
BLACK
6
CONTINUOUS
10
-2.0687023622047245
20
0.5369320472440945
11
-2.0780679527559056
21
0.5462976377952756
0
LINE
8
BLACK
6
CONTINUOUS
10
-2.0780679527559056
20
0.5462976377952756
11
-2.0863261023622046
21
0.5566529921259843
0
LINE
8
BLACK
6
CONTINUOUS
10
-2.0863261023622046
20
0.5566529921259843
11
-2.093372834645669
21
0.5678678346456693
0
LINE
8
BLACK
6
CONTINUOUS
10
-2.093372834645669
20
0.5678678346456693
11
-2.0991196456692913
21
0.5798011811023622
0
LINE
8
BLACK
6
CONTINUOUS
10
-2.0991196456692913
20
0.5798011811023622
11
-2.1034941732283463
21
0.592302874015748
0
LINE
8
BLACK
6
CONTINUOUS
10
-2.1034941732283463
20
0.592302874015748
11
-2.1064414566929135
21
0.6052157874015748
0
LINE
8
BLACK
6
CONTINUOUS
10
-2.1064414566929135
20
0.6052157874015748
11
-2.107924409448819
21
0.6183775196850394
0
LINE
8
BLACK
6
CONTINUOUS
10
-2.107924409448819
20
0.6183775196850394
11
-2.107924409448819
21
0.6316224803149606
0
LINE
8
BLACK
6
CONTINUOUS
10
-2.107924409448819
20
0.6316224803149606
11
-2.1064414566929135
21
0.6447842125984252
0
LINE
8
BLACK
6
CONTINUOUS
10
-2.1064414566929135
20
0.6447842125984252
11
-2.1034941732283463
21
0.657697125984252
0
LINE
8
BLACK
6
CONTINUOUS
10
-2.1034941732283463
20
0.657697125984252
11
-2.0991196456692913
21
0.6701988188976378
0
LINE
8
BLACK
6
CONTINUOUS
10
-2.0991196456692913
20
0.6701988188976378
11
-2.093372834645669
21
0.6821321653543307
0
LINE
8
BLACK
6
CONTINUOUS
10
-2.093372834645669
20
0.6821321653543307
11
-2.0863261023622046
21
0.6933470078740157
0
LINE
8
BLACK
6
CONTINUOUS
10
-2.0863261023622046
20
0.6933470078740157
11
-2.0780679527559056
21
0.7037023622047244
0
LINE
8
BLACK
6
CONTINUOUS
10
-2.0780679527559056
20
0.7037023622047244
11
-2.0687023622047245
21
0.7130679527559055
0
LINE
8
BLACK
6
CONTINUOUS
10
-2.0687023622047245
20
0.7130679527559055
11
-2.0583470078740156
21
0.7213261023622047
0
LINE
8
BLACK
6
CONTINUOUS
10
-2.0583470078740156
20
0.7213261023622047
11
-2.0471321653543306
21
0.7283728346456693
0
LINE
8
BLACK
6
CONTINUOUS
10
-2.0471321653543306
20
0.7283728346456693
11
-2.0351988188976375
21
0.7341196456692913
0
LINE
8
BLACK
6
CONTINUOUS
10
-2.0351988188976375
20
0.7341196456692913
11
-2.0226971259842519
21
0.7384941732283464
0
LINE
8
BLACK
6
CONTINUOUS
10
-2.0226971259842519
20
0.7384941732283464
11
-2.0097842125984253
21
0.7414414566929134
0
LINE
8
BLACK
6
CONTINUOUS
10
-2.0097842125984253
20
0.7414414566929134
11
-1.9966224803149606
21
0.7429244094488189
0
LINE
8
BLACK
6
CONTINUOUS
10
-1.9966224803149606
20
0.7429244094488189
11
-1.9833775196850394
21
0.7429244094488189
0
LINE
8
BLACK
6
CONTINUOUS
10
-1.9833775196850394
20
0.7429244094488189
11
-1.9702157874015747
21
0.7414414566929134
0
LINE
8
BLACK
6
CONTINUOUS
10
1.6297842125984252
20
0.7414414566929134
11
1.642697125984252
21
0.7384941732283464
0
LINE
8
BLACK
6
CONTINUOUS
10
1.642697125984252
20
0.7384941732283464
11
1.6551988188976376
21
0.7341196456692913
0
LINE
8
BLACK
6
CONTINUOUS
10
1.6551988188976376
20
0.7341196456692913
11
1.6671321653543307
21
0.7283728346456693
0
LINE
8
BLACK
6
CONTINUOUS
10
1.6671321653543307
20
0.7283728346456693
11
1.6783470078740157
21
0.7213261023622047
0
LINE
8
BLACK
6
CONTINUOUS
10
1.6783470078740157
20
0.7213261023622047
11
1.6887023622047244
21
0.7130679527559055
0
LINE
8
BLACK
6
CONTINUOUS
10
1.6887023622047244
20
0.7130679527559055
11
1.6980679527559055
21
0.7037023622047244
0
LINE
8
BLACK
6
CONTINUOUS
10
1.6980679527559055
20
0.7037023622047244
11
1.7063261023622047
21
0.6933470078740157
0
LINE
8
BLACK
6
CONTINUOUS
10
1.7063261023622047
20
0.6933470078740157
11
1.7133728346456694
21
0.6821321653543307
0
LINE
8
BLACK
6
CONTINUOUS
10
1.7133728346456694
20
0.6821321653543307
11
1.7191196456692912
21
0.6701988188976378
0
LINE
8
BLACK
6
CONTINUOUS
10
1.7191196456692912
20
0.6701988188976378
11
1.7234941732283464
21
0.657697125984252
0
LINE
8
BLACK
6
CONTINUOUS
10
1.7234941732283464
20
0.657697125984252
11
1.7264414566929134
21
0.6447842125984252
0
LINE
8
BLACK
6
CONTINUOUS
10
1.7264414566929134
20
0.6447842125984252
11
1.7279244094488189
21
0.6316224803149606
0
LINE
8
BLACK
6
CONTINUOUS
10
1.7279244094488189
20
0.6316224803149606
11
1.7279244094488189
21
0.6183775196850394
0
LINE
8
BLACK
6
CONTINUOUS
10
1.7279244094488189
20
0.6183775196850394
11
1.7264414566929134
21
0.6052157874015748
0
LINE
8
BLACK
6
CONTINUOUS
10
1.7264414566929134
20
0.6052157874015748
11
1.7234941732283464
21
0.592302874015748
0
LINE
8
BLACK
6
CONTINUOUS
10
1.7234941732283464
20
0.592302874015748
11
1.7191196456692912
21
0.5798011811023622
0
LINE
8
BLACK
6
CONTINUOUS
10
1.7191196456692912
20
0.5798011811023622
11
1.7133728346456694
21
0.5678678346456693
0
LINE
8
BLACK
6
CONTINUOUS
10
1.7133728346456694
20
0.5678678346456693
11
1.7063261023622047
21
0.5566529921259843
0
LINE
8
BLACK
6
CONTINUOUS
10
1.7063261023622047
20
0.5566529921259843
11
1.6980679527559055
21
0.5462976377952756
0
LINE
8
BLACK
6
CONTINUOUS
10
1.6980679527559055
20
0.5462976377952756
11
1.6887023622047244
21
0.5369320472440945
0
LINE
8
BLACK
6
CONTINUOUS
10
1.6887023622047244
20
0.5369320472440945
11
1.6783470078740157
21
0.5286738976377953
0
LINE
8
BLACK
6
CONTINUOUS
10
1.6783470078740157
20
0.5286738976377953
11
1.6671321653543307
21
0.5216271653543307
0
LINE
8
BLACK
6
CONTINUOUS
10
1.6671321653543307
20
0.5216271653543307
11
1.6551988188976376
21
0.5158803543307087
0
LINE
8
BLACK
6
CONTINUOUS
10
1.6551988188976376
20
0.5158803543307087
11
1.642697125984252
21
0.5115058267716536
0
LINE
8
BLACK
6
CONTINUOUS
10
1.642697125984252
20
0.5115058267716536
11
1.6297842125984252
21
0.5085585433070866
0
LINE
8
BLACK
6
CONTINUOUS
10
1.6297842125984252
20
0.5085585433070866
11
1.6166224803149607
21
0.5070755905511811
0
LINE
8
BLACK
6
CONTINUOUS
10
1.6166224803149607
20
0.5070755905511811
11
1.6033775196850393
21
0.5070755905511811
0
LINE
8
BLACK
6
CONTINUOUS
10
1.6033775196850393
20
0.5070755905511811
11
1.5902157874015748
21
0.5085585433070866
0
LINE
8
BLACK
6
CONTINUOUS
10
1.5902157874015748
20
0.5085585433070866
11
1.577302874015748
21
0.5115058267716536
0
LINE
8
BLACK
6
CONTINUOUS
10
1.577302874015748
20
0.5115058267716536
11
1.5648011811023621
21
0.5158803543307087
0
LINE
8
BLACK
6
CONTINUOUS
10
1.5648011811023621
20
0.5158803543307087
11
1.5528678346456692
21
0.5216271653543307
0
LINE
8
BLACK
6
CONTINUOUS
10
1.5528678346456692
20
0.5216271653543307
11
1.5416529921259843
21
0.5286738976377953
0
LINE
8
BLACK
6
CONTINUOUS
10
1.5416529921259843
20
0.5286738976377953
11
1.5312976377952756
21
0.5369320472440945
0
LINE
8
BLACK
6
CONTINUOUS
10
1.5312976377952756
20
0.5369320472440945
11
1.5219320472440945
21
0.5462976377952756
0
LINE
8
BLACK
6
CONTINUOUS
10
1.5219320472440945
20
0.5462976377952756
11
1.5136738976377953
21
0.5566529921259843
0
LINE
8
BLACK
6
CONTINUOUS
10
1.5136738976377953
20
0.5566529921259843
11
1.5066271653543306
21
0.5678678346456693
0
LINE
8
BLACK
6
CONTINUOUS
10
1.5066271653543306
20
0.5678678346456693
11
1.5008803543307085
21
0.5798011811023622
0
LINE
8
BLACK
6
CONTINUOUS
10
1.5008803543307085
20
0.5798011811023622
11
1.4965058267716536
21
0.592302874015748
0
LINE
8
BLACK
6
CONTINUOUS
10
1.4965058267716536
20
0.592302874015748
11
1.4935585433070866
21
0.6052157874015748
0
LINE
8
BLACK
6
CONTINUOUS
10
1.4935585433070866
20
0.6052157874015748
11
1.4920755905511811
21
0.6183775196850394
0
LINE
8
BLACK
6
CONTINUOUS
10
1.4920755905511811
20
0.6183775196850394
11
1.4920755905511811
21
0.6316224803149606
0
LINE
8
BLACK
6
CONTINUOUS
10
1.4920755905511811
20
0.6316224803149606
11
1.4935585433070866
21
0.6447842125984252
0
LINE
8
BLACK
6
CONTINUOUS
10
1.4935585433070866
20
0.6447842125984252
11
1.4965058267716536
21
0.657697125984252
0
LINE
8
BLACK
6
CONTINUOUS
10
1.4965058267716536
20
0.657697125984252
11
1.5008803543307085
21
0.6701988188976378
0
LINE
8
BLACK
6
CONTINUOUS
10
1.5008803543307085
20
0.6701988188976378
11
1.5066271653543306
21
0.6821321653543307
0
LINE
8
BLACK
6
CONTINUOUS
10
1.5066271653543306
20
0.6821321653543307
11
1.5136738976377953
21
0.6933470078740157
0
LINE
8
BLACK
6
CONTINUOUS
10
1.5136738976377953
20
0.6933470078740157
11
1.5219320472440945
21
0.7037023622047244
0
LINE
8
BLACK
6
CONTINUOUS
10
1.5219320472440945
20
0.7037023622047244
11
1.5312976377952756
21
0.7130679527559055
0
LINE
8
BLACK
6
CONTINUOUS
10
1.5312976377952756
20
0.7130679527559055
11
1.5416529921259843
21
0.7213261023622047
0
LINE
8
BLACK
6
CONTINUOUS
10
1.5416529921259843
20
0.7213261023622047
11
1.5528678346456692
21
0.7283728346456693
0
LINE
8
BLACK
6
CONTINUOUS
10
1.5528678346456692
20
0.7283728346456693
11
1.5648011811023621
21
0.7341196456692913
0
LINE
8
BLACK
6
CONTINUOUS
10
1.5648011811023621
20
0.7341196456692913
11
1.577302874015748
21
0.7384941732283464
0
LINE
8
BLACK
6
CONTINUOUS
10
1.577302874015748
20
0.7384941732283464
11
1.5902157874015748
21
0.7414414566929134
0
LINE
8
BLACK
6
CONTINUOUS
10
1.5902157874015748
20
0.7414414566929134
11
1.6033775196850393
21
0.7429244094488189
0
LINE
8
BLACK
6
CONTINUOUS
10
1.6033775196850393
20
0.7429244094488189
11
1.6166224803149607
21
0.7429244094488189
0
LINE
8
BLACK
6
CONTINUOUS
10
1.6166224803149607
20
0.7429244094488189
11
1.6297842125984252
21
0.7414414566929134
0
LINE
8
BLACK
6
CONTINUOUS
10
-1.1399999999999999
20
0.605
11
-1.2
21
0.605
0
LINE
8
BLACK
6
CONTINUOUS
10
-1.2
20
0.605
11
-1.2
21
0.665
0
LINE
8
BLACK
6
CONTINUOUS
10
-1.2
20
0.665
11
-1.1399999999999999
21
0.665
0
LINE
8
BLACK
6
CONTINUOUS
10
-1.1399999999999999
20
0.665
11
-1.1399999999999999
21
0.605
0
LINE
8
BLACK
6
CONTINUOUS
10
-1.04
20
0.605
11
-1.0999999999999999
21
0.605
0
LINE
8
BLACK
6
CONTINUOUS
10
-1.0999999999999999
20
0.605
11
-1.0999999999999999
21
0.665
0
LINE
8
BLACK
6
CONTINUOUS
10
-1.0999999999999999
20
0.665
11
-1.04
21
0.665
0
LINE
8
BLACK
6
CONTINUOUS
10
-1.04
20
0.665
11
-1.04
21
0.605
0
LINE
8
BLACK
6
CONTINUOUS
10
-0.9399999999999999
20
0.605
11
-1.
21
0.605
0
LINE
8
BLACK
6
CONTINUOUS
10
-1.
20
0.605
11
-1.
21
0.665
0
LINE
8
BLACK
6
CONTINUOUS
10
-1.
20
0.665
11
-0.9399999999999999
21
0.665
0
LINE
8
BLACK
6
CONTINUOUS
10
-0.9399999999999999
20
0.665
11
-0.9399999999999999
21
0.605
0
LINE
8
BLACK
6
CONTINUOUS
10
-0.84
20
0.605
11
-0.9
21
0.605
0
LINE
8
BLACK
6
CONTINUOUS
10
-0.9
20
0.605
11
-0.9
21
0.665
0
LINE
8
BLACK
6
CONTINUOUS
10
-0.9
20
0.665
11
-0.84
21
0.665
0
LINE
8
BLACK
6
CONTINUOUS
10
-0.84
20
0.665
11
-0.84
21
0.605
0
LINE
8
BLACK
6
CONTINUOUS
10
-0.74
20
0.605
11
-0.7999999999999999
21
0.605
0
LINE
8
BLACK
6
CONTINUOUS
10
-0.7999999999999999
20
0.605
11
-0.7999999999999999
21
0.665
0
LINE
8
BLACK
6
CONTINUOUS
10
-0.7999999999999999
20
0.665
11
-0.74
21
0.665
0
LINE
8
BLACK
6
CONTINUOUS
10
-0.74
20
0.665
11
-0.74
21
0.605
0
LINE
8
BLACK
6
CONTINUOUS
10
-0.61
20
0.605
11
-0.67
21
0.605
0
LINE
8
BLACK
6
CONTINUOUS
10
-0.67
20
0.605
11
-0.67
21
0.665
0
LINE
8
BLACK
6
CONTINUOUS
10
-0.67
20
0.665
11
-0.61
21
0.665
0
LINE
8
BLACK
6
CONTINUOUS
10
-0.61
20
0.665
11
-0.61
21
0.605
0
LINE
8
BLACK
6
CONTINUOUS
10
-0.51
20
0.605
11
-0.57
21
0.605
0
LINE
8
BLACK
6
CONTINUOUS
10
-0.57
20
0.605
11
-0.57
21
0.665
0
LINE
8
BLACK
6
CONTINUOUS
10
-0.57
20
0.665
11
-0.51
21
0.665
0
LINE
8
BLACK
6
CONTINUOUS
10
-0.51
20
0.665
11
-0.51
21
0.605
0
LINE
8
BLACK
6
CONTINUOUS
10
-0.41
20
0.605
11
-0.47
21
0.605
0
LINE
8
BLACK
6
CONTINUOUS
10
-0.47
20
0.605
11
-0.47
21
0.665
0
LINE
8
BLACK
6
CONTINUOUS
10
-0.47
20
0.665
11
-0.41
21
0.665
0
LINE
8
BLACK
6
CONTINUOUS
10
-0.41
20
0.665
11
-0.41
21
0.605
0
LINE
8
BLACK
6
CONTINUOUS
10
-0.31
20
0.605
11
-0.37
21
0.605
0
LINE
8
BLACK
6
CONTINUOUS
10
-0.37
20
0.605
11
-0.37
21
0.665
0
LINE
8
BLACK
6
CONTINUOUS
10
-0.37
20
0.665
11
-0.31
21
0.665
0
LINE
8
BLACK
6
CONTINUOUS
10
-0.31
20
0.665
11
-0.31
21
0.605
0
LINE
8
BLACK
6
CONTINUOUS
10
-0.21
20
0.605
11
-0.27
21
0.605
0
LINE
8
BLACK
6
CONTINUOUS
10
-0.27
20
0.605
11
-0.27
21
0.665
0
LINE
8
BLACK
6
CONTINUOUS
10
-0.27
20
0.665
11
-0.21
21
0.665
0
LINE
8
BLACK
6
CONTINUOUS
10
-0.21
20
0.665
11
-0.21
21
0.605
0
LINE
8
BLACK
6
CONTINUOUS
10
1.0795275590551181
20
0.6388188976377953
11
1.0793591338582678
21
0.6388188976377953
0
LINE
8
BLACK
6
CONTINUOUS
10
1.0793591338582678
20
0.6388188976377953
11
1.0793591338582678
21
0.6362494881889763
0
LINE
8
BLACK
6
CONTINUOUS
10
1.0793591338582678
20
0.6362494881889763
11
1.0780291338582677
21
0.6312857480314961
0
LINE
8
BLACK
6
CONTINUOUS
10
1.0780291338582677
20
0.6312857480314961
11
1.0754597244094488
21
0.6268353937007873
0
LINE
8
BLACK
6
CONTINUOUS
10
1.0754597244094488
20
0.6268353937007873
11
1.0718260236220472
21
0.6232016929133858
0
LINE
8
BLACK
6
CONTINUOUS
10
1.0718260236220472
20
0.6232016929133858
11
1.0673756692913385
21
0.6206322834645669
0
LINE
8
BLACK
6
CONTINUOUS
10
1.0673756692913385
20
0.6206322834645669
11
1.0624119291338583
21
0.6193022834645669
0
LINE
8
BLACK
6
CONTINUOUS
10
1.0624119291338583
20
0.6193022834645669
11
1.0598425196850394
21
0.6193022834645669
0
LINE
8
BLACK
6
CONTINUOUS
10
1.0598425196850394
20
0.6193022834645669
11
1.0598425196850394
21
0.6191338582677165
0
LINE
8
BLACK
6
CONTINUOUS
10
1.0598425196850394
20
0.6191338582677165
11
1.0401574803149607
21
0.6191338582677165
0
LINE
8
BLACK
6
CONTINUOUS
10
1.0401574803149607
20
0.6191338582677165
11
1.0401574803149607
21
0.6193022834645669
0
LINE
8
BLACK
6
CONTINUOUS
10
1.0401574803149607
20
0.6193022834645669
11
1.0375880708661418
21
0.6193022834645669
0
LINE
8
BLACK
6
CONTINUOUS
10
1.0375880708661418
20
0.6193022834645669
11
1.0326243307086613
21
0.6206322834645669
0
LINE
8
BLACK
6
CONTINUOUS
10
1.0326243307086613
20
0.6206322834645669
11
1.0281739763779527
21
0.6232016929133858
0
LINE
8
BLACK
6
CONTINUOUS
10
1.0281739763779527
20
0.6232016929133858
11
1.0245402755905511
21
0.6268353937007873
0
LINE
8
BLACK
6
CONTINUOUS
10
1.0245402755905511
20
0.6268353937007873
11
1.0219708661417322
21
0.6312857480314961
0
LINE
8
BLACK
6
CONTINUOUS
10
1.0219708661417322
20
0.6312857480314961
11
1.0206408661417323
21
0.6362494881889763
0
LINE
8
BLACK
6
CONTINUOUS
10
1.0206408661417323
20
0.6362494881889763
11
1.0206408661417323
21
0.6388188976377953
0
LINE
8
BLACK
6
CONTINUOUS
10
1.0206408661417323
20
0.6388188976377953
11
1.0204724409448818
21
0.6388188976377953
0
LINE
8
BLACK
6
CONTINUOUS
10
1.0204724409448818
20
0.6388188976377953
11
1.0204724409448818
21
0.6604724409448819
0
LINE
8
BLACK
6
CONTINUOUS
10
1.0204724409448818
20
0.6604724409448819
11
1.0795275590551181
21
0.6604724409448819
0
LINE
8
BLACK
6
CONTINUOUS
10
1.0795275590551181
20
0.6604724409448819
11
1.0795275590551181
21
0.6388188976377953
0
LINE
8
BLACK
6
CONTINUOUS
10
-0.041047125984252
20
0.6908496850393701
11
-0.0391312598425197
21
0.6895695275590551
0
LINE
8
BLACK
6
CONTINUOUS
10
-0.0391312598425197
20
0.6895695275590551
11
-0.0378511023622047
21
0.6876536614173229
0
LINE
8
BLACK
6
CONTINUOUS
10
-0.0378511023622047
20
0.6876536614173229
11
-0.0374015748031496
21
0.6853937007874016
0
LINE
8
BLACK
6
CONTINUOUS
10
-0.0374015748031496
20
0.6853937007874016
11
-0.0374015748031496
21
0.6302755905511811
0
LINE
8
BLACK
6
CONTINUOUS
10
-0.0374015748031496
20
0.6302755905511811
11
-0.0378511023622047
21
0.6280156299212598
0
LINE
8
BLACK
6
CONTINUOUS
10
-0.0378511023622047
20
0.6280156299212598
11
-0.0391312598425197
21
0.6260997637795276
0
LINE
8
BLACK
6
CONTINUOUS
10
-0.0391312598425197
20
0.6260997637795276
11
-0.041047125984252
21
0.6248196062992126
0
LINE
8
BLACK
6
CONTINUOUS
10
-0.041047125984252
20
0.6248196062992126
11
-0.0433070866141732
21
0.6243700787401575
0
LINE
8
BLACK
6
CONTINUOUS
10
-0.0433070866141732
20
0.6243700787401575
11
-0.0551181102362205
21
0.6243700787401575
0
LINE
8
BLACK
6
CONTINUOUS
10
-0.0551181102362205
20
0.6243700787401575
11
-0.0573780708661417
21
0.6248196062992126
0
LINE
8
BLACK
6
CONTINUOUS
10
-0.0573780708661417
20
0.6248196062992126
11
-0.059293937007874
21
0.6260997637795276
0
LINE
8
BLACK
6
CONTINUOUS
10
-0.059293937007874
20
0.6260997637795276
11
-0.060574094488189
21
0.6280156299212598
0
LINE
8
BLACK
6
CONTINUOUS
10
-0.060574094488189
20
0.6280156299212598
11
-0.0610236220472441
21
0.6302755905511811
0
LINE
8
BLACK
6
CONTINUOUS
10
-0.0610236220472441
20
0.6302755905511811
11
-0.0610236220472441
21
0.6853937007874016
0
LINE
8
BLACK
6
CONTINUOUS
10
-0.0610236220472441
20
0.6853937007874016
11
-0.060574094488189
21
0.6876536614173229
0
LINE
8
BLACK
6
CONTINUOUS
10
-0.060574094488189
20
0.6876536614173229
11
-0.059293937007874
21
0.6895695275590551
0
LINE
8
BLACK
6
CONTINUOUS
10
-0.059293937007874
20
0.6895695275590551
11
-0.0573780708661417
21
0.6908496850393701
0
LINE
8
BLACK
6
CONTINUOUS
10
-0.0573780708661417
20
0.6908496850393701
11
-0.0551181102362205
21
0.6912992125984252
0
LINE
8
BLACK
6
CONTINUOUS
10
-0.0551181102362205
20
0.6912992125984252
11
-0.0433070866141732
21
0.6912992125984252
0
LINE
8
BLACK
6
CONTINUOUS
10
-0.0433070866141732
20
0.6912992125984252
11
-0.041047125984252
21
0.6908496850393701
0
LINE
8
BLACK
6
CONTINUOUS
10
0.0081654724409449
20
0.6908496850393701
11
0.0100813385826772
21
0.6895695275590551
0
LINE
8
BLACK
6
CONTINUOUS
10
0.0100813385826772
20
0.6895695275590551
11
0.0113614960629921
21
0.6876536614173229
0
LINE
8
BLACK
6
CONTINUOUS
10
0.0113614960629921
20
0.6876536614173229
11
0.0118110236220472
21
0.6853937007874016
0
LINE
8
BLACK
6
CONTINUOUS
10
0.0118110236220472
20
0.6853937007874016
11
0.0118110236220472
21
0.6302755905511811
0
LINE
8
BLACK
6
CONTINUOUS
10
0.0118110236220472
20
0.6302755905511811
11
0.0113614960629921
21
0.6280156299212598
0
LINE
8
BLACK
6
CONTINUOUS
10
0.0113614960629921
20
0.6280156299212598
11
0.0100813385826772
21
0.6260997637795276
0
LINE
8
BLACK
6
CONTINUOUS
10
0.0100813385826772
20
0.6260997637795276
11
0.0081654724409449
21
0.6248196062992126
0
LINE
8
BLACK
6
CONTINUOUS
10
0.0081654724409449
20
0.6248196062992126
11
0.0059055118110236
21
0.6243700787401575
0
LINE
8
BLACK
6
CONTINUOUS
10
0.0059055118110236
20
0.6243700787401575
11
-0.0059055118110236
21
0.6243700787401575
0
LINE
8
BLACK
6
CONTINUOUS
10
-0.0059055118110236
20
0.6243700787401575
11
-0.0081654724409449
21
0.6248196062992126
0
LINE
8
BLACK
6
CONTINUOUS
10
-0.0081654724409449
20
0.6248196062992126
11
-0.0100813385826772
21
0.6260997637795276
0
LINE
8
BLACK
6
CONTINUOUS
10
-0.0100813385826772
20
0.6260997637795276
11
-0.0113614960629921
21
0.6280156299212598
0
LINE
8
BLACK
6
CONTINUOUS
10
-0.0113614960629921
20
0.6280156299212598
11
-0.0118110236220472
21
0.6302755905511811
0
LINE
8
BLACK
6
CONTINUOUS
10
-0.0118110236220472
20
0.6302755905511811
11
-0.0118110236220472
21
0.6853937007874016
0
LINE
8
BLACK
6
CONTINUOUS
10
-0.0118110236220472
20
0.6853937007874016
11
-0.0113614960629921
21
0.6876536614173229
0
LINE
8
BLACK
6
CONTINUOUS
10
-0.0113614960629921
20
0.6876536614173229
11
-0.0100813385826772
21
0.6895695275590551
0
LINE
8
BLACK
6
CONTINUOUS
10
-0.0100813385826772
20
0.6895695275590551
11
-0.0081654724409449
21
0.6908496850393701
0
LINE
8
BLACK
6
CONTINUOUS
10
-0.0081654724409449
20
0.6908496850393701
11
-0.0059055118110236
21
0.6912992125984252
0
LINE
8
BLACK
6
CONTINUOUS
10
-0.0059055118110236
20
0.6912992125984252
11
0.0059055118110236
21
0.6912992125984252
0
LINE
8
BLACK
6
CONTINUOUS
10
0.0059055118110236
20
0.6912992125984252
11
0.0081654724409449
21
0.6908496850393701
0
LINE
8
BLACK
6
CONTINUOUS
10
0.0573780708661417
20
0.6908496850393701
11
0.059293937007874
21
0.6895695275590551
0
LINE
8
BLACK
6
CONTINUOUS
10
0.059293937007874
20
0.6895695275590551
11
0.060574094488189
21
0.6876536614173229
0
LINE
8
BLACK
6
CONTINUOUS
10
0.060574094488189
20
0.6876536614173229
11
0.0610236220472441
21
0.6853937007874016
0
LINE
8
BLACK
6
CONTINUOUS
10
0.0610236220472441
20
0.6853937007874016
11
0.0610236220472441
21
0.6302755905511811
0
LINE
8
BLACK
6
CONTINUOUS
10
0.0610236220472441
20
0.6302755905511811
11
0.060574094488189
21
0.6280156299212598
0
LINE
8
BLACK
6
CONTINUOUS
10
0.060574094488189
20
0.6280156299212598
11
0.059293937007874
21
0.6260997637795276
0
LINE
8
BLACK
6
CONTINUOUS
10
0.059293937007874
20
0.6260997637795276
11
0.0573780708661417
21
0.6248196062992126
0
LINE
8
BLACK
6
CONTINUOUS
10
0.0573780708661417
20
0.6248196062992126
11
0.0551181102362205
21
0.6243700787401575
0
LINE
8
BLACK
6
CONTINUOUS
10
0.0551181102362205
20
0.6243700787401575
11
0.0433070866141732
21
0.6243700787401575
0
LINE
8
BLACK
6
CONTINUOUS
10
0.0433070866141732
20
0.6243700787401575
11
0.041047125984252
21
0.6248196062992126
0
LINE
8
BLACK
6
CONTINUOUS
10
0.041047125984252
20
0.6248196062992126
11
0.0391312598425197
21
0.6260997637795276
0
LINE
8
BLACK
6
CONTINUOUS
10
0.0391312598425197
20
0.6260997637795276
11
0.0378511023622047
21
0.6280156299212598
0
LINE
8
BLACK
6
CONTINUOUS
10
0.0378511023622047
20
0.6280156299212598
11
0.0374015748031496
21
0.6302755905511811
0
LINE
8
BLACK
6
CONTINUOUS
10
0.0374015748031496
20
0.6302755905511811
11
0.0374015748031496
21
0.6853937007874016
0
LINE
8
BLACK
6
CONTINUOUS
10
0.0374015748031496
20
0.6853937007874016
11
0.0378511023622047
21
0.6876536614173229
0
LINE
8
BLACK
6
CONTINUOUS
10
0.0378511023622047
20
0.6876536614173229
11
0.0391312598425197
21
0.6895695275590551
0
LINE
8
BLACK
6
CONTINUOUS
10
0.0391312598425197
20
0.6895695275590551
11
0.041047125984252
21
0.6908496850393701
0
LINE
8
BLACK
6
CONTINUOUS
10
0.041047125984252
20
0.6908496850393701
11
0.0433070866141732
21
0.6912992125984252
0
LINE
8
BLACK
6
CONTINUOUS
10
0.0433070866141732
20
0.6912992125984252
11
0.0551181102362205
21
0.6912992125984252
0
LINE
8
BLACK
6
CONTINUOUS
10
0.0551181102362205
20
0.6912992125984252
11
0.0573780708661417
21
0.6908496850393701
0
LINE
8
BLACK
6
CONTINUOUS
10
0.1065906692913386
20
0.6908496850393701
11
0.1085065354330709
21
0.6895695275590551
0
LINE
8
BLACK
6
CONTINUOUS
10
0.1085065354330709
20
0.6895695275590551
11
0.1097866929133858
21
0.6876536614173229
0
LINE
8
BLACK
6
CONTINUOUS
10
0.1097866929133858
20
0.6876536614173229
11
0.1102362204724409
21
0.6853937007874016
0
LINE
8
BLACK
6
CONTINUOUS
10
0.1102362204724409
20
0.6853937007874016
11
0.1102362204724409
21
0.6302755905511811
0
LINE
8
BLACK
6
CONTINUOUS
10
0.1102362204724409
20
0.6302755905511811
11
0.1097866929133858
21
0.6280156299212598
0
LINE
8
BLACK
6
CONTINUOUS
10
0.1097866929133858
20
0.6280156299212598
11
0.1085065354330709
21
0.6260997637795276
0
LINE
8
BLACK
6
CONTINUOUS
10
0.1085065354330709
20
0.6260997637795276
11
0.1065906692913386
21
0.6248196062992126
0
LINE
8
BLACK
6
CONTINUOUS
10
0.1065906692913386
20
0.6248196062992126
11
0.1043307086614173
21
0.6243700787401575
0
LINE
8
BLACK
6
CONTINUOUS
10
0.1043307086614173
20
0.6243700787401575
11
0.0925196850393701
21
0.6243700787401575
0
LINE
8
BLACK
6
CONTINUOUS
10
0.0925196850393701
20
0.6243700787401575
11
0.0902597244094488
21
0.6248196062992126
0
LINE
8
BLACK
6
CONTINUOUS
10
0.0902597244094488
20
0.6248196062992126
11
0.0883438582677165
21
0.6260997637795276
0
LINE
8
BLACK
6
CONTINUOUS
10
0.0883438582677165
20
0.6260997637795276
11
0.0870637007874016
21
0.6280156299212598
0
LINE
8
BLACK
6
CONTINUOUS
10
0.0870637007874016
20
0.6280156299212598
11
0.0866141732283465
21
0.6302755905511811
0
LINE
8
BLACK
6
CONTINUOUS
10
0.0866141732283465
20
0.6302755905511811
11
0.0866141732283465
21
0.6853937007874016
0
LINE
8
BLACK
6
CONTINUOUS
10
0.0866141732283465
20
0.6853937007874016
11
0.0870637007874016
21
0.6876536614173229
0
LINE
8
BLACK
6
CONTINUOUS
10
0.0870637007874016
20
0.6876536614173229
11
0.0883438582677165
21
0.6895695275590551
0
LINE
8
BLACK
6
CONTINUOUS
10
0.0883438582677165
20
0.6895695275590551
11
0.0902597244094488
21
0.6908496850393701
0
LINE
8
BLACK
6
CONTINUOUS
10
0.0902597244094488
20
0.6908496850393701
11
0.0925196850393701
21
0.6912992125984252
0
LINE
8
BLACK
6
CONTINUOUS
10
0.0925196850393701
20
0.6912992125984252
11
0.1043307086614173
21
0.6912992125984252
0
LINE
8
BLACK
6
CONTINUOUS
10
0.1043307086614173
20
0.6912992125984252
11
0.1065906692913386
21
0.6908496850393701
0
LINE
8
BLACK
6
CONTINUOUS
10
0.3497402755905512
20
0.6908496850393701
11
0.3516561417322834
21
0.6895695275590551
0
LINE
8
BLACK
6
CONTINUOUS
10
0.3516561417322834
20
0.6895695275590551
11
0.3529362992125984
21
0.6876536614173229
0
LINE
8
BLACK
6
CONTINUOUS
10
0.3529362992125984
20
0.6876536614173229
11
0.3533858267716535
21
0.6853937007874016
0
LINE
8
BLACK
6
CONTINUOUS
10
0.3533858267716535
20
0.6853937007874016
11
0.3533858267716535
21
0.6302755905511811
0
LINE
8
BLACK
6
CONTINUOUS
10
0.3533858267716535
20
0.6302755905511811
11
0.3529362992125984
21
0.6280156299212598
0
LINE
8
BLACK
6
CONTINUOUS
10
0.3529362992125984
20
0.6280156299212598
11
0.3516561417322834
21
0.6260997637795276
0
LINE
8
BLACK
6
CONTINUOUS
10
0.3516561417322834
20
0.6260997637795276
11
0.3497402755905512
21
0.6248196062992126
0
LINE
8
BLACK
6
CONTINUOUS
10
0.3497402755905512
20
0.6248196062992126
11
0.3474803149606299
21
0.6243700787401575
0
LINE
8
BLACK
6
CONTINUOUS
10
0.3474803149606299
20
0.6243700787401575
11
0.3356692913385826
21
0.6243700787401575
0
LINE
8
BLACK
6
CONTINUOUS
10
0.3356692913385826
20
0.6243700787401575
11
0.3334093307086614
21
0.6248196062992126
0
LINE
8
BLACK
6
CONTINUOUS
10
0.3334093307086614
20
0.6248196062992126
11
0.3314934645669291
21
0.6260997637795276
0
LINE
8
BLACK
6
CONTINUOUS
10
0.3314934645669291
20
0.6260997637795276
11
0.3302133070866142
21
0.6280156299212598
0
LINE
8
BLACK
6
CONTINUOUS
10
0.3302133070866142
20
0.6280156299212598
11
0.329763779527559
21
0.6302755905511811
0
LINE
8
BLACK
6
CONTINUOUS
10
0.329763779527559
20
0.6302755905511811
11
0.329763779527559
21
0.6853937007874016
0
LINE
8
BLACK
6
CONTINUOUS
10
0.329763779527559
20
0.6853937007874016
11
0.3302133070866142
21
0.6876536614173229
0
LINE
8
BLACK
6
CONTINUOUS
10
0.3302133070866142
20
0.6876536614173229
11
0.3314934645669291
21
0.6895695275590551
0
LINE
8
BLACK
6
CONTINUOUS
10
0.3314934645669291
20
0.6895695275590551
11
0.3334093307086614
21
0.6908496850393701
0
LINE
8
BLACK
6
CONTINUOUS
10
0.3334093307086614
20
0.6908496850393701
11
0.3356692913385826
21
0.6912992125984252
0
LINE
8
BLACK
6
CONTINUOUS
10
0.3356692913385826
20
0.6912992125984252
11
0.3474803149606299
21
0.6912992125984252
0
LINE
8
BLACK
6
CONTINUOUS
10
0.3474803149606299
20
0.6912992125984252
11
0.3497402755905512
21
0.6908496850393701
0
LINE
8
BLACK
6
CONTINUOUS
10
0.398952874015748
20
0.6908496850393701
11
0.4008687401574803
21
0.6895695275590551
0
LINE
8
BLACK
6
CONTINUOUS
10
0.4008687401574803
20
0.6895695275590551
11
0.4021488976377953
21
0.6876536614173229
0
LINE
8
BLACK
6
CONTINUOUS
10
0.4021488976377953
20
0.6876536614173229
11
0.4025984251968504
21
0.6853937007874016
0
LINE
8
BLACK
6
CONTINUOUS
10
0.4025984251968504
20
0.6853937007874016
11
0.4025984251968504
21
0.6302755905511811
0
LINE
8
BLACK
6
CONTINUOUS
10
0.4025984251968504
20
0.6302755905511811
11
0.4021488976377953
21
0.6280156299212598
0
LINE
8
BLACK
6
CONTINUOUS
10
0.4021488976377953
20
0.6280156299212598
11
0.4008687401574803
21
0.6260997637795276
0
LINE
8
BLACK
6
CONTINUOUS
10
0.4008687401574803
20
0.6260997637795276
11
0.398952874015748
21
0.6248196062992126
0
LINE
8
BLACK
6
CONTINUOUS
10
0.398952874015748
20
0.6248196062992126
11
0.3966929133858267
21
0.6243700787401575
0
LINE
8
BLACK
6
CONTINUOUS
10
0.3966929133858267
20
0.6243700787401575
11
0.3848818897637795
21
0.6243700787401575
0
LINE
8
BLACK
6
CONTINUOUS
10
0.3848818897637795
20
0.6243700787401575
11
0.3826219291338583
21
0.6248196062992126
0
LINE
8
BLACK
6
CONTINUOUS
10
0.3826219291338583
20
0.6248196062992126
11
0.3807060629921259
21
0.6260997637795276
0
LINE
8
BLACK
6
CONTINUOUS
10
0.3807060629921259
20
0.6260997637795276
11
0.379425905511811
21
0.6280156299212598
0
LINE
8
BLACK
6
CONTINUOUS
10
0.379425905511811
20
0.6280156299212598
11
0.3789763779527559
21
0.6302755905511811
0
LINE
8
BLACK
6
CONTINUOUS
10
0.3789763779527559
20
0.6302755905511811
11
0.3789763779527559
21
0.6853937007874016
0
LINE
8
BLACK
6
CONTINUOUS
10
0.3789763779527559
20
0.6853937007874016
11
0.379425905511811
21
0.6876536614173229
0
LINE
8
BLACK
6
CONTINUOUS
10
0.379425905511811
20
0.6876536614173229
11
0.3807060629921259
21
0.6895695275590551
0
LINE
8
BLACK
6
CONTINUOUS
10
0.3807060629921259
20
0.6895695275590551
11
0.3826219291338583
21
0.6908496850393701
0
LINE
8
BLACK
6
CONTINUOUS
10
0.3826219291338583
20
0.6908496850393701
11
0.3848818897637795
21
0.6912992125984252
0
LINE
8
BLACK
6
CONTINUOUS
10
0.3848818897637795
20
0.6912992125984252
11
0.3966929133858267
21
0.6912992125984252
0
LINE
8
BLACK
6
CONTINUOUS
10
0.3966929133858267
20
0.6912992125984252
11
0.398952874015748
21
0.6908496850393701
0
LINE
8
BLACK
6
CONTINUOUS
10
0.4481654724409448
20
0.6908496850393701
11
0.4500813385826772
21
0.6895695275590551
0
LINE
8
BLACK
6
CONTINUOUS
10
0.4500813385826772
20
0.6895695275590551
11
0.4513614960629921
21
0.6876536614173229
0
LINE
8
BLACK
6
CONTINUOUS
10
0.4513614960629921
20
0.6876536614173229
11
0.4518110236220472
21
0.6853937007874016
0
LINE
8
BLACK
6
CONTINUOUS
10
0.4518110236220472
20
0.6853937007874016
11
0.4518110236220472
21
0.6302755905511811
0
LINE
8
BLACK
6
CONTINUOUS
10
0.4518110236220472
20
0.6302755905511811
11
0.4513614960629921
21
0.6280156299212598
0
LINE
8
BLACK
6
CONTINUOUS
10
0.4513614960629921
20
0.6280156299212598
11
0.4500813385826772
21
0.6260997637795276
0
LINE
8
BLACK
6
CONTINUOUS
10
0.4500813385826772
20
0.6260997637795276
11
0.4481654724409448
21
0.6248196062992126
0
LINE
8
BLACK
6
CONTINUOUS
10
0.4481654724409448
20
0.6248196062992126
11
0.4459055118110236
21
0.6243700787401575
0
LINE
8
BLACK
6
CONTINUOUS
10
0.4459055118110236
20
0.6243700787401575
11
0.4340944881889764
21
0.6243700787401575
0
LINE
8
BLACK
6
CONTINUOUS
10
0.4340944881889764
20
0.6243700787401575
11
0.4318345275590551
21
0.6248196062992126
0
LINE
8
BLACK
6
CONTINUOUS
10
0.4318345275590551
20
0.6248196062992126
11
0.4299186614173228
21
0.6260997637795276
0
LINE
8
BLACK
6
CONTINUOUS
10
0.4299186614173228
20
0.6260997637795276
11
0.4286385039370079
21
0.6280156299212598
0
LINE
8
BLACK
6
CONTINUOUS
10
0.4286385039370079
20
0.6280156299212598
11
0.4281889763779527
21
0.6302755905511811
0
LINE
8
BLACK
6
CONTINUOUS
10
0.4281889763779527
20
0.6302755905511811
11
0.4281889763779527
21
0.6853937007874016
0
LINE
8
BLACK
6
CONTINUOUS
10
0.4281889763779527
20
0.6853937007874016
11
0.4286385039370079
21
0.6876536614173229
0
LINE
8
BLACK
6
CONTINUOUS
10
0.4286385039370079
20
0.6876536614173229
11
0.4299186614173228
21
0.6895695275590551
0
LINE
8
BLACK
6
CONTINUOUS
10
0.4299186614173228
20
0.6895695275590551
11
0.4318345275590551
21
0.6908496850393701
0
LINE
8
BLACK
6
CONTINUOUS
10
0.4318345275590551
20
0.6908496850393701
11
0.4340944881889764
21
0.6912992125984252
0
LINE
8
BLACK
6
CONTINUOUS
10
0.4340944881889764
20
0.6912992125984252
11
0.4459055118110236
21
0.6912992125984252
0
LINE
8
BLACK
6
CONTINUOUS
10
0.4459055118110236
20
0.6912992125984252
11
0.4481654724409448
21
0.6908496850393701
0
LINE
8
BLACK
6
CONTINUOUS
10
0.4973780708661417
20
0.6908496850393701
11
0.499293937007874
21
0.6895695275590551
0
LINE
8
BLACK
6
CONTINUOUS
10
0.499293937007874
20
0.6895695275590551
11
0.500574094488189
21
0.6876536614173229
0
LINE
8
BLACK
6
CONTINUOUS
10
0.500574094488189
20
0.6876536614173229
11
0.501023622047244
21
0.6853937007874016
0
LINE
8
BLACK
6
CONTINUOUS
10
0.501023622047244
20
0.6853937007874016
11
0.501023622047244
21
0.6302755905511811
0
LINE
8
BLACK
6
CONTINUOUS
10
0.501023622047244
20
0.6302755905511811
11
0.500574094488189
21
0.6280156299212598
0
LINE
8
BLACK
6
CONTINUOUS
10
0.500574094488189
20
0.6280156299212598
11
0.499293937007874
21
0.6260997637795276
0
LINE
8
BLACK
6
CONTINUOUS
10
0.499293937007874
20
0.6260997637795276
11
0.4973780708661417
21
0.6248196062992126
0
LINE
8
BLACK
6
CONTINUOUS
10
0.4973780708661417
20
0.6248196062992126
11
0.4951181102362205
21
0.6243700787401575
0
LINE
8
BLACK
6
CONTINUOUS
10
0.4951181102362205
20
0.6243700787401575
11
0.4833070866141732
21
0.6243700787401575
0
LINE
8
BLACK
6
CONTINUOUS
10
0.4833070866141732
20
0.6243700787401575
11
0.481047125984252
21
0.6248196062992126
0
LINE
8
BLACK
6
CONTINUOUS
10
0.481047125984252
20
0.6248196062992126
11
0.4791312598425197
21
0.6260997637795276
0
LINE
8
BLACK
6
CONTINUOUS
10
0.4791312598425197
20
0.6260997637795276
11
0.4778511023622047
21
0.6280156299212598
0
LINE
8
BLACK
6
CONTINUOUS
10
0.4778511023622047
20
0.6280156299212598
11
0.4774015748031496
21
0.6302755905511811
0
LINE
8
BLACK
6
CONTINUOUS
10
0.4774015748031496
20
0.6302755905511811
11
0.4774015748031496
21
0.6853937007874016
0
LINE
8
BLACK
6
CONTINUOUS
10
0.4774015748031496
20
0.6853937007874016
11
0.4778511023622047
21
0.6876536614173229
0
LINE
8
BLACK
6
CONTINUOUS
10
0.4778511023622047
20
0.6876536614173229
11
0.4791312598425197
21
0.6895695275590551
0
LINE
8
BLACK
6
CONTINUOUS
10
0.4791312598425197
20
0.6895695275590551
11
0.481047125984252
21
0.6908496850393701
0
LINE
8
BLACK
6
CONTINUOUS
10
0.481047125984252
20
0.6908496850393701
11
0.4833070866141732
21
0.6912992125984252
0
LINE
8
BLACK
6
CONTINUOUS
10
0.4833070866141732
20
0.6912992125984252
11
0.4951181102362205
21
0.6912992125984252
0
LINE
8
BLACK
6
CONTINUOUS
10
0.4951181102362205
20
0.6912992125984252
11
0.4973780708661417
21
0.6908496850393701
0
LINE
8
BLACK
6
CONTINUOUS
10
0.5465906692913386
20
0.6908496850393701
11
0.5485065354330708
21
0.6895695275590551
0
LINE
8
BLACK
6
CONTINUOUS
10
0.5485065354330708
20
0.6895695275590551
11
0.5497866929133858
21
0.6876536614173229
0
LINE
8
BLACK
6
CONTINUOUS
10
0.5497866929133858
20
0.6876536614173229
11
0.5502362204724409
21
0.6853937007874016
0
LINE
8
BLACK
6
CONTINUOUS
10
0.5502362204724409
20
0.6853937007874016
11
0.5502362204724409
21
0.6302755905511811
0
LINE
8
BLACK
6
CONTINUOUS
10
0.5502362204724409
20
0.6302755905511811
11
0.5497866929133858
21
0.6280156299212598
0
LINE
8
BLACK
6
CONTINUOUS
10
0.5497866929133858
20
0.6280156299212598
11
0.5485065354330708
21
0.6260997637795276
0
LINE
8
BLACK
6
CONTINUOUS
10
0.5485065354330708
20
0.6260997637795276
11
0.5465906692913386
21
0.6248196062992126
0
LINE
8
BLACK
6
CONTINUOUS
10
0.5465906692913386
20
0.6248196062992126
11
0.5443307086614173
21
0.6243700787401575
0
LINE
8
BLACK
6
CONTINUOUS
10
0.5443307086614173
20
0.6243700787401575
11
0.5325196850393701
21
0.6243700787401575
0
LINE
8
BLACK
6
CONTINUOUS
10
0.5325196850393701
20
0.6243700787401575
11
0.5302597244094488
21
0.6248196062992126
0
LINE
8
BLACK
6
CONTINUOUS
10
0.5302597244094488
20
0.6248196062992126
11
0.5283438582677166
21
0.6260997637795276
0
LINE
8
BLACK
6
CONTINUOUS
10
0.5283438582677166
20
0.6260997637795276
11
0.5270637007874016
21
0.6280156299212598
0
LINE
8
BLACK
6
CONTINUOUS
10
0.5270637007874016
20
0.6280156299212598
11
0.5266141732283465
21
0.6302755905511811
0
LINE
8
BLACK
6
CONTINUOUS
10
0.5266141732283465
20
0.6302755905511811
11
0.5266141732283465
21
0.6853937007874016
0
LINE
8
BLACK
6
CONTINUOUS
10
0.5266141732283465
20
0.6853937007874016
11
0.5270637007874016
21
0.6876536614173229
0
LINE
8
BLACK
6
CONTINUOUS
10
0.5270637007874016
20
0.6876536614173229
11
0.5283438582677166
21
0.6895695275590551
0
LINE
8
BLACK
6
CONTINUOUS
10
0.5283438582677166
20
0.6895695275590551
11
0.5302597244094488
21
0.6908496850393701
0
LINE
8
BLACK
6
CONTINUOUS
10
0.5302597244094488
20
0.6908496850393701
11
0.5325196850393701
21
0.6912992125984252
0
LINE
8
BLACK
6
CONTINUOUS
10
0.5325196850393701
20
0.6912992125984252
11
0.5443307086614173
21
0.6912992125984252
0
LINE
8
BLACK
6
CONTINUOUS
10
0.5443307086614173
20
0.6912992125984252
11
0.5465906692913386
21
0.6908496850393701
0
LINE
8
BLACK
6
CONTINUOUS
10
0.5958032677165355
20
0.6908496850393701
11
0.5977191338582677
21
0.6895695275590551
0
LINE
8
BLACK
6
CONTINUOUS
10
0.5977191338582677
20
0.6895695275590551
11
0.5989992913385827
21
0.6876536614173229
0
LINE
8
BLACK
6
CONTINUOUS
10
0.5989992913385827
20
0.6876536614173229
11
0.5994488188976378
21
0.6853937007874016
0
LINE
8
BLACK
6
CONTINUOUS
10
0.5994488188976378
20
0.6853937007874016
11
0.5994488188976378
21
0.6302755905511811
0
LINE
8
BLACK
6
CONTINUOUS
10
0.5994488188976378
20
0.6302755905511811
11
0.5989992913385827
21
0.6280156299212598
0
LINE
8
BLACK
6
CONTINUOUS
10
0.5989992913385827
20
0.6280156299212598
11
0.5977191338582677
21
0.6260997637795276
0
LINE
8
BLACK
6
CONTINUOUS
10
0.5977191338582677
20
0.6260997637795276
11
0.5958032677165355
21
0.6248196062992126
0
LINE
8
BLACK
6
CONTINUOUS
10
0.5958032677165355
20
0.6248196062992126
11
0.5935433070866142
21
0.6243700787401575
0
LINE
8
BLACK
6
CONTINUOUS
10
0.5935433070866142
20
0.6243700787401575
11
0.581732283464567
21
0.6243700787401575
0
LINE
8
BLACK
6
CONTINUOUS
10
0.581732283464567
20
0.6243700787401575
11
0.5794723228346457
21
0.6248196062992126
0
LINE
8
BLACK
6
CONTINUOUS
10
0.5794723228346457
20
0.6248196062992126
11
0.5775564566929133
21
0.6260997637795276
0
LINE
8
BLACK
6
CONTINUOUS
10
0.5775564566929133
20
0.6260997637795276
11
0.5762762992125984
21
0.6280156299212598
0
LINE
8
BLACK
6
CONTINUOUS
10
0.5762762992125984
20
0.6280156299212598
11
0.5758267716535433
21
0.6302755905511811
0
LINE
8
BLACK
6
CONTINUOUS
10
0.5758267716535433
20
0.6302755905511811
11
0.5758267716535433
21
0.6853937007874016
0
LINE
8
BLACK
6
CONTINUOUS
10
0.5758267716535433
20
0.6853937007874016
11
0.5762762992125984
21
0.6876536614173229
0
LINE
8
BLACK
6
CONTINUOUS
10
0.5762762992125984
20
0.6876536614173229
11
0.5775564566929133
21
0.6895695275590551
0
LINE
8
BLACK
6
CONTINUOUS
10
0.5775564566929133
20
0.6895695275590551
11
0.5794723228346457
21
0.6908496850393701
0
LINE
8
BLACK
6
CONTINUOUS
10
0.5794723228346457
20
0.6908496850393701
11
0.581732283464567
21
0.6912992125984252
0
LINE
8
BLACK
6
CONTINUOUS
10
0.581732283464567
20
0.6912992125984252
11
0.5935433070866142
21
0.6912992125984252
0
LINE
8
BLACK
6
CONTINUOUS
10
0.5935433070866142
20
0.6912992125984252
11
0.5958032677165355
21
0.6908496850393701
0
LINE
8
BLACK
6
CONTINUOUS
10
1.0795275590551181
20
0.6703149606299212
11
1.0204724409448818
21
0.6703149606299212
0
LINE
8
BLACK
6
CONTINUOUS
10
1.0204724409448818
20
0.6703149606299212
11
1.0204724409448818
21
0.7096850393700788
0
LINE
8
BLACK
6
CONTINUOUS
10
1.0204724409448818
20
0.7096850393700788
11
1.0795275590551181
21
0.7096850393700788
0
LINE
8
BLACK
6
CONTINUOUS
10
1.0795275590551181
20
0.7096850393700788
11
1.0795275590551181
21
0.6703149606299212
0
LINE
8
BLACK
6
CONTINUOUS
10
1.0598425196850394
20
0.7606977165354331
11
1.0624119291338583
21
0.7606977165354331
0
LINE
8
BLACK
6
CONTINUOUS
10
1.0624119291338583
20
0.7606977165354331
11
1.0673756692913385
21
0.759367716535433
0
LINE
8
BLACK
6
CONTINUOUS
10
1.0673756692913385
20
0.759367716535433
11
1.0718260236220472
21
0.7567983070866141
0
LINE
8
BLACK
6
CONTINUOUS
10
1.0718260236220472
20
0.7567983070866141
11
1.0754597244094488
21
0.7531646062992126
0
LINE
8
BLACK
6
CONTINUOUS
10
1.0754597244094488
20
0.7531646062992126
11
1.0780291338582677
21
0.7487142519685039
0
LINE
8
BLACK
6
CONTINUOUS
10
1.0780291338582677
20
0.7487142519685039
11
1.0793591338582678
21
0.7437505118110236
0
LINE
8
BLACK
6
CONTINUOUS
10
1.0793591338582678
20
0.7437505118110236
11
1.0793591338582678
21
0.7411811023622047
0
LINE
8
BLACK
6
CONTINUOUS
10
1.0793591338582678
20
0.7411811023622047
11
1.0795275590551181
21
0.7411811023622047
0
LINE
8
BLACK
6
CONTINUOUS
10
1.0795275590551181
20
0.7411811023622047
11
1.0795275590551181
21
0.7195275590551181
0
LINE
8
BLACK
6
CONTINUOUS
10
1.0795275590551181
20
0.7195275590551181
11
1.0204724409448818
21
0.7195275590551181
0
LINE
8
BLACK
6
CONTINUOUS
10
1.0204724409448818
20
0.7195275590551181
11
1.0204724409448818
21
0.7411811023622047
0
LINE
8
BLACK
6
CONTINUOUS
10
1.0204724409448818
20
0.7411811023622047
11
1.0206408661417323
21
0.7411811023622047
0
LINE
8
BLACK
6
CONTINUOUS
10
1.0206408661417323
20
0.7411811023622047
11
1.0206408661417323
21
0.7437505118110236
0
LINE
8
BLACK
6
CONTINUOUS
10
1.0206408661417323
20
0.7437505118110236
11
1.0219708661417322
21
0.7487142519685039
0
LINE
8
BLACK
6
CONTINUOUS
10
1.0219708661417322
20
0.7487142519685039
11
1.0245402755905511
21
0.7531646062992126
0
LINE
8
BLACK
6
CONTINUOUS
10
1.0245402755905511
20
0.7531646062992126
11
1.0281739763779527
21
0.7567983070866141
0
LINE
8
BLACK
6
CONTINUOUS
10
1.0281739763779527
20
0.7567983070866141
11
1.0326243307086613
21
0.759367716535433
0
LINE
8
BLACK
6
CONTINUOUS
10
1.0326243307086613
20
0.759367716535433
11
1.0375880708661418
21
0.7606977165354331
0
LINE
8
BLACK
6
CONTINUOUS
10
1.0375880708661418
20
0.7606977165354331
11
1.0401574803149607
21
0.7606977165354331
0
LINE
8
BLACK
6
CONTINUOUS
10
1.0401574803149607
20
0.7606977165354331
11
1.0401574803149607
21
0.7608661417322834
0
LINE
8
BLACK
6
CONTINUOUS
10
1.0401574803149607
20
0.7608661417322834
11
1.0598425196850394
21
0.7608661417322834
0
LINE
8
BLACK
6
CONTINUOUS
10
1.0598425196850394
20
0.7608661417322834
11
1.0598425196850394
21
0.7606977165354331
0
LINE
8
BLACK
6
CONTINUOUS
10
1.5064679133858268
20
0.8744858267716535
11
1.5135983070866141
21
0.8715323228346457
0
LINE
8
BLACK
6
CONTINUOUS
10
1.5135983070866141
20
0.8715323228346457
11
1.5200154724409449
21
0.8672444881889764
0
LINE
8
BLACK
6
CONTINUOUS
10
1.5200154724409449
20
0.8672444881889764
11
1.5254728346456692
21
0.861787125984252
0
LINE
8
BLACK
6
CONTINUOUS
10
1.5254728346456692
20
0.861787125984252
11
1.5297606692913386
21
0.8553699606299212
0
LINE
8
BLACK
6
CONTINUOUS
10
1.5297606692913386
20
0.8553699606299212
11
1.5327141732283465
21
0.8482395669291338
0
LINE
8
BLACK
6
CONTINUOUS
10
1.5327141732283465
20
0.8482395669291338
11
1.5342198818897637
21
0.8406699606299213
0
LINE
8
BLACK
6
CONTINUOUS
10
1.5342198818897637
20
0.8406699606299213
11
1.5342198818897637
21
0.8329520866141732
0
LINE
8
BLACK
6
CONTINUOUS
10
1.5342198818897637
20
0.8329520866141732
11
1.5327141732283465
21
0.8253824803149606
0
LINE
8
BLACK
6
CONTINUOUS
10
1.5327141732283465
20
0.8253824803149606
11
1.5297606692913386
21
0.8182520866141733
0
LINE
8
BLACK
6
CONTINUOUS
10
1.5297606692913386
20
0.8182520866141733
11
1.5254728346456692
21
0.8118349212598425
0
LINE
8
BLACK
6
CONTINUOUS
10
1.5254728346456692
20
0.8118349212598425
11
1.5200154724409449
21
0.8063775590551181
0
LINE
8
BLACK
6
CONTINUOUS
10
1.5200154724409449
20
0.8063775590551181
11
1.5135983070866141
21
0.8020897244094488
0
LINE
8
BLACK
6
CONTINUOUS
10
1.5135983070866141
20
0.8020897244094488
11
1.5064679133858268
21
0.7991362204724409
0
LINE
8
BLACK
6
CONTINUOUS
10
1.5064679133858268
20
0.7991362204724409
11
1.4988983070866142
21
0.7976305118110236
0
LINE
8
BLACK
6
CONTINUOUS
10
1.4988983070866142
20
0.7976305118110236
11
1.491180433070866
21
0.7976305118110236
0
LINE
8
BLACK
6
CONTINUOUS
10
1.491180433070866
20
0.7976305118110236
11
1.4836108267716535
21
0.7991362204724409
0
LINE
8
BLACK
6
CONTINUOUS
10
1.4836108267716535
20
0.7991362204724409
11
1.4764804330708661
21
0.8020897244094488
0
LINE
8
BLACK
6
CONTINUOUS
10
1.4764804330708661
20
0.8020897244094488
11
1.4700632677165355
21
0.8063775590551181
0
LINE
8
BLACK
6
CONTINUOUS
10
1.4700632677165355
20
0.8063775590551181
11
1.464605905511811
21
0.8118349212598425
0
LINE
8
BLACK
6
CONTINUOUS
10
1.464605905511811
20
0.8118349212598425
11
1.4603180708661416
21
0.8182520866141733
0
LINE
8
BLACK
6
CONTINUOUS
10
1.4603180708661416
20
0.8182520866141733
11
1.4573645669291337
21
0.8253824803149606
0
LINE
8
BLACK
6
CONTINUOUS
10
1.4573645669291337
20
0.8253824803149606
11
1.4558588582677165
21
0.8329520866141732
0
LINE
8
BLACK
6
CONTINUOUS
10
1.4558588582677165
20
0.8329520866141732
11
1.4558588582677165
21
0.8406699606299213
0
LINE
8
BLACK
6
CONTINUOUS
10
1.4558588582677165
20
0.8406699606299213
11
1.4573645669291337
21
0.8482395669291338
0
LINE
8
BLACK
6
CONTINUOUS
10
1.4573645669291337
20
0.8482395669291338
11
1.4603180708661416
21
0.8553699606299212
0
LINE
8
BLACK
6
CONTINUOUS
10
1.4603180708661416
20
0.8553699606299212
11
1.464605905511811
21
0.861787125984252
0
LINE
8
BLACK
6
CONTINUOUS
10
1.464605905511811
20
0.861787125984252
11
1.4700632677165355
21
0.8672444881889764
0
LINE
8
BLACK
6
CONTINUOUS
10
1.4700632677165355
20
0.8672444881889764
11
1.4764804330708661
21
0.8715323228346457
0
LINE
8
BLACK
6
CONTINUOUS
10
1.4764804330708661
20
0.8715323228346457
11
1.4836108267716535
21
0.8744858267716535
0
LINE
8
BLACK
6
CONTINUOUS
10
1.4836108267716535
20
0.8744858267716535
11
1.491180433070866
21
0.8759915354330708
0
LINE
8
BLACK
6
CONTINUOUS
10
1.491180433070866
20
0.8759915354330708
11
1.4988983070866142
21
0.8759915354330708
0
LINE
8
BLACK
6
CONTINUOUS
10
1.4988983070866142
20
0.8759915354330708
11
1.5064679133858268
21
0.8744858267716535
0
LINE
8
BLACK
6
CONTINUOUS
10
-2.0313385826771655
20
0.8080708661417323
11
-2.1415748031496062
21
0.8080708661417323
0
LINE
8
BLACK
6
CONTINUOUS
10
-2.1415748031496062
20
0.8080708661417323
11
-2.1415748031496062
21
0.8671259842519685
0
LINE
8
BLACK
6
CONTINUOUS
10
-2.1415748031496062
20
0.8671259842519685
11
-2.0313385826771655
21
0.8671259842519685
0
LINE
8
BLACK
6
CONTINUOUS
10
-2.0313385826771655
20
0.8671259842519685
11
-2.0313385826771655
21
0.8080708661417323
0
LINE
8
BLACK
6
CONTINUOUS
10
-0.8295275590551181
20
0.8754724409448819
11
-0.8511811023622047
21
0.8754724409448819
0
LINE
8
BLACK
6
CONTINUOUS
10
-0.8511811023622047
20
0.8754724409448819
11
-0.8511811023622047
21
0.8756408661417323
0
LINE
8
BLACK
6
CONTINUOUS
10
-0.8511811023622047
20
0.8756408661417323
11
-0.8537505118110236
21
0.8756408661417323
0
LINE
8
BLACK
6
CONTINUOUS
10
-0.8537505118110236
20
0.8756408661417323
11
-0.8587142519685039
21
0.8769708661417323
0
LINE
8
BLACK
6
CONTINUOUS
10
-0.8587142519685039
20
0.8769708661417323
11
-0.8631646062992125
21
0.8795402755905511
0
LINE
8
BLACK
6
CONTINUOUS
10
-0.8631646062992125
20
0.8795402755905511
11
-0.8667983070866142
21
0.8831739763779527
0
LINE
8
BLACK
6
CONTINUOUS
10
-0.8667983070866142
20
0.8831739763779527
11
-0.8693677165354331
21
0.8876243307086614
0
LINE
8
BLACK
6
CONTINUOUS
10
-0.8693677165354331
20
0.8876243307086614
11
-0.870697716535433
21
0.8925880708661417
0
LINE
8
BLACK
6
CONTINUOUS
10
-0.870697716535433
20
0.8925880708661417
11
-0.870697716535433
21
0.8951574803149606
0
LINE
8
BLACK
6
CONTINUOUS
10
-0.870697716535433
20
0.8951574803149606
11
-0.8708661417322835
21
0.8951574803149606
0
LINE
8
BLACK
6
CONTINUOUS
10
-0.8708661417322835
20
0.8951574803149606
11
-0.8708661417322835
21
0.9148425196850394
0
LINE
8
BLACK
6
CONTINUOUS
10
-0.8708661417322835
20
0.9148425196850394
11
-0.870697716535433
21
0.9148425196850394
0
LINE
8
BLACK
6
CONTINUOUS
10
-0.870697716535433
20
0.9148425196850394
11
-0.870697716535433
21
0.9174119291338583
0
LINE
8
BLACK
6
CONTINUOUS
10
-0.870697716535433
20
0.9174119291338583
11
-0.8693677165354331
21
0.9223756692913385
0
LINE
8
BLACK
6
CONTINUOUS
10
-0.8693677165354331
20
0.9223756692913385
11
-0.8667983070866142
21
0.9268260236220472
0
LINE
8
BLACK
6
CONTINUOUS
10
-0.8667983070866142
20
0.9268260236220472
11
-0.8631646062992125
21
0.9304597244094488
0
LINE
8
BLACK
6
CONTINUOUS
10
-0.8631646062992125
20
0.9304597244094488
11
-0.8587142519685039
21
0.9330291338582677
0
LINE
8
BLACK
6
CONTINUOUS
10
-0.8587142519685039
20
0.9330291338582677
11
-0.8537505118110236
21
0.9343591338582677
0
LINE
8
BLACK
6
CONTINUOUS
10
-0.8537505118110236
20
0.9343591338582677
11
-0.8511811023622047
21
0.9343591338582677
0
LINE
8
BLACK
6
CONTINUOUS
10
-0.8511811023622047
20
0.9343591338582677
11
-0.8511811023622047
21
0.9345275590551181
0
LINE
8
BLACK
6
CONTINUOUS
10
-0.8511811023622047
20
0.9345275590551181
11
-0.8295275590551181
21
0.9345275590551181
0
LINE
8
BLACK
6
CONTINUOUS
10
-0.8295275590551181
20
0.9345275590551181
11
-0.8295275590551181
21
0.8754724409448819
0
LINE
8
BLACK
6
CONTINUOUS
10
-0.7803149606299212
20
0.8754724409448819
11
-0.8196850393700787
21
0.8754724409448819
0
LINE
8
BLACK
6
CONTINUOUS
10
-0.8196850393700787
20
0.8754724409448819
11
-0.8196850393700787
21
0.9345275590551181
0
LINE
8
BLACK
6
CONTINUOUS
10
-0.8196850393700787
20
0.9345275590551181
11
-0.7803149606299212
21
0.9345275590551181
0
LINE
8
BLACK
6
CONTINUOUS
10
-0.7803149606299212
20
0.9345275590551181
11
-0.7803149606299212
21
0.8754724409448819
0
LINE
8
BLACK
6
CONTINUOUS
10
-0.7488188976377953
20
0.9343591338582677
11
-0.7462494881889764
21
0.9343591338582677
0
LINE
8
BLACK
6
CONTINUOUS
10
-0.7462494881889764
20
0.9343591338582677
11
-0.7412857480314961
21
0.9330291338582677
0
LINE
8
BLACK
6
CONTINUOUS
10
-0.7412857480314961
20
0.9330291338582677
11
-0.7368353937007874
21
0.9304597244094488
0
LINE
8
BLACK
6
CONTINUOUS
10
-0.7368353937007874
20
0.9304597244094488
11
-0.7332016929133858
21
0.9268260236220472
0
LINE
8
BLACK
6
CONTINUOUS
10
-0.7332016929133858
20
0.9268260236220472
11
-0.7306322834645669
21
0.9223756692913385
0
LINE
8
BLACK
6
CONTINUOUS
10
-0.7306322834645669
20
0.9223756692913385
11
-0.7293022834645669
21
0.9174119291338583
0
LINE
8
BLACK
6
CONTINUOUS
10
-0.7293022834645669
20
0.9174119291338583
11
-0.7293022834645669
21
0.9148425196850394
0
LINE
8
BLACK
6
CONTINUOUS
10
-0.7293022834645669
20
0.9148425196850394
11
-0.7291338582677165
21
0.9148425196850394
0
LINE
8
BLACK
6
CONTINUOUS
10
-0.7291338582677165
20
0.9148425196850394
11
-0.7291338582677165
21
0.8951574803149606
0
LINE
8
BLACK
6
CONTINUOUS
10
-0.7291338582677165
20
0.8951574803149606
11
-0.7293022834645669
21
0.8951574803149606
0
LINE
8
BLACK
6
CONTINUOUS
10
-0.7293022834645669
20
0.8951574803149606
11
-0.7293022834645669
21
0.8925880708661417
0
LINE
8
BLACK
6
CONTINUOUS
10
-0.7293022834645669
20
0.8925880708661417
11
-0.7306322834645669
21
0.8876243307086614
0
LINE
8
BLACK
6
CONTINUOUS
10
-0.7306322834645669
20
0.8876243307086614
11
-0.7332016929133858
21
0.8831739763779527
0
LINE
8
BLACK
6
CONTINUOUS
10
-0.7332016929133858
20
0.8831739763779527
11
-0.7368353937007874
21
0.8795402755905511
0
LINE
8
BLACK
6
CONTINUOUS
10
-0.7368353937007874
20
0.8795402755905511
11
-0.7412857480314961
21
0.8769708661417323
0
LINE
8
BLACK
6
CONTINUOUS
10
-0.7412857480314961
20
0.8769708661417323
11
-0.7462494881889764
21
0.8756408661417323
0
LINE
8
BLACK
6
CONTINUOUS
10
-0.7462494881889764
20
0.8756408661417323
11
-0.7488188976377953
21
0.8756408661417323
0
LINE
8
BLACK
6
CONTINUOUS
10
-0.7488188976377953
20
0.8756408661417323
11
-0.7488188976377953
21
0.8754724409448819
0
LINE
8
BLACK
6
CONTINUOUS
10
-0.7488188976377953
20
0.8754724409448819
11
-0.7704724409448819
21
0.8754724409448819
0
LINE
8
BLACK
6
CONTINUOUS
10
-0.7704724409448819
20
0.8754724409448819
11
-0.7704724409448819
21
0.9345275590551181
0
LINE
8
BLACK
6
CONTINUOUS
10
-0.7704724409448819
20
0.9345275590551181
11
-0.7488188976377953
21
0.9345275590551181
0
LINE
8
BLACK
6
CONTINUOUS
10
-0.7488188976377953
20
0.9345275590551181
11
-0.7488188976377953
21
0.9343591338582677
0
LINE
8
BLACK
6
CONTINUOUS
10
-1.1848818897637794
20
0.8946850393700787
11
-1.2951181102362204
21
0.8946850393700787
0
LINE
8
BLACK
6
CONTINUOUS
10
-1.2951181102362204
20
0.8946850393700787
11
-1.2951181102362204
21
0.9537401574803149
0
LINE
8
BLACK
6
CONTINUOUS
10
-1.2951181102362204
20
0.9537401574803149
11
-1.1848818897637794
21
0.9537401574803149
0
LINE
8
BLACK
6
CONTINUOUS
10
-1.1848818897637794
20
0.9537401574803149
11
-1.1848818897637794
21
0.8946850393700787
0
LINE
8
BLACK
6
CONTINUOUS
10
-1.2702272440944882
20
1.031124094488189
11
-1.2645229527559054
21
1.0287612992125985
0
LINE
8
BLACK
6
CONTINUOUS
10
-1.2645229527559054
20
1.0287612992125985
11
-1.2593891732283464
21
1.0253310236220472
0
LINE
8
BLACK
6
CONTINUOUS
10
-1.2593891732283464
20
1.0253310236220472
11
-1.2550233070866141
21
1.0209651574803149
0
LINE
8
BLACK
6
CONTINUOUS
10
-1.2550233070866141
20
1.0209651574803149
11
-1.251593031496063
21
1.0158313779527559
0
LINE
8
BLACK
6
CONTINUOUS
10
-1.251593031496063
20
1.0158313779527559
11
-1.2492302362204724
21
1.0101270866141732
0
LINE
8
BLACK
6
CONTINUOUS
10
-1.2492302362204724
20
1.0101270866141732
11
-1.2480256692913385
21
1.0040714173228347
0
LINE
8
BLACK
6
CONTINUOUS
10
-1.2480256692913385
20
1.0040714173228347
11
-1.2480256692913385
21
0.9978970866141732
0
LINE
8
BLACK
6
CONTINUOUS
10
-1.2480256692913385
20
0.9978970866141732
11
-1.2492302362204724
21
0.9918414173228346
0
LINE
8
BLACK
6
CONTINUOUS
10
-1.2492302362204724
20
0.9918414173228346
11
-1.251593031496063
21
0.986137125984252
0
LINE
8
BLACK
6
CONTINUOUS
10
-1.251593031496063
20
0.986137125984252
11
-1.2550233070866141
21
0.9810033464566928
0
LINE
8
BLACK
6
CONTINUOUS
10
-1.2550233070866141
20
0.9810033464566928
11
-1.2593891732283464
21
0.9766374803149606
0
LINE
8
BLACK
6
CONTINUOUS
10
-1.2593891732283464
20
0.9766374803149606
11
-1.2645229527559054
21
0.9732072047244095
0
LINE
8
BLACK
6
CONTINUOUS
10
-1.2645229527559054
20
0.9732072047244095
11
-1.2702272440944882
21
0.9708444094488189
0
LINE
8
BLACK
6
CONTINUOUS
10
-1.2702272440944882
20
0.9708444094488189
11
-1.2762829133858267
21
0.969639842519685
0
LINE
8
BLACK
6
CONTINUOUS
10
-1.2762829133858267
20
0.969639842519685
11
-1.2824572440944881
21
0.969639842519685
0
LINE
8
BLACK
6
CONTINUOUS
10
-1.2824572440944881
20
0.969639842519685
11
-1.2885129133858269
21
0.9708444094488189
0
LINE
8
BLACK
6
CONTINUOUS
10
-1.2885129133858269
20
0.9708444094488189
11
-1.2942172047244094
21
0.9732072047244095
0
LINE
8
BLACK
6
CONTINUOUS
10
-1.2942172047244094
20
0.9732072047244095
11
-1.2993509842519684
21
0.9766374803149606
0
LINE
8
BLACK
6
CONTINUOUS
10
-1.2993509842519684
20
0.9766374803149606
11
-1.3037168503937007
21
0.9810033464566928
0
LINE
8
BLACK
6
CONTINUOUS
10
-1.3037168503937007
20
0.9810033464566928
11
-1.307147125984252
21
0.986137125984252
0
LINE
8
BLACK
6
CONTINUOUS
10
-1.307147125984252
20
0.986137125984252
11
-1.3095099212598424
21
0.9918414173228346
0
LINE
8
BLACK
6
CONTINUOUS
10
-1.3095099212598424
20
0.9918414173228346
11
-1.3107144881889763
21
0.9978970866141732
0
LINE
8
BLACK
6
CONTINUOUS
10
-1.3107144881889763
20
0.9978970866141732
11
-1.3107144881889763
21
1.0040714173228347
0
LINE
8
BLACK
6
CONTINUOUS
10
-1.3107144881889763
20
1.0040714173228347
11
-1.3095099212598424
21
1.0101270866141732
0
LINE
8
BLACK
6
CONTINUOUS
10
-1.3095099212598424
20
1.0101270866141732
11
-1.307147125984252
21
1.0158313779527559
0
LINE
8
BLACK
6
CONTINUOUS
10
-1.307147125984252
20
1.0158313779527559
11
-1.3037168503937007
21
1.0209651574803149
0
LINE
8
BLACK
6
CONTINUOUS
10
-1.3037168503937007
20
1.0209651574803149
11
-1.2993509842519684
21
1.0253310236220472
0
LINE
8
BLACK
6
CONTINUOUS
10
-1.2993509842519684
20
1.0253310236220472
11
-1.2942172047244094
21
1.0287612992125985
0
LINE
8
BLACK
6
CONTINUOUS
10
-1.2942172047244094
20
1.0287612992125985
11
-1.2885129133858269
21
1.031124094488189
0
LINE
8
BLACK
6
CONTINUOUS
10
-1.2885129133858269
20
1.031124094488189
11
-1.2824572440944881
21
1.0323286614173228
0
LINE
8
BLACK
6
CONTINUOUS
10
-1.2824572440944881
20
1.0323286614173228
11
-1.2762829133858267
21
1.0323286614173228
0
LINE
8
BLACK
6
CONTINUOUS
10
-1.2762829133858267
20
1.0323286614173228
11
-1.2702272440944882
21
1.031124094488189
0
LINE
8
BLACK
6
CONTINUOUS
10
0.4092913385826771
20
0.9804724409448818
11
0.3876377952755906
21
0.9804724409448818
0
LINE
8
BLACK
6
CONTINUOUS
10
0.3876377952755906
20
0.9804724409448818
11
0.3876377952755906
21
0.9806408661417323
0
LINE
8
BLACK
6
CONTINUOUS
10
0.3876377952755906
20
0.9806408661417323
11
0.3850683858267717
21
0.9806408661417323
0
LINE
8
BLACK
6
CONTINUOUS
10
0.3850683858267717
20
0.9806408661417323
11
0.3801046456692913
21
0.9819708661417322
0
LINE
8
BLACK
6
CONTINUOUS
10
0.3801046456692913
20
0.9819708661417322
11
0.3756542913385827
21
0.9845402755905511
0
LINE
8
BLACK
6
CONTINUOUS
10
0.3756542913385827
20
0.9845402755905511
11
0.3720205905511811
21
0.9881739763779527
0
LINE
8
BLACK
6
CONTINUOUS
10
0.3720205905511811
20
0.9881739763779527
11
0.3694511811023622
21
0.9926243307086614
0
LINE
8
BLACK
6
CONTINUOUS
10
0.3694511811023622
20
0.9926243307086614
11
0.3681211811023622
21
0.9975880708661418
0
LINE
8
BLACK
6
CONTINUOUS
10
0.3681211811023622
20
0.9975880708661418
11
0.3681211811023622
21
1.0001574803149607
0
LINE
8
BLACK
6
CONTINUOUS
10
0.3681211811023622
20
1.0001574803149607
11
0.3679527559055118
21
1.0001574803149607
0
LINE
8
BLACK
6
CONTINUOUS
10
0.3679527559055118
20
1.0001574803149607
11
0.3679527559055118
21
1.0198425196850394
0
LINE
8
BLACK
6
CONTINUOUS
10
0.3679527559055118
20
1.0198425196850394
11
0.3681211811023622
21
1.0198425196850394
0
LINE
8
BLACK
6
CONTINUOUS
10
0.3681211811023622
20
1.0198425196850394
11
0.3681211811023622
21
1.0224119291338583
0
LINE
8
BLACK
6
CONTINUOUS
10
0.3681211811023622
20
1.0224119291338583
11
0.3694511811023622
21
1.0273756692913385
0
LINE
8
BLACK
6
CONTINUOUS
10
0.3694511811023622
20
1.0273756692913385
11
0.3720205905511811
21
1.0318260236220471
0
LINE
8
BLACK
6
CONTINUOUS
10
0.3720205905511811
20
1.0318260236220471
11
0.3756542913385827
21
1.0354597244094488
0
LINE
8
BLACK
6
CONTINUOUS
10
0.3756542913385827
20
1.0354597244094488
11
0.3801046456692913
21
1.0380291338582677
0
LINE
8
BLACK
6
CONTINUOUS
10
0.3801046456692913
20
1.0380291338582677
11
0.3850683858267717
21
1.0393591338582677
0
LINE
8
BLACK
6
CONTINUOUS
10
0.3850683858267717
20
1.0393591338582677
11
0.3876377952755906
21
1.0393591338582677
0
LINE
8
BLACK
6
CONTINUOUS
10
0.3876377952755906
20
1.0393591338582677
11
0.3876377952755906
21
1.0395275590551181
0
LINE
8
BLACK
6
CONTINUOUS
10
0.3876377952755906
20
1.0395275590551181
11
0.4092913385826771
21
1.0395275590551181
0
LINE
8
BLACK
6
CONTINUOUS
10
0.4092913385826771
20
1.0395275590551181
11
0.4092913385826771
21
0.9804724409448818
0
LINE
8
BLACK
6
CONTINUOUS
10
0.458503937007874
20
0.9804724409448818
11
0.4191338582677165
21
0.9804724409448818
0
LINE
8
BLACK
6
CONTINUOUS
10
0.4191338582677165
20
0.9804724409448818
11
0.4191338582677165
21
1.0395275590551181
0
LINE
8
BLACK
6
CONTINUOUS
10
0.4191338582677165
20
1.0395275590551181
11
0.458503937007874
21
1.0395275590551181
0
LINE
8
BLACK
6
CONTINUOUS
10
0.458503937007874
20
1.0395275590551181
11
0.458503937007874
21
0.9804724409448818
0
LINE
8
BLACK
6
CONTINUOUS
10
0.49
20
1.0393591338582677
11
0.4925694094488189
21
1.0393591338582677
0
LINE
8
BLACK
6
CONTINUOUS
10
0.4925694094488189
20
1.0393591338582677
11
0.4975331496062992
21
1.0380291338582677
0
LINE
8
BLACK
6
CONTINUOUS
10
0.4975331496062992
20
1.0380291338582677
11
0.5019835039370079
21
1.0354597244094488
0
LINE
8
BLACK
6
CONTINUOUS
10
0.5019835039370079
20
1.0354597244094488
11
0.5056172047244094
21
1.0318260236220471
0
LINE
8
BLACK
6
CONTINUOUS
10
0.5056172047244094
20
1.0318260236220471
11
0.5081866141732283
21
1.0273756692913385
0
LINE
8
BLACK
6
CONTINUOUS
10
0.5081866141732283
20
1.0273756692913385
11
0.5095166141732284
21
1.0224119291338583
0
LINE
8
BLACK
6
CONTINUOUS
10
0.5095166141732284
20
1.0224119291338583
11
0.5095166141732284
21
1.0198425196850394
0
LINE
8
BLACK
6
CONTINUOUS
10
0.5095166141732284
20
1.0198425196850394
11
0.5096850393700787
21
1.0198425196850394
0
LINE
8
BLACK
6
CONTINUOUS
10
0.5096850393700787
20
1.0198425196850394
11
0.5096850393700787
21
1.0001574803149607
0
LINE
8
BLACK
6
CONTINUOUS
10
0.5096850393700787
20
1.0001574803149607
11
0.5095166141732284
21
1.0001574803149607
0
LINE
8
BLACK
6
CONTINUOUS
10
0.5095166141732284
20
1.0001574803149607
11
0.5095166141732284
21
0.9975880708661418
0
LINE
8
BLACK
6
CONTINUOUS
10
0.5095166141732284
20
0.9975880708661418
11
0.5081866141732283
21
0.9926243307086614
0
LINE
8
BLACK
6
CONTINUOUS
10
0.5081866141732283
20
0.9926243307086614
11
0.5056172047244094
21
0.9881739763779527
0
LINE
8
BLACK
6
CONTINUOUS
10
0.5056172047244094
20
0.9881739763779527
11
0.5019835039370079
21
0.9845402755905511
0
LINE
8
BLACK
6
CONTINUOUS
10
0.5019835039370079
20
0.9845402755905511
11
0.4975331496062992
21
0.9819708661417322
0
LINE
8
BLACK
6
CONTINUOUS
10
0.4975331496062992
20
0.9819708661417322
11
0.4925694094488189
21
0.9806408661417323
0
LINE
8
BLACK
6
CONTINUOUS
10
0.4925694094488189
20
0.9806408661417323
11
0.49
21
0.9806408661417323
0
LINE
8
BLACK
6
CONTINUOUS
10
0.49
20
0.9806408661417323
11
0.49
21
0.9804724409448818
0
LINE
8
BLACK
6
CONTINUOUS
10
0.49
20
0.9804724409448818
11
0.4683464566929134
21
0.9804724409448818
0
LINE
8
BLACK
6
CONTINUOUS
10
0.4683464566929134
20
0.9804724409448818
11
0.4683464566929134
21
1.0395275590551181
0
LINE
8
BLACK
6
CONTINUOUS
10
0.4683464566929134
20
1.0395275590551181
11
0.49
21
1.0395275590551181
0
LINE
8
BLACK
6
CONTINUOUS
10
0.49
20
1.0395275590551181
11
0.49
21
1.0393591338582677
0
LINE
8
BLACK
6
CONTINUOUS
10
0.6204724409448819
20
0.9804724409448818
11
0.5988188976377953
21
0.9804724409448818
0
LINE
8
BLACK
6
CONTINUOUS
10
0.5988188976377953
20
0.9804724409448818
11
0.5988188976377953
21
0.9806408661417323
0
LINE
8
BLACK
6
CONTINUOUS
10
0.5988188976377953
20
0.9806408661417323
11
0.5962494881889764
21
0.9806408661417323
0
LINE
8
BLACK
6
CONTINUOUS
10
0.5962494881889764
20
0.9806408661417323
11
0.591285748031496
21
0.9819708661417322
0
LINE
8
BLACK
6
CONTINUOUS
10
0.591285748031496
20
0.9819708661417322
11
0.5868353937007874
21
0.9845402755905511
0
LINE
8
BLACK
6
CONTINUOUS
10
0.5868353937007874
20
0.9845402755905511
11
0.5832016929133859
21
0.9881739763779527
0
LINE
8
BLACK
6
CONTINUOUS
10
0.5832016929133859
20
0.9881739763779527
11
0.580632283464567
21
0.9926243307086614
0
LINE
8
BLACK
6
CONTINUOUS
10
0.580632283464567
20
0.9926243307086614
11
0.5793022834645669
21
0.9975880708661418
0
LINE
8
BLACK
6
CONTINUOUS
10
0.5793022834645669
20
0.9975880708661418
11
0.5793022834645669
21
1.0001574803149607
0
LINE
8
BLACK
6
CONTINUOUS
10
0.5793022834645669
20
1.0001574803149607
11
0.5791338582677166
21
1.0001574803149607
0
LINE
8
BLACK
6
CONTINUOUS
10
0.5791338582677166
20
1.0001574803149607
11
0.5791338582677166
21
1.0198425196850394
0
LINE
8
BLACK
6
CONTINUOUS
10
0.5791338582677166
20
1.0198425196850394
11
0.5793022834645669
21
1.0198425196850394
0
LINE
8
BLACK
6
CONTINUOUS
10
0.5793022834645669
20
1.0198425196850394
11
0.5793022834645669
21
1.0224119291338583
0
LINE
8
BLACK
6
CONTINUOUS
10
0.5793022834645669
20
1.0224119291338583
11
0.580632283464567
21
1.0273756692913385
0
LINE
8
BLACK
6
CONTINUOUS
10
0.580632283464567
20
1.0273756692913385
11
0.5832016929133859
21
1.0318260236220471
0
LINE
8
BLACK
6
CONTINUOUS
10
0.5832016929133859
20
1.0318260236220471
11
0.5868353937007874
21
1.0354597244094488
0
LINE
8
BLACK
6
CONTINUOUS
10
0.5868353937007874
20
1.0354597244094488
11
0.591285748031496
21
1.0380291338582677
0
LINE
8
BLACK
6
CONTINUOUS
10
0.591285748031496
20
1.0380291338582677
11
0.5962494881889764
21
1.0393591338582677
0
LINE
8
BLACK
6
CONTINUOUS
10
0.5962494881889764
20
1.0393591338582677
11
0.5988188976377953
21
1.0393591338582677
0
LINE
8
BLACK
6
CONTINUOUS
10
0.5988188976377953
20
1.0393591338582677
11
0.5988188976377953
21
1.0395275590551181
0
LINE
8
BLACK
6
CONTINUOUS
10
0.5988188976377953
20
1.0395275590551181
11
0.6204724409448819
21
1.0395275590551181
0
LINE
8
BLACK
6
CONTINUOUS
10
0.6204724409448819
20
1.0395275590551181
11
0.6204724409448819
21
0.9804724409448818
0
LINE
8
BLACK
6
CONTINUOUS
10
0.6696850393700787
20
0.9804724409448818
11
0.6303149606299212
21
0.9804724409448818
0
LINE
8
BLACK
6
CONTINUOUS
10
0.6303149606299212
20
0.9804724409448818
11
0.6303149606299212
21
1.0395275590551181
0
LINE
8
BLACK
6
CONTINUOUS
10
0.6303149606299212
20
1.0395275590551181
11
0.6696850393700787
21
1.0395275590551181
0
LINE
8
BLACK
6
CONTINUOUS
10
0.6696850393700787
20
1.0395275590551181
11
0.6696850393700787
21
0.9804724409448818
0
LINE
8
BLACK
6
CONTINUOUS
10
0.7011811023622047
20
1.0393591338582677
11
0.7037505118110237
21
1.0393591338582677
0
LINE
8
BLACK
6
CONTINUOUS
10
0.7037505118110237
20
1.0393591338582677
11
0.7087142519685039
21
1.0380291338582677
0
LINE
8
BLACK
6
CONTINUOUS
10
0.7087142519685039
20
1.0380291338582677
11
0.7131646062992126
21
1.0354597244094488
0
LINE
8
BLACK
6
CONTINUOUS
10
0.7131646062992126
20
1.0354597244094488
11
0.7167983070866142
21
1.0318260236220471
0
LINE
8
BLACK
6
CONTINUOUS
10
0.7167983070866142
20
1.0318260236220471
11
0.7193677165354331
21
1.0273756692913385
0
LINE
8
BLACK
6
CONTINUOUS
10
0.7193677165354331
20
1.0273756692913385
11
0.720697716535433
21
1.0224119291338583
0
LINE
8
BLACK
6
CONTINUOUS
10
0.720697716535433
20
1.0224119291338583
11
0.720697716535433
21
1.0198425196850394
0
LINE
8
BLACK
6
CONTINUOUS
10
0.720697716535433
20
1.0198425196850394
11
0.7208661417322835
21
1.0198425196850394
0
LINE
8
BLACK
6
CONTINUOUS
10
0.7208661417322835
20
1.0198425196850394
11
0.7208661417322835
21
1.0001574803149607
0
LINE
8
BLACK
6
CONTINUOUS
10
0.7208661417322835
20
1.0001574803149607
11
0.720697716535433
21
1.0001574803149607
0
LINE
8
BLACK
6
CONTINUOUS
10
0.720697716535433
20
1.0001574803149607
11
0.720697716535433
21
0.9975880708661418
0
LINE
8
BLACK
6
CONTINUOUS
10
0.720697716535433
20
0.9975880708661418
11
0.7193677165354331
21
0.9926243307086614
0
LINE
8
BLACK
6
CONTINUOUS
10
0.7193677165354331
20
0.9926243307086614
11
0.7167983070866142
21
0.9881739763779527
0
LINE
8
BLACK
6
CONTINUOUS
10
0.7167983070866142
20
0.9881739763779527
11
0.7131646062992126
21
0.9845402755905511
0
LINE
8
BLACK
6
CONTINUOUS
10
0.7131646062992126
20
0.9845402755905511
11
0.7087142519685039
21
0.9819708661417322
0
LINE
8
BLACK
6
CONTINUOUS
10
0.7087142519685039
20
0.9819708661417322
11
0.7037505118110237
21
0.9806408661417323
0
LINE
8
BLACK
6
CONTINUOUS
10
0.7037505118110237
20
0.9806408661417323
11
0.7011811023622047
21
0.9806408661417323
0
LINE
8
BLACK
6
CONTINUOUS
10
0.7011811023622047
20
0.9806408661417323
11
0.7011811023622047
21
0.9804724409448818
0
LINE
8
BLACK
6
CONTINUOUS
10
0.7011811023622047
20
0.9804724409448818
11
0.6795275590551181
21
0.9804724409448818
0
LINE
8
BLACK
6
CONTINUOUS
10
0.6795275590551181
20
0.9804724409448818
11
0.6795275590551181
21
1.0395275590551181
0
LINE
8
BLACK
6
CONTINUOUS
10
0.6795275590551181
20
1.0395275590551181
11
0.7011811023622047
21
1.0395275590551181
0
LINE
8
BLACK
6
CONTINUOUS
10
0.7011811023622047
20
1.0395275590551181
11
0.7011811023622047
21
1.0393591338582677
0
LINE
8
BLACK
6
CONTINUOUS
10
-1.1396062992125984
20
0.9862204724409449
11
-1.1986614173228347
21
0.9862204724409449
0
LINE
8
BLACK
6
CONTINUOUS
10
-1.1986614173228347
20
0.9862204724409449
11
-1.1986614173228347
21
1.0255905511811023
0
LINE
8
BLACK
6
CONTINUOUS
10
-1.1986614173228347
20
1.0255905511811023
11
-1.1396062992125984
21
1.0255905511811023
0
LINE
8
BLACK
6
CONTINUOUS
10
-1.1396062992125984
20
1.0255905511811023
11
-1.1396062992125984
21
0.9862204724409449
0
LINE
8
BLACK
6
CONTINUOUS
10
1.084527559055118
20
1.0188188976377952
11
1.0843591338582677
21
1.0188188976377952
0
LINE
8
BLACK
6
CONTINUOUS
10
1.0843591338582677
20
1.0188188976377952
11
1.0843591338582677
21
1.0162494881889763
0
LINE
8
BLACK
6
CONTINUOUS
10
1.0843591338582677
20
1.0162494881889763
11
1.0830291338582676
21
1.0112857480314961
0
LINE
8
BLACK
6
CONTINUOUS
10
1.0830291338582676
20
1.0112857480314961
11
1.0804597244094487
21
1.0068353937007875
0
LINE
8
BLACK
6
CONTINUOUS
10
1.0804597244094487
20
1.0068353937007875
11
1.0768260236220473
21
1.0032016929133858
0
LINE
8
BLACK
6
CONTINUOUS
10
1.0768260236220473
20
1.0032016929133858
11
1.0723756692913387
21
1.0006322834645669
0
LINE
8
BLACK
6
CONTINUOUS
10
1.0723756692913387
20
1.0006322834645669
11
1.0674119291338582
21
0.999302283464567
0
LINE
8
BLACK
6
CONTINUOUS
10
1.0674119291338582
20
0.999302283464567
11
1.0648425196850393
21
0.999302283464567
0
LINE
8
BLACK
6
CONTINUOUS
10
1.0648425196850393
20
0.999302283464567
11
1.0648425196850393
21
0.9991338582677165
0
LINE
8
BLACK
6
CONTINUOUS
10
1.0648425196850393
20
0.9991338582677165
11
1.0451574803149606
21
0.9991338582677165
0
LINE
8
BLACK
6
CONTINUOUS
10
1.0451574803149606
20
0.9991338582677165
11
1.0451574803149606
21
0.999302283464567
0
LINE
8
BLACK
6
CONTINUOUS
10
1.0451574803149606
20
0.999302283464567
11
1.0425880708661417
21
0.999302283464567
0
LINE
8
BLACK
6
CONTINUOUS
10
1.0425880708661417
20
0.999302283464567
11
1.0376243307086614
21
1.0006322834645669
0
LINE
8
BLACK
6
CONTINUOUS
10
1.0376243307086614
20
1.0006322834645669
11
1.0331739763779528
21
1.0032016929133858
0
LINE
8
BLACK
6
CONTINUOUS
10
1.0331739763779528
20
1.0032016929133858
11
1.0295402755905512
21
1.0068353937007875
0
LINE
8
BLACK
6
CONTINUOUS
10
1.0295402755905512
20
1.0068353937007875
11
1.0269708661417323
21
1.0112857480314961
0
LINE
8
BLACK
6
CONTINUOUS
10
1.0269708661417323
20
1.0112857480314961
11
1.0256408661417322
21
1.0162494881889763
0
LINE
8
BLACK
6
CONTINUOUS
10
1.0256408661417322
20
1.0162494881889763
11
1.0256408661417322
21
1.0188188976377952
0
LINE
8
BLACK
6
CONTINUOUS
10
1.0256408661417322
20
1.0188188976377952
11
1.0254724409448819
21
1.0188188976377952
0
LINE
8
BLACK
6
CONTINUOUS
10
1.0254724409448819
20
1.0188188976377952
11
1.0254724409448819
21
1.0404724409448818
0
LINE
8
BLACK
6
CONTINUOUS
10
1.0254724409448819
20
1.0404724409448818
11
1.084527559055118
21
1.0404724409448818
0
LINE
8
BLACK
6
CONTINUOUS
10
1.084527559055118
20
1.0404724409448818
11
1.084527559055118
21
1.0188188976377952
0
LINE
8
BLACK
6
CONTINUOUS
10
1.084527559055118
20
1.0503149606299211
11
1.0254724409448819
21
1.0503149606299211
0
LINE
8
BLACK
6
CONTINUOUS
10
1.0254724409448819
20
1.0503149606299211
11
1.0254724409448819
21
1.0896850393700788
0
LINE
8
BLACK
6
CONTINUOUS
10
1.0254724409448819
20
1.0896850393700788
11
1.084527559055118
21
1.0896850393700788
0
LINE
8
BLACK
6
CONTINUOUS
10
1.084527559055118
20
1.0896850393700788
11
1.084527559055118
21
1.0503149606299211
0
LINE
8
BLACK
6
CONTINUOUS
10
-1.1396062992125984
20
1.0846456692913387
11
-1.1986614173228347
21
1.0846456692913387
0
LINE
8
BLACK
6
CONTINUOUS
10
-1.1986614173228347
20
1.0846456692913387
11
-1.1986614173228347
21
1.1240157480314961
0
LINE
8
BLACK
6
CONTINUOUS
10
-1.1986614173228347
20
1.1240157480314961
11
-1.1396062992125984
21
1.1240157480314961
0
LINE
8
BLACK
6
CONTINUOUS
10
-1.1396062992125984
20
1.1240157480314961
11
-1.1396062992125984
21
1.0846456692913387
0
LINE
8
BLACK
6
CONTINUOUS
10
1.0648425196850393
20
1.1406977165354331
11
1.0674119291338582
21
1.1406977165354331
0
LINE
8
BLACK
6
CONTINUOUS
10
1.0674119291338582
20
1.1406977165354331
11
1.0723756692913387
21
1.139367716535433
0
LINE
8
BLACK
6
CONTINUOUS
10
1.0723756692913387
20
1.139367716535433
11
1.0768260236220473
21
1.1367983070866141
0
LINE
8
BLACK
6
CONTINUOUS
10
1.0768260236220473
20
1.1367983070866141
11
1.0804597244094487
21
1.1331646062992127
0
LINE
8
BLACK
6
CONTINUOUS
10
1.0804597244094487
20
1.1331646062992127
11
1.0830291338582676
21
1.1287142519685038
0
LINE
8
BLACK
6
CONTINUOUS
10
1.0830291338582676
20
1.1287142519685038
11
1.0843591338582677
21
1.1237505118110236
0
LINE
8
BLACK
6
CONTINUOUS
10
1.0843591338582677
20
1.1237505118110236
11
1.0843591338582677
21
1.1211811023622047
0
LINE
8
BLACK
6
CONTINUOUS
10
1.0843591338582677
20
1.1211811023622047
11
1.084527559055118
21
1.1211811023622047
0
LINE
8
BLACK
6
CONTINUOUS
10
1.084527559055118
20
1.1211811023622047
11
1.084527559055118
21
1.0995275590551181
0
LINE
8
BLACK
6
CONTINUOUS
10
1.084527559055118
20
1.0995275590551181
11
1.0254724409448819
21
1.0995275590551181
0
LINE
8
BLACK
6
CONTINUOUS
10
1.0254724409448819
20
1.0995275590551181
11
1.0254724409448819
21
1.1211811023622047
0
LINE
8
BLACK
6
CONTINUOUS
10
1.0254724409448819
20
1.1211811023622047
11
1.0256408661417322
21
1.1211811023622047
0
LINE
8
BLACK
6
CONTINUOUS
10
1.0256408661417322
20
1.1211811023622047
11
1.0256408661417322
21
1.1237505118110236
0
LINE
8
BLACK
6
CONTINUOUS
10
1.0256408661417322
20
1.1237505118110236
11
1.0269708661417323
21
1.1287142519685038
0
LINE
8
BLACK
6
CONTINUOUS
10
1.0269708661417323
20
1.1287142519685038
11
1.0295402755905512
21
1.1331646062992127
0
LINE
8
BLACK
6
CONTINUOUS
10
1.0295402755905512
20
1.1331646062992127
11
1.0331739763779528
21
1.1367983070866141
0
LINE
8
BLACK
6
CONTINUOUS
10
1.0331739763779528
20
1.1367983070866141
11
1.0376243307086614
21
1.139367716535433
0
LINE
8
BLACK
6
CONTINUOUS
10
1.0376243307086614
20
1.139367716535433
11
1.0425880708661417
21
1.1406977165354331
0
LINE
8
BLACK
6
CONTINUOUS
10
1.0425880708661417
20
1.1406977165354331
11
1.0451574803149606
21
1.1406977165354331
0
LINE
8
BLACK
6
CONTINUOUS
10
1.0451574803149606
20
1.1406977165354331
11
1.0451574803149606
21
1.1408661417322834
0
LINE
8
BLACK
6
CONTINUOUS
10
1.0451574803149606
20
1.1408661417322834
11
1.0648425196850393
21
1.1408661417322834
0
LINE
8
BLACK
6
CONTINUOUS
10
1.0648425196850393
20
1.1408661417322834
11
1.0648425196850393
21
1.1406977165354331
0
LINE
8
BLACK
6
CONTINUOUS
10
0.0492913385826772
20
1.1454724409448818
11
0.0276377952755906
21
1.1454724409448818
0
LINE
8
BLACK
6
CONTINUOUS
10
0.0276377952755906
20
1.1454724409448818
11
0.0276377952755906
21
1.1456408661417323
0
LINE
8
BLACK
6
CONTINUOUS
10
0.0276377952755906
20
1.1456408661417323
11
0.0250683858267717
21
1.1456408661417323
0
LINE
8
BLACK
6
CONTINUOUS
10
0.0250683858267717
20
1.1456408661417323
11
0.0201046456692913
21
1.1469708661417322
0
LINE
8
BLACK
6
CONTINUOUS
10
0.0201046456692913
20
1.1469708661417322
11
0.0156542913385827
21
1.1495402755905511
0
LINE
8
BLACK
6
CONTINUOUS
10
0.0156542913385827
20
1.1495402755905511
11
0.0120205905511811
21
1.1531739763779527
0
LINE
8
BLACK
6
CONTINUOUS
10
0.0120205905511811
20
1.1531739763779527
11
0.0094511811023622
21
1.1576243307086613
0
LINE
8
BLACK
6
CONTINUOUS
10
0.0094511811023622
20
1.1576243307086613
11
0.0081211811023622
21
1.1625880708661418
0
LINE
8
BLACK
6
CONTINUOUS
10
0.0081211811023622
20
1.1625880708661418
11
0.0081211811023622
21
1.1651574803149607
0
LINE
8
BLACK
6
CONTINUOUS
10
0.0081211811023622
20
1.1651574803149607
11
0.0079527559055118
21
1.1651574803149607
0
LINE
8
BLACK
6
CONTINUOUS
10
0.0079527559055118
20
1.1651574803149607
11
0.0079527559055118
21
1.1848425196850394
0
LINE
8
BLACK
6
CONTINUOUS
10
0.0079527559055118
20
1.1848425196850394
11
0.0081211811023622
21
1.1848425196850394
0
LINE
8
BLACK
6
CONTINUOUS
10
0.0081211811023622
20
1.1848425196850394
11
0.0081211811023622
21
1.1874119291338583
0
LINE
8
BLACK
6
CONTINUOUS
10
0.0081211811023622
20
1.1874119291338583
11
0.0094511811023622
21
1.1923756692913385
0
LINE
8
BLACK
6
CONTINUOUS
10
0.0094511811023622
20
1.1923756692913385
11
0.0120205905511811
21
1.1968260236220472
0
LINE
8
BLACK
6
CONTINUOUS
10
0.0120205905511811
20
1.1968260236220472
11
0.0156542913385827
21
1.2004597244094488
0
LINE
8
BLACK
6
CONTINUOUS
10
0.0156542913385827
20
1.2004597244094488
11
0.0201046456692913
21
1.2030291338582677
0
LINE
8
BLACK
6
CONTINUOUS
10
0.0201046456692913
20
1.2030291338582677
11
0.0250683858267717
21
1.2043591338582678
0
LINE
8
BLACK
6
CONTINUOUS
10
0.0250683858267717
20
1.2043591338582678
11
0.0276377952755906
21
1.2043591338582678
0
LINE
8
BLACK
6
CONTINUOUS
10
0.0276377952755906
20
1.2043591338582678
11
0.0276377952755906
21
1.2045275590551181
0
LINE
8
BLACK
6
CONTINUOUS
10
0.0276377952755906
20
1.2045275590551181
11
0.0492913385826772
21
1.2045275590551181
0
LINE
8
BLACK
6
CONTINUOUS
10
0.0492913385826772
20
1.2045275590551181
11
0.0492913385826772
21
1.1454724409448818
0
LINE
8
BLACK
6
CONTINUOUS
10
0.098503937007874
20
1.1454724409448818
11
0.0591338582677165
21
1.1454724409448818
0
LINE
8
BLACK
6
CONTINUOUS
10
0.0591338582677165
20
1.1454724409448818
11
0.0591338582677165
21
1.2045275590551181
0
LINE
8
BLACK
6
CONTINUOUS
10
0.0591338582677165
20
1.2045275590551181
11
0.098503937007874
21
1.2045275590551181
0
LINE
8
BLACK
6
CONTINUOUS
10
0.098503937007874
20
1.2045275590551181
11
0.098503937007874
21
1.1454724409448818
0
LINE
8
BLACK
6
CONTINUOUS
10
0.13
20
1.2043591338582678
11
0.1325694094488189
21
1.2043591338582678
0
LINE
8
BLACK
6
CONTINUOUS
10
0.1325694094488189
20
1.2043591338582678
11
0.1375331496062992
21
1.2030291338582677
0
LINE
8
BLACK
6
CONTINUOUS
10
0.1375331496062992
20
1.2030291338582677
11
0.1419835039370079
21
1.2004597244094488
0
LINE
8
BLACK
6
CONTINUOUS
10
0.1419835039370079
20
1.2004597244094488
11
0.1456172047244094
21
1.1968260236220472
0
LINE
8
BLACK
6
CONTINUOUS
10
0.1456172047244094
20
1.1968260236220472
11
0.1481866141732283
21
1.1923756692913385
0
LINE
8
BLACK
6
CONTINUOUS
10
0.1481866141732283
20
1.1923756692913385
11
0.1495166141732283
21
1.1874119291338583
0
LINE
8
BLACK
6
CONTINUOUS
10
0.1495166141732283
20
1.1874119291338583
11
0.1495166141732283
21
1.1848425196850394
0
LINE
8
BLACK
6
CONTINUOUS
10
0.1495166141732283
20
1.1848425196850394
11
0.1496850393700787
21
1.1848425196850394
0
LINE
8
BLACK
6
CONTINUOUS
10
0.1496850393700787
20
1.1848425196850394
11
0.1496850393700787
21
1.1651574803149607
0
LINE
8
BLACK
6
CONTINUOUS
10
0.1496850393700787
20
1.1651574803149607
11
0.1495166141732283
21
1.1651574803149607
0
LINE
8
BLACK
6
CONTINUOUS
10
0.1495166141732283
20
1.1651574803149607
11
0.1495166141732283
21
1.1625880708661418
0
LINE
8
BLACK
6
CONTINUOUS
10
0.1495166141732283
20
1.1625880708661418
11
0.1481866141732283
21
1.1576243307086613
0
LINE
8
BLACK
6
CONTINUOUS
10
0.1481866141732283
20
1.1576243307086613
11
0.1456172047244094
21
1.1531739763779527
0
LINE
8
BLACK
6
CONTINUOUS
10
0.1456172047244094
20
1.1531739763779527
11
0.1419835039370079
21
1.1495402755905511
0
LINE
8
BLACK
6
CONTINUOUS
10
0.1419835039370079
20
1.1495402755905511
11
0.1375331496062992
21
1.1469708661417322
0
LINE
8
BLACK
6
CONTINUOUS
10
0.1375331496062992
20
1.1469708661417322
11
0.1325694094488189
21
1.1456408661417323
0
LINE
8
BLACK
6
CONTINUOUS
10
0.1325694094488189
20
1.1456408661417323
11
0.13
21
1.1456408661417323
0
LINE
8
BLACK
6
CONTINUOUS
10
0.13
20
1.1456408661417323
11
0.13
21
1.1454724409448818
0
LINE
8
BLACK
6
CONTINUOUS
10
0.13
20
1.1454724409448818
11
0.1083464566929134
21
1.1454724409448818
0
LINE
8
BLACK
6
CONTINUOUS
10
0.1083464566929134
20
1.1454724409448818
11
0.1083464566929134
21
1.2045275590551181
0
LINE
8
BLACK
6
CONTINUOUS
10
0.1083464566929134
20
1.2045275590551181
11
0.13
21
1.2045275590551181
0
LINE
8
BLACK
6
CONTINUOUS
10
0.13
20
1.2045275590551181
11
0.13
21
1.2043591338582678
0
LINE
8
BLACK
6
CONTINUOUS
10
-1.1396062992125984
20
1.1830708661417322
11
-1.1986614173228347
21
1.1830708661417322
0
LINE
8
BLACK
6
CONTINUOUS
10
-1.1986614173228347
20
1.1830708661417322
11
-1.1986614173228347
21
1.2224409448818898
0
LINE
8
BLACK
6
CONTINUOUS
10
-1.1986614173228347
20
1.2224409448818898
11
-1.1396062992125984
21
1.2224409448818898
0
LINE
8
BLACK
6
CONTINUOUS
10
-1.1396062992125984
20
1.2224409448818898
11
-1.1396062992125984
21
1.1830708661417322
0
LINE
8
BLACK
6
CONTINUOUS
10
-1.1396062992125984
20
1.2814960629921259
11
-1.1986614173228347
21
1.2814960629921259
0
LINE
8
BLACK
6
CONTINUOUS
10
-1.1986614173228347
20
1.2814960629921259
11
-1.1986614173228347
21
1.3208661417322833
0
LINE
8
BLACK
6
CONTINUOUS
10
-1.1986614173228347
20
1.3208661417322833
11
-1.1396062992125984
21
1.3208661417322833
0
LINE
8
BLACK
6
CONTINUOUS
10
-1.1396062992125984
20
1.3208661417322833
11
-1.1396062992125984
21
1.2814960629921259
0
LINE
8
BLACK
6
CONTINUOUS
10
-1.1396062992125984
20
1.3799212598425197
11
-1.1986614173228347
21
1.3799212598425197
0
LINE
8
BLACK
6
CONTINUOUS
10
-1.1986614173228347
20
1.3799212598425197
11
-1.1986614173228347
21
1.4192913385826771
0
LINE
8
BLACK
6
CONTINUOUS
10
-1.1986614173228347
20
1.4192913385826771
11
-1.1396062992125984
21
1.4192913385826771
0
LINE
8
BLACK
6
CONTINUOUS
10
-1.1396062992125984
20
1.4192913385826771
11
-1.1396062992125984
21
1.3799212598425197
0
LINE
8
BLACK
6
CONTINUOUS
10
-1.1396062992125984
20
1.4783464566929134
11
-1.1986614173228347
21
1.4783464566929134
0
LINE
8
BLACK
6
CONTINUOUS
10
-1.1986614173228347
20
1.4783464566929134
11
-1.1986614173228347
21
1.5177165354330708
0
LINE
8
BLACK
6
CONTINUOUS
10
-1.1986614173228347
20
1.5177165354330708
11
-1.1396062992125984
21
1.5177165354330708
0
LINE
8
BLACK
6
CONTINUOUS
10
-1.1396062992125984
20
1.5177165354330708
11
-1.1396062992125984
21
1.4783464566929134
0
LINE
8
BLACK
6
CONTINUOUS
10
1.6299999999999999
20
1.4949999999999999
11
1.5700000000000001
21
1.4949999999999999
0
LINE
8
BLACK
6
CONTINUOUS
10
1.5700000000000001
20
1.4949999999999999
11
1.5700000000000001
21
1.5549999999999999
0
LINE
8
BLACK
6
CONTINUOUS
10
1.5700000000000001
20
1.5549999999999999
11
1.6299999999999999
21
1.5549999999999999
0
LINE
8
BLACK
6
CONTINUOUS
10
1.6299999999999999
20
1.5549999999999999
11
1.6299999999999999
21
1.4949999999999999
0
LINE
8
BLACK
6
CONTINUOUS
10
1.73
20
1.4949999999999999
11
1.6699999999999999
21
1.4949999999999999
0
LINE
8
BLACK
6
CONTINUOUS
10
1.6699999999999999
20
1.4949999999999999
11
1.6699999999999999
21
1.5549999999999999
0
LINE
8
BLACK
6
CONTINUOUS
10
1.6699999999999999
20
1.5549999999999999
11
1.73
21
1.5549999999999999
0
LINE
8
BLACK
6
CONTINUOUS
10
1.73
20
1.5549999999999999
11
1.73
21
1.4949999999999999
0
LINE
8
BLACK
6
CONTINUOUS
10
-1.1396062992125984
20
1.576771653543307
11
-1.1986614173228347
21
1.576771653543307
0
LINE
8
BLACK
6
CONTINUOUS
10
-1.1986614173228347
20
1.576771653543307
11
-1.1986614173228347
21
1.6161417322834646
0
LINE
8
BLACK
6
CONTINUOUS
10
-1.1986614173228347
20
1.6161417322834646
11
-1.1396062992125984
21
1.6161417322834646
0
LINE
8
BLACK
6
CONTINUOUS
10
-1.1396062992125984
20
1.6161417322834646
11
-1.1396062992125984
21
1.576771653543307
0
LINE
8
BLACK
6
CONTINUOUS
10
1.6299999999999999
20
1.595
11
1.5700000000000001
21
1.595
0
LINE
8
BLACK
6
CONTINUOUS
10
1.5700000000000001
20
1.595
11
1.5700000000000001
21
1.655
0
LINE
8
BLACK
6
CONTINUOUS
10
1.5700000000000001
20
1.655
11
1.6299999999999999
21
1.655
0
LINE
8
BLACK
6
CONTINUOUS
10
1.6299999999999999
20
1.655
11
1.6299999999999999
21
1.595
0
LINE
8
BLACK
6
CONTINUOUS
10
1.73
20
1.595
11
1.6699999999999999
21
1.595
0
LINE
8
BLACK
6
CONTINUOUS
10
1.6699999999999999
20
1.595
11
1.6699999999999999
21
1.655
0
LINE
8
BLACK
6
CONTINUOUS
10
1.6699999999999999
20
1.655
11
1.73
21
1.655
0
LINE
8
BLACK
6
CONTINUOUS
10
1.73
20
1.655
11
1.73
21
1.595
0
LINE
8
BLACK
6
CONTINUOUS
10
-1.1396062992125984
20
1.6724409448818898
11
-1.1986614173228347
21
1.6724409448818898
0
LINE
8
BLACK
6
CONTINUOUS
10
-1.1986614173228347
20
1.6724409448818898
11
-1.1986614173228347
21
1.7118110236220472
0
LINE
8
BLACK
6
CONTINUOUS
10
-1.1986614173228347
20
1.7118110236220472
11
-1.1396062992125984
21
1.7118110236220472
0
LINE
8
BLACK
6
CONTINUOUS
10
-1.1396062992125984
20
1.7118110236220472
11
-1.1396062992125984
21
1.6724409448818898
0
LINE
8
BLACK
6
CONTINUOUS
10
1.6299999999999999
20
1.6950000000000001
11
1.5700000000000001
21
1.6950000000000001
0
LINE
8
BLACK
6
CONTINUOUS
10
1.5700000000000001
20
1.6950000000000001
11
1.5700000000000001
21
1.7549999999999999
0
LINE
8
BLACK
6
CONTINUOUS
10
1.5700000000000001
20
1.7549999999999999
11
1.6299999999999999
21
1.7549999999999999
0
LINE
8
BLACK
6
CONTINUOUS
10
1.6299999999999999
20
1.7549999999999999
11
1.6299999999999999
21
1.6950000000000001
0
LINE
8
BLACK
6
CONTINUOUS
10
1.73
20
1.6950000000000001
11
1.6699999999999999
21
1.6950000000000001
0
LINE
8
BLACK
6
CONTINUOUS
10
1.6699999999999999
20
1.6950000000000001
11
1.6699999999999999
21
1.7549999999999999
0
LINE
8
BLACK
6
CONTINUOUS
10
1.6699999999999999
20
1.7549999999999999
11
1.73
21
1.7549999999999999
0
LINE
8
BLACK
6
CONTINUOUS
10
1.73
20
1.7549999999999999
11
1.73
21
1.6950000000000001
0
LINE
8
BLACK
6
CONTINUOUS
10
-1.1396062992125984
20
1.7393700787401574
11
-1.1986614173228347
21
1.7393700787401574
0
LINE
8
BLACK
6
CONTINUOUS
10
-1.1986614173228347
20
1.7393700787401574
11
-1.1986614173228347
21
1.778740157480315
0
LINE
8
BLACK
6
CONTINUOUS
10
-1.1986614173228347
20
1.778740157480315
11
-1.1396062992125984
21
1.778740157480315
0
LINE
8
BLACK
6
CONTINUOUS
10
-1.1396062992125984
20
1.778740157480315
11
-1.1396062992125984
21
1.7393700787401574
0
LINE
8
BLACK
6
CONTINUOUS
10
-0.9769291338582677
20
1.746496062992126
11
-1.0369291338582678
21
1.746496062992126
0
LINE
8
BLACK
6
CONTINUOUS
10
-1.0369291338582678
20
1.746496062992126
11
-1.0369291338582678
21
1.8064960629921258
0
LINE
8
BLACK
6
CONTINUOUS
10
-1.0369291338582678
20
1.8064960629921258
11
-0.9769291338582677
21
1.8064960629921258
0
LINE
8
BLACK
6
CONTINUOUS
10
-0.9769291338582677
20
1.8064960629921258
11
-0.9769291338582677
21
1.746496062992126
0
LINE
8
BLACK
6
CONTINUOUS
10
-0.8769291338582677
20
1.746496062992126
11
-0.9369291338582677
21
1.746496062992126
0
LINE
8
BLACK
6
CONTINUOUS
10
-0.9369291338582677
20
1.746496062992126
11
-0.9369291338582677
21
1.8064960629921258
0
LINE
8
BLACK
6
CONTINUOUS
10
-0.9369291338582677
20
1.8064960629921258
11
-0.8769291338582677
21
1.8064960629921258
0
LINE
8
BLACK
6
CONTINUOUS
10
-0.8769291338582677
20
1.8064960629921258
11
-0.8769291338582677
21
1.746496062992126
0
LINE
8
BLACK
6
CONTINUOUS
10
-1.1396062992125984
20
1.7964566929133858
11
-1.1986614173228347
21
1.7964566929133858
0
LINE
8
BLACK
6
CONTINUOUS
10
-1.1986614173228347
20
1.7964566929133858
11
-1.1986614173228347
21
1.824015748031496
0
LINE
8
BLACK
6
CONTINUOUS
10
-1.1986614173228347
20
1.824015748031496
11
-1.1396062992125984
21
1.824015748031496
0
LINE
8
BLACK
6
CONTINUOUS
10
-1.1396062992125984
20
1.824015748031496
11
-1.1396062992125984
21
1.7964566929133858
0
LINE
8
BLACK
6
CONTINUOUS
10
-1.2710836220472441
20
1.8477611811023622
11
-1.2661882283464567
21
1.8449348031496062
0
LINE
8
BLACK
6
CONTINUOUS
10
-1.2661882283464567
20
1.8449348031496062
11
-1.2621911811023623
21
1.8409377559055118
0
LINE
8
BLACK
6
CONTINUOUS
10
-1.2621911811023623
20
1.8409377559055118
11
-1.2593648031496063
21
1.8360423622047244
0
LINE
8
BLACK
6
CONTINUOUS
10
-1.2593648031496063
20
1.8360423622047244
11
-1.2579017716535432
21
1.8305822440944881
0
LINE
8
BLACK
6
CONTINUOUS
10
-1.2579017716535432
20
1.8305822440944881
11
-1.2579017716535432
21
1.8249295669291339
0
LINE
8
BLACK
6
CONTINUOUS
10
-1.2579017716535432
20
1.8249295669291339
11
-1.2593648031496063
21
1.8194694488188976
0
LINE
8
BLACK
6
CONTINUOUS
10
-1.2593648031496063
20
1.8194694488188976
11
-1.2621911811023623
21
1.8145740551181102
0
LINE
8
BLACK
6
CONTINUOUS
10
-1.2621911811023623
20
1.8145740551181102
11
-1.2661882283464567
21
1.8105770078740158
0
LINE
8
BLACK
6
CONTINUOUS
10
-1.2661882283464567
20
1.8105770078740158
11
-1.2710836220472441
21
1.8077506299212598
0
LINE
8
BLACK
6
CONTINUOUS
10
-1.2710836220472441
20
1.8077506299212598
11
-1.2765437401574802
21
1.8062875984251967
0
LINE
8
BLACK
6
CONTINUOUS
10
-1.2765437401574802
20
1.8062875984251967
11
-1.2821964173228346
21
1.8062875984251967
0
LINE
8
BLACK
6
CONTINUOUS
10
-1.2821964173228346
20
1.8062875984251967
11
-1.2876565354330709
21
1.8077506299212598
0
LINE
8
BLACK
6
CONTINUOUS
10
-1.2876565354330709
20
1.8077506299212598
11
-1.2925519291338583
21
1.8105770078740158
0
LINE
8
BLACK
6
CONTINUOUS
10
-1.2925519291338583
20
1.8105770078740158
11
-1.2965489763779527
21
1.8145740551181102
0
LINE
8
BLACK
6
CONTINUOUS
10
-1.2965489763779527
20
1.8145740551181102
11
-1.2993753543307087
21
1.8194694488188976
0
LINE
8
BLACK
6
CONTINUOUS
10
-1.2993753543307087
20
1.8194694488188976
11
-1.3008383858267716
21
1.8249295669291339
0
LINE
8
BLACK
6
CONTINUOUS
10
-1.3008383858267716
20
1.8249295669291339
11
-1.3008383858267716
21
1.8305822440944881
0
LINE
8
BLACK
6
CONTINUOUS
10
-1.3008383858267716
20
1.8305822440944881
11
-1.2993753543307087
21
1.8360423622047244
0
LINE
8
BLACK
6
CONTINUOUS
10
-1.2993753543307087
20
1.8360423622047244
11
-1.2965489763779527
21
1.8409377559055118
0
LINE
8
BLACK
6
CONTINUOUS
10
-1.2965489763779527
20
1.8409377559055118
11
-1.2925519291338583
21
1.8449348031496062
0
LINE
8
BLACK
6
CONTINUOUS
10
-1.2925519291338583
20
1.8449348031496062
11
-1.2876565354330709
21
1.8477611811023622
0
LINE
8
BLACK
6
CONTINUOUS
10
-1.2876565354330709
20
1.8477611811023622
11
-1.2821964173228346
21
1.8492242125984251
0
LINE
8
BLACK
6
CONTINUOUS
10
-1.2821964173228346
20
1.8492242125984251
11
-1.2765437401574802
21
1.8492242125984251
0
LINE
8
BLACK
6
CONTINUOUS
10
-1.2765437401574802
20
1.8492242125984251
11
-1.2710836220472441
21
1.8477611811023622
0
LINE
8
BLACK
6
CONTINUOUS
10
-1.1396062992125984
20
1.8437007874015747
11
-1.1986614173228347
21
1.8437007874015747
0
LINE
8
BLACK
6
CONTINUOUS
10
-1.1986614173228347
20
1.8437007874015747
11
-1.1986614173228347
21
1.8712598425196849
0
LINE
8
BLACK
6
CONTINUOUS
10
-1.1986614173228347
20
1.8712598425196849
11
-1.1396062992125984
21
1.8712598425196849
0
LINE
8
BLACK
6
CONTINUOUS
10
-1.1396062992125984
20
1.8712598425196849
11
-1.1396062992125984
21
1.8437007874015747
0
LINE
8
BLACK
6
CONTINUOUS
10
-2.0313385826771655
20
1.8828740157480315
11
-2.1415748031496062
21
1.8828740157480315
0
LINE
8
BLACK
6
CONTINUOUS
10
-2.1415748031496062
20
1.8828740157480315
11
-2.1415748031496062
21
1.9419291338582676
0
LINE
8
BLACK
6
CONTINUOUS
10
-2.1415748031496062
20
1.9419291338582676
11
-2.0313385826771655
21
1.9419291338582676
0
LINE
8
BLACK
6
CONTINUOUS
10
-2.0313385826771655
20
1.9419291338582676
11
-2.0313385826771655
21
1.8828740157480315
0
LINE
8
BLACK
6
CONTINUOUS
10
-1.1848818897637794
20
1.8828740157480315
11
-1.2951181102362204
21
1.8828740157480315
0
LINE
8
BLACK
6
CONTINUOUS
10
-1.2951181102362204
20
1.8828740157480315
11
-1.2951181102362204
21
1.9419291338582676
0
LINE
8
BLACK
6
CONTINUOUS
10
-1.2951181102362204
20
1.9419291338582676
11
-1.1848818897637794
21
1.9419291338582676
0
LINE
8
BLACK
6
CONTINUOUS
10
-1.1848818897637794
20
1.9419291338582676
11
-1.1848818897637794
21
1.8828740157480315
0
LINE
8
BLACK
6
CONTINUOUS
10
1.6299999999999999
20
1.915
11
1.5700000000000001
21
1.915
0
LINE
8
BLACK
6
CONTINUOUS
10
1.5700000000000001
20
1.915
11
1.5700000000000001
21
1.9749999999999999
0
LINE
8
BLACK
6
CONTINUOUS
10
1.5700000000000001
20
1.9749999999999999
11
1.6299999999999999
21
1.9749999999999999
0
LINE
8
BLACK
6
CONTINUOUS
10
1.6299999999999999
20
1.9749999999999999
11
1.6299999999999999
21
1.915
0
LINE
8
BLACK
6
CONTINUOUS
10
1.73
20
1.915
11
1.6699999999999999
21
1.915
0
LINE
8
BLACK
6
CONTINUOUS
10
1.6699999999999999
20
1.915
11
1.6699999999999999
21
1.9749999999999999
0
LINE
8
BLACK
6
CONTINUOUS
10
1.6699999999999999
20
1.9749999999999999
11
1.73
21
1.9749999999999999
0
LINE
8
BLACK
6
CONTINUOUS
10
1.73
20
1.9749999999999999
11
1.73
21
1.915
0
LINE
8
BLACK
6
CONTINUOUS
10
0.36
20
1.9749999999999999
11
0.3
21
1.9749999999999999
0
LINE
8
BLACK
6
CONTINUOUS
10
0.3
20
1.9749999999999999
11
0.3
21
2.0350000000000001
0
LINE
8
BLACK
6
CONTINUOUS
10
0.3
20
2.0350000000000001
11
0.36
21
2.0350000000000001
0
LINE
8
BLACK
6
CONTINUOUS
10
0.36
20
2.0350000000000001
11
0.36
21
1.9749999999999999
0
LINE
8
BLACK
6
CONTINUOUS
10
0.46
20
1.9749999999999999
11
0.4
21
1.9749999999999999
0
LINE
8
BLACK
6
CONTINUOUS
10
0.4
20
1.9749999999999999
11
0.4
21
2.0350000000000001
0
LINE
8
BLACK
6
CONTINUOUS
10
0.4
20
2.0350000000000001
11
0.46
21
2.0350000000000001
0
LINE
8
BLACK
6
CONTINUOUS
10
0.46
20
2.0350000000000001
11
0.46
21
1.9749999999999999
0
LINE
8
BLACK
6
CONTINUOUS
10
1.6299999999999999
20
2.0150000000000001
11
1.5700000000000001
21
2.0150000000000001
0
LINE
8
BLACK
6
CONTINUOUS
10
1.5700000000000001
20
2.0150000000000001
11
1.5700000000000001
21
2.0749999999999997
0
LINE
8
BLACK
6
CONTINUOUS
10
1.5700000000000001
20
2.0749999999999997
11
1.6299999999999999
21
2.0749999999999997
0
LINE
8
BLACK
6
CONTINUOUS
10
1.6299999999999999
20
2.0749999999999997
11
1.6299999999999999
21
2.0150000000000001
0
LINE
8
BLACK
6
CONTINUOUS
10
1.73
20
2.0150000000000001
11
1.6699999999999999
21
2.0150000000000001
0
LINE
8
BLACK
6
CONTINUOUS
10
1.6699999999999999
20
2.0150000000000001
11
1.6699999999999999
21
2.0749999999999997
0
LINE
8
BLACK
6
CONTINUOUS
10
1.6699999999999999
20
2.0749999999999997
11
1.73
21
2.0749999999999997
0
LINE
8
BLACK
6
CONTINUOUS
10
1.73
20
2.0749999999999997
11
1.73
21
2.0150000000000001
0
LINE
8
BLACK
6
CONTINUOUS
10
-2.0775924803149608
20
2.156681062992126
11
-2.0696605118110236
21
2.1541038188976378
0
LINE
8
BLACK
6
CONTINUOUS
10
-2.0696605118110236
20
2.1541038188976378
11
-2.0622294094488187
21
2.1503174803149605
0
LINE
8
BLACK
6
CONTINUOUS
10
-2.0622294094488187
20
2.1503174803149605
11
-2.0554820866141732
21
2.1454152755905511
0
LINE
8
BLACK
6
CONTINUOUS
10
-2.0554820866141732
20
2.1454152755905511
11
-2.0495847244094487
21
2.1395179133858266
0
LINE
8
BLACK
6
CONTINUOUS
10
-2.0495847244094487
20
2.1395179133858266
11
-2.0446825196850393
21
2.1327705905511811
0
LINE
8
BLACK
6
CONTINUOUS
10
-2.0446825196850393
20
2.1327705905511811
11
-2.040896181102362
21
2.1253394881889762
0
LINE
8
BLACK
6
CONTINUOUS
10
-2.040896181102362
20
2.1253394881889762
11
-2.0383189370078738
21
2.1174075196850395
0
LINE
8
BLACK
6
CONTINUOUS
10
-2.0383189370078738
20
2.1174075196850395
11
-2.0370142519685039
21
2.1091700787401573
0
LINE
8
BLACK
6
CONTINUOUS
10
-2.0370142519685039
20
2.1091700787401573
11
-2.0370142519685039
21
2.1008299212598427
0
LINE
8
BLACK
6
CONTINUOUS
10
-2.0370142519685039
20
2.1008299212598427
11
-2.0383189370078738
21
2.0925924803149605
0
LINE
8
BLACK
6
CONTINUOUS
10
-2.0383189370078738
20
2.0925924803149605
11
-2.040896181102362
21
2.0846605118110237
0
LINE
8
BLACK
6
CONTINUOUS
10
-2.040896181102362
20
2.0846605118110237
11
-2.0446825196850393
21
2.0772294094488188
0
LINE
8
BLACK
6
CONTINUOUS
10
-2.0446825196850393
20
2.0772294094488188
11
-2.0495847244094487
21
2.0704820866141733
0
LINE
8
BLACK
6
CONTINUOUS
10
-2.0495847244094487
20
2.0704820866141733
11
-2.0554820866141732
21
2.0645847244094488
0
LINE
8
BLACK
6
CONTINUOUS
10
-2.0554820866141732
20
2.0645847244094488
11
-2.0622294094488187
21
2.0596825196850395
0
LINE
8
BLACK
6
CONTINUOUS
10
-2.0622294094488187
20
2.0596825196850395
11
-2.0696605118110236
21
2.0558961811023622
0
LINE
8
BLACK
6
CONTINUOUS
10
-2.0696605118110236
20
2.0558961811023622
11
-2.0775924803149608
21
2.0533189370078739
0
LINE
8
BLACK
6
CONTINUOUS
10
-2.0775924803149608
20
2.0533189370078739
11
-2.0858299212598426
21
2.0520142519685041
0
LINE
8
BLACK
6
CONTINUOUS
10
-2.0858299212598426
20
2.0520142519685041
11
-2.0941700787401576
21
2.0520142519685041
0
LINE
8
BLACK
6
CONTINUOUS
10
-2.0941700787401576
20
2.0520142519685041
11
-2.1024075196850394
21
2.0533189370078739
0
LINE
8
BLACK
6
CONTINUOUS
10
-2.1024075196850394
20
2.0533189370078739
11
-2.1103394881889765
21
2.0558961811023622
0
LINE
8
BLACK
6
CONTINUOUS
10
-2.1103394881889765
20
2.0558961811023622
11
-2.117770590551181
21
2.0596825196850395
0
LINE
8
BLACK
6
CONTINUOUS
10
-2.117770590551181
20
2.0596825196850395
11
-2.1245179133858265
21
2.0645847244094488
0
LINE
8
BLACK
6
CONTINUOUS
10
-2.1245179133858265
20
2.0645847244094488
11
-2.130415275590551
21
2.0704820866141733
0
LINE
8
BLACK
6
CONTINUOUS
10
-2.130415275590551
20
2.0704820866141733
11
-2.1353174803149604
21
2.0772294094488188
0
LINE
8
BLACK
6
CONTINUOUS
10
-2.1353174803149604
20
2.0772294094488188
11
-2.1391038188976377
21
2.0846605118110237
0
LINE
8
BLACK
6
CONTINUOUS
10
-2.1391038188976377
20
2.0846605118110237
11
-2.1416810629921259
21
2.0925924803149605
0
LINE
8
BLACK
6
CONTINUOUS
10
-2.1416810629921259
20
2.0925924803149605
11
-2.1429857480314962
21
2.1008299212598427
0
LINE
8
BLACK
6
CONTINUOUS
10
-2.1429857480314962
20
2.1008299212598427
11
-2.1429857480314962
21
2.1091700787401573
0
LINE
8
BLACK
6
CONTINUOUS
10
-2.1429857480314962
20
2.1091700787401573
11
-2.1416810629921259
21
2.1174075196850395
0
LINE
8
BLACK
6
CONTINUOUS
10
-2.1416810629921259
20
2.1174075196850395
11
-2.1391038188976377
21
2.1253394881889762
0
LINE
8
BLACK
6
CONTINUOUS
10
-2.1391038188976377
20
2.1253394881889762
11
-2.1353174803149604
21
2.1327705905511811
0
LINE
8
BLACK
6
CONTINUOUS
10
-2.1353174803149604
20
2.1327705905511811
11
-2.130415275590551
21
2.1395179133858266
0
LINE
8
BLACK
6
CONTINUOUS
10
-2.130415275590551
20
2.1395179133858266
11
-2.1245179133858265
21
2.1454152755905511
0
LINE
8
BLACK
6
CONTINUOUS
10
-2.1245179133858265
20
2.1454152755905511
11
-2.117770590551181
21
2.1503174803149605
0
LINE
8
BLACK
6
CONTINUOUS
10
-2.117770590551181
20
2.1503174803149605
11
-2.1103394881889765
21
2.1541038188976378
0
LINE
8
BLACK
6
CONTINUOUS
10
-2.1103394881889765
20
2.1541038188976378
11
-2.1024075196850394
21
2.156681062992126
0
LINE
8
BLACK
6
CONTINUOUS
10
-2.1024075196850394
20
2.156681062992126
11
-2.0941700787401576
21
2.1579857480314959
0
LINE
8
BLACK
6
CONTINUOUS
10
-2.0941700787401576
20
2.1579857480314959
11
-2.0858299212598426
21
2.1579857480314959
0
LINE
8
BLACK
6
CONTINUOUS
10
-2.0858299212598426
20
2.1579857480314959
11
-2.0775924803149608
21
2.156681062992126
0
LINE
8
BLACK
6
CONTINUOUS
10
-1.8775924803149606
20
2.156681062992126
11
-1.8696605118110237
21
2.1541038188976378
0
LINE
8
BLACK
6
CONTINUOUS
10
-1.8696605118110237
20
2.1541038188976378
11
-1.8622294094488188
21
2.1503174803149605
0
LINE
8
BLACK
6
CONTINUOUS
10
-1.8622294094488188
20
2.1503174803149605
11
-1.8554820866141732
21
2.1454152755905511
0
LINE
8
BLACK
6
CONTINUOUS
10
-1.8554820866141732
20
2.1454152755905511
11
-1.8495847244094488
21
2.1395179133858266
0
LINE
8
BLACK
6
CONTINUOUS
10
-1.8495847244094488
20
2.1395179133858266
11
-1.8446825196850394
21
2.1327705905511811
0
LINE
8
BLACK
6
CONTINUOUS
10
-1.8446825196850394
20
2.1327705905511811
11
-1.8408961811023621
21
2.1253394881889762
0
LINE
8
BLACK
6
CONTINUOUS
10
-1.8408961811023621
20
2.1253394881889762
11
-1.8383189370078741
21
2.1174075196850395
0
LINE
8
BLACK
6
CONTINUOUS
10
-1.8383189370078741
20
2.1174075196850395
11
-1.837014251968504
21
2.1091700787401573
0
LINE
8
BLACK
6
CONTINUOUS
10
-1.837014251968504
20
2.1091700787401573
11
-1.837014251968504
21
2.1008299212598427
0
LINE
8
BLACK
6
CONTINUOUS
10
-1.837014251968504
20
2.1008299212598427
11
-1.8383189370078741
21
2.0925924803149605
0
LINE
8
BLACK
6
CONTINUOUS
10
-1.8383189370078741
20
2.0925924803149605
11
-1.8408961811023621
21
2.0846605118110237
0
LINE
8
BLACK
6
CONTINUOUS
10
-1.8408961811023621
20
2.0846605118110237
11
-1.8446825196850394
21
2.0772294094488188
0
LINE
8
BLACK
6
CONTINUOUS
10
-1.8446825196850394
20
2.0772294094488188
11
-1.8495847244094488
21
2.0704820866141733
0
LINE
8
BLACK
6
CONTINUOUS
10
-1.8495847244094488
20
2.0704820866141733
11
-1.8554820866141732
21
2.0645847244094488
0
LINE
8
BLACK
6
CONTINUOUS
10
-1.8554820866141732
20
2.0645847244094488
11
-1.8622294094488188
21
2.0596825196850395
0
LINE
8
BLACK
6
CONTINUOUS
10
-1.8622294094488188
20
2.0596825196850395
11
-1.8696605118110237
21
2.0558961811023622
0
LINE
8
BLACK
6
CONTINUOUS
10
-1.8696605118110237
20
2.0558961811023622
11
-1.8775924803149606
21
2.0533189370078739
0
LINE
8
BLACK
6
CONTINUOUS
10
-1.8775924803149606
20
2.0533189370078739
11
-1.8858299212598424
21
2.0520142519685041
0
LINE
8
BLACK
6
CONTINUOUS
10
-1.8858299212598424
20
2.0520142519685041
11
-1.8941700787401574
21
2.0520142519685041
0
LINE
8
BLACK
6
CONTINUOUS
10
-1.8941700787401574
20
2.0520142519685041
11
-1.9024075196850394
21
2.0533189370078739
0
LINE
8
BLACK
6
CONTINUOUS
10
-1.9024075196850394
20
2.0533189370078739
11
-1.9103394881889764
21
2.0558961811023622
0
LINE
8
BLACK
6
CONTINUOUS
10
-1.9103394881889764
20
2.0558961811023622
11
-1.917770590551181
21
2.0596825196850395
0
LINE
8
BLACK
6
CONTINUOUS
10
-1.917770590551181
20
2.0596825196850395
11
-1.9245179133858268
21
2.0645847244094488
0
LINE
8
BLACK
6
CONTINUOUS
10
-1.9245179133858268
20
2.0645847244094488
11
-1.930415275590551
21
2.0704820866141733
0
LINE
8
BLACK
6
CONTINUOUS
10
-1.930415275590551
20
2.0704820866141733
11
-1.9353174803149606
21
2.0772294094488188
0
LINE
8
BLACK
6
CONTINUOUS
10
-1.9353174803149606
20
2.0772294094488188
11
-1.9391038188976377
21
2.0846605118110237
0
LINE
8
BLACK
6
CONTINUOUS
10
-1.9391038188976377
20
2.0846605118110237
11
-1.941681062992126
21
2.0925924803149605
0
LINE
8
BLACK
6
CONTINUOUS
10
-1.941681062992126
20
2.0925924803149605
11
-1.942985748031496
21
2.1008299212598427
0
LINE
8
BLACK
6
CONTINUOUS
10
-1.942985748031496
20
2.1008299212598427
11
-1.942985748031496
21
2.1091700787401573
0
LINE
8
BLACK
6
CONTINUOUS
10
-1.942985748031496
20
2.1091700787401573
11
-1.941681062992126
21
2.1174075196850395
0
LINE
8
BLACK
6
CONTINUOUS
10
-1.941681062992126
20
2.1174075196850395
11
-1.9391038188976377
21
2.1253394881889762
0
LINE
8
BLACK
6
CONTINUOUS
10
-1.9391038188976377
20
2.1253394881889762
11
-1.9353174803149606
21
2.1327705905511811
0
LINE
8
BLACK
6
CONTINUOUS
10
-1.9353174803149606
20
2.1327705905511811
11
-1.930415275590551
21
2.1395179133858266
0
LINE
8
BLACK
6
CONTINUOUS
10
-1.930415275590551
20
2.1395179133858266
11
-1.9245179133858268
21
2.1454152755905511
0
LINE
8
BLACK
6
CONTINUOUS
10
-1.9245179133858268
20
2.1454152755905511
11
-1.917770590551181
21
2.1503174803149605
0
LINE
8
BLACK
6
CONTINUOUS
10
-1.917770590551181
20
2.1503174803149605
11
-1.9103394881889764
21
2.1541038188976378
0
LINE
8
BLACK
6
CONTINUOUS
10
-1.9103394881889764
20
2.1541038188976378
11
-1.9024075196850394
21
2.156681062992126
0
LINE
8
BLACK
6
CONTINUOUS
10
-1.9024075196850394
20
2.156681062992126
11
-1.8941700787401574
21
2.1579857480314959
0
LINE
8
BLACK
6
CONTINUOUS
10
-1.8941700787401574
20
2.1579857480314959
11
-1.8858299212598424
21
2.1579857480314959
0
LINE
8
BLACK
6
CONTINUOUS
10
-1.8858299212598424
20
2.1579857480314959
11
-1.8775924803149606
21
2.156681062992126
0
LINE
8
BLACK
6
CONTINUOUS
10
1.6299999999999999
20
2.1149999999999998
11
1.5700000000000001
21
2.1149999999999998
0
LINE
8
BLACK
6
CONTINUOUS
10
1.5700000000000001
20
2.1149999999999998
11
1.5700000000000001
21
2.1749999999999998
0
LINE
8
BLACK
6
CONTINUOUS
10
1.5700000000000001
20
2.1749999999999998
11
1.6299999999999999
21
2.1749999999999998
0
LINE
8
BLACK
6
CONTINUOUS
10
1.6299999999999999
20
2.1749999999999998
11
1.6299999999999999
21
2.1149999999999998
0
LINE
8
BLACK
6
CONTINUOUS
10
1.73
20
2.1149999999999998
11
1.6699999999999999
21
2.1149999999999998
0
LINE
8
BLACK
6
CONTINUOUS
10
1.6699999999999999
20
2.1149999999999998
11
1.6699999999999999
21
2.1749999999999998
0
LINE
8
BLACK
6
CONTINUOUS
10
1.6699999999999999
20
2.1749999999999998
11
1.73
21
2.1749999999999998
0
LINE
8
BLACK
6
CONTINUOUS
10
1.73
20
2.1749999999999998
11
1.73
21
2.1149999999999998
0
LINE
8
BLACK
6
CONTINUOUS
10
-1.9785115354330709
20
2.2528528346456693
11
-1.9711671653543306
21
2.2504664960629919
0
LINE
8
BLACK
6
CONTINUOUS
10
-1.9711671653543306
20
2.2504664960629919
11
-1.964286496062992
21
2.2469606299212597
0
LINE
8
BLACK
6
CONTINUOUS
10
-1.964286496062992
20
2.2469606299212597
11
-1.9580389763779527
21
2.242421535433071
0
LINE
8
BLACK
6
CONTINUOUS
10
-1.9580389763779527
20
2.242421535433071
11
-1.9525784645669291
21
2.2369610236220474
0
LINE
8
BLACK
6
CONTINUOUS
10
-1.9525784645669291
20
2.2369610236220474
11
-1.9480393700787402
21
2.2307135039370078
0
LINE
8
BLACK
6
CONTINUOUS
10
-1.9480393700787402
20
2.2307135039370078
11
-1.9445335039370077
21
2.2238328346456693
0
LINE
8
BLACK
6
CONTINUOUS
10
-1.9445335039370077
20
2.2238328346456693
11
-1.9421471653543307
21
2.2164884645669289
0
LINE
8
BLACK
6
CONTINUOUS
10
-1.9421471653543307
20
2.2164884645669289
11
-1.940939094488189
21
2.2088611811023622
0
LINE
8
BLACK
6
CONTINUOUS
10
-1.940939094488189
20
2.2088611811023622
11
-1.940939094488189
21
2.201138818897638
0
LINE
8
BLACK
6
CONTINUOUS
10
-1.940939094488189
20
2.201138818897638
11
-1.9421471653543307
21
2.1935115354330708
0
LINE
8
BLACK
6
CONTINUOUS
10
-1.9421471653543307
20
2.1935115354330708
11
-1.9445335039370077
21
2.1861671653543309
0
LINE
8
BLACK
6
CONTINUOUS
10
-1.9445335039370077
20
2.1861671653543309
11
-1.9480393700787402
21
2.1792864960629923
0
LINE
8
BLACK
6
CONTINUOUS
10
-1.9480393700787402
20
2.1792864960629923
11
-1.9525784645669291
21
2.1730389763779527
0
LINE
8
BLACK
6
CONTINUOUS
10
-1.9525784645669291
20
2.1730389763779527
11
-1.9580389763779527
21
2.1675784645669292
0
LINE
8
BLACK
6
CONTINUOUS
10
-1.9580389763779527
20
2.1675784645669292
11
-1.964286496062992
21
2.16303937007874
0
LINE
8
BLACK
6
CONTINUOUS
10
-1.964286496062992
20
2.16303937007874
11
-1.9711671653543306
21
2.1595335039370078
0
LINE
8
BLACK
6
CONTINUOUS
10
-1.9711671653543306
20
2.1595335039370078
11
-1.9785115354330709
21
2.1571471653543308
0
LINE
8
BLACK
6
CONTINUOUS
10
-1.9785115354330709
20
2.1571471653543308
11
-1.9861388188976377
21
2.1559390944881889
0
LINE
8
BLACK
6
CONTINUOUS
10
-1.9861388188976377
20
2.1559390944881889
11
-1.9938611811023621
21
2.1559390944881889
0
LINE
8
BLACK
6
CONTINUOUS
10
-1.9938611811023621
20
2.1559390944881889
11
-2.0014884645669291
21
2.1571471653543308
0
LINE
8
BLACK
6
CONTINUOUS
10
-2.0014884645669291
20
2.1571471653543308
11
-2.0088328346456694
21
2.1595335039370078
0
LINE
8
BLACK
6
CONTINUOUS
10
-2.0088328346456694
20
2.1595335039370078
11
-2.015713503937008
21
2.16303937007874
0
LINE
8
BLACK
6
CONTINUOUS
10
-2.015713503937008
20
2.16303937007874
11
-2.0219610236220471
21
2.1675784645669292
0
LINE
8
BLACK
6
CONTINUOUS
10
-2.0219610236220471
20
2.1675784645669292
11
-2.0274215354330707
21
2.1730389763779527
0
LINE
8
BLACK
6
CONTINUOUS
10
-2.0274215354330707
20
2.1730389763779527
11
-2.0319606299212598
21
2.1792864960629923
0
LINE
8
BLACK
6
CONTINUOUS
10
-2.0319606299212598
20
2.1792864960629923
11
-2.035466496062992
21
2.1861671653543309
0
LINE
8
BLACK
6
CONTINUOUS
10
-2.035466496062992
20
2.1861671653543309
11
-2.0378528346456695
21
2.1935115354330708
0
LINE
8
BLACK
6
CONTINUOUS
10
-2.0378528346456695
20
2.1935115354330708
11
-2.039060905511811
21
2.201138818897638
0
LINE
8
BLACK
6
CONTINUOUS
10
-2.039060905511811
20
2.201138818897638
11
-2.039060905511811
21
2.2088611811023622
0
LINE
8
BLACK
6
CONTINUOUS
10
-2.039060905511811
20
2.2088611811023622
11
-2.0378528346456695
21
2.2164884645669289
0
LINE
8
BLACK
6
CONTINUOUS
10
-2.0378528346456695
20
2.2164884645669289
11
-2.035466496062992
21
2.2238328346456693
0
LINE
8
BLACK
6
CONTINUOUS
10
-2.035466496062992
20
2.2238328346456693
11
-2.0319606299212598
21
2.2307135039370078
0
LINE
8
BLACK
6
CONTINUOUS
10
-2.0319606299212598
20
2.2307135039370078
11
-2.0274215354330707
21
2.2369610236220474
0
LINE
8
BLACK
6
CONTINUOUS
10
-2.0274215354330707
20
2.2369610236220474
11
-2.0219610236220471
21
2.242421535433071
0
LINE
8
BLACK
6
CONTINUOUS
10
-2.0219610236220471
20
2.242421535433071
11
-2.015713503937008
21
2.2469606299212597
0
LINE
8
BLACK
6
CONTINUOUS
10
-2.015713503937008
20
2.2469606299212597
11
-2.0088328346456694
21
2.2504664960629919
0
LINE
8
BLACK
6
CONTINUOUS
10
-2.0088328346456694
20
2.2504664960629919
11
-2.0014884645669291
21
2.2528528346456693
0
LINE
8
BLACK
6
CONTINUOUS
10
-2.0014884645669291
20
2.2528528346456693
11
-1.9938611811023621
21
2.2540609055118108
0
LINE
8
BLACK
6
CONTINUOUS
10
-1.9938611811023621
20
2.2540609055118108
11
-1.9861388188976377
21
2.2540609055118108
0
LINE
8
BLACK
6
CONTINUOUS
10
-1.9861388188976377
20
2.2540609055118108
11
-1.9785115354330709
21
2.2528528346456693
0
LINE
8
BLACK
6
CONTINUOUS
10
-2.0775924803149608
20
2.3566810629921258
11
-2.0696605118110236
21
2.3541038188976375
0
LINE
8
BLACK
6
CONTINUOUS
10
-2.0696605118110236
20
2.3541038188976375
11
-2.0622294094488187
21
2.3503174803149607
0
LINE
8
BLACK
6
CONTINUOUS
10
-2.0622294094488187
20
2.3503174803149607
11
-2.0554820866141732
21
2.3454152755905513
0
LINE
8
BLACK
6
CONTINUOUS
10
-2.0554820866141732
20
2.3454152755905513
11
-2.0495847244094487
21
2.3395179133858268
0
LINE
8
BLACK
6
CONTINUOUS
10
-2.0495847244094487
20
2.3395179133858268
11
-2.0446825196850393
21
2.3327705905511809
0
LINE
8
BLACK
6
CONTINUOUS
10
-2.0446825196850393
20
2.3327705905511809
11
-2.040896181102362
21
2.3253394881889764
0
LINE
8
BLACK
6
CONTINUOUS
10
-2.040896181102362
20
2.3253394881889764
11
-2.0383189370078738
21
2.3174075196850392
0
LINE
8
BLACK
6
CONTINUOUS
10
-2.0383189370078738
20
2.3174075196850392
11
-2.0370142519685039
21
2.3091700787401575
0
LINE
8
BLACK
6
CONTINUOUS
10
-2.0370142519685039
20
2.3091700787401575
11
-2.0370142519685039
21
2.3008299212598424
0
LINE
8
BLACK
6
CONTINUOUS
10
-2.0370142519685039
20
2.3008299212598424
11
-2.0383189370078738
21
2.2925924803149607
0
LINE
8
BLACK
6
CONTINUOUS
10
-2.0383189370078738
20
2.2925924803149607
11
-2.040896181102362
21
2.2846605118110235
0
LINE
8
BLACK
6
CONTINUOUS
10
-2.040896181102362
20
2.2846605118110235
11
-2.0446825196850393
21
2.277229409448819
0
LINE
8
BLACK
6
CONTINUOUS
10
-2.0446825196850393
20
2.277229409448819
11
-2.0495847244094487
21
2.2704820866141731
0
LINE
8
BLACK
6
CONTINUOUS
10
-2.0495847244094487
20
2.2704820866141731
11
-2.0554820866141732
21
2.2645847244094486
0
LINE
8
BLACK
6
CONTINUOUS
10
-2.0554820866141732
20
2.2645847244094486
11
-2.0622294094488187
21
2.2596825196850392
0
LINE
8
BLACK
6
CONTINUOUS
10
-2.0622294094488187
20
2.2596825196850392
11
-2.0696605118110236
21
2.2558961811023623
0
LINE
8
BLACK
6
CONTINUOUS
10
-2.0696605118110236
20
2.2558961811023623
11
-2.0775924803149608
21
2.2533189370078741
0
LINE
8
BLACK
6
CONTINUOUS
10
-2.0775924803149608
20
2.2533189370078741
11
-2.0858299212598426
21
2.2520142519685038
0
LINE
8
BLACK
6
CONTINUOUS
10
-2.0858299212598426
20
2.2520142519685038
11
-2.0941700787401576
21
2.2520142519685038
0
LINE
8
BLACK
6
CONTINUOUS
10
-2.0941700787401576
20
2.2520142519685038
11
-2.1024075196850394
21
2.2533189370078741
0
LINE
8
BLACK
6
CONTINUOUS
10
-2.1024075196850394
20
2.2533189370078741
11
-2.1103394881889765
21
2.2558961811023623
0
LINE
8
BLACK
6
CONTINUOUS
10
-2.1103394881889765
20
2.2558961811023623
11
-2.117770590551181
21
2.2596825196850392
0
LINE
8
BLACK
6
CONTINUOUS
10
-2.117770590551181
20
2.2596825196850392
11
-2.1245179133858265
21
2.2645847244094486
0
LINE
8
BLACK
6
CONTINUOUS
10
-2.1245179133858265
20
2.2645847244094486
11
-2.130415275590551
21
2.2704820866141731
0
LINE
8
BLACK
6
CONTINUOUS
10
-2.130415275590551
20
2.2704820866141731
11
-2.1353174803149604
21
2.277229409448819
0
LINE
8
BLACK
6
CONTINUOUS
10
-2.1353174803149604
20
2.277229409448819
11
-2.1391038188976377
21
2.2846605118110235
0
LINE
8
BLACK
6
CONTINUOUS
10
-2.1391038188976377
20
2.2846605118110235
11
-2.1416810629921259
21
2.2925924803149607
0
LINE
8
BLACK
6
CONTINUOUS
10
-2.1416810629921259
20
2.2925924803149607
11
-2.1429857480314962
21
2.3008299212598424
0
LINE
8
BLACK
6
CONTINUOUS
10
-2.1429857480314962
20
2.3008299212598424
11
-2.1429857480314962
21
2.3091700787401575
0
LINE
8
BLACK
6
CONTINUOUS
10
-2.1429857480314962
20
2.3091700787401575
11
-2.1416810629921259
21
2.3174075196850392
0
LINE
8
BLACK
6
CONTINUOUS
10
-2.1416810629921259
20
2.3174075196850392
11
-2.1391038188976377
21
2.3253394881889764
0
LINE
8
BLACK
6
CONTINUOUS
10
-2.1391038188976377
20
2.3253394881889764
11
-2.1353174803149604
21
2.3327705905511809
0
LINE
8
BLACK
6
CONTINUOUS
10
-2.1353174803149604
20
2.3327705905511809
11
-2.130415275590551
21
2.3395179133858268
0
LINE
8
BLACK
6
CONTINUOUS
10
-2.130415275590551
20
2.3395179133858268
11
-2.1245179133858265
21
2.3454152755905513
0
LINE
8
BLACK
6
CONTINUOUS
10
-2.1245179133858265
20
2.3454152755905513
11
-2.117770590551181
21
2.3503174803149607
0
LINE
8
BLACK
6
CONTINUOUS
10
-2.117770590551181
20
2.3503174803149607
11
-2.1103394881889765
21
2.3541038188976375
0
LINE
8
BLACK
6
CONTINUOUS
10
-2.1103394881889765
20
2.3541038188976375
11
-2.1024075196850394
21
2.3566810629921258
0
LINE
8
BLACK
6
CONTINUOUS
10
-2.1024075196850394
20
2.3566810629921258
11
-2.0941700787401576
21
2.3579857480314961
0
LINE
8
BLACK
6
CONTINUOUS
10
-2.0941700787401576
20
2.3579857480314961
11
-2.0858299212598426
21
2.3579857480314961
0
LINE
8
BLACK
6
CONTINUOUS
10
-2.0858299212598426
20
2.3579857480314961
11
-2.0775924803149608
21
2.3566810629921258
0
LINE
8
BLACK
6
CONTINUOUS
10
-1.8775924803149606
20
2.3566810629921258
11
-1.8696605118110237
21
2.3541038188976375
0
LINE
8
BLACK
6
CONTINUOUS
10
-1.8696605118110237
20
2.3541038188976375
11
-1.8622294094488188
21
2.3503174803149607
0
LINE
8
BLACK
6
CONTINUOUS
10
-1.8622294094488188
20
2.3503174803149607
11
-1.8554820866141732
21
2.3454152755905513
0
LINE
8
BLACK
6
CONTINUOUS
10
-1.8554820866141732
20
2.3454152755905513
11
-1.8495847244094488
21
2.3395179133858268
0
LINE
8
BLACK
6
CONTINUOUS
10
-1.8495847244094488
20
2.3395179133858268
11
-1.8446825196850394
21
2.3327705905511809
0
LINE
8
BLACK
6
CONTINUOUS
10
-1.8446825196850394
20
2.3327705905511809
11
-1.8408961811023621
21
2.3253394881889764
0
LINE
8
BLACK
6
CONTINUOUS
10
-1.8408961811023621
20
2.3253394881889764
11
-1.8383189370078741
21
2.3174075196850392
0
LINE
8
BLACK
6
CONTINUOUS
10
-1.8383189370078741
20
2.3174075196850392
11
-1.837014251968504
21
2.3091700787401575
0
LINE
8
BLACK
6
CONTINUOUS
10
-1.837014251968504
20
2.3091700787401575
11
-1.837014251968504
21
2.3008299212598424
0
LINE
8
BLACK
6
CONTINUOUS
10
-1.837014251968504
20
2.3008299212598424
11
-1.8383189370078741
21
2.2925924803149607
0
LINE
8
BLACK
6
CONTINUOUS
10
-1.8383189370078741
20
2.2925924803149607
11
-1.8408961811023621
21
2.2846605118110235
0
LINE
8
BLACK
6
CONTINUOUS
10
-1.8408961811023621
20
2.2846605118110235
11
-1.8446825196850394
21
2.277229409448819
0
LINE
8
BLACK
6
CONTINUOUS
10
-1.8446825196850394
20
2.277229409448819
11
-1.8495847244094488
21
2.2704820866141731
0
LINE
8
BLACK
6
CONTINUOUS
10
-1.8495847244094488
20
2.2704820866141731
11
-1.8554820866141732
21
2.2645847244094486
0
LINE
8
BLACK
6
CONTINUOUS
10
-1.8554820866141732
20
2.2645847244094486
11
-1.8622294094488188
21
2.2596825196850392
0
LINE
8
BLACK
6
CONTINUOUS
10
-1.8622294094488188
20
2.2596825196850392
11
-1.8696605118110237
21
2.2558961811023623
0
LINE
8
BLACK
6
CONTINUOUS
10
-1.8696605118110237
20
2.2558961811023623
11
-1.8775924803149606
21
2.2533189370078741
0
LINE
8
BLACK
6
CONTINUOUS
10
-1.8775924803149606
20
2.2533189370078741
11
-1.8858299212598424
21
2.2520142519685038
0
LINE
8
BLACK
6
CONTINUOUS
10
-1.8858299212598424
20
2.2520142519685038
11
-1.8941700787401574
21
2.2520142519685038
0
LINE
8
BLACK
6
CONTINUOUS
10
-1.8941700787401574
20
2.2520142519685038
11
-1.9024075196850394
21
2.2533189370078741
0
LINE
8
BLACK
6
CONTINUOUS
10
-1.9024075196850394
20
2.2533189370078741
11
-1.9103394881889764
21
2.2558961811023623
0
LINE
8
BLACK
6
CONTINUOUS
10
-1.9103394881889764
20
2.2558961811023623
11
-1.917770590551181
21
2.2596825196850392
0
LINE
8
BLACK
6
CONTINUOUS
10
-1.917770590551181
20
2.2596825196850392
11
-1.9245179133858268
21
2.2645847244094486
0
LINE
8
BLACK
6
CONTINUOUS
10
-1.9245179133858268
20
2.2645847244094486
11
-1.930415275590551
21
2.2704820866141731
0
LINE
8
BLACK
6
CONTINUOUS
10
-1.930415275590551
20
2.2704820866141731
11
-1.9353174803149606
21
2.277229409448819
0
LINE
8
BLACK
6
CONTINUOUS
10
-1.9353174803149606
20
2.277229409448819
11
-1.9391038188976377
21
2.2846605118110235
0
LINE
8
BLACK
6
CONTINUOUS
10
-1.9391038188976377
20
2.2846605118110235
11
-1.941681062992126
21
2.2925924803149607
0
LINE
8
BLACK
6
CONTINUOUS
10
-1.941681062992126
20
2.2925924803149607
11
-1.942985748031496
21
2.3008299212598424
0
LINE
8
BLACK
6
CONTINUOUS
10
-1.942985748031496
20
2.3008299212598424
11
-1.942985748031496
21
2.3091700787401575
0
LINE
8
BLACK
6
CONTINUOUS
10
-1.942985748031496
20
2.3091700787401575
11
-1.941681062992126
21
2.3174075196850392
0
LINE
8
BLACK
6
CONTINUOUS
10
-1.941681062992126
20
2.3174075196850392
11
-1.9391038188976377
21
2.3253394881889764
0
LINE
8
BLACK
6
CONTINUOUS
10
-1.9391038188976377
20
2.3253394881889764
11
-1.9353174803149606
21
2.3327705905511809
0
LINE
8
BLACK
6
CONTINUOUS
10
-1.9353174803149606
20
2.3327705905511809
11
-1.930415275590551
21
2.3395179133858268
0
LINE
8
BLACK
6
CONTINUOUS
10
-1.930415275590551
20
2.3395179133858268
11
-1.9245179133858268
21
2.3454152755905513
0
LINE
8
BLACK
6
CONTINUOUS
10
-1.9245179133858268
20
2.3454152755905513
11
-1.917770590551181
21
2.3503174803149607
0
LINE
8
BLACK
6
CONTINUOUS
10
-1.917770590551181
20
2.3503174803149607
11
-1.9103394881889764
21
2.3541038188976375
0
LINE
8
BLACK
6
CONTINUOUS
10
-1.9103394881889764
20
2.3541038188976375
11
-1.9024075196850394
21
2.3566810629921258
0
LINE
8
BLACK
6
CONTINUOUS
10
-1.9024075196850394
20
2.3566810629921258
11
-1.8941700787401574
21
2.3579857480314961
0
LINE
8
BLACK
6
CONTINUOUS
10
-1.8941700787401574
20
2.3579857480314961
11
-1.8858299212598424
21
2.3579857480314961
0
LINE
8
BLACK
6
CONTINUOUS
10
-1.8858299212598424
20
2.3579857480314961
11
-1.8775924803149606
21
2.3566810629921258
0
LINE
8
BLACK
6
CONTINUOUS
10
0.987244094488189
20
2.3577559055118109
11
0.8927559055118111
21
2.3577559055118109
0
LINE
8
BLACK
6
CONTINUOUS
10
0.8927559055118111
20
2.3577559055118109
11
0.8927559055118111
21
2.4522440944881891
0
LINE
8
BLACK
6
CONTINUOUS
10
0.8927559055118111
20
2.4522440944881891
11
0.987244094488189
21
2.4522440944881891
0
LINE
8
BLACK
6
CONTINUOUS
10
0.987244094488189
20
2.4522440944881891
11
0.987244094488189
21
2.3577559055118109
0
LINE
8
BLACK
6
CONTINUOUS
10
1.2463044881889764
20
2.4509387401574805
11
1.2533551181102363
21
2.4486478346456693
0
LINE
8
BLACK
6
CONTINUOUS
10
1.2533551181102363
20
2.4486478346456693
11
1.2599605511811023
21
2.4452822047244096
0
LINE
8
BLACK
6
CONTINUOUS
10
1.2599605511811023
20
2.4452822047244096
11
1.265958188976378
21
2.44092468503937
0
LINE
8
BLACK
6
CONTINUOUS
10
1.265958188976378
20
2.44092468503937
11
1.2712002755905512
21
2.4356825984251969
0
LINE
8
BLACK
6
CONTINUOUS
10
1.2712002755905512
20
2.4356825984251969
11
1.2755577952755905
21
2.4296849606299213
0
LINE
8
BLACK
6
CONTINUOUS
10
1.2755577952755905
20
2.4296849606299213
11
1.2789234251968504
21
2.4230795275590551
0
LINE
8
BLACK
6
CONTINUOUS
10
1.2789234251968504
20
2.4230795275590551
11
1.2812143307086614
21
2.416028897637795
0
LINE
8
BLACK
6
CONTINUOUS
10
1.2812143307086614
20
2.416028897637795
11
1.2823740551181102
21
2.4087067322834645
0
LINE
8
BLACK
6
CONTINUOUS
10
1.2823740551181102
20
2.4087067322834645
11
1.2823740551181102
21
2.4012932677165355
0
LINE
8
BLACK
6
CONTINUOUS
10
1.2823740551181102
20
2.4012932677165355
11
1.2812143307086614
21
2.3939711023622046
0
LINE
8
BLACK
6
CONTINUOUS
10
1.2812143307086614
20
2.3939711023622046
11
1.2789234251968504
21
2.386920472440945
0
LINE
8
BLACK
6
CONTINUOUS
10
1.2789234251968504
20
2.386920472440945
11
1.2755577952755905
21
2.3803150393700787
0
LINE
8
BLACK
6
CONTINUOUS
10
1.2755577952755905
20
2.3803150393700787
11
1.2712002755905512
21
2.3743174015748032
0
LINE
8
BLACK
6
CONTINUOUS
10
1.2712002755905512
20
2.3743174015748032
11
1.265958188976378
21
2.3690753149606301
0
LINE
8
BLACK
6
CONTINUOUS
10
1.265958188976378
20
2.3690753149606301
11
1.2599605511811023
21
2.3647177952755905
0
LINE
8
BLACK
6
CONTINUOUS
10
1.2599605511811023
20
2.3647177952755905
11
1.2533551181102363
21
2.3613521653543308
0
LINE
8
BLACK
6
CONTINUOUS
10
1.2533551181102363
20
2.3613521653543308
11
1.2463044881889764
21
2.3590612598425196
0
LINE
8
BLACK
6
CONTINUOUS
10
1.2463044881889764
20
2.3590612598425196
11
1.2389823228346457
21
2.3579015354330708
0
LINE
8
BLACK
6
CONTINUOUS
10
1.2389823228346457
20
2.3579015354330708
11
1.2315688582677164
21
2.3579015354330708
0
LINE
8
BLACK
6
CONTINUOUS
10
1.2315688582677164
20
2.3579015354330708
11
1.2242466929133857
21
2.3590612598425196
0
LINE
8
BLACK
6
CONTINUOUS
10
1.2242466929133857
20
2.3590612598425196
11
1.2171960629921259
21
2.3613521653543308
0
LINE
8
BLACK
6
CONTINUOUS
10
1.2171960629921259
20
2.3613521653543308
11
1.2105906299212599
21
2.3647177952755905
0
LINE
8
BLACK
6
CONTINUOUS
10
1.2105906299212599
20
2.3647177952755905
11
1.2045929921259841
21
2.3690753149606301
0
LINE
8
BLACK
6
CONTINUOUS
10
1.2045929921259841
20
2.3690753149606301
11
1.199350905511811
21
2.3743174015748032
0
LINE
8
BLACK
6
CONTINUOUS
10
1.199350905511811
20
2.3743174015748032
11
1.1949933858267716
21
2.3803150393700787
0
LINE
8
BLACK
6
CONTINUOUS
10
1.1949933858267716
20
2.3803150393700787
11
1.1916277559055117
21
2.386920472440945
0
LINE
8
BLACK
6
CONTINUOUS
10
1.1916277559055117
20
2.386920472440945
11
1.1893368503937007
21
2.3939711023622046
0
LINE
8
BLACK
6
CONTINUOUS
10
1.1893368503937007
20
2.3939711023622046
11
1.188177125984252
21
2.4012932677165355
0
LINE
8
BLACK
6
CONTINUOUS
10
1.188177125984252
20
2.4012932677165355
11
1.188177125984252
21
2.4087067322834645
0
LINE
8
BLACK
6
CONTINUOUS
10
1.188177125984252
20
2.4087067322834645
11
1.1893368503937007
21
2.416028897637795
0
LINE
8
BLACK
6
CONTINUOUS
10
1.1893368503937007
20
2.416028897637795
11
1.1916277559055117
21
2.4230795275590551
0
LINE
8
BLACK
6
CONTINUOUS
10
1.1916277559055117
20
2.4230795275590551
11
1.1949933858267716
21
2.4296849606299213
0
LINE
8
BLACK
6
CONTINUOUS
10
1.1949933858267716
20
2.4296849606299213
11
1.199350905511811
21
2.4356825984251969
0
LINE
8
BLACK
6
CONTINUOUS
10
1.199350905511811
20
2.4356825984251969
11
1.2045929921259841
21
2.44092468503937
0
LINE
8
BLACK
6
CONTINUOUS
10
1.2045929921259841
20
2.44092468503937
11
1.2105906299212599
21
2.4452822047244096
0
LINE
8
BLACK
6
CONTINUOUS
10
1.2105906299212599
20
2.4452822047244096
11
1.2171960629921259
21
2.4486478346456693
0
LINE
8
BLACK
6
CONTINUOUS
10
1.2171960629921259
20
2.4486478346456693
11
1.2242466929133857
21
2.4509387401574805
0
LINE
8
BLACK
6
CONTINUOUS
10
1.2242466929133857
20
2.4509387401574805
11
1.2315688582677164
21
2.4520984645669293
0
LINE
8
BLACK
6
CONTINUOUS
10
1.2315688582677164
20
2.4520984645669293
11
1.2389823228346457
21
2.4520984645669293
0
LINE
8
BLACK
6
CONTINUOUS
10
1.2389823228346457
20
2.4520984645669293
11
1.2463044881889764
21
2.4509387401574805
0
LINE
8
BLACK
6
CONTINUOUS
10
-1.9702157874015747
20
2.7414414566929133
11
-1.9573028740157481
21
2.7384941732283465
0
LINE
8
BLACK
6
CONTINUOUS
10
-1.9573028740157481
20
2.7384941732283465
11
-1.9448011811023622
21
2.7341196456692911
0
LINE
8
BLACK
6
CONTINUOUS
10
-1.9448011811023622
20
2.7341196456692911
11
-1.9328678346456694
21
2.7283728346456693
0
LINE
8
BLACK
6
CONTINUOUS
10
-1.9328678346456694
20
2.7283728346456693
11
-1.9216529921259842
21
2.7213261023622048
0
LINE
8
BLACK
6
CONTINUOUS
10
-1.9216529921259842
20
2.7213261023622048
11
-1.9112976377952755
21
2.7130679527559054
0
LINE
8
BLACK
6
CONTINUOUS
10
-1.9112976377952755
20
2.7130679527559054
11
-1.9019320472440944
21
2.7037023622047243
0
LINE
8
BLACK
6
CONTINUOUS
10
-1.9019320472440944
20
2.7037023622047243
11
-1.8936738976377951
21
2.6933470078740158
0
LINE
8
BLACK
6
CONTINUOUS
10
-1.8936738976377951
20
2.6933470078740158
11
-1.8866271653543307
21
2.6821321653543309
0
LINE
8
BLACK
6
CONTINUOUS
10
-1.8866271653543307
20
2.6821321653543309
11
-1.8808803543307087
21
2.6701988188976378
0
LINE
8
BLACK
6
CONTINUOUS
10
-1.8808803543307087
20
2.6701988188976378
11
-1.8765058267716535
21
2.6576971259842521
0
LINE
8
BLACK
6
CONTINUOUS
10
-1.8765058267716535
20
2.6576971259842521
11
-1.8735585433070865
21
2.6447842125984251
0
LINE
8
BLACK
6
CONTINUOUS
10
-1.8735585433070865
20
2.6447842125984251
11
-1.872075590551181
21
2.6316224803149604
0
LINE
8
BLACK
6
CONTINUOUS
10
-1.872075590551181
20
2.6316224803149604
11
-1.872075590551181
21
2.6183775196850392
0
LINE
8
BLACK
6
CONTINUOUS
10
-1.872075590551181
20
2.6183775196850392
11
-1.8735585433070865
21
2.6052157874015749
0
LINE
8
BLACK
6
CONTINUOUS
10
-1.8735585433070865
20
2.6052157874015749
11
-1.8765058267716535
21
2.5923028740157479
0
LINE
8
BLACK
6
CONTINUOUS
10
-1.8765058267716535
20
2.5923028740157479
11
-1.8808803543307087
21
2.5798011811023622
0
LINE
8
BLACK
6
CONTINUOUS
10
-1.8808803543307087
20
2.5798011811023622
11
-1.8866271653543307
21
2.5678678346456691
0
LINE
8
BLACK
6
CONTINUOUS
10
-1.8866271653543307
20
2.5678678346456691
11
-1.8936738976377951
21
2.5566529921259842
0
LINE
8
BLACK
6
CONTINUOUS
10
-1.8936738976377951
20
2.5566529921259842
11
-1.9019320472440944
21
2.5462976377952757
0
LINE
8
BLACK
6
CONTINUOUS
10
-1.9019320472440944
20
2.5462976377952757
11
-1.9112976377952755
21
2.5369320472440946
0
LINE
8
BLACK
6
CONTINUOUS
10
-1.9112976377952755
20
2.5369320472440946
11
-1.9216529921259842
21
2.5286738976377952
0
LINE
8
BLACK
6
CONTINUOUS
10
-1.9216529921259842
20
2.5286738976377952
11
-1.9328678346456694
21
2.5216271653543307
0
LINE
8
BLACK
6
CONTINUOUS
10
-1.9328678346456694
20
2.5216271653543307
11
-1.9448011811023622
21
2.5158803543307084
0
LINE
8
BLACK
6
CONTINUOUS
10
-1.9448011811023622
20
2.5158803543307084
11
-1.9573028740157481
21
2.5115058267716535
0
LINE
8
BLACK
6
CONTINUOUS
10
-1.9573028740157481
20
2.5115058267716535
11
-1.9702157874015747
21
2.5085585433070867
0
LINE
8
BLACK
6
CONTINUOUS
10
-1.9702157874015747
20
2.5085585433070867
11
-1.9833775196850394
21
2.5070755905511812
0
LINE
8
BLACK
6
CONTINUOUS
10
-1.9833775196850394
20
2.5070755905511812
11
-1.9966224803149606
21
2.5070755905511812
0
LINE
8
BLACK
6
CONTINUOUS
10
-1.9966224803149606
20
2.5070755905511812
11
-2.0097842125984253
21
2.5085585433070867
0
LINE
8
BLACK
6
CONTINUOUS
10
-2.0097842125984253
20
2.5085585433070867
11
-2.0226971259842519
21
2.5115058267716535
0
LINE
8
BLACK
6
CONTINUOUS
10
-2.0226971259842519
20
2.5115058267716535
11
-2.0351988188976375
21
2.5158803543307084
0
LINE
8
BLACK
6
CONTINUOUS
10
-2.0351988188976375
20
2.5158803543307084
11
-2.0471321653543306
21
2.5216271653543307
0
LINE
8
BLACK
6
CONTINUOUS
10
-2.0471321653543306
20
2.5216271653543307
11
-2.0583470078740156
21
2.5286738976377952
0
LINE
8
BLACK
6
CONTINUOUS
10
-2.0583470078740156
20
2.5286738976377952
11
-2.0687023622047245
21
2.5369320472440946
0
LINE
8
BLACK
6
CONTINUOUS
10
-2.0687023622047245
20
2.5369320472440946
11
-2.0780679527559056
21
2.5462976377952757
0
LINE
8
BLACK
6
CONTINUOUS
10
-2.0780679527559056
20
2.5462976377952757
11
-2.0863261023622046
21
2.5566529921259842
0
LINE
8
BLACK
6
CONTINUOUS
10
-2.0863261023622046
20
2.5566529921259842
11
-2.093372834645669
21
2.5678678346456691
0
LINE
8
BLACK
6
CONTINUOUS
10
-2.093372834645669
20
2.5678678346456691
11
-2.0991196456692913
21
2.5798011811023622
0
LINE
8
BLACK
6
CONTINUOUS
10
-2.0991196456692913
20
2.5798011811023622
11
-2.1034941732283463
21
2.5923028740157479
0
LINE
8
BLACK
6
CONTINUOUS
10
-2.1034941732283463
20
2.5923028740157479
11
-2.1064414566929135
21
2.6052157874015749
0
LINE
8
BLACK
6
CONTINUOUS
10
-2.1064414566929135
20
2.6052157874015749
11
-2.107924409448819
21
2.6183775196850392
0
LINE
8
BLACK
6
CONTINUOUS
10
-2.107924409448819
20
2.6183775196850392
11
-2.107924409448819
21
2.6316224803149604
0
LINE
8
BLACK
6
CONTINUOUS
10
-2.107924409448819
20
2.6316224803149604
11
-2.1064414566929135
21
2.6447842125984251
0
LINE
8
BLACK
6
CONTINUOUS
10
-2.1064414566929135
20
2.6447842125984251
11
-2.1034941732283463
21
2.6576971259842521
0
LINE
8
BLACK
6
CONTINUOUS
10
-2.1034941732283463
20
2.6576971259842521
11
-2.0991196456692913
21
2.6701988188976378
0
LINE
8
BLACK
6
CONTINUOUS
10
-2.0991196456692913
20
2.6701988188976378
11
-2.093372834645669
21
2.6821321653543309
0
LINE
8
BLACK
6
CONTINUOUS
10
-2.093372834645669
20
2.6821321653543309
11
-2.0863261023622046
21
2.6933470078740158
0
LINE
8
BLACK
6
CONTINUOUS
10
-2.0863261023622046
20
2.6933470078740158
11
-2.0780679527559056
21
2.7037023622047243
0
LINE
8
BLACK
6
CONTINUOUS
10
-2.0780679527559056
20
2.7037023622047243
11
-2.0687023622047245
21
2.7130679527559054
0
LINE
8
BLACK
6
CONTINUOUS
10
-2.0687023622047245
20
2.7130679527559054
11
-2.0583470078740156
21
2.7213261023622048
0
LINE
8
BLACK
6
CONTINUOUS
10
-2.0583470078740156
20
2.7213261023622048
11
-2.0471321653543306
21
2.7283728346456693
0
LINE
8
BLACK
6
CONTINUOUS
10
-2.0471321653543306
20
2.7283728346456693
11
-2.0351988188976375
21
2.7341196456692911
0
LINE
8
BLACK
6
CONTINUOUS
10
-2.0351988188976375
20
2.7341196456692911
11
-2.0226971259842519
21
2.7384941732283465
0
LINE
8
BLACK
6
CONTINUOUS
10
-2.0226971259842519
20
2.7384941732283465
11
-2.0097842125984253
21
2.7414414566929133
0
LINE
8
BLACK
6
CONTINUOUS
10
-2.0097842125984253
20
2.7414414566929133
11
-1.9966224803149606
21
2.7429244094488188
0
LINE
8
BLACK
6
CONTINUOUS
10
-1.9966224803149606
20
2.7429244094488188
11
-1.9833775196850394
21
2.7429244094488188
0
LINE
8
BLACK
6
CONTINUOUS
10
-1.9833775196850394
20
2.7429244094488188
11
-1.9702157874015747
21
2.7414414566929133
0
LINE
8
BLACK
6
CONTINUOUS
10
1.6297842125984252
20
2.7414414566929133
11
1.642697125984252
21
2.7384941732283465
0
LINE
8
BLACK
6
CONTINUOUS
10
1.642697125984252
20
2.7384941732283465
11
1.6551988188976376
21
2.7341196456692911
0
LINE
8
BLACK
6
CONTINUOUS
10
1.6551988188976376
20
2.7341196456692911
11
1.6671321653543307
21
2.7283728346456693
0
LINE
8
BLACK
6
CONTINUOUS
10
1.6671321653543307
20
2.7283728346456693
11
1.6783470078740157
21
2.7213261023622048
0
LINE
8
BLACK
6
CONTINUOUS
10
1.6783470078740157
20
2.7213261023622048
11
1.6887023622047244
21
2.7130679527559054
0
LINE
8
BLACK
6
CONTINUOUS
10
1.6887023622047244
20
2.7130679527559054
11
1.6980679527559055
21
2.7037023622047243
0
LINE
8
BLACK
6
CONTINUOUS
10
1.6980679527559055
20
2.7037023622047243
11
1.7063261023622047
21
2.6933470078740158
0
LINE
8
BLACK
6
CONTINUOUS
10
1.7063261023622047
20
2.6933470078740158
11
1.7133728346456694
21
2.6821321653543309
0
LINE
8
BLACK
6
CONTINUOUS
10
1.7133728346456694
20
2.6821321653543309
11
1.7191196456692912
21
2.6701988188976378
0
LINE
8
BLACK
6
CONTINUOUS
10
1.7191196456692912
20
2.6701988188976378
11
1.7234941732283464
21
2.6576971259842521
0
LINE
8
BLACK
6
CONTINUOUS
10
1.7234941732283464
20
2.6576971259842521
11
1.7264414566929134
21
2.6447842125984251
0
LINE
8
BLACK
6
CONTINUOUS
10
1.7264414566929134
20
2.6447842125984251
11
1.7279244094488189
21
2.6316224803149604
0
LINE
8
BLACK
6
CONTINUOUS
10
1.7279244094488189
20
2.6316224803149604
11
1.7279244094488189
21
2.6183775196850392
0
LINE
8
BLACK
6
CONTINUOUS
10
1.7279244094488189
20
2.6183775196850392
11
1.7264414566929134
21
2.6052157874015749
0
LINE
8
BLACK
6
CONTINUOUS
10
1.7264414566929134
20
2.6052157874015749
11
1.7234941732283464
21
2.5923028740157479
0
LINE
8
BLACK
6
CONTINUOUS
10
1.7234941732283464
20
2.5923028740157479
11
1.7191196456692912
21
2.5798011811023622
0
LINE
8
BLACK
6
CONTINUOUS
10
1.7191196456692912
20
2.5798011811023622
11
1.7133728346456694
21
2.5678678346456691
0
LINE
8
BLACK
6
CONTINUOUS
10
1.7133728346456694
20
2.5678678346456691
11
1.7063261023622047
21
2.5566529921259842
0
LINE
8
BLACK
6
CONTINUOUS
10
1.7063261023622047
20
2.5566529921259842
11
1.6980679527559055
21
2.5462976377952757
0
LINE
8
BLACK
6
CONTINUOUS
10
1.6980679527559055
20
2.5462976377952757
11
1.6887023622047244
21
2.5369320472440946
0
LINE
8
BLACK
6
CONTINUOUS
10
1.6887023622047244
20
2.5369320472440946
11
1.6783470078740157
21
2.5286738976377952
0
LINE
8
BLACK
6
CONTINUOUS
10
1.6783470078740157
20
2.5286738976377952
11
1.6671321653543307
21
2.5216271653543307
0
LINE
8
BLACK
6
CONTINUOUS
10
1.6671321653543307
20
2.5216271653543307
11
1.6551988188976376
21
2.5158803543307084
0
LINE
8
BLACK
6
CONTINUOUS
10
1.6551988188976376
20
2.5158803543307084
11
1.642697125984252
21
2.5115058267716535
0
LINE
8
BLACK
6
CONTINUOUS
10
1.642697125984252
20
2.5115058267716535
11
1.6297842125984252
21
2.5085585433070867
0
LINE
8
BLACK
6
CONTINUOUS
10
1.6297842125984252
20
2.5085585433070867
11
1.6166224803149607
21
2.5070755905511812
0
LINE
8
BLACK
6
CONTINUOUS
10
1.6166224803149607
20
2.5070755905511812
11
1.6033775196850393
21
2.5070755905511812
0
LINE
8
BLACK
6
CONTINUOUS
10
1.6033775196850393
20
2.5070755905511812
11
1.5902157874015748
21
2.5085585433070867
0
LINE
8
BLACK
6
CONTINUOUS
10
1.5902157874015748
20
2.5085585433070867
11
1.577302874015748
21
2.5115058267716535
0
LINE
8
BLACK
6
CONTINUOUS
10
1.577302874015748
20
2.5115058267716535
11
1.5648011811023621
21
2.5158803543307084
0
LINE
8
BLACK
6
CONTINUOUS
10
1.5648011811023621
20
2.5158803543307084
11
1.5528678346456692
21
2.5216271653543307
0
LINE
8
BLACK
6
CONTINUOUS
10
1.5528678346456692
20
2.5216271653543307
11
1.5416529921259843
21
2.5286738976377952
0
LINE
8
BLACK
6
CONTINUOUS
10
1.5416529921259843
20
2.5286738976377952
11
1.5312976377952756
21
2.5369320472440946
0
LINE
8
BLACK
6
CONTINUOUS
10
1.5312976377952756
20
2.5369320472440946
11
1.5219320472440945
21
2.5462976377952757
0
LINE
8
BLACK
6
CONTINUOUS
10
1.5219320472440945
20
2.5462976377952757
11
1.5136738976377953
21
2.5566529921259842
0
LINE
8
BLACK
6
CONTINUOUS
10
1.5136738976377953
20
2.5566529921259842
11
1.5066271653543306
21
2.5678678346456691
0
LINE
8
BLACK
6
CONTINUOUS
10
1.5066271653543306
20
2.5678678346456691
11
1.5008803543307085
21
2.5798011811023622
0
LINE
8
BLACK
6
CONTINUOUS
10
1.5008803543307085
20
2.5798011811023622
11
1.4965058267716536
21
2.5923028740157479
0
LINE
8
BLACK
6
CONTINUOUS
10
1.4965058267716536
20
2.5923028740157479
11
1.4935585433070866
21
2.6052157874015749
0
LINE
8
BLACK
6
CONTINUOUS
10
1.4935585433070866
20
2.6052157874015749
11
1.4920755905511811
21
2.6183775196850392
0
LINE
8
BLACK
6
CONTINUOUS
10
1.4920755905511811
20
2.6183775196850392
11
1.4920755905511811
21
2.6316224803149604
0
LINE
8
BLACK
6
CONTINUOUS
10
1.4920755905511811
20
2.6316224803149604
11
1.4935585433070866
21
2.6447842125984251
0
LINE
8
BLACK
6
CONTINUOUS
10
1.4935585433070866
20
2.6447842125984251
11
1.4965058267716536
21
2.6576971259842521
0
LINE
8
BLACK
6
CONTINUOUS
10
1.4965058267716536
20
2.6576971259842521
11
1.5008803543307085
21
2.6701988188976378
0
LINE
8
BLACK
6
CONTINUOUS
10
1.5008803543307085
20
2.6701988188976378
11
1.5066271653543306
21
2.6821321653543309
0
LINE
8
BLACK
6
CONTINUOUS
10
1.5066271653543306
20
2.6821321653543309
11
1.5136738976377953
21
2.6933470078740158
0
LINE
8
BLACK
6
CONTINUOUS
10
1.5136738976377953
20
2.6933470078740158
11
1.5219320472440945
21
2.7037023622047243
0
LINE
8
BLACK
6
CONTINUOUS
10
1.5219320472440945
20
2.7037023622047243
11
1.5312976377952756
21
2.7130679527559054
0
LINE
8
BLACK
6
CONTINUOUS
10
1.5312976377952756
20
2.7130679527559054
11
1.5416529921259843
21
2.7213261023622048
0
LINE
8
BLACK
6
CONTINUOUS
10
1.5416529921259843
20
2.7213261023622048
11
1.5528678346456692
21
2.7283728346456693
0
LINE
8
BLACK
6
CONTINUOUS
10
1.5528678346456692
20
2.7283728346456693
11
1.5648011811023621
21
2.7341196456692911
0
LINE
8
BLACK
6
CONTINUOUS
10
1.5648011811023621
20
2.7341196456692911
11
1.577302874015748
21
2.7384941732283465
0
LINE
8
BLACK
6
CONTINUOUS
10
1.577302874015748
20
2.7384941732283465
11
1.5902157874015748
21
2.7414414566929133
0
LINE
8
BLACK
6
CONTINUOUS
10
1.5902157874015748
20
2.7414414566929133
11
1.6033775196850393
21
2.7429244094488188
0
LINE
8
BLACK
6
CONTINUOUS
10
1.6033775196850393
20
2.7429244094488188
11
1.6166224803149607
21
2.7429244094488188
0
LINE
8
BLACK
6
CONTINUOUS
10
1.6166224803149607
20
2.7429244094488188
11
1.6297842125984252
21
2.7414414566929133
0
LINE
8
BLACK
6
CONTINUOUS
10
-0.1094723228346457
20
2.6251803937007874
11
-0.1075564566929134
21
2.6239002362204724
0
LINE
8
BLACK
6
CONTINUOUS
10
-0.1075564566929134
20
2.6239002362204724
11
-0.1062762992125984
21
2.62198437007874
0
LINE
8
BLACK
6
CONTINUOUS
10
-0.1062762992125984
20
2.62198437007874
11
-0.1058267716535433
21
2.619724409448819
0
LINE
8
BLACK
6
CONTINUOUS
10
-0.1058267716535433
20
2.619724409448819
11
-0.1058267716535433
21
2.5646062992125982
0
LINE
8
BLACK
6
CONTINUOUS
10
-0.1058267716535433
20
2.5646062992125982
11
-0.1062762992125984
21
2.5623463385826772
0
LINE
8
BLACK
6
CONTINUOUS
10
-0.1062762992125984
20
2.5623463385826772
11
-0.1075564566929134
21
2.5604304724409448
0
LINE
8
BLACK
6
CONTINUOUS
10
-0.1075564566929134
20
2.5604304724409448
11
-0.1094723228346457
21
2.5591503149606298
0
LINE
8
BLACK
6
CONTINUOUS
10
-0.1094723228346457
20
2.5591503149606298
11
-0.1117322834645669
21
2.5587007874015746
0
LINE
8
BLACK
6
CONTINUOUS
10
-0.1117322834645669
20
2.5587007874015746
11
-0.1235433070866142
21
2.5587007874015746
0
LINE
8
BLACK
6
CONTINUOUS
10
-0.1235433070866142
20
2.5587007874015746
11
-0.1258032677165354
21
2.5591503149606298
0
LINE
8
BLACK
6
CONTINUOUS
10
-0.1258032677165354
20
2.5591503149606298
11
-0.1277191338582677
21
2.5604304724409448
0
LINE
8
BLACK
6
CONTINUOUS
10
-0.1277191338582677
20
2.5604304724409448
11
-0.1289992913385827
21
2.5623463385826772
0
LINE
8
BLACK
6
CONTINUOUS
10
-0.1289992913385827
20
2.5623463385826772
11
-0.1294488188976378
21
2.5646062992125982
0
LINE
8
BLACK
6
CONTINUOUS
10
-0.1294488188976378
20
2.5646062992125982
11
-0.1294488188976378
21
2.619724409448819
0
LINE
8
BLACK
6
CONTINUOUS
10
-0.1294488188976378
20
2.619724409448819
11
-0.1289992913385827
21
2.62198437007874
0
LINE
8
BLACK
6
CONTINUOUS
10
-0.1289992913385827
20
2.62198437007874
11
-0.1277191338582677
21
2.6239002362204724
0
LINE
8
BLACK
6
CONTINUOUS
10
-0.1277191338582677
20
2.6239002362204724
11
-0.1258032677165354
21
2.6251803937007874
0
LINE
8
BLACK
6
CONTINUOUS
10
-0.1258032677165354
20
2.6251803937007874
11
-0.1235433070866142
21
2.6256299212598426
0
LINE
8
BLACK
6
CONTINUOUS
10
-0.1235433070866142
20
2.6256299212598426
11
-0.1117322834645669
21
2.6256299212598426
0
LINE
8
BLACK
6
CONTINUOUS
10
-0.1117322834645669
20
2.6256299212598426
11
-0.1094723228346457
21
2.6251803937007874
0
LINE
8
BLACK
6
CONTINUOUS
10
-0.0602597244094488
20
2.6251803937007874
11
-0.0583438582677165
21
2.6239002362204724
0
LINE
8
BLACK
6
CONTINUOUS
10
-0.0583438582677165
20
2.6239002362204724
11
-0.0570637007874016
21
2.62198437007874
0
LINE
8
BLACK
6
CONTINUOUS
10
-0.0570637007874016
20
2.62198437007874
11
-0.0566141732283465
21
2.619724409448819
0
LINE
8
BLACK
6
CONTINUOUS
10
-0.0566141732283465
20
2.619724409448819
11
-0.0566141732283465
21
2.5646062992125982
0
LINE
8
BLACK
6
CONTINUOUS
10
-0.0566141732283465
20
2.5646062992125982
11
-0.0570637007874016
21
2.5623463385826772
0
LINE
8
BLACK
6
CONTINUOUS
10
-0.0570637007874016
20
2.5623463385826772
11
-0.0583438582677165
21
2.5604304724409448
0
LINE
8
BLACK
6
CONTINUOUS
10
-0.0583438582677165
20
2.5604304724409448
11
-0.0602597244094488
21
2.5591503149606298
0
LINE
8
BLACK
6
CONTINUOUS
10
-0.0602597244094488
20
2.5591503149606298
11
-0.0625196850393701
21
2.5587007874015746
0
LINE
8
BLACK
6
CONTINUOUS
10
-0.0625196850393701
20
2.5587007874015746
11
-0.0743307086614173
21
2.5587007874015746
0
LINE
8
BLACK
6
CONTINUOUS
10
-0.0743307086614173
20
2.5587007874015746
11
-0.0765906692913386
21
2.5591503149606298
0
LINE
8
BLACK
6
CONTINUOUS
10
-0.0765906692913386
20
2.5591503149606298
11
-0.0785065354330709
21
2.5604304724409448
0
LINE
8
BLACK
6
CONTINUOUS
10
-0.0785065354330709
20
2.5604304724409448
11
-0.0797866929133858
21
2.5623463385826772
0
LINE
8
BLACK
6
CONTINUOUS
10
-0.0797866929133858
20
2.5623463385826772
11
-0.0802362204724409
21
2.5646062992125982
0
LINE
8
BLACK
6
CONTINUOUS
10
-0.0802362204724409
20
2.5646062992125982
11
-0.0802362204724409
21
2.619724409448819
0
LINE
8
BLACK
6
CONTINUOUS
10
-0.0802362204724409
20
2.619724409448819
11
-0.0797866929133858
21
2.62198437007874
0
LINE
8
BLACK
6
CONTINUOUS
10
-0.0797866929133858
20
2.62198437007874
11
-0.0785065354330709
21
2.6239002362204724
0
LINE
8
BLACK
6
CONTINUOUS
10
-0.0785065354330709
20
2.6239002362204724
11
-0.0765906692913386
21
2.6251803937007874
0
LINE
8
BLACK
6
CONTINUOUS
10
-0.0765906692913386
20
2.6251803937007874
11
-0.0743307086614173
21
2.6256299212598426
0
LINE
8
BLACK
6
CONTINUOUS
10
-0.0743307086614173
20
2.6256299212598426
11
-0.0625196850393701
21
2.6256299212598426
0
LINE
8
BLACK
6
CONTINUOUS
10
-0.0625196850393701
20
2.6256299212598426
11
-0.0602597244094488
21
2.6251803937007874
0
LINE
8
BLACK
6
CONTINUOUS
10
-0.011047125984252
20
2.6251803937007874
11
-0.0091312598425197
21
2.6239002362204724
0
LINE
8
BLACK
6
CONTINUOUS
10
-0.0091312598425197
20
2.6239002362204724
11
-0.0078511023622047
21
2.62198437007874
0
LINE
8
BLACK
6
CONTINUOUS
10
-0.0078511023622047
20
2.62198437007874
11
-0.0074015748031496
21
2.619724409448819
0
LINE
8
BLACK
6
CONTINUOUS
10
-0.0074015748031496
20
2.619724409448819
11
-0.0074015748031496
21
2.5646062992125982
0
LINE
8
BLACK
6
CONTINUOUS
10
-0.0074015748031496
20
2.5646062992125982
11
-0.0078511023622047
21
2.5623463385826772
0
LINE
8
BLACK
6
CONTINUOUS
10
-0.0078511023622047
20
2.5623463385826772
11
-0.0091312598425197
21
2.5604304724409448
0
LINE
8
BLACK
6
CONTINUOUS
10
-0.0091312598425197
20
2.5604304724409448
11
-0.011047125984252
21
2.5591503149606298
0
LINE
8
BLACK
6
CONTINUOUS
10
-0.011047125984252
20
2.5591503149606298
11
-0.0133070866141732
21
2.5587007874015746
0
LINE
8
BLACK
6
CONTINUOUS
10
-0.0133070866141732
20
2.5587007874015746
11
-0.0251181102362205
21
2.5587007874015746
0
LINE
8
BLACK
6
CONTINUOUS
10
-0.0251181102362205
20
2.5587007874015746
11
-0.0273780708661417
21
2.5591503149606298
0
LINE
8
BLACK
6
CONTINUOUS
10
-0.0273780708661417
20
2.5591503149606298
11
-0.029293937007874
21
2.5604304724409448
0
LINE
8
BLACK
6
CONTINUOUS
10
-0.029293937007874
20
2.5604304724409448
11
-0.030574094488189
21
2.5623463385826772
0
LINE
8
BLACK
6
CONTINUOUS
10
-0.030574094488189
20
2.5623463385826772
11
-0.0310236220472441
21
2.5646062992125982
0
LINE
8
BLACK
6
CONTINUOUS
10
-0.0310236220472441
20
2.5646062992125982
11
-0.0310236220472441
21
2.619724409448819
0
LINE
8
BLACK
6
CONTINUOUS
10
-0.0310236220472441
20
2.619724409448819
11
-0.030574094488189
21
2.62198437007874
0
LINE
8
BLACK
6
CONTINUOUS
10
-0.030574094488189
20
2.62198437007874
11
-0.029293937007874
21
2.6239002362204724
0
LINE
8
BLACK
6
CONTINUOUS
10
-0.029293937007874
20
2.6239002362204724
11
-0.0273780708661417
21
2.6251803937007874
0
LINE
8
BLACK
6
CONTINUOUS
10
-0.0273780708661417
20
2.6251803937007874
11
-0.0251181102362205
21
2.6256299212598426
0
LINE
8
BLACK
6
CONTINUOUS
10
-0.0251181102362205
20
2.6256299212598426
11
-0.0133070866141732
21
2.6256299212598426
0
LINE
8
BLACK
6
CONTINUOUS
10
-0.0133070866141732
20
2.6256299212598426
11
-0.011047125984252
21
2.6251803937007874
0
LINE
8
BLACK
6
CONTINUOUS
10
0.0381654724409449
20
2.6251803937007874
11
0.0400813385826772
21
2.6239002362204724
0
LINE
8
BLACK
6
CONTINUOUS
10
0.0400813385826772
20
2.6239002362204724
11
0.0413614960629921
21
2.62198437007874
0
LINE
8
BLACK
6
CONTINUOUS
10
0.0413614960629921
20
2.62198437007874
11
0.0418110236220472
21
2.619724409448819
0
LINE
8
BLACK
6
CONTINUOUS
10
0.0418110236220472
20
2.619724409448819
11
0.0418110236220472
21
2.5646062992125982
0
LINE
8
BLACK
6
CONTINUOUS
10
0.0418110236220472
20
2.5646062992125982
11
0.0413614960629921
21
2.5623463385826772
0
LINE
8
BLACK
6
CONTINUOUS
10
0.0413614960629921
20
2.5623463385826772
11
0.0400813385826772
21
2.5604304724409448
0
LINE
8
BLACK
6
CONTINUOUS
10
0.0400813385826772
20
2.5604304724409448
11
0.0381654724409449
21
2.5591503149606298
0
LINE
8
BLACK
6
CONTINUOUS
10
0.0381654724409449
20
2.5591503149606298
11
0.0359055118110236
21
2.5587007874015746
0
LINE
8
BLACK
6
CONTINUOUS
10
0.0359055118110236
20
2.5587007874015746
11
0.0240944881889764
21
2.5587007874015746
0
LINE
8
BLACK
6
CONTINUOUS
10
0.0240944881889764
20
2.5587007874015746
11
0.0218345275590551
21
2.5591503149606298
0
LINE
8
BLACK
6
CONTINUOUS
10
0.0218345275590551
20
2.5591503149606298
11
0.0199186614173228
21
2.5604304724409448
0
LINE
8
BLACK
6
CONTINUOUS
10
0.0199186614173228
20
2.5604304724409448
11
0.0186385039370079
21
2.5623463385826772
0
LINE
8
BLACK
6
CONTINUOUS
10
0.0186385039370079
20
2.5623463385826772
11
0.0181889763779528
21
2.5646062992125982
0
LINE
8
BLACK
6
CONTINUOUS
10
0.0181889763779528
20
2.5646062992125982
11
0.0181889763779528
21
2.619724409448819
0
LINE
8
BLACK
6
CONTINUOUS
10
0.0181889763779528
20
2.619724409448819
11
0.0186385039370079
21
2.62198437007874
0
LINE
8
BLACK
6
CONTINUOUS
10
0.0186385039370079
20
2.62198437007874
11
0.0199186614173228
21
2.6239002362204724
0
LINE
8
BLACK
6
CONTINUOUS
10
0.0199186614173228
20
2.6239002362204724
11
0.0218345275590551
21
2.6251803937007874
0
LINE
8
BLACK
6
CONTINUOUS
10
0.0218345275590551
20
2.6251803937007874
11
0.0240944881889764
21
2.6256299212598426
0
LINE
8
BLACK
6
CONTINUOUS
10
0.0240944881889764
20
2.6256299212598426
11
0.0359055118110236
21
2.6256299212598426
0
LINE
8
BLACK
6
CONTINUOUS
10
0.0359055118110236
20
2.6256299212598426
11
0.0381654724409449
21
2.6251803937007874
0
LINE
8
BLACK
6
CONTINUOUS
10
0.0873780708661417
20
2.6251803937007874
11
0.089293937007874
21
2.6239002362204724
0
LINE
8
BLACK
6
CONTINUOUS
10
0.089293937007874
20
2.6239002362204724
11
0.090574094488189
21
2.62198437007874
0
LINE
8
BLACK
6
CONTINUOUS
10
0.090574094488189
20
2.62198437007874
11
0.0910236220472441
21
2.619724409448819
0
LINE
8
BLACK
6
CONTINUOUS
10
0.0910236220472441
20
2.619724409448819
11
0.0910236220472441
21
2.5646062992125982
0
LINE
8
BLACK
6
CONTINUOUS
10
0.0910236220472441
20
2.5646062992125982
11
0.090574094488189
21
2.5623463385826772
0
LINE
8
BLACK
6
CONTINUOUS
10
0.090574094488189
20
2.5623463385826772
11
0.089293937007874
21
2.5604304724409448
0
LINE
8
BLACK
6
CONTINUOUS
10
0.089293937007874
20
2.5604304724409448
11
0.0873780708661417
21
2.5591503149606298
0
LINE
8
BLACK
6
CONTINUOUS
10
0.0873780708661417
20
2.5591503149606298
11
0.0851181102362205
21
2.5587007874015746
0
LINE
8
BLACK
6
CONTINUOUS
10
0.0851181102362205
20
2.5587007874015746
11
0.0733070866141732
21
2.5587007874015746
0
LINE
8
BLACK
6
CONTINUOUS
10
0.0733070866141732
20
2.5587007874015746
11
0.071047125984252
21
2.5591503149606298
0
LINE
8
BLACK
6
CONTINUOUS
10
0.071047125984252
20
2.5591503149606298
11
0.0691312598425197
21
2.5604304724409448
0
LINE
8
BLACK
6
CONTINUOUS
10
0.0691312598425197
20
2.5604304724409448
11
0.0678511023622047
21
2.5623463385826772
0
LINE
8
BLACK
6
CONTINUOUS
10
0.0678511023622047
20
2.5623463385826772
11
0.0674015748031496
21
2.5646062992125982
0
LINE
8
BLACK
6
CONTINUOUS
10
0.0674015748031496
20
2.5646062992125982
11
0.0674015748031496
21
2.619724409448819
0
LINE
8
BLACK
6
CONTINUOUS
10
0.0674015748031496
20
2.619724409448819
11
0.0678511023622047
21
2.62198437007874
0
LINE
8
BLACK
6
CONTINUOUS
10
0.0678511023622047
20
2.62198437007874
11
0.0691312598425197
21
2.6239002362204724
0
LINE
8
BLACK
6
CONTINUOUS
10
0.0691312598425197
20
2.6239002362204724
11
0.071047125984252
21
2.6251803937007874
0
LINE
8
BLACK
6
CONTINUOUS
10
0.071047125984252
20
2.6251803937007874
11
0.0733070866141732
21
2.6256299212598426
0
LINE
8
BLACK
6
CONTINUOUS
10
0.0733070866141732
20
2.6256299212598426
11
0.0851181102362205
21
2.6256299212598426
0
LINE
8
BLACK
6
CONTINUOUS
10
0.0851181102362205
20
2.6256299212598426
11
0.0873780708661417
21
2.6251803937007874
0
LINE
8
BLACK
6
CONTINUOUS
10
0.1365906692913386
20
2.6251803937007874
11
0.1385065354330709
21
2.6239002362204724
0
LINE
8
BLACK
6
CONTINUOUS
10
0.1385065354330709
20
2.6239002362204724
11
0.1397866929133858
21
2.62198437007874
0
LINE
8
BLACK
6
CONTINUOUS
10
0.1397866929133858
20
2.62198437007874
11
0.1402362204724409
21
2.619724409448819
0
LINE
8
BLACK
6
CONTINUOUS
10
0.1402362204724409
20
2.619724409448819
11
0.1402362204724409
21
2.5646062992125982
0
LINE
8
BLACK
6
CONTINUOUS
10
0.1402362204724409
20
2.5646062992125982
11
0.1397866929133858
21
2.5623463385826772
0
LINE
8
BLACK
6
CONTINUOUS
10
0.1397866929133858
20
2.5623463385826772
11
0.1385065354330709
21
2.5604304724409448
0
LINE
8
BLACK
6
CONTINUOUS
10
0.1385065354330709
20
2.5604304724409448
11
0.1365906692913386
21
2.5591503149606298
0
LINE
8
BLACK
6
CONTINUOUS
10
0.1365906692913386
20
2.5591503149606298
11
0.1343307086614173
21
2.5587007874015746
0
LINE
8
BLACK
6
CONTINUOUS
10
0.1343307086614173
20
2.5587007874015746
11
0.1225196850393701
21
2.5587007874015746
0
LINE
8
BLACK
6
CONTINUOUS
10
0.1225196850393701
20
2.5587007874015746
11
0.1202597244094488
21
2.5591503149606298
0
LINE
8
BLACK
6
CONTINUOUS
10
0.1202597244094488
20
2.5591503149606298
11
0.1183438582677165
21
2.5604304724409448
0
LINE
8
BLACK
6
CONTINUOUS
10
0.1183438582677165
20
2.5604304724409448
11
0.1170637007874016
21
2.5623463385826772
0
LINE
8
BLACK
6
CONTINUOUS
10
0.1170637007874016
20
2.5623463385826772
11
0.1166141732283465
21
2.5646062992125982
0
LINE
8
BLACK
6
CONTINUOUS
10
0.1166141732283465
20
2.5646062992125982
11
0.1166141732283465
21
2.619724409448819
0
LINE
8
BLACK
6
CONTINUOUS
10
0.1166141732283465
20
2.619724409448819
11
0.1170637007874016
21
2.62198437007874
0
LINE
8
BLACK
6
CONTINUOUS
10
0.1170637007874016
20
2.62198437007874
11
0.1183438582677165
21
2.6239002362204724
0
LINE
8
BLACK
6
CONTINUOUS
10
0.1183438582677165
20
2.6239002362204724
11
0.1202597244094488
21
2.6251803937007874
0
LINE
8
BLACK
6
CONTINUOUS
10
0.1202597244094488
20
2.6251803937007874
11
0.1225196850393701
21
2.6256299212598426
0
LINE
8
BLACK
6
CONTINUOUS
10
0.1225196850393701
20
2.6256299212598426
11
0.1343307086614173
21
2.6256299212598426
0
LINE
8
BLACK
6
CONTINUOUS
10
0.1343307086614173
20
2.6256299212598426
11
0.1365906692913386
21
2.6251803937007874
0
LINE
8
BLACK
6
CONTINUOUS
10
0.1858032677165354
20
2.6251803937007874
11
0.1877191338582677
21
2.6239002362204724
0
LINE
8
BLACK
6
CONTINUOUS
10
0.1877191338582677
20
2.6239002362204724
11
0.1889992913385827
21
2.62198437007874
0
LINE
8
BLACK
6
CONTINUOUS
10
0.1889992913385827
20
2.62198437007874
11
0.1894488188976378
21
2.619724409448819
0
LINE
8
BLACK
6
CONTINUOUS
10
0.1894488188976378
20
2.619724409448819
11
0.1894488188976378
21
2.5646062992125982
0
LINE
8
BLACK
6
CONTINUOUS
10
0.1894488188976378
20
2.5646062992125982
11
0.1889992913385827
21
2.5623463385826772
0
LINE
8
BLACK
6
CONTINUOUS
10
0.1889992913385827
20
2.5623463385826772
11
0.1877191338582677
21
2.5604304724409448
0
LINE
8
BLACK
6
CONTINUOUS
10
0.1877191338582677
20
2.5604304724409448
11
0.1858032677165354
21
2.5591503149606298
0
LINE
8
BLACK
6
CONTINUOUS
10
0.1858032677165354
20
2.5591503149606298
11
0.1835433070866142
21
2.5587007874015746
0
LINE
8
BLACK
6
CONTINUOUS
10
0.1835433070866142
20
2.5587007874015746
11
0.1717322834645669
21
2.5587007874015746
0
LINE
8
BLACK
6
CONTINUOUS
10
0.1717322834645669
20
2.5587007874015746
11
0.1694723228346457
21
2.5591503149606298
0
LINE
8
BLACK
6
CONTINUOUS
10
0.1694723228346457
20
2.5591503149606298
11
0.1675564566929134
21
2.5604304724409448
0
LINE
8
BLACK
6
CONTINUOUS
10
0.1675564566929134
20
2.5604304724409448
11
0.1662762992125984
21
2.5623463385826772
0
LINE
8
BLACK
6
CONTINUOUS
10
0.1662762992125984
20
2.5623463385826772
11
0.1658267716535433
21
2.5646062992125982
0
LINE
8
BLACK
6
CONTINUOUS
10
0.1658267716535433
20
2.5646062992125982
11
0.1658267716535433
21
2.619724409448819
0
LINE
8
BLACK
6
CONTINUOUS
10
0.1658267716535433
20
2.619724409448819
11
0.1662762992125984
21
2.62198437007874
0
LINE
8
BLACK
6
CONTINUOUS
10
0.1662762992125984
20
2.62198437007874
11
0.1675564566929134
21
2.6239002362204724
0
LINE
8
BLACK
6
CONTINUOUS
10
0.1675564566929134
20
2.6239002362204724
11
0.1694723228346457
21
2.6251803937007874
0
LINE
8
BLACK
6
CONTINUOUS
10
0.1694723228346457
20
2.6251803937007874
11
0.1717322834645669
21
2.6256299212598426
0
LINE
8
BLACK
6
CONTINUOUS
10
0.1717322834645669
20
2.6256299212598426
11
0.1835433070866142
21
2.6256299212598426
0
LINE
8
BLACK
6
CONTINUOUS
10
0.1835433070866142
20
2.6256299212598426
11
0.1858032677165354
21
2.6251803937007874
0
LINE
8
BLACK
6
CONTINUOUS
10
-1.4399999999999999
20
2.585
11
-1.5
21
2.585
0
LINE
8
BLACK
6
CONTINUOUS
10
-1.5
20
2.585
11
-1.5
21
2.645
0
LINE
8
BLACK
6
CONTINUOUS
10
-1.5
20
2.645
11
-1.4399999999999999
21
2.645
0
LINE
8
BLACK
6
CONTINUOUS
10
-1.4399999999999999
20
2.645
11
-1.4399999999999999
21
2.585
0
LINE
8
BLACK
6
CONTINUOUS
10
-1.3400000000000001
20
2.585
11
-1.3999999999999999
21
2.585
0
LINE
8
BLACK
6
CONTINUOUS
10
-1.3999999999999999
20
2.585
11
-1.3999999999999999
21
2.645
0
LINE
8
BLACK
6
CONTINUOUS
10
-1.3999999999999999
20
2.645
11
-1.3400000000000001
21
2.645
0
LINE
8
BLACK
6
CONTINUOUS
10
-1.3400000000000001
20
2.645
11
-1.3400000000000001
21
2.585
0
LINE
8
BLACK
6
CONTINUOUS
10
-1.21
20
2.585
11
-1.27
21
2.585
0
LINE
8
BLACK
6
CONTINUOUS
10
-1.27
20
2.585
11
-1.27
21
2.645
0
LINE
8
BLACK
6
CONTINUOUS
10
-1.27
20
2.645
11
-1.21
21
2.645
0
LINE
8
BLACK
6
CONTINUOUS
10
-1.21
20
2.645
11
-1.21
21
2.585
0
LINE
8
BLACK
6
CONTINUOUS
10
-1.1099999999999999
20
2.585
11
-1.1699999999999999
21
2.585
0
LINE
8
BLACK
6
CONTINUOUS
10
-1.1699999999999999
20
2.585
11
-1.1699999999999999
21
2.645
0
LINE
8
BLACK
6
CONTINUOUS
10
-1.1699999999999999
20
2.645
11
-1.1099999999999999
21
2.645
0
LINE
8
BLACK
6
CONTINUOUS
10
-1.1099999999999999
20
2.645
11
-1.1099999999999999
21
2.585
0
LINE
8
BLACK
6
CONTINUOUS
10
-1.01
20
2.585
11
-1.0700000000000001
21
2.585
0
LINE
8
BLACK
6
CONTINUOUS
10
-1.0700000000000001
20
2.585
11
-1.0700000000000001
21
2.645
0
LINE
8
BLACK
6
CONTINUOUS
10
-1.0700000000000001
20
2.645
11
-1.01
21
2.645
0
LINE
8
BLACK
6
CONTINUOUS
10
-1.01
20
2.645
11
-1.01
21
2.585
0
LINE
8
BLACK
6
CONTINUOUS
10
-0.91
20
2.585
11
-0.97
21
2.585
0
LINE
8
BLACK
6
CONTINUOUS
10
-0.97
20
2.585
11
-0.97
21
2.645
0
LINE
8
BLACK
6
CONTINUOUS
10
-0.97
20
2.645
11
-0.91
21
2.645
0
LINE
8
BLACK
6
CONTINUOUS
10
-0.91
20
2.645
11
-0.91
21
2.585
0
LINE
8
BLACK
6
CONTINUOUS
10
-0.8099999999999999
20
2.585
11
-0.87
21
2.585
0
LINE
8
BLACK
6
CONTINUOUS
10
-0.87
20
2.585
11
-0.87
21
2.645
0
LINE
8
BLACK
6
CONTINUOUS
10
-0.87
20
2.645
11
-0.8099999999999999
21
2.645
0
LINE
8
BLACK
6
CONTINUOUS
10
-0.8099999999999999
20
2.645
11
-0.8099999999999999
21
2.585
0
LINE
8
BLACK
6
CONTINUOUS
10
-0.71
20
2.585
11
-0.77
21
2.585
0
LINE
8
BLACK
6
CONTINUOUS
10
-0.77
20
2.585
11
-0.77
21
2.645
0
LINE
8
BLACK
6
CONTINUOUS
10
-0.77
20
2.645
11
-0.71
21
2.645
0
LINE
8
BLACK
6
CONTINUOUS
10
-0.71
20
2.645
11
-0.71
21
2.585
0
LINE
8
BLACK
6
CONTINUOUS
10
-0.61
20
2.585
11
-0.67
21
2.585
0
LINE
8
BLACK
6
CONTINUOUS
10
-0.67
20
2.585
11
-0.67
21
2.645
0
LINE
8
BLACK
6
CONTINUOUS
10
-0.67
20
2.645
11
-0.61
21
2.645
0
LINE
8
BLACK
6
CONTINUOUS
10
-0.61
20
2.645
11
-0.61
21
2.585
0
LINE
8
BLACK
6
CONTINUOUS
10
-0.48
20
2.585
11
-0.54
21
2.585
0
LINE
8
BLACK
6
CONTINUOUS
10
-0.54
20
2.585
11
-0.54
21
2.645
0
LINE
8
BLACK
6
CONTINUOUS
10
-0.54
20
2.645
11
-0.48
21
2.645
0
LINE
8
BLACK
6
CONTINUOUS
10
-0.48
20
2.645
11
-0.48
21
2.585
0
LINE
8
BLACK
6
CONTINUOUS
10
-0.38
20
2.585
11
-0.44
21
2.585
0
LINE
8
BLACK
6
CONTINUOUS
10
-0.44
20
2.585
11
-0.44
21
2.645
0
LINE
8
BLACK
6
CONTINUOUS
10
-0.44
20
2.645
11
-0.38
21
2.645
0
LINE
8
BLACK
6
CONTINUOUS
10
-0.38
20
2.645
11
-0.38
21
2.585
0
LINE
8
BLACK
6
CONTINUOUS
10
-0.28
20
2.585
11
-0.34
21
2.585
0
LINE
8
BLACK
6
CONTINUOUS
10
-0.34
20
2.585
11
-0.34
21
2.645
0
LINE
8
BLACK
6
CONTINUOUS
10
-0.34
20
2.645
11
-0.28
21
2.645
0
LINE
8
BLACK
6
CONTINUOUS
10
-0.28
20
2.645
11
-0.28
21
2.585
0
LINE
8
BLACK
6
CONTINUOUS
10
0.4
20
2.585
11
0.34
21
2.585
0
LINE
8
BLACK
6
CONTINUOUS
10
0.34
20
2.585
11
0.34
21
2.645
0
LINE
8
BLACK
6
CONTINUOUS
10
0.34
20
2.645
11
0.4
21
2.645
0
LINE
8
BLACK
6
CONTINUOUS
10
0.4
20
2.645
11
0.4
21
2.585
0
LINE
8
BLACK
6
CONTINUOUS
10
0.5
20
2.585
11
0.44
21
2.585
0
LINE
8
BLACK
6
CONTINUOUS
10
0.44
20
2.585
11
0.44
21
2.645
0
LINE
8
BLACK
6
CONTINUOUS
10
0.44
20
2.645
11
0.5
21
2.645
0
LINE
8
BLACK
6
CONTINUOUS
10
0.5
20
2.645
11
0.5
21
2.585
0
LINE
8
BLACK
6
CONTINUOUS
10
0.6
20
2.585
11
0.54
21
2.585
0
LINE
8
BLACK
6
CONTINUOUS
10
0.54
20
2.585
11
0.54
21
2.645
0
LINE
8
BLACK
6
CONTINUOUS
10
0.54
20
2.645
11
0.6
21
2.645
0
LINE
8
BLACK
6
CONTINUOUS
10
0.6
20
2.645
11
0.6
21
2.585
0
LINE
8
BLACK
6
CONTINUOUS
10
-1.7179415354330709
20
2.7248795275590552
11
-1.7108111417322833
21
2.7219260236220473
0
LINE
8
BLACK
6
CONTINUOUS
10
-1.7108111417322833
20
2.7219260236220473
11
-1.7043939763779528
21
2.7176381889763781
0
LINE
8
BLACK
6
CONTINUOUS
10
-1.7043939763779528
20
2.7176381889763781
11
-1.6989366141732283
21
2.7121808267716534
0
LINE
8
BLACK
6
CONTINUOUS
10
-1.6989366141732283
20
2.7121808267716534
11
-1.6946487795275591
21
2.7057636614173228
0
LINE
8
BLACK
6
CONTINUOUS
10
-1.6946487795275591
20
2.7057636614173228
11
-1.6916952755905512
21
2.6986332677165352
0
LINE
8
BLACK
6
CONTINUOUS
10
-1.6916952755905512
20
2.6986332677165352
11
-1.6901895669291338
21
2.6910636614173229
0
LINE
8
BLACK
6
CONTINUOUS
10
-1.6901895669291338
20
2.6910636614173229
11
-1.6901895669291338
21
2.6833457874015747
0
LINE
8
BLACK
6
CONTINUOUS
10
-1.6901895669291338
20
2.6833457874015747
11
-1.6916952755905512
21
2.6757761811023619
0
LINE
8
BLACK
6
CONTINUOUS
10
-1.6916952755905512
20
2.6757761811023619
11
-1.6946487795275591
21
2.6686457874015748
0
LINE
8
BLACK
6
CONTINUOUS
10
-1.6946487795275591
20
2.6686457874015748
11
-1.6989366141732283
21
2.6622286220472442
0
LINE
8
BLACK
6
CONTINUOUS
10
-1.6989366141732283
20
2.6622286220472442
11
-1.7043939763779528
21
2.6567712598425195
0
LINE
8
BLACK
6
CONTINUOUS
10
-1.7043939763779528
20
2.6567712598425195
11
-1.7108111417322833
21
2.6524834251968503
0
LINE
8
BLACK
6
CONTINUOUS
10
-1.7108111417322833
20
2.6524834251968503
11
-1.7179415354330709
21
2.6495299212598424
0
LINE
8
BLACK
6
CONTINUOUS
10
-1.7179415354330709
20
2.6495299212598424
11
-1.7255111417322835
21
2.648024212598425
0
LINE
8
BLACK
6
CONTINUOUS
10
-1.7255111417322835
20
2.648024212598425
11
-1.7332290157480315
21
2.648024212598425
0
LINE
8
BLACK
6
CONTINUOUS
10
-1.7332290157480315
20
2.648024212598425
11
-1.740798622047244
21
2.6495299212598424
0
LINE
8
BLACK
6
CONTINUOUS
10
-1.740798622047244
20
2.6495299212598424
11
-1.7479290157480314
21
2.6524834251968503
0
LINE
8
BLACK
6
CONTINUOUS
10
-1.7479290157480314
20
2.6524834251968503
11
-1.7543461811023622
21
2.6567712598425195
0
LINE
8
BLACK
6
CONTINUOUS
10
-1.7543461811023622
20
2.6567712598425195
11
-1.7598035433070867
21
2.6622286220472442
0
LINE
8
BLACK
6
CONTINUOUS
10
-1.7598035433070867
20
2.6622286220472442
11
-1.7640913779527558
21
2.6686457874015748
0
LINE
8
BLACK
6
CONTINUOUS
10
-1.7640913779527558
20
2.6686457874015748
11
-1.7670448818897637
21
2.6757761811023619
0
LINE
8
BLACK
6
CONTINUOUS
10
-1.7670448818897637
20
2.6757761811023619
11
-1.7685505905511811
21
2.6833457874015747
0
LINE
8
BLACK
6
CONTINUOUS
10
-1.7685505905511811
20
2.6833457874015747
11
-1.7685505905511811
21
2.6910636614173229
0
LINE
8
BLACK
6
CONTINUOUS
10
-1.7685505905511811
20
2.6910636614173229
11
-1.7670448818897637
21
2.6986332677165352
0
LINE
8
BLACK
6
CONTINUOUS
10
-1.7670448818897637
20
2.6986332677165352
11
-1.7640913779527558
21
2.7057636614173228
0
LINE
8
BLACK
6
CONTINUOUS
10
-1.7640913779527558
20
2.7057636614173228
11
-1.7598035433070867
21
2.7121808267716534
0
LINE
8
BLACK
6
CONTINUOUS
10
-1.7598035433070867
20
2.7121808267716534
11
-1.7543461811023622
21
2.7176381889763781
0
LINE
8
BLACK
6
CONTINUOUS
10
-1.7543461811023622
20
2.7176381889763781
11
-1.7479290157480314
21
2.7219260236220473
0
LINE
8
BLACK
6
CONTINUOUS
10
-1.7479290157480314
20
2.7219260236220473
11
-1.740798622047244
21
2.7248795275590552
0
LINE
8
BLACK
6
CONTINUOUS
10
-1.740798622047244
20
2.7248795275590552
11
-1.7332290157480315
21
2.7263852362204726
0
LINE
8
BLACK
6
CONTINUOUS
10
-1.7332290157480315
20
2.7263852362204726
11
-1.7255111417322835
21
2.7263852362204726
0
LINE
8
BLACK
6
CONTINUOUS
10
-1.7255111417322835
20
2.7263852362204726
11
-1.7179415354330709
21
2.7248795275590552
0
LINE
8
BLACK
6
CONTINUOUS
10
-0.1768633464566929
20
2.7705500000000001
11
-0.1736701968503937
21
2.7684164173228347
0
LINE
8
BLACK
6
CONTINUOUS
10
-0.1736701968503937
20
2.7684164173228347
11
-0.1715366141732284
21
2.7652232677165354
0
LINE
8
BLACK
6
CONTINUOUS
10
-0.1715366141732284
20
2.7652232677165354
11
-0.1707874015748032
21
2.7614566929133857
0
LINE
8
BLACK
6
CONTINUOUS
10
-0.1707874015748032
20
2.7614566929133857
11
-0.1707874015748032
21
2.6748425196850394
0
LINE
8
BLACK
6
CONTINUOUS
10
-0.1707874015748032
20
2.6748425196850394
11
-0.1715366141732284
21
2.6710759448818897
0
LINE
8
BLACK
6
CONTINUOUS
10
-0.1715366141732284
20
2.6710759448818897
11
-0.1736701968503937
21
2.6678827952755904
0
LINE
8
BLACK
6
CONTINUOUS
10
-0.1736701968503937
20
2.6678827952755904
11
-0.1768633464566929
21
2.665749212598425
0
LINE
8
BLACK
6
CONTINUOUS
10
-0.1768633464566929
20
2.665749212598425
11
-0.1806299212598425
21
2.665
0
LINE
8
BLACK
6
CONTINUOUS
10
-0.1806299212598425
20
2.665
11
-0.2003149606299213
21
2.665
0
LINE
8
BLACK
6
CONTINUOUS
10
-0.2003149606299213
20
2.665
11
-0.2040815354330709
21
2.665749212598425
0
LINE
8
BLACK
6
CONTINUOUS
10
-0.2040815354330709
20
2.665749212598425
11
-0.2072746850393701
21
2.6678827952755904
0
LINE
8
BLACK
6
CONTINUOUS
10
-0.2072746850393701
20
2.6678827952755904
11
-0.2094082677165354
21
2.6710759448818897
0
LINE
8
BLACK
6
CONTINUOUS
10
-0.2094082677165354
20
2.6710759448818897
11
-0.2101574803149606
21
2.6748425196850394
0
LINE
8
BLACK
6
CONTINUOUS
10
-0.2101574803149606
20
2.6748425196850394
11
-0.2101574803149606
21
2.7614566929133857
0
LINE
8
BLACK
6
CONTINUOUS
10
-0.2101574803149606
20
2.7614566929133857
11
-0.2094082677165354
21
2.7652232677165354
0
LINE
8
BLACK
6
CONTINUOUS
10
-0.2094082677165354
20
2.7652232677165354
11
-0.2072746850393701
21
2.7684164173228347
0
LINE
8
BLACK
6
CONTINUOUS
10
-0.2072746850393701
20
2.7684164173228347
11
-0.2040815354330709
21
2.7705500000000001
0
LINE
8
BLACK
6
CONTINUOUS
10
-0.2040815354330709
20
2.7705500000000001
11
-0.2003149606299213
21
2.771299212598425
0
LINE
8
BLACK
6
CONTINUOUS
10
-0.2003149606299213
20
2.771299212598425
11
-0.1806299212598425
21
2.771299212598425
0
LINE
8
BLACK
6
CONTINUOUS
10
-0.1806299212598425
20
2.771299212598425
11
-0.1768633464566929
21
2.7705500000000001
0
LINE
8
BLACK
6
CONTINUOUS
10
0.2640815354330708
20
2.7705500000000001
11
0.2672746850393701
21
2.7684164173228347
0
LINE
8
BLACK
6
CONTINUOUS
10
0.2672746850393701
20
2.7684164173228347
11
0.2694082677165354
21
2.7652232677165354
0
LINE
8
BLACK
6
CONTINUOUS
10
0.2694082677165354
20
2.7652232677165354
11
0.2701574803149606
21
2.7614566929133857
0
LINE
8
BLACK
6
CONTINUOUS
10
0.2701574803149606
20
2.7614566929133857
11
0.2701574803149606
21
2.6748425196850394
0
LINE
8
BLACK
6
CONTINUOUS
10
0.2701574803149606
20
2.6748425196850394
11
0.2694082677165354
21
2.6710759448818897
0
LINE
8
BLACK
6
CONTINUOUS
10
0.2694082677165354
20
2.6710759448818897
11
0.2672746850393701
21
2.6678827952755904
0
LINE
8
BLACK
6
CONTINUOUS
10
0.2672746850393701
20
2.6678827952755904
11
0.2640815354330708
21
2.665749212598425
0
LINE
8
BLACK
6
CONTINUOUS
10
0.2640815354330708
20
2.665749212598425
11
0.2603149606299213
21
2.665
0
LINE
8
BLACK
6
CONTINUOUS
10
0.2603149606299213
20
2.665
11
0.2406299212598425
21
2.665
0
LINE
8
BLACK
6
CONTINUOUS
10
0.2406299212598425
20
2.665
11
0.2368633464566929
21
2.665749212598425
0
LINE
8
BLACK
6
CONTINUOUS
10
0.2368633464566929
20
2.665749212598425
11
0.2336701968503937
21
2.6678827952755904
0
LINE
8
BLACK
6
CONTINUOUS
10
0.2336701968503937
20
2.6678827952755904
11
0.2315366141732284
21
2.6710759448818897
0
LINE
8
BLACK
6
CONTINUOUS
10
0.2315366141732284
20
2.6710759448818897
11
0.2307874015748032
21
2.6748425196850394
0
LINE
8
BLACK
6
CONTINUOUS
10
0.2307874015748032
20
2.6748425196850394
11
0.2307874015748032
21
2.7614566929133857
0
LINE
8
BLACK
6
CONTINUOUS
10
0.2307874015748032
20
2.7614566929133857
11
0.2315366141732284
21
2.7652232677165354
0
LINE
8
BLACK
6
CONTINUOUS
10
0.2315366141732284
20
2.7652232677165354
11
0.2336701968503937
21
2.7684164173228347
0
LINE
8
BLACK
6
CONTINUOUS
10
0.2336701968503937
20
2.7684164173228347
11
0.2368633464566929
21
2.7705500000000001
0
LINE
8
BLACK
6
CONTINUOUS
10
0.2368633464566929
20
2.7705500000000001
11
0.2406299212598425
21
2.771299212598425
0
LINE
8
BLACK
6
CONTINUOUS
10
0.2406299212598425
20
2.771299212598425
11
0.2603149606299213
21
2.771299212598425
0
LINE
8
BLACK
6
CONTINUOUS
10
0.2603149606299213
20
2.771299212598425
11
0.2640815354330708
21
2.7705500000000001
0
LINE
8
BLACK
6
CONTINUOUS
10
-1.4399999999999999
20
2.6850000000000001
11
-1.5
21
2.6850000000000001
0
LINE
8
BLACK
6
CONTINUOUS
10
-1.5
20
2.6850000000000001
11
-1.5
21
2.7450000000000001
0
LINE
8
BLACK
6
CONTINUOUS
10
-1.5
20
2.7450000000000001
11
-1.4399999999999999
21
2.7450000000000001
0
LINE
8
BLACK
6
CONTINUOUS
10
-1.4399999999999999
20
2.7450000000000001
11
-1.4399999999999999
21
2.6850000000000001
0
LINE
8
BLACK
6
CONTINUOUS
10
-1.3400000000000001
20
2.6850000000000001
11
-1.3999999999999999
21
2.6850000000000001
0
LINE
8
BLACK
6
CONTINUOUS
10
-1.3999999999999999
20
2.6850000000000001
11
-1.3999999999999999
21
2.7450000000000001
0
LINE
8
BLACK
6
CONTINUOUS
10
-1.3999999999999999
20
2.7450000000000001
11
-1.3400000000000001
21
2.7450000000000001
0
LINE
8
BLACK
6
CONTINUOUS
10
-1.3400000000000001
20
2.7450000000000001
11
-1.3400000000000001
21
2.6850000000000001
0
LINE
8
BLACK
6
CONTINUOUS
10
-1.21
20
2.6850000000000001
11
-1.27
21
2.6850000000000001
0
LINE
8
BLACK
6
CONTINUOUS
10
-1.27
20
2.6850000000000001
11
-1.27
21
2.7450000000000001
0
LINE
8
BLACK
6
CONTINUOUS
10
-1.27
20
2.7450000000000001
11
-1.21
21
2.7450000000000001
0
LINE
8
BLACK
6
CONTINUOUS
10
-1.21
20
2.7450000000000001
11
-1.21
21
2.6850000000000001
0
LINE
8
BLACK
6
CONTINUOUS
10
-1.1099999999999999
20
2.6850000000000001
11
-1.1699999999999999
21
2.6850000000000001
0
LINE
8
BLACK
6
CONTINUOUS
10
-1.1699999999999999
20
2.6850000000000001
11
-1.1699999999999999
21
2.7450000000000001
0
LINE
8
BLACK
6
CONTINUOUS
10
-1.1699999999999999
20
2.7450000000000001
11
-1.1099999999999999
21
2.7450000000000001
0
LINE
8
BLACK
6
CONTINUOUS
10
-1.1099999999999999
20
2.7450000000000001
11
-1.1099999999999999
21
2.6850000000000001
0
LINE
8
BLACK
6
CONTINUOUS
10
-1.01
20
2.6850000000000001
11
-1.0700000000000001
21
2.6850000000000001
0
LINE
8
BLACK
6
CONTINUOUS
10
-1.0700000000000001
20
2.6850000000000001
11
-1.0700000000000001
21
2.7450000000000001
0
LINE
8
BLACK
6
CONTINUOUS
10
-1.0700000000000001
20
2.7450000000000001
11
-1.01
21
2.7450000000000001
0
LINE
8
BLACK
6
CONTINUOUS
10
-1.01
20
2.7450000000000001
11
-1.01
21
2.6850000000000001
0
LINE
8
BLACK
6
CONTINUOUS
10
-0.91
20
2.6850000000000001
11
-0.97
21
2.6850000000000001
0
LINE
8
BLACK
6
CONTINUOUS
10
-0.97
20
2.6850000000000001
11
-0.97
21
2.7450000000000001
0
LINE
8
BLACK
6
CONTINUOUS
10
-0.97
20
2.7450000000000001
11
-0.91
21
2.7450000000000001
0
LINE
8
BLACK
6
CONTINUOUS
10
-0.91
20
2.7450000000000001
11
-0.91
21
2.6850000000000001
0
LINE
8
BLACK
6
CONTINUOUS
10
-0.8099999999999999
20
2.6850000000000001
11
-0.87
21
2.6850000000000001
0
LINE
8
BLACK
6
CONTINUOUS
10
-0.87
20
2.6850000000000001
11
-0.87
21
2.7450000000000001
0
LINE
8
BLACK
6
CONTINUOUS
10
-0.87
20
2.7450000000000001
11
-0.8099999999999999
21
2.7450000000000001
0
LINE
8
BLACK
6
CONTINUOUS
10
-0.8099999999999999
20
2.7450000000000001
11
-0.8099999999999999
21
2.6850000000000001
0
LINE
8
BLACK
6
CONTINUOUS
10
-0.71
20
2.6850000000000001
11
-0.77
21
2.6850000000000001
0
LINE
8
BLACK
6
CONTINUOUS
10
-0.77
20
2.6850000000000001
11
-0.77
21
2.7450000000000001
0
LINE
8
BLACK
6
CONTINUOUS
10
-0.77
20
2.7450000000000001
11
-0.71
21
2.7450000000000001
0
LINE
8
BLACK
6
CONTINUOUS
10
-0.71
20
2.7450000000000001
11
-0.71
21
2.6850000000000001
0
LINE
8
BLACK
6
CONTINUOUS
10
-0.61
20
2.6850000000000001
11
-0.67
21
2.6850000000000001
0
LINE
8
BLACK
6
CONTINUOUS
10
-0.67
20
2.6850000000000001
11
-0.67
21
2.7450000000000001
0
LINE
8
BLACK
6
CONTINUOUS
10
-0.67
20
2.7450000000000001
11
-0.61
21
2.7450000000000001
0
LINE
8
BLACK
6
CONTINUOUS
10
-0.61
20
2.7450000000000001
11
-0.61
21
2.6850000000000001
0
LINE
8
BLACK
6
CONTINUOUS
10
-0.48
20
2.6850000000000001
11
-0.54
21
2.6850000000000001
0
LINE
8
BLACK
6
CONTINUOUS
10
-0.54
20
2.6850000000000001
11
-0.54
21
2.7450000000000001
0
LINE
8
BLACK
6
CONTINUOUS
10
-0.54
20
2.7450000000000001
11
-0.48
21
2.7450000000000001
0
LINE
8
BLACK
6
CONTINUOUS
10
-0.48
20
2.7450000000000001
11
-0.48
21
2.6850000000000001
0
LINE
8
BLACK
6
CONTINUOUS
10
-0.38
20
2.6850000000000001
11
-0.44
21
2.6850000000000001
0
LINE
8
BLACK
6
CONTINUOUS
10
-0.44
20
2.6850000000000001
11
-0.44
21
2.7450000000000001
0
LINE
8
BLACK
6
CONTINUOUS
10
-0.44
20
2.7450000000000001
11
-0.38
21
2.7450000000000001
0
LINE
8
BLACK
6
CONTINUOUS
10
-0.38
20
2.7450000000000001
11
-0.38
21
2.6850000000000001
0
LINE
8
BLACK
6
CONTINUOUS
10
-0.28
20
2.6850000000000001
11
-0.34
21
2.6850000000000001
0
LINE
8
BLACK
6
CONTINUOUS
10
-0.34
20
2.6850000000000001
11
-0.34
21
2.7450000000000001
0
LINE
8
BLACK
6
CONTINUOUS
10
-0.34
20
2.7450000000000001
11
-0.28
21
2.7450000000000001
0
LINE
8
BLACK
6
CONTINUOUS
10
-0.28
20
2.7450000000000001
11
-0.28
21
2.6850000000000001
0
LINE
8
BLACK
6
CONTINUOUS
10
0.4
20
2.6850000000000001
11
0.34
21
2.6850000000000001
0
LINE
8
BLACK
6
CONTINUOUS
10
0.34
20
2.6850000000000001
11
0.34
21
2.7450000000000001
0
LINE
8
BLACK
6
CONTINUOUS
10
0.34
20
2.7450000000000001
11
0.4
21
2.7450000000000001
0
LINE
8
BLACK
6
CONTINUOUS
10
0.4
20
2.7450000000000001
11
0.4
21
2.6850000000000001
0
LINE
8
BLACK
6
CONTINUOUS
10
0.5
20
2.6850000000000001
11
0.44
21
2.6850000000000001
0
LINE
8
BLACK
6
CONTINUOUS
10
0.44
20
2.6850000000000001
11
0.44
21
2.7450000000000001
0
LINE
8
BLACK
6
CONTINUOUS
10
0.44
20
2.7450000000000001
11
0.5
21
2.7450000000000001
0
LINE
8
BLACK
6
CONTINUOUS
10
0.5
20
2.7450000000000001
11
0.5
21
2.6850000000000001
0
LINE
8
BLACK
6
CONTINUOUS
10
0.6
20
2.6850000000000001
11
0.54
21
2.6850000000000001
0
LINE
8
BLACK
6
CONTINUOUS
10
0.54
20
2.6850000000000001
11
0.54
21
2.7450000000000001
0
LINE
8
BLACK
6
CONTINUOUS
10
0.54
20
2.7450000000000001
11
0.6
21
2.7450000000000001
0
LINE
8
BLACK
6
CONTINUOUS
10
0.6
20
2.7450000000000001
11
0.6
21
2.6850000000000001
  0
ENDSEC
  0
EOF
