  0
SECTION
  2
HEADER
  9
$ACADVER
  1
AC1018
  9
$HANDSEED
  5
FFFFFFFF
  9
$ANGBASE
  50
0.0
  9
$ANGDIR
  70
1
  9
$MEASUREMENT
  70
0
  9
$INSUNITS
  70
1
  0
ENDSEC
  0
SECTION
  2
TABLES
  0
TABLE
  2
APPID
  5
1
330
0
100
AcDbSymbolTable
 70
1
  0
APPID
  5
2
330
1
100
AcDbSymbolTableRecord
100
AcDbRegAppTableRecord
  2
ACAD
 70
0
  0
ENDTAB
  0
TABLE
  2
LTYPE
  5
3
330
0
100
AcDbSymbolTable
 70
6
  0
LTYPE
  5
4
330
3
100
AcDbSymbolTableRecord
100
AcDbLinetypeTableRecord
  2
ByBlock
 70
0
  3

 72
65
 73
0
 40
0
  0
LTYPE
  5
5
330
3
100
AcDbSymbolTableRecord
100
AcDbLinetypeTableRecord
  2
ByLayer
 70
0
  3

 72
65
 73
0
 40
0
  0
LTYPE
  5
6
330
3
100
AcDbSymbolTableRecord
100
AcDbLinetypeTableRecord
  2
CONTINUOUS
 70
0
  3
Solid line
 72
65
 73
0
 40
0
  0
LTYPE
  5
7
330
3
100
AcDbSymbolTableRecord
100
AcDbLinetypeTableRecord
  2
DASHDOT
 70
0
  3
Dash Dot ____ _ ____ _
 72
65
 73
4
 40
2
 49
1.25
 74
0
 49
-0.25
 74
0
 49
0.25
 74
0
 49
-0.25
 74
0
  0
LTYPE
  5
8
330
3
100
AcDbSymbolTableRecord
100
AcDbLinetypeTableRecord
  2
DASHED
 70
0
  3
Dashed __ __ __ __ __
 72
65
 73
2
 40
0.75
 49
0.5
 74
0
 49
-0.25
 74
0
  0
LTYPE
  5
9
330
3
100
AcDbSymbolTableRecord
100
AcDbLinetypeTableRecord
  2
DOTTED
 70
0
  3
Dotted .  .  .  .
 72
65
 73
2
 40
0.2
 49
0.0
 74
0
 49
-0.2
 74
0
  0
ENDTAB
  0
TABLE
  2
STYLE
  5
A
330
0
100
AcDbSymbolTable
 70
4
  0
STYLE
  5
B
330
A
100
AcDbSymbolTableRecord
100
AcDbTextStyleTableRecord
  2
KICAD
 70
0
 40
0
 41
1
 42
1
 50
0
 71
0
  3
isocp.shx
  0
STYLE
  5
C
330
A
100
AcDbSymbolTableRecord
100
AcDbTextStyleTableRecord
  2
KICADB
 70
0
 40
0
 41
1
 42
1
 50
0
 71
0
  3
isocp.shx
  0
STYLE
  5
D
330
A
100
AcDbSymbolTableRecord
100
AcDbTextStyleTableRecord
  2
KICADI
 70
0
 40
0
 41
1
 42
1
 50
15
 71
0
  3
isocp.shx
  0
STYLE
  5
E
330
A
100
AcDbSymbolTableRecord
100
AcDbTextStyleTableRecord
  2
KICADBI
 70
0
 40
0
 41
1
 42
1
 50
15
 71
0
  3
isocp.shx
  0
ENDTAB
  0
TABLE
  2
LAYER
  5
F
330
0
100
AcDbSymbolTable
 70
2
  0
LAYER
  5
12
330
F
100
AcDbSymbolTableRecord
100
AcDbLayerTableRecord
  2
0
 70
0
 62
7
  6
CONTINUOUS
390
10
  0
LAYER
  5
13
330
F
100
AcDbSymbolTableRecord
100
AcDbLayerTableRecord
  2
BLACK
 70
0
 62
250
  6
CONTINUOUS
390
10
  0
ENDTAB
  0
TABLE
  2
VPORT
  5
14
330
0
100
AcDbSymbolTable
 70
0
  0
ENDTAB
  0
TABLE
  2
VIEW
  5
15
330
0
100
AcDbSymbolTable
 70
0
  0
ENDTAB
  0
TABLE
  2
UCS
  5
16
330
0
100
AcDbSymbolTable
 70
0
  0
ENDTAB
  0
TABLE
  2
DIMSTYLE
  5
17
330
0
100
AcDbSymbolTable
 70
1
100
AcDbDimStyleTable
 71
0
  0
DIMSTYLE
105
18
330
17
100
AcDbSymbolTableRecord
100
AcDbDimStyleTableRecord
  2
Standard
 70
0
  0
ENDTAB
  0
TABLE
  2
BLOCK_RECORD
  5
19
330
0
100
AcDbSymbolTable
 70
3
  0
BLOCK_RECORD
  5
1A
330
19
100
AcDbSymbolTableRecord
100
AcDbBlockTableRecord
  2
*Model_Space
340
1D
 70
0
280
1
281
0
  0
BLOCK_RECORD
  5
1B
330
19
100
AcDbSymbolTableRecord
100
AcDbBlockTableRecord
  2
*Paper_Space
340
1E
 70
0
280
1
281
0
  0
BLOCK_RECORD
  5
1C
330
19
100
AcDbSymbolTableRecord
100
AcDbBlockTableRecord
  2
*Paper_Space0
340
1F
 70
0
280
1
281
0
  0
ENDTAB
  0
ENDSEC
  0
SECTION
  2
BLOCKS
  0
BLOCK
  5
23
330
1A
100
AcDbEntity
  8
0
100
AcDbBlockBegin
  2
*Model_Space
 70
0
 10
0.0
 20
0.0
 30
0.0
  3
*Model_Space
  1

  0
ENDBLK
  5
22
330
1A
100
AcDbEntity
  8
0
100
AcDbBlockEnd
  0
BLOCK
  5
25
330
1B
100
AcDbEntity
 67
1
  8
0
100
AcDbBlockBegin
  2
*Paper_Space
 70
0
 10
0.0
 20
0.0
 30
0.0
  3
*Paper_Space
  1

  0
ENDBLK
  5
24
330
1B
100
AcDbEntity
 67
1
  8
0
100
AcDbBlockEnd
  0
BLOCK
  5
27
330
1C
100
AcDbEntity
 67
1
  8
0
100
AcDbBlockBegin
  2
*Paper_Space0
 70
0
 10
0.0
 20
0.0
 30
0.0
  3
*Paper_Space0
  1

  0
ENDBLK
  5
26
330
1C
100
AcDbEntity
 67
1
  8
0
100
AcDbBlockEnd
  0
ENDSEC
  0
SECTION
  2
ENTITIES
  0
LINE
  5
28
330
1A
100
AcDbEntity
  8
BLACK
  6
CONTINUOUS
100
AcDbLine
 10
1.6099299212598426
 20
1.1943960236220472
 30
0
 11
1.6230032283464566
 21
1.191795590551181
 31
0
  0
LINE
  5
29
330
1A
100
AcDbEntity
  8
BLACK
  6
CONTINUOUS
100
AcDbLine
 10
1.6230032283464566
 20
1.191795590551181
 30
0
 11
1.6357586614173227
 21
1.1879262598425198
 31
0
  0
LINE
  5
2A
330
1A
100
AcDbEntity
  8
BLACK
  6
CONTINUOUS
100
AcDbLine
 10
1.6357586614173227
 20
1.1879262598425198
 30
0
 11
1.6480734251968503
 21
1.1828253149606298
 31
0
  0
LINE
  5
2B
330
1A
100
AcDbEntity
  8
BLACK
  6
CONTINUOUS
100
AcDbLine
 10
1.6480734251968503
 20
1.1828253149606298
 30
0
 11
1.6598288976377953
 21
1.1765418897637796
 31
0
  0
LINE
  5
2C
330
1A
100
AcDbEntity
  8
BLACK
  6
CONTINUOUS
100
AcDbLine
 10
1.6598288976377953
 20
1.1765418897637796
 30
0
 11
1.6709119291338583
 21
1.1691364566929134
 31
0
  0
LINE
  5
2D
330
1A
100
AcDbEntity
  8
BLACK
  6
CONTINUOUS
100
AcDbLine
 10
1.6709119291338583
 20
1.1691364566929134
 30
0
 11
1.6812156692913385
 21
1.1606803543307087
 31
0
  0
LINE
  5
2E
330
1A
100
AcDbEntity
  8
BLACK
  6
CONTINUOUS
100
AcDbLine
 10
1.6812156692913385
 20
1.1606803543307087
 30
0
 11
1.6906409842519685
 21
1.1512550393700787
 31
0
  0
LINE
  5
2F
330
1A
100
AcDbEntity
  8
BLACK
  6
CONTINUOUS
100
AcDbLine
 10
1.6906409842519685
 20
1.1512550393700787
 30
0
 11
1.6990970866141732
 21
1.1409512992125983
 31
0
  0
LINE
  5
30
330
1A
100
AcDbEntity
  8
BLACK
  6
CONTINUOUS
100
AcDbLine
 10
1.6990970866141732
 20
1.1409512992125983
 30
0
 11
1.7065025196850394
 21
1.1298682677165355
 31
0
  0
LINE
  5
31
330
1A
100
AcDbEntity
  8
BLACK
  6
CONTINUOUS
100
AcDbLine
 10
1.7065025196850394
 20
1.1298682677165355
 30
0
 11
1.7127859448818896
 21
1.1181127952755905
 31
0
  0
LINE
  5
32
330
1A
100
AcDbEntity
  8
BLACK
  6
CONTINUOUS
100
AcDbLine
 10
1.7127859448818896
 20
1.1181127952755905
 30
0
 11
1.7178868897637796
 21
1.1057980314960629
 31
0
  0
LINE
  5
33
330
1A
100
AcDbEntity
  8
BLACK
  6
CONTINUOUS
100
AcDbLine
 10
1.7178868897637796
 20
1.1057980314960629
 30
0
 11
1.7217562204724408
 21
1.0930425984251968
 31
0
  0
LINE
  5
34
330
1A
100
AcDbEntity
  8
BLACK
  6
CONTINUOUS
100
AcDbLine
 10
1.7217562204724408
 20
1.0930425984251968
 30
0
 11
1.724356653543307
 21
1.0799692913385825
 31
0
  0
LINE
  5
35
330
1A
100
AcDbEntity
  8
BLACK
  6
CONTINUOUS
100
AcDbLine
 10
1.724356653543307
 20
1.0799692913385825
 30
0
 11
1.7256631496062991
 21
1.0667040551181102
 31
0
  0
LINE
  5
36
330
1A
100
AcDbEntity
  8
BLACK
  6
CONTINUOUS
100
AcDbLine
 10
1.7256631496062991
 20
1.0667040551181102
 30
0
 11
1.7256631496062991
 21
1.0533746850393702
 31
0
  0
LINE
  5
37
330
1A
100
AcDbEntity
  8
BLACK
  6
CONTINUOUS
100
AcDbLine
 10
1.7256631496062991
 20
1.0533746850393702
 30
0
 11
1.724356653543307
 21
1.0401094488188976
 31
0
  0
LINE
  5
38
330
1A
100
AcDbEntity
  8
BLACK
  6
CONTINUOUS
100
AcDbLine
 10
1.724356653543307
 20
1.0401094488188976
 30
0
 11
1.7217562204724408
 21
1.0270361417322835
 31
0
  0
LINE
  5
39
330
1A
100
AcDbEntity
  8
BLACK
  6
CONTINUOUS
100
AcDbLine
 10
1.7217562204724408
 20
1.0270361417322835
 30
0
 11
1.7178868897637796
 21
1.0142807086614174
 31
0
  0
LINE
  5
3A
330
1A
100
AcDbEntity
  8
BLACK
  6
CONTINUOUS
100
AcDbLine
 10
1.7178868897637796
 20
1.0142807086614174
 30
0
 11
1.7127859448818896
 21
1.0019659448818898
 31
0
  0
LINE
  5
3B
330
1A
100
AcDbEntity
  8
BLACK
  6
CONTINUOUS
100
AcDbLine
 10
1.7127859448818896
 20
1.0019659448818898
 30
0
 11
1.7065025196850394
 21
0.9902104724409448
 31
0
  0
LINE
  5
3C
330
1A
100
AcDbEntity
  8
BLACK
  6
CONTINUOUS
100
AcDbLine
 10
1.7065025196850394
 20
0.9902104724409448
 30
0
 11
1.6990970866141732
 21
0.9791274409448819
 31
0
  0
LINE
  5
3D
330
1A
100
AcDbEntity
  8
BLACK
  6
CONTINUOUS
100
AcDbLine
 10
1.6990970866141732
 20
0.9791274409448819
 30
0
 11
1.6906409842519685
 21
0.9688237007874015
 31
0
  0
LINE
  5
3E
330
1A
100
AcDbEntity
  8
BLACK
  6
CONTINUOUS
100
AcDbLine
 10
1.6906409842519685
 20
0.9688237007874015
 30
0
 11
1.6812156692913385
 21
0.9593983858267716
 31
0
  0
LINE
  5
3F
330
1A
100
AcDbEntity
  8
BLACK
  6
CONTINUOUS
100
AcDbLine
 10
1.6812156692913385
 20
0.9593983858267716
 30
0
 11
1.6709119291338583
 21
0.9509422834645669
 31
0
  0
LINE
  5
40
330
1A
100
AcDbEntity
  8
BLACK
  6
CONTINUOUS
100
AcDbLine
 10
1.6709119291338583
 20
0.9509422834645669
 30
0
 11
1.6598288976377953
 21
0.9435368503937007
 31
0
  0
LINE
  5
41
330
1A
100
AcDbEntity
  8
BLACK
  6
CONTINUOUS
100
AcDbLine
 10
1.6598288976377953
 20
0.9435368503937007
 30
0
 11
1.6480734251968503
 21
0.9372534251968504
 31
0
  0
LINE
  5
42
330
1A
100
AcDbEntity
  8
BLACK
  6
CONTINUOUS
100
AcDbLine
 10
1.6480734251968503
 20
0.9372534251968504
 30
0
 11
1.6357586614173227
 21
0.9321524803149606
 31
0
  0
LINE
  5
43
330
1A
100
AcDbEntity
  8
BLACK
  6
CONTINUOUS
100
AcDbLine
 10
1.6357586614173227
 20
0.9321524803149606
 30
0
 11
1.6230032283464566
 21
0.9282831496062992
 31
0
  0
LINE
  5
44
330
1A
100
AcDbEntity
  8
BLACK
  6
CONTINUOUS
100
AcDbLine
 10
1.6230032283464566
 20
0.9282831496062992
 30
0
 11
1.6099299212598426
 21
0.9256827165354331
 31
0
  0
LINE
  5
45
330
1A
100
AcDbEntity
  8
BLACK
  6
CONTINUOUS
100
AcDbLine
 10
1.6099299212598426
 20
0.9256827165354331
 30
0
 11
1.59666468503937
 21
0.9243762204724409
 31
0
  0
LINE
  5
46
330
1A
100
AcDbEntity
  8
BLACK
  6
CONTINUOUS
100
AcDbLine
 10
1.59666468503937
 20
0.9243762204724409
 30
0
 11
1.58333531496063
 21
0.9243762204724409
 31
0
  0
LINE
  5
47
330
1A
100
AcDbEntity
  8
BLACK
  6
CONTINUOUS
100
AcDbLine
 10
1.58333531496063
 20
0.9243762204724409
 30
0
 11
1.5700700787401574
 21
0.9256827165354331
 31
0
  0
LINE
  5
48
330
1A
100
AcDbEntity
  8
BLACK
  6
CONTINUOUS
100
AcDbLine
 10
1.5700700787401574
 20
0.9256827165354331
 30
0
 11
1.5569967716535433
 21
0.9282831496062992
 31
0
  0
LINE
  5
49
330
1A
100
AcDbEntity
  8
BLACK
  6
CONTINUOUS
100
AcDbLine
 10
1.5569967716535433
 20
0.9282831496062992
 30
0
 11
1.5442413385826772
 21
0.9321524803149606
 31
0
  0
LINE
  5
4A
330
1A
100
AcDbEntity
  8
BLACK
  6
CONTINUOUS
100
AcDbLine
 10
1.5442413385826772
 20
0.9321524803149606
 30
0
 11
1.5319265748031496
 21
0.9372534251968504
 31
0
  0
LINE
  5
4B
330
1A
100
AcDbEntity
  8
BLACK
  6
CONTINUOUS
100
AcDbLine
 10
1.5319265748031496
 20
0.9372534251968504
 30
0
 11
1.5201711023622047
 21
0.9435368503937007
 31
0
  0
LINE
  5
4C
330
1A
100
AcDbEntity
  8
BLACK
  6
CONTINUOUS
100
AcDbLine
 10
1.5201711023622047
 20
0.9435368503937007
 30
0
 11
1.5090880708661416
 21
0.9509422834645669
 31
0
  0
LINE
  5
4D
330
1A
100
AcDbEntity
  8
BLACK
  6
CONTINUOUS
100
AcDbLine
 10
1.5090880708661416
 20
0.9509422834645669
 30
0
 11
1.4987843307086615
 21
0.9593983858267716
 31
0
  0
LINE
  5
4E
330
1A
100
AcDbEntity
  8
BLACK
  6
CONTINUOUS
100
AcDbLine
 10
1.4987843307086615
 20
0.9593983858267716
 30
0
 11
1.4893590157480314
 21
0.9688237007874015
 31
0
  0
LINE
  5
4F
330
1A
100
AcDbEntity
  8
BLACK
  6
CONTINUOUS
100
AcDbLine
 10
1.4893590157480314
 20
0.9688237007874015
 30
0
 11
1.4809029133858267
 21
0.9791274409448819
 31
0
  0
LINE
  5
50
330
1A
100
AcDbEntity
  8
BLACK
  6
CONTINUOUS
100
AcDbLine
 10
1.4809029133858267
 20
0.9791274409448819
 30
0
 11
1.4734974803149605
 21
0.9902104724409448
 31
0
  0
LINE
  5
51
330
1A
100
AcDbEntity
  8
BLACK
  6
CONTINUOUS
100
AcDbLine
 10
1.4734974803149605
 20
0.9902104724409448
 30
0
 11
1.4672140551181101
 21
1.0019659448818898
 31
0
  0
LINE
  5
52
330
1A
100
AcDbEntity
  8
BLACK
  6
CONTINUOUS
100
AcDbLine
 10
1.4672140551181101
 20
1.0019659448818898
 30
0
 11
1.4621131102362204
 21
1.0142807086614174
 31
0
  0
LINE
  5
53
330
1A
100
AcDbEntity
  8
BLACK
  6
CONTINUOUS
100
AcDbLine
 10
1.4621131102362204
 20
1.0142807086614174
 30
0
 11
1.4582437795275591
 21
1.0270361417322835
 31
0
  0
LINE
  5
54
330
1A
100
AcDbEntity
  8
BLACK
  6
CONTINUOUS
100
AcDbLine
 10
1.4582437795275591
 20
1.0270361417322835
 30
0
 11
1.4556433464566929
 21
1.0401094488188976
 31
0
  0
LINE
  5
55
330
1A
100
AcDbEntity
  8
BLACK
  6
CONTINUOUS
100
AcDbLine
 10
1.4556433464566929
 20
1.0401094488188976
 30
0
 11
1.4543368503937009
 21
1.0533746850393702
 31
0
  0
LINE
  5
56
330
1A
100
AcDbEntity
  8
BLACK
  6
CONTINUOUS
100
AcDbLine
 10
1.4543368503937009
 20
1.0533746850393702
 30
0
 11
1.4543368503937009
 21
1.0665187007874015
 31
0
  0
LINE
  5
57
330
1A
100
AcDbEntity
  8
BLACK
  6
CONTINUOUS
100
AcDbLine
 10
1.4543368503937009
 20
1.0665187007874015
 30
0
 11
1.4543368503937009
 21
1.0667040551181102
 31
0
  0
LINE
  5
58
330
1A
100
AcDbEntity
  8
BLACK
  6
CONTINUOUS
100
AcDbLine
 10
1.4543368503937009
 20
1.0667040551181102
 30
0
 11
1.4556433464566929
 21
1.0799692913385825
 31
0
  0
LINE
  5
59
330
1A
100
AcDbEntity
  8
BLACK
  6
CONTINUOUS
100
AcDbLine
 10
1.4556433464566929
 20
1.0799692913385825
 30
0
 11
1.4582437795275591
 21
1.0930425984251968
 31
0
  0
LINE
  5
5A
330
1A
100
AcDbEntity
  8
BLACK
  6
CONTINUOUS
100
AcDbLine
 10
1.4582437795275591
 20
1.0930425984251968
 30
0
 11
1.4621131102362204
 21
1.1057980314960629
 31
0
  0
LINE
  5
5B
330
1A
100
AcDbEntity
  8
BLACK
  6
CONTINUOUS
100
AcDbLine
 10
1.4621131102362204
 20
1.1057980314960629
 30
0
 11
1.4672140551181101
 21
1.1181127952755905
 31
0
  0
LINE
  5
5C
330
1A
100
AcDbEntity
  8
BLACK
  6
CONTINUOUS
100
AcDbLine
 10
1.4672140551181101
 20
1.1181127952755905
 30
0
 11
1.4734974803149605
 21
1.1298682677165355
 31
0
  0
LINE
  5
5D
330
1A
100
AcDbEntity
  8
BLACK
  6
CONTINUOUS
100
AcDbLine
 10
1.4734974803149605
 20
1.1298682677165355
 30
0
 11
1.4809029133858267
 21
1.1409512992125983
 31
0
  0
LINE
  5
5E
330
1A
100
AcDbEntity
  8
BLACK
  6
CONTINUOUS
100
AcDbLine
 10
1.4809029133858267
 20
1.1409512992125983
 30
0
 11
1.4893590157480314
 21
1.1512550393700787
 31
0
  0
LINE
  5
5F
330
1A
100
AcDbEntity
  8
BLACK
  6
CONTINUOUS
100
AcDbLine
 10
1.4893590157480314
 20
1.1512550393700787
 30
0
 11
1.4987843307086615
 21
1.1606803543307087
 31
0
  0
LINE
  5
60
330
1A
100
AcDbEntity
  8
BLACK
  6
CONTINUOUS
100
AcDbLine
 10
1.4987843307086615
 20
1.1606803543307087
 30
0
 11
1.5090880708661416
 21
1.1691364566929134
 31
0
  0
LINE
  5
61
330
1A
100
AcDbEntity
  8
BLACK
  6
CONTINUOUS
100
AcDbLine
 10
1.5090880708661416
 20
1.1691364566929134
 30
0
 11
1.5201711023622047
 21
1.1765418897637796
 31
0
  0
LINE
  5
62
330
1A
100
AcDbEntity
  8
BLACK
  6
CONTINUOUS
100
AcDbLine
 10
1.5201711023622047
 20
1.1765418897637796
 30
0
 11
1.5319265748031496
 21
1.1828253149606298
 31
0
  0
LINE
  5
63
330
1A
100
AcDbEntity
  8
BLACK
  6
CONTINUOUS
100
AcDbLine
 10
1.5319265748031496
 20
1.1828253149606298
 30
0
 11
1.5442413385826772
 21
1.1879262598425198
 31
0
  0
LINE
  5
64
330
1A
100
AcDbEntity
  8
BLACK
  6
CONTINUOUS
100
AcDbLine
 10
1.5442413385826772
 20
1.1879262598425198
 30
0
 11
1.5569967716535433
 21
1.191795590551181
 31
0
  0
LINE
  5
65
330
1A
100
AcDbEntity
  8
BLACK
  6
CONTINUOUS
100
AcDbLine
 10
1.5569967716535433
 20
1.191795590551181
 30
0
 11
1.5700700787401574
 21
1.1943960236220472
 31
0
  0
LINE
  5
66
330
1A
100
AcDbEntity
  8
BLACK
  6
CONTINUOUS
100
AcDbLine
 10
1.5700700787401574
 20
1.1943960236220472
 30
0
 11
1.58333531496063
 21
1.1957025196850393
 31
0
  0
LINE
  5
67
330
1A
100
AcDbEntity
  8
BLACK
  6
CONTINUOUS
100
AcDbLine
 10
1.58333531496063
 20
1.1957025196850393
 30
0
 11
1.59666468503937
 21
1.1957025196850393
 31
0
  0
LINE
  5
68
330
1A
100
AcDbEntity
  8
BLACK
  6
CONTINUOUS
100
AcDbLine
 10
1.59666468503937
 20
1.1957025196850393
 30
0
 11
1.6099299212598426
 21
1.1943960236220472
 31
0
  0
LINE
  5
69
330
1A
100
AcDbEntity
  8
BLACK
  6
CONTINUOUS
100
AcDbLine
 10
1.4581102362204723
 20
1.0535600393700788
 30
0
 11
1.4593803937007874
 21
1.0406637795275591
 31
0
  0
LINE
  5
6A
330
1A
100
AcDbEntity
  8
BLACK
  6
CONTINUOUS
100
AcDbLine
 10
1.4593803937007874
 20
1.0406637795275591
 30
0
 11
1.4619085039370079
 21
1.0279541338582676
 31
0
  0
LINE
  5
6B
330
1A
100
AcDbEntity
  8
BLACK
  6
CONTINUOUS
100
AcDbLine
 10
1.4619085039370079
 20
1.0279541338582676
 30
0
 11
1.4656702362204723
 21
1.0155534645669291
 31
0
  0
LINE
  5
6C
330
1A
100
AcDbEntity
  8
BLACK
  6
CONTINUOUS
100
AcDbLine
 10
1.4656702362204723
 20
1.0155534645669291
 30
0
 11
1.4706292913385826
 21
1.003581220472441
 31
0
  0
LINE
  5
6D
330
1A
100
AcDbEntity
  8
BLACK
  6
CONTINUOUS
100
AcDbLine
 10
1.4706292913385826
 20
1.003581220472441
 30
0
 11
1.4767379527559055
 21
0.992152716535433
 31
0
  0
LINE
  5
6E
330
1A
100
AcDbEntity
  8
BLACK
  6
CONTINUOUS
100
AcDbLine
 10
1.4767379527559055
 20
0.992152716535433
 30
0
 11
1.483937401574803
 21
0.9813779921259842
 31
0
  0
LINE
  5
6F
330
1A
100
AcDbEntity
  8
BLACK
  6
CONTINUOUS
100
AcDbLine
 10
1.483937401574803
 20
0.9813779921259842
 30
0
 11
1.4921582677165355
 21
0.9713607874015748
 31
0
  0
LINE
  5
70
330
1A
100
AcDbEntity
  8
BLACK
  6
CONTINUOUS
100
AcDbLine
 10
1.4921582677165355
 20
0.9713607874015748
 30
0
 11
1.5013214173228346
 21
0.9621976377952756
 31
0
  0
LINE
  5
71
330
1A
100
AcDbEntity
  8
BLACK
  6
CONTINUOUS
100
AcDbLine
 10
1.5013214173228346
 20
0.9621976377952756
 30
0
 11
1.511338622047244
 21
0.9539767716535433
 31
0
  0
LINE
  5
72
330
1A
100
AcDbEntity
  8
BLACK
  6
CONTINUOUS
100
AcDbLine
 10
1.511338622047244
 20
0.9539767716535433
 30
0
 11
1.5221133464566929
 21
0.9467773228346457
 31
0
  0
LINE
  5
73
330
1A
100
AcDbEntity
  8
BLACK
  6
CONTINUOUS
100
AcDbLine
 10
1.5221133464566929
 20
0.9467773228346457
 30
0
 11
1.5335418503937008
 21
0.9406686614173229
 31
0
  0
LINE
  5
74
330
1A
100
AcDbEntity
  8
BLACK
  6
CONTINUOUS
100
AcDbLine
 10
1.5335418503937008
 20
0.9406686614173229
 30
0
 11
1.5455140944881889
 21
0.9357096062992126
 31
0
  0
LINE
  5
75
330
1A
100
AcDbEntity
  8
BLACK
  6
CONTINUOUS
100
AcDbLine
 10
1.5455140944881889
 20
0.9357096062992126
 30
0
 11
1.5579147637795274
 21
0.931947874015748
 31
0
  0
LINE
  5
76
330
1A
100
AcDbEntity
  8
BLACK
  6
CONTINUOUS
100
AcDbLine
 10
1.5579147637795274
 20
0.931947874015748
 30
0
 11
1.5706244094488189
 21
0.9294197637795275
 31
0
  0
LINE
  5
77
330
1A
100
AcDbEntity
  8
BLACK
  6
CONTINUOUS
100
AcDbLine
 10
1.5706244094488189
 20
0.9294197637795275
 30
0
 11
1.5835206692913386
 21
0.9281496062992126
 31
0
  0
LINE
  5
78
330
1A
100
AcDbEntity
  8
BLACK
  6
CONTINUOUS
100
AcDbLine
 10
1.5835206692913386
 20
0.9281496062992126
 30
0
 11
1.5964793307086613
 21
0.9281496062992126
 31
0
  0
LINE
  5
79
330
1A
100
AcDbEntity
  8
BLACK
  6
CONTINUOUS
100
AcDbLine
 10
1.5964793307086613
 20
0.9281496062992126
 30
0
 11
1.6093755905511811
 21
0.9294197637795275
 31
0
  0
LINE
  5
7A
330
1A
100
AcDbEntity
  8
BLACK
  6
CONTINUOUS
100
AcDbLine
 10
1.6093755905511811
 20
0.9294197637795275
 30
0
 11
1.6220852362204725
 21
0.931947874015748
 31
0
  0
LINE
  5
7B
330
1A
100
AcDbEntity
  8
BLACK
  6
CONTINUOUS
100
AcDbLine
 10
1.6220852362204725
 20
0.931947874015748
 30
0
 11
1.6344859055118111
 21
0.9357096062992126
 31
0
  0
LINE
  5
7C
330
1A
100
AcDbEntity
  8
BLACK
  6
CONTINUOUS
100
AcDbLine
 10
1.6344859055118111
 20
0.9357096062992126
 30
0
 11
1.6464581496062991
 21
0.9406686614173229
 31
0
  0
LINE
  5
7D
330
1A
100
AcDbEntity
  8
BLACK
  6
CONTINUOUS
100
AcDbLine
 10
1.6464581496062991
 20
0.9406686614173229
 30
0
 11
1.657886653543307
 21
0.9467773228346457
 31
0
  0
LINE
  5
7E
330
1A
100
AcDbEntity
  8
BLACK
  6
CONTINUOUS
100
AcDbLine
 10
1.657886653543307
 20
0.9467773228346457
 30
0
 11
1.6686613779527559
 21
0.9539767716535433
 31
0
  0
LINE
  5
7F
330
1A
100
AcDbEntity
  8
BLACK
  6
CONTINUOUS
100
AcDbLine
 10
1.6686613779527559
 20
0.9539767716535433
 30
0
 11
1.6786785826771653
 21
0.9621976377952756
 31
0
  0
LINE
  5
80
330
1A
100
AcDbEntity
  8
BLACK
  6
CONTINUOUS
100
AcDbLine
 10
1.6786785826771653
 20
0.9621976377952756
 30
0
 11
1.6878417322834645
 21
0.9713607874015748
 31
0
  0
LINE
  5
81
330
1A
100
AcDbEntity
  8
BLACK
  6
CONTINUOUS
100
AcDbLine
 10
1.6878417322834645
 20
0.9713607874015748
 30
0
 11
1.6960625984251969
 21
0.9813779921259842
 31
0
  0
LINE
  5
82
330
1A
100
AcDbEntity
  8
BLACK
  6
CONTINUOUS
100
AcDbLine
 10
1.6960625984251969
 20
0.9813779921259842
 30
0
 11
1.7032620472440945
 21
0.992152716535433
 31
0
  0
LINE
  5
83
330
1A
100
AcDbEntity
  8
BLACK
  6
CONTINUOUS
100
AcDbLine
 10
1.7032620472440945
 20
0.992152716535433
 30
0
 11
1.7093707086614174
 21
1.003581220472441
 31
0
  0
LINE
  5
84
330
1A
100
AcDbEntity
  8
BLACK
  6
CONTINUOUS
100
AcDbLine
 10
1.7093707086614174
 20
1.003581220472441
 30
0
 11
1.7143297637795276
 21
1.0155534645669291
 31
0
  0
LINE
  5
85
330
1A
100
AcDbEntity
  8
BLACK
  6
CONTINUOUS
100
AcDbLine
 10
1.7143297637795276
 20
1.0155534645669291
 30
0
 11
1.7180914960629921
 21
1.0279541338582676
 31
0
  0
LINE
  5
86
330
1A
100
AcDbEntity
  8
BLACK
  6
CONTINUOUS
100
AcDbLine
 10
1.7180914960629921
 20
1.0279541338582676
 30
0
 11
1.7206196062992125
 21
1.0406637795275591
 31
0
  0
LINE
  5
87
330
1A
100
AcDbEntity
  8
BLACK
  6
CONTINUOUS
100
AcDbLine
 10
1.7206196062992125
 20
1.0406637795275591
 30
0
 11
1.7218897637795276
 21
1.0535600393700788
 31
0
  0
LINE
  5
88
330
1A
100
AcDbEntity
  8
BLACK
  6
CONTINUOUS
100
AcDbLine
 10
1.7218897637795276
 20
1.0535600393700788
 30
0
 11
1.7218897637795276
 21
1.0665187007874015
 31
0
  0
LINE
  5
89
330
1A
100
AcDbEntity
  8
BLACK
  6
CONTINUOUS
100
AcDbLine
 10
1.7218897637795276
 20
1.0665187007874015
 30
0
 11
1.7206196062992125
 21
1.0794149606299213
 31
0
  0
LINE
  5
8A
330
1A
100
AcDbEntity
  8
BLACK
  6
CONTINUOUS
100
AcDbLine
 10
1.7206196062992125
 20
1.0794149606299213
 30
0
 11
1.7180914960629921
 21
1.0921246062992125
 31
0
  0
LINE
  5
8B
330
1A
100
AcDbEntity
  8
BLACK
  6
CONTINUOUS
100
AcDbLine
 10
1.7180914960629921
 20
1.0921246062992125
 30
0
 11
1.7143297637795276
 21
1.1045252755905512
 31
0
  0
LINE
  5
8C
330
1A
100
AcDbEntity
  8
BLACK
  6
CONTINUOUS
100
AcDbLine
 10
1.7143297637795276
 20
1.1045252755905512
 30
0
 11
1.7093707086614174
 21
1.1164975196850393
 31
0
  0
LINE
  5
8D
330
1A
100
AcDbEntity
  8
BLACK
  6
CONTINUOUS
100
AcDbLine
 10
1.7093707086614174
 20
1.1164975196850393
 30
0
 11
1.7032620472440945
 21
1.1279260236220472
 31
0
  0
LINE
  5
8E
330
1A
100
AcDbEntity
  8
BLACK
  6
CONTINUOUS
100
AcDbLine
 10
1.7032620472440945
 20
1.1279260236220472
 30
0
 11
1.6960625984251969
 21
1.1387007480314961
 31
0
  0
LINE
  5
8F
330
1A
100
AcDbEntity
  8
BLACK
  6
CONTINUOUS
100
AcDbLine
 10
1.6960625984251969
 20
1.1387007480314961
 30
0
 11
1.6878417322834645
 21
1.1487179527559055
 31
0
  0
LINE
  5
90
330
1A
100
AcDbEntity
  8
BLACK
  6
CONTINUOUS
100
AcDbLine
 10
1.6878417322834645
 20
1.1487179527559055
 30
0
 11
1.6786785826771653
 21
1.1578811023622047
 31
0
  0
LINE
  5
91
330
1A
100
AcDbEntity
  8
BLACK
  6
CONTINUOUS
100
AcDbLine
 10
1.6786785826771653
 20
1.1578811023622047
 30
0
 11
1.6686613779527559
 21
1.1661019685039369
 31
0
  0
LINE
  5
92
330
1A
100
AcDbEntity
  8
BLACK
  6
CONTINUOUS
100
AcDbLine
 10
1.6686613779527559
 20
1.1661019685039369
 30
0
 11
1.657886653543307
 21
1.1733014173228347
 31
0
  0
LINE
  5
93
330
1A
100
AcDbEntity
  8
BLACK
  6
CONTINUOUS
100
AcDbLine
 10
1.657886653543307
 20
1.1733014173228347
 30
0
 11
1.6464581496062991
 21
1.1794100787401574
 31
0
  0
LINE
  5
94
330
1A
100
AcDbEntity
  8
BLACK
  6
CONTINUOUS
100
AcDbLine
 10
1.6464581496062991
 20
1.1794100787401574
 30
0
 11
1.6344859055118111
 21
1.1843691338582676
 31
0
  0
LINE
  5
95
330
1A
100
AcDbEntity
  8
BLACK
  6
CONTINUOUS
100
AcDbLine
 10
1.6344859055118111
 20
1.1843691338582676
 30
0
 11
1.6220852362204725
 21
1.1881308661417322
 31
0
  0
LINE
  5
96
330
1A
100
AcDbEntity
  8
BLACK
  6
CONTINUOUS
100
AcDbLine
 10
1.6220852362204725
 20
1.1881308661417322
 30
0
 11
1.6093755905511811
 21
1.1906589763779527
 31
0
  0
LINE
  5
97
330
1A
100
AcDbEntity
  8
BLACK
  6
CONTINUOUS
100
AcDbLine
 10
1.6093755905511811
 20
1.1906589763779527
 30
0
 11
1.5964793307086613
 21
1.1919291338582676
 31
0
  0
LINE
  5
98
330
1A
100
AcDbEntity
  8
BLACK
  6
CONTINUOUS
100
AcDbLine
 10
1.5964793307086613
 20
1.1919291338582676
 30
0
 11
1.5835206692913386
 21
1.1919291338582676
 31
0
  0
LINE
  5
99
330
1A
100
AcDbEntity
  8
BLACK
  6
CONTINUOUS
100
AcDbLine
 10
1.5835206692913386
 20
1.1919291338582676
 30
0
 11
1.5706244094488189
 21
1.1906589763779527
 31
0
  0
LINE
  5
9A
330
1A
100
AcDbEntity
  8
BLACK
  6
CONTINUOUS
100
AcDbLine
 10
1.5706244094488189
 20
1.1906589763779527
 30
0
 11
1.5579147637795274
 21
1.1881308661417322
 31
0
  0
LINE
  5
9B
330
1A
100
AcDbEntity
  8
BLACK
  6
CONTINUOUS
100
AcDbLine
 10
1.5579147637795274
 20
1.1881308661417322
 30
0
 11
1.5455140944881889
 21
1.1843691338582676
 31
0
  0
LINE
  5
9C
330
1A
100
AcDbEntity
  8
BLACK
  6
CONTINUOUS
100
AcDbLine
 10
1.5455140944881889
 20
1.1843691338582676
 30
0
 11
1.5335418503937008
 21
1.1794100787401574
 31
0
  0
LINE
  5
9D
330
1A
100
AcDbEntity
  8
BLACK
  6
CONTINUOUS
100
AcDbLine
 10
1.5335418503937008
 20
1.1794100787401574
 30
0
 11
1.5221133464566929
 21
1.1733014173228347
 31
0
  0
LINE
  5
9E
330
1A
100
AcDbEntity
  8
BLACK
  6
CONTINUOUS
100
AcDbLine
 10
1.5221133464566929
 20
1.1733014173228347
 30
0
 11
1.511338622047244
 21
1.1661019685039369
 31
0
  0
LINE
  5
9F
330
1A
100
AcDbEntity
  8
BLACK
  6
CONTINUOUS
100
AcDbLine
 10
1.511338622047244
 20
1.1661019685039369
 30
0
 11
1.5013214173228346
 21
1.1578811023622047
 31
0
  0
LINE
  5
A0
330
1A
100
AcDbEntity
  8
BLACK
  6
CONTINUOUS
100
AcDbLine
 10
1.5013214173228346
 20
1.1578811023622047
 30
0
 11
1.4921582677165355
 21
1.1487179527559055
 31
0
  0
LINE
  5
A1
330
1A
100
AcDbEntity
  8
BLACK
  6
CONTINUOUS
100
AcDbLine
 10
1.4921582677165355
 20
1.1487179527559055
 30
0
 11
1.483937401574803
 21
1.1387007480314961
 31
0
  0
LINE
  5
A2
330
1A
100
AcDbEntity
  8
BLACK
  6
CONTINUOUS
100
AcDbLine
 10
1.483937401574803
 20
1.1387007480314961
 30
0
 11
1.4767379527559055
 21
1.1279260236220472
 31
0
  0
LINE
  5
A3
330
1A
100
AcDbEntity
  8
BLACK
  6
CONTINUOUS
100
AcDbLine
 10
1.4767379527559055
 20
1.1279260236220472
 30
0
 11
1.4706292913385826
 21
1.1164975196850393
 31
0
  0
LINE
  5
A4
330
1A
100
AcDbEntity
  8
BLACK
  6
CONTINUOUS
100
AcDbLine
 10
1.4706292913385826
 20
1.1164975196850393
 30
0
 11
1.4656702362204723
 21
1.1045252755905512
 31
0
  0
LINE
  5
A5
330
1A
100
AcDbEntity
  8
BLACK
  6
CONTINUOUS
100
AcDbLine
 10
1.4656702362204723
 20
1.1045252755905512
 30
0
 11
1.4619085039370079
 21
1.0921246062992125
 31
0
  0
LINE
  5
A6
330
1A
100
AcDbEntity
  8
BLACK
  6
CONTINUOUS
100
AcDbLine
 10
1.4619085039370079
 20
1.0921246062992125
 30
0
 11
1.4593803937007874
 21
1.0794149606299213
 31
0
  0
LINE
  5
A7
330
1A
100
AcDbEntity
  8
BLACK
  6
CONTINUOUS
100
AcDbLine
 10
1.4593803937007874
 20
1.0794149606299213
 30
0
 11
1.4581102362204723
 21
1.0665187007874015
 31
0
  0
LINE
  5
A8
330
1A
100
AcDbEntity
  8
BLACK
  6
CONTINUOUS
100
AcDbLine
 10
1.4581102362204723
 20
1.0665187007874015
 30
0
 11
1.4581102362204723
 21
1.0535600393700788
 31
0
  0
LINE
  5
A9
330
1A
100
AcDbEntity
  8
BLACK
  6
CONTINUOUS
100
AcDbLine
 10
-1.3219238582677164
 20
1.7968974015748032
 30
0
 11
-1.3208585039370078
 21
1.7958320472440945
 31
0
  0
LINE
  5
AA
330
1A
100
AcDbEntity
  8
BLACK
  6
CONTINUOUS
100
AcDbLine
 10
-1.3208585039370078
 20
1.7958320472440945
 30
0
 11
-1.3207086614173229
 21
1.7950787401574804
 31
0
  0
LINE
  5
AB
330
1A
100
AcDbEntity
  8
BLACK
  6
CONTINUOUS
100
AcDbLine
 10
-1.3207086614173229
 20
1.7950787401574804
 30
0
 11
-1.3207086614173229
 21
0.9694881889763779
 31
0
  0
LINE
  5
AC
330
1A
100
AcDbEntity
  8
BLACK
  6
CONTINUOUS
100
AcDbLine
 10
-1.3207086614173229
 20
0.9694881889763779
 30
0
 11
-1.3208585039370078
 21
0.9687348818897638
 31
0
  0
LINE
  5
AD
330
1A
100
AcDbEntity
  8
BLACK
  6
CONTINUOUS
100
AcDbLine
 10
-1.3208585039370078
 20
0.9687348818897638
 30
0
 11
-1.3219238582677164
 21
0.9676695275590551
 31
0
  0
LINE
  5
AE
330
1A
100
AcDbEntity
  8
BLACK
  6
CONTINUOUS
100
AcDbLine
 10
-1.3219238582677164
 20
0.9676695275590551
 30
0
 11
-1.3226771653543308
 21
0.96751968503937
 31
0
  0
LINE
  5
AF
330
1A
100
AcDbEntity
  8
BLACK
  6
CONTINUOUS
100
AcDbLine
 10
-1.3226771653543308
 20
0.96751968503937
 30
0
 11
-1.67503937007874
 21
0.96751968503937
 31
0
  0
LINE
  5
B0
330
1A
100
AcDbEntity
  8
BLACK
  6
CONTINUOUS
100
AcDbLine
 10
-1.67503937007874
 20
0.96751968503937
 30
0
 11
-1.6757926771653542
 21
0.9676695275590551
 31
0
  0
LINE
  5
B1
330
1A
100
AcDbEntity
  8
BLACK
  6
CONTINUOUS
100
AcDbLine
 10
-1.6757926771653542
 20
0.9676695275590551
 30
0
 11
-1.6768580314960631
 21
0.9687348818897638
 31
0
  0
LINE
  5
B2
330
1A
100
AcDbEntity
  8
BLACK
  6
CONTINUOUS
100
AcDbLine
 10
-1.6768580314960631
 20
0.9687348818897638
 30
0
 11
-1.6770078740157479
 21
0.9694881889763779
 31
0
  0
LINE
  5
B3
330
1A
100
AcDbEntity
  8
BLACK
  6
CONTINUOUS
100
AcDbLine
 10
-1.6770078740157479
 20
0.9694881889763779
 30
0
 11
-1.6770078740157479
 21
1.7950787401574804
 31
0
  0
LINE
  5
B4
330
1A
100
AcDbEntity
  8
BLACK
  6
CONTINUOUS
100
AcDbLine
 10
-1.6770078740157479
 20
1.7950787401574804
 30
0
 11
-1.6768580314960631
 21
1.7958320472440945
 31
0
  0
LINE
  5
B5
330
1A
100
AcDbEntity
  8
BLACK
  6
CONTINUOUS
100
AcDbLine
 10
-1.6768580314960631
 20
1.7958320472440945
 30
0
 11
-1.6757926771653542
 21
1.7968974015748032
 31
0
  0
LINE
  5
B6
330
1A
100
AcDbEntity
  8
BLACK
  6
CONTINUOUS
100
AcDbLine
 10
-1.6757926771653542
 20
1.7968974015748032
 30
0
 11
-1.67503937007874
 21
1.7970472440944882
 31
0
  0
LINE
  5
B7
330
1A
100
AcDbEntity
  8
BLACK
  6
CONTINUOUS
100
AcDbLine
 10
-1.67503937007874
 20
1.7970472440944882
 30
0
 11
-1.3226771653543308
 21
1.7970472440944882
 31
0
  0
LINE
  5
B8
330
1A
100
AcDbEntity
  8
BLACK
  6
CONTINUOUS
100
AcDbLine
 10
-1.3226771653543308
 20
1.7970472440944882
 30
0
 11
-1.3219238582677164
 21
1.7968974015748032
 31
0
  0
LINE
  5
B9
330
1A
100
AcDbEntity
  8
BLACK
  6
CONTINUOUS
100
AcDbLine
 10
-1.6730708661417322
 20
0.9714566929133858
 30
0
 11
-1.6416027559055117
 21
0.9714566929133858
 31
0
  0
LINE
  5
BA
330
1A
100
AcDbEntity
  8
BLACK
  6
CONTINUOUS
100
AcDbLine
 10
-1.6416027559055117
 20
0.9714566929133858
 30
0
 11
-1.6730708661417322
 21
1.0029248031496063
 31
0
  0
LINE
  5
BB
330
1A
100
AcDbEntity
  8
BLACK
  6
CONTINUOUS
100
AcDbLine
 10
-1.6730708661417322
 20
1.0029248031496063
 30
0
 11
-1.6730708661417322
 21
0.9714566929133858
 31
0
  0
LINE
  5
BC
330
1A
100
AcDbEntity
  8
BLACK
  6
CONTINUOUS
100
AcDbLine
 10
-1.6730708661417322
 20
1.0084925196850394
 30
0
 11
-1.6360350393700787
 21
0.9714566929133858
 31
0
  0
LINE
  5
BD
330
1A
100
AcDbEntity
  8
BLACK
  6
CONTINUOUS
100
AcDbLine
 10
-1.6360350393700787
 20
0.9714566929133858
 30
0
 11
-1.5628626377952755
 21
0.9714566929133858
 31
0
  0
LINE
  5
BE
330
1A
100
AcDbEntity
  8
BLACK
  6
CONTINUOUS
100
AcDbLine
 10
-1.5628626377952755
 20
0.9714566929133858
 30
0
 11
-1.6730708661417322
 21
1.0816649606299213
 31
0
  0
LINE
  5
BF
330
1A
100
AcDbEntity
  8
BLACK
  6
CONTINUOUS
100
AcDbLine
 10
-1.6730708661417322
 20
1.0816649606299213
 30
0
 11
-1.6730708661417322
 21
1.0084925196850394
 31
0
  0
LINE
  5
C0
330
1A
100
AcDbEntity
  8
BLACK
  6
CONTINUOUS
100
AcDbLine
 10
-1.6730708661417322
 20
1.087232716535433
 30
0
 11
-1.5572948425196851
 21
0.9714566929133858
 31
0
  0
LINE
  5
C1
330
1A
100
AcDbEntity
  8
BLACK
  6
CONTINUOUS
100
AcDbLine
 10
-1.5572948425196851
 20
0.9714566929133858
 30
0
 11
-1.4841224803149606
 21
0.9714566929133858
 31
0
  0
LINE
  5
C2
330
1A
100
AcDbEntity
  8
BLACK
  6
CONTINUOUS
100
AcDbLine
 10
-1.4841224803149606
 20
0.9714566929133858
 30
0
 11
-1.6730708661417322
 21
1.1604051181102362
 31
0
  0
LINE
  5
C3
330
1A
100
AcDbEntity
  8
BLACK
  6
CONTINUOUS
100
AcDbLine
 10
-1.6730708661417322
 20
1.1604051181102362
 30
0
 11
-1.6730708661417322
 21
1.087232716535433
 31
0
  0
LINE
  5
C4
330
1A
100
AcDbEntity
  8
BLACK
  6
CONTINUOUS
100
AcDbLine
 10
-1.6730708661417322
 20
1.165972874015748
 30
0
 11
-1.47855468503937
 21
0.9714566929133858
 31
0
  0
LINE
  5
C5
330
1A
100
AcDbEntity
  8
BLACK
  6
CONTINUOUS
100
AcDbLine
 10
-1.47855468503937
 20
0.9714566929133858
 30
0
 11
-1.4053823228346456
 21
0.9714566929133858
 31
0
  0
LINE
  5
C6
330
1A
100
AcDbEntity
  8
BLACK
  6
CONTINUOUS
100
AcDbLine
 10
-1.4053823228346456
 20
0.9714566929133858
 30
0
 11
-1.6730708661417322
 21
1.2391452755905512
 31
0
  0
LINE
  5
C7
330
1A
100
AcDbEntity
  8
BLACK
  6
CONTINUOUS
100
AcDbLine
 10
-1.6730708661417322
 20
1.2391452755905512
 30
0
 11
-1.6730708661417322
 21
1.165972874015748
 31
0
  0
LINE
  5
C8
330
1A
100
AcDbEntity
  8
BLACK
  6
CONTINUOUS
100
AcDbLine
 10
-1.6730708661417322
 20
1.244713031496063
 30
0
 11
-1.399814527559055
 21
0.9714566929133858
 31
0
  0
LINE
  5
C9
330
1A
100
AcDbEntity
  8
BLACK
  6
CONTINUOUS
100
AcDbLine
 10
-1.399814527559055
 20
0.9714566929133858
 30
0
 11
-1.3266421653543308
 21
0.9714566929133858
 31
0
  0
LINE
  5
CA
330
1A
100
AcDbEntity
  8
BLACK
  6
CONTINUOUS
100
AcDbLine
 10
-1.3266421653543308
 20
0.9714566929133858
 30
0
 11
-1.6730708661417322
 21
1.317885433070866
 31
0
  0
LINE
  5
CB
330
1A
100
AcDbEntity
  8
BLACK
  6
CONTINUOUS
100
AcDbLine
 10
-1.6730708661417322
 20
1.317885433070866
 30
0
 11
-1.6730708661417322
 21
1.244713031496063
 31
0
  0
LINE
  5
CC
330
1A
100
AcDbEntity
  8
BLACK
  6
CONTINUOUS
100
AcDbLine
 10
-1.6730708661417322
 20
1.3234531889763779
 30
0
 11
-1.3246456692913386
 21
0.9750279921259842
 31
0
  0
LINE
  5
CD
330
1A
100
AcDbEntity
  8
BLACK
  6
CONTINUOUS
100
AcDbLine
 10
-1.3246456692913386
 20
0.9750279921259842
 30
0
 11
-1.3246456692913386
 21
1.0482003937007873
 31
0
  0
LINE
  5
CE
330
1A
100
AcDbEntity
  8
BLACK
  6
CONTINUOUS
100
AcDbLine
 10
-1.3246456692913386
 20
1.0482003937007873
 30
0
 11
-1.6730708661417322
 21
1.3966255905511811
 31
0
  0
LINE
  5
CF
330
1A
100
AcDbEntity
  8
BLACK
  6
CONTINUOUS
100
AcDbLine
 10
-1.6730708661417322
 20
1.3966255905511811
 30
0
 11
-1.6730708661417322
 21
1.3234531889763779
 31
0
  0
LINE
  5
D0
330
1A
100
AcDbEntity
  8
BLACK
  6
CONTINUOUS
100
AcDbLine
 10
-1.6730708661417322
 20
1.4021933464566929
 30
0
 11
-1.3246456692913386
 21
1.0537681496062992
 31
0
  0
LINE
  5
D1
330
1A
100
AcDbEntity
  8
BLACK
  6
CONTINUOUS
100
AcDbLine
 10
-1.3246456692913386
 20
1.0537681496062992
 30
0
 11
-1.3246456692913386
 21
1.1269405511811024
 31
0
  0
LINE
  5
D2
330
1A
100
AcDbEntity
  8
BLACK
  6
CONTINUOUS
100
AcDbLine
 10
-1.3246456692913386
 20
1.1269405511811024
 30
0
 11
-1.6730708661417322
 21
1.4753657480314961
 31
0
  0
LINE
  5
D3
330
1A
100
AcDbEntity
  8
BLACK
  6
CONTINUOUS
100
AcDbLine
 10
-1.6730708661417322
 20
1.4753657480314961
 30
0
 11
-1.6730708661417322
 21
1.4021933464566929
 31
0
  0
LINE
  5
D4
330
1A
100
AcDbEntity
  8
BLACK
  6
CONTINUOUS
100
AcDbLine
 10
-1.6730708661417322
 20
1.4809335039370077
 30
0
 11
-1.3246456692913386
 21
1.1325083070866142
 31
0
  0
LINE
  5
D5
330
1A
100
AcDbEntity
  8
BLACK
  6
CONTINUOUS
100
AcDbLine
 10
-1.3246456692913386
 20
1.1325083070866142
 30
0
 11
-1.3246456692913386
 21
1.2056807086614172
 31
0
  0
LINE
  5
D6
330
1A
100
AcDbEntity
  8
BLACK
  6
CONTINUOUS
100
AcDbLine
 10
-1.3246456692913386
 20
1.2056807086614172
 30
0
 11
-1.6730708661417322
 21
1.5541059055118109
 31
0
  0
LINE
  5
D7
330
1A
100
AcDbEntity
  8
BLACK
  6
CONTINUOUS
100
AcDbLine
 10
-1.6730708661417322
 20
1.5541059055118109
 30
0
 11
-1.6730708661417322
 21
1.4809335039370077
 31
0
  0
LINE
  5
D8
330
1A
100
AcDbEntity
  8
BLACK
  6
CONTINUOUS
100
AcDbLine
 10
-1.6730708661417322
 20
1.5596736614173228
 30
0
 11
-1.3246456692913386
 21
1.211248464566929
 31
0
  0
LINE
  5
D9
330
1A
100
AcDbEntity
  8
BLACK
  6
CONTINUOUS
100
AcDbLine
 10
-1.3246456692913386
 20
1.211248464566929
 30
0
 11
-1.3246456692913386
 21
1.2844208661417322
 31
0
  0
LINE
  5
DA
330
1A
100
AcDbEntity
  8
BLACK
  6
CONTINUOUS
100
AcDbLine
 10
-1.3246456692913386
 20
1.2844208661417322
 30
0
 11
-1.6730708661417322
 21
1.632846062992126
 31
0
  0
LINE
  5
DB
330
1A
100
AcDbEntity
  8
BLACK
  6
CONTINUOUS
100
AcDbLine
 10
-1.6730708661417322
 20
1.632846062992126
 30
0
 11
-1.6730708661417322
 21
1.5596736614173228
 31
0
  0
LINE
  5
DC
330
1A
100
AcDbEntity
  8
BLACK
  6
CONTINUOUS
100
AcDbLine
 10
-1.6730708661417322
 20
1.6384138188976378
 30
0
 11
-1.3246456692913386
 21
1.2899886220472441
 31
0
  0
LINE
  5
DD
330
1A
100
AcDbEntity
  8
BLACK
  6
CONTINUOUS
100
AcDbLine
 10
-1.3246456692913386
 20
1.2899886220472441
 30
0
 11
-1.3246456692913386
 21
1.3631610236220473
 31
0
  0
LINE
  5
DE
330
1A
100
AcDbEntity
  8
BLACK
  6
CONTINUOUS
100
AcDbLine
 10
-1.3246456692913386
 20
1.3631610236220473
 30
0
 11
-1.6730708661417322
 21
1.7115862204724408
 31
0
  0
LINE
  5
DF
330
1A
100
AcDbEntity
  8
BLACK
  6
CONTINUOUS
100
AcDbLine
 10
-1.6730708661417322
 20
1.7115862204724408
 30
0
 11
-1.6730708661417322
 21
1.6384138188976378
 31
0
  0
LINE
  5
E0
330
1A
100
AcDbEntity
  8
BLACK
  6
CONTINUOUS
100
AcDbLine
 10
-1.6730708661417322
 20
1.7171539763779526
 30
0
 11
-1.3246456692913386
 21
1.3687287795275591
 31
0
  0
LINE
  5
E1
330
1A
100
AcDbEntity
  8
BLACK
  6
CONTINUOUS
100
AcDbLine
 10
-1.3246456692913386
 20
1.3687287795275591
 30
0
 11
-1.3246456692913386
 21
1.4419011811023621
 31
0
  0
LINE
  5
E2
330
1A
100
AcDbEntity
  8
BLACK
  6
CONTINUOUS
100
AcDbLine
 10
-1.3246456692913386
 20
1.4419011811023621
 30
0
 11
-1.6730708661417322
 21
1.7903263779527558
 31
0
  0
LINE
  5
E3
330
1A
100
AcDbEntity
  8
BLACK
  6
CONTINUOUS
100
AcDbLine
 10
-1.6730708661417322
 20
1.7903263779527558
 30
0
 11
-1.6730708661417322
 21
1.7171539763779526
 31
0
  0
LINE
  5
E4
330
1A
100
AcDbEntity
  8
BLACK
  6
CONTINUOUS
100
AcDbLine
 10
-1.6702870078740157
 20
1.7931102362204725
 30
0
 11
-1.3246456692913386
 21
1.4474689370078739
 31
0
  0
LINE
  5
E5
330
1A
100
AcDbEntity
  8
BLACK
  6
CONTINUOUS
100
AcDbLine
 10
-1.3246456692913386
 20
1.4474689370078739
 30
0
 11
-1.3246456692913386
 21
1.5206413385826771
 31
0
  0
LINE
  5
E6
330
1A
100
AcDbEntity
  8
BLACK
  6
CONTINUOUS
100
AcDbLine
 10
-1.3246456692913386
 20
1.5206413385826771
 30
0
 11
-1.5971145669291338
 21
1.7931102362204725
 31
0
  0
LINE
  5
E7
330
1A
100
AcDbEntity
  8
BLACK
  6
CONTINUOUS
100
AcDbLine
 10
-1.5971145669291338
 20
1.7931102362204725
 30
0
 11
-1.6702870078740157
 21
1.7931102362204725
 31
0
  0
LINE
  5
E8
330
1A
100
AcDbEntity
  8
BLACK
  6
CONTINUOUS
100
AcDbLine
 10
-1.5915468503937007
 20
1.7931102362204725
 30
0
 11
-1.3246456692913386
 21
1.526209094488189
 31
0
  0
LINE
  5
E9
330
1A
100
AcDbEntity
  8
BLACK
  6
CONTINUOUS
100
AcDbLine
 10
-1.3246456692913386
 20
1.526209094488189
 30
0
 11
-1.3246456692913386
 21
1.5993814960629922
 31
0
  0
LINE
  5
EA
330
1A
100
AcDbEntity
  8
BLACK
  6
CONTINUOUS
100
AcDbLine
 10
-1.3246456692913386
 20
1.5993814960629922
 30
0
 11
-1.518374409448819
 21
1.7931102362204725
 31
0
  0
LINE
  5
EB
330
1A
100
AcDbEntity
  8
BLACK
  6
CONTINUOUS
100
AcDbLine
 10
-1.518374409448819
 20
1.7931102362204725
 30
0
 11
-1.5915468503937007
 21
1.7931102362204725
 31
0
  0
LINE
  5
EC
330
1A
100
AcDbEntity
  8
BLACK
  6
CONTINUOUS
100
AcDbLine
 10
-1.5128066929133859
 20
1.7931102362204725
 30
0
 11
-1.3246456692913386
 21
1.6049492125984253
 31
0
  0
LINE
  5
ED
330
1A
100
AcDbEntity
  8
BLACK
  6
CONTINUOUS
100
AcDbLine
 10
-1.3246456692913386
 20
1.6049492125984253
 30
0
 11
-1.3246456692913386
 21
1.678121653543307
 31
0
  0
LINE
  5
EE
330
1A
100
AcDbEntity
  8
BLACK
  6
CONTINUOUS
100
AcDbLine
 10
-1.3246456692913386
 20
1.678121653543307
 30
0
 11
-1.4396342519685039
 21
1.7931102362204725
 31
0
  0
LINE
  5
EF
330
1A
100
AcDbEntity
  8
BLACK
  6
CONTINUOUS
100
AcDbLine
 10
-1.4396342519685039
 20
1.7931102362204725
 30
0
 11
-1.5128066929133859
 21
1.7931102362204725
 31
0
  0
LINE
  5
F0
330
1A
100
AcDbEntity
  8
BLACK
  6
CONTINUOUS
100
AcDbLine
 10
-1.4340665354330708
 20
1.7931102362204725
 30
0
 11
-1.3246456692913386
 21
1.6836893700787401
 31
0
  0
LINE
  5
F1
330
1A
100
AcDbEntity
  8
BLACK
  6
CONTINUOUS
100
AcDbLine
 10
-1.3246456692913386
 20
1.6836893700787401
 30
0
 11
-1.3246456692913386
 21
1.756861811023622
 31
0
  0
LINE
  5
F2
330
1A
100
AcDbEntity
  8
BLACK
  6
CONTINUOUS
100
AcDbLine
 10
-1.3246456692913386
 20
1.756861811023622
 30
0
 11
-1.3608940944881889
 21
1.7931102362204725
 31
0
  0
LINE
  5
F3
330
1A
100
AcDbEntity
  8
BLACK
  6
CONTINUOUS
100
AcDbLine
 10
-1.3608940944881889
 20
1.7931102362204725
 30
0
 11
-1.4340665354330708
 21
1.7931102362204725
 31
0
  0
LINE
  5
F4
330
1A
100
AcDbEntity
  8
BLACK
  6
CONTINUOUS
100
AcDbLine
 10
-1.3553263779527558
 20
1.7931102362204725
 30
0
 11
-1.3246456692913386
 21
1.7624295275590551
 31
0
  0
LINE
  5
F5
330
1A
100
AcDbEntity
  8
BLACK
  6
CONTINUOUS
100
AcDbLine
 10
-1.3246456692913386
 20
1.7624295275590551
 30
0
 11
-1.3246456692913386
 21
1.7931102362204725
 31
0
  0
LINE
  5
F6
330
1A
100
AcDbEntity
  8
BLACK
  6
CONTINUOUS
100
AcDbLine
 10
-1.3246456692913386
 20
1.7931102362204725
 30
0
 11
-1.3553263779527558
 21
1.7931102362204725
 31
0
  0
CIRCLE
  5
F7
330
1A
100
AcDbEntity
  8
BLACK
100
AcDbCircle
 10
1.7
 20
1.9450000000000001
 30
0
 40
0.0068897637795276
  0
CIRCLE
  5
F8
330
1A
100
AcDbEntity
  8
BLACK
100
AcDbCircle
 10
1.5999999999999999
 20
1.9450000000000001
 30
0
 40
0.0068897637795276
  0
CIRCLE
  5
F9
330
1A
100
AcDbEntity
  8
BLACK
100
AcDbCircle
 10
1.7
 20
2.0449999999999999
 30
0
 40
0.0068897637795276
  0
CIRCLE
  5
FA
330
1A
100
AcDbEntity
  8
BLACK
100
AcDbCircle
 10
1.5999999999999999
 20
2.0449999999999999
 30
0
 40
0.0068897637795276
  0
CIRCLE
  5
FB
330
1A
100
AcDbEntity
  8
BLACK
100
AcDbCircle
 10
1.7
 20
2.145
 30
0
 40
0.0068897637795276
  0
CIRCLE
  5
FC
330
1A
100
AcDbEntity
  8
BLACK
100
AcDbCircle
 10
1.5999999999999999
 20
2.145
 30
0
 40
0.0068897637795276
  0
CIRCLE
  5
FD
330
1A
100
AcDbEntity
  8
BLACK
100
AcDbCircle
 10
-0.24
 20
0.635
 30
0
 40
0.0068897637795276
  0
CIRCLE
  5
FE
330
1A
100
AcDbEntity
  8
BLACK
100
AcDbCircle
 10
-0.24
 20
0.535
 30
0
 40
0.0068897637795276
  0
CIRCLE
  5
FF
330
1A
100
AcDbEntity
  8
BLACK
100
AcDbCircle
 10
-0.34
 20
0.635
 30
0
 40
0.0068897637795276
  0
CIRCLE
  5
100
330
1A
100
AcDbEntity
  8
BLACK
100
AcDbCircle
 10
-0.34
 20
0.535
 30
0
 40
0.0068897637795276
  0
CIRCLE
  5
101
330
1A
100
AcDbEntity
  8
BLACK
100
AcDbCircle
 10
-0.44
 20
0.635
 30
0
 40
0.0068897637795276
  0
CIRCLE
  5
102
330
1A
100
AcDbEntity
  8
BLACK
100
AcDbCircle
 10
-0.44
 20
0.535
 30
0
 40
0.0068897637795276
  0
CIRCLE
  5
103
330
1A
100
AcDbEntity
  8
BLACK
100
AcDbCircle
 10
-0.54
 20
0.635
 30
0
 40
0.0068897637795276
  0
CIRCLE
  5
104
330
1A
100
AcDbEntity
  8
BLACK
100
AcDbCircle
 10
-0.54
 20
0.535
 30
0
 40
0.0068897637795276
  0
CIRCLE
  5
105
330
1A
100
AcDbEntity
  8
BLACK
100
AcDbCircle
 10
-0.64
 20
0.635
 30
0
 40
0.0068897637795276
  0
CIRCLE
  5
106
330
1A
100
AcDbEntity
  8
BLACK
100
AcDbCircle
 10
-0.64
 20
0.535
 30
0
 40
0.0068897637795276
  0
CIRCLE
  5
107
330
1A
100
AcDbEntity
  8
BLACK
100
AcDbCircle
 10
-1.99
 20
2.625
 30
0
 40
0.0068897637795276
  0
CIRCLE
  5
108
330
1A
100
AcDbEntity
  8
BLACK
100
AcDbCircle
 10
1.6099999999999999
 20
2.625
 30
0
 40
0.0068897637795276
  0
CIRCLE
  5
109
330
1A
100
AcDbEntity
  8
BLACK
100
AcDbCircle
 10
-1.2407874015748031
 20
2.6364173228346455
 30
0
 40
0.0068897637795276
  0
CIRCLE
  5
10A
330
1A
100
AcDbEntity
  8
BLACK
100
AcDbCircle
 10
-1.2407874015748031
 20
2.7364173228346456
 30
0
 40
0.0068897637795276
  0
CIRCLE
  5
10B
330
1A
100
AcDbEntity
  8
BLACK
100
AcDbCircle
 10
-1.1407874015748032
 20
2.6364173228346455
 30
0
 40
0.0068897637795276
  0
CIRCLE
  5
10C
330
1A
100
AcDbEntity
  8
BLACK
100
AcDbCircle
 10
-1.1407874015748032
 20
2.7364173228346456
 30
0
 40
0.0068897637795276
  0
CIRCLE
  5
10D
330
1A
100
AcDbEntity
  8
BLACK
100
AcDbCircle
 10
-1.0407874015748031
 20
2.6364173228346455
 30
0
 40
0.0068897637795276
  0
CIRCLE
  5
10E
330
1A
100
AcDbEntity
  8
BLACK
100
AcDbCircle
 10
-1.0407874015748031
 20
2.7364173228346456
 30
0
 40
0.0068897637795276
  0
CIRCLE
  5
10F
330
1A
100
AcDbEntity
  8
BLACK
100
AcDbCircle
 10
-0.9407874015748031
 20
2.6364173228346455
 30
0
 40
0.0068897637795276
  0
CIRCLE
  5
110
330
1A
100
AcDbEntity
  8
BLACK
100
AcDbCircle
 10
-0.9407874015748031
 20
2.7364173228346456
 30
0
 40
0.0068897637795276
  0
CIRCLE
  5
111
330
1A
100
AcDbEntity
  8
BLACK
100
AcDbCircle
 10
-0.8407874015748031
 20
2.6364173228346455
 30
0
 40
0.0068897637795276
  0
CIRCLE
  5
112
330
1A
100
AcDbEntity
  8
BLACK
100
AcDbCircle
 10
-0.8407874015748031
 20
2.7364173228346456
 30
0
 40
0.0068897637795276
  0
CIRCLE
  5
113
330
1A
100
AcDbEntity
  8
BLACK
100
AcDbCircle
 10
-0.7407874015748032
 20
2.6364173228346455
 30
0
 40
0.0068897637795276
  0
CIRCLE
  5
114
330
1A
100
AcDbEntity
  8
BLACK
100
AcDbCircle
 10
-0.7407874015748032
 20
2.7364173228346456
 30
0
 40
0.0068897637795276
  0
CIRCLE
  5
115
330
1A
100
AcDbEntity
  8
BLACK
100
AcDbCircle
 10
-0.6407874015748032
 20
2.6364173228346455
 30
0
 40
0.0068897637795276
  0
CIRCLE
  5
116
330
1A
100
AcDbEntity
  8
BLACK
100
AcDbCircle
 10
-0.6407874015748032
 20
2.7364173228346456
 30
0
 40
0.0068897637795276
  0
CIRCLE
  5
117
330
1A
100
AcDbEntity
  8
BLACK
100
AcDbCircle
 10
-0.5035826771653543
 20
2.6374015748031496
 30
0
 40
0.0068897637795276
  0
CIRCLE
  5
118
330
1A
100
AcDbEntity
  8
BLACK
100
AcDbCircle
 10
-0.5035826771653543
 20
2.7374015748031497
 30
0
 40
0.0068897637795276
  0
CIRCLE
  5
119
330
1A
100
AcDbEntity
  8
BLACK
100
AcDbCircle
 10
-0.4035826771653543
 20
2.6374015748031496
 30
0
 40
0.0068897637795276
  0
CIRCLE
  5
11A
330
1A
100
AcDbEntity
  8
BLACK
100
AcDbCircle
 10
-0.4035826771653543
 20
2.7374015748031497
 30
0
 40
0.0068897637795276
  0
CIRCLE
  5
11B
330
1A
100
AcDbEntity
  8
BLACK
100
AcDbCircle
 10
-0.3035826771653543
 20
2.6374015748031496
 30
0
 40
0.0068897637795276
  0
CIRCLE
  5
11C
330
1A
100
AcDbEntity
  8
BLACK
100
AcDbCircle
 10
-0.3035826771653543
 20
2.7374015748031497
 30
0
 40
0.0068897637795276
  0
CIRCLE
  5
11D
330
1A
100
AcDbEntity
  8
BLACK
100
AcDbCircle
 10
-1.99
 20
0.625
 30
0
 40
0.0068897637795276
  0
CIRCLE
  5
11E
330
1A
100
AcDbEntity
  8
BLACK
100
AcDbCircle
 10
-1.2793700787401574
 20
1.8277559055118109
 30
0
 40
0.0068897637795276
  0
CIRCLE
  5
11F
330
1A
100
AcDbEntity
  8
BLACK
100
AcDbCircle
 10
-1.2793700787401574
 20
1.0009842519685039
 30
0
 40
0.0068897637795276
  0
CIRCLE
  5
120
330
1A
100
AcDbEntity
  8
BLACK
100
AcDbCircle
 10
-1.99
 20
2.2050000000000001
 30
0
 40
0.0068897637795276
  0
CIRCLE
  5
121
330
1A
100
AcDbEntity
  8
BLACK
100
AcDbCircle
 10
-2.0899999999999999
 20
2.3050000000000002
 30
0
 40
0.0068897637795276
  0
CIRCLE
  5
122
330
1A
100
AcDbEntity
  8
BLACK
100
AcDbCircle
 10
-2.0899999999999999
 20
2.105
 30
0
 40
0.0068897637795276
  0
CIRCLE
  5
123
330
1A
100
AcDbEntity
  8
BLACK
100
AcDbCircle
 10
-1.8899999999999999
 20
2.3050000000000002
 30
0
 40
0.0068897637795276
  0
CIRCLE
  5
124
330
1A
100
AcDbEntity
  8
BLACK
100
AcDbCircle
 10
-1.8899999999999999
 20
2.105
 30
0
 40
0.0068897637795276
  0
CIRCLE
  5
125
330
1A
100
AcDbEntity
  8
BLACK
100
AcDbCircle
 10
0.9399999999999999
 20
2.4049999999999998
 30
0
 40
0.0068897637795276
  0
CIRCLE
  5
126
330
1A
100
AcDbEntity
  8
BLACK
100
AcDbCircle
 10
1.235275590551181
 20
2.4049999999999998
 30
0
 40
0.0068897637795276
  0
CIRCLE
  5
127
330
1A
100
AcDbEntity
  8
BLACK
100
AcDbCircle
 10
-1.0069291338582678
 20
1.776496062992126
 30
0
 40
0.0068897637795276
  0
CIRCLE
  5
128
330
1A
100
AcDbEntity
  8
BLACK
100
AcDbCircle
 10
-0.9069291338582677
 20
1.776496062992126
 30
0
 40
0.0068897637795276
  0
CIRCLE
  5
129
330
1A
100
AcDbEntity
  8
BLACK
100
AcDbCircle
 10
1.6099999999999999
 20
0.625
 30
0
 40
0.0068897637795276
  0
CIRCLE
  5
12A
330
1A
100
AcDbEntity
  8
BLACK
100
AcDbCircle
 10
-1.47
 20
2.6149999999999998
 30
0
 40
0.0068897637795276
  0
CIRCLE
  5
12B
330
1A
100
AcDbEntity
  8
BLACK
100
AcDbCircle
 10
-1.47
 20
2.7149999999999999
 30
0
 40
0.0068897637795276
  0
CIRCLE
  5
12C
330
1A
100
AcDbEntity
  8
BLACK
100
AcDbCircle
 10
-1.3699999999999999
 20
2.6149999999999998
 30
0
 40
0.0068897637795276
  0
CIRCLE
  5
12D
330
1A
100
AcDbEntity
  8
BLACK
100
AcDbCircle
 10
-1.3699999999999999
 20
2.7149999999999999
 30
0
 40
0.0068897637795276
  0
CIRCLE
  5
12E
330
1A
100
AcDbEntity
  8
BLACK
100
AcDbCircle
 10
0.33
 20
2.0049999999999999
 30
0
 40
0.0068897637795276
  0
CIRCLE
  5
12F
330
1A
100
AcDbEntity
  8
BLACK
100
AcDbCircle
 10
0.43
 20
2.0049999999999999
 30
0
 40
0.0068897637795276
  0
CIRCLE
  5
130
330
1A
100
AcDbEntity
  8
BLACK
100
AcDbCircle
 10
-1.1699999999999999
 20
0.535
 30
0
 40
0.0068897637795276
  0
CIRCLE
  5
131
330
1A
100
AcDbEntity
  8
BLACK
100
AcDbCircle
 10
-1.1699999999999999
 20
0.635
 30
0
 40
0.0068897637795276
  0
CIRCLE
  5
132
330
1A
100
AcDbEntity
  8
BLACK
100
AcDbCircle
 10
-1.0700000000000001
 20
0.535
 30
0
 40
0.0068897637795276
  0
CIRCLE
  5
133
330
1A
100
AcDbEntity
  8
BLACK
100
AcDbCircle
 10
-1.0700000000000001
 20
0.635
 30
0
 40
0.0068897637795276
  0
CIRCLE
  5
134
330
1A
100
AcDbEntity
  8
BLACK
100
AcDbCircle
 10
-0.97
 20
0.535
 30
0
 40
0.0068897637795276
  0
CIRCLE
  5
135
330
1A
100
AcDbEntity
  8
BLACK
100
AcDbCircle
 10
-0.97
 20
0.635
 30
0
 40
0.0068897637795276
  0
CIRCLE
  5
136
330
1A
100
AcDbEntity
  8
BLACK
100
AcDbCircle
 10
-0.87
 20
0.535
 30
0
 40
0.0068897637795276
  0
CIRCLE
  5
137
330
1A
100
AcDbEntity
  8
BLACK
100
AcDbCircle
 10
-0.87
 20
0.635
 30
0
 40
0.0068897637795276
  0
CIRCLE
  5
138
330
1A
100
AcDbEntity
  8
BLACK
100
AcDbCircle
 10
-0.77
 20
0.535
 30
0
 40
0.0068897637795276
  0
CIRCLE
  5
139
330
1A
100
AcDbEntity
  8
BLACK
100
AcDbCircle
 10
-0.77
 20
0.635
 30
0
 40
0.0068897637795276
  0
CIRCLE
  5
13A
330
1A
100
AcDbEntity
  8
BLACK
100
AcDbCircle
 10
1.5682677165354331
 20
1.7659448818897638
 30
0
 40
0.0068897637795276
  0
CIRCLE
  5
13B
330
1A
100
AcDbEntity
  8
BLACK
100
AcDbCircle
 10
1.6682677165354329
 20
1.7659448818897638
 30
0
 40
0.0068897637795276
  0
CIRCLE
  5
13C
330
1A
100
AcDbEntity
  8
BLACK
100
AcDbCircle
 10
1.5682677165354331
 20
1.6659448818897638
 30
0
 40
0.0068897637795276
  0
CIRCLE
  5
13D
330
1A
100
AcDbEntity
  8
BLACK
100
AcDbCircle
 10
1.6682677165354329
 20
1.6659448818897638
 30
0
 40
0.0068897637795276
  0
CIRCLE
  5
13E
330
1A
100
AcDbEntity
  8
BLACK
100
AcDbCircle
 10
1.5682677165354331
 20
1.5659448818897637
 30
0
 40
0.0068897637795276
  0
CIRCLE
  5
13F
330
1A
100
AcDbEntity
  8
BLACK
100
AcDbCircle
 10
1.6682677165354329
 20
1.5659448818897637
 30
0
 40
0.0068897637795276
  0
CIRCLE
  5
140
330
1A
100
AcDbEntity
  8
BLACK
100
AcDbCircle
 10
-0.9194488188976377
 20
2.2426181102362204
 30
0
 40
0.0039370078740157
  0
CIRCLE
  5
141
330
1A
100
AcDbEntity
  8
BLACK
100
AcDbCircle
 10
-0.9607874015748031
 20
2.2426181102362204
 30
0
 40
0.0039370078740157
  0
CIRCLE
  5
142
330
1A
100
AcDbEntity
  8
BLACK
100
AcDbCircle
 10
-1.0021259842519685
 20
2.2426181102362204
 30
0
 40
0.0039370078740157
  0
CIRCLE
  5
143
330
1A
100
AcDbEntity
  8
BLACK
100
AcDbCircle
 10
-0.9194488188976377
 20
2.2012795275590551
 30
0
 40
0.0039370078740157
  0
CIRCLE
  5
144
330
1A
100
AcDbEntity
  8
BLACK
100
AcDbCircle
 10
-0.9607874015748031
 20
2.2012795275590551
 30
0
 40
0.0039370078740157
  0
CIRCLE
  5
145
330
1A
100
AcDbEntity
  8
BLACK
100
AcDbCircle
 10
-1.0021259842519685
 20
2.2012795275590551
 30
0
 40
0.0039370078740157
  0
CIRCLE
  5
146
330
1A
100
AcDbEntity
  8
BLACK
100
AcDbCircle
 10
-0.9194488188976377
 20
2.1599409448818898
 30
0
 40
0.0039370078740157
  0
CIRCLE
  5
147
330
1A
100
AcDbEntity
  8
BLACK
100
AcDbCircle
 10
-0.9607874015748031
 20
2.1599409448818898
 30
0
 40
0.0039370078740157
  0
CIRCLE
  5
148
330
1A
100
AcDbEntity
  8
BLACK
100
AcDbCircle
 10
-1.0021259842519685
 20
2.1599409448818898
 30
0
 40
0.0039370078740157
  0
CIRCLE
  5
149
330
1A
100
AcDbEntity
  8
BLACK
100
AcDbCircle
 10
-0.4301574803149606
 20
2.3624015748031497
 30
0
 40
0.0068897637795276
  0
CIRCLE
  5
14A
330
1A
100
AcDbEntity
  8
BLACK
100
AcDbCircle
 10
-0.3907874015748031
 20
2.3624015748031497
 30
0
 40
0.0068897637795276
  0
CIRCLE
  5
14B
330
1A
100
AcDbEntity
  8
BLACK
100
AcDbCircle
 10
1.7
 20
1.9450000000000001
 30
0
 40
0.0068897637795276
  0
CIRCLE
  5
14C
330
1A
100
AcDbEntity
  8
BLACK
100
AcDbCircle
 10
1.5999999999999999
 20
1.9450000000000001
 30
0
 40
0.0068897637795276
  0
CIRCLE
  5
14D
330
1A
100
AcDbEntity
  8
BLACK
100
AcDbCircle
 10
1.7
 20
2.0449999999999999
 30
0
 40
0.0068897637795276
  0
CIRCLE
  5
14E
330
1A
100
AcDbEntity
  8
BLACK
100
AcDbCircle
 10
1.5999999999999999
 20
2.0449999999999999
 30
0
 40
0.0068897637795276
  0
CIRCLE
  5
14F
330
1A
100
AcDbEntity
  8
BLACK
100
AcDbCircle
 10
1.7
 20
2.145
 30
0
 40
0.0068897637795276
  0
CIRCLE
  5
150
330
1A
100
AcDbEntity
  8
BLACK
100
AcDbCircle
 10
1.5999999999999999
 20
2.145
 30
0
 40
0.0068897637795276
  0
CIRCLE
  5
151
330
1A
100
AcDbEntity
  8
BLACK
100
AcDbCircle
 10
-0.24
 20
0.635
 30
0
 40
0.0068897637795276
  0
CIRCLE
  5
152
330
1A
100
AcDbEntity
  8
BLACK
100
AcDbCircle
 10
-0.24
 20
0.535
 30
0
 40
0.0068897637795276
  0
CIRCLE
  5
153
330
1A
100
AcDbEntity
  8
BLACK
100
AcDbCircle
 10
-0.34
 20
0.635
 30
0
 40
0.0068897637795276
  0
CIRCLE
  5
154
330
1A
100
AcDbEntity
  8
BLACK
100
AcDbCircle
 10
-0.34
 20
0.535
 30
0
 40
0.0068897637795276
  0
CIRCLE
  5
155
330
1A
100
AcDbEntity
  8
BLACK
100
AcDbCircle
 10
-0.44
 20
0.635
 30
0
 40
0.0068897637795276
  0
CIRCLE
  5
156
330
1A
100
AcDbEntity
  8
BLACK
100
AcDbCircle
 10
-0.44
 20
0.535
 30
0
 40
0.0068897637795276
  0
CIRCLE
  5
157
330
1A
100
AcDbEntity
  8
BLACK
100
AcDbCircle
 10
-0.54
 20
0.635
 30
0
 40
0.0068897637795276
  0
CIRCLE
  5
158
330
1A
100
AcDbEntity
  8
BLACK
100
AcDbCircle
 10
-0.54
 20
0.535
 30
0
 40
0.0068897637795276
  0
CIRCLE
  5
159
330
1A
100
AcDbEntity
  8
BLACK
100
AcDbCircle
 10
-0.64
 20
0.635
 30
0
 40
0.0068897637795276
  0
CIRCLE
  5
15A
330
1A
100
AcDbEntity
  8
BLACK
100
AcDbCircle
 10
-0.64
 20
0.535
 30
0
 40
0.0068897637795276
  0
CIRCLE
  5
15B
330
1A
100
AcDbEntity
  8
BLACK
100
AcDbCircle
 10
-1.99
 20
2.625
 30
0
 40
0.0068897637795276
  0
CIRCLE
  5
15C
330
1A
100
AcDbEntity
  8
BLACK
100
AcDbCircle
 10
1.6099999999999999
 20
2.625
 30
0
 40
0.0068897637795276
  0
CIRCLE
  5
15D
330
1A
100
AcDbEntity
  8
BLACK
100
AcDbCircle
 10
-1.2407874015748031
 20
2.6364173228346455
 30
0
 40
0.0068897637795276
  0
CIRCLE
  5
15E
330
1A
100
AcDbEntity
  8
BLACK
100
AcDbCircle
 10
-1.2407874015748031
 20
2.7364173228346456
 30
0
 40
0.0068897637795276
  0
CIRCLE
  5
15F
330
1A
100
AcDbEntity
  8
BLACK
100
AcDbCircle
 10
-1.1407874015748032
 20
2.6364173228346455
 30
0
 40
0.0068897637795276
  0
CIRCLE
  5
160
330
1A
100
AcDbEntity
  8
BLACK
100
AcDbCircle
 10
-1.1407874015748032
 20
2.7364173228346456
 30
0
 40
0.0068897637795276
  0
CIRCLE
  5
161
330
1A
100
AcDbEntity
  8
BLACK
100
AcDbCircle
 10
-1.0407874015748031
 20
2.6364173228346455
 30
0
 40
0.0068897637795276
  0
CIRCLE
  5
162
330
1A
100
AcDbEntity
  8
BLACK
100
AcDbCircle
 10
-1.0407874015748031
 20
2.7364173228346456
 30
0
 40
0.0068897637795276
  0
CIRCLE
  5
163
330
1A
100
AcDbEntity
  8
BLACK
100
AcDbCircle
 10
-0.9407874015748031
 20
2.6364173228346455
 30
0
 40
0.0068897637795276
  0
CIRCLE
  5
164
330
1A
100
AcDbEntity
  8
BLACK
100
AcDbCircle
 10
-0.9407874015748031
 20
2.7364173228346456
 30
0
 40
0.0068897637795276
  0
CIRCLE
  5
165
330
1A
100
AcDbEntity
  8
BLACK
100
AcDbCircle
 10
-0.8407874015748031
 20
2.6364173228346455
 30
0
 40
0.0068897637795276
  0
CIRCLE
  5
166
330
1A
100
AcDbEntity
  8
BLACK
100
AcDbCircle
 10
-0.8407874015748031
 20
2.7364173228346456
 30
0
 40
0.0068897637795276
  0
CIRCLE
  5
167
330
1A
100
AcDbEntity
  8
BLACK
100
AcDbCircle
 10
-0.7407874015748032
 20
2.6364173228346455
 30
0
 40
0.0068897637795276
  0
CIRCLE
  5
168
330
1A
100
AcDbEntity
  8
BLACK
100
AcDbCircle
 10
-0.7407874015748032
 20
2.7364173228346456
 30
0
 40
0.0068897637795276
  0
CIRCLE
  5
169
330
1A
100
AcDbEntity
  8
BLACK
100
AcDbCircle
 10
-0.6407874015748032
 20
2.6364173228346455
 30
0
 40
0.0068897637795276
  0
CIRCLE
  5
16A
330
1A
100
AcDbEntity
  8
BLACK
100
AcDbCircle
 10
-0.6407874015748032
 20
2.7364173228346456
 30
0
 40
0.0068897637795276
  0
CIRCLE
  5
16B
330
1A
100
AcDbEntity
  8
BLACK
100
AcDbCircle
 10
-0.5035826771653543
 20
2.6374015748031496
 30
0
 40
0.0068897637795276
  0
CIRCLE
  5
16C
330
1A
100
AcDbEntity
  8
BLACK
100
AcDbCircle
 10
-0.5035826771653543
 20
2.7374015748031497
 30
0
 40
0.0068897637795276
  0
CIRCLE
  5
16D
330
1A
100
AcDbEntity
  8
BLACK
100
AcDbCircle
 10
-0.4035826771653543
 20
2.6374015748031496
 30
0
 40
0.0068897637795276
  0
CIRCLE
  5
16E
330
1A
100
AcDbEntity
  8
BLACK
100
AcDbCircle
 10
-0.4035826771653543
 20
2.7374015748031497
 30
0
 40
0.0068897637795276
  0
CIRCLE
  5
16F
330
1A
100
AcDbEntity
  8
BLACK
100
AcDbCircle
 10
-0.3035826771653543
 20
2.6374015748031496
 30
0
 40
0.0068897637795276
  0
CIRCLE
  5
170
330
1A
100
AcDbEntity
  8
BLACK
100
AcDbCircle
 10
-0.3035826771653543
 20
2.7374015748031497
 30
0
 40
0.0068897637795276
  0
CIRCLE
  5
171
330
1A
100
AcDbEntity
  8
BLACK
100
AcDbCircle
 10
-1.99
 20
0.625
 30
0
 40
0.0068897637795276
  0
CIRCLE
  5
172
330
1A
100
AcDbEntity
  8
BLACK
100
AcDbCircle
 10
-1.2793700787401574
 20
1.8277559055118109
 30
0
 40
0.0068897637795276
  0
CIRCLE
  5
173
330
1A
100
AcDbEntity
  8
BLACK
100
AcDbCircle
 10
-1.2793700787401574
 20
1.0009842519685039
 30
0
 40
0.0068897637795276
  0
CIRCLE
  5
174
330
1A
100
AcDbEntity
  8
BLACK
100
AcDbCircle
 10
-1.99
 20
2.2050000000000001
 30
0
 40
0.0068897637795276
  0
CIRCLE
  5
175
330
1A
100
AcDbEntity
  8
BLACK
100
AcDbCircle
 10
-2.0899999999999999
 20
2.3050000000000002
 30
0
 40
0.0068897637795276
  0
CIRCLE
  5
176
330
1A
100
AcDbEntity
  8
BLACK
100
AcDbCircle
 10
-2.0899999999999999
 20
2.105
 30
0
 40
0.0068897637795276
  0
CIRCLE
  5
177
330
1A
100
AcDbEntity
  8
BLACK
100
AcDbCircle
 10
-1.8899999999999999
 20
2.3050000000000002
 30
0
 40
0.0068897637795276
  0
CIRCLE
  5
178
330
1A
100
AcDbEntity
  8
BLACK
100
AcDbCircle
 10
-1.8899999999999999
 20
2.105
 30
0
 40
0.0068897637795276
  0
CIRCLE
  5
179
330
1A
100
AcDbEntity
  8
BLACK
100
AcDbCircle
 10
0.9399999999999999
 20
2.4049999999999998
 30
0
 40
0.0068897637795276
  0
CIRCLE
  5
17A
330
1A
100
AcDbEntity
  8
BLACK
100
AcDbCircle
 10
1.235275590551181
 20
2.4049999999999998
 30
0
 40
0.0068897637795276
  0
CIRCLE
  5
17B
330
1A
100
AcDbEntity
  8
BLACK
100
AcDbCircle
 10
-1.0069291338582678
 20
1.776496062992126
 30
0
 40
0.0068897637795276
  0
CIRCLE
  5
17C
330
1A
100
AcDbEntity
  8
BLACK
100
AcDbCircle
 10
-0.9069291338582677
 20
1.776496062992126
 30
0
 40
0.0068897637795276
  0
CIRCLE
  5
17D
330
1A
100
AcDbEntity
  8
BLACK
100
AcDbCircle
 10
1.6099999999999999
 20
0.625
 30
0
 40
0.0068897637795276
  0
CIRCLE
  5
17E
330
1A
100
AcDbEntity
  8
BLACK
100
AcDbCircle
 10
-1.47
 20
2.6149999999999998
 30
0
 40
0.0068897637795276
  0
CIRCLE
  5
17F
330
1A
100
AcDbEntity
  8
BLACK
100
AcDbCircle
 10
-1.47
 20
2.7149999999999999
 30
0
 40
0.0068897637795276
  0
CIRCLE
  5
180
330
1A
100
AcDbEntity
  8
BLACK
100
AcDbCircle
 10
-1.3699999999999999
 20
2.6149999999999998
 30
0
 40
0.0068897637795276
  0
CIRCLE
  5
181
330
1A
100
AcDbEntity
  8
BLACK
100
AcDbCircle
 10
-1.3699999999999999
 20
2.7149999999999999
 30
0
 40
0.0068897637795276
  0
CIRCLE
  5
182
330
1A
100
AcDbEntity
  8
BLACK
100
AcDbCircle
 10
0.33
 20
2.0049999999999999
 30
0
 40
0.0068897637795276
  0
CIRCLE
  5
183
330
1A
100
AcDbEntity
  8
BLACK
100
AcDbCircle
 10
0.43
 20
2.0049999999999999
 30
0
 40
0.0068897637795276
  0
CIRCLE
  5
184
330
1A
100
AcDbEntity
  8
BLACK
100
AcDbCircle
 10
-1.1699999999999999
 20
0.535
 30
0
 40
0.0068897637795276
  0
CIRCLE
  5
185
330
1A
100
AcDbEntity
  8
BLACK
100
AcDbCircle
 10
-1.1699999999999999
 20
0.635
 30
0
 40
0.0068897637795276
  0
CIRCLE
  5
186
330
1A
100
AcDbEntity
  8
BLACK
100
AcDbCircle
 10
-1.0700000000000001
 20
0.535
 30
0
 40
0.0068897637795276
  0
CIRCLE
  5
187
330
1A
100
AcDbEntity
  8
BLACK
100
AcDbCircle
 10
-1.0700000000000001
 20
0.635
 30
0
 40
0.0068897637795276
  0
CIRCLE
  5
188
330
1A
100
AcDbEntity
  8
BLACK
100
AcDbCircle
 10
-0.97
 20
0.535
 30
0
 40
0.0068897637795276
  0
CIRCLE
  5
189
330
1A
100
AcDbEntity
  8
BLACK
100
AcDbCircle
 10
-0.97
 20
0.635
 30
0
 40
0.0068897637795276
  0
CIRCLE
  5
18A
330
1A
100
AcDbEntity
  8
BLACK
100
AcDbCircle
 10
-0.87
 20
0.535
 30
0
 40
0.0068897637795276
  0
CIRCLE
  5
18B
330
1A
100
AcDbEntity
  8
BLACK
100
AcDbCircle
 10
-0.87
 20
0.635
 30
0
 40
0.0068897637795276
  0
CIRCLE
  5
18C
330
1A
100
AcDbEntity
  8
BLACK
100
AcDbCircle
 10
-0.77
 20
0.535
 30
0
 40
0.0068897637795276
  0
CIRCLE
  5
18D
330
1A
100
AcDbEntity
  8
BLACK
100
AcDbCircle
 10
-0.77
 20
0.635
 30
0
 40
0.0068897637795276
  0
CIRCLE
  5
18E
330
1A
100
AcDbEntity
  8
BLACK
100
AcDbCircle
 10
1.5682677165354331
 20
1.7659448818897638
 30
0
 40
0.0068897637795276
  0
CIRCLE
  5
18F
330
1A
100
AcDbEntity
  8
BLACK
100
AcDbCircle
 10
1.6682677165354329
 20
1.7659448818897638
 30
0
 40
0.0068897637795276
  0
CIRCLE
  5
190
330
1A
100
AcDbEntity
  8
BLACK
100
AcDbCircle
 10
1.5682677165354331
 20
1.6659448818897638
 30
0
 40
0.0068897637795276
  0
CIRCLE
  5
191
330
1A
100
AcDbEntity
  8
BLACK
100
AcDbCircle
 10
1.6682677165354329
 20
1.6659448818897638
 30
0
 40
0.0068897637795276
  0
CIRCLE
  5
192
330
1A
100
AcDbEntity
  8
BLACK
100
AcDbCircle
 10
1.5682677165354331
 20
1.5659448818897637
 30
0
 40
0.0068897637795276
  0
CIRCLE
  5
193
330
1A
100
AcDbEntity
  8
BLACK
100
AcDbCircle
 10
1.6682677165354329
 20
1.5659448818897637
 30
0
 40
0.0068897637795276
  0
CIRCLE
  5
194
330
1A
100
AcDbEntity
  8
BLACK
100
AcDbCircle
 10
-0.9194488188976377
 20
2.2426181102362204
 30
0
 40
0.0039370078740157
  0
CIRCLE
  5
195
330
1A
100
AcDbEntity
  8
BLACK
100
AcDbCircle
 10
-0.9607874015748031
 20
2.2426181102362204
 30
0
 40
0.0039370078740157
  0
CIRCLE
  5
196
330
1A
100
AcDbEntity
  8
BLACK
100
AcDbCircle
 10
-1.0021259842519685
 20
2.2426181102362204
 30
0
 40
0.0039370078740157
  0
CIRCLE
  5
197
330
1A
100
AcDbEntity
  8
BLACK
100
AcDbCircle
 10
-0.9194488188976377
 20
2.2012795275590551
 30
0
 40
0.0039370078740157
  0
CIRCLE
  5
198
330
1A
100
AcDbEntity
  8
BLACK
100
AcDbCircle
 10
-0.9607874015748031
 20
2.2012795275590551
 30
0
 40
0.0039370078740157
  0
CIRCLE
  5
199
330
1A
100
AcDbEntity
  8
BLACK
100
AcDbCircle
 10
-1.0021259842519685
 20
2.2012795275590551
 30
0
 40
0.0039370078740157
  0
CIRCLE
  5
19A
330
1A
100
AcDbEntity
  8
BLACK
100
AcDbCircle
 10
-0.9194488188976377
 20
2.1599409448818898
 30
0
 40
0.0039370078740157
  0
CIRCLE
  5
19B
330
1A
100
AcDbEntity
  8
BLACK
100
AcDbCircle
 10
-0.9607874015748031
 20
2.1599409448818898
 30
0
 40
0.0039370078740157
  0
CIRCLE
  5
19C
330
1A
100
AcDbEntity
  8
BLACK
100
AcDbCircle
 10
-1.0021259842519685
 20
2.1599409448818898
 30
0
 40
0.0039370078740157
  0
CIRCLE
  5
19D
330
1A
100
AcDbEntity
  8
BLACK
100
AcDbCircle
 10
-0.4301574803149606
 20
2.3624015748031497
 30
0
 40
0.0068897637795276
  0
CIRCLE
  5
19E
330
1A
100
AcDbEntity
  8
BLACK
100
AcDbCircle
 10
-0.3907874015748031
 20
2.3624015748031497
 30
0
 40
0.0068897637795276
  0
ENDSEC
  0
SECTION
  2
OBJECTS
  0
DICTIONARY
  5
20
330
0
100
AcDbDictionary
281
1
  3
ACAD_GROUP
350
19F
  3
ACAD_LAYOUT
350
21
  3
ACAD_PLOTSTYLENAME
350
11
  0
DICTIONARY
  5
19F
330
20
100
AcDbDictionary
281
1
  0
ACDBDICTIONARYWDFLT
  5
11
330
20
100
AcDbDictionary
281
1
  3
Normal
350
10
100
AcDbDictionaryWithDefault
340
10
  0
ACDBPLACEHOLDER
  5
10
330
11
  0
DICTIONARY
  5
21
330
20
100
AcDbDictionary
281
1
  3
Model
350
1D
  3
Layout1
350
1E
  3
Layout2
350
1F
  0
LAYOUT
  5
1D
330
21
100
AcDbPlotSettings
  1

  2
none_device
  4
A3
  6

 40
0.0
 41
0.0
 42
0.0
 43
0.0
 44
420.0
 45
297.0
 46
0.0
 47
0.0
 48
0.0
 49
0.0
140
0.0
141
0.0
142
1.0
143
1.0
 70
1024
 72
1
 73
0
 74
5
  7

 75
16
 76
0
 77
2
 78
300
147
1.0
148
0.0
149
0.0
100
AcDbLayout
  1
Model
 70
1
 71
0
 10
0.0
 20
0.0
 11
420.0
 21
297.0
 12
0.0
 22
0.0
 32
0.0
 14
1e+20
 24
1e+20
 34
1e+20
 15
-1e+20
 25
-1e+20
 35
-1e+20
146
0.0
 13
0.0
 23
0.0
 33
0.0
 16
1.0
 26
0.0
 36
0.0
 17
0.0
 27
1.0
 37
0.0
 76
0
330
1A
  0
LAYOUT
  5
1E
330
21
100
AcDbPlotSettings
  1

  2
none_device
  4
A3
  6

 40
0.0
 41
0.0
 42
0.0
 43
0.0
 44
420.0
 45
297.0
 46
0.0
 47
0.0
 48
0.0
 49
0.0
140
0.0
141
0.0
142
1.0
143
1.0
 70
0
 72
1
 73
0
 74
5
  7

 75
16
 76
0
 77
2
 78
300
147
1.0
148
0.0
149
0.0
100
AcDbLayout
  1
Layout1
 70
1
 71
1
 10
0.0
 20
0.0
 11
420.0
 21
297.0
 12
0.0
 22
0.0
 32
0.0
 14
1e+20
 24
1e+20
 34
1e+20
 15
-1e+20
 25
-1e+20
 35
-1e+20
146
0.0
 13
0.0
 23
0.0
 33
0.0
 16
1.0
 26
0.0
 36
0.0
 17
0.0
 27
1.0
 37
0.0
 76
0
330
1B
  0
LAYOUT
  5
1F
330
21
100
AcDbPlotSettings
  1

  2
none_device
  4
A3
  6

 40
0.0
 41
0.0
 42
0.0
 43
0.0
 44
420.0
 45
297.0
 46
0.0
 47
0.0
 48
0.0
 49
0.0
140
0.0
141
0.0
142
1.0
143
1.0
 70
0
 72
1
 73
0
 74
5
  7

 75
16
 76
0
 77
2
 78
300
147
1.0
148
0.0
149
0.0
100
AcDbLayout
  1
Layout2
 70
1
 71
2
 10
0.0
 20
0.0
 11
420.0
 21
297.0
 12
0.0
 22
0.0
 32
0.0
 14
1e+20
 24
1e+20
 34
1e+20
 15
-1e+20
 25
-1e+20
 35
-1e+20
146
0.0
 13
0.0
 23
0.0
 33
0.0
 16
1.0
 26
0.0
 36
0.0
 17
0.0
 27
1.0
 37
0.0
 76
0
330
1C
  0
ENDSEC
  0
EOF
