%TF.GenerationSoftware,KiCad,Pcbnew,9.0.6+1*%
%TF.CreationDate,2026-01-18T09:59:09+00:00*%
%TF.ProjectId,DATALOGGER02,44415441-4c4f-4474-9745-5230322e6b69,rev?*%
%TF.SameCoordinates,Original*%
%TF.FileFunction,Soldermask,Top*%
%TF.FilePolarity,Negative*%
%FSLAX46Y46*%
G04 Gerber Fmt 4.6, Leading zero omitted, Abs format (unit mm)*
G04 Created by KiCad (PCBNEW 9.0.6+1) date 2026-01-18 09:59:09*
%MOMM*%
%LPD*%
G01*
G04 APERTURE LIST*
G04 Aperture macros list*
%AMRoundRect*
0 Rectangle with rounded corners*
0 $1 Rounding radius*
0 $2 $3 $4 $5 $6 $7 $8 $9 X,Y pos of 4 corners*
0 Add a 4 corners polygon primitive as box body*
4,1,4,$2,$3,$4,$5,$6,$7,$8,$9,$2,$3,0*
0 Add four circle primitives for the rounded corners*
1,1,$1+$1,$2,$3*
1,1,$1+$1,$4,$5*
1,1,$1+$1,$6,$7*
1,1,$1+$1,$8,$9*
0 Add four rect primitives between the rounded corners*
20,1,$1+$1,$2,$3,$4,$5,0*
20,1,$1+$1,$4,$5,$6,$7,0*
20,1,$1+$1,$6,$7,$8,$9,0*
20,1,$1+$1,$8,$9,$2,$3,0*%
%AMFreePoly0*
4,1,23,0.550000,-0.750000,0.000000,-0.750000,0.000000,-0.745722,-0.065263,-0.745722,-0.191342,-0.711940,-0.304381,-0.646677,-0.396677,-0.554381,-0.461940,-0.441342,-0.495722,-0.315263,-0.495722,-0.250000,-0.500000,-0.250000,-0.500000,0.250000,-0.495722,0.250000,-0.495722,0.315263,-0.461940,0.441342,-0.396677,0.554381,-0.304381,0.646677,-0.191342,0.711940,-0.065263,0.745722,0.000000,0.745722,
0.000000,0.750000,0.550000,0.750000,0.550000,-0.750000,0.550000,-0.750000,$1*%
%AMFreePoly1*
4,1,23,0.000000,0.745722,0.065263,0.745722,0.191342,0.711940,0.304381,0.646677,0.396677,0.554381,0.461940,0.441342,0.495722,0.315263,0.495722,0.250000,0.500000,0.250000,0.500000,-0.250000,0.495722,-0.250000,0.495722,-0.315263,0.461940,-0.441342,0.396677,-0.554381,0.304381,-0.646677,0.191342,-0.711940,0.065263,-0.745722,0.000000,-0.745722,0.000000,-0.750000,-0.550000,-0.750000,
-0.550000,0.750000,0.000000,0.750000,0.000000,0.745722,0.000000,0.745722,$1*%
G04 Aperture macros list end*
%ADD10R,1.524000X1.524000*%
%ADD11FreePoly0,90.000000*%
%ADD12R,1.500000X1.000000*%
%ADD13FreePoly1,90.000000*%
%ADD14C,6.000000*%
%ADD15FreePoly0,180.000000*%
%ADD16R,1.000000X1.500000*%
%ADD17FreePoly1,180.000000*%
%ADD18C,2.000000*%
%ADD19C,1.100000*%
%ADD20C,1.600000*%
%ADD21R,1.500000X0.700000*%
%ADD22R,2.800000X1.500000*%
%ADD23C,2.500000*%
%ADD24C,2.700000*%
%ADD25R,2.400000X2.400000*%
%ADD26C,2.400000*%
%ADD27FreePoly0,0.000000*%
%ADD28FreePoly1,0.000000*%
%ADD29RoundRect,0.150000X-0.150000X-0.700000X0.150000X-0.700000X0.150000X0.700000X-0.150000X0.700000X0*%
%ADD30RoundRect,0.250000X-0.250000X-1.100000X0.250000X-1.100000X0.250000X1.100000X-0.250000X1.100000X0*%
%ADD31RoundRect,0.150000X0.150000X0.700000X-0.150000X0.700000X-0.150000X-0.700000X0.150000X-0.700000X0*%
%ADD32RoundRect,0.250000X0.250000X1.100000X-0.250000X1.100000X-0.250000X-1.100000X0.250000X-1.100000X0*%
G04 APERTURE END LIST*
D10*
%TO.C,J5*%
X43180000Y49403000D03*
X40640000Y49403000D03*
X43180000Y51943000D03*
X40640000Y51943000D03*
X43180000Y54483000D03*
X40640000Y54483000D03*
%TD*%
D11*
%TO.C,JP6*%
X26670000Y16226000D03*
D12*
X26670000Y17526000D03*
D13*
X26670000Y18826000D03*
%TD*%
D10*
%TO.C,J10*%
X-6096000Y16129000D03*
X-6096000Y13589000D03*
X-8636000Y16129000D03*
X-8636000Y13589000D03*
X-11176000Y16129000D03*
X-11176000Y13589000D03*
X-13716000Y16129000D03*
X-13716000Y13589000D03*
X-16256000Y16129000D03*
X-16256000Y13589000D03*
%TD*%
D11*
%TO.C,JP5*%
X26797000Y25878000D03*
D12*
X26797000Y27178000D03*
D13*
X26797000Y28478000D03*
%TD*%
D14*
%TO.C,H4*%
X-50546000Y66675000D03*
%TD*%
%TO.C,H3*%
X40894000Y66675000D03*
%TD*%
D15*
%TO.C,JP1*%
X17810000Y25654000D03*
D16*
X16510000Y25654000D03*
D17*
X15210000Y25654000D03*
%TD*%
D18*
%TO.C,FID2*%
X37974000Y21255000D03*
%TD*%
D15*
%TO.C,JP3*%
X-19020000Y22987000D03*
D16*
X-20320000Y22987000D03*
D17*
X-21620000Y22987000D03*
%TD*%
D10*
%TO.C,J11*%
X-31496000Y66421000D03*
X-31496000Y68961000D03*
X-28956000Y66421000D03*
X-28956000Y68961000D03*
X-26416000Y66421000D03*
X-26416000Y68961000D03*
X-23876000Y66421000D03*
X-23876000Y68961000D03*
X-21336000Y66421000D03*
X-21336000Y68961000D03*
X-18796000Y66421000D03*
X-18796000Y68961000D03*
X-16256000Y66421000D03*
X-16256000Y68961000D03*
%TD*%
%TO.C,J4*%
X-12954000Y66421000D03*
X-12954000Y68961000D03*
X-10414000Y66421000D03*
X-10414000Y68961000D03*
X-7874000Y66421000D03*
X-7874000Y68961000D03*
%TD*%
D14*
%TO.C,H1*%
X-50546000Y15875000D03*
%TD*%
D19*
%TO.C,J6*%
X-32496000Y46425000D03*
D20*
X-32496000Y25425000D03*
D12*
X-29696000Y28050000D03*
X-29696000Y30550000D03*
X-29696000Y33050000D03*
X-29696000Y35550000D03*
X-29696000Y38050000D03*
X-29696000Y40550000D03*
X-29696000Y42980000D03*
X-29696000Y44680000D03*
X-29696000Y25550000D03*
D21*
X-29696000Y45980000D03*
X-29696000Y47180000D03*
D22*
X-31496000Y48575000D03*
X-52996000Y48575000D03*
X-31496000Y23475000D03*
X-52996000Y21275000D03*
%TD*%
D23*
%TO.C,J23*%
X-50546000Y56007000D03*
D24*
X-53086000Y58547000D03*
X-53086000Y53467000D03*
X-48006000Y58547000D03*
X-48006000Y53467000D03*
%TD*%
D25*
%TO.C,C28*%
X23876000Y61087000D03*
D26*
X31376000Y61087000D03*
%TD*%
D27*
%TO.C,JP2*%
X9846000Y25654000D03*
D16*
X11146000Y25654000D03*
D28*
X12446000Y25654000D03*
%TD*%
D29*
%TO.C,J9*%
X-1250000Y16709000D03*
X0Y16709000D03*
X1250000Y16709000D03*
X2500000Y16709000D03*
D30*
X-3100000Y13509000D03*
X4350000Y13509000D03*
%TD*%
D18*
%TO.C,FID1*%
X-43926000Y68255000D03*
%TD*%
D29*
%TO.C,J7*%
X8676000Y16709000D03*
X9926000Y16709000D03*
X11176000Y16709000D03*
X12426000Y16709000D03*
X13676000Y16709000D03*
X14926000Y16709000D03*
D30*
X6826000Y13509000D03*
X16776000Y13509000D03*
%TD*%
D10*
%TO.C,J3*%
X9398000Y66421000D03*
X9398000Y68961000D03*
X11938000Y66421000D03*
X11938000Y68961000D03*
X14478000Y66421000D03*
X14478000Y68961000D03*
%TD*%
%TO.C,J2*%
X-25576000Y45123000D03*
X-23036000Y45123000D03*
%TD*%
D14*
%TO.C,H2*%
X40894000Y15875000D03*
%TD*%
D10*
%TO.C,J13*%
X-37338000Y66421000D03*
X-37338000Y68961000D03*
X-34798000Y66421000D03*
X-34798000Y68961000D03*
%TD*%
%TO.C,J1*%
X8382000Y50927000D03*
X10922000Y50927000D03*
%TD*%
D31*
%TO.C,J8*%
X4512000Y65841000D03*
X3262000Y65841000D03*
X2012000Y65841000D03*
X762000Y65841000D03*
X-488000Y65841000D03*
X-1738000Y65841000D03*
X-2988000Y65841000D03*
D32*
X6362000Y69041000D03*
X-4838000Y69041000D03*
%TD*%
D10*
%TO.C,J12*%
X-29718000Y13589000D03*
X-29718000Y16129000D03*
X-27178000Y13589000D03*
X-27178000Y16129000D03*
X-24638000Y13589000D03*
X-24638000Y16129000D03*
X-22098000Y13589000D03*
X-22098000Y16129000D03*
X-19558000Y13589000D03*
X-19558000Y16129000D03*
%TD*%
D27*
%TO.C,JP4*%
X702000Y29845000D03*
D16*
X2002000Y29845000D03*
D28*
X3302000Y29845000D03*
%TD*%
D10*
%TO.C,J24*%
X40640000Y43815000D03*
X43180000Y43815000D03*
X40640000Y41275000D03*
X43180000Y41275000D03*
X40640000Y38735000D03*
X43180000Y38735000D03*
%TD*%
D29*
%TO.C,J14*%
X20852600Y16607400D03*
X22102600Y16607400D03*
X23352600Y16607400D03*
X24602600Y16607400D03*
X25852600Y16607400D03*
X27102600Y16607400D03*
D30*
X19002600Y13407400D03*
X28952600Y13407400D03*
%TD*%
M02*
