M48
; DRILL file KiCad 10.0.5-unknown-202607221313~667fa36054~ubuntu25.10.1 date 2026-08-09T20:33:57
; FORMAT={3:3/ absolute / metric / suppress leading zeros}
; #@! TF.CreationDate,2026-08-09T20:33:57+00:00
; #@! TF.GenerationSoftware,Kicad,Pcbnew,10.0.5-unknown-202607221313~667fa36054~ubuntu25.10.1
; #@! TF.FileFunction,Plated,1,2,PTH
FMAT,2
METRIC,TZ
; #@! TA.AperFunction,Plated,PTH,ComponentDrill
T1C0.200
; #@! TA.AperFunction,Plated,PTH,ViaDrill
T2C0.400
; #@! TA.AperFunction,Plated,PTH,ComponentDrill
T3C0.400
; #@! TA.AperFunction,Plated,PTH,ViaDrill
T4C0.600
; #@! TA.AperFunction,Plated,PTH,ComponentDrill
T5C0.889
; #@! TA.AperFunction,Plated,PTH,ComponentDrill
T6C1.200
; #@! TA.AperFunction,Plated,PTH,ComponentDrill
T7C1.500
; #@! TA.AperFunction,Plated,PTH,ComponentDrill
T8C1.700
; #@! TA.AperFunction,Plated,PTH,ComponentDrill
T9C3.000
%
G90
G05
T1
X-25454Y56963
X-25454Y55913
X-25454Y54863
X-24404Y56963
X-24404Y55913
X-24404Y54863
X-23354Y56963
X-23354Y55913
X-23354Y54863
T2
X-53086Y50165
X-53086Y47117
X-53086Y22733
X-50826Y24555
X-50800Y21463
X-49001Y50280
X-46401Y30630
X-45701Y50230
X-44151Y50155
X-43151Y52480
X-42926Y60455
X-42376Y50005
X-39826Y55855
X-38676Y60765
X-37338Y53277
X-36526Y63055
X-35401Y61780
X-35306Y53023
X-35306Y51244
X-35306Y49403
X-35306Y43053
X-35051Y30805
X-33787Y47884
X-33528Y33401
X-32926Y64430
X-32926Y49455
X-32512Y28067
X-32004Y32258
X-31953Y41123
X-31928Y39827
X-31496Y21971
X-31242Y47117
X-30988Y43053
X-30251Y63627
X-30151Y64455
X-29696Y33050
X-29210Y23495
X-28194Y35462
X-28194Y30607
X-28194Y28067
X-28151Y36980
X-27940Y49274
X-27651Y45130
X-27490Y52371
X-27432Y61468
X-27432Y59563
X-26747Y50154
X-26675Y52964
X-26416Y48387
X-26161Y51546
X-24476Y39030
X-24437Y43895
X-23368Y43053
X-23073Y59338
X-22860Y53176
X-22826Y39530
X-22352Y43053
X-22098Y29845
X-22098Y18415
X-21651Y62855
X-21336Y57023
X-21336Y43053
X-21336Y21463
X-21333Y53170
X-21326Y46805
X-20574Y49911
X-20526Y60455
X-20470Y27116
X-20320Y44069
X-20320Y43053
X-20200Y48706
X-19934Y21341
X-19276Y60255
X-18796Y32639
X-18796Y21209
X-18676Y48867
X-18288Y52959
X-18034Y47117
X-17780Y32639
X-17526Y30099
X-17526Y26797
X-17526Y25019
X-17018Y57277
X-17001Y61455
X-16764Y23241
X-16751Y63280
X-16510Y25019
X-16256Y27559
X-16002Y40259
X-15126Y63780
X-14986Y53721
X-14986Y40259
X-14732Y60833
X-14732Y18923
X-14676Y55380
X-14576Y68105
X-14201Y50005
X-13992Y23009
X-13308Y30930
X-12827Y62611
X-12700Y32893
X-12446Y38481
X-11684Y44069
X-11430Y40259
X-11176Y26543
X-11176Y24130
X-10414Y45085
X-10414Y41275
X-10160Y52451
X-10160Y22733
X-9914Y54081
X-9906Y29083
X-9144Y42000
X-9066Y34963
X-8636Y43053
X-8382Y36957
X-8382Y26035
X-8382Y25019
X-8382Y24003
X-7913Y55908
X-7715Y45413
X-7112Y33401
X-7026Y47755
X-6604Y51435
X-6350Y52997
X-5842Y58455
X-5176Y28280
X-5151Y31555
X-4826Y23495
X-4572Y57023
X-4572Y46863
X-4318Y44323
X-3556Y57023
X-3401Y32580
X-3302Y44323
X-3226Y34630
X-3085Y47588
X-3048Y21717
X-2000Y12934
X-1973Y37016
X-1778Y25567
X-1741Y30980
X-1351Y51930
X-1016Y36195
X-508Y48895
X-376Y22630
X-291Y31605
X-254Y29145
X0Y14934
X254Y44069
X324Y32639
X1024Y54680
X1049Y22119
X1249Y18444
X1549Y57080
X2074Y63705
X2110Y48171
X2286Y49403
X2540Y14859
X3048Y23495
X3274Y30755
X3302Y62132
X3749Y53380
X3810Y15875
X4064Y50419
X4318Y36195
X4318Y23495
X4396Y39789
X6096Y60071
X6774Y38481
X7112Y29845
X7620Y45593
X7649Y33005
X7649Y30705
X8890Y43561
X9111Y63867
X9257Y39247
X9398Y30607
X10174Y63105
X10414Y49149
X10414Y48133
X10668Y45085
X11146Y25654
X11176Y62103
X11430Y52705
X11938Y61341
X12024Y20455
X13024Y15080
X13462Y41275
X14224Y59817
X14986Y18669
X15240Y34671
X15748Y55753
X15748Y54483
X15748Y21463
X15772Y47395
X16510Y25654
X16753Y43813
X18034Y22987
X18542Y48133
X18542Y34671
X19024Y19505
X19324Y27305
X19524Y40130
X19823Y37531
X20874Y40805
X22098Y35941
X22098Y18955
X23241Y44069
X23299Y31380
X23340Y42383
X23876Y47053
X24024Y36730
X24638Y29083
X24805Y27599
X25324Y39680
X25400Y22455
X25574Y49455
X25654Y45974
X26010Y35891
X26965Y25738
X26974Y22405
X27264Y40980
X27561Y18843
X28702Y18923
X29591Y50038
X30353Y44069
X30949Y30607
X31099Y34205
X31199Y48355
X31750Y28829
X31750Y27559
X32004Y25527
X32199Y24130
X35849Y15280
X36074Y52930
X37338Y27813
X37338Y25781
X37846Y61087
X37874Y50880
X40386Y29845
X40386Y26925
X40386Y24257
X40576Y35179
X42624Y37305
X42926Y33330
X43688Y59563
X43688Y57785
X44099Y36805
T3
X-10926Y60005
X-9926Y60005
T4
X-24560Y19605
X-22701Y61880
X-18034Y54991
X-16226Y50051
X-15676Y29205
X-13864Y57893
X-11626Y64530
X-9926Y56255
X-5901Y64530
X-1201Y15030
X574Y34925
X2099Y59705
X3124Y33480
X4069Y26285
X5224Y25230
X6576Y64897
X8024Y27780
X8574Y25680
X8599Y13305
X9549Y22355
X10649Y55028
X12549Y54705
X17810Y25654
X19024Y28830
X19948Y32275
X20174Y25530
X20853Y19205
X25527Y24130
X25908Y33318
X29324Y33530
X30374Y56180
X33574Y52180
X33799Y49055
T5
X-37338Y68961
X-37338Y66421
X-34798Y68961
X-34798Y66421
X-31516Y69505
X-31516Y66965
X-29718Y16129
X-29718Y13589
X-28976Y69505
X-28976Y66965
X-27178Y16129
X-27178Y13589
X-26436Y69505
X-26436Y66965
X-25576Y45123
X-24638Y16129
X-24638Y13589
X-23896Y69505
X-23896Y66965
X-23036Y45123
X-22098Y16129
X-22098Y13589
X-21356Y69505
X-21356Y66965
X-19558Y16129
X-19558Y13589
X-18816Y69505
X-18816Y66965
X-16276Y69505
X-16276Y66965
X-16256Y16129
X-16256Y13589
X-13716Y16129
X-13716Y13589
X-12791Y69530
X-12791Y66990
X-11176Y16129
X-11176Y13589
X-10251Y69530
X-10251Y66990
X-8636Y16129
X-8636Y13589
X-7711Y69530
X-7711Y66990
X-6096Y16129
X-6096Y13589
X8382Y50927
X10922Y50927
X39834Y44855
X39834Y42315
X39834Y39775
X40640Y54483
X40640Y51943
X40640Y49403
X42374Y44855
X42374Y42315
X42374Y39775
X43180Y54483
X43180Y51943
X43180Y49403
T6
X23876Y61087
X31376Y61087
T7
X-50546Y56007
T8
X-53086Y58547
X-53086Y53467
X-48006Y58547
X-48006Y53467
T9
X-50546Y66675
X-50546Y15875
X40894Y66675
X40894Y15875
M30
