%TF.GenerationSoftware,KiCad,Pcbnew,10.0.5-unknown-202607221313~667fa36054~ubuntu25.10.1*%
%TF.CreationDate,2026-08-09T20:33:56+00:00*%
%TF.ProjectId,DATALOGGER02,44415441-4c4f-4474-9745-5230322e6b69,rev?*%
%TF.SameCoordinates,Original*%
%TF.FileFunction,Paste,Bot*%
%TF.FilePolarity,Positive*%
%FSLAX46Y46*%
G04 Gerber Fmt 4.6, Leading zero omitted, Abs format (unit mm)*
G04 Created by KiCad (PCBNEW 10.0.5-unknown-202607221313~667fa36054~ubuntu25.10.1) date 2026-08-09 20:33:56*
%MOMM*%
%LPD*%
G01*
G04 APERTURE LIST*
G04 Aperture macros list*
%AMRoundRect*
0 Rectangle with rounded corners*
0 $1 Rounding radius*
0 $2 $3 $4 $5 $6 $7 $8 $9 X,Y pos of 4 corners*
0 Add a 4 corners polygon primitive as box body*
4,1,4,$2,$3,$4,$5,$6,$7,$8,$9,$2,$3,0*
0 Add four circle primitives for the rounded corners*
1,1,$1+$1,$2,$3*
1,1,$1+$1,$4,$5*
1,1,$1+$1,$6,$7*
1,1,$1+$1,$8,$9*
0 Add four rect primitives between the rounded corners*
20,1,$1+$1,$2,$3,$4,$5,0*
20,1,$1+$1,$4,$5,$6,$7,0*
20,1,$1+$1,$6,$7,$8,$9,0*
20,1,$1+$1,$8,$9,$2,$3,0*%
%AMFreePoly0*
4,1,37,-1.390000,2.050000,0.435000,2.050000,0.435000,2.805000,1.035000,2.805000,1.035000,2.050000,1.215000,2.050000,1.215000,-2.050000,1.035000,-2.050000,1.035000,-2.805000,0.435000,-2.805000,0.435000,-2.050000,-1.390000,-2.050000,-1.390000,-2.805000,-1.990000,-2.805000,-1.990000,-2.050000,-2.285000,-2.050000,-2.285000,-2.210000,-3.305000,-2.210000,-3.305000,-1.600000,-2.595000,-1.600000,
-2.595000,-0.940000,-3.305000,-0.940000,-3.305000,-0.330000,-2.595000,-0.330000,-2.595000,0.330000,-3.305000,0.330000,-3.305000,0.940000,-2.595000,0.940000,-2.595000,1.600000,-3.305000,1.600000,-3.305000,2.210000,-2.285000,2.210000,-2.285000,2.050000,-1.990000,2.050000,-1.990000,2.805000,-1.390000,2.805000,-1.390000,2.050000,-1.390000,2.050000,$1*%
G04 Aperture macros list end*
%ADD10RoundRect,0.250000X0.262500X0.450000X-0.262500X0.450000X-0.262500X-0.450000X0.262500X-0.450000X0*%
%ADD11RoundRect,0.250000X-0.250000X-0.475000X0.250000X-0.475000X0.250000X0.475000X-0.250000X0.475000X0*%
%ADD12RoundRect,0.250000X-0.450000X0.262500X-0.450000X-0.262500X0.450000X-0.262500X0.450000X0.262500X0*%
%ADD13RoundRect,0.250000X-0.475000X0.250000X-0.475000X-0.250000X0.475000X-0.250000X0.475000X0.250000X0*%
%ADD14RoundRect,0.150000X0.150000X-0.825000X0.150000X0.825000X-0.150000X0.825000X-0.150000X-0.825000X0*%
%ADD15R,1.200000X1.400000*%
%ADD16RoundRect,0.250000X0.475000X-0.250000X0.475000X0.250000X-0.475000X0.250000X-0.475000X-0.250000X0*%
%ADD17RoundRect,0.250000X0.250000X0.475000X-0.250000X0.475000X-0.250000X-0.475000X0.250000X-0.475000X0*%
%ADD18RoundRect,0.250000X-0.262500X-0.450000X0.262500X-0.450000X0.262500X0.450000X-0.262500X0.450000X0*%
%ADD19RoundRect,0.225000X-0.225000X-0.250000X0.225000X-0.250000X0.225000X0.250000X-0.225000X0.250000X0*%
%ADD20R,1.270000X2.540000*%
%ADD21RoundRect,0.218750X0.218750X0.256250X-0.218750X0.256250X-0.218750X-0.256250X0.218750X-0.256250X0*%
%ADD22R,0.850000X0.750000*%
%ADD23RoundRect,0.250000X0.450000X-0.262500X0.450000X0.262500X-0.450000X0.262500X-0.450000X-0.262500X0*%
%ADD24RoundRect,0.250000X-0.315000X0.315000X-0.315000X-0.315000X0.315000X-0.315000X0.315000X0.315000X0*%
%ADD25RoundRect,0.062500X-0.062500X0.350000X-0.062500X-0.350000X0.062500X-0.350000X0.062500X0.350000X0*%
%ADD26RoundRect,0.062500X-0.350000X0.062500X-0.350000X-0.062500X0.350000X-0.062500X0.350000X0.062500X0*%
%ADD27RoundRect,0.225000X0.250000X-0.225000X0.250000X0.225000X-0.250000X0.225000X-0.250000X-0.225000X0*%
%ADD28RoundRect,0.087500X0.425000X0.087500X-0.425000X0.087500X-0.425000X-0.087500X0.425000X-0.087500X0*%
%ADD29RoundRect,0.050000X0.285000X0.100000X-0.285000X0.100000X-0.285000X-0.100000X0.285000X-0.100000X0*%
%ADD30RoundRect,0.225000X-0.250000X0.225000X-0.250000X-0.225000X0.250000X-0.225000X0.250000X0.225000X0*%
%ADD31RoundRect,0.100000X0.637500X0.100000X-0.637500X0.100000X-0.637500X-0.100000X0.637500X-0.100000X0*%
%ADD32RoundRect,0.050000X-0.225000X-0.050000X0.225000X-0.050000X0.225000X0.050000X-0.225000X0.050000X0*%
%ADD33RoundRect,0.050000X-0.050000X0.225000X-0.050000X-0.225000X0.050000X-0.225000X0.050000X0.225000X0*%
%ADD34RoundRect,0.150000X-0.587500X-0.150000X0.587500X-0.150000X0.587500X0.150000X-0.587500X0.150000X0*%
%ADD35RoundRect,0.166667X0.458333X0.583333X-0.458333X0.583333X-0.458333X-0.583333X0.458333X-0.583333X0*%
%ADD36RoundRect,0.166667X-0.458333X-0.583333X0.458333X-0.583333X0.458333X0.583333X-0.458333X0.583333X0*%
%ADD37RoundRect,0.245000X0.290000X0.245000X-0.290000X0.245000X-0.290000X-0.245000X0.290000X-0.245000X0*%
%ADD38RoundRect,0.062500X0.362500X0.062500X-0.362500X0.062500X-0.362500X-0.062500X0.362500X-0.062500X0*%
%ADD39RoundRect,0.062500X0.062500X0.362500X-0.062500X0.362500X-0.062500X-0.362500X0.062500X-0.362500X0*%
%ADD40RoundRect,0.225000X0.225000X0.250000X-0.225000X0.250000X-0.225000X-0.250000X0.225000X-0.250000X0*%
%ADD41R,3.400000X1.900000*%
%ADD42RoundRect,0.150000X-0.512500X-0.150000X0.512500X-0.150000X0.512500X0.150000X-0.512500X0.150000X0*%
%ADD43R,1.270000X0.610000*%
%ADD44FreePoly0,180.000000*%
%ADD45R,0.650000X0.750000*%
%ADD46RoundRect,0.062500X0.062500X-0.187500X0.062500X0.187500X-0.062500X0.187500X-0.062500X-0.187500X0*%
%ADD47R,0.950000X0.550000*%
%ADD48R,1.000000X1.800000*%
%ADD49RoundRect,0.218750X-0.381250X0.218750X-0.381250X-0.218750X0.381250X-0.218750X0.381250X0.218750X0*%
%ADD50R,5.080000X1.780000*%
%ADD51R,3.960000X3.960000*%
%ADD52RoundRect,0.250000X0.850000X-0.375000X0.850000X0.375000X-0.850000X0.375000X-0.850000X-0.375000X0*%
%ADD53RoundRect,0.218750X0.256250X-0.218750X0.256250X0.218750X-0.256250X0.218750X-0.256250X-0.218750X0*%
%ADD54R,1.430000X5.500000*%
%ADD55RoundRect,0.218750X-0.256250X0.218750X-0.256250X-0.218750X0.256250X-0.218750X0.256250X0.218750X0*%
%ADD56RoundRect,0.137500X0.600000X0.137500X-0.600000X0.137500X-0.600000X-0.137500X0.600000X-0.137500X0*%
%ADD57RoundRect,0.137500X0.137500X0.600000X-0.137500X0.600000X-0.137500X-0.600000X0.137500X-0.600000X0*%
%ADD58R,1.550000X0.600000*%
%ADD59R,2.500000X1.800000*%
G04 APERTURE END LIST*
D10*
%TO.C,R46*%
X-21947500Y51181000D03*
X-23772500Y51181000D03*
%TD*%
D11*
%TO.C,C34*%
X27244000Y53467000D03*
X29144000Y53467000D03*
%TD*%
D12*
%TO.C,R1*%
X2618000Y37844000D03*
X2618000Y36019000D03*
%TD*%
D13*
%TO.C,C44*%
X-19812000Y54861500D03*
X-19812000Y52961500D03*
%TD*%
D14*
%TO.C,IC2*%
X17018000Y23941000D03*
X15748000Y23941000D03*
X14478000Y23941000D03*
X13208000Y23941000D03*
X11938000Y23941000D03*
X10668000Y23941000D03*
X9398000Y23941000D03*
X9398000Y28891000D03*
X10668000Y28891000D03*
X11938000Y28891000D03*
X13208000Y28891000D03*
X14478000Y28891000D03*
X15748000Y28891000D03*
X17018000Y28891000D03*
%TD*%
D15*
%TO.C,Y6*%
X1988000Y41763000D03*
X1988000Y44363000D03*
X3888000Y44363000D03*
X3888000Y41763000D03*
%TD*%
D11*
%TO.C,C43*%
X-18349000Y57277000D03*
X-16449000Y57277000D03*
%TD*%
D16*
%TO.C,C2*%
X2110000Y46268500D03*
X2110000Y48168500D03*
%TD*%
D17*
%TO.C,C12*%
X31430000Y22733000D03*
X29530000Y22733000D03*
%TD*%
D18*
%TO.C,R21*%
X8803000Y20955000D03*
X10628000Y20955000D03*
%TD*%
D11*
%TO.C,C24*%
X17084000Y31369000D03*
X18984000Y31369000D03*
%TD*%
D18*
%TO.C,R10*%
X-12596500Y34417000D03*
X-10771500Y34417000D03*
%TD*%
D19*
%TO.C,C57*%
X-43801000Y55955000D03*
X-42251000Y55955000D03*
%TD*%
D20*
%TO.C,L1*%
X-20574000Y40767000D03*
X-17526000Y40767000D03*
%TD*%
D18*
%TO.C,R14*%
X-8723000Y29083000D03*
X-6898000Y29083000D03*
%TD*%
D21*
%TO.C,L8*%
X-27891500Y58255000D03*
X-29466500Y58255000D03*
%TD*%
D17*
%TO.C,C3*%
X7568500Y43853000D03*
X5668500Y43853000D03*
%TD*%
D13*
%TO.C,C22*%
X-17526000Y28699500D03*
X-17526000Y26799500D03*
%TD*%
D19*
%TO.C,C52*%
X-32601000Y58355000D03*
X-31051000Y58355000D03*
%TD*%
D16*
%TO.C,C13*%
X29210000Y31655000D03*
X29210000Y33555000D03*
%TD*%
D22*
%TO.C,Y3*%
X-23001000Y62855000D03*
X-21651000Y62855000D03*
X-21651000Y61805000D03*
X-23001000Y61805000D03*
%TD*%
D10*
%TO.C,R8*%
X-1437000Y55245000D03*
X-3262000Y55245000D03*
%TD*%
D23*
%TO.C,R28*%
X37846000Y57698000D03*
X37846000Y59523000D03*
%TD*%
D24*
%TO.C,U11*%
X-23754000Y56562500D03*
X-25054000Y56562500D03*
X-23754000Y55262500D03*
X-25054000Y55262500D03*
D25*
X-25654000Y57850000D03*
X-25154000Y57850000D03*
X-24654000Y57850000D03*
X-24154000Y57850000D03*
X-23654000Y57850000D03*
X-23154000Y57850000D03*
D26*
X-22466500Y57162500D03*
X-22466500Y56662500D03*
X-22466500Y56162500D03*
X-22466500Y55662500D03*
X-22466500Y55162500D03*
X-22466500Y54662500D03*
D25*
X-23154000Y53975000D03*
X-23654000Y53975000D03*
X-24154000Y53975000D03*
X-24654000Y53975000D03*
X-25154000Y53975000D03*
X-25654000Y53975000D03*
D26*
X-26341500Y54662500D03*
X-26341500Y55162500D03*
X-26341500Y55662500D03*
X-26341500Y56162500D03*
X-26341500Y56662500D03*
X-26341500Y57162500D03*
%TD*%
D27*
%TO.C,C53*%
X-34226000Y57580000D03*
X-34226000Y59130000D03*
%TD*%
D18*
%TO.C,R47*%
X-40738500Y51255000D03*
X-38913500Y51255000D03*
%TD*%
D23*
%TO.C,R34*%
X13716000Y38267000D03*
X13716000Y40092000D03*
%TD*%
D28*
%TO.C,U12*%
X-39088500Y56505000D03*
X-39088500Y55855000D03*
X-39088500Y55205000D03*
X-40763500Y55205000D03*
X-40763500Y55855000D03*
X-40763500Y56505000D03*
%TD*%
D13*
%TO.C,C23*%
X-31750000Y35430500D03*
X-31750000Y33530500D03*
%TD*%
D10*
%TO.C,R23*%
X7594500Y36741000D03*
X5769500Y36741000D03*
%TD*%
D16*
%TO.C,C19*%
X2540000Y29593500D03*
X2540000Y31493500D03*
%TD*%
D29*
%TO.C,U10*%
X27686000Y28254000D03*
X27686000Y27754000D03*
X27686000Y27254000D03*
X27686000Y26754000D03*
X26206000Y26754000D03*
X26206000Y27254000D03*
X26206000Y27754000D03*
X26206000Y28254000D03*
%TD*%
D30*
%TO.C,C59*%
X-50501000Y60005000D03*
X-50501000Y58455000D03*
%TD*%
D16*
%TO.C,C20*%
X-12700000Y59057500D03*
X-12700000Y60957500D03*
%TD*%
D11*
%TO.C,C1*%
X-8252500Y52997000D03*
X-6352500Y52997000D03*
%TD*%
D23*
%TO.C,R19*%
X-14732000Y20233000D03*
X-14732000Y22058000D03*
%TD*%
D16*
%TO.C,C45*%
X-26726000Y60105000D03*
X-26726000Y62005000D03*
%TD*%
D10*
%TO.C,R39*%
X13930000Y48133000D03*
X12105000Y48133000D03*
%TD*%
D12*
%TO.C,R35*%
X15274000Y44280000D03*
X15274000Y42455000D03*
%TD*%
D16*
%TO.C,C33*%
X22098000Y25466000D03*
X22098000Y27366000D03*
%TD*%
D31*
%TO.C,U4*%
X-6858000Y27313000D03*
X-6858000Y26663000D03*
X-6858000Y26013000D03*
X-6858000Y25363000D03*
X-6858000Y24713000D03*
X-6858000Y24063000D03*
X-6858000Y23413000D03*
X-6858000Y22763000D03*
X-6858000Y22113000D03*
X-6858000Y21463000D03*
X-12583000Y21463000D03*
X-12583000Y22113000D03*
X-12583000Y22763000D03*
X-12583000Y23413000D03*
X-12583000Y24063000D03*
X-12583000Y24713000D03*
X-12583000Y25363000D03*
X-12583000Y26013000D03*
X-12583000Y26663000D03*
X-12583000Y27313000D03*
%TD*%
D30*
%TO.C,C54*%
X-35826000Y59130000D03*
X-35826000Y57580000D03*
%TD*%
D11*
%TO.C,C8*%
X4017500Y46609000D03*
X5917500Y46609000D03*
%TD*%
D16*
%TO.C,C37*%
X33549000Y25355000D03*
X33549000Y27255000D03*
%TD*%
D11*
%TO.C,C56*%
X-40776000Y53287000D03*
X-38876000Y53287000D03*
%TD*%
D17*
%TO.C,C15*%
X-276000Y29530000D03*
X-2176000Y29530000D03*
%TD*%
D16*
%TO.C,C32*%
X33528000Y54612500D03*
X33528000Y56512500D03*
%TD*%
D17*
%TO.C,C4*%
X4393500Y39789000D03*
X2493500Y39789000D03*
%TD*%
D29*
%TO.C,U9*%
X31242000Y18661000D03*
X31242000Y18161000D03*
X31242000Y17661000D03*
X31242000Y17161000D03*
X29762000Y17161000D03*
X29762000Y17661000D03*
X29762000Y18161000D03*
X29762000Y18661000D03*
%TD*%
D32*
%TO.C,U5*%
X48000Y25019000D03*
X48000Y25419000D03*
X48000Y25819000D03*
X48000Y26219000D03*
X48000Y26619000D03*
X48000Y27019000D03*
D33*
X548000Y27519000D03*
X948000Y27519000D03*
X1348000Y27519000D03*
X1748000Y27519000D03*
X2148000Y27519000D03*
X2548000Y27519000D03*
D32*
X3048000Y27019000D03*
X3048000Y26619000D03*
X3048000Y26219000D03*
X3048000Y25819000D03*
X3048000Y25419000D03*
X3048000Y25019000D03*
D33*
X2548000Y24519000D03*
X2148000Y24519000D03*
X1748000Y24519000D03*
X1348000Y24519000D03*
X948000Y24519000D03*
X548000Y24519000D03*
%TD*%
D10*
%TO.C,R27*%
X-32298000Y43053000D03*
X-34123000Y43053000D03*
%TD*%
%TO.C,R16*%
X4278000Y22225000D03*
X2453000Y22225000D03*
%TD*%
%TO.C,R44*%
X27646000Y29830000D03*
X25821000Y29830000D03*
%TD*%
D34*
%TO.C,Q1*%
X-35911000Y34483000D03*
X-35911000Y36383000D03*
X-34036000Y35433000D03*
%TD*%
D18*
%TO.C,R31*%
X19725000Y34417000D03*
X21550000Y34417000D03*
%TD*%
D30*
%TO.C,C51*%
X-33426400Y55156400D03*
X-33426400Y53606400D03*
%TD*%
D35*
%TO.C,D1*%
X43688000Y57785000D03*
D36*
X40088000Y57785000D03*
%TD*%
D23*
%TO.C,R18*%
X-16764000Y20233000D03*
X-16764000Y22058000D03*
%TD*%
%TO.C,R20*%
X-38100000Y34520500D03*
X-38100000Y36345500D03*
%TD*%
D37*
%TO.C,IC3*%
X20714000Y43318000D03*
X20714000Y44538000D03*
X20714000Y45758000D03*
X19394000Y43318000D03*
X19394000Y44538000D03*
X19394000Y45758000D03*
D38*
X22004000Y46038000D03*
X22004000Y45538000D03*
X22004000Y45038000D03*
X22004000Y44538000D03*
X22004000Y44038000D03*
X22004000Y43538000D03*
X22004000Y43038000D03*
D39*
X21054000Y42088000D03*
X20554000Y42088000D03*
X20054000Y42088000D03*
X19554000Y42088000D03*
X19054000Y42088000D03*
D38*
X18104000Y43038000D03*
X18104000Y43538000D03*
X18104000Y44038000D03*
X18104000Y44538000D03*
X18104000Y45038000D03*
X18104000Y45538000D03*
X18104000Y46038000D03*
D39*
X19054000Y46988000D03*
X19554000Y46988000D03*
X20054000Y46988000D03*
X20554000Y46988000D03*
X21054000Y46988000D03*
%TD*%
D13*
%TO.C,C14*%
X-4826000Y23492500D03*
X-4826000Y21592500D03*
%TD*%
D16*
%TO.C,C48*%
X-28826000Y60105000D03*
X-28826000Y62005000D03*
%TD*%
D27*
%TO.C,C55*%
X-39026000Y58080000D03*
X-39026000Y59630000D03*
%TD*%
D16*
%TO.C,C5*%
X-27940000Y47373500D03*
X-27940000Y49273500D03*
%TD*%
D10*
%TO.C,R40*%
X20661000Y36449000D03*
X18836000Y36449000D03*
%TD*%
%TO.C,R9*%
X-421000Y57277000D03*
X-2246000Y57277000D03*
%TD*%
D12*
%TO.C,R15*%
X-4726000Y27055000D03*
X-4726000Y25230000D03*
%TD*%
D11*
%TO.C,C39*%
X27244000Y51308000D03*
X29144000Y51308000D03*
%TD*%
D10*
%TO.C,R24*%
X-29567500Y28067000D03*
X-31392500Y28067000D03*
%TD*%
D40*
%TO.C,C47*%
X-30351000Y53555000D03*
X-31901000Y53555000D03*
%TD*%
D13*
%TO.C,C7*%
X-18542000Y44993500D03*
X-18542000Y43093500D03*
%TD*%
D21*
%TO.C,L7*%
X-27891500Y56769000D03*
X-29466500Y56769000D03*
%TD*%
D10*
%TO.C,R43*%
X27646000Y20404000D03*
X25821000Y20404000D03*
%TD*%
D13*
%TO.C,C25*%
X-29718000Y35430500D03*
X-29718000Y33530500D03*
%TD*%
D16*
%TO.C,C18*%
X4826000Y27561500D03*
X4826000Y29461500D03*
%TD*%
D41*
%TO.C,F1*%
X36576000Y38481000D03*
X36576000Y42381000D03*
%TD*%
D42*
%TO.C,U8*%
X-22517000Y36009500D03*
X-22517000Y36959500D03*
X-22517000Y37909500D03*
X-20242000Y37909500D03*
X-20242000Y36009500D03*
%TD*%
D17*
%TO.C,C21*%
X-10926000Y62805000D03*
X-12826000Y62805000D03*
%TD*%
D13*
%TO.C,C10*%
X-15416000Y43469500D03*
X-15416000Y41569500D03*
%TD*%
D43*
%TO.C,Q2*%
X27704000Y36068000D03*
X27704000Y37338000D03*
X27704000Y38608000D03*
X27704000Y39878000D03*
D44*
X30374000Y37973000D03*
%TD*%
D19*
%TO.C,C49*%
X-31901000Y55155000D03*
X-30351000Y55155000D03*
%TD*%
D45*
%TO.C,U6*%
X-10826000Y60005000D03*
X-10026000Y60005000D03*
D46*
X-9676000Y59055000D03*
X-10176000Y59055000D03*
X-10676000Y59055000D03*
X-11176000Y59055000D03*
X-11176000Y60955000D03*
X-10676000Y60955000D03*
X-10176000Y60955000D03*
X-9676000Y60955000D03*
%TD*%
D10*
%TO.C,R30*%
X15263500Y52197000D03*
X13438500Y52197000D03*
%TD*%
D12*
%TO.C,R2*%
X-27940000Y42695500D03*
X-27940000Y40870500D03*
%TD*%
D47*
%TO.C,U7*%
X-19304000Y29023000D03*
X-19304000Y27773000D03*
X-19304000Y26523000D03*
X-19304000Y25273000D03*
X-21454000Y25273000D03*
X-21454000Y26523000D03*
X-21454000Y27773000D03*
X-21454000Y29023000D03*
%TD*%
D10*
%TO.C,R26*%
X-29504000Y37973000D03*
X-31329000Y37973000D03*
%TD*%
D23*
%TO.C,R45*%
X25899000Y31642500D03*
X25899000Y33467500D03*
%TD*%
D48*
%TO.C,Y2*%
X11323000Y31369000D03*
X13823000Y31369000D03*
%TD*%
D23*
%TO.C,R36*%
X23876000Y45188500D03*
X23876000Y47013500D03*
%TD*%
%TO.C,R17*%
X-1778000Y25567000D03*
X-1778000Y27392000D03*
%TD*%
D18*
%TO.C,R32*%
X17699000Y40130000D03*
X19524000Y40130000D03*
%TD*%
D17*
%TO.C,C26*%
X13967500Y46101000D03*
X12067500Y46101000D03*
%TD*%
D23*
%TO.C,R33*%
X15748000Y38267000D03*
X15748000Y40092000D03*
%TD*%
D13*
%TO.C,C31*%
X-18210000Y35811500D03*
X-18210000Y33911500D03*
%TD*%
D49*
%TO.C,L5*%
X-20066000Y58466500D03*
X-20066000Y56341500D03*
%TD*%
D18*
%TO.C,R22*%
X5706000Y34709000D03*
X7531000Y34709000D03*
%TD*%
D17*
%TO.C,C6*%
X-7163500Y34963000D03*
X-9063500Y34963000D03*
%TD*%
D50*
%TO.C,BT1*%
X40386000Y22225000D03*
X40386000Y31625000D03*
D51*
X40386000Y26925000D03*
%TD*%
D12*
%TO.C,R37*%
X24638000Y43648000D03*
X24638000Y41823000D03*
%TD*%
D21*
%TO.C,L9*%
X-31038500Y56755000D03*
X-32613500Y56755000D03*
%TD*%
D18*
%TO.C,R3*%
X4049000Y48730000D03*
X5874000Y48730000D03*
%TD*%
D16*
%TO.C,C27*%
X-24560000Y35753000D03*
X-24560000Y37653000D03*
%TD*%
D18*
%TO.C,R6*%
X-6691000Y55245000D03*
X-4866000Y55245000D03*
%TD*%
D52*
%TO.C,L3*%
X33528000Y16848000D03*
X33528000Y18998000D03*
%TD*%
D13*
%TO.C,C16*%
X-14986000Y26731000D03*
X-14986000Y24831000D03*
%TD*%
D18*
%TO.C,R29*%
X13438500Y50165000D03*
X15263500Y50165000D03*
%TD*%
D12*
%TO.C,R38*%
X23499000Y39605000D03*
X23499000Y37780000D03*
%TD*%
D53*
%TO.C,L6*%
X-28626000Y53667500D03*
X-28626000Y55242500D03*
%TD*%
D17*
%TO.C,C46*%
X-30676000Y61755000D03*
X-32576000Y61755000D03*
%TD*%
D54*
%TO.C,L2*%
X18384000Y52197000D03*
X22424000Y52197000D03*
%TD*%
D21*
%TO.C,L11*%
X-46838500Y55955000D03*
X-48413500Y55955000D03*
%TD*%
D55*
%TO.C,L10*%
X-37426000Y59142500D03*
X-37426000Y57567500D03*
%TD*%
D56*
%TO.C,U3*%
X-1815500Y48221000D03*
X-1815500Y47421000D03*
X-1815500Y46621000D03*
X-1815500Y45821000D03*
X-1815500Y45021000D03*
X-1815500Y44221000D03*
X-1815500Y43421000D03*
X-1815500Y42621000D03*
X-1815500Y41821000D03*
X-1815500Y41021000D03*
X-1815500Y40221000D03*
D57*
X-3478000Y38558500D03*
X-4278000Y38558500D03*
X-5078000Y38558500D03*
X-5878000Y38558500D03*
X-6678000Y38558500D03*
X-7478000Y38558500D03*
X-8278000Y38558500D03*
X-9078000Y38558500D03*
X-9878000Y38558500D03*
X-10678000Y38558500D03*
X-11478000Y38558500D03*
D56*
X-13140500Y40221000D03*
X-13140500Y41021000D03*
X-13140500Y41821000D03*
X-13140500Y42621000D03*
X-13140500Y43421000D03*
X-13140500Y44221000D03*
X-13140500Y45021000D03*
X-13140500Y45821000D03*
X-13140500Y46621000D03*
X-13140500Y47421000D03*
X-13140500Y48221000D03*
D57*
X-11478000Y49883500D03*
X-10678000Y49883500D03*
X-9878000Y49883500D03*
X-9078000Y49883500D03*
X-8278000Y49883500D03*
X-7478000Y49883500D03*
X-6678000Y49883500D03*
X-5878000Y49883500D03*
X-5078000Y49883500D03*
X-4278000Y49883500D03*
X-3478000Y49883500D03*
%TD*%
D58*
%TO.C,IC1*%
X14224000Y58293000D03*
X14224000Y57023000D03*
X14224000Y55753000D03*
X14224000Y54483000D03*
X8824000Y54483000D03*
X8824000Y55753000D03*
X8824000Y57023000D03*
X8824000Y58293000D03*
%TD*%
D11*
%TO.C,C17*%
X8796000Y60198000D03*
X10696000Y60198000D03*
%TD*%
D18*
%TO.C,R5*%
X-7707000Y57277000D03*
X-5882000Y57277000D03*
%TD*%
D10*
%TO.C,R42*%
X31392500Y20463000D03*
X29567500Y20463000D03*
%TD*%
D16*
%TO.C,C9*%
X-16510000Y45125500D03*
X-16510000Y47025500D03*
%TD*%
D18*
%TO.C,R48*%
X-14946000Y52197000D03*
X-13121000Y52197000D03*
%TD*%
D59*
%TO.C,D2*%
X36576000Y35179000D03*
X40576000Y35179000D03*
%TD*%
D11*
%TO.C,C29*%
X27244000Y49022000D03*
X29144000Y49022000D03*
%TD*%
D40*
%TO.C,C50*%
X-31051000Y59955000D03*
X-32601000Y59955000D03*
%TD*%
D43*
%TO.C,Q3*%
X27683000Y42164000D03*
X27683000Y43434000D03*
X27683000Y44704000D03*
X27683000Y45974000D03*
D44*
X30353000Y44069000D03*
%TD*%
D12*
%TO.C,R41*%
X17018000Y36282000D03*
X17018000Y34457000D03*
%TD*%
D34*
%TO.C,U1*%
X-25654000Y40899000D03*
X-25654000Y42799000D03*
X-23779000Y41849000D03*
%TD*%
D18*
%TO.C,R11*%
X-12596500Y36449000D03*
X-10771500Y36449000D03*
%TD*%
D52*
%TO.C,L4*%
X29874000Y26505000D03*
X29874000Y28655000D03*
%TD*%
D10*
%TO.C,R25*%
X-29504000Y30607000D03*
X-31329000Y30607000D03*
%TD*%
D17*
%TO.C,C11*%
X26985000Y17145000D03*
X25085000Y17145000D03*
%TD*%
D13*
%TO.C,C38*%
X33524000Y30880000D03*
X33524000Y28980000D03*
%TD*%
D27*
%TO.C,C58*%
X-45326000Y54480000D03*
X-45326000Y56030000D03*
%TD*%
M02*
