M48
; DRILL file {KiCad 9.0.1+1} date 2025-09-06T16:26:38+0000
; FORMAT={3:3/ absolute / metric / suppress leading zeros}
; #@! TF.CreationDate,2025-09-06T16:26:38+00:00
; #@! TF.GenerationSoftware,Kicad,Pcbnew,9.0.1+1
; #@! TF.FileFunction,Plated,1,4,PTH
FMAT,2
METRIC,TZ
; #@! TA.AperFunction,Plated,PTH,ComponentDrill
T1C0.200
; #@! TA.AperFunction,Plated,PTH,ComponentDrill
T2C0.250
; #@! TA.AperFunction,Plated,PTH,ViaDrill
T3C0.400
; #@! TA.AperFunction,Plated,PTH,ComponentDrill
T4C0.889
; #@! TA.AperFunction,Plated,PTH,ComponentDrill
T5C1.200
; #@! TA.AperFunction,Plated,PTH,ComponentDrill
T6C1.500
; #@! TA.AperFunction,Plated,PTH,ComponentDrill
T7C1.700
; #@! TA.AperFunction,Plated,PTH,ComponentDrill
T8C3.000
%
G90
G05
T1
X-25454Y56963
X-25454Y55913
X-25454Y54863
X-24404Y56963
X-24404Y55913
X-24404Y54863
X-23354Y56963
X-23354Y55913
X-23354Y54863
T2
X-10926Y60005
X-9926Y60005
T3
X-53086Y50165
X-53086Y47117
X-53086Y22733
X-50800Y21463
X-45974Y51181
X-44958Y51181
X-43942Y51181
X-42926Y52197
X-41148Y50419
X-40640Y59309
X-40640Y57314
X-39826Y55855
X-39116Y60325
X-37338Y53277
X-35814Y37973
X-35306Y53023
X-35306Y51244
X-35306Y49403
X-35306Y43053
X-33787Y47884
X-33528Y33401
X-33020Y62103
X-32512Y28067
X-32004Y32258
X-31496Y63627
X-31496Y21971
X-31242Y47117
X-31242Y41021
X-31242Y40005
X-30988Y43053
X-30861Y52070
X-29972Y52070
X-29696Y33050
X-29464Y63627
X-29210Y23495
X-28448Y63627
X-28194Y35462
X-28194Y30607
X-28194Y28067
X-28146Y37627
X-27940Y49276
X-27686Y39497
X-27490Y52371
X-27432Y61468
X-27432Y59563
X-27432Y50321
X-27178Y17653
X-26924Y53975
X-26675Y52964
X-26416Y48387
X-26162Y37592
X-26161Y51546
X-24638Y38862
X-24638Y34417
X-24638Y18669
X-23368Y43053
X-23114Y62865
X-23073Y59338
X-22860Y53176
X-22352Y43053
X-22098Y63119
X-22098Y29845
X-22098Y18415
X-21590Y61849
X-21336Y57023
X-21336Y43053
X-21336Y21463
X-21333Y53170
X-20574Y49911
X-20526Y60455
X-20470Y27116
X-20320Y44069
X-20320Y43053
X-19934Y21341
X-19050Y47117
X-18796Y32639
X-18796Y21209
X-18288Y52959
X-18034Y54991
X-18034Y47117
X-17780Y32639
X-17526Y30099
X-17526Y26797
X-17526Y25019
X-17018Y57277
X-16764Y23241
X-16510Y25019
X-16256Y27559
X-16002Y40259
X-14986Y53721
X-14986Y49149
X-14986Y40259
X-14732Y60833
X-14732Y18923
X-14478Y63627
X-13992Y23009
X-13970Y31623
X-12954Y53721
X-12827Y62611
X-12700Y57785
X-12700Y32893
X-12446Y38481
X-11684Y44069
X-11430Y40259
X-11176Y47625
X-11176Y26543
X-11176Y24130
X-10668Y55753
X-10414Y45085
X-10414Y41275
X-10160Y52451
X-10160Y22733
X-9906Y29083
X-9326Y43997
X-9300Y53467
X-9144Y42000
X-9066Y34963
X-8636Y43053
X-8382Y36957
X-8382Y26035
X-8382Y25019
X-8382Y24003
X-7874Y58801
X-7112Y33401
X-6604Y51435
X-6350Y52997
X-5842Y59845
X-4826Y23495
X-4572Y57023
X-4572Y46863
X-4318Y44323
X-3556Y57023
X-3302Y44323
X-3085Y47588
X-3048Y21717
X-2867Y26532
X-2540Y29591
X-2540Y17399
X-2286Y30607
X-1973Y37016
X-1016Y36195
X-508Y48895
X-254Y58801
X-254Y31623
X0Y15113
X254Y44069
X762Y63853
X762Y34925
X1270Y23241
X1270Y18669
X1807Y32639
X2032Y67437
X2110Y48171
X2286Y49403
X2540Y14859
X3048Y32639
X3048Y23495
X3302Y63853
X3810Y15875
X4064Y50419
X4064Y31369
X4064Y25019
X4318Y36195
X4318Y23495
X4396Y39789
X4826Y30861
X4826Y27559
X5080Y25019
X5588Y33147
X5842Y65659
X6096Y60071
X6096Y49911
X6858Y17399
X7112Y29845
X7366Y25273
X7366Y19939
X7620Y45593
X8382Y22479
X8890Y43561
X9398Y30607
X10160Y38481
X10414Y49149
X10414Y48133
X10668Y45085
X11146Y25654
X11176Y62103
X11284Y41275
X11430Y52705
X11938Y61341
X13462Y42545
X13462Y41275
X13716Y36449
X14224Y59817
X14478Y35179
X14986Y18669
X14986Y14859
X15240Y34671
X15748Y55753
X15748Y54483
X15748Y31369
X15748Y21463
X15772Y47395
X16510Y25654
X16753Y43813
X17272Y37719
X18034Y22987
X18542Y48133
X18542Y34671
X18542Y29591
X18804Y37965
X19558Y29591
X20003Y37910
X20054Y44538
X20574Y29083
X20574Y25527
X21068Y41171
X21844Y40132
X22098Y47879
X22098Y35941
X22098Y16383
X23241Y44069
X23340Y42383
X23622Y39751
X23622Y35687
X23876Y47053
X24124Y50159
X24384Y20193
X24384Y19177
X24638Y29083
X24805Y27599
X25041Y23231
X25400Y21717
X25654Y45974
X25908Y14859
X26924Y23108
X26965Y25738
X28702Y18923
X28753Y17526
X29591Y50038
X31750Y28829
X31750Y27559
X31877Y49911
X32004Y52451
X32004Y25527
X32004Y23749
X33020Y31877
X34290Y34671
X34798Y50038
X35306Y52832
X36859Y31623
X37338Y27813
X37338Y25781
X37846Y61087
X40386Y29845
X40386Y26925
X40386Y24257
X40576Y35179
X42926Y36195
X42926Y35179
X42926Y34163
X43688Y59563
X43688Y57785
T4
X-37338Y68961
X-37338Y66421
X-34798Y68961
X-34798Y66421
X-31496Y68961
X-31496Y66421
X-29718Y16129
X-29718Y13589
X-28956Y68961
X-28956Y66421
X-27178Y16129
X-27178Y13589
X-26416Y68961
X-26416Y66421
X-25576Y45123
X-24638Y16129
X-24638Y13589
X-23876Y68961
X-23876Y66421
X-23036Y45123
X-22098Y16129
X-22098Y13589
X-21336Y68961
X-21336Y66421
X-19558Y16129
X-19558Y13589
X-18796Y68961
X-18796Y66421
X-16256Y68961
X-16256Y66421
X-16256Y16129
X-16256Y13589
X-13716Y16129
X-13716Y13589
X-12954Y68961
X-12954Y66421
X-11176Y16129
X-11176Y13589
X-10414Y68961
X-10414Y66421
X-8636Y16129
X-8636Y13589
X-7874Y68961
X-7874Y66421
X-6096Y16129
X-6096Y13589
X8382Y50927
X9398Y68961
X9398Y66421
X10922Y50927
X11938Y68961
X11938Y66421
X14478Y68961
X14478Y66421
X40640Y54483
X40640Y51943
X40640Y49403
X40640Y43815
X40640Y41275
X40640Y38735
X43180Y54483
X43180Y51943
X43180Y49403
X43180Y43815
X43180Y41275
X43180Y38735
T5
X23876Y61087
X31376Y61087
T6
X-50546Y56007
T7
X-53086Y58547
X-53086Y53467
X-48006Y58547
X-48006Y53467
T8
X-50546Y66675
X-50546Y15875
X40894Y66675
X40894Y15875
M30
